M48
; DRILL file {KiCad (5.1.0)-1} date 3/26/2019 9:03:17 PM
; FORMAT={-:-/ absolute / inch / decimal}
; #@! TF.CreationDate,2019-03-26T21:03:17+01:00
; #@! TF.GenerationSoftware,Kicad,Pcbnew,(5.1.0)-1
; #@! TF.FileFunction,Plated,1,2,PTH
FMAT,2
INCH
T1C0.0157
T2C0.0240
T3C0.0295
T4C0.0315
T5C0.0354
T6C0.0394
T7C0.0433
T8C0.0512
%
G90
G05
T1
X6.525Y-3.0
X7.475Y-2.6
X7.675Y-1.5215
X7.775Y-1.6285
X7.875Y-2.275
X7.925Y-2.6715
X8.225Y-2.575
X8.25Y-1.575
X8.325Y-2.25
X8.7715Y-2.625
T2
X8.2Y-2.7
X8.2Y-3.1
X8.3Y-2.7
X8.3Y-3.1
X8.4Y-2.7
X8.4Y-3.1
X8.5Y-2.7
X8.5Y-3.1
X8.6Y-2.7
X8.6Y-3.1
T3
X8.4Y-1.2
X8.45Y-1.15
X8.45Y-1.25
X8.05Y-1.2
X8.1Y-1.15
X8.1Y-1.25
T4
X7.94Y-2.26
X8.24Y-2.26
X6.26Y-1.94
X6.56Y-1.94
X7.8Y-1.15
X7.8Y-1.45
X6.05Y-1.15
X6.05Y-1.45
X6.15Y-1.15
X6.15Y-1.45
X6.25Y-1.15
X6.25Y-1.45
X6.35Y-1.15
X6.35Y-1.45
X7.52Y-2.26
X7.82Y-2.26
X6.68Y-1.94
X6.98Y-1.94
X7.1Y-2.26
X7.4Y-2.26
X7.94Y-2.1
X8.24Y-2.1
X8.36Y-2.1
X8.66Y-2.1
X7.52Y-2.1
X7.82Y-2.1
X7.6Y-1.15
X7.6Y-1.45
X8.35Y-1.45
X8.65Y-1.45
X5.725Y-1.2516
X5.725Y-1.35
X6.47Y-2.82
X6.47Y-3.12
X6.57Y-2.82
X6.57Y-3.12
X6.67Y-2.82
X6.67Y-3.12
X6.77Y-2.82
X6.77Y-3.12
X6.68Y-2.26
X6.98Y-2.26
X7.1Y-1.94
X7.4Y-1.94
X7.1Y-2.1
X7.4Y-2.1
X6.68Y-2.1
X6.98Y-2.1
X8.36Y-1.94
X8.66Y-1.94
X5.84Y-2.1
X6.14Y-2.1
X5.84Y-1.94
X6.14Y-1.94
X5.84Y-2.26
X6.14Y-2.26
X7.52Y-1.94
X7.82Y-1.94
X6.26Y-2.1
X6.56Y-2.1
X6.26Y-2.26
X6.56Y-2.26
X7.95Y-1.45
X8.25Y-1.45
X7.94Y-1.94
X8.24Y-1.94
T5
X7.57Y-2.82
X7.57Y-2.92
X7.83Y-2.82
X7.83Y-2.92
X7.05Y-2.82
X7.05Y-2.92
X7.31Y-2.82
X7.31Y-2.92
T6
X5.9Y-2.5
X6.0Y-2.5
X6.6Y-2.5
X7.5Y-2.5
X7.6Y-2.5
X7.7Y-2.5
X7.8Y-2.5
X7.9Y-2.5
X8.0Y-2.5
X8.1Y-2.5
X8.2Y-2.5
X8.3Y-2.5
X5.9Y-2.4
X6.0Y-2.4
X6.1Y-2.4
X6.2Y-2.4
X6.3Y-2.4
X6.4Y-2.4
X6.5Y-2.4
X6.6Y-2.4
X6.7Y-2.4
X6.8Y-2.4
X6.9Y-2.4
X7.0Y-2.4
X7.1Y-2.4
X7.2Y-2.4
X7.3Y-2.4
X7.4Y-2.4
X7.5Y-2.4
X7.6Y-2.4
X7.7Y-2.4
X7.8Y-2.4
X7.9Y-2.4
X8.0Y-2.4
X8.1Y-2.4
X8.2Y-2.4
X8.3Y-2.4
X8.4Y-2.4
X8.5Y-2.4
X8.6Y-2.4
X7.0Y-1.7
X7.3Y-1.7
X7.4Y-1.7
X7.5Y-1.7
X7.6Y-1.7
X7.7Y-1.7
X7.8Y-1.7
X7.9Y-1.7
X8.1Y-1.7
X8.2Y-1.7
X5.9Y-1.8
X6.0Y-1.8
X6.1Y-1.8
X6.2Y-1.8
X6.3Y-1.8
X6.4Y-1.8
X6.5Y-1.8
X6.6Y-1.8
X6.7Y-1.8
X6.8Y-1.8
X6.9Y-1.8
X7.0Y-1.8
X7.1Y-1.8
X7.2Y-1.8
X7.3Y-1.8
X7.4Y-1.8
X7.5Y-1.8
X7.6Y-1.8
X7.7Y-1.8
X7.8Y-1.8
X7.9Y-1.8
X8.0Y-1.8
X8.1Y-1.8
X8.2Y-1.8
X8.3Y-1.8
X8.4Y-1.8
X8.5Y-1.8
X8.6Y-1.8
X5.9Y-1.7
X6.0Y-1.7
X6.1Y-1.7
X6.2Y-1.7
T7
X7.35Y-1.1661
X7.35Y-1.2331
X7.35Y-1.3
X7.35Y-1.3669
X7.35Y-1.4339
T8
X5.7813Y-3.275
X5.9781Y-2.6844
X6.175Y-3.275
T0
M30
