G04 #@! TF.GenerationSoftware,KiCad,Pcbnew,(5.1.0)-1*
G04 #@! TF.CreationDate,2019-03-26T21:03:11+01:00*
G04 #@! TF.ProjectId,ac2-detpic-shield,6163322d-6465-4747-9069-632d73686965,rev?*
G04 #@! TF.SameCoordinates,Original*
G04 #@! TF.FileFunction,Legend,Bot*
G04 #@! TF.FilePolarity,Positive*
%FSLAX46Y46*%
G04 Gerber Fmt 4.6, Leading zero omitted, Abs format (unit mm)*
G04 Created by KiCad (PCBNEW (5.1.0)-1) date 2019-03-26 21:03:11*
%MOMM*%
%LPD*%
G04 APERTURE LIST*
%ADD10C,0.150000*%
%ADD11C,0.120000*%
G04 APERTURE END LIST*
D10*
X144832619Y-60419761D02*
X144832619Y-60895952D01*
X145832619Y-60895952D01*
X144832619Y-60086428D02*
X145499285Y-60086428D01*
X145832619Y-60086428D02*
X145785000Y-60134047D01*
X145737380Y-60086428D01*
X145785000Y-60038809D01*
X145832619Y-60086428D01*
X145737380Y-60086428D01*
X144880238Y-59181666D02*
X144832619Y-59276904D01*
X144832619Y-59467380D01*
X144880238Y-59562619D01*
X144927857Y-59610238D01*
X145023095Y-59657857D01*
X145308809Y-59657857D01*
X145404047Y-59610238D01*
X145451666Y-59562619D01*
X145499285Y-59467380D01*
X145499285Y-59276904D01*
X145451666Y-59181666D01*
X144880238Y-58372142D02*
X144832619Y-58467380D01*
X144832619Y-58657857D01*
X144880238Y-58753095D01*
X144975476Y-58800714D01*
X145356428Y-58800714D01*
X145451666Y-58753095D01*
X145499285Y-58657857D01*
X145499285Y-58467380D01*
X145451666Y-58372142D01*
X145356428Y-58324523D01*
X145261190Y-58324523D01*
X145165952Y-58800714D01*
X145499285Y-57895952D02*
X144832619Y-57895952D01*
X145404047Y-57895952D02*
X145451666Y-57848333D01*
X145499285Y-57753095D01*
X145499285Y-57610238D01*
X145451666Y-57515000D01*
X145356428Y-57467380D01*
X144832619Y-57467380D01*
X144880238Y-56562619D02*
X144832619Y-56657857D01*
X144832619Y-56848333D01*
X144880238Y-56943571D01*
X144927857Y-56991190D01*
X145023095Y-57038809D01*
X145308809Y-57038809D01*
X145404047Y-56991190D01*
X145451666Y-56943571D01*
X145499285Y-56848333D01*
X145499285Y-56657857D01*
X145451666Y-56562619D01*
X144880238Y-55753095D02*
X144832619Y-55848333D01*
X144832619Y-56038809D01*
X144880238Y-56134047D01*
X144975476Y-56181666D01*
X145356428Y-56181666D01*
X145451666Y-56134047D01*
X145499285Y-56038809D01*
X145499285Y-55848333D01*
X145451666Y-55753095D01*
X145356428Y-55705476D01*
X145261190Y-55705476D01*
X145165952Y-56181666D01*
X144927857Y-55276904D02*
X144880238Y-55229285D01*
X144832619Y-55276904D01*
X144880238Y-55324523D01*
X144927857Y-55276904D01*
X144832619Y-55276904D01*
X145451666Y-55276904D02*
X145404047Y-55229285D01*
X145356428Y-55276904D01*
X145404047Y-55324523D01*
X145451666Y-55276904D01*
X145356428Y-55276904D01*
X144832619Y-54038809D02*
X145832619Y-54038809D01*
X145118333Y-53705476D01*
X145832619Y-53372142D01*
X144832619Y-53372142D01*
X144832619Y-52895952D02*
X145832619Y-52895952D01*
X145832619Y-52562619D02*
X145832619Y-51991190D01*
X144832619Y-52276904D02*
X145832619Y-52276904D01*
X143277857Y-67062619D02*
X143230238Y-67110238D01*
X143182619Y-67253095D01*
X143182619Y-67348333D01*
X143230238Y-67491190D01*
X143325476Y-67586428D01*
X143420714Y-67634047D01*
X143611190Y-67681666D01*
X143754047Y-67681666D01*
X143944523Y-67634047D01*
X144039761Y-67586428D01*
X144135000Y-67491190D01*
X144182619Y-67348333D01*
X144182619Y-67253095D01*
X144135000Y-67110238D01*
X144087380Y-67062619D01*
X143182619Y-66491190D02*
X143230238Y-66586428D01*
X143277857Y-66634047D01*
X143373095Y-66681666D01*
X143658809Y-66681666D01*
X143754047Y-66634047D01*
X143801666Y-66586428D01*
X143849285Y-66491190D01*
X143849285Y-66348333D01*
X143801666Y-66253095D01*
X143754047Y-66205476D01*
X143658809Y-66157857D01*
X143373095Y-66157857D01*
X143277857Y-66205476D01*
X143230238Y-66253095D01*
X143182619Y-66348333D01*
X143182619Y-66491190D01*
X143849285Y-65729285D02*
X142849285Y-65729285D01*
X143801666Y-65729285D02*
X143849285Y-65634047D01*
X143849285Y-65443571D01*
X143801666Y-65348333D01*
X143754047Y-65300714D01*
X143658809Y-65253095D01*
X143373095Y-65253095D01*
X143277857Y-65300714D01*
X143230238Y-65348333D01*
X143182619Y-65443571D01*
X143182619Y-65634047D01*
X143230238Y-65729285D01*
X143849285Y-64919761D02*
X143182619Y-64681666D01*
X143849285Y-64443571D02*
X143182619Y-64681666D01*
X142944523Y-64776904D01*
X142896904Y-64824523D01*
X142849285Y-64919761D01*
X143182619Y-64062619D02*
X143849285Y-64062619D01*
X143658809Y-64062619D02*
X143754047Y-64015000D01*
X143801666Y-63967380D01*
X143849285Y-63872142D01*
X143849285Y-63776904D01*
X143182619Y-63443571D02*
X143849285Y-63443571D01*
X144182619Y-63443571D02*
X144135000Y-63491190D01*
X144087380Y-63443571D01*
X144135000Y-63395952D01*
X144182619Y-63443571D01*
X144087380Y-63443571D01*
X143849285Y-62538809D02*
X143039761Y-62538809D01*
X142944523Y-62586428D01*
X142896904Y-62634047D01*
X142849285Y-62729285D01*
X142849285Y-62872142D01*
X142896904Y-62967380D01*
X143230238Y-62538809D02*
X143182619Y-62634047D01*
X143182619Y-62824523D01*
X143230238Y-62919761D01*
X143277857Y-62967380D01*
X143373095Y-63015000D01*
X143658809Y-63015000D01*
X143754047Y-62967380D01*
X143801666Y-62919761D01*
X143849285Y-62824523D01*
X143849285Y-62634047D01*
X143801666Y-62538809D01*
X143182619Y-62062619D02*
X144182619Y-62062619D01*
X143182619Y-61634047D02*
X143706428Y-61634047D01*
X143801666Y-61681666D01*
X143849285Y-61776904D01*
X143849285Y-61919761D01*
X143801666Y-62015000D01*
X143754047Y-62062619D01*
X143849285Y-61300714D02*
X143849285Y-60919761D01*
X144182619Y-61157857D02*
X143325476Y-61157857D01*
X143230238Y-61110238D01*
X143182619Y-61015000D01*
X143182619Y-60919761D01*
X144087380Y-59872142D02*
X144135000Y-59824523D01*
X144182619Y-59729285D01*
X144182619Y-59491190D01*
X144135000Y-59395952D01*
X144087380Y-59348333D01*
X143992142Y-59300714D01*
X143896904Y-59300714D01*
X143754047Y-59348333D01*
X143182619Y-59919761D01*
X143182619Y-59300714D01*
X144182619Y-58681666D02*
X144182619Y-58586428D01*
X144135000Y-58491190D01*
X144087380Y-58443571D01*
X143992142Y-58395952D01*
X143801666Y-58348333D01*
X143563571Y-58348333D01*
X143373095Y-58395952D01*
X143277857Y-58443571D01*
X143230238Y-58491190D01*
X143182619Y-58586428D01*
X143182619Y-58681666D01*
X143230238Y-58776904D01*
X143277857Y-58824523D01*
X143373095Y-58872142D01*
X143563571Y-58919761D01*
X143801666Y-58919761D01*
X143992142Y-58872142D01*
X144087380Y-58824523D01*
X144135000Y-58776904D01*
X144182619Y-58681666D01*
X143182619Y-57395952D02*
X143182619Y-57967380D01*
X143182619Y-57681666D02*
X144182619Y-57681666D01*
X144039761Y-57776904D01*
X143944523Y-57872142D01*
X143896904Y-57967380D01*
X143182619Y-56919761D02*
X143182619Y-56729285D01*
X143230238Y-56634047D01*
X143277857Y-56586428D01*
X143420714Y-56491190D01*
X143611190Y-56443571D01*
X143992142Y-56443571D01*
X144087380Y-56491190D01*
X144135000Y-56538809D01*
X144182619Y-56634047D01*
X144182619Y-56824523D01*
X144135000Y-56919761D01*
X144087380Y-56967380D01*
X143992142Y-57015000D01*
X143754047Y-57015000D01*
X143658809Y-56967380D01*
X143611190Y-56919761D01*
X143563571Y-56824523D01*
X143563571Y-56634047D01*
X143611190Y-56538809D01*
X143658809Y-56491190D01*
X143754047Y-56443571D01*
X143182619Y-55253095D02*
X144182619Y-55253095D01*
X144182619Y-55015000D01*
X144135000Y-54872142D01*
X144039761Y-54776904D01*
X143944523Y-54729285D01*
X143754047Y-54681666D01*
X143611190Y-54681666D01*
X143420714Y-54729285D01*
X143325476Y-54776904D01*
X143230238Y-54872142D01*
X143182619Y-55015000D01*
X143182619Y-55253095D01*
X143182619Y-54253095D02*
X143849285Y-54253095D01*
X144182619Y-54253095D02*
X144135000Y-54300714D01*
X144087380Y-54253095D01*
X144135000Y-54205476D01*
X144182619Y-54253095D01*
X144087380Y-54253095D01*
X143182619Y-53634047D02*
X143230238Y-53729285D01*
X143277857Y-53776904D01*
X143373095Y-53824523D01*
X143658809Y-53824523D01*
X143754047Y-53776904D01*
X143801666Y-53729285D01*
X143849285Y-53634047D01*
X143849285Y-53491190D01*
X143801666Y-53395952D01*
X143754047Y-53348333D01*
X143658809Y-53300714D01*
X143373095Y-53300714D01*
X143277857Y-53348333D01*
X143230238Y-53395952D01*
X143182619Y-53491190D01*
X143182619Y-53634047D01*
X143849285Y-52443571D02*
X143039761Y-52443571D01*
X142944523Y-52491190D01*
X142896904Y-52538809D01*
X142849285Y-52634047D01*
X142849285Y-52776904D01*
X142896904Y-52872142D01*
X143230238Y-52443571D02*
X143182619Y-52538809D01*
X143182619Y-52729285D01*
X143230238Y-52824523D01*
X143277857Y-52872142D01*
X143373095Y-52919761D01*
X143658809Y-52919761D01*
X143754047Y-52872142D01*
X143801666Y-52824523D01*
X143849285Y-52729285D01*
X143849285Y-52538809D01*
X143801666Y-52443571D01*
X143182619Y-51824523D02*
X143230238Y-51919761D01*
X143277857Y-51967380D01*
X143373095Y-52015000D01*
X143658809Y-52015000D01*
X143754047Y-51967380D01*
X143801666Y-51919761D01*
X143849285Y-51824523D01*
X143849285Y-51681666D01*
X143801666Y-51586428D01*
X143754047Y-51538809D01*
X143658809Y-51491190D01*
X143373095Y-51491190D01*
X143277857Y-51538809D01*
X143230238Y-51586428D01*
X143182619Y-51681666D01*
X143182619Y-51824523D01*
X143277857Y-49729285D02*
X143230238Y-49776904D01*
X143182619Y-49919761D01*
X143182619Y-50015000D01*
X143230238Y-50157857D01*
X143325476Y-50253095D01*
X143420714Y-50300714D01*
X143611190Y-50348333D01*
X143754047Y-50348333D01*
X143944523Y-50300714D01*
X144039761Y-50253095D01*
X144135000Y-50157857D01*
X144182619Y-50015000D01*
X144182619Y-49919761D01*
X144135000Y-49776904D01*
X144087380Y-49729285D01*
X143182619Y-49157857D02*
X143230238Y-49253095D01*
X143277857Y-49300714D01*
X143373095Y-49348333D01*
X143658809Y-49348333D01*
X143754047Y-49300714D01*
X143801666Y-49253095D01*
X143849285Y-49157857D01*
X143849285Y-49015000D01*
X143801666Y-48919761D01*
X143754047Y-48872142D01*
X143658809Y-48824523D01*
X143373095Y-48824523D01*
X143277857Y-48872142D01*
X143230238Y-48919761D01*
X143182619Y-49015000D01*
X143182619Y-49157857D01*
X143182619Y-48395952D02*
X143849285Y-48395952D01*
X143658809Y-48395952D02*
X143754047Y-48348333D01*
X143801666Y-48300714D01*
X143849285Y-48205476D01*
X143849285Y-48110238D01*
X143182619Y-47776904D02*
X143849285Y-47776904D01*
X143658809Y-47776904D02*
X143754047Y-47729285D01*
X143801666Y-47681666D01*
X143849285Y-47586428D01*
X143849285Y-47491190D01*
X143230238Y-46776904D02*
X143182619Y-46872142D01*
X143182619Y-47062619D01*
X143230238Y-47157857D01*
X143325476Y-47205476D01*
X143706428Y-47205476D01*
X143801666Y-47157857D01*
X143849285Y-47062619D01*
X143849285Y-46872142D01*
X143801666Y-46776904D01*
X143706428Y-46729285D01*
X143611190Y-46729285D01*
X143515952Y-47205476D01*
X143182619Y-46300714D02*
X143849285Y-46300714D01*
X144182619Y-46300714D02*
X144135000Y-46348333D01*
X144087380Y-46300714D01*
X144135000Y-46253095D01*
X144182619Y-46300714D01*
X144087380Y-46300714D01*
X143182619Y-45395952D02*
X143706428Y-45395952D01*
X143801666Y-45443571D01*
X143849285Y-45538809D01*
X143849285Y-45729285D01*
X143801666Y-45824523D01*
X143230238Y-45395952D02*
X143182619Y-45491190D01*
X143182619Y-45729285D01*
X143230238Y-45824523D01*
X143325476Y-45872142D01*
X143420714Y-45872142D01*
X143515952Y-45824523D01*
X143563571Y-45729285D01*
X143563571Y-45491190D01*
X143611190Y-45395952D01*
X140882619Y-84062619D02*
X140882619Y-83491190D01*
X139882619Y-83776904D02*
X140882619Y-83776904D01*
X139882619Y-83157857D02*
X140882619Y-83157857D01*
X139882619Y-82729285D02*
X140406428Y-82729285D01*
X140501666Y-82776904D01*
X140549285Y-82872142D01*
X140549285Y-83015000D01*
X140501666Y-83110238D01*
X140454047Y-83157857D01*
X139882619Y-82253095D02*
X140549285Y-82253095D01*
X140882619Y-82253095D02*
X140835000Y-82300714D01*
X140787380Y-82253095D01*
X140835000Y-82205476D01*
X140882619Y-82253095D01*
X140787380Y-82253095D01*
X139930238Y-81824523D02*
X139882619Y-81729285D01*
X139882619Y-81538809D01*
X139930238Y-81443571D01*
X140025476Y-81395952D01*
X140073095Y-81395952D01*
X140168333Y-81443571D01*
X140215952Y-81538809D01*
X140215952Y-81681666D01*
X140263571Y-81776904D01*
X140358809Y-81824523D01*
X140406428Y-81824523D01*
X140501666Y-81776904D01*
X140549285Y-81681666D01*
X140549285Y-81538809D01*
X140501666Y-81443571D01*
X139930238Y-80253095D02*
X139882619Y-80157857D01*
X139882619Y-79967380D01*
X139930238Y-79872142D01*
X140025476Y-79824523D01*
X140073095Y-79824523D01*
X140168333Y-79872142D01*
X140215952Y-79967380D01*
X140215952Y-80110238D01*
X140263571Y-80205476D01*
X140358809Y-80253095D01*
X140406428Y-80253095D01*
X140501666Y-80205476D01*
X140549285Y-80110238D01*
X140549285Y-79967380D01*
X140501666Y-79872142D01*
X139882619Y-79395952D02*
X140882619Y-79395952D01*
X139882619Y-78967380D02*
X140406428Y-78967380D01*
X140501666Y-79015000D01*
X140549285Y-79110238D01*
X140549285Y-79253095D01*
X140501666Y-79348333D01*
X140454047Y-79395952D01*
X139882619Y-78491190D02*
X140549285Y-78491190D01*
X140882619Y-78491190D02*
X140835000Y-78538809D01*
X140787380Y-78491190D01*
X140835000Y-78443571D01*
X140882619Y-78491190D01*
X140787380Y-78491190D01*
X139930238Y-77634047D02*
X139882619Y-77729285D01*
X139882619Y-77919761D01*
X139930238Y-78015000D01*
X140025476Y-78062619D01*
X140406428Y-78062619D01*
X140501666Y-78015000D01*
X140549285Y-77919761D01*
X140549285Y-77729285D01*
X140501666Y-77634047D01*
X140406428Y-77586428D01*
X140311190Y-77586428D01*
X140215952Y-78062619D01*
X139882619Y-77015000D02*
X139930238Y-77110238D01*
X140025476Y-77157857D01*
X140882619Y-77157857D01*
X139882619Y-76205476D02*
X140882619Y-76205476D01*
X139930238Y-76205476D02*
X139882619Y-76300714D01*
X139882619Y-76491190D01*
X139930238Y-76586428D01*
X139977857Y-76634047D01*
X140073095Y-76681666D01*
X140358809Y-76681666D01*
X140454047Y-76634047D01*
X140501666Y-76586428D01*
X140549285Y-76491190D01*
X140549285Y-76300714D01*
X140501666Y-76205476D01*
X139930238Y-74586428D02*
X139882619Y-74681666D01*
X139882619Y-74872142D01*
X139930238Y-74967380D01*
X140025476Y-75015000D01*
X140406428Y-75015000D01*
X140501666Y-74967380D01*
X140549285Y-74872142D01*
X140549285Y-74681666D01*
X140501666Y-74586428D01*
X140406428Y-74538809D01*
X140311190Y-74538809D01*
X140215952Y-75015000D01*
X139882619Y-74205476D02*
X140549285Y-73681666D01*
X140549285Y-74205476D02*
X139882619Y-73681666D01*
X140549285Y-73443571D02*
X140549285Y-73062619D01*
X140882619Y-73300714D02*
X140025476Y-73300714D01*
X139930238Y-73253095D01*
X139882619Y-73157857D01*
X139882619Y-73062619D01*
X139930238Y-72348333D02*
X139882619Y-72443571D01*
X139882619Y-72634047D01*
X139930238Y-72729285D01*
X140025476Y-72776904D01*
X140406428Y-72776904D01*
X140501666Y-72729285D01*
X140549285Y-72634047D01*
X140549285Y-72443571D01*
X140501666Y-72348333D01*
X140406428Y-72300714D01*
X140311190Y-72300714D01*
X140215952Y-72776904D01*
X140549285Y-71872142D02*
X139882619Y-71872142D01*
X140454047Y-71872142D02*
X140501666Y-71824523D01*
X140549285Y-71729285D01*
X140549285Y-71586428D01*
X140501666Y-71491190D01*
X140406428Y-71443571D01*
X139882619Y-71443571D01*
X139882619Y-70538809D02*
X140882619Y-70538809D01*
X139930238Y-70538809D02*
X139882619Y-70634047D01*
X139882619Y-70824523D01*
X139930238Y-70919761D01*
X139977857Y-70967380D01*
X140073095Y-71015000D01*
X140358809Y-71015000D01*
X140454047Y-70967380D01*
X140501666Y-70919761D01*
X140549285Y-70824523D01*
X140549285Y-70634047D01*
X140501666Y-70538809D01*
X139930238Y-70110238D02*
X139882619Y-70015000D01*
X139882619Y-69824523D01*
X139930238Y-69729285D01*
X140025476Y-69681666D01*
X140073095Y-69681666D01*
X140168333Y-69729285D01*
X140215952Y-69824523D01*
X140215952Y-69967380D01*
X140263571Y-70062619D01*
X140358809Y-70110238D01*
X140406428Y-70110238D01*
X140501666Y-70062619D01*
X140549285Y-69967380D01*
X140549285Y-69824523D01*
X140501666Y-69729285D01*
X140549285Y-68634047D02*
X140549285Y-68253095D01*
X140882619Y-68491190D02*
X140025476Y-68491190D01*
X139930238Y-68443571D01*
X139882619Y-68348333D01*
X139882619Y-68253095D01*
X139882619Y-67919761D02*
X140882619Y-67919761D01*
X139882619Y-67491190D02*
X140406428Y-67491190D01*
X140501666Y-67538809D01*
X140549285Y-67634047D01*
X140549285Y-67776904D01*
X140501666Y-67872142D01*
X140454047Y-67919761D01*
X139930238Y-66634047D02*
X139882619Y-66729285D01*
X139882619Y-66919761D01*
X139930238Y-67015000D01*
X140025476Y-67062619D01*
X140406428Y-67062619D01*
X140501666Y-67015000D01*
X140549285Y-66919761D01*
X140549285Y-66729285D01*
X140501666Y-66634047D01*
X140406428Y-66586428D01*
X140311190Y-66586428D01*
X140215952Y-67062619D01*
X139882619Y-64967380D02*
X140882619Y-64967380D01*
X139930238Y-64967380D02*
X139882619Y-65062619D01*
X139882619Y-65253095D01*
X139930238Y-65348333D01*
X139977857Y-65395952D01*
X140073095Y-65443571D01*
X140358809Y-65443571D01*
X140454047Y-65395952D01*
X140501666Y-65348333D01*
X140549285Y-65253095D01*
X140549285Y-65062619D01*
X140501666Y-64967380D01*
X139930238Y-64110238D02*
X139882619Y-64205476D01*
X139882619Y-64395952D01*
X139930238Y-64491190D01*
X140025476Y-64538809D01*
X140406428Y-64538809D01*
X140501666Y-64491190D01*
X140549285Y-64395952D01*
X140549285Y-64205476D01*
X140501666Y-64110238D01*
X140406428Y-64062619D01*
X140311190Y-64062619D01*
X140215952Y-64538809D01*
X140549285Y-63776904D02*
X140549285Y-63395952D01*
X140882619Y-63634047D02*
X140025476Y-63634047D01*
X139930238Y-63586428D01*
X139882619Y-63491190D01*
X139882619Y-63395952D01*
X140549285Y-63062619D02*
X139549285Y-63062619D01*
X140501666Y-63062619D02*
X140549285Y-62967380D01*
X140549285Y-62776904D01*
X140501666Y-62681666D01*
X140454047Y-62634047D01*
X140358809Y-62586428D01*
X140073095Y-62586428D01*
X139977857Y-62634047D01*
X139930238Y-62681666D01*
X139882619Y-62776904D01*
X139882619Y-62967380D01*
X139930238Y-63062619D01*
X139882619Y-62157857D02*
X140549285Y-62157857D01*
X140882619Y-62157857D02*
X140835000Y-62205476D01*
X140787380Y-62157857D01*
X140835000Y-62110238D01*
X140882619Y-62157857D01*
X140787380Y-62157857D01*
X139930238Y-61253095D02*
X139882619Y-61348333D01*
X139882619Y-61538809D01*
X139930238Y-61634047D01*
X139977857Y-61681666D01*
X140073095Y-61729285D01*
X140358809Y-61729285D01*
X140454047Y-61681666D01*
X140501666Y-61634047D01*
X140549285Y-61538809D01*
X140549285Y-61348333D01*
X140501666Y-61253095D01*
X140882619Y-60919761D02*
X140882619Y-60300714D01*
X140501666Y-60634047D01*
X140501666Y-60491190D01*
X140454047Y-60395952D01*
X140406428Y-60348333D01*
X140311190Y-60300714D01*
X140073095Y-60300714D01*
X139977857Y-60348333D01*
X139930238Y-60395952D01*
X139882619Y-60491190D01*
X139882619Y-60776904D01*
X139930238Y-60872142D01*
X139977857Y-60919761D01*
X140787380Y-59919761D02*
X140835000Y-59872142D01*
X140882619Y-59776904D01*
X140882619Y-59538809D01*
X140835000Y-59443571D01*
X140787380Y-59395952D01*
X140692142Y-59348333D01*
X140596904Y-59348333D01*
X140454047Y-59395952D01*
X139882619Y-59967380D01*
X139882619Y-59348333D01*
X139882619Y-57729285D02*
X140882619Y-57729285D01*
X139930238Y-57729285D02*
X139882619Y-57824523D01*
X139882619Y-58015000D01*
X139930238Y-58110238D01*
X139977857Y-58157857D01*
X140073095Y-58205476D01*
X140358809Y-58205476D01*
X140454047Y-58157857D01*
X140501666Y-58110238D01*
X140549285Y-58015000D01*
X140549285Y-57824523D01*
X140501666Y-57729285D01*
X139930238Y-56872142D02*
X139882619Y-56967380D01*
X139882619Y-57157857D01*
X139930238Y-57253095D01*
X140025476Y-57300714D01*
X140406428Y-57300714D01*
X140501666Y-57253095D01*
X140549285Y-57157857D01*
X140549285Y-56967380D01*
X140501666Y-56872142D01*
X140406428Y-56824523D01*
X140311190Y-56824523D01*
X140215952Y-57300714D01*
X140549285Y-56491190D02*
X139882619Y-56253095D01*
X140549285Y-56015000D01*
X139930238Y-55253095D02*
X139882619Y-55348333D01*
X139882619Y-55538809D01*
X139930238Y-55634047D01*
X140025476Y-55681666D01*
X140406428Y-55681666D01*
X140501666Y-55634047D01*
X140549285Y-55538809D01*
X140549285Y-55348333D01*
X140501666Y-55253095D01*
X140406428Y-55205476D01*
X140311190Y-55205476D01*
X140215952Y-55681666D01*
X139882619Y-54634047D02*
X139930238Y-54729285D01*
X140025476Y-54776904D01*
X140882619Y-54776904D01*
X139882619Y-54110238D02*
X139930238Y-54205476D01*
X139977857Y-54253095D01*
X140073095Y-54300714D01*
X140358809Y-54300714D01*
X140454047Y-54253095D01*
X140501666Y-54205476D01*
X140549285Y-54110238D01*
X140549285Y-53967380D01*
X140501666Y-53872142D01*
X140454047Y-53824523D01*
X140358809Y-53776904D01*
X140073095Y-53776904D01*
X139977857Y-53824523D01*
X139930238Y-53872142D01*
X139882619Y-53967380D01*
X139882619Y-54110238D01*
X140549285Y-53348333D02*
X139549285Y-53348333D01*
X140501666Y-53348333D02*
X140549285Y-53253095D01*
X140549285Y-53062619D01*
X140501666Y-52967380D01*
X140454047Y-52919761D01*
X140358809Y-52872142D01*
X140073095Y-52872142D01*
X139977857Y-52919761D01*
X139930238Y-52967380D01*
X139882619Y-53062619D01*
X139882619Y-53253095D01*
X139930238Y-53348333D01*
X139882619Y-52443571D02*
X140549285Y-52443571D01*
X140454047Y-52443571D02*
X140501666Y-52395952D01*
X140549285Y-52300714D01*
X140549285Y-52157857D01*
X140501666Y-52062619D01*
X140406428Y-52015000D01*
X139882619Y-52015000D01*
X140406428Y-52015000D02*
X140501666Y-51967380D01*
X140549285Y-51872142D01*
X140549285Y-51729285D01*
X140501666Y-51634047D01*
X140406428Y-51586428D01*
X139882619Y-51586428D01*
X139930238Y-50729285D02*
X139882619Y-50824523D01*
X139882619Y-51015000D01*
X139930238Y-51110238D01*
X140025476Y-51157857D01*
X140406428Y-51157857D01*
X140501666Y-51110238D01*
X140549285Y-51015000D01*
X140549285Y-50824523D01*
X140501666Y-50729285D01*
X140406428Y-50681666D01*
X140311190Y-50681666D01*
X140215952Y-51157857D01*
X140549285Y-50253095D02*
X139882619Y-50253095D01*
X140454047Y-50253095D02*
X140501666Y-50205476D01*
X140549285Y-50110238D01*
X140549285Y-49967380D01*
X140501666Y-49872142D01*
X140406428Y-49824523D01*
X139882619Y-49824523D01*
X140549285Y-49491190D02*
X140549285Y-49110238D01*
X140882619Y-49348333D02*
X140025476Y-49348333D01*
X139930238Y-49300714D01*
X139882619Y-49205476D01*
X139882619Y-49110238D01*
X139882619Y-48015000D02*
X140882619Y-48015000D01*
X140501666Y-48015000D02*
X140549285Y-47919761D01*
X140549285Y-47729285D01*
X140501666Y-47634047D01*
X140454047Y-47586428D01*
X140358809Y-47538809D01*
X140073095Y-47538809D01*
X139977857Y-47586428D01*
X139930238Y-47634047D01*
X139882619Y-47729285D01*
X139882619Y-47919761D01*
X139930238Y-48015000D01*
X139882619Y-46967380D02*
X139930238Y-47062619D01*
X139977857Y-47110238D01*
X140073095Y-47157857D01*
X140358809Y-47157857D01*
X140454047Y-47110238D01*
X140501666Y-47062619D01*
X140549285Y-46967380D01*
X140549285Y-46824523D01*
X140501666Y-46729285D01*
X140454047Y-46681666D01*
X140358809Y-46634047D01*
X140073095Y-46634047D01*
X139977857Y-46681666D01*
X139930238Y-46729285D01*
X139882619Y-46824523D01*
X139882619Y-46967380D01*
X139882619Y-45776904D02*
X140406428Y-45776904D01*
X140501666Y-45824523D01*
X140549285Y-45919761D01*
X140549285Y-46110238D01*
X140501666Y-46205476D01*
X139930238Y-45776904D02*
X139882619Y-45872142D01*
X139882619Y-46110238D01*
X139930238Y-46205476D01*
X140025476Y-46253095D01*
X140120714Y-46253095D01*
X140215952Y-46205476D01*
X140263571Y-46110238D01*
X140263571Y-45872142D01*
X140311190Y-45776904D01*
X139882619Y-45300714D02*
X140549285Y-45300714D01*
X140358809Y-45300714D02*
X140454047Y-45253095D01*
X140501666Y-45205476D01*
X140549285Y-45110238D01*
X140549285Y-45015000D01*
X139882619Y-44253095D02*
X140882619Y-44253095D01*
X139930238Y-44253095D02*
X139882619Y-44348333D01*
X139882619Y-44538809D01*
X139930238Y-44634047D01*
X139977857Y-44681666D01*
X140073095Y-44729285D01*
X140358809Y-44729285D01*
X140454047Y-44681666D01*
X140501666Y-44634047D01*
X140549285Y-44538809D01*
X140549285Y-44348333D01*
X140501666Y-44253095D01*
X139930238Y-42586428D02*
X139882619Y-42681666D01*
X139882619Y-42872142D01*
X139930238Y-42967380D01*
X139977857Y-43015000D01*
X140073095Y-43062619D01*
X140358809Y-43062619D01*
X140454047Y-43015000D01*
X140501666Y-42967380D01*
X140549285Y-42872142D01*
X140549285Y-42681666D01*
X140501666Y-42586428D01*
X139882619Y-42157857D02*
X140549285Y-42157857D01*
X140358809Y-42157857D02*
X140454047Y-42110238D01*
X140501666Y-42062619D01*
X140549285Y-41967380D01*
X140549285Y-41872142D01*
X139930238Y-41157857D02*
X139882619Y-41253095D01*
X139882619Y-41443571D01*
X139930238Y-41538809D01*
X140025476Y-41586428D01*
X140406428Y-41586428D01*
X140501666Y-41538809D01*
X140549285Y-41443571D01*
X140549285Y-41253095D01*
X140501666Y-41157857D01*
X140406428Y-41110238D01*
X140311190Y-41110238D01*
X140215952Y-41586428D01*
X139882619Y-40253095D02*
X140406428Y-40253095D01*
X140501666Y-40300714D01*
X140549285Y-40395952D01*
X140549285Y-40586428D01*
X140501666Y-40681666D01*
X139930238Y-40253095D02*
X139882619Y-40348333D01*
X139882619Y-40586428D01*
X139930238Y-40681666D01*
X140025476Y-40729285D01*
X140120714Y-40729285D01*
X140215952Y-40681666D01*
X140263571Y-40586428D01*
X140263571Y-40348333D01*
X140311190Y-40253095D01*
X140549285Y-39919761D02*
X140549285Y-39538809D01*
X140882619Y-39776904D02*
X140025476Y-39776904D01*
X139930238Y-39729285D01*
X139882619Y-39634047D01*
X139882619Y-39538809D01*
X139930238Y-38824523D02*
X139882619Y-38919761D01*
X139882619Y-39110238D01*
X139930238Y-39205476D01*
X140025476Y-39253095D01*
X140406428Y-39253095D01*
X140501666Y-39205476D01*
X140549285Y-39110238D01*
X140549285Y-38919761D01*
X140501666Y-38824523D01*
X140406428Y-38776904D01*
X140311190Y-38776904D01*
X140215952Y-39253095D01*
X139882619Y-37919761D02*
X140882619Y-37919761D01*
X139930238Y-37919761D02*
X139882619Y-38015000D01*
X139882619Y-38205476D01*
X139930238Y-38300714D01*
X139977857Y-38348333D01*
X140073095Y-38395952D01*
X140358809Y-38395952D01*
X140454047Y-38348333D01*
X140501666Y-38300714D01*
X140549285Y-38205476D01*
X140549285Y-38015000D01*
X140501666Y-37919761D01*
X139882619Y-36253095D02*
X140406428Y-36253095D01*
X140501666Y-36300714D01*
X140549285Y-36395952D01*
X140549285Y-36586428D01*
X140501666Y-36681666D01*
X139930238Y-36253095D02*
X139882619Y-36348333D01*
X139882619Y-36586428D01*
X139930238Y-36681666D01*
X140025476Y-36729285D01*
X140120714Y-36729285D01*
X140215952Y-36681666D01*
X140263571Y-36586428D01*
X140263571Y-36348333D01*
X140311190Y-36253095D01*
X140549285Y-35919761D02*
X140549285Y-35538809D01*
X140882619Y-35776904D02*
X140025476Y-35776904D01*
X139930238Y-35729285D01*
X139882619Y-35634047D01*
X139882619Y-35538809D01*
X139882619Y-34443571D02*
X140882619Y-34443571D01*
X140882619Y-34205476D01*
X140835000Y-34062619D01*
X140739761Y-33967380D01*
X140644523Y-33919761D01*
X140454047Y-33872142D01*
X140311190Y-33872142D01*
X140120714Y-33919761D01*
X140025476Y-33967380D01*
X139930238Y-34062619D01*
X139882619Y-34205476D01*
X139882619Y-34443571D01*
X140406428Y-33443571D02*
X140406428Y-33110238D01*
X139882619Y-32967380D02*
X139882619Y-33443571D01*
X140882619Y-33443571D01*
X140882619Y-32967380D01*
X140882619Y-32681666D02*
X140882619Y-32110238D01*
X139882619Y-32395952D02*
X140882619Y-32395952D01*
X139882619Y-31776904D02*
X140882619Y-31776904D01*
X140882619Y-30538809D02*
X140073095Y-30538809D01*
X139977857Y-30491190D01*
X139930238Y-30443571D01*
X139882619Y-30348333D01*
X139882619Y-30157857D01*
X139930238Y-30062619D01*
X139977857Y-30015000D01*
X140073095Y-29967380D01*
X140882619Y-29967380D01*
X140168333Y-29538809D02*
X140168333Y-29062619D01*
X139882619Y-29634047D02*
X140882619Y-29300714D01*
X139882619Y-28967380D01*
X139232619Y-79538809D02*
X139232619Y-78967380D01*
X138232619Y-79253095D02*
X139232619Y-79253095D01*
X138232619Y-78634047D02*
X139232619Y-78634047D01*
X138232619Y-78205476D02*
X138756428Y-78205476D01*
X138851666Y-78253095D01*
X138899285Y-78348333D01*
X138899285Y-78491190D01*
X138851666Y-78586428D01*
X138804047Y-78634047D01*
X138232619Y-77729285D02*
X138899285Y-77729285D01*
X139232619Y-77729285D02*
X139185000Y-77776904D01*
X139137380Y-77729285D01*
X139185000Y-77681666D01*
X139232619Y-77729285D01*
X139137380Y-77729285D01*
X138280238Y-77300714D02*
X138232619Y-77205476D01*
X138232619Y-77015000D01*
X138280238Y-76919761D01*
X138375476Y-76872142D01*
X138423095Y-76872142D01*
X138518333Y-76919761D01*
X138565952Y-77015000D01*
X138565952Y-77157857D01*
X138613571Y-77253095D01*
X138708809Y-77300714D01*
X138756428Y-77300714D01*
X138851666Y-77253095D01*
X138899285Y-77157857D01*
X138899285Y-77015000D01*
X138851666Y-76919761D01*
X138232619Y-75681666D02*
X139232619Y-75681666D01*
X139232619Y-75300714D01*
X139185000Y-75205476D01*
X139137380Y-75157857D01*
X139042142Y-75110238D01*
X138899285Y-75110238D01*
X138804047Y-75157857D01*
X138756428Y-75205476D01*
X138708809Y-75300714D01*
X138708809Y-75681666D01*
X138327857Y-74110238D02*
X138280238Y-74157857D01*
X138232619Y-74300714D01*
X138232619Y-74395952D01*
X138280238Y-74538809D01*
X138375476Y-74634047D01*
X138470714Y-74681666D01*
X138661190Y-74729285D01*
X138804047Y-74729285D01*
X138994523Y-74681666D01*
X139089761Y-74634047D01*
X139185000Y-74538809D01*
X139232619Y-74395952D01*
X139232619Y-74300714D01*
X139185000Y-74157857D01*
X139137380Y-74110238D01*
X138756428Y-73348333D02*
X138708809Y-73205476D01*
X138661190Y-73157857D01*
X138565952Y-73110238D01*
X138423095Y-73110238D01*
X138327857Y-73157857D01*
X138280238Y-73205476D01*
X138232619Y-73300714D01*
X138232619Y-73681666D01*
X139232619Y-73681666D01*
X139232619Y-73348333D01*
X139185000Y-73253095D01*
X139137380Y-73205476D01*
X139042142Y-73157857D01*
X138946904Y-73157857D01*
X138851666Y-73205476D01*
X138804047Y-73253095D01*
X138756428Y-73348333D01*
X138756428Y-73681666D01*
X138232619Y-71919761D02*
X138899285Y-71919761D01*
X139232619Y-71919761D02*
X139185000Y-71967380D01*
X139137380Y-71919761D01*
X139185000Y-71872142D01*
X139232619Y-71919761D01*
X139137380Y-71919761D01*
X138280238Y-71491190D02*
X138232619Y-71395952D01*
X138232619Y-71205476D01*
X138280238Y-71110238D01*
X138375476Y-71062619D01*
X138423095Y-71062619D01*
X138518333Y-71110238D01*
X138565952Y-71205476D01*
X138565952Y-71348333D01*
X138613571Y-71443571D01*
X138708809Y-71491190D01*
X138756428Y-71491190D01*
X138851666Y-71443571D01*
X138899285Y-71348333D01*
X138899285Y-71205476D01*
X138851666Y-71110238D01*
X138232619Y-69872142D02*
X138899285Y-69872142D01*
X139232619Y-69872142D02*
X139185000Y-69919761D01*
X139137380Y-69872142D01*
X139185000Y-69824523D01*
X139232619Y-69872142D01*
X139137380Y-69872142D01*
X138899285Y-69395952D02*
X138232619Y-69395952D01*
X138804047Y-69395952D02*
X138851666Y-69348333D01*
X138899285Y-69253095D01*
X138899285Y-69110238D01*
X138851666Y-69015000D01*
X138756428Y-68967380D01*
X138232619Y-68967380D01*
X138899285Y-68634047D02*
X138899285Y-68253095D01*
X139232619Y-68491190D02*
X138375476Y-68491190D01*
X138280238Y-68443571D01*
X138232619Y-68348333D01*
X138232619Y-68253095D01*
X138280238Y-67538809D02*
X138232619Y-67634047D01*
X138232619Y-67824523D01*
X138280238Y-67919761D01*
X138375476Y-67967380D01*
X138756428Y-67967380D01*
X138851666Y-67919761D01*
X138899285Y-67824523D01*
X138899285Y-67634047D01*
X138851666Y-67538809D01*
X138756428Y-67491190D01*
X138661190Y-67491190D01*
X138565952Y-67967380D01*
X138899285Y-67062619D02*
X138232619Y-67062619D01*
X138804047Y-67062619D02*
X138851666Y-67015000D01*
X138899285Y-66919761D01*
X138899285Y-66776904D01*
X138851666Y-66681666D01*
X138756428Y-66634047D01*
X138232619Y-66634047D01*
X138232619Y-65729285D02*
X139232619Y-65729285D01*
X138280238Y-65729285D02*
X138232619Y-65824523D01*
X138232619Y-66015000D01*
X138280238Y-66110238D01*
X138327857Y-66157857D01*
X138423095Y-66205476D01*
X138708809Y-66205476D01*
X138804047Y-66157857D01*
X138851666Y-66110238D01*
X138899285Y-66015000D01*
X138899285Y-65824523D01*
X138851666Y-65729285D01*
X138280238Y-64872142D02*
X138232619Y-64967380D01*
X138232619Y-65157857D01*
X138280238Y-65253095D01*
X138375476Y-65300714D01*
X138756428Y-65300714D01*
X138851666Y-65253095D01*
X138899285Y-65157857D01*
X138899285Y-64967380D01*
X138851666Y-64872142D01*
X138756428Y-64824523D01*
X138661190Y-64824523D01*
X138565952Y-65300714D01*
X138232619Y-63967380D02*
X139232619Y-63967380D01*
X138280238Y-63967380D02*
X138232619Y-64062619D01*
X138232619Y-64253095D01*
X138280238Y-64348333D01*
X138327857Y-64395952D01*
X138423095Y-64443571D01*
X138708809Y-64443571D01*
X138804047Y-64395952D01*
X138851666Y-64348333D01*
X138899285Y-64253095D01*
X138899285Y-64062619D01*
X138851666Y-63967380D01*
X138899285Y-62872142D02*
X138899285Y-62491190D01*
X139232619Y-62729285D02*
X138375476Y-62729285D01*
X138280238Y-62681666D01*
X138232619Y-62586428D01*
X138232619Y-62491190D01*
X138232619Y-62015000D02*
X138280238Y-62110238D01*
X138327857Y-62157857D01*
X138423095Y-62205476D01*
X138708809Y-62205476D01*
X138804047Y-62157857D01*
X138851666Y-62110238D01*
X138899285Y-62015000D01*
X138899285Y-61872142D01*
X138851666Y-61776904D01*
X138804047Y-61729285D01*
X138708809Y-61681666D01*
X138423095Y-61681666D01*
X138327857Y-61729285D01*
X138280238Y-61776904D01*
X138232619Y-61872142D01*
X138232619Y-62015000D01*
X138232619Y-60491190D02*
X139232619Y-60491190D01*
X138851666Y-60491190D02*
X138899285Y-60395952D01*
X138899285Y-60205476D01*
X138851666Y-60110238D01*
X138804047Y-60062619D01*
X138708809Y-60015000D01*
X138423095Y-60015000D01*
X138327857Y-60062619D01*
X138280238Y-60110238D01*
X138232619Y-60205476D01*
X138232619Y-60395952D01*
X138280238Y-60491190D01*
X138280238Y-59205476D02*
X138232619Y-59300714D01*
X138232619Y-59491190D01*
X138280238Y-59586428D01*
X138375476Y-59634047D01*
X138756428Y-59634047D01*
X138851666Y-59586428D01*
X138899285Y-59491190D01*
X138899285Y-59300714D01*
X138851666Y-59205476D01*
X138756428Y-59157857D01*
X138661190Y-59157857D01*
X138565952Y-59634047D01*
X138899285Y-57538809D02*
X138232619Y-57538809D01*
X138899285Y-57967380D02*
X138375476Y-57967380D01*
X138280238Y-57919761D01*
X138232619Y-57824523D01*
X138232619Y-57681666D01*
X138280238Y-57586428D01*
X138327857Y-57538809D01*
X138899285Y-57062619D02*
X137899285Y-57062619D01*
X138851666Y-57062619D02*
X138899285Y-56967380D01*
X138899285Y-56776904D01*
X138851666Y-56681666D01*
X138804047Y-56634047D01*
X138708809Y-56586428D01*
X138423095Y-56586428D01*
X138327857Y-56634047D01*
X138280238Y-56681666D01*
X138232619Y-56776904D01*
X138232619Y-56967380D01*
X138280238Y-57062619D01*
X138232619Y-55729285D02*
X139232619Y-55729285D01*
X138280238Y-55729285D02*
X138232619Y-55824523D01*
X138232619Y-56015000D01*
X138280238Y-56110238D01*
X138327857Y-56157857D01*
X138423095Y-56205476D01*
X138708809Y-56205476D01*
X138804047Y-56157857D01*
X138851666Y-56110238D01*
X138899285Y-56015000D01*
X138899285Y-55824523D01*
X138851666Y-55729285D01*
X138232619Y-54824523D02*
X138756428Y-54824523D01*
X138851666Y-54872142D01*
X138899285Y-54967380D01*
X138899285Y-55157857D01*
X138851666Y-55253095D01*
X138280238Y-54824523D02*
X138232619Y-54919761D01*
X138232619Y-55157857D01*
X138280238Y-55253095D01*
X138375476Y-55300714D01*
X138470714Y-55300714D01*
X138565952Y-55253095D01*
X138613571Y-55157857D01*
X138613571Y-54919761D01*
X138661190Y-54824523D01*
X138899285Y-54491190D02*
X138899285Y-54110238D01*
X139232619Y-54348333D02*
X138375476Y-54348333D01*
X138280238Y-54300714D01*
X138232619Y-54205476D01*
X138232619Y-54110238D01*
X138280238Y-53395952D02*
X138232619Y-53491190D01*
X138232619Y-53681666D01*
X138280238Y-53776904D01*
X138375476Y-53824523D01*
X138756428Y-53824523D01*
X138851666Y-53776904D01*
X138899285Y-53681666D01*
X138899285Y-53491190D01*
X138851666Y-53395952D01*
X138756428Y-53348333D01*
X138661190Y-53348333D01*
X138565952Y-53824523D01*
X138232619Y-52491190D02*
X139232619Y-52491190D01*
X138280238Y-52491190D02*
X138232619Y-52586428D01*
X138232619Y-52776904D01*
X138280238Y-52872142D01*
X138327857Y-52919761D01*
X138423095Y-52967380D01*
X138708809Y-52967380D01*
X138804047Y-52919761D01*
X138851666Y-52872142D01*
X138899285Y-52776904D01*
X138899285Y-52586428D01*
X138851666Y-52491190D01*
X138232619Y-51253095D02*
X139232619Y-51253095D01*
X138232619Y-50824523D02*
X138756428Y-50824523D01*
X138851666Y-50872142D01*
X138899285Y-50967380D01*
X138899285Y-51110238D01*
X138851666Y-51205476D01*
X138804047Y-51253095D01*
X138232619Y-49919761D02*
X138756428Y-49919761D01*
X138851666Y-49967380D01*
X138899285Y-50062619D01*
X138899285Y-50253095D01*
X138851666Y-50348333D01*
X138280238Y-49919761D02*
X138232619Y-50015000D01*
X138232619Y-50253095D01*
X138280238Y-50348333D01*
X138375476Y-50395952D01*
X138470714Y-50395952D01*
X138565952Y-50348333D01*
X138613571Y-50253095D01*
X138613571Y-50015000D01*
X138661190Y-49919761D01*
X138280238Y-49491190D02*
X138232619Y-49395952D01*
X138232619Y-49205476D01*
X138280238Y-49110238D01*
X138375476Y-49062619D01*
X138423095Y-49062619D01*
X138518333Y-49110238D01*
X138565952Y-49205476D01*
X138565952Y-49348333D01*
X138613571Y-49443571D01*
X138708809Y-49491190D01*
X138756428Y-49491190D01*
X138851666Y-49443571D01*
X138899285Y-49348333D01*
X138899285Y-49205476D01*
X138851666Y-49110238D01*
X138899285Y-48015000D02*
X138899285Y-47634047D01*
X139232619Y-47872142D02*
X138375476Y-47872142D01*
X138280238Y-47824523D01*
X138232619Y-47729285D01*
X138232619Y-47634047D01*
X138232619Y-47300714D02*
X139232619Y-47300714D01*
X138232619Y-46872142D02*
X138756428Y-46872142D01*
X138851666Y-46919761D01*
X138899285Y-47015000D01*
X138899285Y-47157857D01*
X138851666Y-47253095D01*
X138804047Y-47300714D01*
X138280238Y-46015000D02*
X138232619Y-46110238D01*
X138232619Y-46300714D01*
X138280238Y-46395952D01*
X138375476Y-46443571D01*
X138756428Y-46443571D01*
X138851666Y-46395952D01*
X138899285Y-46300714D01*
X138899285Y-46110238D01*
X138851666Y-46015000D01*
X138756428Y-45967380D01*
X138661190Y-45967380D01*
X138565952Y-46443571D01*
X138280238Y-44824523D02*
X138232619Y-44729285D01*
X138232619Y-44538809D01*
X138280238Y-44443571D01*
X138375476Y-44395952D01*
X138423095Y-44395952D01*
X138518333Y-44443571D01*
X138565952Y-44538809D01*
X138565952Y-44681666D01*
X138613571Y-44776904D01*
X138708809Y-44824523D01*
X138756428Y-44824523D01*
X138851666Y-44776904D01*
X138899285Y-44681666D01*
X138899285Y-44538809D01*
X138851666Y-44443571D01*
X138899285Y-43538809D02*
X138232619Y-43538809D01*
X138899285Y-43967380D02*
X138375476Y-43967380D01*
X138280238Y-43919761D01*
X138232619Y-43824523D01*
X138232619Y-43681666D01*
X138280238Y-43586428D01*
X138327857Y-43538809D01*
X138232619Y-43062619D02*
X139232619Y-43062619D01*
X138851666Y-43062619D02*
X138899285Y-42967380D01*
X138899285Y-42776904D01*
X138851666Y-42681666D01*
X138804047Y-42634047D01*
X138708809Y-42586428D01*
X138423095Y-42586428D01*
X138327857Y-42634047D01*
X138280238Y-42681666D01*
X138232619Y-42776904D01*
X138232619Y-42967380D01*
X138280238Y-43062619D01*
X138899285Y-42157857D02*
X138042142Y-42157857D01*
X137946904Y-42205476D01*
X137899285Y-42300714D01*
X137899285Y-42348333D01*
X139232619Y-42157857D02*
X139185000Y-42205476D01*
X139137380Y-42157857D01*
X139185000Y-42110238D01*
X139232619Y-42157857D01*
X139137380Y-42157857D01*
X138280238Y-41300714D02*
X138232619Y-41395952D01*
X138232619Y-41586428D01*
X138280238Y-41681666D01*
X138375476Y-41729285D01*
X138756428Y-41729285D01*
X138851666Y-41681666D01*
X138899285Y-41586428D01*
X138899285Y-41395952D01*
X138851666Y-41300714D01*
X138756428Y-41253095D01*
X138661190Y-41253095D01*
X138565952Y-41729285D01*
X138280238Y-40395952D02*
X138232619Y-40491190D01*
X138232619Y-40681666D01*
X138280238Y-40776904D01*
X138327857Y-40824523D01*
X138423095Y-40872142D01*
X138708809Y-40872142D01*
X138804047Y-40824523D01*
X138851666Y-40776904D01*
X138899285Y-40681666D01*
X138899285Y-40491190D01*
X138851666Y-40395952D01*
X138899285Y-40110238D02*
X138899285Y-39729285D01*
X139232619Y-39967380D02*
X138375476Y-39967380D01*
X138280238Y-39919761D01*
X138232619Y-39824523D01*
X138232619Y-39729285D01*
X138280238Y-38253095D02*
X138232619Y-38348333D01*
X138232619Y-38538809D01*
X138280238Y-38634047D01*
X138375476Y-38681666D01*
X138756428Y-38681666D01*
X138851666Y-38634047D01*
X138899285Y-38538809D01*
X138899285Y-38348333D01*
X138851666Y-38253095D01*
X138756428Y-38205476D01*
X138661190Y-38205476D01*
X138565952Y-38681666D01*
X138899285Y-37872142D02*
X138232619Y-37634047D01*
X138899285Y-37395952D01*
X138232619Y-36872142D02*
X138280238Y-36967380D01*
X138327857Y-37015000D01*
X138423095Y-37062619D01*
X138708809Y-37062619D01*
X138804047Y-37015000D01*
X138851666Y-36967380D01*
X138899285Y-36872142D01*
X138899285Y-36729285D01*
X138851666Y-36634047D01*
X138804047Y-36586428D01*
X138708809Y-36538809D01*
X138423095Y-36538809D01*
X138327857Y-36586428D01*
X138280238Y-36634047D01*
X138232619Y-36729285D01*
X138232619Y-36872142D01*
X138232619Y-35967380D02*
X138280238Y-36062619D01*
X138375476Y-36110238D01*
X139232619Y-36110238D01*
X138899285Y-35681666D02*
X138232619Y-35443571D01*
X138899285Y-35205476D01*
X138280238Y-34443571D02*
X138232619Y-34538809D01*
X138232619Y-34729285D01*
X138280238Y-34824523D01*
X138375476Y-34872142D01*
X138756428Y-34872142D01*
X138851666Y-34824523D01*
X138899285Y-34729285D01*
X138899285Y-34538809D01*
X138851666Y-34443571D01*
X138756428Y-34395952D01*
X138661190Y-34395952D01*
X138565952Y-34872142D01*
X138280238Y-34015000D02*
X138232619Y-33919761D01*
X138232619Y-33729285D01*
X138280238Y-33634047D01*
X138375476Y-33586428D01*
X138423095Y-33586428D01*
X138518333Y-33634047D01*
X138565952Y-33729285D01*
X138565952Y-33872142D01*
X138613571Y-33967380D01*
X138708809Y-34015000D01*
X138756428Y-34015000D01*
X138851666Y-33967380D01*
X138899285Y-33872142D01*
X138899285Y-33729285D01*
X138851666Y-33634047D01*
X137106428Y-76086428D02*
X137106428Y-76419761D01*
X136582619Y-76419761D02*
X137582619Y-76419761D01*
X137582619Y-75943571D01*
X136630238Y-75181666D02*
X136582619Y-75276904D01*
X136582619Y-75467380D01*
X136630238Y-75562619D01*
X136725476Y-75610238D01*
X137106428Y-75610238D01*
X137201666Y-75562619D01*
X137249285Y-75467380D01*
X137249285Y-75276904D01*
X137201666Y-75181666D01*
X137106428Y-75134047D01*
X137011190Y-75134047D01*
X136915952Y-75610238D01*
X136630238Y-74324523D02*
X136582619Y-74419761D01*
X136582619Y-74610238D01*
X136630238Y-74705476D01*
X136725476Y-74753095D01*
X137106428Y-74753095D01*
X137201666Y-74705476D01*
X137249285Y-74610238D01*
X137249285Y-74419761D01*
X137201666Y-74324523D01*
X137106428Y-74276904D01*
X137011190Y-74276904D01*
X136915952Y-74753095D01*
X136582619Y-73705476D02*
X136630238Y-73800714D01*
X136725476Y-73848333D01*
X137582619Y-73848333D01*
X137249285Y-72705476D02*
X137249285Y-72324523D01*
X136582619Y-72562619D02*
X137439761Y-72562619D01*
X137535000Y-72515000D01*
X137582619Y-72419761D01*
X137582619Y-72324523D01*
X136582619Y-71991190D02*
X137249285Y-71991190D01*
X137058809Y-71991190D02*
X137154047Y-71943571D01*
X137201666Y-71895952D01*
X137249285Y-71800714D01*
X137249285Y-71705476D01*
X136630238Y-70991190D02*
X136582619Y-71086428D01*
X136582619Y-71276904D01*
X136630238Y-71372142D01*
X136725476Y-71419761D01*
X137106428Y-71419761D01*
X137201666Y-71372142D01*
X137249285Y-71276904D01*
X137249285Y-71086428D01*
X137201666Y-70991190D01*
X137106428Y-70943571D01*
X137011190Y-70943571D01*
X136915952Y-71419761D01*
X136630238Y-70134047D02*
X136582619Y-70229285D01*
X136582619Y-70419761D01*
X136630238Y-70515000D01*
X136725476Y-70562619D01*
X137106428Y-70562619D01*
X137201666Y-70515000D01*
X137249285Y-70419761D01*
X137249285Y-70229285D01*
X137201666Y-70134047D01*
X137106428Y-70086428D01*
X137011190Y-70086428D01*
X136915952Y-70562619D01*
X137249285Y-69038809D02*
X137249285Y-68657857D01*
X137582619Y-68895952D02*
X136725476Y-68895952D01*
X136630238Y-68848333D01*
X136582619Y-68753095D01*
X136582619Y-68657857D01*
X136582619Y-68181666D02*
X136630238Y-68276904D01*
X136677857Y-68324523D01*
X136773095Y-68372142D01*
X137058809Y-68372142D01*
X137154047Y-68324523D01*
X137201666Y-68276904D01*
X137249285Y-68181666D01*
X137249285Y-68038809D01*
X137201666Y-67943571D01*
X137154047Y-67895952D01*
X137058809Y-67848333D01*
X136773095Y-67848333D01*
X136677857Y-67895952D01*
X136630238Y-67943571D01*
X136582619Y-68038809D01*
X136582619Y-68181666D01*
X136582619Y-66657857D02*
X137249285Y-66657857D01*
X137058809Y-66657857D02*
X137154047Y-66610238D01*
X137201666Y-66562619D01*
X137249285Y-66467380D01*
X137249285Y-66372142D01*
X136630238Y-65657857D02*
X136582619Y-65753095D01*
X136582619Y-65943571D01*
X136630238Y-66038809D01*
X136725476Y-66086428D01*
X137106428Y-66086428D01*
X137201666Y-66038809D01*
X137249285Y-65943571D01*
X137249285Y-65753095D01*
X137201666Y-65657857D01*
X137106428Y-65610238D01*
X137011190Y-65610238D01*
X136915952Y-66086428D01*
X137249285Y-64753095D02*
X136249285Y-64753095D01*
X136630238Y-64753095D02*
X136582619Y-64848333D01*
X136582619Y-65038809D01*
X136630238Y-65134047D01*
X136677857Y-65181666D01*
X136773095Y-65229285D01*
X137058809Y-65229285D01*
X137154047Y-65181666D01*
X137201666Y-65134047D01*
X137249285Y-65038809D01*
X137249285Y-64848333D01*
X137201666Y-64753095D01*
X137249285Y-63848333D02*
X136582619Y-63848333D01*
X137249285Y-64276904D02*
X136725476Y-64276904D01*
X136630238Y-64229285D01*
X136582619Y-64134047D01*
X136582619Y-63991190D01*
X136630238Y-63895952D01*
X136677857Y-63848333D01*
X136630238Y-62991190D02*
X136582619Y-63086428D01*
X136582619Y-63276904D01*
X136630238Y-63372142D01*
X136725476Y-63419761D01*
X137106428Y-63419761D01*
X137201666Y-63372142D01*
X137249285Y-63276904D01*
X137249285Y-63086428D01*
X137201666Y-62991190D01*
X137106428Y-62943571D01*
X137011190Y-62943571D01*
X136915952Y-63419761D01*
X136630238Y-62562619D02*
X136582619Y-62467380D01*
X136582619Y-62276904D01*
X136630238Y-62181666D01*
X136725476Y-62134047D01*
X136773095Y-62134047D01*
X136868333Y-62181666D01*
X136915952Y-62276904D01*
X136915952Y-62419761D01*
X136963571Y-62515000D01*
X137058809Y-62562619D01*
X137106428Y-62562619D01*
X137201666Y-62515000D01*
X137249285Y-62419761D01*
X137249285Y-62276904D01*
X137201666Y-62181666D01*
X137249285Y-61848333D02*
X137249285Y-61467380D01*
X137582619Y-61705476D02*
X136725476Y-61705476D01*
X136630238Y-61657857D01*
X136582619Y-61562619D01*
X136582619Y-61467380D01*
X136630238Y-59943571D02*
X136582619Y-60038809D01*
X136582619Y-60229285D01*
X136630238Y-60324523D01*
X136677857Y-60372142D01*
X136773095Y-60419761D01*
X137058809Y-60419761D01*
X137154047Y-60372142D01*
X137201666Y-60324523D01*
X137249285Y-60229285D01*
X137249285Y-60038809D01*
X137201666Y-59943571D01*
X136582619Y-59515000D02*
X137582619Y-59515000D01*
X136582619Y-59086428D02*
X137106428Y-59086428D01*
X137201666Y-59134047D01*
X137249285Y-59229285D01*
X137249285Y-59372142D01*
X137201666Y-59467380D01*
X137154047Y-59515000D01*
X136582619Y-58181666D02*
X137106428Y-58181666D01*
X137201666Y-58229285D01*
X137249285Y-58324523D01*
X137249285Y-58515000D01*
X137201666Y-58610238D01*
X136630238Y-58181666D02*
X136582619Y-58276904D01*
X136582619Y-58515000D01*
X136630238Y-58610238D01*
X136725476Y-58657857D01*
X136820714Y-58657857D01*
X136915952Y-58610238D01*
X136963571Y-58515000D01*
X136963571Y-58276904D01*
X137011190Y-58181666D01*
X137249285Y-57705476D02*
X136582619Y-57705476D01*
X137154047Y-57705476D02*
X137201666Y-57657857D01*
X137249285Y-57562619D01*
X137249285Y-57419761D01*
X137201666Y-57324523D01*
X137106428Y-57276904D01*
X136582619Y-57276904D01*
X137249285Y-56372142D02*
X136439761Y-56372142D01*
X136344523Y-56419761D01*
X136296904Y-56467380D01*
X136249285Y-56562619D01*
X136249285Y-56705476D01*
X136296904Y-56800714D01*
X136630238Y-56372142D02*
X136582619Y-56467380D01*
X136582619Y-56657857D01*
X136630238Y-56753095D01*
X136677857Y-56800714D01*
X136773095Y-56848333D01*
X137058809Y-56848333D01*
X137154047Y-56800714D01*
X137201666Y-56753095D01*
X137249285Y-56657857D01*
X137249285Y-56467380D01*
X137201666Y-56372142D01*
X136630238Y-55515000D02*
X136582619Y-55610238D01*
X136582619Y-55800714D01*
X136630238Y-55895952D01*
X136725476Y-55943571D01*
X137106428Y-55943571D01*
X137201666Y-55895952D01*
X137249285Y-55800714D01*
X137249285Y-55610238D01*
X137201666Y-55515000D01*
X137106428Y-55467380D01*
X137011190Y-55467380D01*
X136915952Y-55943571D01*
X136630238Y-55086428D02*
X136582619Y-54991190D01*
X136582619Y-54800714D01*
X136630238Y-54705476D01*
X136725476Y-54657857D01*
X136773095Y-54657857D01*
X136868333Y-54705476D01*
X136915952Y-54800714D01*
X136915952Y-54943571D01*
X136963571Y-55038809D01*
X137058809Y-55086428D01*
X137106428Y-55086428D01*
X137201666Y-55038809D01*
X137249285Y-54943571D01*
X137249285Y-54800714D01*
X137201666Y-54705476D01*
X136582619Y-53324523D02*
X136630238Y-53419761D01*
X136677857Y-53467380D01*
X136773095Y-53515000D01*
X137058809Y-53515000D01*
X137154047Y-53467380D01*
X137201666Y-53419761D01*
X137249285Y-53324523D01*
X137249285Y-53181666D01*
X137201666Y-53086428D01*
X137154047Y-53038809D01*
X137058809Y-52991190D01*
X136773095Y-52991190D01*
X136677857Y-53038809D01*
X136630238Y-53086428D01*
X136582619Y-53181666D01*
X136582619Y-53324523D01*
X136582619Y-52562619D02*
X137249285Y-52562619D01*
X137058809Y-52562619D02*
X137154047Y-52515000D01*
X137201666Y-52467380D01*
X137249285Y-52372142D01*
X137249285Y-52276904D01*
X136582619Y-51181666D02*
X137249285Y-51181666D01*
X137154047Y-51181666D02*
X137201666Y-51134047D01*
X137249285Y-51038809D01*
X137249285Y-50895952D01*
X137201666Y-50800714D01*
X137106428Y-50753095D01*
X136582619Y-50753095D01*
X137106428Y-50753095D02*
X137201666Y-50705476D01*
X137249285Y-50610238D01*
X137249285Y-50467380D01*
X137201666Y-50372142D01*
X137106428Y-50324523D01*
X136582619Y-50324523D01*
X136582619Y-49419761D02*
X137106428Y-49419761D01*
X137201666Y-49467380D01*
X137249285Y-49562619D01*
X137249285Y-49753095D01*
X137201666Y-49848333D01*
X136630238Y-49419761D02*
X136582619Y-49515000D01*
X136582619Y-49753095D01*
X136630238Y-49848333D01*
X136725476Y-49895952D01*
X136820714Y-49895952D01*
X136915952Y-49848333D01*
X136963571Y-49753095D01*
X136963571Y-49515000D01*
X137011190Y-49419761D01*
X136582619Y-48943571D02*
X137582619Y-48943571D01*
X136963571Y-48848333D02*
X136582619Y-48562619D01*
X137249285Y-48562619D02*
X136868333Y-48943571D01*
X136630238Y-47753095D02*
X136582619Y-47848333D01*
X136582619Y-48038809D01*
X136630238Y-48134047D01*
X136725476Y-48181666D01*
X137106428Y-48181666D01*
X137201666Y-48134047D01*
X137249285Y-48038809D01*
X137249285Y-47848333D01*
X137201666Y-47753095D01*
X137106428Y-47705476D01*
X137011190Y-47705476D01*
X136915952Y-48181666D01*
X137249285Y-46657857D02*
X137249285Y-46276904D01*
X137582619Y-46515000D02*
X136725476Y-46515000D01*
X136630238Y-46467380D01*
X136582619Y-46372142D01*
X136582619Y-46276904D01*
X136582619Y-45943571D02*
X137582619Y-45943571D01*
X136582619Y-45515000D02*
X137106428Y-45515000D01*
X137201666Y-45562619D01*
X137249285Y-45657857D01*
X137249285Y-45800714D01*
X137201666Y-45895952D01*
X137154047Y-45943571D01*
X136630238Y-44657857D02*
X136582619Y-44753095D01*
X136582619Y-44943571D01*
X136630238Y-45038809D01*
X136725476Y-45086428D01*
X137106428Y-45086428D01*
X137201666Y-45038809D01*
X137249285Y-44943571D01*
X137249285Y-44753095D01*
X137201666Y-44657857D01*
X137106428Y-44610238D01*
X137011190Y-44610238D01*
X136915952Y-45086428D01*
X136582619Y-44181666D02*
X137249285Y-44181666D01*
X137154047Y-44181666D02*
X137201666Y-44134047D01*
X137249285Y-44038809D01*
X137249285Y-43895952D01*
X137201666Y-43800714D01*
X137106428Y-43753095D01*
X136582619Y-43753095D01*
X137106428Y-43753095D02*
X137201666Y-43705476D01*
X137249285Y-43610238D01*
X137249285Y-43467380D01*
X137201666Y-43372142D01*
X137106428Y-43324523D01*
X136582619Y-43324523D01*
X137249285Y-42181666D02*
X136582619Y-41943571D01*
X137249285Y-41705476D02*
X136582619Y-41943571D01*
X136344523Y-42038809D01*
X136296904Y-42086428D01*
X136249285Y-42181666D01*
X136582619Y-41181666D02*
X136630238Y-41276904D01*
X136677857Y-41324523D01*
X136773095Y-41372142D01*
X137058809Y-41372142D01*
X137154047Y-41324523D01*
X137201666Y-41276904D01*
X137249285Y-41181666D01*
X137249285Y-41038809D01*
X137201666Y-40943571D01*
X137154047Y-40895952D01*
X137058809Y-40848333D01*
X136773095Y-40848333D01*
X136677857Y-40895952D01*
X136630238Y-40943571D01*
X136582619Y-41038809D01*
X136582619Y-41181666D01*
X137249285Y-39991190D02*
X136582619Y-39991190D01*
X137249285Y-40419761D02*
X136725476Y-40419761D01*
X136630238Y-40372142D01*
X136582619Y-40276904D01*
X136582619Y-40134047D01*
X136630238Y-40038809D01*
X136677857Y-39991190D01*
X136582619Y-39515000D02*
X137249285Y-39515000D01*
X137058809Y-39515000D02*
X137154047Y-39467380D01*
X137201666Y-39419761D01*
X137249285Y-39324523D01*
X137249285Y-39229285D01*
X136630238Y-38943571D02*
X136582619Y-38848333D01*
X136582619Y-38657857D01*
X136630238Y-38562619D01*
X136725476Y-38515000D01*
X136773095Y-38515000D01*
X136868333Y-38562619D01*
X136915952Y-38657857D01*
X136915952Y-38800714D01*
X136963571Y-38895952D01*
X137058809Y-38943571D01*
X137106428Y-38943571D01*
X137201666Y-38895952D01*
X137249285Y-38800714D01*
X137249285Y-38657857D01*
X137201666Y-38562619D01*
X136630238Y-37705476D02*
X136582619Y-37800714D01*
X136582619Y-37991190D01*
X136630238Y-38086428D01*
X136725476Y-38134047D01*
X137106428Y-38134047D01*
X137201666Y-38086428D01*
X137249285Y-37991190D01*
X137249285Y-37800714D01*
X137201666Y-37705476D01*
X137106428Y-37657857D01*
X137011190Y-37657857D01*
X136915952Y-38134047D01*
X136582619Y-37086428D02*
X136630238Y-37181666D01*
X136725476Y-37229285D01*
X137582619Y-37229285D01*
X137249285Y-36848333D02*
X137249285Y-36467380D01*
X136582619Y-36705476D02*
X137439761Y-36705476D01*
X137535000Y-36657857D01*
X137582619Y-36562619D01*
X137582619Y-36467380D01*
X135027857Y-73943571D02*
X134980238Y-73991190D01*
X134932619Y-74134047D01*
X134932619Y-74229285D01*
X134980238Y-74372142D01*
X135075476Y-74467380D01*
X135170714Y-74515000D01*
X135361190Y-74562619D01*
X135504047Y-74562619D01*
X135694523Y-74515000D01*
X135789761Y-74467380D01*
X135885000Y-74372142D01*
X135932619Y-74229285D01*
X135932619Y-74134047D01*
X135885000Y-73991190D01*
X135837380Y-73943571D01*
X134932619Y-73372142D02*
X134980238Y-73467380D01*
X135027857Y-73515000D01*
X135123095Y-73562619D01*
X135408809Y-73562619D01*
X135504047Y-73515000D01*
X135551666Y-73467380D01*
X135599285Y-73372142D01*
X135599285Y-73229285D01*
X135551666Y-73134047D01*
X135504047Y-73086428D01*
X135408809Y-73038809D01*
X135123095Y-73038809D01*
X135027857Y-73086428D01*
X134980238Y-73134047D01*
X134932619Y-73229285D01*
X134932619Y-73372142D01*
X135599285Y-72610238D02*
X134932619Y-72610238D01*
X135504047Y-72610238D02*
X135551666Y-72562619D01*
X135599285Y-72467380D01*
X135599285Y-72324523D01*
X135551666Y-72229285D01*
X135456428Y-72181666D01*
X134932619Y-72181666D01*
X134980238Y-71753095D02*
X134932619Y-71657857D01*
X134932619Y-71467380D01*
X134980238Y-71372142D01*
X135075476Y-71324523D01*
X135123095Y-71324523D01*
X135218333Y-71372142D01*
X135265952Y-71467380D01*
X135265952Y-71610238D01*
X135313571Y-71705476D01*
X135408809Y-71753095D01*
X135456428Y-71753095D01*
X135551666Y-71705476D01*
X135599285Y-71610238D01*
X135599285Y-71467380D01*
X135551666Y-71372142D01*
X134932619Y-70895952D02*
X135599285Y-70895952D01*
X135932619Y-70895952D02*
X135885000Y-70943571D01*
X135837380Y-70895952D01*
X135885000Y-70848333D01*
X135932619Y-70895952D01*
X135837380Y-70895952D01*
X134932619Y-69991190D02*
X135932619Y-69991190D01*
X134980238Y-69991190D02*
X134932619Y-70086428D01*
X134932619Y-70276904D01*
X134980238Y-70372142D01*
X135027857Y-70419761D01*
X135123095Y-70467380D01*
X135408809Y-70467380D01*
X135504047Y-70419761D01*
X135551666Y-70372142D01*
X135599285Y-70276904D01*
X135599285Y-70086428D01*
X135551666Y-69991190D01*
X134980238Y-69134047D02*
X134932619Y-69229285D01*
X134932619Y-69419761D01*
X134980238Y-69515000D01*
X135075476Y-69562619D01*
X135456428Y-69562619D01*
X135551666Y-69515000D01*
X135599285Y-69419761D01*
X135599285Y-69229285D01*
X135551666Y-69134047D01*
X135456428Y-69086428D01*
X135361190Y-69086428D01*
X135265952Y-69562619D01*
X134932619Y-68657857D02*
X135599285Y-68657857D01*
X135408809Y-68657857D02*
X135504047Y-68610238D01*
X135551666Y-68562619D01*
X135599285Y-68467380D01*
X135599285Y-68372142D01*
X134980238Y-66848333D02*
X134932619Y-66943571D01*
X134932619Y-67134047D01*
X134980238Y-67229285D01*
X135027857Y-67276904D01*
X135123095Y-67324523D01*
X135408809Y-67324523D01*
X135504047Y-67276904D01*
X135551666Y-67229285D01*
X135599285Y-67134047D01*
X135599285Y-66943571D01*
X135551666Y-66848333D01*
X134932619Y-66276904D02*
X134980238Y-66372142D01*
X135027857Y-66419761D01*
X135123095Y-66467380D01*
X135408809Y-66467380D01*
X135504047Y-66419761D01*
X135551666Y-66372142D01*
X135599285Y-66276904D01*
X135599285Y-66134047D01*
X135551666Y-66038809D01*
X135504047Y-65991190D01*
X135408809Y-65943571D01*
X135123095Y-65943571D01*
X135027857Y-65991190D01*
X134980238Y-66038809D01*
X134932619Y-66134047D01*
X134932619Y-66276904D01*
X135599285Y-65515000D02*
X134932619Y-65515000D01*
X135504047Y-65515000D02*
X135551666Y-65467380D01*
X135599285Y-65372142D01*
X135599285Y-65229285D01*
X135551666Y-65134047D01*
X135456428Y-65086428D01*
X134932619Y-65086428D01*
X135599285Y-64753095D02*
X135599285Y-64372142D01*
X135932619Y-64610238D02*
X135075476Y-64610238D01*
X134980238Y-64562619D01*
X134932619Y-64467380D01*
X134932619Y-64372142D01*
X134932619Y-64038809D02*
X135599285Y-64038809D01*
X135408809Y-64038809D02*
X135504047Y-63991190D01*
X135551666Y-63943571D01*
X135599285Y-63848333D01*
X135599285Y-63753095D01*
X134932619Y-63419761D02*
X135599285Y-63419761D01*
X135932619Y-63419761D02*
X135885000Y-63467380D01*
X135837380Y-63419761D01*
X135885000Y-63372142D01*
X135932619Y-63419761D01*
X135837380Y-63419761D01*
X134932619Y-62943571D02*
X135932619Y-62943571D01*
X135551666Y-62943571D02*
X135599285Y-62848333D01*
X135599285Y-62657857D01*
X135551666Y-62562619D01*
X135504047Y-62515000D01*
X135408809Y-62467380D01*
X135123095Y-62467380D01*
X135027857Y-62515000D01*
X134980238Y-62562619D01*
X134932619Y-62657857D01*
X134932619Y-62848333D01*
X134980238Y-62943571D01*
X135599285Y-61610238D02*
X134932619Y-61610238D01*
X135599285Y-62038809D02*
X135075476Y-62038809D01*
X134980238Y-61991190D01*
X134932619Y-61895952D01*
X134932619Y-61753095D01*
X134980238Y-61657857D01*
X135027857Y-61610238D01*
X135599285Y-61276904D02*
X135599285Y-60895952D01*
X135932619Y-61134047D02*
X135075476Y-61134047D01*
X134980238Y-61086428D01*
X134932619Y-60991190D01*
X134932619Y-60895952D01*
X134932619Y-60562619D02*
X135599285Y-60562619D01*
X135932619Y-60562619D02*
X135885000Y-60610238D01*
X135837380Y-60562619D01*
X135885000Y-60515000D01*
X135932619Y-60562619D01*
X135837380Y-60562619D01*
X135599285Y-60086428D02*
X134932619Y-60086428D01*
X135504047Y-60086428D02*
X135551666Y-60038809D01*
X135599285Y-59943571D01*
X135599285Y-59800714D01*
X135551666Y-59705476D01*
X135456428Y-59657857D01*
X134932619Y-59657857D01*
X135599285Y-58753095D02*
X134789761Y-58753095D01*
X134694523Y-58800714D01*
X134646904Y-58848333D01*
X134599285Y-58943571D01*
X134599285Y-59086428D01*
X134646904Y-59181666D01*
X134980238Y-58753095D02*
X134932619Y-58848333D01*
X134932619Y-59038809D01*
X134980238Y-59134047D01*
X135027857Y-59181666D01*
X135123095Y-59229285D01*
X135408809Y-59229285D01*
X135504047Y-59181666D01*
X135551666Y-59134047D01*
X135599285Y-59038809D01*
X135599285Y-58848333D01*
X135551666Y-58753095D01*
X135599285Y-57610238D02*
X134932619Y-57372142D01*
X135599285Y-57134047D02*
X134932619Y-57372142D01*
X134694523Y-57467380D01*
X134646904Y-57515000D01*
X134599285Y-57610238D01*
X134932619Y-56610238D02*
X134980238Y-56705476D01*
X135027857Y-56753095D01*
X135123095Y-56800714D01*
X135408809Y-56800714D01*
X135504047Y-56753095D01*
X135551666Y-56705476D01*
X135599285Y-56610238D01*
X135599285Y-56467380D01*
X135551666Y-56372142D01*
X135504047Y-56324523D01*
X135408809Y-56276904D01*
X135123095Y-56276904D01*
X135027857Y-56324523D01*
X134980238Y-56372142D01*
X134932619Y-56467380D01*
X134932619Y-56610238D01*
X135599285Y-55419761D02*
X134932619Y-55419761D01*
X135599285Y-55848333D02*
X135075476Y-55848333D01*
X134980238Y-55800714D01*
X134932619Y-55705476D01*
X134932619Y-55562619D01*
X134980238Y-55467380D01*
X135027857Y-55419761D01*
X134932619Y-54943571D02*
X135599285Y-54943571D01*
X135408809Y-54943571D02*
X135504047Y-54895952D01*
X135551666Y-54848333D01*
X135599285Y-54753095D01*
X135599285Y-54657857D01*
X134980238Y-53134047D02*
X134932619Y-53229285D01*
X134932619Y-53419761D01*
X134980238Y-53515000D01*
X135027857Y-53562619D01*
X135123095Y-53610238D01*
X135408809Y-53610238D01*
X135504047Y-53562619D01*
X135551666Y-53515000D01*
X135599285Y-53419761D01*
X135599285Y-53229285D01*
X135551666Y-53134047D01*
X134932619Y-52705476D02*
X135932619Y-52705476D01*
X134932619Y-52276904D02*
X135456428Y-52276904D01*
X135551666Y-52324523D01*
X135599285Y-52419761D01*
X135599285Y-52562619D01*
X135551666Y-52657857D01*
X135504047Y-52705476D01*
X134932619Y-51372142D02*
X135456428Y-51372142D01*
X135551666Y-51419761D01*
X135599285Y-51515000D01*
X135599285Y-51705476D01*
X135551666Y-51800714D01*
X134980238Y-51372142D02*
X134932619Y-51467380D01*
X134932619Y-51705476D01*
X134980238Y-51800714D01*
X135075476Y-51848333D01*
X135170714Y-51848333D01*
X135265952Y-51800714D01*
X135313571Y-51705476D01*
X135313571Y-51467380D01*
X135361190Y-51372142D01*
X135599285Y-50895952D02*
X134932619Y-50895952D01*
X135504047Y-50895952D02*
X135551666Y-50848333D01*
X135599285Y-50753095D01*
X135599285Y-50610238D01*
X135551666Y-50515000D01*
X135456428Y-50467380D01*
X134932619Y-50467380D01*
X135599285Y-49562619D02*
X134789761Y-49562619D01*
X134694523Y-49610238D01*
X134646904Y-49657857D01*
X134599285Y-49753095D01*
X134599285Y-49895952D01*
X134646904Y-49991190D01*
X134980238Y-49562619D02*
X134932619Y-49657857D01*
X134932619Y-49848333D01*
X134980238Y-49943571D01*
X135027857Y-49991190D01*
X135123095Y-50038809D01*
X135408809Y-50038809D01*
X135504047Y-49991190D01*
X135551666Y-49943571D01*
X135599285Y-49848333D01*
X135599285Y-49657857D01*
X135551666Y-49562619D01*
X134980238Y-48705476D02*
X134932619Y-48800714D01*
X134932619Y-48991190D01*
X134980238Y-49086428D01*
X135075476Y-49134047D01*
X135456428Y-49134047D01*
X135551666Y-49086428D01*
X135599285Y-48991190D01*
X135599285Y-48800714D01*
X135551666Y-48705476D01*
X135456428Y-48657857D01*
X135361190Y-48657857D01*
X135265952Y-49134047D01*
X134980238Y-48276904D02*
X134932619Y-48181666D01*
X134932619Y-47991190D01*
X134980238Y-47895952D01*
X135075476Y-47848333D01*
X135123095Y-47848333D01*
X135218333Y-47895952D01*
X135265952Y-47991190D01*
X135265952Y-48134047D01*
X135313571Y-48229285D01*
X135408809Y-48276904D01*
X135456428Y-48276904D01*
X135551666Y-48229285D01*
X135599285Y-48134047D01*
X135599285Y-47991190D01*
X135551666Y-47895952D01*
X135599285Y-46800714D02*
X135599285Y-46419761D01*
X135932619Y-46657857D02*
X135075476Y-46657857D01*
X134980238Y-46610238D01*
X134932619Y-46515000D01*
X134932619Y-46419761D01*
X134932619Y-45943571D02*
X134980238Y-46038809D01*
X135027857Y-46086428D01*
X135123095Y-46134047D01*
X135408809Y-46134047D01*
X135504047Y-46086428D01*
X135551666Y-46038809D01*
X135599285Y-45943571D01*
X135599285Y-45800714D01*
X135551666Y-45705476D01*
X135504047Y-45657857D01*
X135408809Y-45610238D01*
X135123095Y-45610238D01*
X135027857Y-45657857D01*
X134980238Y-45705476D01*
X134932619Y-45800714D01*
X134932619Y-45943571D01*
X135599285Y-44562619D02*
X135599285Y-44181666D01*
X135932619Y-44419761D02*
X135075476Y-44419761D01*
X134980238Y-44372142D01*
X134932619Y-44276904D01*
X134932619Y-44181666D01*
X134932619Y-43848333D02*
X135932619Y-43848333D01*
X134932619Y-43419761D02*
X135456428Y-43419761D01*
X135551666Y-43467380D01*
X135599285Y-43562619D01*
X135599285Y-43705476D01*
X135551666Y-43800714D01*
X135504047Y-43848333D01*
X134980238Y-42562619D02*
X134932619Y-42657857D01*
X134932619Y-42848333D01*
X134980238Y-42943571D01*
X135075476Y-42991190D01*
X135456428Y-42991190D01*
X135551666Y-42943571D01*
X135599285Y-42848333D01*
X135599285Y-42657857D01*
X135551666Y-42562619D01*
X135456428Y-42515000D01*
X135361190Y-42515000D01*
X135265952Y-42991190D01*
X134932619Y-41324523D02*
X135599285Y-41324523D01*
X135408809Y-41324523D02*
X135504047Y-41276904D01*
X135551666Y-41229285D01*
X135599285Y-41134047D01*
X135599285Y-41038809D01*
X134980238Y-40324523D02*
X134932619Y-40419761D01*
X134932619Y-40610238D01*
X134980238Y-40705476D01*
X135075476Y-40753095D01*
X135456428Y-40753095D01*
X135551666Y-40705476D01*
X135599285Y-40610238D01*
X135599285Y-40419761D01*
X135551666Y-40324523D01*
X135456428Y-40276904D01*
X135361190Y-40276904D01*
X135265952Y-40753095D01*
X135599285Y-39848333D02*
X134599285Y-39848333D01*
X135551666Y-39848333D02*
X135599285Y-39753095D01*
X135599285Y-39562619D01*
X135551666Y-39467380D01*
X135504047Y-39419761D01*
X135408809Y-39372142D01*
X135123095Y-39372142D01*
X135027857Y-39419761D01*
X134980238Y-39467380D01*
X134932619Y-39562619D01*
X134932619Y-39753095D01*
X134980238Y-39848333D01*
X134932619Y-38800714D02*
X134980238Y-38895952D01*
X135027857Y-38943571D01*
X135123095Y-38991190D01*
X135408809Y-38991190D01*
X135504047Y-38943571D01*
X135551666Y-38895952D01*
X135599285Y-38800714D01*
X135599285Y-38657857D01*
X135551666Y-38562619D01*
X135504047Y-38515000D01*
X135408809Y-38467380D01*
X135123095Y-38467380D01*
X135027857Y-38515000D01*
X134980238Y-38562619D01*
X134932619Y-38657857D01*
X134932619Y-38800714D01*
X218104404Y-82812380D02*
X218104404Y-81812380D01*
X217628214Y-82145714D02*
X217628214Y-82812380D01*
X217628214Y-82240952D02*
X217580595Y-82193333D01*
X217485357Y-82145714D01*
X217342500Y-82145714D01*
X217247261Y-82193333D01*
X217199642Y-82288571D01*
X217199642Y-82812380D01*
X215532976Y-82764761D02*
X215628214Y-82812380D01*
X215818690Y-82812380D01*
X215913928Y-82764761D01*
X215961547Y-82717142D01*
X216009166Y-82621904D01*
X216009166Y-82336190D01*
X215961547Y-82240952D01*
X215913928Y-82193333D01*
X215818690Y-82145714D01*
X215628214Y-82145714D01*
X215532976Y-82193333D01*
X214675833Y-82812380D02*
X214675833Y-82288571D01*
X214723452Y-82193333D01*
X214818690Y-82145714D01*
X215009166Y-82145714D01*
X215104404Y-82193333D01*
X214675833Y-82764761D02*
X214771071Y-82812380D01*
X215009166Y-82812380D01*
X215104404Y-82764761D01*
X215152023Y-82669523D01*
X215152023Y-82574285D01*
X215104404Y-82479047D01*
X215009166Y-82431428D01*
X214771071Y-82431428D01*
X214675833Y-82383809D01*
X214247261Y-82764761D02*
X214152023Y-82812380D01*
X213961547Y-82812380D01*
X213866309Y-82764761D01*
X213818690Y-82669523D01*
X213818690Y-82621904D01*
X213866309Y-82526666D01*
X213961547Y-82479047D01*
X214104404Y-82479047D01*
X214199642Y-82431428D01*
X214247261Y-82336190D01*
X214247261Y-82288571D01*
X214199642Y-82193333D01*
X214104404Y-82145714D01*
X213961547Y-82145714D01*
X213866309Y-82193333D01*
X213009166Y-82764761D02*
X213104404Y-82812380D01*
X213294880Y-82812380D01*
X213390119Y-82764761D01*
X213437738Y-82669523D01*
X213437738Y-82288571D01*
X213390119Y-82193333D01*
X213294880Y-82145714D01*
X213104404Y-82145714D01*
X213009166Y-82193333D01*
X212961547Y-82288571D01*
X212961547Y-82383809D01*
X213437738Y-82479047D01*
X211913928Y-82145714D02*
X211532976Y-82145714D01*
X211771071Y-81812380D02*
X211771071Y-82669523D01*
X211723452Y-82764761D01*
X211628214Y-82812380D01*
X211532976Y-82812380D01*
X211199642Y-82812380D02*
X211199642Y-81812380D01*
X210771071Y-82812380D02*
X210771071Y-82288571D01*
X210818690Y-82193333D01*
X210913928Y-82145714D01*
X211056785Y-82145714D01*
X211152023Y-82193333D01*
X211199642Y-82240952D01*
X210294880Y-82812380D02*
X210294880Y-82145714D01*
X210294880Y-81812380D02*
X210342500Y-81860000D01*
X210294880Y-81907619D01*
X210247261Y-81860000D01*
X210294880Y-81812380D01*
X210294880Y-81907619D01*
X209866309Y-82764761D02*
X209771071Y-82812380D01*
X209580595Y-82812380D01*
X209485357Y-82764761D01*
X209437738Y-82669523D01*
X209437738Y-82621904D01*
X209485357Y-82526666D01*
X209580595Y-82479047D01*
X209723452Y-82479047D01*
X209818690Y-82431428D01*
X209866309Y-82336190D01*
X209866309Y-82288571D01*
X209818690Y-82193333D01*
X209723452Y-82145714D01*
X209580595Y-82145714D01*
X209485357Y-82193333D01*
X208247261Y-82812380D02*
X208247261Y-81812380D01*
X208247261Y-82193333D02*
X208152023Y-82145714D01*
X207961547Y-82145714D01*
X207866309Y-82193333D01*
X207818690Y-82240952D01*
X207771071Y-82336190D01*
X207771071Y-82621904D01*
X207818690Y-82717142D01*
X207866309Y-82764761D01*
X207961547Y-82812380D01*
X208152023Y-82812380D01*
X208247261Y-82764761D01*
X207199642Y-82812380D02*
X207294880Y-82764761D01*
X207342500Y-82717142D01*
X207390119Y-82621904D01*
X207390119Y-82336190D01*
X207342500Y-82240952D01*
X207294880Y-82193333D01*
X207199642Y-82145714D01*
X207056785Y-82145714D01*
X206961547Y-82193333D01*
X206913928Y-82240952D01*
X206866309Y-82336190D01*
X206866309Y-82621904D01*
X206913928Y-82717142D01*
X206961547Y-82764761D01*
X207056785Y-82812380D01*
X207199642Y-82812380D01*
X206009166Y-82812380D02*
X206009166Y-82288571D01*
X206056785Y-82193333D01*
X206152023Y-82145714D01*
X206342500Y-82145714D01*
X206437738Y-82193333D01*
X206009166Y-82764761D02*
X206104404Y-82812380D01*
X206342500Y-82812380D01*
X206437738Y-82764761D01*
X206485357Y-82669523D01*
X206485357Y-82574285D01*
X206437738Y-82479047D01*
X206342500Y-82431428D01*
X206104404Y-82431428D01*
X206009166Y-82383809D01*
X205532976Y-82812380D02*
X205532976Y-82145714D01*
X205532976Y-82336190D02*
X205485357Y-82240952D01*
X205437738Y-82193333D01*
X205342500Y-82145714D01*
X205247261Y-82145714D01*
X204485357Y-82812380D02*
X204485357Y-81812380D01*
X204485357Y-82764761D02*
X204580595Y-82812380D01*
X204771071Y-82812380D01*
X204866309Y-82764761D01*
X204913928Y-82717142D01*
X204961547Y-82621904D01*
X204961547Y-82336190D01*
X204913928Y-82240952D01*
X204866309Y-82193333D01*
X204771071Y-82145714D01*
X204580595Y-82145714D01*
X204485357Y-82193333D01*
X203247261Y-82812380D02*
X203247261Y-82145714D01*
X203247261Y-81812380D02*
X203294880Y-81860000D01*
X203247261Y-81907619D01*
X203199642Y-81860000D01*
X203247261Y-81812380D01*
X203247261Y-81907619D01*
X202818690Y-82764761D02*
X202723452Y-82812380D01*
X202532976Y-82812380D01*
X202437738Y-82764761D01*
X202390119Y-82669523D01*
X202390119Y-82621904D01*
X202437738Y-82526666D01*
X202532976Y-82479047D01*
X202675833Y-82479047D01*
X202771071Y-82431428D01*
X202818690Y-82336190D01*
X202818690Y-82288571D01*
X202771071Y-82193333D01*
X202675833Y-82145714D01*
X202532976Y-82145714D01*
X202437738Y-82193333D01*
X201056785Y-82812380D02*
X201152023Y-82764761D01*
X201199642Y-82669523D01*
X201199642Y-81812380D01*
X200532976Y-82812380D02*
X200628214Y-82764761D01*
X200675833Y-82717142D01*
X200723452Y-82621904D01*
X200723452Y-82336190D01*
X200675833Y-82240952D01*
X200628214Y-82193333D01*
X200532976Y-82145714D01*
X200390119Y-82145714D01*
X200294880Y-82193333D01*
X200247261Y-82240952D01*
X200199642Y-82336190D01*
X200199642Y-82621904D01*
X200247261Y-82717142D01*
X200294880Y-82764761D01*
X200390119Y-82812380D01*
X200532976Y-82812380D01*
X199818690Y-82764761D02*
X199723452Y-82812380D01*
X199532976Y-82812380D01*
X199437738Y-82764761D01*
X199390119Y-82669523D01*
X199390119Y-82621904D01*
X199437738Y-82526666D01*
X199532976Y-82479047D01*
X199675833Y-82479047D01*
X199771071Y-82431428D01*
X199818690Y-82336190D01*
X199818690Y-82288571D01*
X199771071Y-82193333D01*
X199675833Y-82145714D01*
X199532976Y-82145714D01*
X199437738Y-82193333D01*
X199104404Y-82145714D02*
X198723452Y-82145714D01*
X198961547Y-81812380D02*
X198961547Y-82669523D01*
X198913928Y-82764761D01*
X198818690Y-82812380D01*
X198723452Y-82812380D01*
X198342500Y-82764761D02*
X198342500Y-82812380D01*
X198390119Y-82907619D01*
X198437738Y-82955238D01*
X196723452Y-82812380D02*
X196723452Y-81812380D01*
X196723452Y-82764761D02*
X196818690Y-82812380D01*
X197009166Y-82812380D01*
X197104404Y-82764761D01*
X197152023Y-82717142D01*
X197199642Y-82621904D01*
X197199642Y-82336190D01*
X197152023Y-82240952D01*
X197104404Y-82193333D01*
X197009166Y-82145714D01*
X196818690Y-82145714D01*
X196723452Y-82193333D01*
X195866309Y-82764761D02*
X195961547Y-82812380D01*
X196152023Y-82812380D01*
X196247261Y-82764761D01*
X196294880Y-82669523D01*
X196294880Y-82288571D01*
X196247261Y-82193333D01*
X196152023Y-82145714D01*
X195961547Y-82145714D01*
X195866309Y-82193333D01*
X195818690Y-82288571D01*
X195818690Y-82383809D01*
X196294880Y-82479047D01*
X195247261Y-82812380D02*
X195342500Y-82764761D01*
X195390119Y-82669523D01*
X195390119Y-81812380D01*
X194866309Y-82812380D02*
X194866309Y-82145714D01*
X194866309Y-81812380D02*
X194913928Y-81860000D01*
X194866309Y-81907619D01*
X194818690Y-81860000D01*
X194866309Y-81812380D01*
X194866309Y-81907619D01*
X194485357Y-82145714D02*
X194247261Y-82812380D01*
X194009166Y-82145714D01*
X193247261Y-82764761D02*
X193342500Y-82812380D01*
X193532976Y-82812380D01*
X193628214Y-82764761D01*
X193675833Y-82669523D01*
X193675833Y-82288571D01*
X193628214Y-82193333D01*
X193532976Y-82145714D01*
X193342500Y-82145714D01*
X193247261Y-82193333D01*
X193199642Y-82288571D01*
X193199642Y-82383809D01*
X193675833Y-82479047D01*
X192771071Y-82812380D02*
X192771071Y-82145714D01*
X192771071Y-82336190D02*
X192723452Y-82240952D01*
X192675833Y-82193333D01*
X192580595Y-82145714D01*
X192485357Y-82145714D01*
X191390119Y-82812380D02*
X191390119Y-82145714D01*
X191390119Y-81812380D02*
X191437738Y-81860000D01*
X191390119Y-81907619D01*
X191342500Y-81860000D01*
X191390119Y-81812380D01*
X191390119Y-81907619D01*
X191056785Y-82145714D02*
X190675833Y-82145714D01*
X190913928Y-81812380D02*
X190913928Y-82669523D01*
X190866309Y-82764761D01*
X190771071Y-82812380D01*
X190675833Y-82812380D01*
X189723452Y-82145714D02*
X189342500Y-82145714D01*
X189580595Y-81812380D02*
X189580595Y-82669523D01*
X189532976Y-82764761D01*
X189437738Y-82812380D01*
X189342500Y-82812380D01*
X188866309Y-82812380D02*
X188961547Y-82764761D01*
X189009166Y-82717142D01*
X189056785Y-82621904D01*
X189056785Y-82336190D01*
X189009166Y-82240952D01*
X188961547Y-82193333D01*
X188866309Y-82145714D01*
X188723452Y-82145714D01*
X188628214Y-82193333D01*
X188580595Y-82240952D01*
X188532976Y-82336190D01*
X188532976Y-82621904D01*
X188580595Y-82717142D01*
X188628214Y-82764761D01*
X188723452Y-82812380D01*
X188866309Y-82812380D01*
X187390119Y-82764761D02*
X187294880Y-82812380D01*
X187104404Y-82812380D01*
X187009166Y-82764761D01*
X186961547Y-82669523D01*
X186961547Y-82621904D01*
X187009166Y-82526666D01*
X187104404Y-82479047D01*
X187247261Y-82479047D01*
X187342500Y-82431428D01*
X187390119Y-82336190D01*
X187390119Y-82288571D01*
X187342500Y-82193333D01*
X187247261Y-82145714D01*
X187104404Y-82145714D01*
X187009166Y-82193333D01*
X186390119Y-82812380D02*
X186485357Y-82764761D01*
X186532976Y-82717142D01*
X186580595Y-82621904D01*
X186580595Y-82336190D01*
X186532976Y-82240952D01*
X186485357Y-82193333D01*
X186390119Y-82145714D01*
X186247261Y-82145714D01*
X186152023Y-82193333D01*
X186104404Y-82240952D01*
X186056785Y-82336190D01*
X186056785Y-82621904D01*
X186104404Y-82717142D01*
X186152023Y-82764761D01*
X186247261Y-82812380D01*
X186390119Y-82812380D01*
X185628214Y-82812380D02*
X185628214Y-82145714D01*
X185628214Y-82240952D02*
X185580595Y-82193333D01*
X185485357Y-82145714D01*
X185342500Y-82145714D01*
X185247261Y-82193333D01*
X185199642Y-82288571D01*
X185199642Y-82812380D01*
X185199642Y-82288571D02*
X185152023Y-82193333D01*
X185056785Y-82145714D01*
X184913928Y-82145714D01*
X184818690Y-82193333D01*
X184771071Y-82288571D01*
X184771071Y-82812380D01*
X183913928Y-82764761D02*
X184009166Y-82812380D01*
X184199642Y-82812380D01*
X184294880Y-82764761D01*
X184342500Y-82669523D01*
X184342500Y-82288571D01*
X184294880Y-82193333D01*
X184199642Y-82145714D01*
X184009166Y-82145714D01*
X183913928Y-82193333D01*
X183866309Y-82288571D01*
X183866309Y-82383809D01*
X184342500Y-82479047D01*
X183294880Y-82812380D02*
X183390119Y-82764761D01*
X183437738Y-82717142D01*
X183485357Y-82621904D01*
X183485357Y-82336190D01*
X183437738Y-82240952D01*
X183390119Y-82193333D01*
X183294880Y-82145714D01*
X183152023Y-82145714D01*
X183056785Y-82193333D01*
X183009166Y-82240952D01*
X182961547Y-82336190D01*
X182961547Y-82621904D01*
X183009166Y-82717142D01*
X183056785Y-82764761D01*
X183152023Y-82812380D01*
X183294880Y-82812380D01*
X182532976Y-82145714D02*
X182532976Y-82812380D01*
X182532976Y-82240952D02*
X182485357Y-82193333D01*
X182390119Y-82145714D01*
X182247261Y-82145714D01*
X182152023Y-82193333D01*
X182104404Y-82288571D01*
X182104404Y-82812380D01*
X181247261Y-82764761D02*
X181342500Y-82812380D01*
X181532976Y-82812380D01*
X181628214Y-82764761D01*
X181675833Y-82669523D01*
X181675833Y-82288571D01*
X181628214Y-82193333D01*
X181532976Y-82145714D01*
X181342500Y-82145714D01*
X181247261Y-82193333D01*
X181199642Y-82288571D01*
X181199642Y-82383809D01*
X181675833Y-82479047D01*
X179580595Y-82812380D02*
X179580595Y-82288571D01*
X179628214Y-82193333D01*
X179723452Y-82145714D01*
X179913928Y-82145714D01*
X180009166Y-82193333D01*
X179580595Y-82764761D02*
X179675833Y-82812380D01*
X179913928Y-82812380D01*
X180009166Y-82764761D01*
X180056785Y-82669523D01*
X180056785Y-82574285D01*
X180009166Y-82479047D01*
X179913928Y-82431428D01*
X179675833Y-82431428D01*
X179580595Y-82383809D01*
X179247261Y-82145714D02*
X178866309Y-82145714D01*
X179104404Y-81812380D02*
X179104404Y-82669523D01*
X179056785Y-82764761D01*
X178961547Y-82812380D01*
X178866309Y-82812380D01*
X218247261Y-83795714D02*
X217866309Y-83795714D01*
X218104404Y-83462380D02*
X218104404Y-84319523D01*
X218056785Y-84414761D01*
X217961547Y-84462380D01*
X217866309Y-84462380D01*
X217532976Y-84462380D02*
X217532976Y-83462380D01*
X217104404Y-84462380D02*
X217104404Y-83938571D01*
X217152023Y-83843333D01*
X217247261Y-83795714D01*
X217390119Y-83795714D01*
X217485357Y-83843333D01*
X217532976Y-83890952D01*
X216247261Y-84414761D02*
X216342500Y-84462380D01*
X216532976Y-84462380D01*
X216628214Y-84414761D01*
X216675833Y-84319523D01*
X216675833Y-83938571D01*
X216628214Y-83843333D01*
X216532976Y-83795714D01*
X216342500Y-83795714D01*
X216247261Y-83843333D01*
X216199642Y-83938571D01*
X216199642Y-84033809D01*
X216675833Y-84129047D01*
X215009166Y-83938571D02*
X214675833Y-83938571D01*
X214532976Y-84462380D02*
X215009166Y-84462380D01*
X215009166Y-83462380D01*
X214532976Y-83462380D01*
X213961547Y-84462380D02*
X214056785Y-84414761D01*
X214104404Y-84319523D01*
X214104404Y-83462380D01*
X213199642Y-84414761D02*
X213294880Y-84462380D01*
X213485357Y-84462380D01*
X213580595Y-84414761D01*
X213628214Y-84319523D01*
X213628214Y-83938571D01*
X213580595Y-83843333D01*
X213485357Y-83795714D01*
X213294880Y-83795714D01*
X213199642Y-83843333D01*
X213152023Y-83938571D01*
X213152023Y-84033809D01*
X213628214Y-84129047D01*
X212294880Y-84414761D02*
X212390119Y-84462380D01*
X212580595Y-84462380D01*
X212675833Y-84414761D01*
X212723452Y-84367142D01*
X212771071Y-84271904D01*
X212771071Y-83986190D01*
X212723452Y-83890952D01*
X212675833Y-83843333D01*
X212580595Y-83795714D01*
X212390119Y-83795714D01*
X212294880Y-83843333D01*
X212009166Y-83795714D02*
X211628214Y-83795714D01*
X211866309Y-83462380D02*
X211866309Y-84319523D01*
X211818690Y-84414761D01*
X211723452Y-84462380D01*
X211628214Y-84462380D01*
X211294880Y-84462380D02*
X211294880Y-83795714D01*
X211294880Y-83986190D02*
X211247261Y-83890952D01*
X211199642Y-83843333D01*
X211104404Y-83795714D01*
X211009166Y-83795714D01*
X210532976Y-84462380D02*
X210628214Y-84414761D01*
X210675833Y-84367142D01*
X210723452Y-84271904D01*
X210723452Y-83986190D01*
X210675833Y-83890952D01*
X210628214Y-83843333D01*
X210532976Y-83795714D01*
X210390119Y-83795714D01*
X210294880Y-83843333D01*
X210247261Y-83890952D01*
X210199642Y-83986190D01*
X210199642Y-84271904D01*
X210247261Y-84367142D01*
X210294880Y-84414761D01*
X210390119Y-84462380D01*
X210532976Y-84462380D01*
X209771071Y-83795714D02*
X209771071Y-84462380D01*
X209771071Y-83890952D02*
X209723452Y-83843333D01*
X209628214Y-83795714D01*
X209485357Y-83795714D01*
X209390119Y-83843333D01*
X209342500Y-83938571D01*
X209342500Y-84462380D01*
X208866309Y-84462380D02*
X208866309Y-83795714D01*
X208866309Y-83462380D02*
X208913928Y-83510000D01*
X208866309Y-83557619D01*
X208818690Y-83510000D01*
X208866309Y-83462380D01*
X208866309Y-83557619D01*
X207961547Y-84414761D02*
X208056785Y-84462380D01*
X208247261Y-84462380D01*
X208342500Y-84414761D01*
X208390119Y-84367142D01*
X208437738Y-84271904D01*
X208437738Y-83986190D01*
X208390119Y-83890952D01*
X208342500Y-83843333D01*
X208247261Y-83795714D01*
X208056785Y-83795714D01*
X207961547Y-83843333D01*
X207580595Y-84414761D02*
X207485357Y-84462380D01*
X207294880Y-84462380D01*
X207199642Y-84414761D01*
X207152023Y-84319523D01*
X207152023Y-84271904D01*
X207199642Y-84176666D01*
X207294880Y-84129047D01*
X207437738Y-84129047D01*
X207532976Y-84081428D01*
X207580595Y-83986190D01*
X207580595Y-83938571D01*
X207532976Y-83843333D01*
X207437738Y-83795714D01*
X207294880Y-83795714D01*
X207199642Y-83843333D01*
X206675833Y-84414761D02*
X206675833Y-84462380D01*
X206723452Y-84557619D01*
X206771071Y-84605238D01*
X205628214Y-83462380D02*
X205056785Y-83462380D01*
X205342500Y-84462380D02*
X205342500Y-83462380D01*
X204342500Y-84414761D02*
X204437738Y-84462380D01*
X204628214Y-84462380D01*
X204723452Y-84414761D01*
X204771071Y-84319523D01*
X204771071Y-83938571D01*
X204723452Y-83843333D01*
X204628214Y-83795714D01*
X204437738Y-83795714D01*
X204342500Y-83843333D01*
X204294880Y-83938571D01*
X204294880Y-84033809D01*
X204771071Y-84129047D01*
X203723452Y-84462380D02*
X203818690Y-84414761D01*
X203866309Y-84319523D01*
X203866309Y-83462380D01*
X202961547Y-84414761D02*
X203056785Y-84462380D01*
X203247261Y-84462380D01*
X203342500Y-84414761D01*
X203390119Y-84319523D01*
X203390119Y-83938571D01*
X203342500Y-83843333D01*
X203247261Y-83795714D01*
X203056785Y-83795714D01*
X202961547Y-83843333D01*
X202913928Y-83938571D01*
X202913928Y-84033809D01*
X203390119Y-84129047D01*
X202056785Y-84414761D02*
X202152023Y-84462380D01*
X202342500Y-84462380D01*
X202437738Y-84414761D01*
X202485357Y-84367142D01*
X202532976Y-84271904D01*
X202532976Y-83986190D01*
X202485357Y-83890952D01*
X202437738Y-83843333D01*
X202342500Y-83795714D01*
X202152023Y-83795714D01*
X202056785Y-83843333D01*
X201485357Y-84462380D02*
X201580595Y-84414761D01*
X201628214Y-84367142D01*
X201675833Y-84271904D01*
X201675833Y-83986190D01*
X201628214Y-83890952D01*
X201580595Y-83843333D01*
X201485357Y-83795714D01*
X201342500Y-83795714D01*
X201247261Y-83843333D01*
X201199642Y-83890952D01*
X201152023Y-83986190D01*
X201152023Y-84271904D01*
X201199642Y-84367142D01*
X201247261Y-84414761D01*
X201342500Y-84462380D01*
X201485357Y-84462380D01*
X200723452Y-84462380D02*
X200723452Y-83795714D01*
X200723452Y-83890952D02*
X200675833Y-83843333D01*
X200580595Y-83795714D01*
X200437738Y-83795714D01*
X200342500Y-83843333D01*
X200294880Y-83938571D01*
X200294880Y-84462380D01*
X200294880Y-83938571D02*
X200247261Y-83843333D01*
X200152023Y-83795714D01*
X200009166Y-83795714D01*
X199913928Y-83843333D01*
X199866309Y-83938571D01*
X199866309Y-84462380D01*
X198961547Y-83795714D02*
X198961547Y-84462380D01*
X199390119Y-83795714D02*
X199390119Y-84319523D01*
X199342500Y-84414761D01*
X199247261Y-84462380D01*
X199104404Y-84462380D01*
X199009166Y-84414761D01*
X198961547Y-84367142D01*
X198485357Y-83795714D02*
X198485357Y-84462380D01*
X198485357Y-83890952D02*
X198437738Y-83843333D01*
X198342500Y-83795714D01*
X198199642Y-83795714D01*
X198104404Y-83843333D01*
X198056785Y-83938571D01*
X198056785Y-84462380D01*
X197580595Y-84462380D02*
X197580595Y-83795714D01*
X197580595Y-83462380D02*
X197628214Y-83510000D01*
X197580595Y-83557619D01*
X197532976Y-83510000D01*
X197580595Y-83462380D01*
X197580595Y-83557619D01*
X196675833Y-84414761D02*
X196771071Y-84462380D01*
X196961547Y-84462380D01*
X197056785Y-84414761D01*
X197104404Y-84367142D01*
X197152023Y-84271904D01*
X197152023Y-83986190D01*
X197104404Y-83890952D01*
X197056785Y-83843333D01*
X196961547Y-83795714D01*
X196771071Y-83795714D01*
X196675833Y-83843333D01*
X195818690Y-84462380D02*
X195818690Y-83938571D01*
X195866309Y-83843333D01*
X195961547Y-83795714D01*
X196152023Y-83795714D01*
X196247261Y-83843333D01*
X195818690Y-84414761D02*
X195913928Y-84462380D01*
X196152023Y-84462380D01*
X196247261Y-84414761D01*
X196294880Y-84319523D01*
X196294880Y-84224285D01*
X196247261Y-84129047D01*
X196152023Y-84081428D01*
X195913928Y-84081428D01*
X195818690Y-84033809D01*
X195485357Y-83795714D02*
X195104404Y-83795714D01*
X195342500Y-83462380D02*
X195342500Y-84319523D01*
X195294880Y-84414761D01*
X195199642Y-84462380D01*
X195104404Y-84462380D01*
X194771071Y-84462380D02*
X194771071Y-83795714D01*
X194771071Y-83462380D02*
X194818690Y-83510000D01*
X194771071Y-83557619D01*
X194723452Y-83510000D01*
X194771071Y-83462380D01*
X194771071Y-83557619D01*
X194152023Y-84462380D02*
X194247261Y-84414761D01*
X194294880Y-84367142D01*
X194342500Y-84271904D01*
X194342500Y-83986190D01*
X194294880Y-83890952D01*
X194247261Y-83843333D01*
X194152023Y-83795714D01*
X194009166Y-83795714D01*
X193913928Y-83843333D01*
X193866309Y-83890952D01*
X193818690Y-83986190D01*
X193818690Y-84271904D01*
X193866309Y-84367142D01*
X193913928Y-84414761D01*
X194009166Y-84462380D01*
X194152023Y-84462380D01*
X193390119Y-83795714D02*
X193390119Y-84462380D01*
X193390119Y-83890952D02*
X193342500Y-83843333D01*
X193247261Y-83795714D01*
X193104404Y-83795714D01*
X193009166Y-83843333D01*
X192961547Y-83938571D01*
X192961547Y-84462380D01*
X192532976Y-84414761D02*
X192437738Y-84462380D01*
X192247261Y-84462380D01*
X192152023Y-84414761D01*
X192104404Y-84319523D01*
X192104404Y-84271904D01*
X192152023Y-84176666D01*
X192247261Y-84129047D01*
X192390119Y-84129047D01*
X192485357Y-84081428D01*
X192532976Y-83986190D01*
X192532976Y-83938571D01*
X192485357Y-83843333D01*
X192390119Y-83795714D01*
X192247261Y-83795714D01*
X192152023Y-83843333D01*
X190485357Y-84462380D02*
X190485357Y-83938571D01*
X190532976Y-83843333D01*
X190628214Y-83795714D01*
X190818690Y-83795714D01*
X190913928Y-83843333D01*
X190485357Y-84414761D02*
X190580595Y-84462380D01*
X190818690Y-84462380D01*
X190913928Y-84414761D01*
X190961547Y-84319523D01*
X190961547Y-84224285D01*
X190913928Y-84129047D01*
X190818690Y-84081428D01*
X190580595Y-84081428D01*
X190485357Y-84033809D01*
X190009166Y-83795714D02*
X190009166Y-84462380D01*
X190009166Y-83890952D02*
X189961547Y-83843333D01*
X189866309Y-83795714D01*
X189723452Y-83795714D01*
X189628214Y-83843333D01*
X189580595Y-83938571D01*
X189580595Y-84462380D01*
X188675833Y-84462380D02*
X188675833Y-83462380D01*
X188675833Y-84414761D02*
X188771071Y-84462380D01*
X188961547Y-84462380D01*
X189056785Y-84414761D01*
X189104404Y-84367142D01*
X189152023Y-84271904D01*
X189152023Y-83986190D01*
X189104404Y-83890952D01*
X189056785Y-83843333D01*
X188961547Y-83795714D01*
X188771071Y-83795714D01*
X188675833Y-83843333D01*
X187437738Y-84462380D02*
X187437738Y-83462380D01*
X186961547Y-83795714D02*
X186961547Y-84462380D01*
X186961547Y-83890952D02*
X186913928Y-83843333D01*
X186818690Y-83795714D01*
X186675833Y-83795714D01*
X186580595Y-83843333D01*
X186532976Y-83938571D01*
X186532976Y-84462380D01*
X186199642Y-83795714D02*
X185818690Y-83795714D01*
X186056785Y-84462380D02*
X186056785Y-83605238D01*
X186009166Y-83510000D01*
X185913928Y-83462380D01*
X185818690Y-83462380D01*
X185342500Y-84462380D02*
X185437738Y-84414761D01*
X185485357Y-84367142D01*
X185532976Y-84271904D01*
X185532976Y-83986190D01*
X185485357Y-83890952D01*
X185437738Y-83843333D01*
X185342500Y-83795714D01*
X185199642Y-83795714D01*
X185104404Y-83843333D01*
X185056785Y-83890952D01*
X185009166Y-83986190D01*
X185009166Y-84271904D01*
X185056785Y-84367142D01*
X185104404Y-84414761D01*
X185199642Y-84462380D01*
X185342500Y-84462380D01*
X184580595Y-84462380D02*
X184580595Y-83795714D01*
X184580595Y-83986190D02*
X184532976Y-83890952D01*
X184485357Y-83843333D01*
X184390119Y-83795714D01*
X184294880Y-83795714D01*
X183961547Y-84462380D02*
X183961547Y-83795714D01*
X183961547Y-83890952D02*
X183913928Y-83843333D01*
X183818690Y-83795714D01*
X183675833Y-83795714D01*
X183580595Y-83843333D01*
X183532976Y-83938571D01*
X183532976Y-84462380D01*
X183532976Y-83938571D02*
X183485357Y-83843333D01*
X183390119Y-83795714D01*
X183247261Y-83795714D01*
X183152023Y-83843333D01*
X183104404Y-83938571D01*
X183104404Y-84462380D01*
X182199642Y-84462380D02*
X182199642Y-83938571D01*
X182247261Y-83843333D01*
X182342500Y-83795714D01*
X182532976Y-83795714D01*
X182628214Y-83843333D01*
X182199642Y-84414761D02*
X182294880Y-84462380D01*
X182532976Y-84462380D01*
X182628214Y-84414761D01*
X182675833Y-84319523D01*
X182675833Y-84224285D01*
X182628214Y-84129047D01*
X182532976Y-84081428D01*
X182294880Y-84081428D01*
X182199642Y-84033809D01*
X181866309Y-83795714D02*
X181485357Y-83795714D01*
X181723452Y-83462380D02*
X181723452Y-84319523D01*
X181675833Y-84414761D01*
X181580595Y-84462380D01*
X181485357Y-84462380D01*
X181152023Y-84462380D02*
X181152023Y-83795714D01*
X181152023Y-83462380D02*
X181199642Y-83510000D01*
X181152023Y-83557619D01*
X181104404Y-83510000D01*
X181152023Y-83462380D01*
X181152023Y-83557619D01*
X180247261Y-84414761D02*
X180342500Y-84462380D01*
X180532976Y-84462380D01*
X180628214Y-84414761D01*
X180675833Y-84367142D01*
X180723452Y-84271904D01*
X180723452Y-83986190D01*
X180675833Y-83890952D01*
X180628214Y-83843333D01*
X180532976Y-83795714D01*
X180342500Y-83795714D01*
X180247261Y-83843333D01*
X179866309Y-84414761D02*
X179771071Y-84462380D01*
X179580595Y-84462380D01*
X179485357Y-84414761D01*
X179437738Y-84319523D01*
X179437738Y-84271904D01*
X179485357Y-84176666D01*
X179580595Y-84129047D01*
X179723452Y-84129047D01*
X179818690Y-84081428D01*
X179866309Y-83986190D01*
X179866309Y-83938571D01*
X179818690Y-83843333D01*
X179723452Y-83795714D01*
X179580595Y-83795714D01*
X179485357Y-83843333D01*
X177818690Y-84462380D02*
X177818690Y-83462380D01*
X177818690Y-84414761D02*
X177913928Y-84462380D01*
X178104404Y-84462380D01*
X178199642Y-84414761D01*
X178247261Y-84367142D01*
X178294880Y-84271904D01*
X178294880Y-83986190D01*
X178247261Y-83890952D01*
X178199642Y-83843333D01*
X178104404Y-83795714D01*
X177913928Y-83795714D01*
X177818690Y-83843333D01*
X176961547Y-84414761D02*
X177056785Y-84462380D01*
X177247261Y-84462380D01*
X177342500Y-84414761D01*
X177390119Y-84319523D01*
X177390119Y-83938571D01*
X177342500Y-83843333D01*
X177247261Y-83795714D01*
X177056785Y-83795714D01*
X176961547Y-83843333D01*
X176913928Y-83938571D01*
X176913928Y-84033809D01*
X177390119Y-84129047D01*
X176485357Y-83795714D02*
X176485357Y-84795714D01*
X176485357Y-83843333D02*
X176390119Y-83795714D01*
X176199642Y-83795714D01*
X176104404Y-83843333D01*
X176056785Y-83890952D01*
X176009166Y-83986190D01*
X176009166Y-84271904D01*
X176056785Y-84367142D01*
X176104404Y-84414761D01*
X176199642Y-84462380D01*
X176390119Y-84462380D01*
X176485357Y-84414761D01*
X175152023Y-84462380D02*
X175152023Y-83938571D01*
X175199642Y-83843333D01*
X175294880Y-83795714D01*
X175485357Y-83795714D01*
X175580595Y-83843333D01*
X175152023Y-84414761D02*
X175247261Y-84462380D01*
X175485357Y-84462380D01*
X175580595Y-84414761D01*
X175628214Y-84319523D01*
X175628214Y-84224285D01*
X175580595Y-84129047D01*
X175485357Y-84081428D01*
X175247261Y-84081428D01*
X175152023Y-84033809D01*
X174675833Y-84462380D02*
X174675833Y-83795714D01*
X174675833Y-83986190D02*
X174628214Y-83890952D01*
X174580595Y-83843333D01*
X174485357Y-83795714D01*
X174390119Y-83795714D01*
X174199642Y-83795714D02*
X173818690Y-83795714D01*
X174056785Y-83462380D02*
X174056785Y-84319523D01*
X174009166Y-84414761D01*
X173913928Y-84462380D01*
X173818690Y-84462380D01*
X173485357Y-84462380D02*
X173485357Y-83795714D01*
X173485357Y-83890952D02*
X173437738Y-83843333D01*
X173342500Y-83795714D01*
X173199642Y-83795714D01*
X173104404Y-83843333D01*
X173056785Y-83938571D01*
X173056785Y-84462380D01*
X173056785Y-83938571D02*
X173009166Y-83843333D01*
X172913928Y-83795714D01*
X172771071Y-83795714D01*
X172675833Y-83843333D01*
X172628214Y-83938571D01*
X172628214Y-84462380D01*
X171771071Y-84414761D02*
X171866309Y-84462380D01*
X172056785Y-84462380D01*
X172152023Y-84414761D01*
X172199642Y-84319523D01*
X172199642Y-83938571D01*
X172152023Y-83843333D01*
X172056785Y-83795714D01*
X171866309Y-83795714D01*
X171771071Y-83843333D01*
X171723452Y-83938571D01*
X171723452Y-84033809D01*
X172199642Y-84129047D01*
X171294880Y-83795714D02*
X171294880Y-84462380D01*
X171294880Y-83890952D02*
X171247261Y-83843333D01*
X171152023Y-83795714D01*
X171009166Y-83795714D01*
X170913928Y-83843333D01*
X170866309Y-83938571D01*
X170866309Y-84462380D01*
X170532976Y-83795714D02*
X170152023Y-83795714D01*
X170390119Y-83462380D02*
X170390119Y-84319523D01*
X170342500Y-84414761D01*
X170247261Y-84462380D01*
X170152023Y-84462380D01*
X169771071Y-83462380D02*
X169866309Y-83652857D01*
X169390119Y-84414761D02*
X169294880Y-84462380D01*
X169104404Y-84462380D01*
X169009166Y-84414761D01*
X168961547Y-84319523D01*
X168961547Y-84271904D01*
X169009166Y-84176666D01*
X169104404Y-84129047D01*
X169247261Y-84129047D01*
X169342500Y-84081428D01*
X169390119Y-83986190D01*
X169390119Y-83938571D01*
X169342500Y-83843333D01*
X169247261Y-83795714D01*
X169104404Y-83795714D01*
X169009166Y-83843333D01*
X167818690Y-84414761D02*
X167723452Y-84462380D01*
X167532976Y-84462380D01*
X167437738Y-84414761D01*
X167390119Y-84319523D01*
X167390119Y-84271904D01*
X167437738Y-84176666D01*
X167532976Y-84129047D01*
X167675833Y-84129047D01*
X167771071Y-84081428D01*
X167818690Y-83986190D01*
X167818690Y-83938571D01*
X167771071Y-83843333D01*
X167675833Y-83795714D01*
X167532976Y-83795714D01*
X167437738Y-83843333D01*
X166580595Y-84414761D02*
X166675833Y-84462380D01*
X166866309Y-84462380D01*
X166961547Y-84414761D01*
X167009166Y-84319523D01*
X167009166Y-83938571D01*
X166961547Y-83843333D01*
X166866309Y-83795714D01*
X166675833Y-83795714D01*
X166580595Y-83843333D01*
X166532976Y-83938571D01*
X166532976Y-84033809D01*
X167009166Y-84129047D01*
X165675833Y-84414761D02*
X165771071Y-84462380D01*
X165961547Y-84462380D01*
X166056785Y-84414761D01*
X166104404Y-84367142D01*
X166152023Y-84271904D01*
X166152023Y-83986190D01*
X166104404Y-83890952D01*
X166056785Y-83843333D01*
X165961547Y-83795714D01*
X165771071Y-83795714D01*
X165675833Y-83843333D01*
X165247261Y-84462380D02*
X165247261Y-83795714D01*
X165247261Y-83986190D02*
X165199642Y-83890952D01*
X165152023Y-83843333D01*
X165056785Y-83795714D01*
X164961547Y-83795714D01*
X164247261Y-84414761D02*
X164342500Y-84462380D01*
X164532976Y-84462380D01*
X164628214Y-84414761D01*
X164675833Y-84319523D01*
X164675833Y-83938571D01*
X164628214Y-83843333D01*
X164532976Y-83795714D01*
X164342500Y-83795714D01*
X164247261Y-83843333D01*
X164199642Y-83938571D01*
X164199642Y-84033809D01*
X164675833Y-84129047D01*
X163913928Y-83795714D02*
X163532976Y-83795714D01*
X163771071Y-83462380D02*
X163771071Y-84319523D01*
X163723452Y-84414761D01*
X163628214Y-84462380D01*
X163532976Y-84462380D01*
X162771071Y-84462380D02*
X162771071Y-83938571D01*
X162818690Y-83843333D01*
X162913928Y-83795714D01*
X163104404Y-83795714D01*
X163199642Y-83843333D01*
X162771071Y-84414761D02*
X162866309Y-84462380D01*
X163104404Y-84462380D01*
X163199642Y-84414761D01*
X163247261Y-84319523D01*
X163247261Y-84224285D01*
X163199642Y-84129047D01*
X163104404Y-84081428D01*
X162866309Y-84081428D01*
X162771071Y-84033809D01*
X162294880Y-84462380D02*
X162294880Y-83795714D01*
X162294880Y-83986190D02*
X162247261Y-83890952D01*
X162199642Y-83843333D01*
X162104404Y-83795714D01*
X162009166Y-83795714D01*
X161771071Y-83795714D02*
X161532976Y-84462380D01*
X161294880Y-83795714D02*
X161532976Y-84462380D01*
X161628214Y-84700476D01*
X161675833Y-84748095D01*
X161771071Y-84795714D01*
X131658809Y-70792857D02*
X131182619Y-70792857D01*
X132182619Y-71126190D02*
X131658809Y-70792857D01*
X132182619Y-70459523D01*
X131182619Y-69983333D02*
X131230238Y-70078571D01*
X131277857Y-70126190D01*
X131373095Y-70173809D01*
X131658809Y-70173809D01*
X131754047Y-70126190D01*
X131801666Y-70078571D01*
X131849285Y-69983333D01*
X131849285Y-69840476D01*
X131801666Y-69745238D01*
X131754047Y-69697619D01*
X131658809Y-69650000D01*
X131373095Y-69650000D01*
X131277857Y-69697619D01*
X131230238Y-69745238D01*
X131182619Y-69840476D01*
X131182619Y-69983333D01*
X131849285Y-68792857D02*
X131182619Y-68792857D01*
X131849285Y-69221428D02*
X131325476Y-69221428D01*
X131230238Y-69173809D01*
X131182619Y-69078571D01*
X131182619Y-68935714D01*
X131230238Y-68840476D01*
X131277857Y-68792857D01*
X131182619Y-68316666D02*
X131849285Y-68316666D01*
X131658809Y-68316666D02*
X131754047Y-68269047D01*
X131801666Y-68221428D01*
X131849285Y-68126190D01*
X131849285Y-68030952D01*
X131230238Y-66507142D02*
X131182619Y-66602380D01*
X131182619Y-66792857D01*
X131230238Y-66888095D01*
X131277857Y-66935714D01*
X131373095Y-66983333D01*
X131658809Y-66983333D01*
X131754047Y-66935714D01*
X131801666Y-66888095D01*
X131849285Y-66792857D01*
X131849285Y-66602380D01*
X131801666Y-66507142D01*
X131182619Y-65650000D02*
X131706428Y-65650000D01*
X131801666Y-65697619D01*
X131849285Y-65792857D01*
X131849285Y-65983333D01*
X131801666Y-66078571D01*
X131230238Y-65650000D02*
X131182619Y-65745238D01*
X131182619Y-65983333D01*
X131230238Y-66078571D01*
X131325476Y-66126190D01*
X131420714Y-66126190D01*
X131515952Y-66078571D01*
X131563571Y-65983333D01*
X131563571Y-65745238D01*
X131611190Y-65650000D01*
X131849285Y-65173809D02*
X131182619Y-65173809D01*
X131754047Y-65173809D02*
X131801666Y-65126190D01*
X131849285Y-65030952D01*
X131849285Y-64888095D01*
X131801666Y-64792857D01*
X131706428Y-64745238D01*
X131182619Y-64745238D01*
X131849285Y-63650000D02*
X131849285Y-63269047D01*
X131182619Y-63507142D02*
X132039761Y-63507142D01*
X132135000Y-63459523D01*
X132182619Y-63364285D01*
X132182619Y-63269047D01*
X131182619Y-62935714D02*
X131849285Y-62935714D01*
X132182619Y-62935714D02*
X132135000Y-62983333D01*
X132087380Y-62935714D01*
X132135000Y-62888095D01*
X132182619Y-62935714D01*
X132087380Y-62935714D01*
X131849285Y-62459523D02*
X131182619Y-62459523D01*
X131754047Y-62459523D02*
X131801666Y-62411904D01*
X131849285Y-62316666D01*
X131849285Y-62173809D01*
X131801666Y-62078571D01*
X131706428Y-62030952D01*
X131182619Y-62030952D01*
X131182619Y-61126190D02*
X132182619Y-61126190D01*
X131230238Y-61126190D02*
X131182619Y-61221428D01*
X131182619Y-61411904D01*
X131230238Y-61507142D01*
X131277857Y-61554761D01*
X131373095Y-61602380D01*
X131658809Y-61602380D01*
X131754047Y-61554761D01*
X131801666Y-61507142D01*
X131849285Y-61411904D01*
X131849285Y-61221428D01*
X131801666Y-61126190D01*
X131182619Y-59888095D02*
X131849285Y-59888095D01*
X131754047Y-59888095D02*
X131801666Y-59840476D01*
X131849285Y-59745238D01*
X131849285Y-59602380D01*
X131801666Y-59507142D01*
X131706428Y-59459523D01*
X131182619Y-59459523D01*
X131706428Y-59459523D02*
X131801666Y-59411904D01*
X131849285Y-59316666D01*
X131849285Y-59173809D01*
X131801666Y-59078571D01*
X131706428Y-59030952D01*
X131182619Y-59030952D01*
X131182619Y-58411904D02*
X131230238Y-58507142D01*
X131277857Y-58554761D01*
X131373095Y-58602380D01*
X131658809Y-58602380D01*
X131754047Y-58554761D01*
X131801666Y-58507142D01*
X131849285Y-58411904D01*
X131849285Y-58269047D01*
X131801666Y-58173809D01*
X131754047Y-58126190D01*
X131658809Y-58078571D01*
X131373095Y-58078571D01*
X131277857Y-58126190D01*
X131230238Y-58173809D01*
X131182619Y-58269047D01*
X131182619Y-58411904D01*
X131182619Y-57650000D02*
X131849285Y-57650000D01*
X131658809Y-57650000D02*
X131754047Y-57602380D01*
X131801666Y-57554761D01*
X131849285Y-57459523D01*
X131849285Y-57364285D01*
X131230238Y-56650000D02*
X131182619Y-56745238D01*
X131182619Y-56935714D01*
X131230238Y-57030952D01*
X131325476Y-57078571D01*
X131706428Y-57078571D01*
X131801666Y-57030952D01*
X131849285Y-56935714D01*
X131849285Y-56745238D01*
X131801666Y-56650000D01*
X131706428Y-56602380D01*
X131611190Y-56602380D01*
X131515952Y-57078571D01*
X131182619Y-55411904D02*
X131849285Y-55411904D01*
X132182619Y-55411904D02*
X132135000Y-55459523D01*
X132087380Y-55411904D01*
X132135000Y-55364285D01*
X132182619Y-55411904D01*
X132087380Y-55411904D01*
X131849285Y-54935714D02*
X131182619Y-54935714D01*
X131754047Y-54935714D02*
X131801666Y-54888095D01*
X131849285Y-54792857D01*
X131849285Y-54650000D01*
X131801666Y-54554761D01*
X131706428Y-54507142D01*
X131182619Y-54507142D01*
X131849285Y-54173809D02*
X131849285Y-53792857D01*
X131182619Y-54030952D02*
X132039761Y-54030952D01*
X132135000Y-53983333D01*
X132182619Y-53888095D01*
X132182619Y-53792857D01*
X131182619Y-53316666D02*
X131230238Y-53411904D01*
X131277857Y-53459523D01*
X131373095Y-53507142D01*
X131658809Y-53507142D01*
X131754047Y-53459523D01*
X131801666Y-53411904D01*
X131849285Y-53316666D01*
X131849285Y-53173809D01*
X131801666Y-53078571D01*
X131754047Y-53030952D01*
X131658809Y-52983333D01*
X131373095Y-52983333D01*
X131277857Y-53030952D01*
X131230238Y-53078571D01*
X131182619Y-53173809D01*
X131182619Y-53316666D01*
X131182619Y-52554761D02*
X131849285Y-52554761D01*
X131658809Y-52554761D02*
X131754047Y-52507142D01*
X131801666Y-52459523D01*
X131849285Y-52364285D01*
X131849285Y-52269047D01*
X131182619Y-51935714D02*
X131849285Y-51935714D01*
X131754047Y-51935714D02*
X131801666Y-51888095D01*
X131849285Y-51792857D01*
X131849285Y-51650000D01*
X131801666Y-51554761D01*
X131706428Y-51507142D01*
X131182619Y-51507142D01*
X131706428Y-51507142D02*
X131801666Y-51459523D01*
X131849285Y-51364285D01*
X131849285Y-51221428D01*
X131801666Y-51126190D01*
X131706428Y-51078571D01*
X131182619Y-51078571D01*
X131182619Y-50173809D02*
X131706428Y-50173809D01*
X131801666Y-50221428D01*
X131849285Y-50316666D01*
X131849285Y-50507142D01*
X131801666Y-50602380D01*
X131230238Y-50173809D02*
X131182619Y-50269047D01*
X131182619Y-50507142D01*
X131230238Y-50602380D01*
X131325476Y-50650000D01*
X131420714Y-50650000D01*
X131515952Y-50602380D01*
X131563571Y-50507142D01*
X131563571Y-50269047D01*
X131611190Y-50173809D01*
X131849285Y-49840476D02*
X131849285Y-49459523D01*
X132182619Y-49697619D02*
X131325476Y-49697619D01*
X131230238Y-49650000D01*
X131182619Y-49554761D01*
X131182619Y-49459523D01*
X131182619Y-49126190D02*
X131849285Y-49126190D01*
X132182619Y-49126190D02*
X132135000Y-49173809D01*
X132087380Y-49126190D01*
X132135000Y-49078571D01*
X132182619Y-49126190D01*
X132087380Y-49126190D01*
X131182619Y-48507142D02*
X131230238Y-48602380D01*
X131277857Y-48650000D01*
X131373095Y-48697619D01*
X131658809Y-48697619D01*
X131754047Y-48650000D01*
X131801666Y-48602380D01*
X131849285Y-48507142D01*
X131849285Y-48364285D01*
X131801666Y-48269047D01*
X131754047Y-48221428D01*
X131658809Y-48173809D01*
X131373095Y-48173809D01*
X131277857Y-48221428D01*
X131230238Y-48269047D01*
X131182619Y-48364285D01*
X131182619Y-48507142D01*
X131849285Y-47745238D02*
X131182619Y-47745238D01*
X131754047Y-47745238D02*
X131801666Y-47697619D01*
X131849285Y-47602380D01*
X131849285Y-47459523D01*
X131801666Y-47364285D01*
X131706428Y-47316666D01*
X131182619Y-47316666D01*
X131182619Y-46078571D02*
X132182619Y-46078571D01*
X131182619Y-45650000D02*
X131706428Y-45650000D01*
X131801666Y-45697619D01*
X131849285Y-45792857D01*
X131849285Y-45935714D01*
X131801666Y-46030952D01*
X131754047Y-46078571D01*
X131230238Y-44792857D02*
X131182619Y-44888095D01*
X131182619Y-45078571D01*
X131230238Y-45173809D01*
X131325476Y-45221428D01*
X131706428Y-45221428D01*
X131801666Y-45173809D01*
X131849285Y-45078571D01*
X131849285Y-44888095D01*
X131801666Y-44792857D01*
X131706428Y-44745238D01*
X131611190Y-44745238D01*
X131515952Y-45221428D01*
X131182619Y-44316666D02*
X131849285Y-44316666D01*
X131658809Y-44316666D02*
X131754047Y-44269047D01*
X131801666Y-44221428D01*
X131849285Y-44126190D01*
X131849285Y-44030952D01*
X131230238Y-43316666D02*
X131182619Y-43411904D01*
X131182619Y-43602380D01*
X131230238Y-43697619D01*
X131325476Y-43745238D01*
X131706428Y-43745238D01*
X131801666Y-43697619D01*
X131849285Y-43602380D01*
X131849285Y-43411904D01*
X131801666Y-43316666D01*
X131706428Y-43269047D01*
X131611190Y-43269047D01*
X131515952Y-43745238D01*
X129532619Y-75816666D02*
X130532619Y-75816666D01*
X129532619Y-75388095D02*
X130056428Y-75388095D01*
X130151666Y-75435714D01*
X130199285Y-75530952D01*
X130199285Y-75673809D01*
X130151666Y-75769047D01*
X130104047Y-75816666D01*
X130199285Y-75054761D02*
X130199285Y-74673809D01*
X130532619Y-74911904D02*
X129675476Y-74911904D01*
X129580238Y-74864285D01*
X129532619Y-74769047D01*
X129532619Y-74673809D01*
X130199285Y-74483333D02*
X130199285Y-74102380D01*
X130532619Y-74340476D02*
X129675476Y-74340476D01*
X129580238Y-74292857D01*
X129532619Y-74197619D01*
X129532619Y-74102380D01*
X130199285Y-73769047D02*
X129199285Y-73769047D01*
X130151666Y-73769047D02*
X130199285Y-73673809D01*
X130199285Y-73483333D01*
X130151666Y-73388095D01*
X130104047Y-73340476D01*
X130008809Y-73292857D01*
X129723095Y-73292857D01*
X129627857Y-73340476D01*
X129580238Y-73388095D01*
X129532619Y-73483333D01*
X129532619Y-73673809D01*
X129580238Y-73769047D01*
X129580238Y-72911904D02*
X129532619Y-72816666D01*
X129532619Y-72626190D01*
X129580238Y-72530952D01*
X129675476Y-72483333D01*
X129723095Y-72483333D01*
X129818333Y-72530952D01*
X129865952Y-72626190D01*
X129865952Y-72769047D01*
X129913571Y-72864285D01*
X130008809Y-72911904D01*
X130056428Y-72911904D01*
X130151666Y-72864285D01*
X130199285Y-72769047D01*
X130199285Y-72626190D01*
X130151666Y-72530952D01*
X129627857Y-72054761D02*
X129580238Y-72007142D01*
X129532619Y-72054761D01*
X129580238Y-72102380D01*
X129627857Y-72054761D01*
X129532619Y-72054761D01*
X130151666Y-72054761D02*
X130104047Y-72007142D01*
X130056428Y-72054761D01*
X130104047Y-72102380D01*
X130151666Y-72054761D01*
X130056428Y-72054761D01*
X130580238Y-70864285D02*
X129294523Y-71721428D01*
X130580238Y-69816666D02*
X129294523Y-70673809D01*
X130199285Y-69054761D02*
X129389761Y-69054761D01*
X129294523Y-69102380D01*
X129246904Y-69150000D01*
X129199285Y-69245238D01*
X129199285Y-69388095D01*
X129246904Y-69483333D01*
X129580238Y-69054761D02*
X129532619Y-69150000D01*
X129532619Y-69340476D01*
X129580238Y-69435714D01*
X129627857Y-69483333D01*
X129723095Y-69530952D01*
X130008809Y-69530952D01*
X130104047Y-69483333D01*
X130151666Y-69435714D01*
X130199285Y-69340476D01*
X130199285Y-69150000D01*
X130151666Y-69054761D01*
X129532619Y-68578571D02*
X130199285Y-68578571D01*
X130532619Y-68578571D02*
X130485000Y-68626190D01*
X130437380Y-68578571D01*
X130485000Y-68530952D01*
X130532619Y-68578571D01*
X130437380Y-68578571D01*
X130199285Y-68245238D02*
X130199285Y-67864285D01*
X130532619Y-68102380D02*
X129675476Y-68102380D01*
X129580238Y-68054761D01*
X129532619Y-67959523D01*
X129532619Y-67864285D01*
X129532619Y-67530952D02*
X130532619Y-67530952D01*
X129532619Y-67102380D02*
X130056428Y-67102380D01*
X130151666Y-67150000D01*
X130199285Y-67245238D01*
X130199285Y-67388095D01*
X130151666Y-67483333D01*
X130104047Y-67530952D01*
X130199285Y-66197619D02*
X129532619Y-66197619D01*
X130199285Y-66626190D02*
X129675476Y-66626190D01*
X129580238Y-66578571D01*
X129532619Y-66483333D01*
X129532619Y-66340476D01*
X129580238Y-66245238D01*
X129627857Y-66197619D01*
X129532619Y-65721428D02*
X130532619Y-65721428D01*
X130151666Y-65721428D02*
X130199285Y-65626190D01*
X130199285Y-65435714D01*
X130151666Y-65340476D01*
X130104047Y-65292857D01*
X130008809Y-65245238D01*
X129723095Y-65245238D01*
X129627857Y-65292857D01*
X129580238Y-65340476D01*
X129532619Y-65435714D01*
X129532619Y-65626190D01*
X129580238Y-65721428D01*
X129627857Y-64816666D02*
X129580238Y-64769047D01*
X129532619Y-64816666D01*
X129580238Y-64864285D01*
X129627857Y-64816666D01*
X129532619Y-64816666D01*
X129580238Y-63911904D02*
X129532619Y-64007142D01*
X129532619Y-64197619D01*
X129580238Y-64292857D01*
X129627857Y-64340476D01*
X129723095Y-64388095D01*
X130008809Y-64388095D01*
X130104047Y-64340476D01*
X130151666Y-64292857D01*
X130199285Y-64197619D01*
X130199285Y-64007142D01*
X130151666Y-63911904D01*
X129532619Y-63340476D02*
X129580238Y-63435714D01*
X129627857Y-63483333D01*
X129723095Y-63530952D01*
X130008809Y-63530952D01*
X130104047Y-63483333D01*
X130151666Y-63435714D01*
X130199285Y-63340476D01*
X130199285Y-63197619D01*
X130151666Y-63102380D01*
X130104047Y-63054761D01*
X130008809Y-63007142D01*
X129723095Y-63007142D01*
X129627857Y-63054761D01*
X129580238Y-63102380D01*
X129532619Y-63197619D01*
X129532619Y-63340476D01*
X129532619Y-62578571D02*
X130199285Y-62578571D01*
X130104047Y-62578571D02*
X130151666Y-62530952D01*
X130199285Y-62435714D01*
X130199285Y-62292857D01*
X130151666Y-62197619D01*
X130056428Y-62150000D01*
X129532619Y-62150000D01*
X130056428Y-62150000D02*
X130151666Y-62102380D01*
X130199285Y-62007142D01*
X130199285Y-61864285D01*
X130151666Y-61769047D01*
X130056428Y-61721428D01*
X129532619Y-61721428D01*
X130580238Y-60530952D02*
X129294523Y-61388095D01*
X129532619Y-59769047D02*
X130532619Y-59769047D01*
X129580238Y-59769047D02*
X129532619Y-59864285D01*
X129532619Y-60054761D01*
X129580238Y-60150000D01*
X129627857Y-60197619D01*
X129723095Y-60245238D01*
X130008809Y-60245238D01*
X130104047Y-60197619D01*
X130151666Y-60150000D01*
X130199285Y-60054761D01*
X130199285Y-59864285D01*
X130151666Y-59769047D01*
X130199285Y-59388095D02*
X129532619Y-59150000D01*
X130199285Y-58911904D01*
X129580238Y-58102380D02*
X129532619Y-58197619D01*
X129532619Y-58388095D01*
X129580238Y-58483333D01*
X129627857Y-58530952D01*
X129723095Y-58578571D01*
X130008809Y-58578571D01*
X130104047Y-58530952D01*
X130151666Y-58483333D01*
X130199285Y-58388095D01*
X130199285Y-58197619D01*
X130151666Y-58102380D01*
X129532619Y-57530952D02*
X129580238Y-57626190D01*
X129627857Y-57673809D01*
X129723095Y-57721428D01*
X130008809Y-57721428D01*
X130104047Y-57673809D01*
X130151666Y-57626190D01*
X130199285Y-57530952D01*
X130199285Y-57388095D01*
X130151666Y-57292857D01*
X130104047Y-57245238D01*
X130008809Y-57197619D01*
X129723095Y-57197619D01*
X129627857Y-57245238D01*
X129580238Y-57292857D01*
X129532619Y-57388095D01*
X129532619Y-57530952D01*
X129532619Y-56769047D02*
X130199285Y-56769047D01*
X130008809Y-56769047D02*
X130104047Y-56721428D01*
X130151666Y-56673809D01*
X130199285Y-56578571D01*
X130199285Y-56483333D01*
X129532619Y-56150000D02*
X130199285Y-56150000D01*
X130008809Y-56150000D02*
X130104047Y-56102380D01*
X130151666Y-56054761D01*
X130199285Y-55959523D01*
X130199285Y-55864285D01*
X129580238Y-55150000D02*
X129532619Y-55245238D01*
X129532619Y-55435714D01*
X129580238Y-55530952D01*
X129675476Y-55578571D01*
X130056428Y-55578571D01*
X130151666Y-55530952D01*
X130199285Y-55435714D01*
X130199285Y-55245238D01*
X130151666Y-55150000D01*
X130056428Y-55102380D01*
X129961190Y-55102380D01*
X129865952Y-55578571D01*
X129532619Y-54673809D02*
X130199285Y-54673809D01*
X130532619Y-54673809D02*
X130485000Y-54721428D01*
X130437380Y-54673809D01*
X130485000Y-54626190D01*
X130532619Y-54673809D01*
X130437380Y-54673809D01*
X129532619Y-53769047D02*
X130056428Y-53769047D01*
X130151666Y-53816666D01*
X130199285Y-53911904D01*
X130199285Y-54102380D01*
X130151666Y-54197619D01*
X129580238Y-53769047D02*
X129532619Y-53864285D01*
X129532619Y-54102380D01*
X129580238Y-54197619D01*
X129675476Y-54245238D01*
X129770714Y-54245238D01*
X129865952Y-54197619D01*
X129913571Y-54102380D01*
X129913571Y-53864285D01*
X129961190Y-53769047D01*
X130580238Y-52578571D02*
X129294523Y-53435714D01*
X129532619Y-51816666D02*
X130056428Y-51816666D01*
X130151666Y-51864285D01*
X130199285Y-51959523D01*
X130199285Y-52150000D01*
X130151666Y-52245238D01*
X129580238Y-51816666D02*
X129532619Y-51911904D01*
X129532619Y-52150000D01*
X129580238Y-52245238D01*
X129675476Y-52292857D01*
X129770714Y-52292857D01*
X129865952Y-52245238D01*
X129913571Y-52150000D01*
X129913571Y-51911904D01*
X129961190Y-51816666D01*
X129580238Y-50911904D02*
X129532619Y-51007142D01*
X129532619Y-51197619D01*
X129580238Y-51292857D01*
X129627857Y-51340476D01*
X129723095Y-51388095D01*
X130008809Y-51388095D01*
X130104047Y-51340476D01*
X130151666Y-51292857D01*
X130199285Y-51197619D01*
X130199285Y-51007142D01*
X130151666Y-50911904D01*
X130437380Y-50530952D02*
X130485000Y-50483333D01*
X130532619Y-50388095D01*
X130532619Y-50150000D01*
X130485000Y-50054761D01*
X130437380Y-50007142D01*
X130342142Y-49959523D01*
X130246904Y-49959523D01*
X130104047Y-50007142D01*
X129532619Y-50578571D01*
X129532619Y-49959523D01*
X129913571Y-49530952D02*
X129913571Y-48769047D01*
X129532619Y-47864285D02*
X130532619Y-47864285D01*
X129580238Y-47864285D02*
X129532619Y-47959523D01*
X129532619Y-48150000D01*
X129580238Y-48245238D01*
X129627857Y-48292857D01*
X129723095Y-48340476D01*
X130008809Y-48340476D01*
X130104047Y-48292857D01*
X130151666Y-48245238D01*
X130199285Y-48150000D01*
X130199285Y-47959523D01*
X130151666Y-47864285D01*
X129580238Y-47007142D02*
X129532619Y-47102380D01*
X129532619Y-47292857D01*
X129580238Y-47388095D01*
X129675476Y-47435714D01*
X130056428Y-47435714D01*
X130151666Y-47388095D01*
X130199285Y-47292857D01*
X130199285Y-47102380D01*
X130151666Y-47007142D01*
X130056428Y-46959523D01*
X129961190Y-46959523D01*
X129865952Y-47435714D01*
X130199285Y-46673809D02*
X130199285Y-46292857D01*
X130532619Y-46530952D02*
X129675476Y-46530952D01*
X129580238Y-46483333D01*
X129532619Y-46388095D01*
X129532619Y-46292857D01*
X130199285Y-45959523D02*
X129199285Y-45959523D01*
X130151666Y-45959523D02*
X130199285Y-45864285D01*
X130199285Y-45673809D01*
X130151666Y-45578571D01*
X130104047Y-45530952D01*
X130008809Y-45483333D01*
X129723095Y-45483333D01*
X129627857Y-45530952D01*
X129580238Y-45578571D01*
X129532619Y-45673809D01*
X129532619Y-45864285D01*
X129580238Y-45959523D01*
X129532619Y-45054761D02*
X130199285Y-45054761D01*
X130532619Y-45054761D02*
X130485000Y-45102380D01*
X130437380Y-45054761D01*
X130485000Y-45007142D01*
X130532619Y-45054761D01*
X130437380Y-45054761D01*
X129580238Y-44150000D02*
X129532619Y-44245238D01*
X129532619Y-44435714D01*
X129580238Y-44530952D01*
X129627857Y-44578571D01*
X129723095Y-44626190D01*
X130008809Y-44626190D01*
X130104047Y-44578571D01*
X130151666Y-44530952D01*
X130199285Y-44435714D01*
X130199285Y-44245238D01*
X130151666Y-44150000D01*
X129913571Y-43721428D02*
X129913571Y-42959523D01*
X129580238Y-42530952D02*
X129532619Y-42435714D01*
X129532619Y-42245238D01*
X129580238Y-42150000D01*
X129675476Y-42102380D01*
X129723095Y-42102380D01*
X129818333Y-42150000D01*
X129865952Y-42245238D01*
X129865952Y-42388095D01*
X129913571Y-42483333D01*
X130008809Y-42530952D01*
X130056428Y-42530952D01*
X130151666Y-42483333D01*
X130199285Y-42388095D01*
X130199285Y-42245238D01*
X130151666Y-42150000D01*
X129532619Y-41673809D02*
X130532619Y-41673809D01*
X129532619Y-41245238D02*
X130056428Y-41245238D01*
X130151666Y-41292857D01*
X130199285Y-41388095D01*
X130199285Y-41530952D01*
X130151666Y-41626190D01*
X130104047Y-41673809D01*
X129532619Y-40769047D02*
X130199285Y-40769047D01*
X130532619Y-40769047D02*
X130485000Y-40816666D01*
X130437380Y-40769047D01*
X130485000Y-40721428D01*
X130532619Y-40769047D01*
X130437380Y-40769047D01*
X129580238Y-39911904D02*
X129532619Y-40007142D01*
X129532619Y-40197619D01*
X129580238Y-40292857D01*
X129675476Y-40340476D01*
X130056428Y-40340476D01*
X130151666Y-40292857D01*
X130199285Y-40197619D01*
X130199285Y-40007142D01*
X130151666Y-39911904D01*
X130056428Y-39864285D01*
X129961190Y-39864285D01*
X129865952Y-40340476D01*
X129532619Y-39292857D02*
X129580238Y-39388095D01*
X129675476Y-39435714D01*
X130532619Y-39435714D01*
X129532619Y-38483333D02*
X130532619Y-38483333D01*
X129580238Y-38483333D02*
X129532619Y-38578571D01*
X129532619Y-38769047D01*
X129580238Y-38864285D01*
X129627857Y-38911904D01*
X129723095Y-38959523D01*
X130008809Y-38959523D01*
X130104047Y-38911904D01*
X130151666Y-38864285D01*
X130199285Y-38769047D01*
X130199285Y-38578571D01*
X130151666Y-38483333D01*
D11*
X148530000Y-44510000D02*
X148530000Y-41850000D01*
X156210000Y-44510000D02*
X148530000Y-44510000D01*
X156210000Y-41850000D02*
X148530000Y-41850000D01*
X156210000Y-44510000D02*
X156210000Y-41850000D01*
X157480000Y-44510000D02*
X158810000Y-44510000D01*
X158810000Y-44510000D02*
X158810000Y-43180000D01*
X176470000Y-41850000D02*
X179130000Y-41850000D01*
X176470000Y-41910000D02*
X176470000Y-41850000D01*
X179130000Y-41910000D02*
X179130000Y-41850000D01*
X176470000Y-41910000D02*
X179130000Y-41910000D01*
X176470000Y-43180000D02*
X176470000Y-44510000D01*
X176470000Y-44510000D02*
X177800000Y-44510000D01*
X204410000Y-44510000D02*
X204410000Y-41850000D01*
X207010000Y-44510000D02*
X204410000Y-44510000D01*
X207010000Y-41850000D02*
X204410000Y-41850000D01*
X207010000Y-44510000D02*
X207010000Y-41850000D01*
X208280000Y-44510000D02*
X209610000Y-44510000D01*
X209610000Y-44510000D02*
X209610000Y-43180000D01*
X153730000Y-64830000D02*
X153730000Y-63500000D01*
X152400000Y-64830000D02*
X153730000Y-64830000D01*
X151130000Y-64830000D02*
X151130000Y-62170000D01*
X151130000Y-62170000D02*
X148530000Y-62170000D01*
X151130000Y-64830000D02*
X148530000Y-64830000D01*
X148530000Y-64830000D02*
X148530000Y-62170000D01*
X166310000Y-64830000D02*
X167640000Y-64830000D01*
X166310000Y-63500000D02*
X166310000Y-64830000D01*
X166310000Y-62230000D02*
X168970000Y-62230000D01*
X168970000Y-62230000D02*
X168970000Y-62170000D01*
X166310000Y-62230000D02*
X166310000Y-62170000D01*
X166310000Y-62170000D02*
X168970000Y-62170000D01*
X189170000Y-64830000D02*
X189170000Y-62170000D01*
X209550000Y-64830000D02*
X189170000Y-64830000D01*
X209550000Y-62170000D02*
X189170000Y-62170000D01*
X209550000Y-64830000D02*
X209550000Y-62170000D01*
X210820000Y-64830000D02*
X212150000Y-64830000D01*
X212150000Y-64830000D02*
X212150000Y-63500000D01*
X184090000Y-44510000D02*
X184090000Y-41850000D01*
X199390000Y-44510000D02*
X184090000Y-44510000D01*
X199390000Y-41850000D02*
X184090000Y-41850000D01*
X199390000Y-44510000D02*
X199390000Y-41850000D01*
X200660000Y-44510000D02*
X201990000Y-44510000D01*
X201990000Y-44510000D02*
X201990000Y-43180000D01*
D10*
X150193333Y-42632380D02*
X150193333Y-43346666D01*
X150240952Y-43489523D01*
X150336190Y-43584761D01*
X150479047Y-43632380D01*
X150574285Y-43632380D01*
X149193333Y-43632380D02*
X149764761Y-43632380D01*
X149479047Y-43632380D02*
X149479047Y-42632380D01*
X149574285Y-42775238D01*
X149669523Y-42870476D01*
X149764761Y-42918095D01*
X175593333Y-40092380D02*
X175593333Y-40806666D01*
X175640952Y-40949523D01*
X175736190Y-41044761D01*
X175879047Y-41092380D01*
X175974285Y-41092380D01*
X175164761Y-40187619D02*
X175117142Y-40140000D01*
X175021904Y-40092380D01*
X174783809Y-40092380D01*
X174688571Y-40140000D01*
X174640952Y-40187619D01*
X174593333Y-40282857D01*
X174593333Y-40378095D01*
X174640952Y-40520952D01*
X175212380Y-41092380D01*
X174593333Y-41092380D01*
X210062380Y-42846666D02*
X210776666Y-42846666D01*
X210919523Y-42799047D01*
X211014761Y-42703809D01*
X211062380Y-42560952D01*
X211062380Y-42465714D01*
X210395714Y-43751428D02*
X211062380Y-43751428D01*
X210014761Y-43513333D02*
X210729047Y-43275238D01*
X210729047Y-43894285D01*
X155273333Y-65492380D02*
X155273333Y-66206666D01*
X155320952Y-66349523D01*
X155416190Y-66444761D01*
X155559047Y-66492380D01*
X155654285Y-66492380D01*
X154320952Y-65492380D02*
X154797142Y-65492380D01*
X154844761Y-65968571D01*
X154797142Y-65920952D01*
X154701904Y-65873333D01*
X154463809Y-65873333D01*
X154368571Y-65920952D01*
X154320952Y-65968571D01*
X154273333Y-66063809D01*
X154273333Y-66301904D01*
X154320952Y-66397142D01*
X154368571Y-66444761D01*
X154463809Y-66492380D01*
X154701904Y-66492380D01*
X154797142Y-66444761D01*
X154844761Y-66397142D01*
X167973333Y-65282380D02*
X167973333Y-65996666D01*
X168020952Y-66139523D01*
X168116190Y-66234761D01*
X168259047Y-66282380D01*
X168354285Y-66282380D01*
X167068571Y-65282380D02*
X167259047Y-65282380D01*
X167354285Y-65330000D01*
X167401904Y-65377619D01*
X167497142Y-65520476D01*
X167544761Y-65710952D01*
X167544761Y-66091904D01*
X167497142Y-66187142D01*
X167449523Y-66234761D01*
X167354285Y-66282380D01*
X167163809Y-66282380D01*
X167068571Y-66234761D01*
X167020952Y-66187142D01*
X166973333Y-66091904D01*
X166973333Y-65853809D01*
X167020952Y-65758571D01*
X167068571Y-65710952D01*
X167163809Y-65663333D01*
X167354285Y-65663333D01*
X167449523Y-65710952D01*
X167497142Y-65758571D01*
X167544761Y-65853809D01*
X198453333Y-65492380D02*
X198453333Y-66206666D01*
X198500952Y-66349523D01*
X198596190Y-66444761D01*
X198739047Y-66492380D01*
X198834285Y-66492380D01*
X198072380Y-65492380D02*
X197405714Y-65492380D01*
X197834285Y-66492380D01*
X202442380Y-42846666D02*
X203156666Y-42846666D01*
X203299523Y-42799047D01*
X203394761Y-42703809D01*
X203442380Y-42560952D01*
X203442380Y-42465714D01*
X202442380Y-43227619D02*
X202442380Y-43846666D01*
X202823333Y-43513333D01*
X202823333Y-43656190D01*
X202870952Y-43751428D01*
X202918571Y-43799047D01*
X203013809Y-43846666D01*
X203251904Y-43846666D01*
X203347142Y-43799047D01*
X203394761Y-43751428D01*
X203442380Y-43656190D01*
X203442380Y-43370476D01*
X203394761Y-43275238D01*
X203347142Y-43227619D01*
M02*
