M48
; DRILL file {KiCad (5.1.0-0)} date 2019 March 28, Thursday 17:17:15
; FORMAT={-:-/ absolute / inch / decimal}
; #@! TF.CreationDate,2019-03-28T17:17:15+01:00
; #@! TF.GenerationSoftware,Kicad,Pcbnew,(5.1.0-0)
; #@! TF.FileFunction,Plated,1,2,PTH
FMAT,2
INCH
T1C0.0157
T2C0.0240
T3C0.0295
T4C0.0315
T5C0.0354
T6C0.0394
T7C0.0433
T8C0.0512
%
G90
G05
T1
X7.3138Y-2.5069
X8.1Y-1.9
T2
X8.12Y-3.02
X8.12Y-3.42
X8.22Y-3.02
X8.22Y-3.42
X8.32Y-3.02
X8.32Y-3.42
X8.42Y-3.02
X8.42Y-3.42
X8.52Y-3.02
X8.52Y-3.42
T3
X8.4Y-1.2
X8.45Y-1.15
X8.45Y-1.25
X8.05Y-1.2
X8.1Y-1.15
X8.1Y-1.25
T4
X8.08Y-1.98
X8.38Y-1.98
X6.58Y-2.52
X6.88Y-2.52
X7.08Y-2.16
X7.58Y-2.52
X7.88Y-2.52
X6.08Y-2.34
X6.38Y-2.34
X6.58Y-1.98
X6.88Y-1.98
X6.05Y-1.15
X6.05Y-1.45
X6.15Y-1.15
X6.15Y-1.45
X6.25Y-1.15
X6.25Y-1.45
X6.35Y-1.15
X6.35Y-1.45
X7.38Y-2.16
X6.08Y-1.98
X6.38Y-1.98
X7.08Y-2.34
X7.38Y-2.34
X7.58Y-1.98
X7.88Y-1.98
X8.08Y-2.16
X8.38Y-2.16
X7.8Y-1.15
X7.8Y-1.45
X8.35Y-1.45
X8.65Y-1.45
X6.58Y-2.34
X6.88Y-2.34
X7.58Y-2.34
X6.08Y-2.16
X6.38Y-2.16
X7.58Y-2.16
X7.88Y-2.16
X6.58Y-2.16
X6.88Y-2.16
X7.88Y-2.34
X5.94Y-3.02
X5.94Y-3.32
X6.04Y-3.02
X6.04Y-3.32
X6.14Y-3.02
X6.14Y-3.32
X6.24Y-3.02
X6.24Y-3.32
X5.725Y-1.2516
X5.725Y-1.35
X8.08Y-2.34
X8.38Y-2.34
X6.08Y-2.52
X6.38Y-2.52
X7.95Y-1.45
X8.25Y-1.45
X7.6Y-1.15
X7.6Y-1.45
X7.08Y-2.52
X7.38Y-2.52
X8.08Y-2.52
X8.38Y-2.52
X7.08Y-1.98
X7.38Y-1.98
T5
X7.0Y-3.02
X7.0Y-3.12
X7.34Y-3.02
X7.34Y-3.12
X6.66Y-3.02
X6.66Y-3.12
X7.66Y-3.02
X7.66Y-3.12
T6
X7.0Y-1.7
X5.9Y-1.7
X6.0Y-1.7
X6.1Y-1.7
X6.2Y-1.7
X6.6Y-2.8
X5.9Y-2.7
X6.0Y-2.7
X6.1Y-2.7
X6.2Y-2.7
X6.3Y-2.7
X6.4Y-2.7
X6.5Y-2.7
X6.6Y-2.7
X6.7Y-2.7
X6.8Y-2.7
X6.9Y-2.7
X7.0Y-2.7
X7.1Y-2.7
X7.2Y-2.7
X7.3Y-2.7
X7.4Y-2.7
X7.5Y-2.7
X7.6Y-2.7
X7.7Y-2.7
X7.8Y-2.7
X7.9Y-2.7
X8.0Y-2.7
X8.1Y-2.7
X8.2Y-2.7
X8.3Y-2.7
X8.4Y-2.7
X8.5Y-2.7
X8.6Y-2.7
X5.9Y-2.8
X6.0Y-2.8
X7.3Y-1.7
X7.4Y-1.7
X7.5Y-1.7
X7.6Y-1.7
X7.7Y-1.7
X7.8Y-1.7
X7.9Y-1.7
X7.5Y-2.8
X7.6Y-2.8
X7.7Y-2.8
X7.8Y-2.8
X7.9Y-2.8
X8.0Y-2.8
X8.1Y-2.8
X8.2Y-2.8
X8.3Y-2.8
X5.9Y-1.8
X6.0Y-1.8
X6.1Y-1.8
X6.2Y-1.8
X6.3Y-1.8
X6.4Y-1.8
X6.5Y-1.8
X6.6Y-1.8
X6.7Y-1.8
X6.8Y-1.8
X6.9Y-1.8
X7.0Y-1.8
X7.1Y-1.8
X7.2Y-1.8
X7.3Y-1.8
X7.4Y-1.8
X7.5Y-1.8
X7.6Y-1.8
X7.7Y-1.8
X7.8Y-1.8
X7.9Y-1.8
X8.0Y-1.8
X8.1Y-1.8
X8.2Y-1.8
X8.3Y-1.8
X8.4Y-1.8
X8.5Y-1.8
X8.6Y-1.8
X8.1Y-1.7
X8.2Y-1.7
T7
X7.35Y-1.1661
X7.35Y-1.2331
X7.35Y-1.3
X7.35Y-1.3669
X7.35Y-1.4339
T8
X5.1813Y-3.42
X5.3781Y-2.8294
X5.575Y-3.42
T0
M30
