G04 #@! TF.GenerationSoftware,KiCad,Pcbnew,(5.1.0-0)*
G04 #@! TF.CreationDate,2019-05-29T17:03:09+02:00*
G04 #@! TF.ProjectId,ac2-detpic-shield,6163322d-6465-4747-9069-632d73686965,rev?*
G04 #@! TF.SameCoordinates,Original*
G04 #@! TF.FileFunction,Other,Fab,Bot*
%FSLAX46Y46*%
G04 Gerber Fmt 4.6, Leading zero omitted, Abs format (unit mm)*
G04 Created by KiCad (PCBNEW (5.1.0-0)) date 2019-05-29 17:03:09*
%MOMM*%
%LPD*%
G04 APERTURE LIST*
%ADD10C,0.100000*%
%ADD11C,0.150000*%
G04 APERTURE END LIST*
D10*
X158750000Y-43815000D02*
X158750000Y-41910000D01*
X158750000Y-41910000D02*
X148590000Y-41910000D01*
X148590000Y-41910000D02*
X148590000Y-44450000D01*
X148590000Y-44450000D02*
X158115000Y-44450000D01*
X158115000Y-44450000D02*
X158750000Y-43815000D01*
X177165000Y-44450000D02*
X179070000Y-44450000D01*
X179070000Y-44450000D02*
X179070000Y-41910000D01*
X179070000Y-41910000D02*
X176530000Y-41910000D01*
X176530000Y-41910000D02*
X176530000Y-43815000D01*
X176530000Y-43815000D02*
X177165000Y-44450000D01*
X209550000Y-43815000D02*
X209550000Y-41910000D01*
X209550000Y-41910000D02*
X204470000Y-41910000D01*
X204470000Y-41910000D02*
X204470000Y-44450000D01*
X204470000Y-44450000D02*
X208915000Y-44450000D01*
X208915000Y-44450000D02*
X209550000Y-43815000D01*
X153035000Y-72390000D02*
X153670000Y-71755000D01*
X148590000Y-72390000D02*
X153035000Y-72390000D01*
X148590000Y-69850000D02*
X148590000Y-72390000D01*
X153670000Y-69850000D02*
X148590000Y-69850000D01*
X153670000Y-71755000D02*
X153670000Y-69850000D01*
X166370000Y-71755000D02*
X167005000Y-72390000D01*
X166370000Y-69850000D02*
X166370000Y-71755000D01*
X168910000Y-69850000D02*
X166370000Y-69850000D01*
X168910000Y-72390000D02*
X168910000Y-69850000D01*
X167005000Y-72390000D02*
X168910000Y-72390000D01*
X212090000Y-71755000D02*
X212090000Y-69850000D01*
X212090000Y-69850000D02*
X189230000Y-69850000D01*
X189230000Y-69850000D02*
X189230000Y-72390000D01*
X189230000Y-72390000D02*
X211455000Y-72390000D01*
X211455000Y-72390000D02*
X212090000Y-71755000D01*
X201930000Y-43815000D02*
X201930000Y-41910000D01*
X201930000Y-41910000D02*
X184150000Y-41910000D01*
X184150000Y-41910000D02*
X184150000Y-44450000D01*
X184150000Y-44450000D02*
X201295000Y-44450000D01*
X201295000Y-44450000D02*
X201930000Y-43815000D01*
D11*
X160099047Y-41092380D02*
X160099047Y-40092380D01*
X160099047Y-40568571D02*
X159527619Y-40568571D01*
X159527619Y-41092380D02*
X159527619Y-40092380D01*
X159051428Y-40568571D02*
X158718095Y-40568571D01*
X158575238Y-41092380D02*
X159051428Y-41092380D01*
X159051428Y-40092380D01*
X158575238Y-40092380D01*
X158194285Y-40806666D02*
X157718095Y-40806666D01*
X158289523Y-41092380D02*
X157956190Y-40092380D01*
X157622857Y-41092380D01*
X157289523Y-41092380D02*
X157289523Y-40092380D01*
X157051428Y-40092380D01*
X156908571Y-40140000D01*
X156813333Y-40235238D01*
X156765714Y-40330476D01*
X156718095Y-40520952D01*
X156718095Y-40663809D01*
X156765714Y-40854285D01*
X156813333Y-40949523D01*
X156908571Y-41044761D01*
X157051428Y-41092380D01*
X157289523Y-41092380D01*
X156289523Y-40568571D02*
X155956190Y-40568571D01*
X155813333Y-41092380D02*
X156289523Y-41092380D01*
X156289523Y-40092380D01*
X155813333Y-40092380D01*
X154813333Y-41092380D02*
X155146666Y-40616190D01*
X155384761Y-41092380D02*
X155384761Y-40092380D01*
X155003809Y-40092380D01*
X154908571Y-40140000D01*
X154860952Y-40187619D01*
X154813333Y-40282857D01*
X154813333Y-40425714D01*
X154860952Y-40520952D01*
X154908571Y-40568571D01*
X155003809Y-40616190D01*
X155384761Y-40616190D01*
X152733333Y-40092380D02*
X152733333Y-40806666D01*
X152780952Y-40949523D01*
X152876190Y-41044761D01*
X153019047Y-41092380D01*
X153114285Y-41092380D01*
X151733333Y-41092380D02*
X152304761Y-41092380D01*
X152019047Y-41092380D02*
X152019047Y-40092380D01*
X152114285Y-40235238D01*
X152209523Y-40330476D01*
X152304761Y-40378095D01*
X182324047Y-41092380D02*
X182324047Y-40092380D01*
X182324047Y-40568571D02*
X181752619Y-40568571D01*
X181752619Y-41092380D02*
X181752619Y-40092380D01*
X181276428Y-40568571D02*
X180943095Y-40568571D01*
X180800238Y-41092380D02*
X181276428Y-41092380D01*
X181276428Y-40092380D01*
X180800238Y-40092380D01*
X180419285Y-40806666D02*
X179943095Y-40806666D01*
X180514523Y-41092380D02*
X180181190Y-40092380D01*
X179847857Y-41092380D01*
X179514523Y-41092380D02*
X179514523Y-40092380D01*
X179276428Y-40092380D01*
X179133571Y-40140000D01*
X179038333Y-40235238D01*
X178990714Y-40330476D01*
X178943095Y-40520952D01*
X178943095Y-40663809D01*
X178990714Y-40854285D01*
X179038333Y-40949523D01*
X179133571Y-41044761D01*
X179276428Y-41092380D01*
X179514523Y-41092380D01*
X178514523Y-40568571D02*
X178181190Y-40568571D01*
X178038333Y-41092380D02*
X178514523Y-41092380D01*
X178514523Y-40092380D01*
X178038333Y-40092380D01*
X177038333Y-41092380D02*
X177371666Y-40616190D01*
X177609761Y-41092380D02*
X177609761Y-40092380D01*
X177228809Y-40092380D01*
X177133571Y-40140000D01*
X177085952Y-40187619D01*
X177038333Y-40282857D01*
X177038333Y-40425714D01*
X177085952Y-40520952D01*
X177133571Y-40568571D01*
X177228809Y-40616190D01*
X177609761Y-40616190D01*
X178347619Y-43513333D02*
X177633333Y-43513333D01*
X177490476Y-43560952D01*
X177395238Y-43656190D01*
X177347619Y-43799047D01*
X177347619Y-43894285D01*
X178252380Y-43084761D02*
X178300000Y-43037142D01*
X178347619Y-42941904D01*
X178347619Y-42703809D01*
X178300000Y-42608571D01*
X178252380Y-42560952D01*
X178157142Y-42513333D01*
X178061904Y-42513333D01*
X177919047Y-42560952D01*
X177347619Y-43132380D01*
X177347619Y-42513333D01*
X207724047Y-41092380D02*
X207724047Y-40092380D01*
X207724047Y-40568571D02*
X207152619Y-40568571D01*
X207152619Y-41092380D02*
X207152619Y-40092380D01*
X206676428Y-40568571D02*
X206343095Y-40568571D01*
X206200238Y-41092380D02*
X206676428Y-41092380D01*
X206676428Y-40092380D01*
X206200238Y-40092380D01*
X205819285Y-40806666D02*
X205343095Y-40806666D01*
X205914523Y-41092380D02*
X205581190Y-40092380D01*
X205247857Y-41092380D01*
X204914523Y-41092380D02*
X204914523Y-40092380D01*
X204676428Y-40092380D01*
X204533571Y-40140000D01*
X204438333Y-40235238D01*
X204390714Y-40330476D01*
X204343095Y-40520952D01*
X204343095Y-40663809D01*
X204390714Y-40854285D01*
X204438333Y-40949523D01*
X204533571Y-41044761D01*
X204676428Y-41092380D01*
X204914523Y-41092380D01*
X203914523Y-40568571D02*
X203581190Y-40568571D01*
X203438333Y-41092380D02*
X203914523Y-41092380D01*
X203914523Y-40092380D01*
X203438333Y-40092380D01*
X202438333Y-41092380D02*
X202771666Y-40616190D01*
X203009761Y-41092380D02*
X203009761Y-40092380D01*
X202628809Y-40092380D01*
X202533571Y-40140000D01*
X202485952Y-40187619D01*
X202438333Y-40282857D01*
X202438333Y-40425714D01*
X202485952Y-40520952D01*
X202533571Y-40568571D01*
X202628809Y-40616190D01*
X203009761Y-40616190D01*
X211153333Y-40092380D02*
X211153333Y-40806666D01*
X211200952Y-40949523D01*
X211296190Y-41044761D01*
X211439047Y-41092380D01*
X211534285Y-41092380D01*
X210248571Y-40425714D02*
X210248571Y-41092380D01*
X210486666Y-40044761D02*
X210724761Y-40759047D01*
X210105714Y-40759047D01*
X155019047Y-74112380D02*
X155019047Y-73112380D01*
X155019047Y-73588571D02*
X154447619Y-73588571D01*
X154447619Y-74112380D02*
X154447619Y-73112380D01*
X153971428Y-73588571D02*
X153638095Y-73588571D01*
X153495238Y-74112380D02*
X153971428Y-74112380D01*
X153971428Y-73112380D01*
X153495238Y-73112380D01*
X153114285Y-73826666D02*
X152638095Y-73826666D01*
X153209523Y-74112380D02*
X152876190Y-73112380D01*
X152542857Y-74112380D01*
X152209523Y-74112380D02*
X152209523Y-73112380D01*
X151971428Y-73112380D01*
X151828571Y-73160000D01*
X151733333Y-73255238D01*
X151685714Y-73350476D01*
X151638095Y-73540952D01*
X151638095Y-73683809D01*
X151685714Y-73874285D01*
X151733333Y-73969523D01*
X151828571Y-74064761D01*
X151971428Y-74112380D01*
X152209523Y-74112380D01*
X151209523Y-73588571D02*
X150876190Y-73588571D01*
X150733333Y-74112380D02*
X151209523Y-74112380D01*
X151209523Y-73112380D01*
X150733333Y-73112380D01*
X149733333Y-74112380D02*
X150066666Y-73636190D01*
X150304761Y-74112380D02*
X150304761Y-73112380D01*
X149923809Y-73112380D01*
X149828571Y-73160000D01*
X149780952Y-73207619D01*
X149733333Y-73302857D01*
X149733333Y-73445714D01*
X149780952Y-73540952D01*
X149828571Y-73588571D01*
X149923809Y-73636190D01*
X150304761Y-73636190D01*
X155273333Y-73112380D02*
X155273333Y-73826666D01*
X155320952Y-73969523D01*
X155416190Y-74064761D01*
X155559047Y-74112380D01*
X155654285Y-74112380D01*
X154320952Y-73112380D02*
X154797142Y-73112380D01*
X154844761Y-73588571D01*
X154797142Y-73540952D01*
X154701904Y-73493333D01*
X154463809Y-73493333D01*
X154368571Y-73540952D01*
X154320952Y-73588571D01*
X154273333Y-73683809D01*
X154273333Y-73921904D01*
X154320952Y-74017142D01*
X154368571Y-74064761D01*
X154463809Y-74112380D01*
X154701904Y-74112380D01*
X154797142Y-74064761D01*
X154844761Y-74017142D01*
X167719047Y-74112380D02*
X167719047Y-73112380D01*
X167719047Y-73588571D02*
X167147619Y-73588571D01*
X167147619Y-74112380D02*
X167147619Y-73112380D01*
X166671428Y-73588571D02*
X166338095Y-73588571D01*
X166195238Y-74112380D02*
X166671428Y-74112380D01*
X166671428Y-73112380D01*
X166195238Y-73112380D01*
X165814285Y-73826666D02*
X165338095Y-73826666D01*
X165909523Y-74112380D02*
X165576190Y-73112380D01*
X165242857Y-74112380D01*
X164909523Y-74112380D02*
X164909523Y-73112380D01*
X164671428Y-73112380D01*
X164528571Y-73160000D01*
X164433333Y-73255238D01*
X164385714Y-73350476D01*
X164338095Y-73540952D01*
X164338095Y-73683809D01*
X164385714Y-73874285D01*
X164433333Y-73969523D01*
X164528571Y-74064761D01*
X164671428Y-74112380D01*
X164909523Y-74112380D01*
X163909523Y-73588571D02*
X163576190Y-73588571D01*
X163433333Y-74112380D02*
X163909523Y-74112380D01*
X163909523Y-73112380D01*
X163433333Y-73112380D01*
X162433333Y-74112380D02*
X162766666Y-73636190D01*
X163004761Y-74112380D02*
X163004761Y-73112380D01*
X162623809Y-73112380D01*
X162528571Y-73160000D01*
X162480952Y-73207619D01*
X162433333Y-73302857D01*
X162433333Y-73445714D01*
X162480952Y-73540952D01*
X162528571Y-73588571D01*
X162623809Y-73636190D01*
X163004761Y-73636190D01*
X168187619Y-71453333D02*
X167473333Y-71453333D01*
X167330476Y-71500952D01*
X167235238Y-71596190D01*
X167187619Y-71739047D01*
X167187619Y-71834285D01*
X168187619Y-70548571D02*
X168187619Y-70739047D01*
X168140000Y-70834285D01*
X168092380Y-70881904D01*
X167949523Y-70977142D01*
X167759047Y-71024761D01*
X167378095Y-71024761D01*
X167282857Y-70977142D01*
X167235238Y-70929523D01*
X167187619Y-70834285D01*
X167187619Y-70643809D01*
X167235238Y-70548571D01*
X167282857Y-70500952D01*
X167378095Y-70453333D01*
X167616190Y-70453333D01*
X167711428Y-70500952D01*
X167759047Y-70548571D01*
X167806666Y-70643809D01*
X167806666Y-70834285D01*
X167759047Y-70929523D01*
X167711428Y-70977142D01*
X167616190Y-71024761D01*
X193119047Y-74112380D02*
X193119047Y-73112380D01*
X193119047Y-73588571D02*
X192547619Y-73588571D01*
X192547619Y-74112380D02*
X192547619Y-73112380D01*
X192071428Y-73588571D02*
X191738095Y-73588571D01*
X191595238Y-74112380D02*
X192071428Y-74112380D01*
X192071428Y-73112380D01*
X191595238Y-73112380D01*
X191214285Y-73826666D02*
X190738095Y-73826666D01*
X191309523Y-74112380D02*
X190976190Y-73112380D01*
X190642857Y-74112380D01*
X190309523Y-74112380D02*
X190309523Y-73112380D01*
X190071428Y-73112380D01*
X189928571Y-73160000D01*
X189833333Y-73255238D01*
X189785714Y-73350476D01*
X189738095Y-73540952D01*
X189738095Y-73683809D01*
X189785714Y-73874285D01*
X189833333Y-73969523D01*
X189928571Y-74064761D01*
X190071428Y-74112380D01*
X190309523Y-74112380D01*
X189309523Y-73588571D02*
X188976190Y-73588571D01*
X188833333Y-74112380D02*
X189309523Y-74112380D01*
X189309523Y-73112380D01*
X188833333Y-73112380D01*
X187833333Y-74112380D02*
X188166666Y-73636190D01*
X188404761Y-74112380D02*
X188404761Y-73112380D01*
X188023809Y-73112380D01*
X187928571Y-73160000D01*
X187880952Y-73207619D01*
X187833333Y-73302857D01*
X187833333Y-73445714D01*
X187880952Y-73540952D01*
X187928571Y-73588571D01*
X188023809Y-73636190D01*
X188404761Y-73636190D01*
X200993333Y-70572380D02*
X200993333Y-71286666D01*
X201040952Y-71429523D01*
X201136190Y-71524761D01*
X201279047Y-71572380D01*
X201374285Y-71572380D01*
X200612380Y-70572380D02*
X199945714Y-70572380D01*
X200374285Y-71572380D01*
X183542380Y-40560952D02*
X182542380Y-40560952D01*
X183018571Y-40560952D02*
X183018571Y-41132380D01*
X183542380Y-41132380D02*
X182542380Y-41132380D01*
X183018571Y-41608571D02*
X183018571Y-41941904D01*
X183542380Y-42084761D02*
X183542380Y-41608571D01*
X182542380Y-41608571D01*
X182542380Y-42084761D01*
X183256666Y-42465714D02*
X183256666Y-42941904D01*
X183542380Y-42370476D02*
X182542380Y-42703809D01*
X183542380Y-43037142D01*
X183542380Y-43370476D02*
X182542380Y-43370476D01*
X182542380Y-43608571D01*
X182590000Y-43751428D01*
X182685238Y-43846666D01*
X182780476Y-43894285D01*
X182970952Y-43941904D01*
X183113809Y-43941904D01*
X183304285Y-43894285D01*
X183399523Y-43846666D01*
X183494761Y-43751428D01*
X183542380Y-43608571D01*
X183542380Y-43370476D01*
X183018571Y-44370476D02*
X183018571Y-44703809D01*
X183542380Y-44846666D02*
X183542380Y-44370476D01*
X182542380Y-44370476D01*
X182542380Y-44846666D01*
X183542380Y-45846666D02*
X183066190Y-45513333D01*
X183542380Y-45275238D02*
X182542380Y-45275238D01*
X182542380Y-45656190D01*
X182590000Y-45751428D01*
X182637619Y-45799047D01*
X182732857Y-45846666D01*
X182875714Y-45846666D01*
X182970952Y-45799047D01*
X183018571Y-45751428D01*
X183066190Y-45656190D01*
X183066190Y-45275238D01*
X193373333Y-42632380D02*
X193373333Y-43346666D01*
X193420952Y-43489523D01*
X193516190Y-43584761D01*
X193659047Y-43632380D01*
X193754285Y-43632380D01*
X192992380Y-42632380D02*
X192373333Y-42632380D01*
X192706666Y-43013333D01*
X192563809Y-43013333D01*
X192468571Y-43060952D01*
X192420952Y-43108571D01*
X192373333Y-43203809D01*
X192373333Y-43441904D01*
X192420952Y-43537142D01*
X192468571Y-43584761D01*
X192563809Y-43632380D01*
X192849523Y-43632380D01*
X192944761Y-43584761D01*
X192992380Y-43537142D01*
M02*
