G04 #@! TF.GenerationSoftware,KiCad,Pcbnew,(5.1.0)-1*
G04 #@! TF.CreationDate,2019-03-26T21:03:11+01:00*
G04 #@! TF.ProjectId,ac2-detpic-shield,6163322d-6465-4747-9069-632d73686965,rev?*
G04 #@! TF.SameCoordinates,Original*
G04 #@! TF.FileFunction,Soldermask,Bot*
G04 #@! TF.FilePolarity,Negative*
%FSLAX46Y46*%
G04 Gerber Fmt 4.6, Leading zero omitted, Abs format (unit mm)*
G04 Created by KiCad (PCBNEW (5.1.0)-1) date 2019-03-26 21:03:11*
%MOMM*%
%LPD*%
G04 APERTURE LIST*
%ADD10C,0.100000*%
G04 APERTURE END LIST*
D10*
G36*
X222474549Y-82691116D02*
G01*
X222585734Y-82713232D01*
X222795203Y-82799997D01*
X222983720Y-82925960D01*
X223144040Y-83086280D01*
X223270003Y-83274797D01*
X223356768Y-83484266D01*
X223401000Y-83706636D01*
X223401000Y-83933364D01*
X223356768Y-84155734D01*
X223270003Y-84365203D01*
X223144040Y-84553720D01*
X222983720Y-84714040D01*
X222795203Y-84840003D01*
X222585734Y-84926768D01*
X222474549Y-84948884D01*
X222363365Y-84971000D01*
X222136635Y-84971000D01*
X222025451Y-84948884D01*
X221914266Y-84926768D01*
X221704797Y-84840003D01*
X221516280Y-84714040D01*
X221355960Y-84553720D01*
X221229997Y-84365203D01*
X221143232Y-84155734D01*
X221099000Y-83933364D01*
X221099000Y-83706636D01*
X221143232Y-83484266D01*
X221229997Y-83274797D01*
X221355960Y-83086280D01*
X221516280Y-82925960D01*
X221704797Y-82799997D01*
X221914266Y-82713232D01*
X222025451Y-82691116D01*
X222136635Y-82669000D01*
X222363365Y-82669000D01*
X222474549Y-82691116D01*
X222474549Y-82691116D01*
G37*
G36*
X131034549Y-82691116D02*
G01*
X131145734Y-82713232D01*
X131355203Y-82799997D01*
X131543720Y-82925960D01*
X131704040Y-83086280D01*
X131830003Y-83274797D01*
X131916768Y-83484266D01*
X131961000Y-83706636D01*
X131961000Y-83933364D01*
X131916768Y-84155734D01*
X131830003Y-84365203D01*
X131704040Y-84553720D01*
X131543720Y-84714040D01*
X131355203Y-84840003D01*
X131145734Y-84926768D01*
X131034549Y-84948884D01*
X130923365Y-84971000D01*
X130696635Y-84971000D01*
X130585451Y-84948884D01*
X130474266Y-84926768D01*
X130264797Y-84840003D01*
X130076280Y-84714040D01*
X129915960Y-84553720D01*
X129789997Y-84365203D01*
X129703232Y-84155734D01*
X129659000Y-83933364D01*
X129659000Y-83706636D01*
X129703232Y-83484266D01*
X129789997Y-83274797D01*
X129915960Y-83086280D01*
X130076280Y-82925960D01*
X130264797Y-82799997D01*
X130474266Y-82713232D01*
X130585451Y-82691116D01*
X130696635Y-82669000D01*
X130923365Y-82669000D01*
X131034549Y-82691116D01*
X131034549Y-82691116D01*
G37*
G36*
X147201153Y-82010922D02*
G01*
X147293194Y-82049047D01*
X147423359Y-82102963D01*
X147623342Y-82236587D01*
X147793413Y-82406658D01*
X147927037Y-82606641D01*
X148019078Y-82828848D01*
X148066000Y-83064741D01*
X148066000Y-83305259D01*
X148019078Y-83541152D01*
X147927037Y-83763359D01*
X147793413Y-83963342D01*
X147623342Y-84133413D01*
X147423359Y-84267037D01*
X147293194Y-84320953D01*
X147201153Y-84359078D01*
X147170370Y-84365201D01*
X146965259Y-84406000D01*
X146724741Y-84406000D01*
X146519630Y-84365201D01*
X146488847Y-84359078D01*
X146396806Y-84320953D01*
X146266641Y-84267037D01*
X146066658Y-84133413D01*
X145896587Y-83963342D01*
X145762963Y-83763359D01*
X145670922Y-83541152D01*
X145624000Y-83305259D01*
X145624000Y-83064741D01*
X145670922Y-82828848D01*
X145762963Y-82606641D01*
X145896587Y-82406658D01*
X146066658Y-82236587D01*
X146266641Y-82102963D01*
X146396806Y-82049047D01*
X146488847Y-82010922D01*
X146724741Y-81964000D01*
X146965259Y-81964000D01*
X147201153Y-82010922D01*
X147201153Y-82010922D01*
G37*
G36*
X157201153Y-82010922D02*
G01*
X157293194Y-82049047D01*
X157423359Y-82102963D01*
X157623342Y-82236587D01*
X157793413Y-82406658D01*
X157927037Y-82606641D01*
X158019078Y-82828848D01*
X158066000Y-83064741D01*
X158066000Y-83305259D01*
X158019078Y-83541152D01*
X157927037Y-83763359D01*
X157793413Y-83963342D01*
X157623342Y-84133413D01*
X157423359Y-84267037D01*
X157293194Y-84320953D01*
X157201153Y-84359078D01*
X157170370Y-84365201D01*
X156965259Y-84406000D01*
X156724741Y-84406000D01*
X156519630Y-84365201D01*
X156488847Y-84359078D01*
X156396806Y-84320953D01*
X156266641Y-84267037D01*
X156066658Y-84133413D01*
X155896587Y-83963342D01*
X155762963Y-83763359D01*
X155670922Y-83541152D01*
X155624000Y-83305259D01*
X155624000Y-83064741D01*
X155670922Y-82828848D01*
X155762963Y-82606641D01*
X155896587Y-82406658D01*
X156066658Y-82236587D01*
X156266641Y-82102963D01*
X156396806Y-82049047D01*
X156488847Y-82010922D01*
X156724741Y-81964000D01*
X156965259Y-81964000D01*
X157201153Y-82010922D01*
X157201153Y-82010922D01*
G37*
G36*
X172124823Y-78409313D02*
G01*
X172285242Y-78457976D01*
X172369208Y-78502857D01*
X172433078Y-78536996D01*
X172562659Y-78643341D01*
X172669004Y-78772922D01*
X172669005Y-78772924D01*
X172748024Y-78920758D01*
X172796687Y-79081177D01*
X172813117Y-79248000D01*
X172796687Y-79414823D01*
X172748024Y-79575242D01*
X172677114Y-79707906D01*
X172669004Y-79723078D01*
X172562659Y-79852659D01*
X172433078Y-79959004D01*
X172433076Y-79959005D01*
X172285242Y-80038024D01*
X172124823Y-80086687D01*
X171999804Y-80099000D01*
X171916196Y-80099000D01*
X171791177Y-80086687D01*
X171630758Y-80038024D01*
X171482924Y-79959005D01*
X171482922Y-79959004D01*
X171353341Y-79852659D01*
X171246996Y-79723078D01*
X171238886Y-79707906D01*
X171167976Y-79575242D01*
X171119313Y-79414823D01*
X171102883Y-79248000D01*
X171119313Y-79081177D01*
X171167976Y-78920758D01*
X171246995Y-78772924D01*
X171246996Y-78772922D01*
X171353341Y-78643341D01*
X171482922Y-78536996D01*
X171546792Y-78502857D01*
X171630758Y-78457976D01*
X171791177Y-78409313D01*
X171916196Y-78397000D01*
X171999804Y-78397000D01*
X172124823Y-78409313D01*
X172124823Y-78409313D01*
G37*
G36*
X169584823Y-78409313D02*
G01*
X169745242Y-78457976D01*
X169829208Y-78502857D01*
X169893078Y-78536996D01*
X170022659Y-78643341D01*
X170129004Y-78772922D01*
X170129005Y-78772924D01*
X170208024Y-78920758D01*
X170256687Y-79081177D01*
X170273117Y-79248000D01*
X170256687Y-79414823D01*
X170208024Y-79575242D01*
X170137114Y-79707906D01*
X170129004Y-79723078D01*
X170022659Y-79852659D01*
X169893078Y-79959004D01*
X169893076Y-79959005D01*
X169745242Y-80038024D01*
X169584823Y-80086687D01*
X169459804Y-80099000D01*
X169376196Y-80099000D01*
X169251177Y-80086687D01*
X169090758Y-80038024D01*
X168942924Y-79959005D01*
X168942922Y-79959004D01*
X168813341Y-79852659D01*
X168706996Y-79723078D01*
X168698886Y-79707906D01*
X168627976Y-79575242D01*
X168579313Y-79414823D01*
X168562883Y-79248000D01*
X168579313Y-79081177D01*
X168627976Y-78920758D01*
X168706995Y-78772924D01*
X168706996Y-78772922D01*
X168813341Y-78643341D01*
X168942922Y-78536996D01*
X169006792Y-78502857D01*
X169090758Y-78457976D01*
X169251177Y-78409313D01*
X169376196Y-78397000D01*
X169459804Y-78397000D01*
X169584823Y-78409313D01*
X169584823Y-78409313D01*
G37*
G36*
X167044823Y-78409313D02*
G01*
X167205242Y-78457976D01*
X167289208Y-78502857D01*
X167353078Y-78536996D01*
X167482659Y-78643341D01*
X167589004Y-78772922D01*
X167589005Y-78772924D01*
X167668024Y-78920758D01*
X167716687Y-79081177D01*
X167733117Y-79248000D01*
X167716687Y-79414823D01*
X167668024Y-79575242D01*
X167597114Y-79707906D01*
X167589004Y-79723078D01*
X167482659Y-79852659D01*
X167353078Y-79959004D01*
X167353076Y-79959005D01*
X167205242Y-80038024D01*
X167044823Y-80086687D01*
X166919804Y-80099000D01*
X166836196Y-80099000D01*
X166711177Y-80086687D01*
X166550758Y-80038024D01*
X166402924Y-79959005D01*
X166402922Y-79959004D01*
X166273341Y-79852659D01*
X166166996Y-79723078D01*
X166158886Y-79707906D01*
X166087976Y-79575242D01*
X166039313Y-79414823D01*
X166022883Y-79248000D01*
X166039313Y-79081177D01*
X166087976Y-78920758D01*
X166166995Y-78772924D01*
X166166996Y-78772922D01*
X166273341Y-78643341D01*
X166402922Y-78536996D01*
X166466792Y-78502857D01*
X166550758Y-78457976D01*
X166711177Y-78409313D01*
X166836196Y-78397000D01*
X166919804Y-78397000D01*
X167044823Y-78409313D01*
X167044823Y-78409313D01*
G37*
G36*
X164504823Y-78409313D02*
G01*
X164665242Y-78457976D01*
X164749208Y-78502857D01*
X164813078Y-78536996D01*
X164942659Y-78643341D01*
X165049004Y-78772922D01*
X165049005Y-78772924D01*
X165128024Y-78920758D01*
X165176687Y-79081177D01*
X165193117Y-79248000D01*
X165176687Y-79414823D01*
X165128024Y-79575242D01*
X165057114Y-79707906D01*
X165049004Y-79723078D01*
X164942659Y-79852659D01*
X164813078Y-79959004D01*
X164813076Y-79959005D01*
X164665242Y-80038024D01*
X164504823Y-80086687D01*
X164379804Y-80099000D01*
X164296196Y-80099000D01*
X164171177Y-80086687D01*
X164010758Y-80038024D01*
X163862924Y-79959005D01*
X163862922Y-79959004D01*
X163733341Y-79852659D01*
X163626996Y-79723078D01*
X163618886Y-79707906D01*
X163547976Y-79575242D01*
X163499313Y-79414823D01*
X163482883Y-79248000D01*
X163499313Y-79081177D01*
X163547976Y-78920758D01*
X163626995Y-78772924D01*
X163626996Y-78772922D01*
X163733341Y-78643341D01*
X163862922Y-78536996D01*
X163926792Y-78502857D01*
X164010758Y-78457976D01*
X164171177Y-78409313D01*
X164296196Y-78397000D01*
X164379804Y-78397000D01*
X164504823Y-78409313D01*
X164504823Y-78409313D01*
G37*
G36*
X216137142Y-77958242D02*
G01*
X216285101Y-78019529D01*
X216418255Y-78108499D01*
X216531501Y-78221745D01*
X216620471Y-78354899D01*
X216681758Y-78502858D01*
X216713000Y-78659925D01*
X216713000Y-78820075D01*
X216681758Y-78977142D01*
X216620471Y-79125101D01*
X216531501Y-79258255D01*
X216418255Y-79371501D01*
X216285101Y-79460471D01*
X216137142Y-79521758D01*
X215980075Y-79553000D01*
X215819925Y-79553000D01*
X215662858Y-79521758D01*
X215514899Y-79460471D01*
X215381745Y-79371501D01*
X215268499Y-79258255D01*
X215179529Y-79125101D01*
X215118242Y-78977142D01*
X215087000Y-78820075D01*
X215087000Y-78659925D01*
X215118242Y-78502858D01*
X215179529Y-78354899D01*
X215268499Y-78221745D01*
X215381745Y-78108499D01*
X215514899Y-78019529D01*
X215662858Y-77958242D01*
X215819925Y-77927000D01*
X215980075Y-77927000D01*
X216137142Y-77958242D01*
X216137142Y-77958242D01*
G37*
G36*
X218677142Y-77958242D02*
G01*
X218825101Y-78019529D01*
X218958255Y-78108499D01*
X219071501Y-78221745D01*
X219160471Y-78354899D01*
X219221758Y-78502858D01*
X219253000Y-78659925D01*
X219253000Y-78820075D01*
X219221758Y-78977142D01*
X219160471Y-79125101D01*
X219071501Y-79258255D01*
X218958255Y-79371501D01*
X218825101Y-79460471D01*
X218677142Y-79521758D01*
X218520075Y-79553000D01*
X218359925Y-79553000D01*
X218202858Y-79521758D01*
X218054899Y-79460471D01*
X217921745Y-79371501D01*
X217808499Y-79258255D01*
X217719529Y-79125101D01*
X217658242Y-78977142D01*
X217627000Y-78820075D01*
X217627000Y-78659925D01*
X217658242Y-78502858D01*
X217719529Y-78354899D01*
X217808499Y-78221745D01*
X217921745Y-78108499D01*
X218054899Y-78019529D01*
X218202858Y-77958242D01*
X218359925Y-77927000D01*
X218520075Y-77927000D01*
X218677142Y-77958242D01*
X218677142Y-77958242D01*
G37*
G36*
X213597142Y-77958242D02*
G01*
X213745101Y-78019529D01*
X213878255Y-78108499D01*
X213991501Y-78221745D01*
X214080471Y-78354899D01*
X214141758Y-78502858D01*
X214173000Y-78659925D01*
X214173000Y-78820075D01*
X214141758Y-78977142D01*
X214080471Y-79125101D01*
X213991501Y-79258255D01*
X213878255Y-79371501D01*
X213745101Y-79460471D01*
X213597142Y-79521758D01*
X213440075Y-79553000D01*
X213279925Y-79553000D01*
X213122858Y-79521758D01*
X212974899Y-79460471D01*
X212841745Y-79371501D01*
X212728499Y-79258255D01*
X212639529Y-79125101D01*
X212578242Y-78977142D01*
X212547000Y-78820075D01*
X212547000Y-78659925D01*
X212578242Y-78502858D01*
X212639529Y-78354899D01*
X212728499Y-78221745D01*
X212841745Y-78108499D01*
X212974899Y-78019529D01*
X213122858Y-77958242D01*
X213279925Y-77927000D01*
X213440075Y-77927000D01*
X213597142Y-77958242D01*
X213597142Y-77958242D01*
G37*
G36*
X211057142Y-77958242D02*
G01*
X211205101Y-78019529D01*
X211338255Y-78108499D01*
X211451501Y-78221745D01*
X211540471Y-78354899D01*
X211601758Y-78502858D01*
X211633000Y-78659925D01*
X211633000Y-78820075D01*
X211601758Y-78977142D01*
X211540471Y-79125101D01*
X211451501Y-79258255D01*
X211338255Y-79371501D01*
X211205101Y-79460471D01*
X211057142Y-79521758D01*
X210900075Y-79553000D01*
X210739925Y-79553000D01*
X210582858Y-79521758D01*
X210434899Y-79460471D01*
X210301745Y-79371501D01*
X210188499Y-79258255D01*
X210099529Y-79125101D01*
X210038242Y-78977142D01*
X210007000Y-78820075D01*
X210007000Y-78659925D01*
X210038242Y-78502858D01*
X210099529Y-78354899D01*
X210188499Y-78221745D01*
X210301745Y-78108499D01*
X210434899Y-78019529D01*
X210582858Y-77958242D01*
X210739925Y-77927000D01*
X210900075Y-77927000D01*
X211057142Y-77958242D01*
X211057142Y-77958242D01*
G37*
G36*
X208517142Y-77958242D02*
G01*
X208665101Y-78019529D01*
X208798255Y-78108499D01*
X208911501Y-78221745D01*
X209000471Y-78354899D01*
X209061758Y-78502858D01*
X209093000Y-78659925D01*
X209093000Y-78820075D01*
X209061758Y-78977142D01*
X209000471Y-79125101D01*
X208911501Y-79258255D01*
X208798255Y-79371501D01*
X208665101Y-79460471D01*
X208517142Y-79521758D01*
X208360075Y-79553000D01*
X208199925Y-79553000D01*
X208042858Y-79521758D01*
X207894899Y-79460471D01*
X207761745Y-79371501D01*
X207648499Y-79258255D01*
X207559529Y-79125101D01*
X207498242Y-78977142D01*
X207467000Y-78820075D01*
X207467000Y-78659925D01*
X207498242Y-78502858D01*
X207559529Y-78354899D01*
X207648499Y-78221745D01*
X207761745Y-78108499D01*
X207894899Y-78019529D01*
X208042858Y-77958242D01*
X208199925Y-77927000D01*
X208360075Y-77927000D01*
X208517142Y-77958242D01*
X208517142Y-77958242D01*
G37*
G36*
X180021000Y-75119000D02*
G01*
X178119000Y-75119000D01*
X178119000Y-73217000D01*
X180021000Y-73217000D01*
X180021000Y-75119000D01*
X180021000Y-75119000D01*
G37*
G36*
X199833000Y-75119000D02*
G01*
X197931000Y-75119000D01*
X197931000Y-73217000D01*
X199833000Y-73217000D01*
X199833000Y-75119000D01*
X199833000Y-75119000D01*
G37*
G36*
X186625000Y-75119000D02*
G01*
X184723000Y-75119000D01*
X184723000Y-73217000D01*
X186625000Y-73217000D01*
X186625000Y-75119000D01*
X186625000Y-75119000D01*
G37*
G36*
X193229000Y-75119000D02*
G01*
X191327000Y-75119000D01*
X191327000Y-73217000D01*
X193229000Y-73217000D01*
X193229000Y-75119000D01*
X193229000Y-75119000D01*
G37*
G36*
X185951395Y-70713546D02*
G01*
X186124466Y-70785234D01*
X186130572Y-70789314D01*
X186280227Y-70889310D01*
X186412690Y-71021773D01*
X186465081Y-71100182D01*
X186516766Y-71177534D01*
X186588454Y-71350605D01*
X186625000Y-71534333D01*
X186625000Y-71721667D01*
X186588454Y-71905395D01*
X186516766Y-72078466D01*
X186516765Y-72078467D01*
X186412690Y-72234227D01*
X186280227Y-72366690D01*
X186203400Y-72418024D01*
X186124466Y-72470766D01*
X185951395Y-72542454D01*
X185767667Y-72579000D01*
X185580333Y-72579000D01*
X185396605Y-72542454D01*
X185223534Y-72470766D01*
X185144600Y-72418024D01*
X185067773Y-72366690D01*
X184935310Y-72234227D01*
X184831235Y-72078467D01*
X184831234Y-72078466D01*
X184759546Y-71905395D01*
X184723000Y-71721667D01*
X184723000Y-71534333D01*
X184759546Y-71350605D01*
X184831234Y-71177534D01*
X184882919Y-71100182D01*
X184935310Y-71021773D01*
X185067773Y-70889310D01*
X185217428Y-70789314D01*
X185223534Y-70785234D01*
X185396605Y-70713546D01*
X185580333Y-70677000D01*
X185767667Y-70677000D01*
X185951395Y-70713546D01*
X185951395Y-70713546D01*
G37*
G36*
X179347395Y-70713546D02*
G01*
X179520466Y-70785234D01*
X179526572Y-70789314D01*
X179676227Y-70889310D01*
X179808690Y-71021773D01*
X179861081Y-71100182D01*
X179912766Y-71177534D01*
X179984454Y-71350605D01*
X180021000Y-71534333D01*
X180021000Y-71721667D01*
X179984454Y-71905395D01*
X179912766Y-72078466D01*
X179912765Y-72078467D01*
X179808690Y-72234227D01*
X179676227Y-72366690D01*
X179599400Y-72418024D01*
X179520466Y-72470766D01*
X179347395Y-72542454D01*
X179163667Y-72579000D01*
X178976333Y-72579000D01*
X178792605Y-72542454D01*
X178619534Y-72470766D01*
X178540600Y-72418024D01*
X178463773Y-72366690D01*
X178331310Y-72234227D01*
X178227235Y-72078467D01*
X178227234Y-72078466D01*
X178155546Y-71905395D01*
X178119000Y-71721667D01*
X178119000Y-71534333D01*
X178155546Y-71350605D01*
X178227234Y-71177534D01*
X178278919Y-71100182D01*
X178331310Y-71021773D01*
X178463773Y-70889310D01*
X178613428Y-70789314D01*
X178619534Y-70785234D01*
X178792605Y-70713546D01*
X178976333Y-70677000D01*
X179163667Y-70677000D01*
X179347395Y-70713546D01*
X179347395Y-70713546D01*
G37*
G36*
X192555395Y-70713546D02*
G01*
X192728466Y-70785234D01*
X192734572Y-70789314D01*
X192884227Y-70889310D01*
X193016690Y-71021773D01*
X193069081Y-71100182D01*
X193120766Y-71177534D01*
X193192454Y-71350605D01*
X193229000Y-71534333D01*
X193229000Y-71721667D01*
X193192454Y-71905395D01*
X193120766Y-72078466D01*
X193120765Y-72078467D01*
X193016690Y-72234227D01*
X192884227Y-72366690D01*
X192807400Y-72418024D01*
X192728466Y-72470766D01*
X192555395Y-72542454D01*
X192371667Y-72579000D01*
X192184333Y-72579000D01*
X192000605Y-72542454D01*
X191827534Y-72470766D01*
X191748600Y-72418024D01*
X191671773Y-72366690D01*
X191539310Y-72234227D01*
X191435235Y-72078467D01*
X191435234Y-72078466D01*
X191363546Y-71905395D01*
X191327000Y-71721667D01*
X191327000Y-71534333D01*
X191363546Y-71350605D01*
X191435234Y-71177534D01*
X191486919Y-71100182D01*
X191539310Y-71021773D01*
X191671773Y-70889310D01*
X191821428Y-70789314D01*
X191827534Y-70785234D01*
X192000605Y-70713546D01*
X192184333Y-70677000D01*
X192371667Y-70677000D01*
X192555395Y-70713546D01*
X192555395Y-70713546D01*
G37*
G36*
X199159395Y-70713546D02*
G01*
X199332466Y-70785234D01*
X199338572Y-70789314D01*
X199488227Y-70889310D01*
X199620690Y-71021773D01*
X199673081Y-71100182D01*
X199724766Y-71177534D01*
X199796454Y-71350605D01*
X199833000Y-71534333D01*
X199833000Y-71721667D01*
X199796454Y-71905395D01*
X199724766Y-72078466D01*
X199724765Y-72078467D01*
X199620690Y-72234227D01*
X199488227Y-72366690D01*
X199411400Y-72418024D01*
X199332466Y-72470766D01*
X199159395Y-72542454D01*
X198975667Y-72579000D01*
X198788333Y-72579000D01*
X198604605Y-72542454D01*
X198431534Y-72470766D01*
X198352600Y-72418024D01*
X198275773Y-72366690D01*
X198143310Y-72234227D01*
X198039235Y-72078467D01*
X198039234Y-72078466D01*
X197967546Y-71905395D01*
X197931000Y-71721667D01*
X197931000Y-71534333D01*
X197967546Y-71350605D01*
X198039234Y-71177534D01*
X198090919Y-71100182D01*
X198143310Y-71021773D01*
X198275773Y-70889310D01*
X198425428Y-70789314D01*
X198431534Y-70785234D01*
X198604605Y-70713546D01*
X198788333Y-70677000D01*
X198975667Y-70677000D01*
X199159395Y-70713546D01*
X199159395Y-70713546D01*
G37*
G36*
X172809000Y-72479000D02*
G01*
X171107000Y-72479000D01*
X171107000Y-70777000D01*
X172809000Y-70777000D01*
X172809000Y-72479000D01*
X172809000Y-72479000D01*
G37*
G36*
X169584823Y-70789313D02*
G01*
X169745242Y-70837976D01*
X169841279Y-70889309D01*
X169893078Y-70916996D01*
X170022659Y-71023341D01*
X170129004Y-71152922D01*
X170129005Y-71152924D01*
X170208024Y-71300758D01*
X170256687Y-71461177D01*
X170273117Y-71628000D01*
X170256687Y-71794823D01*
X170208024Y-71955242D01*
X170142159Y-72078466D01*
X170129004Y-72103078D01*
X170022659Y-72232659D01*
X169893078Y-72339004D01*
X169893076Y-72339005D01*
X169745242Y-72418024D01*
X169584823Y-72466687D01*
X169459804Y-72479000D01*
X169376196Y-72479000D01*
X169251177Y-72466687D01*
X169090758Y-72418024D01*
X168942924Y-72339005D01*
X168942922Y-72339004D01*
X168813341Y-72232659D01*
X168706996Y-72103078D01*
X168693841Y-72078466D01*
X168627976Y-71955242D01*
X168579313Y-71794823D01*
X168562883Y-71628000D01*
X168579313Y-71461177D01*
X168627976Y-71300758D01*
X168706995Y-71152924D01*
X168706996Y-71152922D01*
X168813341Y-71023341D01*
X168942922Y-70916996D01*
X168994721Y-70889309D01*
X169090758Y-70837976D01*
X169251177Y-70789313D01*
X169376196Y-70777000D01*
X169459804Y-70777000D01*
X169584823Y-70789313D01*
X169584823Y-70789313D01*
G37*
G36*
X167044823Y-70789313D02*
G01*
X167205242Y-70837976D01*
X167301279Y-70889309D01*
X167353078Y-70916996D01*
X167482659Y-71023341D01*
X167589004Y-71152922D01*
X167589005Y-71152924D01*
X167668024Y-71300758D01*
X167716687Y-71461177D01*
X167733117Y-71628000D01*
X167716687Y-71794823D01*
X167668024Y-71955242D01*
X167602159Y-72078466D01*
X167589004Y-72103078D01*
X167482659Y-72232659D01*
X167353078Y-72339004D01*
X167353076Y-72339005D01*
X167205242Y-72418024D01*
X167044823Y-72466687D01*
X166919804Y-72479000D01*
X166836196Y-72479000D01*
X166711177Y-72466687D01*
X166550758Y-72418024D01*
X166402924Y-72339005D01*
X166402922Y-72339004D01*
X166273341Y-72232659D01*
X166166996Y-72103078D01*
X166153841Y-72078466D01*
X166087976Y-71955242D01*
X166039313Y-71794823D01*
X166022883Y-71628000D01*
X166039313Y-71461177D01*
X166087976Y-71300758D01*
X166166995Y-71152924D01*
X166166996Y-71152922D01*
X166273341Y-71023341D01*
X166402922Y-70916996D01*
X166454721Y-70889309D01*
X166550758Y-70837976D01*
X166711177Y-70789313D01*
X166836196Y-70777000D01*
X166919804Y-70777000D01*
X167044823Y-70789313D01*
X167044823Y-70789313D01*
G37*
G36*
X164504823Y-70789313D02*
G01*
X164665242Y-70837976D01*
X164761279Y-70889309D01*
X164813078Y-70916996D01*
X164942659Y-71023341D01*
X165049004Y-71152922D01*
X165049005Y-71152924D01*
X165128024Y-71300758D01*
X165176687Y-71461177D01*
X165193117Y-71628000D01*
X165176687Y-71794823D01*
X165128024Y-71955242D01*
X165062159Y-72078466D01*
X165049004Y-72103078D01*
X164942659Y-72232659D01*
X164813078Y-72339004D01*
X164813076Y-72339005D01*
X164665242Y-72418024D01*
X164504823Y-72466687D01*
X164379804Y-72479000D01*
X164296196Y-72479000D01*
X164171177Y-72466687D01*
X164010758Y-72418024D01*
X163862924Y-72339005D01*
X163862922Y-72339004D01*
X163733341Y-72232659D01*
X163626996Y-72103078D01*
X163613841Y-72078466D01*
X163547976Y-71955242D01*
X163499313Y-71794823D01*
X163482883Y-71628000D01*
X163499313Y-71461177D01*
X163547976Y-71300758D01*
X163626995Y-71152924D01*
X163626996Y-71152922D01*
X163733341Y-71023341D01*
X163862922Y-70916996D01*
X163914721Y-70889309D01*
X164010758Y-70837976D01*
X164171177Y-70789313D01*
X164296196Y-70777000D01*
X164379804Y-70777000D01*
X164504823Y-70789313D01*
X164504823Y-70789313D01*
G37*
G36*
X152201153Y-67010922D02*
G01*
X152293194Y-67049047D01*
X152423359Y-67102963D01*
X152623342Y-67236587D01*
X152793413Y-67406658D01*
X152927037Y-67606641D01*
X153019078Y-67828848D01*
X153066000Y-68064741D01*
X153066000Y-68305259D01*
X153019078Y-68541152D01*
X152927037Y-68763359D01*
X152793413Y-68963342D01*
X152623342Y-69133413D01*
X152423359Y-69267037D01*
X152342642Y-69300471D01*
X152201153Y-69359078D01*
X152083205Y-69382539D01*
X151965259Y-69406000D01*
X151724741Y-69406000D01*
X151606795Y-69382539D01*
X151488847Y-69359078D01*
X151347358Y-69300471D01*
X151266641Y-69267037D01*
X151066658Y-69133413D01*
X150896587Y-68963342D01*
X150762963Y-68763359D01*
X150670922Y-68541152D01*
X150624000Y-68305259D01*
X150624000Y-68064741D01*
X150670922Y-67828848D01*
X150762963Y-67606641D01*
X150896587Y-67406658D01*
X151066658Y-67236587D01*
X151266641Y-67102963D01*
X151396806Y-67049047D01*
X151488847Y-67010922D01*
X151724741Y-66964000D01*
X151965259Y-66964000D01*
X152201153Y-67010922D01*
X152201153Y-67010922D01*
G37*
G36*
X213597142Y-67798242D02*
G01*
X213745101Y-67859529D01*
X213878255Y-67948499D01*
X213991501Y-68061745D01*
X214080471Y-68194899D01*
X214141758Y-68342858D01*
X214173000Y-68499925D01*
X214173000Y-68660075D01*
X214141758Y-68817142D01*
X214080471Y-68965101D01*
X213991501Y-69098255D01*
X213878255Y-69211501D01*
X213745101Y-69300471D01*
X213597142Y-69361758D01*
X213440075Y-69393000D01*
X213279925Y-69393000D01*
X213122858Y-69361758D01*
X212974899Y-69300471D01*
X212841745Y-69211501D01*
X212728499Y-69098255D01*
X212639529Y-68965101D01*
X212578242Y-68817142D01*
X212547000Y-68660075D01*
X212547000Y-68499925D01*
X212578242Y-68342858D01*
X212639529Y-68194899D01*
X212728499Y-68061745D01*
X212841745Y-67948499D01*
X212974899Y-67859529D01*
X213122858Y-67798242D01*
X213279925Y-67767000D01*
X213440075Y-67767000D01*
X213597142Y-67798242D01*
X213597142Y-67798242D01*
G37*
G36*
X209093000Y-69393000D02*
G01*
X207467000Y-69393000D01*
X207467000Y-67767000D01*
X209093000Y-67767000D01*
X209093000Y-69393000D01*
X209093000Y-69393000D01*
G37*
G36*
X211057142Y-67798242D02*
G01*
X211205101Y-67859529D01*
X211338255Y-67948499D01*
X211451501Y-68061745D01*
X211540471Y-68194899D01*
X211601758Y-68342858D01*
X211633000Y-68499925D01*
X211633000Y-68660075D01*
X211601758Y-68817142D01*
X211540471Y-68965101D01*
X211451501Y-69098255D01*
X211338255Y-69211501D01*
X211205101Y-69300471D01*
X211057142Y-69361758D01*
X210900075Y-69393000D01*
X210739925Y-69393000D01*
X210582858Y-69361758D01*
X210434899Y-69300471D01*
X210301745Y-69211501D01*
X210188499Y-69098255D01*
X210099529Y-68965101D01*
X210038242Y-68817142D01*
X210007000Y-68660075D01*
X210007000Y-68499925D01*
X210038242Y-68342858D01*
X210099529Y-68194899D01*
X210188499Y-68061745D01*
X210301745Y-67948499D01*
X210434899Y-67859529D01*
X210582858Y-67798242D01*
X210739925Y-67767000D01*
X210900075Y-67767000D01*
X211057142Y-67798242D01*
X211057142Y-67798242D01*
G37*
G36*
X216137142Y-67798242D02*
G01*
X216285101Y-67859529D01*
X216418255Y-67948499D01*
X216531501Y-68061745D01*
X216620471Y-68194899D01*
X216681758Y-68342858D01*
X216713000Y-68499925D01*
X216713000Y-68660075D01*
X216681758Y-68817142D01*
X216620471Y-68965101D01*
X216531501Y-69098255D01*
X216418255Y-69211501D01*
X216285101Y-69300471D01*
X216137142Y-69361758D01*
X215980075Y-69393000D01*
X215819925Y-69393000D01*
X215662858Y-69361758D01*
X215514899Y-69300471D01*
X215381745Y-69211501D01*
X215268499Y-69098255D01*
X215179529Y-68965101D01*
X215118242Y-68817142D01*
X215087000Y-68660075D01*
X215087000Y-68499925D01*
X215118242Y-68342858D01*
X215179529Y-68194899D01*
X215268499Y-68061745D01*
X215381745Y-67948499D01*
X215514899Y-67859529D01*
X215662858Y-67798242D01*
X215819925Y-67767000D01*
X215980075Y-67767000D01*
X216137142Y-67798242D01*
X216137142Y-67798242D01*
G37*
G36*
X218677142Y-67798242D02*
G01*
X218825101Y-67859529D01*
X218958255Y-67948499D01*
X219071501Y-68061745D01*
X219160471Y-68194899D01*
X219221758Y-68342858D01*
X219253000Y-68499925D01*
X219253000Y-68660075D01*
X219221758Y-68817142D01*
X219160471Y-68965101D01*
X219071501Y-69098255D01*
X218958255Y-69211501D01*
X218825101Y-69300471D01*
X218677142Y-69361758D01*
X218520075Y-69393000D01*
X218359925Y-69393000D01*
X218202858Y-69361758D01*
X218054899Y-69300471D01*
X217921745Y-69211501D01*
X217808499Y-69098255D01*
X217719529Y-68965101D01*
X217658242Y-68817142D01*
X217627000Y-68660075D01*
X217627000Y-68499925D01*
X217658242Y-68342858D01*
X217719529Y-68194899D01*
X217808499Y-68061745D01*
X217921745Y-67948499D01*
X218054899Y-67859529D01*
X218202858Y-67798242D01*
X218359925Y-67767000D01*
X218520075Y-67767000D01*
X218677142Y-67798242D01*
X218677142Y-67798242D01*
G37*
G36*
X200770442Y-62605518D02*
G01*
X200836627Y-62612037D01*
X201006466Y-62663557D01*
X201162991Y-62747222D01*
X201198729Y-62776552D01*
X201300186Y-62859814D01*
X201383448Y-62961271D01*
X201412778Y-62997009D01*
X201496443Y-63153534D01*
X201547963Y-63323373D01*
X201565359Y-63500000D01*
X201547963Y-63676627D01*
X201496443Y-63846466D01*
X201412778Y-64002991D01*
X201383448Y-64038729D01*
X201300186Y-64140186D01*
X201198729Y-64223448D01*
X201162991Y-64252778D01*
X201006466Y-64336443D01*
X200836627Y-64387963D01*
X200770442Y-64394482D01*
X200704260Y-64401000D01*
X200615740Y-64401000D01*
X200549558Y-64394482D01*
X200483373Y-64387963D01*
X200313534Y-64336443D01*
X200157009Y-64252778D01*
X200121271Y-64223448D01*
X200019814Y-64140186D01*
X199936552Y-64038729D01*
X199907222Y-64002991D01*
X199823557Y-63846466D01*
X199772037Y-63676627D01*
X199754641Y-63500000D01*
X199772037Y-63323373D01*
X199823557Y-63153534D01*
X199907222Y-62997009D01*
X199936552Y-62961271D01*
X200019814Y-62859814D01*
X200121271Y-62776552D01*
X200157009Y-62747222D01*
X200313534Y-62663557D01*
X200483373Y-62612037D01*
X200549558Y-62605518D01*
X200615740Y-62599000D01*
X200704260Y-62599000D01*
X200770442Y-62605518D01*
X200770442Y-62605518D01*
G37*
G36*
X203310442Y-62605518D02*
G01*
X203376627Y-62612037D01*
X203546466Y-62663557D01*
X203702991Y-62747222D01*
X203738729Y-62776552D01*
X203840186Y-62859814D01*
X203923448Y-62961271D01*
X203952778Y-62997009D01*
X204036443Y-63153534D01*
X204087963Y-63323373D01*
X204105359Y-63500000D01*
X204087963Y-63676627D01*
X204036443Y-63846466D01*
X203952778Y-64002991D01*
X203923448Y-64038729D01*
X203840186Y-64140186D01*
X203738729Y-64223448D01*
X203702991Y-64252778D01*
X203546466Y-64336443D01*
X203376627Y-64387963D01*
X203310442Y-64394482D01*
X203244260Y-64401000D01*
X203155740Y-64401000D01*
X203089558Y-64394482D01*
X203023373Y-64387963D01*
X202853534Y-64336443D01*
X202697009Y-64252778D01*
X202661271Y-64223448D01*
X202559814Y-64140186D01*
X202476552Y-64038729D01*
X202447222Y-64002991D01*
X202363557Y-63846466D01*
X202312037Y-63676627D01*
X202294641Y-63500000D01*
X202312037Y-63323373D01*
X202363557Y-63153534D01*
X202447222Y-62997009D01*
X202476552Y-62961271D01*
X202559814Y-62859814D01*
X202661271Y-62776552D01*
X202697009Y-62747222D01*
X202853534Y-62663557D01*
X203023373Y-62612037D01*
X203089558Y-62605518D01*
X203155740Y-62599000D01*
X203244260Y-62599000D01*
X203310442Y-62605518D01*
X203310442Y-62605518D01*
G37*
G36*
X190610442Y-62605518D02*
G01*
X190676627Y-62612037D01*
X190846466Y-62663557D01*
X191002991Y-62747222D01*
X191038729Y-62776552D01*
X191140186Y-62859814D01*
X191223448Y-62961271D01*
X191252778Y-62997009D01*
X191336443Y-63153534D01*
X191387963Y-63323373D01*
X191405359Y-63500000D01*
X191387963Y-63676627D01*
X191336443Y-63846466D01*
X191252778Y-64002991D01*
X191223448Y-64038729D01*
X191140186Y-64140186D01*
X191038729Y-64223448D01*
X191002991Y-64252778D01*
X190846466Y-64336443D01*
X190676627Y-64387963D01*
X190610442Y-64394482D01*
X190544260Y-64401000D01*
X190455740Y-64401000D01*
X190389558Y-64394482D01*
X190323373Y-64387963D01*
X190153534Y-64336443D01*
X189997009Y-64252778D01*
X189961271Y-64223448D01*
X189859814Y-64140186D01*
X189776552Y-64038729D01*
X189747222Y-64002991D01*
X189663557Y-63846466D01*
X189612037Y-63676627D01*
X189594641Y-63500000D01*
X189612037Y-63323373D01*
X189663557Y-63153534D01*
X189747222Y-62997009D01*
X189776552Y-62961271D01*
X189859814Y-62859814D01*
X189961271Y-62776552D01*
X189997009Y-62747222D01*
X190153534Y-62663557D01*
X190323373Y-62612037D01*
X190389558Y-62605518D01*
X190455740Y-62599000D01*
X190544260Y-62599000D01*
X190610442Y-62605518D01*
X190610442Y-62605518D01*
G37*
G36*
X195690442Y-62605518D02*
G01*
X195756627Y-62612037D01*
X195926466Y-62663557D01*
X196082991Y-62747222D01*
X196118729Y-62776552D01*
X196220186Y-62859814D01*
X196303448Y-62961271D01*
X196332778Y-62997009D01*
X196416443Y-63153534D01*
X196467963Y-63323373D01*
X196485359Y-63500000D01*
X196467963Y-63676627D01*
X196416443Y-63846466D01*
X196332778Y-64002991D01*
X196303448Y-64038729D01*
X196220186Y-64140186D01*
X196118729Y-64223448D01*
X196082991Y-64252778D01*
X195926466Y-64336443D01*
X195756627Y-64387963D01*
X195690442Y-64394482D01*
X195624260Y-64401000D01*
X195535740Y-64401000D01*
X195469558Y-64394482D01*
X195403373Y-64387963D01*
X195233534Y-64336443D01*
X195077009Y-64252778D01*
X195041271Y-64223448D01*
X194939814Y-64140186D01*
X194856552Y-64038729D01*
X194827222Y-64002991D01*
X194743557Y-63846466D01*
X194692037Y-63676627D01*
X194674641Y-63500000D01*
X194692037Y-63323373D01*
X194743557Y-63153534D01*
X194827222Y-62997009D01*
X194856552Y-62961271D01*
X194939814Y-62859814D01*
X195041271Y-62776552D01*
X195077009Y-62747222D01*
X195233534Y-62663557D01*
X195403373Y-62612037D01*
X195469558Y-62605518D01*
X195535740Y-62599000D01*
X195624260Y-62599000D01*
X195690442Y-62605518D01*
X195690442Y-62605518D01*
G37*
G36*
X193150442Y-62605518D02*
G01*
X193216627Y-62612037D01*
X193386466Y-62663557D01*
X193542991Y-62747222D01*
X193578729Y-62776552D01*
X193680186Y-62859814D01*
X193763448Y-62961271D01*
X193792778Y-62997009D01*
X193876443Y-63153534D01*
X193927963Y-63323373D01*
X193945359Y-63500000D01*
X193927963Y-63676627D01*
X193876443Y-63846466D01*
X193792778Y-64002991D01*
X193763448Y-64038729D01*
X193680186Y-64140186D01*
X193578729Y-64223448D01*
X193542991Y-64252778D01*
X193386466Y-64336443D01*
X193216627Y-64387963D01*
X193150442Y-64394482D01*
X193084260Y-64401000D01*
X192995740Y-64401000D01*
X192929558Y-64394482D01*
X192863373Y-64387963D01*
X192693534Y-64336443D01*
X192537009Y-64252778D01*
X192501271Y-64223448D01*
X192399814Y-64140186D01*
X192316552Y-64038729D01*
X192287222Y-64002991D01*
X192203557Y-63846466D01*
X192152037Y-63676627D01*
X192134641Y-63500000D01*
X192152037Y-63323373D01*
X192203557Y-63153534D01*
X192287222Y-62997009D01*
X192316552Y-62961271D01*
X192399814Y-62859814D01*
X192501271Y-62776552D01*
X192537009Y-62747222D01*
X192693534Y-62663557D01*
X192863373Y-62612037D01*
X192929558Y-62605518D01*
X192995740Y-62599000D01*
X193084260Y-62599000D01*
X193150442Y-62605518D01*
X193150442Y-62605518D01*
G37*
G36*
X149970442Y-62605518D02*
G01*
X150036627Y-62612037D01*
X150206466Y-62663557D01*
X150362991Y-62747222D01*
X150398729Y-62776552D01*
X150500186Y-62859814D01*
X150583448Y-62961271D01*
X150612778Y-62997009D01*
X150696443Y-63153534D01*
X150747963Y-63323373D01*
X150765359Y-63500000D01*
X150747963Y-63676627D01*
X150696443Y-63846466D01*
X150612778Y-64002991D01*
X150583448Y-64038729D01*
X150500186Y-64140186D01*
X150398729Y-64223448D01*
X150362991Y-64252778D01*
X150206466Y-64336443D01*
X150036627Y-64387963D01*
X149970442Y-64394482D01*
X149904260Y-64401000D01*
X149815740Y-64401000D01*
X149749558Y-64394482D01*
X149683373Y-64387963D01*
X149513534Y-64336443D01*
X149357009Y-64252778D01*
X149321271Y-64223448D01*
X149219814Y-64140186D01*
X149136552Y-64038729D01*
X149107222Y-64002991D01*
X149023557Y-63846466D01*
X148972037Y-63676627D01*
X148954641Y-63500000D01*
X148972037Y-63323373D01*
X149023557Y-63153534D01*
X149107222Y-62997009D01*
X149136552Y-62961271D01*
X149219814Y-62859814D01*
X149321271Y-62776552D01*
X149357009Y-62747222D01*
X149513534Y-62663557D01*
X149683373Y-62612037D01*
X149749558Y-62605518D01*
X149815740Y-62599000D01*
X149904260Y-62599000D01*
X149970442Y-62605518D01*
X149970442Y-62605518D01*
G37*
G36*
X153301000Y-64401000D02*
G01*
X151499000Y-64401000D01*
X151499000Y-62599000D01*
X153301000Y-62599000D01*
X153301000Y-64401000D01*
X153301000Y-64401000D01*
G37*
G36*
X168541000Y-64401000D02*
G01*
X166739000Y-64401000D01*
X166739000Y-62599000D01*
X168541000Y-62599000D01*
X168541000Y-64401000D01*
X168541000Y-64401000D01*
G37*
G36*
X211721000Y-64401000D02*
G01*
X209919000Y-64401000D01*
X209919000Y-62599000D01*
X211721000Y-62599000D01*
X211721000Y-64401000D01*
X211721000Y-64401000D01*
G37*
G36*
X208390442Y-62605518D02*
G01*
X208456627Y-62612037D01*
X208626466Y-62663557D01*
X208782991Y-62747222D01*
X208818729Y-62776552D01*
X208920186Y-62859814D01*
X209003448Y-62961271D01*
X209032778Y-62997009D01*
X209116443Y-63153534D01*
X209167963Y-63323373D01*
X209185359Y-63500000D01*
X209167963Y-63676627D01*
X209116443Y-63846466D01*
X209032778Y-64002991D01*
X209003448Y-64038729D01*
X208920186Y-64140186D01*
X208818729Y-64223448D01*
X208782991Y-64252778D01*
X208626466Y-64336443D01*
X208456627Y-64387963D01*
X208390442Y-64394482D01*
X208324260Y-64401000D01*
X208235740Y-64401000D01*
X208169558Y-64394482D01*
X208103373Y-64387963D01*
X207933534Y-64336443D01*
X207777009Y-64252778D01*
X207741271Y-64223448D01*
X207639814Y-64140186D01*
X207556552Y-64038729D01*
X207527222Y-64002991D01*
X207443557Y-63846466D01*
X207392037Y-63676627D01*
X207374641Y-63500000D01*
X207392037Y-63323373D01*
X207443557Y-63153534D01*
X207527222Y-62997009D01*
X207556552Y-62961271D01*
X207639814Y-62859814D01*
X207741271Y-62776552D01*
X207777009Y-62747222D01*
X207933534Y-62663557D01*
X208103373Y-62612037D01*
X208169558Y-62605518D01*
X208235740Y-62599000D01*
X208324260Y-62599000D01*
X208390442Y-62605518D01*
X208390442Y-62605518D01*
G37*
G36*
X198230442Y-62605518D02*
G01*
X198296627Y-62612037D01*
X198466466Y-62663557D01*
X198622991Y-62747222D01*
X198658729Y-62776552D01*
X198760186Y-62859814D01*
X198843448Y-62961271D01*
X198872778Y-62997009D01*
X198956443Y-63153534D01*
X199007963Y-63323373D01*
X199025359Y-63500000D01*
X199007963Y-63676627D01*
X198956443Y-63846466D01*
X198872778Y-64002991D01*
X198843448Y-64038729D01*
X198760186Y-64140186D01*
X198658729Y-64223448D01*
X198622991Y-64252778D01*
X198466466Y-64336443D01*
X198296627Y-64387963D01*
X198230442Y-64394482D01*
X198164260Y-64401000D01*
X198075740Y-64401000D01*
X198009558Y-64394482D01*
X197943373Y-64387963D01*
X197773534Y-64336443D01*
X197617009Y-64252778D01*
X197581271Y-64223448D01*
X197479814Y-64140186D01*
X197396552Y-64038729D01*
X197367222Y-64002991D01*
X197283557Y-63846466D01*
X197232037Y-63676627D01*
X197214641Y-63500000D01*
X197232037Y-63323373D01*
X197283557Y-63153534D01*
X197367222Y-62997009D01*
X197396552Y-62961271D01*
X197479814Y-62859814D01*
X197581271Y-62776552D01*
X197617009Y-62747222D01*
X197773534Y-62663557D01*
X197943373Y-62612037D01*
X198009558Y-62605518D01*
X198075740Y-62599000D01*
X198164260Y-62599000D01*
X198230442Y-62605518D01*
X198230442Y-62605518D01*
G37*
G36*
X205850442Y-62605518D02*
G01*
X205916627Y-62612037D01*
X206086466Y-62663557D01*
X206242991Y-62747222D01*
X206278729Y-62776552D01*
X206380186Y-62859814D01*
X206463448Y-62961271D01*
X206492778Y-62997009D01*
X206576443Y-63153534D01*
X206627963Y-63323373D01*
X206645359Y-63500000D01*
X206627963Y-63676627D01*
X206576443Y-63846466D01*
X206492778Y-64002991D01*
X206463448Y-64038729D01*
X206380186Y-64140186D01*
X206278729Y-64223448D01*
X206242991Y-64252778D01*
X206086466Y-64336443D01*
X205916627Y-64387963D01*
X205850442Y-64394482D01*
X205784260Y-64401000D01*
X205695740Y-64401000D01*
X205629558Y-64394482D01*
X205563373Y-64387963D01*
X205393534Y-64336443D01*
X205237009Y-64252778D01*
X205201271Y-64223448D01*
X205099814Y-64140186D01*
X205016552Y-64038729D01*
X204987222Y-64002991D01*
X204903557Y-63846466D01*
X204852037Y-63676627D01*
X204834641Y-63500000D01*
X204852037Y-63323373D01*
X204903557Y-63153534D01*
X204987222Y-62997009D01*
X205016552Y-62961271D01*
X205099814Y-62859814D01*
X205201271Y-62776552D01*
X205237009Y-62747222D01*
X205393534Y-62663557D01*
X205563373Y-62612037D01*
X205629558Y-62605518D01*
X205695740Y-62599000D01*
X205784260Y-62599000D01*
X205850442Y-62605518D01*
X205850442Y-62605518D01*
G37*
G36*
X172830442Y-60065518D02*
G01*
X172896627Y-60072037D01*
X173066466Y-60123557D01*
X173222991Y-60207222D01*
X173258729Y-60236552D01*
X173360186Y-60319814D01*
X173443448Y-60421271D01*
X173472778Y-60457009D01*
X173556443Y-60613534D01*
X173607963Y-60783373D01*
X173625359Y-60960000D01*
X173607963Y-61136627D01*
X173556443Y-61306466D01*
X173472778Y-61462991D01*
X173443448Y-61498729D01*
X173360186Y-61600186D01*
X173258729Y-61683448D01*
X173222991Y-61712778D01*
X173066466Y-61796443D01*
X172896627Y-61847963D01*
X172830443Y-61854481D01*
X172764260Y-61861000D01*
X172675740Y-61861000D01*
X172609557Y-61854481D01*
X172543373Y-61847963D01*
X172373534Y-61796443D01*
X172217009Y-61712778D01*
X172181271Y-61683448D01*
X172079814Y-61600186D01*
X171996552Y-61498729D01*
X171967222Y-61462991D01*
X171883557Y-61306466D01*
X171832037Y-61136627D01*
X171814641Y-60960000D01*
X171832037Y-60783373D01*
X171883557Y-60613534D01*
X171967222Y-60457009D01*
X171996552Y-60421271D01*
X172079814Y-60319814D01*
X172181271Y-60236552D01*
X172217009Y-60207222D01*
X172373534Y-60123557D01*
X172543373Y-60072037D01*
X172609558Y-60065518D01*
X172675740Y-60059000D01*
X172764260Y-60059000D01*
X172830442Y-60065518D01*
X172830442Y-60065518D01*
G37*
G36*
X177910442Y-60065518D02*
G01*
X177976627Y-60072037D01*
X178146466Y-60123557D01*
X178302991Y-60207222D01*
X178338729Y-60236552D01*
X178440186Y-60319814D01*
X178523448Y-60421271D01*
X178552778Y-60457009D01*
X178636443Y-60613534D01*
X178687963Y-60783373D01*
X178705359Y-60960000D01*
X178687963Y-61136627D01*
X178636443Y-61306466D01*
X178552778Y-61462991D01*
X178523448Y-61498729D01*
X178440186Y-61600186D01*
X178338729Y-61683448D01*
X178302991Y-61712778D01*
X178146466Y-61796443D01*
X177976627Y-61847963D01*
X177910443Y-61854481D01*
X177844260Y-61861000D01*
X177755740Y-61861000D01*
X177689557Y-61854481D01*
X177623373Y-61847963D01*
X177453534Y-61796443D01*
X177297009Y-61712778D01*
X177261271Y-61683448D01*
X177159814Y-61600186D01*
X177076552Y-61498729D01*
X177047222Y-61462991D01*
X176963557Y-61306466D01*
X176912037Y-61136627D01*
X176894641Y-60960000D01*
X176912037Y-60783373D01*
X176963557Y-60613534D01*
X177047222Y-60457009D01*
X177076552Y-60421271D01*
X177159814Y-60319814D01*
X177261271Y-60236552D01*
X177297009Y-60207222D01*
X177453534Y-60123557D01*
X177623373Y-60072037D01*
X177689558Y-60065518D01*
X177755740Y-60059000D01*
X177844260Y-60059000D01*
X177910442Y-60065518D01*
X177910442Y-60065518D01*
G37*
G36*
X180450442Y-60065518D02*
G01*
X180516627Y-60072037D01*
X180686466Y-60123557D01*
X180842991Y-60207222D01*
X180878729Y-60236552D01*
X180980186Y-60319814D01*
X181063448Y-60421271D01*
X181092778Y-60457009D01*
X181176443Y-60613534D01*
X181227963Y-60783373D01*
X181245359Y-60960000D01*
X181227963Y-61136627D01*
X181176443Y-61306466D01*
X181092778Y-61462991D01*
X181063448Y-61498729D01*
X180980186Y-61600186D01*
X180878729Y-61683448D01*
X180842991Y-61712778D01*
X180686466Y-61796443D01*
X180516627Y-61847963D01*
X180450443Y-61854481D01*
X180384260Y-61861000D01*
X180295740Y-61861000D01*
X180229557Y-61854481D01*
X180163373Y-61847963D01*
X179993534Y-61796443D01*
X179837009Y-61712778D01*
X179801271Y-61683448D01*
X179699814Y-61600186D01*
X179616552Y-61498729D01*
X179587222Y-61462991D01*
X179503557Y-61306466D01*
X179452037Y-61136627D01*
X179434641Y-60960000D01*
X179452037Y-60783373D01*
X179503557Y-60613534D01*
X179587222Y-60457009D01*
X179616552Y-60421271D01*
X179699814Y-60319814D01*
X179801271Y-60236552D01*
X179837009Y-60207222D01*
X179993534Y-60123557D01*
X180163373Y-60072037D01*
X180229558Y-60065518D01*
X180295740Y-60059000D01*
X180384260Y-60059000D01*
X180450442Y-60065518D01*
X180450442Y-60065518D01*
G37*
G36*
X182990442Y-60065518D02*
G01*
X183056627Y-60072037D01*
X183226466Y-60123557D01*
X183382991Y-60207222D01*
X183418729Y-60236552D01*
X183520186Y-60319814D01*
X183603448Y-60421271D01*
X183632778Y-60457009D01*
X183716443Y-60613534D01*
X183767963Y-60783373D01*
X183785359Y-60960000D01*
X183767963Y-61136627D01*
X183716443Y-61306466D01*
X183632778Y-61462991D01*
X183603448Y-61498729D01*
X183520186Y-61600186D01*
X183418729Y-61683448D01*
X183382991Y-61712778D01*
X183226466Y-61796443D01*
X183056627Y-61847963D01*
X182990443Y-61854481D01*
X182924260Y-61861000D01*
X182835740Y-61861000D01*
X182769557Y-61854481D01*
X182703373Y-61847963D01*
X182533534Y-61796443D01*
X182377009Y-61712778D01*
X182341271Y-61683448D01*
X182239814Y-61600186D01*
X182156552Y-61498729D01*
X182127222Y-61462991D01*
X182043557Y-61306466D01*
X181992037Y-61136627D01*
X181974641Y-60960000D01*
X181992037Y-60783373D01*
X182043557Y-60613534D01*
X182127222Y-60457009D01*
X182156552Y-60421271D01*
X182239814Y-60319814D01*
X182341271Y-60236552D01*
X182377009Y-60207222D01*
X182533534Y-60123557D01*
X182703373Y-60072037D01*
X182769558Y-60065518D01*
X182835740Y-60059000D01*
X182924260Y-60059000D01*
X182990442Y-60065518D01*
X182990442Y-60065518D01*
G37*
G36*
X185530442Y-60065518D02*
G01*
X185596627Y-60072037D01*
X185766466Y-60123557D01*
X185922991Y-60207222D01*
X185958729Y-60236552D01*
X186060186Y-60319814D01*
X186143448Y-60421271D01*
X186172778Y-60457009D01*
X186256443Y-60613534D01*
X186307963Y-60783373D01*
X186325359Y-60960000D01*
X186307963Y-61136627D01*
X186256443Y-61306466D01*
X186172778Y-61462991D01*
X186143448Y-61498729D01*
X186060186Y-61600186D01*
X185958729Y-61683448D01*
X185922991Y-61712778D01*
X185766466Y-61796443D01*
X185596627Y-61847963D01*
X185530443Y-61854481D01*
X185464260Y-61861000D01*
X185375740Y-61861000D01*
X185309557Y-61854481D01*
X185243373Y-61847963D01*
X185073534Y-61796443D01*
X184917009Y-61712778D01*
X184881271Y-61683448D01*
X184779814Y-61600186D01*
X184696552Y-61498729D01*
X184667222Y-61462991D01*
X184583557Y-61306466D01*
X184532037Y-61136627D01*
X184514641Y-60960000D01*
X184532037Y-60783373D01*
X184583557Y-60613534D01*
X184667222Y-60457009D01*
X184696552Y-60421271D01*
X184779814Y-60319814D01*
X184881271Y-60236552D01*
X184917009Y-60207222D01*
X185073534Y-60123557D01*
X185243373Y-60072037D01*
X185309558Y-60065518D01*
X185375740Y-60059000D01*
X185464260Y-60059000D01*
X185530442Y-60065518D01*
X185530442Y-60065518D01*
G37*
G36*
X188070442Y-60065518D02*
G01*
X188136627Y-60072037D01*
X188306466Y-60123557D01*
X188462991Y-60207222D01*
X188498729Y-60236552D01*
X188600186Y-60319814D01*
X188683448Y-60421271D01*
X188712778Y-60457009D01*
X188796443Y-60613534D01*
X188847963Y-60783373D01*
X188865359Y-60960000D01*
X188847963Y-61136627D01*
X188796443Y-61306466D01*
X188712778Y-61462991D01*
X188683448Y-61498729D01*
X188600186Y-61600186D01*
X188498729Y-61683448D01*
X188462991Y-61712778D01*
X188306466Y-61796443D01*
X188136627Y-61847963D01*
X188070443Y-61854481D01*
X188004260Y-61861000D01*
X187915740Y-61861000D01*
X187849557Y-61854481D01*
X187783373Y-61847963D01*
X187613534Y-61796443D01*
X187457009Y-61712778D01*
X187421271Y-61683448D01*
X187319814Y-61600186D01*
X187236552Y-61498729D01*
X187207222Y-61462991D01*
X187123557Y-61306466D01*
X187072037Y-61136627D01*
X187054641Y-60960000D01*
X187072037Y-60783373D01*
X187123557Y-60613534D01*
X187207222Y-60457009D01*
X187236552Y-60421271D01*
X187319814Y-60319814D01*
X187421271Y-60236552D01*
X187457009Y-60207222D01*
X187613534Y-60123557D01*
X187783373Y-60072037D01*
X187849558Y-60065518D01*
X187915740Y-60059000D01*
X188004260Y-60059000D01*
X188070442Y-60065518D01*
X188070442Y-60065518D01*
G37*
G36*
X165210442Y-60065518D02*
G01*
X165276627Y-60072037D01*
X165446466Y-60123557D01*
X165602991Y-60207222D01*
X165638729Y-60236552D01*
X165740186Y-60319814D01*
X165823448Y-60421271D01*
X165852778Y-60457009D01*
X165936443Y-60613534D01*
X165987963Y-60783373D01*
X166005359Y-60960000D01*
X165987963Y-61136627D01*
X165936443Y-61306466D01*
X165852778Y-61462991D01*
X165823448Y-61498729D01*
X165740186Y-61600186D01*
X165638729Y-61683448D01*
X165602991Y-61712778D01*
X165446466Y-61796443D01*
X165276627Y-61847963D01*
X165210443Y-61854481D01*
X165144260Y-61861000D01*
X165055740Y-61861000D01*
X164989557Y-61854481D01*
X164923373Y-61847963D01*
X164753534Y-61796443D01*
X164597009Y-61712778D01*
X164561271Y-61683448D01*
X164459814Y-61600186D01*
X164376552Y-61498729D01*
X164347222Y-61462991D01*
X164263557Y-61306466D01*
X164212037Y-61136627D01*
X164194641Y-60960000D01*
X164212037Y-60783373D01*
X164263557Y-60613534D01*
X164347222Y-60457009D01*
X164376552Y-60421271D01*
X164459814Y-60319814D01*
X164561271Y-60236552D01*
X164597009Y-60207222D01*
X164753534Y-60123557D01*
X164923373Y-60072037D01*
X164989558Y-60065518D01*
X165055740Y-60059000D01*
X165144260Y-60059000D01*
X165210442Y-60065518D01*
X165210442Y-60065518D01*
G37*
G36*
X162670442Y-60065518D02*
G01*
X162736627Y-60072037D01*
X162906466Y-60123557D01*
X163062991Y-60207222D01*
X163098729Y-60236552D01*
X163200186Y-60319814D01*
X163283448Y-60421271D01*
X163312778Y-60457009D01*
X163396443Y-60613534D01*
X163447963Y-60783373D01*
X163465359Y-60960000D01*
X163447963Y-61136627D01*
X163396443Y-61306466D01*
X163312778Y-61462991D01*
X163283448Y-61498729D01*
X163200186Y-61600186D01*
X163098729Y-61683448D01*
X163062991Y-61712778D01*
X162906466Y-61796443D01*
X162736627Y-61847963D01*
X162670443Y-61854481D01*
X162604260Y-61861000D01*
X162515740Y-61861000D01*
X162449557Y-61854481D01*
X162383373Y-61847963D01*
X162213534Y-61796443D01*
X162057009Y-61712778D01*
X162021271Y-61683448D01*
X161919814Y-61600186D01*
X161836552Y-61498729D01*
X161807222Y-61462991D01*
X161723557Y-61306466D01*
X161672037Y-61136627D01*
X161654641Y-60960000D01*
X161672037Y-60783373D01*
X161723557Y-60613534D01*
X161807222Y-60457009D01*
X161836552Y-60421271D01*
X161919814Y-60319814D01*
X162021271Y-60236552D01*
X162057009Y-60207222D01*
X162213534Y-60123557D01*
X162383373Y-60072037D01*
X162449558Y-60065518D01*
X162515740Y-60059000D01*
X162604260Y-60059000D01*
X162670442Y-60065518D01*
X162670442Y-60065518D01*
G37*
G36*
X160130442Y-60065518D02*
G01*
X160196627Y-60072037D01*
X160366466Y-60123557D01*
X160522991Y-60207222D01*
X160558729Y-60236552D01*
X160660186Y-60319814D01*
X160743448Y-60421271D01*
X160772778Y-60457009D01*
X160856443Y-60613534D01*
X160907963Y-60783373D01*
X160925359Y-60960000D01*
X160907963Y-61136627D01*
X160856443Y-61306466D01*
X160772778Y-61462991D01*
X160743448Y-61498729D01*
X160660186Y-61600186D01*
X160558729Y-61683448D01*
X160522991Y-61712778D01*
X160366466Y-61796443D01*
X160196627Y-61847963D01*
X160130443Y-61854481D01*
X160064260Y-61861000D01*
X159975740Y-61861000D01*
X159909557Y-61854481D01*
X159843373Y-61847963D01*
X159673534Y-61796443D01*
X159517009Y-61712778D01*
X159481271Y-61683448D01*
X159379814Y-61600186D01*
X159296552Y-61498729D01*
X159267222Y-61462991D01*
X159183557Y-61306466D01*
X159132037Y-61136627D01*
X159114641Y-60960000D01*
X159132037Y-60783373D01*
X159183557Y-60613534D01*
X159267222Y-60457009D01*
X159296552Y-60421271D01*
X159379814Y-60319814D01*
X159481271Y-60236552D01*
X159517009Y-60207222D01*
X159673534Y-60123557D01*
X159843373Y-60072037D01*
X159909558Y-60065518D01*
X159975740Y-60059000D01*
X160064260Y-60059000D01*
X160130442Y-60065518D01*
X160130442Y-60065518D01*
G37*
G36*
X157590442Y-60065518D02*
G01*
X157656627Y-60072037D01*
X157826466Y-60123557D01*
X157982991Y-60207222D01*
X158018729Y-60236552D01*
X158120186Y-60319814D01*
X158203448Y-60421271D01*
X158232778Y-60457009D01*
X158316443Y-60613534D01*
X158367963Y-60783373D01*
X158385359Y-60960000D01*
X158367963Y-61136627D01*
X158316443Y-61306466D01*
X158232778Y-61462991D01*
X158203448Y-61498729D01*
X158120186Y-61600186D01*
X158018729Y-61683448D01*
X157982991Y-61712778D01*
X157826466Y-61796443D01*
X157656627Y-61847963D01*
X157590443Y-61854481D01*
X157524260Y-61861000D01*
X157435740Y-61861000D01*
X157369557Y-61854481D01*
X157303373Y-61847963D01*
X157133534Y-61796443D01*
X156977009Y-61712778D01*
X156941271Y-61683448D01*
X156839814Y-61600186D01*
X156756552Y-61498729D01*
X156727222Y-61462991D01*
X156643557Y-61306466D01*
X156592037Y-61136627D01*
X156574641Y-60960000D01*
X156592037Y-60783373D01*
X156643557Y-60613534D01*
X156727222Y-60457009D01*
X156756552Y-60421271D01*
X156839814Y-60319814D01*
X156941271Y-60236552D01*
X156977009Y-60207222D01*
X157133534Y-60123557D01*
X157303373Y-60072037D01*
X157369558Y-60065518D01*
X157435740Y-60059000D01*
X157524260Y-60059000D01*
X157590442Y-60065518D01*
X157590442Y-60065518D01*
G37*
G36*
X155050442Y-60065518D02*
G01*
X155116627Y-60072037D01*
X155286466Y-60123557D01*
X155442991Y-60207222D01*
X155478729Y-60236552D01*
X155580186Y-60319814D01*
X155663448Y-60421271D01*
X155692778Y-60457009D01*
X155776443Y-60613534D01*
X155827963Y-60783373D01*
X155845359Y-60960000D01*
X155827963Y-61136627D01*
X155776443Y-61306466D01*
X155692778Y-61462991D01*
X155663448Y-61498729D01*
X155580186Y-61600186D01*
X155478729Y-61683448D01*
X155442991Y-61712778D01*
X155286466Y-61796443D01*
X155116627Y-61847963D01*
X155050443Y-61854481D01*
X154984260Y-61861000D01*
X154895740Y-61861000D01*
X154829557Y-61854481D01*
X154763373Y-61847963D01*
X154593534Y-61796443D01*
X154437009Y-61712778D01*
X154401271Y-61683448D01*
X154299814Y-61600186D01*
X154216552Y-61498729D01*
X154187222Y-61462991D01*
X154103557Y-61306466D01*
X154052037Y-61136627D01*
X154034641Y-60960000D01*
X154052037Y-60783373D01*
X154103557Y-60613534D01*
X154187222Y-60457009D01*
X154216552Y-60421271D01*
X154299814Y-60319814D01*
X154401271Y-60236552D01*
X154437009Y-60207222D01*
X154593534Y-60123557D01*
X154763373Y-60072037D01*
X154829558Y-60065518D01*
X154895740Y-60059000D01*
X154984260Y-60059000D01*
X155050442Y-60065518D01*
X155050442Y-60065518D01*
G37*
G36*
X152510442Y-60065518D02*
G01*
X152576627Y-60072037D01*
X152746466Y-60123557D01*
X152902991Y-60207222D01*
X152938729Y-60236552D01*
X153040186Y-60319814D01*
X153123448Y-60421271D01*
X153152778Y-60457009D01*
X153236443Y-60613534D01*
X153287963Y-60783373D01*
X153305359Y-60960000D01*
X153287963Y-61136627D01*
X153236443Y-61306466D01*
X153152778Y-61462991D01*
X153123448Y-61498729D01*
X153040186Y-61600186D01*
X152938729Y-61683448D01*
X152902991Y-61712778D01*
X152746466Y-61796443D01*
X152576627Y-61847963D01*
X152510443Y-61854481D01*
X152444260Y-61861000D01*
X152355740Y-61861000D01*
X152289557Y-61854481D01*
X152223373Y-61847963D01*
X152053534Y-61796443D01*
X151897009Y-61712778D01*
X151861271Y-61683448D01*
X151759814Y-61600186D01*
X151676552Y-61498729D01*
X151647222Y-61462991D01*
X151563557Y-61306466D01*
X151512037Y-61136627D01*
X151494641Y-60960000D01*
X151512037Y-60783373D01*
X151563557Y-60613534D01*
X151647222Y-60457009D01*
X151676552Y-60421271D01*
X151759814Y-60319814D01*
X151861271Y-60236552D01*
X151897009Y-60207222D01*
X152053534Y-60123557D01*
X152223373Y-60072037D01*
X152289558Y-60065518D01*
X152355740Y-60059000D01*
X152444260Y-60059000D01*
X152510442Y-60065518D01*
X152510442Y-60065518D01*
G37*
G36*
X150761000Y-61861000D02*
G01*
X148959000Y-61861000D01*
X148959000Y-60059000D01*
X150761000Y-60059000D01*
X150761000Y-61861000D01*
X150761000Y-61861000D01*
G37*
G36*
X195690442Y-60065518D02*
G01*
X195756627Y-60072037D01*
X195926466Y-60123557D01*
X196082991Y-60207222D01*
X196118729Y-60236552D01*
X196220186Y-60319814D01*
X196303448Y-60421271D01*
X196332778Y-60457009D01*
X196416443Y-60613534D01*
X196467963Y-60783373D01*
X196485359Y-60960000D01*
X196467963Y-61136627D01*
X196416443Y-61306466D01*
X196332778Y-61462991D01*
X196303448Y-61498729D01*
X196220186Y-61600186D01*
X196118729Y-61683448D01*
X196082991Y-61712778D01*
X195926466Y-61796443D01*
X195756627Y-61847963D01*
X195690443Y-61854481D01*
X195624260Y-61861000D01*
X195535740Y-61861000D01*
X195469557Y-61854481D01*
X195403373Y-61847963D01*
X195233534Y-61796443D01*
X195077009Y-61712778D01*
X195041271Y-61683448D01*
X194939814Y-61600186D01*
X194856552Y-61498729D01*
X194827222Y-61462991D01*
X194743557Y-61306466D01*
X194692037Y-61136627D01*
X194674641Y-60960000D01*
X194692037Y-60783373D01*
X194743557Y-60613534D01*
X194827222Y-60457009D01*
X194856552Y-60421271D01*
X194939814Y-60319814D01*
X195041271Y-60236552D01*
X195077009Y-60207222D01*
X195233534Y-60123557D01*
X195403373Y-60072037D01*
X195469558Y-60065518D01*
X195535740Y-60059000D01*
X195624260Y-60059000D01*
X195690442Y-60065518D01*
X195690442Y-60065518D01*
G37*
G36*
X167750442Y-60065518D02*
G01*
X167816627Y-60072037D01*
X167986466Y-60123557D01*
X168142991Y-60207222D01*
X168178729Y-60236552D01*
X168280186Y-60319814D01*
X168363448Y-60421271D01*
X168392778Y-60457009D01*
X168476443Y-60613534D01*
X168527963Y-60783373D01*
X168545359Y-60960000D01*
X168527963Y-61136627D01*
X168476443Y-61306466D01*
X168392778Y-61462991D01*
X168363448Y-61498729D01*
X168280186Y-61600186D01*
X168178729Y-61683448D01*
X168142991Y-61712778D01*
X167986466Y-61796443D01*
X167816627Y-61847963D01*
X167750443Y-61854481D01*
X167684260Y-61861000D01*
X167595740Y-61861000D01*
X167529557Y-61854481D01*
X167463373Y-61847963D01*
X167293534Y-61796443D01*
X167137009Y-61712778D01*
X167101271Y-61683448D01*
X166999814Y-61600186D01*
X166916552Y-61498729D01*
X166887222Y-61462991D01*
X166803557Y-61306466D01*
X166752037Y-61136627D01*
X166734641Y-60960000D01*
X166752037Y-60783373D01*
X166803557Y-60613534D01*
X166887222Y-60457009D01*
X166916552Y-60421271D01*
X166999814Y-60319814D01*
X167101271Y-60236552D01*
X167137009Y-60207222D01*
X167293534Y-60123557D01*
X167463373Y-60072037D01*
X167529558Y-60065518D01*
X167595740Y-60059000D01*
X167684260Y-60059000D01*
X167750442Y-60065518D01*
X167750442Y-60065518D01*
G37*
G36*
X170290442Y-60065518D02*
G01*
X170356627Y-60072037D01*
X170526466Y-60123557D01*
X170682991Y-60207222D01*
X170718729Y-60236552D01*
X170820186Y-60319814D01*
X170903448Y-60421271D01*
X170932778Y-60457009D01*
X171016443Y-60613534D01*
X171067963Y-60783373D01*
X171085359Y-60960000D01*
X171067963Y-61136627D01*
X171016443Y-61306466D01*
X170932778Y-61462991D01*
X170903448Y-61498729D01*
X170820186Y-61600186D01*
X170718729Y-61683448D01*
X170682991Y-61712778D01*
X170526466Y-61796443D01*
X170356627Y-61847963D01*
X170290443Y-61854481D01*
X170224260Y-61861000D01*
X170135740Y-61861000D01*
X170069557Y-61854481D01*
X170003373Y-61847963D01*
X169833534Y-61796443D01*
X169677009Y-61712778D01*
X169641271Y-61683448D01*
X169539814Y-61600186D01*
X169456552Y-61498729D01*
X169427222Y-61462991D01*
X169343557Y-61306466D01*
X169292037Y-61136627D01*
X169274641Y-60960000D01*
X169292037Y-60783373D01*
X169343557Y-60613534D01*
X169427222Y-60457009D01*
X169456552Y-60421271D01*
X169539814Y-60319814D01*
X169641271Y-60236552D01*
X169677009Y-60207222D01*
X169833534Y-60123557D01*
X170003373Y-60072037D01*
X170069558Y-60065518D01*
X170135740Y-60059000D01*
X170224260Y-60059000D01*
X170290442Y-60065518D01*
X170290442Y-60065518D01*
G37*
G36*
X193150442Y-60065518D02*
G01*
X193216627Y-60072037D01*
X193386466Y-60123557D01*
X193542991Y-60207222D01*
X193578729Y-60236552D01*
X193680186Y-60319814D01*
X193763448Y-60421271D01*
X193792778Y-60457009D01*
X193876443Y-60613534D01*
X193927963Y-60783373D01*
X193945359Y-60960000D01*
X193927963Y-61136627D01*
X193876443Y-61306466D01*
X193792778Y-61462991D01*
X193763448Y-61498729D01*
X193680186Y-61600186D01*
X193578729Y-61683448D01*
X193542991Y-61712778D01*
X193386466Y-61796443D01*
X193216627Y-61847963D01*
X193150443Y-61854481D01*
X193084260Y-61861000D01*
X192995740Y-61861000D01*
X192929557Y-61854481D01*
X192863373Y-61847963D01*
X192693534Y-61796443D01*
X192537009Y-61712778D01*
X192501271Y-61683448D01*
X192399814Y-61600186D01*
X192316552Y-61498729D01*
X192287222Y-61462991D01*
X192203557Y-61306466D01*
X192152037Y-61136627D01*
X192134641Y-60960000D01*
X192152037Y-60783373D01*
X192203557Y-60613534D01*
X192287222Y-60457009D01*
X192316552Y-60421271D01*
X192399814Y-60319814D01*
X192501271Y-60236552D01*
X192537009Y-60207222D01*
X192693534Y-60123557D01*
X192863373Y-60072037D01*
X192929558Y-60065518D01*
X192995740Y-60059000D01*
X193084260Y-60059000D01*
X193150442Y-60065518D01*
X193150442Y-60065518D01*
G37*
G36*
X190610442Y-60065518D02*
G01*
X190676627Y-60072037D01*
X190846466Y-60123557D01*
X191002991Y-60207222D01*
X191038729Y-60236552D01*
X191140186Y-60319814D01*
X191223448Y-60421271D01*
X191252778Y-60457009D01*
X191336443Y-60613534D01*
X191387963Y-60783373D01*
X191405359Y-60960000D01*
X191387963Y-61136627D01*
X191336443Y-61306466D01*
X191252778Y-61462991D01*
X191223448Y-61498729D01*
X191140186Y-61600186D01*
X191038729Y-61683448D01*
X191002991Y-61712778D01*
X190846466Y-61796443D01*
X190676627Y-61847963D01*
X190610443Y-61854481D01*
X190544260Y-61861000D01*
X190455740Y-61861000D01*
X190389557Y-61854481D01*
X190323373Y-61847963D01*
X190153534Y-61796443D01*
X189997009Y-61712778D01*
X189961271Y-61683448D01*
X189859814Y-61600186D01*
X189776552Y-61498729D01*
X189747222Y-61462991D01*
X189663557Y-61306466D01*
X189612037Y-61136627D01*
X189594641Y-60960000D01*
X189612037Y-60783373D01*
X189663557Y-60613534D01*
X189747222Y-60457009D01*
X189776552Y-60421271D01*
X189859814Y-60319814D01*
X189961271Y-60236552D01*
X189997009Y-60207222D01*
X190153534Y-60123557D01*
X190323373Y-60072037D01*
X190389558Y-60065518D01*
X190455740Y-60059000D01*
X190544260Y-60059000D01*
X190610442Y-60065518D01*
X190610442Y-60065518D01*
G37*
G36*
X198230442Y-60065518D02*
G01*
X198296627Y-60072037D01*
X198466466Y-60123557D01*
X198622991Y-60207222D01*
X198658729Y-60236552D01*
X198760186Y-60319814D01*
X198843448Y-60421271D01*
X198872778Y-60457009D01*
X198956443Y-60613534D01*
X199007963Y-60783373D01*
X199025359Y-60960000D01*
X199007963Y-61136627D01*
X198956443Y-61306466D01*
X198872778Y-61462991D01*
X198843448Y-61498729D01*
X198760186Y-61600186D01*
X198658729Y-61683448D01*
X198622991Y-61712778D01*
X198466466Y-61796443D01*
X198296627Y-61847963D01*
X198230443Y-61854481D01*
X198164260Y-61861000D01*
X198075740Y-61861000D01*
X198009557Y-61854481D01*
X197943373Y-61847963D01*
X197773534Y-61796443D01*
X197617009Y-61712778D01*
X197581271Y-61683448D01*
X197479814Y-61600186D01*
X197396552Y-61498729D01*
X197367222Y-61462991D01*
X197283557Y-61306466D01*
X197232037Y-61136627D01*
X197214641Y-60960000D01*
X197232037Y-60783373D01*
X197283557Y-60613534D01*
X197367222Y-60457009D01*
X197396552Y-60421271D01*
X197479814Y-60319814D01*
X197581271Y-60236552D01*
X197617009Y-60207222D01*
X197773534Y-60123557D01*
X197943373Y-60072037D01*
X198009558Y-60065518D01*
X198075740Y-60059000D01*
X198164260Y-60059000D01*
X198230442Y-60065518D01*
X198230442Y-60065518D01*
G37*
G36*
X200770442Y-60065518D02*
G01*
X200836627Y-60072037D01*
X201006466Y-60123557D01*
X201162991Y-60207222D01*
X201198729Y-60236552D01*
X201300186Y-60319814D01*
X201383448Y-60421271D01*
X201412778Y-60457009D01*
X201496443Y-60613534D01*
X201547963Y-60783373D01*
X201565359Y-60960000D01*
X201547963Y-61136627D01*
X201496443Y-61306466D01*
X201412778Y-61462991D01*
X201383448Y-61498729D01*
X201300186Y-61600186D01*
X201198729Y-61683448D01*
X201162991Y-61712778D01*
X201006466Y-61796443D01*
X200836627Y-61847963D01*
X200770443Y-61854481D01*
X200704260Y-61861000D01*
X200615740Y-61861000D01*
X200549557Y-61854481D01*
X200483373Y-61847963D01*
X200313534Y-61796443D01*
X200157009Y-61712778D01*
X200121271Y-61683448D01*
X200019814Y-61600186D01*
X199936552Y-61498729D01*
X199907222Y-61462991D01*
X199823557Y-61306466D01*
X199772037Y-61136627D01*
X199754641Y-60960000D01*
X199772037Y-60783373D01*
X199823557Y-60613534D01*
X199907222Y-60457009D01*
X199936552Y-60421271D01*
X200019814Y-60319814D01*
X200121271Y-60236552D01*
X200157009Y-60207222D01*
X200313534Y-60123557D01*
X200483373Y-60072037D01*
X200549558Y-60065518D01*
X200615740Y-60059000D01*
X200704260Y-60059000D01*
X200770442Y-60065518D01*
X200770442Y-60065518D01*
G37*
G36*
X175370442Y-60065518D02*
G01*
X175436627Y-60072037D01*
X175606466Y-60123557D01*
X175762991Y-60207222D01*
X175798729Y-60236552D01*
X175900186Y-60319814D01*
X175983448Y-60421271D01*
X176012778Y-60457009D01*
X176096443Y-60613534D01*
X176147963Y-60783373D01*
X176165359Y-60960000D01*
X176147963Y-61136627D01*
X176096443Y-61306466D01*
X176012778Y-61462991D01*
X175983448Y-61498729D01*
X175900186Y-61600186D01*
X175798729Y-61683448D01*
X175762991Y-61712778D01*
X175606466Y-61796443D01*
X175436627Y-61847963D01*
X175370443Y-61854481D01*
X175304260Y-61861000D01*
X175215740Y-61861000D01*
X175149557Y-61854481D01*
X175083373Y-61847963D01*
X174913534Y-61796443D01*
X174757009Y-61712778D01*
X174721271Y-61683448D01*
X174619814Y-61600186D01*
X174536552Y-61498729D01*
X174507222Y-61462991D01*
X174423557Y-61306466D01*
X174372037Y-61136627D01*
X174354641Y-60960000D01*
X174372037Y-60783373D01*
X174423557Y-60613534D01*
X174507222Y-60457009D01*
X174536552Y-60421271D01*
X174619814Y-60319814D01*
X174721271Y-60236552D01*
X174757009Y-60207222D01*
X174913534Y-60123557D01*
X175083373Y-60072037D01*
X175149558Y-60065518D01*
X175215740Y-60059000D01*
X175304260Y-60059000D01*
X175370442Y-60065518D01*
X175370442Y-60065518D01*
G37*
G36*
X203310442Y-60065518D02*
G01*
X203376627Y-60072037D01*
X203546466Y-60123557D01*
X203702991Y-60207222D01*
X203738729Y-60236552D01*
X203840186Y-60319814D01*
X203923448Y-60421271D01*
X203952778Y-60457009D01*
X204036443Y-60613534D01*
X204087963Y-60783373D01*
X204105359Y-60960000D01*
X204087963Y-61136627D01*
X204036443Y-61306466D01*
X203952778Y-61462991D01*
X203923448Y-61498729D01*
X203840186Y-61600186D01*
X203738729Y-61683448D01*
X203702991Y-61712778D01*
X203546466Y-61796443D01*
X203376627Y-61847963D01*
X203310443Y-61854481D01*
X203244260Y-61861000D01*
X203155740Y-61861000D01*
X203089557Y-61854481D01*
X203023373Y-61847963D01*
X202853534Y-61796443D01*
X202697009Y-61712778D01*
X202661271Y-61683448D01*
X202559814Y-61600186D01*
X202476552Y-61498729D01*
X202447222Y-61462991D01*
X202363557Y-61306466D01*
X202312037Y-61136627D01*
X202294641Y-60960000D01*
X202312037Y-60783373D01*
X202363557Y-60613534D01*
X202447222Y-60457009D01*
X202476552Y-60421271D01*
X202559814Y-60319814D01*
X202661271Y-60236552D01*
X202697009Y-60207222D01*
X202853534Y-60123557D01*
X203023373Y-60072037D01*
X203089558Y-60065518D01*
X203155740Y-60059000D01*
X203244260Y-60059000D01*
X203310442Y-60065518D01*
X203310442Y-60065518D01*
G37*
G36*
X205850442Y-60065518D02*
G01*
X205916627Y-60072037D01*
X206086466Y-60123557D01*
X206242991Y-60207222D01*
X206278729Y-60236552D01*
X206380186Y-60319814D01*
X206463448Y-60421271D01*
X206492778Y-60457009D01*
X206576443Y-60613534D01*
X206627963Y-60783373D01*
X206645359Y-60960000D01*
X206627963Y-61136627D01*
X206576443Y-61306466D01*
X206492778Y-61462991D01*
X206463448Y-61498729D01*
X206380186Y-61600186D01*
X206278729Y-61683448D01*
X206242991Y-61712778D01*
X206086466Y-61796443D01*
X205916627Y-61847963D01*
X205850443Y-61854481D01*
X205784260Y-61861000D01*
X205695740Y-61861000D01*
X205629557Y-61854481D01*
X205563373Y-61847963D01*
X205393534Y-61796443D01*
X205237009Y-61712778D01*
X205201271Y-61683448D01*
X205099814Y-61600186D01*
X205016552Y-61498729D01*
X204987222Y-61462991D01*
X204903557Y-61306466D01*
X204852037Y-61136627D01*
X204834641Y-60960000D01*
X204852037Y-60783373D01*
X204903557Y-60613534D01*
X204987222Y-60457009D01*
X205016552Y-60421271D01*
X205099814Y-60319814D01*
X205201271Y-60236552D01*
X205237009Y-60207222D01*
X205393534Y-60123557D01*
X205563373Y-60072037D01*
X205629558Y-60065518D01*
X205695740Y-60059000D01*
X205784260Y-60059000D01*
X205850442Y-60065518D01*
X205850442Y-60065518D01*
G37*
G36*
X208390442Y-60065518D02*
G01*
X208456627Y-60072037D01*
X208626466Y-60123557D01*
X208782991Y-60207222D01*
X208818729Y-60236552D01*
X208920186Y-60319814D01*
X209003448Y-60421271D01*
X209032778Y-60457009D01*
X209116443Y-60613534D01*
X209167963Y-60783373D01*
X209185359Y-60960000D01*
X209167963Y-61136627D01*
X209116443Y-61306466D01*
X209032778Y-61462991D01*
X209003448Y-61498729D01*
X208920186Y-61600186D01*
X208818729Y-61683448D01*
X208782991Y-61712778D01*
X208626466Y-61796443D01*
X208456627Y-61847963D01*
X208390443Y-61854481D01*
X208324260Y-61861000D01*
X208235740Y-61861000D01*
X208169557Y-61854481D01*
X208103373Y-61847963D01*
X207933534Y-61796443D01*
X207777009Y-61712778D01*
X207741271Y-61683448D01*
X207639814Y-61600186D01*
X207556552Y-61498729D01*
X207527222Y-61462991D01*
X207443557Y-61306466D01*
X207392037Y-61136627D01*
X207374641Y-60960000D01*
X207392037Y-60783373D01*
X207443557Y-60613534D01*
X207527222Y-60457009D01*
X207556552Y-60421271D01*
X207639814Y-60319814D01*
X207741271Y-60236552D01*
X207777009Y-60207222D01*
X207933534Y-60123557D01*
X208103373Y-60072037D01*
X208169558Y-60065518D01*
X208235740Y-60059000D01*
X208324260Y-60059000D01*
X208390442Y-60065518D01*
X208390442Y-60065518D01*
G37*
G36*
X210930442Y-60065518D02*
G01*
X210996627Y-60072037D01*
X211166466Y-60123557D01*
X211322991Y-60207222D01*
X211358729Y-60236552D01*
X211460186Y-60319814D01*
X211543448Y-60421271D01*
X211572778Y-60457009D01*
X211656443Y-60613534D01*
X211707963Y-60783373D01*
X211725359Y-60960000D01*
X211707963Y-61136627D01*
X211656443Y-61306466D01*
X211572778Y-61462991D01*
X211543448Y-61498729D01*
X211460186Y-61600186D01*
X211358729Y-61683448D01*
X211322991Y-61712778D01*
X211166466Y-61796443D01*
X210996627Y-61847963D01*
X210930443Y-61854481D01*
X210864260Y-61861000D01*
X210775740Y-61861000D01*
X210709557Y-61854481D01*
X210643373Y-61847963D01*
X210473534Y-61796443D01*
X210317009Y-61712778D01*
X210281271Y-61683448D01*
X210179814Y-61600186D01*
X210096552Y-61498729D01*
X210067222Y-61462991D01*
X209983557Y-61306466D01*
X209932037Y-61136627D01*
X209914641Y-60960000D01*
X209932037Y-60783373D01*
X209983557Y-60613534D01*
X210067222Y-60457009D01*
X210096552Y-60421271D01*
X210179814Y-60319814D01*
X210281271Y-60236552D01*
X210317009Y-60207222D01*
X210473534Y-60123557D01*
X210643373Y-60072037D01*
X210709558Y-60065518D01*
X210775740Y-60059000D01*
X210864260Y-60059000D01*
X210930442Y-60065518D01*
X210930442Y-60065518D01*
G37*
G36*
X213470442Y-60065518D02*
G01*
X213536627Y-60072037D01*
X213706466Y-60123557D01*
X213862991Y-60207222D01*
X213898729Y-60236552D01*
X214000186Y-60319814D01*
X214083448Y-60421271D01*
X214112778Y-60457009D01*
X214196443Y-60613534D01*
X214247963Y-60783373D01*
X214265359Y-60960000D01*
X214247963Y-61136627D01*
X214196443Y-61306466D01*
X214112778Y-61462991D01*
X214083448Y-61498729D01*
X214000186Y-61600186D01*
X213898729Y-61683448D01*
X213862991Y-61712778D01*
X213706466Y-61796443D01*
X213536627Y-61847963D01*
X213470443Y-61854481D01*
X213404260Y-61861000D01*
X213315740Y-61861000D01*
X213249557Y-61854481D01*
X213183373Y-61847963D01*
X213013534Y-61796443D01*
X212857009Y-61712778D01*
X212821271Y-61683448D01*
X212719814Y-61600186D01*
X212636552Y-61498729D01*
X212607222Y-61462991D01*
X212523557Y-61306466D01*
X212472037Y-61136627D01*
X212454641Y-60960000D01*
X212472037Y-60783373D01*
X212523557Y-60613534D01*
X212607222Y-60457009D01*
X212636552Y-60421271D01*
X212719814Y-60319814D01*
X212821271Y-60236552D01*
X212857009Y-60207222D01*
X213013534Y-60123557D01*
X213183373Y-60072037D01*
X213249558Y-60065518D01*
X213315740Y-60059000D01*
X213404260Y-60059000D01*
X213470442Y-60065518D01*
X213470442Y-60065518D01*
G37*
G36*
X216010442Y-60065518D02*
G01*
X216076627Y-60072037D01*
X216246466Y-60123557D01*
X216402991Y-60207222D01*
X216438729Y-60236552D01*
X216540186Y-60319814D01*
X216623448Y-60421271D01*
X216652778Y-60457009D01*
X216736443Y-60613534D01*
X216787963Y-60783373D01*
X216805359Y-60960000D01*
X216787963Y-61136627D01*
X216736443Y-61306466D01*
X216652778Y-61462991D01*
X216623448Y-61498729D01*
X216540186Y-61600186D01*
X216438729Y-61683448D01*
X216402991Y-61712778D01*
X216246466Y-61796443D01*
X216076627Y-61847963D01*
X216010443Y-61854481D01*
X215944260Y-61861000D01*
X215855740Y-61861000D01*
X215789557Y-61854481D01*
X215723373Y-61847963D01*
X215553534Y-61796443D01*
X215397009Y-61712778D01*
X215361271Y-61683448D01*
X215259814Y-61600186D01*
X215176552Y-61498729D01*
X215147222Y-61462991D01*
X215063557Y-61306466D01*
X215012037Y-61136627D01*
X214994641Y-60960000D01*
X215012037Y-60783373D01*
X215063557Y-60613534D01*
X215147222Y-60457009D01*
X215176552Y-60421271D01*
X215259814Y-60319814D01*
X215361271Y-60236552D01*
X215397009Y-60207222D01*
X215553534Y-60123557D01*
X215723373Y-60072037D01*
X215789558Y-60065518D01*
X215855740Y-60059000D01*
X215944260Y-60059000D01*
X216010442Y-60065518D01*
X216010442Y-60065518D01*
G37*
G36*
X218550442Y-60065518D02*
G01*
X218616627Y-60072037D01*
X218786466Y-60123557D01*
X218942991Y-60207222D01*
X218978729Y-60236552D01*
X219080186Y-60319814D01*
X219163448Y-60421271D01*
X219192778Y-60457009D01*
X219276443Y-60613534D01*
X219327963Y-60783373D01*
X219345359Y-60960000D01*
X219327963Y-61136627D01*
X219276443Y-61306466D01*
X219192778Y-61462991D01*
X219163448Y-61498729D01*
X219080186Y-61600186D01*
X218978729Y-61683448D01*
X218942991Y-61712778D01*
X218786466Y-61796443D01*
X218616627Y-61847963D01*
X218550443Y-61854481D01*
X218484260Y-61861000D01*
X218395740Y-61861000D01*
X218329557Y-61854481D01*
X218263373Y-61847963D01*
X218093534Y-61796443D01*
X217937009Y-61712778D01*
X217901271Y-61683448D01*
X217799814Y-61600186D01*
X217716552Y-61498729D01*
X217687222Y-61462991D01*
X217603557Y-61306466D01*
X217552037Y-61136627D01*
X217534641Y-60960000D01*
X217552037Y-60783373D01*
X217603557Y-60613534D01*
X217687222Y-60457009D01*
X217716552Y-60421271D01*
X217799814Y-60319814D01*
X217901271Y-60236552D01*
X217937009Y-60207222D01*
X218093534Y-60123557D01*
X218263373Y-60072037D01*
X218329558Y-60065518D01*
X218395740Y-60059000D01*
X218484260Y-60059000D01*
X218550442Y-60065518D01*
X218550442Y-60065518D01*
G37*
G36*
X209544228Y-56585703D02*
G01*
X209699100Y-56649853D01*
X209838481Y-56742985D01*
X209957015Y-56861519D01*
X210050147Y-57000900D01*
X210114297Y-57155772D01*
X210147000Y-57320184D01*
X210147000Y-57487816D01*
X210114297Y-57652228D01*
X210050147Y-57807100D01*
X209957015Y-57946481D01*
X209838481Y-58065015D01*
X209699100Y-58158147D01*
X209544228Y-58222297D01*
X209379816Y-58255000D01*
X209212184Y-58255000D01*
X209047772Y-58222297D01*
X208892900Y-58158147D01*
X208753519Y-58065015D01*
X208634985Y-57946481D01*
X208541853Y-57807100D01*
X208477703Y-57652228D01*
X208445000Y-57487816D01*
X208445000Y-57320184D01*
X208477703Y-57155772D01*
X208541853Y-57000900D01*
X208634985Y-56861519D01*
X208753519Y-56742985D01*
X208892900Y-56649853D01*
X209047772Y-56585703D01*
X209212184Y-56553000D01*
X209379816Y-56553000D01*
X209544228Y-56585703D01*
X209544228Y-56585703D01*
G37*
G36*
X201842823Y-56565313D02*
G01*
X202003242Y-56613976D01*
X202070361Y-56649852D01*
X202151078Y-56692996D01*
X202280659Y-56799341D01*
X202387004Y-56928922D01*
X202387005Y-56928924D01*
X202466024Y-57076758D01*
X202514687Y-57237177D01*
X202531117Y-57404000D01*
X202514687Y-57570823D01*
X202466024Y-57731242D01*
X202425477Y-57807100D01*
X202387004Y-57879078D01*
X202280659Y-58008659D01*
X202151078Y-58115004D01*
X202151076Y-58115005D01*
X202003242Y-58194024D01*
X201842823Y-58242687D01*
X201717804Y-58255000D01*
X201634196Y-58255000D01*
X201509177Y-58242687D01*
X201348758Y-58194024D01*
X201200924Y-58115005D01*
X201200922Y-58115004D01*
X201071341Y-58008659D01*
X200964996Y-57879078D01*
X200926523Y-57807100D01*
X200885976Y-57731242D01*
X200837313Y-57570823D01*
X200820883Y-57404000D01*
X200837313Y-57237177D01*
X200885976Y-57076758D01*
X200964995Y-56928924D01*
X200964996Y-56928922D01*
X201071341Y-56799341D01*
X201200922Y-56692996D01*
X201281639Y-56649852D01*
X201348758Y-56613976D01*
X201509177Y-56565313D01*
X201634196Y-56553000D01*
X201717804Y-56553000D01*
X201842823Y-56565313D01*
X201842823Y-56565313D01*
G37*
G36*
X177540228Y-56585703D02*
G01*
X177695100Y-56649853D01*
X177834481Y-56742985D01*
X177953015Y-56861519D01*
X178046147Y-57000900D01*
X178110297Y-57155772D01*
X178143000Y-57320184D01*
X178143000Y-57487816D01*
X178110297Y-57652228D01*
X178046147Y-57807100D01*
X177953015Y-57946481D01*
X177834481Y-58065015D01*
X177695100Y-58158147D01*
X177540228Y-58222297D01*
X177375816Y-58255000D01*
X177208184Y-58255000D01*
X177043772Y-58222297D01*
X176888900Y-58158147D01*
X176749519Y-58065015D01*
X176630985Y-57946481D01*
X176537853Y-57807100D01*
X176473703Y-57652228D01*
X176441000Y-57487816D01*
X176441000Y-57320184D01*
X176473703Y-57155772D01*
X176537853Y-57000900D01*
X176630985Y-56861519D01*
X176749519Y-56742985D01*
X176888900Y-56649853D01*
X177043772Y-56585703D01*
X177208184Y-56553000D01*
X177375816Y-56553000D01*
X177540228Y-56585703D01*
X177540228Y-56585703D01*
G37*
G36*
X198876228Y-56585703D02*
G01*
X199031100Y-56649853D01*
X199170481Y-56742985D01*
X199289015Y-56861519D01*
X199382147Y-57000900D01*
X199446297Y-57155772D01*
X199479000Y-57320184D01*
X199479000Y-57487816D01*
X199446297Y-57652228D01*
X199382147Y-57807100D01*
X199289015Y-57946481D01*
X199170481Y-58065015D01*
X199031100Y-58158147D01*
X198876228Y-58222297D01*
X198711816Y-58255000D01*
X198544184Y-58255000D01*
X198379772Y-58222297D01*
X198224900Y-58158147D01*
X198085519Y-58065015D01*
X197966985Y-57946481D01*
X197873853Y-57807100D01*
X197809703Y-57652228D01*
X197777000Y-57487816D01*
X197777000Y-57320184D01*
X197809703Y-57155772D01*
X197873853Y-57000900D01*
X197966985Y-56861519D01*
X198085519Y-56742985D01*
X198224900Y-56649853D01*
X198379772Y-56585703D01*
X198544184Y-56553000D01*
X198711816Y-56553000D01*
X198876228Y-56585703D01*
X198876228Y-56585703D01*
G37*
G36*
X191174823Y-56565313D02*
G01*
X191335242Y-56613976D01*
X191402361Y-56649852D01*
X191483078Y-56692996D01*
X191612659Y-56799341D01*
X191719004Y-56928922D01*
X191719005Y-56928924D01*
X191798024Y-57076758D01*
X191846687Y-57237177D01*
X191863117Y-57404000D01*
X191846687Y-57570823D01*
X191798024Y-57731242D01*
X191757477Y-57807100D01*
X191719004Y-57879078D01*
X191612659Y-58008659D01*
X191483078Y-58115004D01*
X191483076Y-58115005D01*
X191335242Y-58194024D01*
X191174823Y-58242687D01*
X191049804Y-58255000D01*
X190966196Y-58255000D01*
X190841177Y-58242687D01*
X190680758Y-58194024D01*
X190532924Y-58115005D01*
X190532922Y-58115004D01*
X190403341Y-58008659D01*
X190296996Y-57879078D01*
X190258523Y-57807100D01*
X190217976Y-57731242D01*
X190169313Y-57570823D01*
X190152883Y-57404000D01*
X190169313Y-57237177D01*
X190217976Y-57076758D01*
X190296995Y-56928924D01*
X190296996Y-56928922D01*
X190403341Y-56799341D01*
X190532922Y-56692996D01*
X190613639Y-56649852D01*
X190680758Y-56613976D01*
X190841177Y-56565313D01*
X190966196Y-56553000D01*
X191049804Y-56553000D01*
X191174823Y-56565313D01*
X191174823Y-56565313D01*
G37*
G36*
X159170823Y-56565313D02*
G01*
X159331242Y-56613976D01*
X159398361Y-56649852D01*
X159479078Y-56692996D01*
X159608659Y-56799341D01*
X159715004Y-56928922D01*
X159715005Y-56928924D01*
X159794024Y-57076758D01*
X159842687Y-57237177D01*
X159859117Y-57404000D01*
X159842687Y-57570823D01*
X159794024Y-57731242D01*
X159753477Y-57807100D01*
X159715004Y-57879078D01*
X159608659Y-58008659D01*
X159479078Y-58115004D01*
X159479076Y-58115005D01*
X159331242Y-58194024D01*
X159170823Y-58242687D01*
X159045804Y-58255000D01*
X158962196Y-58255000D01*
X158837177Y-58242687D01*
X158676758Y-58194024D01*
X158528924Y-58115005D01*
X158528922Y-58115004D01*
X158399341Y-58008659D01*
X158292996Y-57879078D01*
X158254523Y-57807100D01*
X158213976Y-57731242D01*
X158165313Y-57570823D01*
X158148883Y-57404000D01*
X158165313Y-57237177D01*
X158213976Y-57076758D01*
X158292995Y-56928924D01*
X158292996Y-56928922D01*
X158399341Y-56799341D01*
X158528922Y-56692996D01*
X158609639Y-56649852D01*
X158676758Y-56613976D01*
X158837177Y-56565313D01*
X158962196Y-56553000D01*
X159045804Y-56553000D01*
X159170823Y-56565313D01*
X159170823Y-56565313D01*
G37*
G36*
X166872228Y-56585703D02*
G01*
X167027100Y-56649853D01*
X167166481Y-56742985D01*
X167285015Y-56861519D01*
X167378147Y-57000900D01*
X167442297Y-57155772D01*
X167475000Y-57320184D01*
X167475000Y-57487816D01*
X167442297Y-57652228D01*
X167378147Y-57807100D01*
X167285015Y-57946481D01*
X167166481Y-58065015D01*
X167027100Y-58158147D01*
X166872228Y-58222297D01*
X166707816Y-58255000D01*
X166540184Y-58255000D01*
X166375772Y-58222297D01*
X166220900Y-58158147D01*
X166081519Y-58065015D01*
X165962985Y-57946481D01*
X165869853Y-57807100D01*
X165805703Y-57652228D01*
X165773000Y-57487816D01*
X165773000Y-57320184D01*
X165805703Y-57155772D01*
X165869853Y-57000900D01*
X165962985Y-56861519D01*
X166081519Y-56742985D01*
X166220900Y-56649853D01*
X166375772Y-56585703D01*
X166540184Y-56553000D01*
X166707816Y-56553000D01*
X166872228Y-56585703D01*
X166872228Y-56585703D01*
G37*
G36*
X180588228Y-56585703D02*
G01*
X180743100Y-56649853D01*
X180882481Y-56742985D01*
X181001015Y-56861519D01*
X181094147Y-57000900D01*
X181158297Y-57155772D01*
X181191000Y-57320184D01*
X181191000Y-57487816D01*
X181158297Y-57652228D01*
X181094147Y-57807100D01*
X181001015Y-57946481D01*
X180882481Y-58065015D01*
X180743100Y-58158147D01*
X180588228Y-58222297D01*
X180423816Y-58255000D01*
X180256184Y-58255000D01*
X180091772Y-58222297D01*
X179936900Y-58158147D01*
X179797519Y-58065015D01*
X179678985Y-57946481D01*
X179585853Y-57807100D01*
X179521703Y-57652228D01*
X179489000Y-57487816D01*
X179489000Y-57320184D01*
X179521703Y-57155772D01*
X179585853Y-57000900D01*
X179678985Y-56861519D01*
X179797519Y-56742985D01*
X179936900Y-56649853D01*
X180091772Y-56585703D01*
X180256184Y-56553000D01*
X180423816Y-56553000D01*
X180588228Y-56585703D01*
X180588228Y-56585703D01*
G37*
G36*
X188126823Y-56565313D02*
G01*
X188287242Y-56613976D01*
X188354361Y-56649852D01*
X188435078Y-56692996D01*
X188564659Y-56799341D01*
X188671004Y-56928922D01*
X188671005Y-56928924D01*
X188750024Y-57076758D01*
X188798687Y-57237177D01*
X188815117Y-57404000D01*
X188798687Y-57570823D01*
X188750024Y-57731242D01*
X188709477Y-57807100D01*
X188671004Y-57879078D01*
X188564659Y-58008659D01*
X188435078Y-58115004D01*
X188435076Y-58115005D01*
X188287242Y-58194024D01*
X188126823Y-58242687D01*
X188001804Y-58255000D01*
X187918196Y-58255000D01*
X187793177Y-58242687D01*
X187632758Y-58194024D01*
X187484924Y-58115005D01*
X187484922Y-58115004D01*
X187355341Y-58008659D01*
X187248996Y-57879078D01*
X187210523Y-57807100D01*
X187169976Y-57731242D01*
X187121313Y-57570823D01*
X187104883Y-57404000D01*
X187121313Y-57237177D01*
X187169976Y-57076758D01*
X187248995Y-56928924D01*
X187248996Y-56928922D01*
X187355341Y-56799341D01*
X187484922Y-56692996D01*
X187565639Y-56649852D01*
X187632758Y-56613976D01*
X187793177Y-56565313D01*
X187918196Y-56553000D01*
X188001804Y-56553000D01*
X188126823Y-56565313D01*
X188126823Y-56565313D01*
G37*
G36*
X169838823Y-56565313D02*
G01*
X169999242Y-56613976D01*
X170066361Y-56649852D01*
X170147078Y-56692996D01*
X170276659Y-56799341D01*
X170383004Y-56928922D01*
X170383005Y-56928924D01*
X170462024Y-57076758D01*
X170510687Y-57237177D01*
X170527117Y-57404000D01*
X170510687Y-57570823D01*
X170462024Y-57731242D01*
X170421477Y-57807100D01*
X170383004Y-57879078D01*
X170276659Y-58008659D01*
X170147078Y-58115004D01*
X170147076Y-58115005D01*
X169999242Y-58194024D01*
X169838823Y-58242687D01*
X169713804Y-58255000D01*
X169630196Y-58255000D01*
X169505177Y-58242687D01*
X169344758Y-58194024D01*
X169196924Y-58115005D01*
X169196922Y-58115004D01*
X169067341Y-58008659D01*
X168960996Y-57879078D01*
X168922523Y-57807100D01*
X168881976Y-57731242D01*
X168833313Y-57570823D01*
X168816883Y-57404000D01*
X168833313Y-57237177D01*
X168881976Y-57076758D01*
X168960995Y-56928924D01*
X168960996Y-56928922D01*
X169067341Y-56799341D01*
X169196922Y-56692996D01*
X169277639Y-56649852D01*
X169344758Y-56613976D01*
X169505177Y-56565313D01*
X169630196Y-56553000D01*
X169713804Y-56553000D01*
X169838823Y-56565313D01*
X169838823Y-56565313D01*
G37*
G36*
X156204228Y-56585703D02*
G01*
X156359100Y-56649853D01*
X156498481Y-56742985D01*
X156617015Y-56861519D01*
X156710147Y-57000900D01*
X156774297Y-57155772D01*
X156807000Y-57320184D01*
X156807000Y-57487816D01*
X156774297Y-57652228D01*
X156710147Y-57807100D01*
X156617015Y-57946481D01*
X156498481Y-58065015D01*
X156359100Y-58158147D01*
X156204228Y-58222297D01*
X156039816Y-58255000D01*
X155872184Y-58255000D01*
X155707772Y-58222297D01*
X155552900Y-58158147D01*
X155413519Y-58065015D01*
X155294985Y-57946481D01*
X155201853Y-57807100D01*
X155137703Y-57652228D01*
X155105000Y-57487816D01*
X155105000Y-57320184D01*
X155137703Y-57155772D01*
X155201853Y-57000900D01*
X155294985Y-56861519D01*
X155413519Y-56742985D01*
X155552900Y-56649853D01*
X155707772Y-56585703D01*
X155872184Y-56553000D01*
X156039816Y-56553000D01*
X156204228Y-56585703D01*
X156204228Y-56585703D01*
G37*
G36*
X148502823Y-56565313D02*
G01*
X148663242Y-56613976D01*
X148730361Y-56649852D01*
X148811078Y-56692996D01*
X148940659Y-56799341D01*
X149047004Y-56928922D01*
X149047005Y-56928924D01*
X149126024Y-57076758D01*
X149174687Y-57237177D01*
X149191117Y-57404000D01*
X149174687Y-57570823D01*
X149126024Y-57731242D01*
X149085477Y-57807100D01*
X149047004Y-57879078D01*
X148940659Y-58008659D01*
X148811078Y-58115004D01*
X148811076Y-58115005D01*
X148663242Y-58194024D01*
X148502823Y-58242687D01*
X148377804Y-58255000D01*
X148294196Y-58255000D01*
X148169177Y-58242687D01*
X148008758Y-58194024D01*
X147860924Y-58115005D01*
X147860922Y-58115004D01*
X147731341Y-58008659D01*
X147624996Y-57879078D01*
X147586523Y-57807100D01*
X147545976Y-57731242D01*
X147497313Y-57570823D01*
X147480883Y-57404000D01*
X147497313Y-57237177D01*
X147545976Y-57076758D01*
X147624995Y-56928924D01*
X147624996Y-56928922D01*
X147731341Y-56799341D01*
X147860922Y-56692996D01*
X147941639Y-56649852D01*
X148008758Y-56613976D01*
X148169177Y-56565313D01*
X148294196Y-56553000D01*
X148377804Y-56553000D01*
X148502823Y-56565313D01*
X148502823Y-56565313D01*
G37*
G36*
X212510823Y-52501313D02*
G01*
X212671242Y-52549976D01*
X212738361Y-52585852D01*
X212819078Y-52628996D01*
X212948659Y-52735341D01*
X213055004Y-52864922D01*
X213055005Y-52864924D01*
X213134024Y-53012758D01*
X213182687Y-53173177D01*
X213199117Y-53340000D01*
X213182687Y-53506823D01*
X213134024Y-53667242D01*
X213093477Y-53743100D01*
X213055004Y-53815078D01*
X212948659Y-53944659D01*
X212819078Y-54051004D01*
X212819076Y-54051005D01*
X212671242Y-54130024D01*
X212510823Y-54178687D01*
X212385804Y-54191000D01*
X212302196Y-54191000D01*
X212177177Y-54178687D01*
X212016758Y-54130024D01*
X211868924Y-54051005D01*
X211868922Y-54051004D01*
X211739341Y-53944659D01*
X211632996Y-53815078D01*
X211594523Y-53743100D01*
X211553976Y-53667242D01*
X211505313Y-53506823D01*
X211488883Y-53340000D01*
X211505313Y-53173177D01*
X211553976Y-53012758D01*
X211632995Y-52864924D01*
X211632996Y-52864922D01*
X211739341Y-52735341D01*
X211868922Y-52628996D01*
X211949639Y-52585852D01*
X212016758Y-52549976D01*
X212177177Y-52501313D01*
X212302196Y-52489000D01*
X212385804Y-52489000D01*
X212510823Y-52501313D01*
X212510823Y-52501313D01*
G37*
G36*
X220212228Y-52521703D02*
G01*
X220367100Y-52585853D01*
X220506481Y-52678985D01*
X220625015Y-52797519D01*
X220718147Y-52936900D01*
X220782297Y-53091772D01*
X220815000Y-53256184D01*
X220815000Y-53423816D01*
X220782297Y-53588228D01*
X220718147Y-53743100D01*
X220625015Y-53882481D01*
X220506481Y-54001015D01*
X220367100Y-54094147D01*
X220212228Y-54158297D01*
X220047816Y-54191000D01*
X219880184Y-54191000D01*
X219715772Y-54158297D01*
X219560900Y-54094147D01*
X219421519Y-54001015D01*
X219302985Y-53882481D01*
X219209853Y-53743100D01*
X219145703Y-53588228D01*
X219113000Y-53423816D01*
X219113000Y-53256184D01*
X219145703Y-53091772D01*
X219209853Y-52936900D01*
X219302985Y-52797519D01*
X219421519Y-52678985D01*
X219560900Y-52585853D01*
X219715772Y-52521703D01*
X219880184Y-52489000D01*
X220047816Y-52489000D01*
X220212228Y-52521703D01*
X220212228Y-52521703D01*
G37*
G36*
X209544228Y-52521703D02*
G01*
X209699100Y-52585853D01*
X209838481Y-52678985D01*
X209957015Y-52797519D01*
X210050147Y-52936900D01*
X210114297Y-53091772D01*
X210147000Y-53256184D01*
X210147000Y-53423816D01*
X210114297Y-53588228D01*
X210050147Y-53743100D01*
X209957015Y-53882481D01*
X209838481Y-54001015D01*
X209699100Y-54094147D01*
X209544228Y-54158297D01*
X209379816Y-54191000D01*
X209212184Y-54191000D01*
X209047772Y-54158297D01*
X208892900Y-54094147D01*
X208753519Y-54001015D01*
X208634985Y-53882481D01*
X208541853Y-53743100D01*
X208477703Y-53588228D01*
X208445000Y-53423816D01*
X208445000Y-53256184D01*
X208477703Y-53091772D01*
X208541853Y-52936900D01*
X208634985Y-52797519D01*
X208753519Y-52678985D01*
X208892900Y-52585853D01*
X209047772Y-52521703D01*
X209212184Y-52489000D01*
X209379816Y-52489000D01*
X209544228Y-52521703D01*
X209544228Y-52521703D01*
G37*
G36*
X201842823Y-52501313D02*
G01*
X202003242Y-52549976D01*
X202070361Y-52585852D01*
X202151078Y-52628996D01*
X202280659Y-52735341D01*
X202387004Y-52864922D01*
X202387005Y-52864924D01*
X202466024Y-53012758D01*
X202514687Y-53173177D01*
X202531117Y-53340000D01*
X202514687Y-53506823D01*
X202466024Y-53667242D01*
X202425477Y-53743100D01*
X202387004Y-53815078D01*
X202280659Y-53944659D01*
X202151078Y-54051004D01*
X202151076Y-54051005D01*
X202003242Y-54130024D01*
X201842823Y-54178687D01*
X201717804Y-54191000D01*
X201634196Y-54191000D01*
X201509177Y-54178687D01*
X201348758Y-54130024D01*
X201200924Y-54051005D01*
X201200922Y-54051004D01*
X201071341Y-53944659D01*
X200964996Y-53815078D01*
X200926523Y-53743100D01*
X200885976Y-53667242D01*
X200837313Y-53506823D01*
X200820883Y-53340000D01*
X200837313Y-53173177D01*
X200885976Y-53012758D01*
X200964995Y-52864924D01*
X200964996Y-52864922D01*
X201071341Y-52735341D01*
X201200922Y-52628996D01*
X201281639Y-52585852D01*
X201348758Y-52549976D01*
X201509177Y-52501313D01*
X201634196Y-52489000D01*
X201717804Y-52489000D01*
X201842823Y-52501313D01*
X201842823Y-52501313D01*
G37*
G36*
X159170823Y-52501313D02*
G01*
X159331242Y-52549976D01*
X159398361Y-52585852D01*
X159479078Y-52628996D01*
X159608659Y-52735341D01*
X159715004Y-52864922D01*
X159715005Y-52864924D01*
X159794024Y-53012758D01*
X159842687Y-53173177D01*
X159859117Y-53340000D01*
X159842687Y-53506823D01*
X159794024Y-53667242D01*
X159753477Y-53743100D01*
X159715004Y-53815078D01*
X159608659Y-53944659D01*
X159479078Y-54051004D01*
X159479076Y-54051005D01*
X159331242Y-54130024D01*
X159170823Y-54178687D01*
X159045804Y-54191000D01*
X158962196Y-54191000D01*
X158837177Y-54178687D01*
X158676758Y-54130024D01*
X158528924Y-54051005D01*
X158528922Y-54051004D01*
X158399341Y-53944659D01*
X158292996Y-53815078D01*
X158254523Y-53743100D01*
X158213976Y-53667242D01*
X158165313Y-53506823D01*
X158148883Y-53340000D01*
X158165313Y-53173177D01*
X158213976Y-53012758D01*
X158292995Y-52864924D01*
X158292996Y-52864922D01*
X158399341Y-52735341D01*
X158528922Y-52628996D01*
X158609639Y-52585852D01*
X158676758Y-52549976D01*
X158837177Y-52501313D01*
X158962196Y-52489000D01*
X159045804Y-52489000D01*
X159170823Y-52501313D01*
X159170823Y-52501313D01*
G37*
G36*
X148502823Y-52501313D02*
G01*
X148663242Y-52549976D01*
X148730361Y-52585852D01*
X148811078Y-52628996D01*
X148940659Y-52735341D01*
X149047004Y-52864922D01*
X149047005Y-52864924D01*
X149126024Y-53012758D01*
X149174687Y-53173177D01*
X149191117Y-53340000D01*
X149174687Y-53506823D01*
X149126024Y-53667242D01*
X149085477Y-53743100D01*
X149047004Y-53815078D01*
X148940659Y-53944659D01*
X148811078Y-54051004D01*
X148811076Y-54051005D01*
X148663242Y-54130024D01*
X148502823Y-54178687D01*
X148377804Y-54191000D01*
X148294196Y-54191000D01*
X148169177Y-54178687D01*
X148008758Y-54130024D01*
X147860924Y-54051005D01*
X147860922Y-54051004D01*
X147731341Y-53944659D01*
X147624996Y-53815078D01*
X147586523Y-53743100D01*
X147545976Y-53667242D01*
X147497313Y-53506823D01*
X147480883Y-53340000D01*
X147497313Y-53173177D01*
X147545976Y-53012758D01*
X147624995Y-52864924D01*
X147624996Y-52864922D01*
X147731341Y-52735341D01*
X147860922Y-52628996D01*
X147941639Y-52585852D01*
X148008758Y-52549976D01*
X148169177Y-52501313D01*
X148294196Y-52489000D01*
X148377804Y-52489000D01*
X148502823Y-52501313D01*
X148502823Y-52501313D01*
G37*
G36*
X191174823Y-52501313D02*
G01*
X191335242Y-52549976D01*
X191402361Y-52585852D01*
X191483078Y-52628996D01*
X191612659Y-52735341D01*
X191719004Y-52864922D01*
X191719005Y-52864924D01*
X191798024Y-53012758D01*
X191846687Y-53173177D01*
X191863117Y-53340000D01*
X191846687Y-53506823D01*
X191798024Y-53667242D01*
X191757477Y-53743100D01*
X191719004Y-53815078D01*
X191612659Y-53944659D01*
X191483078Y-54051004D01*
X191483076Y-54051005D01*
X191335242Y-54130024D01*
X191174823Y-54178687D01*
X191049804Y-54191000D01*
X190966196Y-54191000D01*
X190841177Y-54178687D01*
X190680758Y-54130024D01*
X190532924Y-54051005D01*
X190532922Y-54051004D01*
X190403341Y-53944659D01*
X190296996Y-53815078D01*
X190258523Y-53743100D01*
X190217976Y-53667242D01*
X190169313Y-53506823D01*
X190152883Y-53340000D01*
X190169313Y-53173177D01*
X190217976Y-53012758D01*
X190296995Y-52864924D01*
X190296996Y-52864922D01*
X190403341Y-52735341D01*
X190532922Y-52628996D01*
X190613639Y-52585852D01*
X190680758Y-52549976D01*
X190841177Y-52501313D01*
X190966196Y-52489000D01*
X191049804Y-52489000D01*
X191174823Y-52501313D01*
X191174823Y-52501313D01*
G37*
G36*
X156204228Y-52521703D02*
G01*
X156359100Y-52585853D01*
X156498481Y-52678985D01*
X156617015Y-52797519D01*
X156710147Y-52936900D01*
X156774297Y-53091772D01*
X156807000Y-53256184D01*
X156807000Y-53423816D01*
X156774297Y-53588228D01*
X156710147Y-53743100D01*
X156617015Y-53882481D01*
X156498481Y-54001015D01*
X156359100Y-54094147D01*
X156204228Y-54158297D01*
X156039816Y-54191000D01*
X155872184Y-54191000D01*
X155707772Y-54158297D01*
X155552900Y-54094147D01*
X155413519Y-54001015D01*
X155294985Y-53882481D01*
X155201853Y-53743100D01*
X155137703Y-53588228D01*
X155105000Y-53423816D01*
X155105000Y-53256184D01*
X155137703Y-53091772D01*
X155201853Y-52936900D01*
X155294985Y-52797519D01*
X155413519Y-52678985D01*
X155552900Y-52585853D01*
X155707772Y-52521703D01*
X155872184Y-52489000D01*
X156039816Y-52489000D01*
X156204228Y-52521703D01*
X156204228Y-52521703D01*
G37*
G36*
X180588228Y-52521703D02*
G01*
X180743100Y-52585853D01*
X180882481Y-52678985D01*
X181001015Y-52797519D01*
X181094147Y-52936900D01*
X181158297Y-53091772D01*
X181191000Y-53256184D01*
X181191000Y-53423816D01*
X181158297Y-53588228D01*
X181094147Y-53743100D01*
X181001015Y-53882481D01*
X180882481Y-54001015D01*
X180743100Y-54094147D01*
X180588228Y-54158297D01*
X180423816Y-54191000D01*
X180256184Y-54191000D01*
X180091772Y-54158297D01*
X179936900Y-54094147D01*
X179797519Y-54001015D01*
X179678985Y-53882481D01*
X179585853Y-53743100D01*
X179521703Y-53588228D01*
X179489000Y-53423816D01*
X179489000Y-53256184D01*
X179521703Y-53091772D01*
X179585853Y-52936900D01*
X179678985Y-52797519D01*
X179797519Y-52678985D01*
X179936900Y-52585853D01*
X180091772Y-52521703D01*
X180256184Y-52489000D01*
X180423816Y-52489000D01*
X180588228Y-52521703D01*
X180588228Y-52521703D01*
G37*
G36*
X177540228Y-52521703D02*
G01*
X177695100Y-52585853D01*
X177834481Y-52678985D01*
X177953015Y-52797519D01*
X178046147Y-52936900D01*
X178110297Y-53091772D01*
X178143000Y-53256184D01*
X178143000Y-53423816D01*
X178110297Y-53588228D01*
X178046147Y-53743100D01*
X177953015Y-53882481D01*
X177834481Y-54001015D01*
X177695100Y-54094147D01*
X177540228Y-54158297D01*
X177375816Y-54191000D01*
X177208184Y-54191000D01*
X177043772Y-54158297D01*
X176888900Y-54094147D01*
X176749519Y-54001015D01*
X176630985Y-53882481D01*
X176537853Y-53743100D01*
X176473703Y-53588228D01*
X176441000Y-53423816D01*
X176441000Y-53256184D01*
X176473703Y-53091772D01*
X176537853Y-52936900D01*
X176630985Y-52797519D01*
X176749519Y-52678985D01*
X176888900Y-52585853D01*
X177043772Y-52521703D01*
X177208184Y-52489000D01*
X177375816Y-52489000D01*
X177540228Y-52521703D01*
X177540228Y-52521703D01*
G37*
G36*
X169838823Y-52501313D02*
G01*
X169999242Y-52549976D01*
X170066361Y-52585852D01*
X170147078Y-52628996D01*
X170276659Y-52735341D01*
X170383004Y-52864922D01*
X170383005Y-52864924D01*
X170462024Y-53012758D01*
X170510687Y-53173177D01*
X170527117Y-53340000D01*
X170510687Y-53506823D01*
X170462024Y-53667242D01*
X170421477Y-53743100D01*
X170383004Y-53815078D01*
X170276659Y-53944659D01*
X170147078Y-54051004D01*
X170147076Y-54051005D01*
X169999242Y-54130024D01*
X169838823Y-54178687D01*
X169713804Y-54191000D01*
X169630196Y-54191000D01*
X169505177Y-54178687D01*
X169344758Y-54130024D01*
X169196924Y-54051005D01*
X169196922Y-54051004D01*
X169067341Y-53944659D01*
X168960996Y-53815078D01*
X168922523Y-53743100D01*
X168881976Y-53667242D01*
X168833313Y-53506823D01*
X168816883Y-53340000D01*
X168833313Y-53173177D01*
X168881976Y-53012758D01*
X168960995Y-52864924D01*
X168960996Y-52864922D01*
X169067341Y-52735341D01*
X169196922Y-52628996D01*
X169277639Y-52585852D01*
X169344758Y-52549976D01*
X169505177Y-52501313D01*
X169630196Y-52489000D01*
X169713804Y-52489000D01*
X169838823Y-52501313D01*
X169838823Y-52501313D01*
G37*
G36*
X198876228Y-52521703D02*
G01*
X199031100Y-52585853D01*
X199170481Y-52678985D01*
X199289015Y-52797519D01*
X199382147Y-52936900D01*
X199446297Y-53091772D01*
X199479000Y-53256184D01*
X199479000Y-53423816D01*
X199446297Y-53588228D01*
X199382147Y-53743100D01*
X199289015Y-53882481D01*
X199170481Y-54001015D01*
X199031100Y-54094147D01*
X198876228Y-54158297D01*
X198711816Y-54191000D01*
X198544184Y-54191000D01*
X198379772Y-54158297D01*
X198224900Y-54094147D01*
X198085519Y-54001015D01*
X197966985Y-53882481D01*
X197873853Y-53743100D01*
X197809703Y-53588228D01*
X197777000Y-53423816D01*
X197777000Y-53256184D01*
X197809703Y-53091772D01*
X197873853Y-52936900D01*
X197966985Y-52797519D01*
X198085519Y-52678985D01*
X198224900Y-52585853D01*
X198379772Y-52521703D01*
X198544184Y-52489000D01*
X198711816Y-52489000D01*
X198876228Y-52521703D01*
X198876228Y-52521703D01*
G37*
G36*
X166872228Y-52521703D02*
G01*
X167027100Y-52585853D01*
X167166481Y-52678985D01*
X167285015Y-52797519D01*
X167378147Y-52936900D01*
X167442297Y-53091772D01*
X167475000Y-53256184D01*
X167475000Y-53423816D01*
X167442297Y-53588228D01*
X167378147Y-53743100D01*
X167285015Y-53882481D01*
X167166481Y-54001015D01*
X167027100Y-54094147D01*
X166872228Y-54158297D01*
X166707816Y-54191000D01*
X166540184Y-54191000D01*
X166375772Y-54158297D01*
X166220900Y-54094147D01*
X166081519Y-54001015D01*
X165962985Y-53882481D01*
X165869853Y-53743100D01*
X165805703Y-53588228D01*
X165773000Y-53423816D01*
X165773000Y-53256184D01*
X165805703Y-53091772D01*
X165869853Y-52936900D01*
X165962985Y-52797519D01*
X166081519Y-52678985D01*
X166220900Y-52585853D01*
X166375772Y-52521703D01*
X166540184Y-52489000D01*
X166707816Y-52489000D01*
X166872228Y-52521703D01*
X166872228Y-52521703D01*
G37*
G36*
X188126823Y-52501313D02*
G01*
X188287242Y-52549976D01*
X188354361Y-52585852D01*
X188435078Y-52628996D01*
X188564659Y-52735341D01*
X188671004Y-52864922D01*
X188671005Y-52864924D01*
X188750024Y-53012758D01*
X188798687Y-53173177D01*
X188815117Y-53340000D01*
X188798687Y-53506823D01*
X188750024Y-53667242D01*
X188709477Y-53743100D01*
X188671004Y-53815078D01*
X188564659Y-53944659D01*
X188435078Y-54051004D01*
X188435076Y-54051005D01*
X188287242Y-54130024D01*
X188126823Y-54178687D01*
X188001804Y-54191000D01*
X187918196Y-54191000D01*
X187793177Y-54178687D01*
X187632758Y-54130024D01*
X187484924Y-54051005D01*
X187484922Y-54051004D01*
X187355341Y-53944659D01*
X187248996Y-53815078D01*
X187210523Y-53743100D01*
X187169976Y-53667242D01*
X187121313Y-53506823D01*
X187104883Y-53340000D01*
X187121313Y-53173177D01*
X187169976Y-53012758D01*
X187248995Y-52864924D01*
X187248996Y-52864922D01*
X187355341Y-52735341D01*
X187484922Y-52628996D01*
X187565639Y-52585852D01*
X187632758Y-52549976D01*
X187793177Y-52501313D01*
X187918196Y-52489000D01*
X188001804Y-52489000D01*
X188126823Y-52501313D01*
X188126823Y-52501313D01*
G37*
G36*
X209544228Y-48457703D02*
G01*
X209699100Y-48521853D01*
X209838481Y-48614985D01*
X209957015Y-48733519D01*
X210050147Y-48872900D01*
X210114297Y-49027772D01*
X210147000Y-49192184D01*
X210147000Y-49359816D01*
X210114297Y-49524228D01*
X210050147Y-49679100D01*
X209957015Y-49818481D01*
X209838481Y-49937015D01*
X209699100Y-50030147D01*
X209544228Y-50094297D01*
X209379816Y-50127000D01*
X209212184Y-50127000D01*
X209047772Y-50094297D01*
X208892900Y-50030147D01*
X208753519Y-49937015D01*
X208634985Y-49818481D01*
X208541853Y-49679100D01*
X208477703Y-49524228D01*
X208445000Y-49359816D01*
X208445000Y-49192184D01*
X208477703Y-49027772D01*
X208541853Y-48872900D01*
X208634985Y-48733519D01*
X208753519Y-48614985D01*
X208892900Y-48521853D01*
X209047772Y-48457703D01*
X209212184Y-48425000D01*
X209379816Y-48425000D01*
X209544228Y-48457703D01*
X209544228Y-48457703D01*
G37*
G36*
X212510823Y-48437313D02*
G01*
X212671242Y-48485976D01*
X212738361Y-48521852D01*
X212819078Y-48564996D01*
X212948659Y-48671341D01*
X213055004Y-48800922D01*
X213055005Y-48800924D01*
X213134024Y-48948758D01*
X213182687Y-49109177D01*
X213199117Y-49276000D01*
X213182687Y-49442823D01*
X213134024Y-49603242D01*
X213093477Y-49679100D01*
X213055004Y-49751078D01*
X212948659Y-49880659D01*
X212819078Y-49987004D01*
X212819076Y-49987005D01*
X212671242Y-50066024D01*
X212510823Y-50114687D01*
X212385804Y-50127000D01*
X212302196Y-50127000D01*
X212177177Y-50114687D01*
X212016758Y-50066024D01*
X211868924Y-49987005D01*
X211868922Y-49987004D01*
X211739341Y-49880659D01*
X211632996Y-49751078D01*
X211594523Y-49679100D01*
X211553976Y-49603242D01*
X211505313Y-49442823D01*
X211488883Y-49276000D01*
X211505313Y-49109177D01*
X211553976Y-48948758D01*
X211632995Y-48800924D01*
X211632996Y-48800922D01*
X211739341Y-48671341D01*
X211868922Y-48564996D01*
X211949639Y-48521852D01*
X212016758Y-48485976D01*
X212177177Y-48437313D01*
X212302196Y-48425000D01*
X212385804Y-48425000D01*
X212510823Y-48437313D01*
X212510823Y-48437313D01*
G37*
G36*
X201842823Y-48437313D02*
G01*
X202003242Y-48485976D01*
X202070361Y-48521852D01*
X202151078Y-48564996D01*
X202280659Y-48671341D01*
X202387004Y-48800922D01*
X202387005Y-48800924D01*
X202466024Y-48948758D01*
X202514687Y-49109177D01*
X202531117Y-49276000D01*
X202514687Y-49442823D01*
X202466024Y-49603242D01*
X202425477Y-49679100D01*
X202387004Y-49751078D01*
X202280659Y-49880659D01*
X202151078Y-49987004D01*
X202151076Y-49987005D01*
X202003242Y-50066024D01*
X201842823Y-50114687D01*
X201717804Y-50127000D01*
X201634196Y-50127000D01*
X201509177Y-50114687D01*
X201348758Y-50066024D01*
X201200924Y-49987005D01*
X201200922Y-49987004D01*
X201071341Y-49880659D01*
X200964996Y-49751078D01*
X200926523Y-49679100D01*
X200885976Y-49603242D01*
X200837313Y-49442823D01*
X200820883Y-49276000D01*
X200837313Y-49109177D01*
X200885976Y-48948758D01*
X200964995Y-48800924D01*
X200964996Y-48800922D01*
X201071341Y-48671341D01*
X201200922Y-48564996D01*
X201281639Y-48521852D01*
X201348758Y-48485976D01*
X201509177Y-48437313D01*
X201634196Y-48425000D01*
X201717804Y-48425000D01*
X201842823Y-48437313D01*
X201842823Y-48437313D01*
G37*
G36*
X191174823Y-48437313D02*
G01*
X191335242Y-48485976D01*
X191402361Y-48521852D01*
X191483078Y-48564996D01*
X191612659Y-48671341D01*
X191719004Y-48800922D01*
X191719005Y-48800924D01*
X191798024Y-48948758D01*
X191846687Y-49109177D01*
X191863117Y-49276000D01*
X191846687Y-49442823D01*
X191798024Y-49603242D01*
X191757477Y-49679100D01*
X191719004Y-49751078D01*
X191612659Y-49880659D01*
X191483078Y-49987004D01*
X191483076Y-49987005D01*
X191335242Y-50066024D01*
X191174823Y-50114687D01*
X191049804Y-50127000D01*
X190966196Y-50127000D01*
X190841177Y-50114687D01*
X190680758Y-50066024D01*
X190532924Y-49987005D01*
X190532922Y-49987004D01*
X190403341Y-49880659D01*
X190296996Y-49751078D01*
X190258523Y-49679100D01*
X190217976Y-49603242D01*
X190169313Y-49442823D01*
X190152883Y-49276000D01*
X190169313Y-49109177D01*
X190217976Y-48948758D01*
X190296995Y-48800924D01*
X190296996Y-48800922D01*
X190403341Y-48671341D01*
X190532922Y-48564996D01*
X190613639Y-48521852D01*
X190680758Y-48485976D01*
X190841177Y-48437313D01*
X190966196Y-48425000D01*
X191049804Y-48425000D01*
X191174823Y-48437313D01*
X191174823Y-48437313D01*
G37*
G36*
X180506823Y-48437313D02*
G01*
X180667242Y-48485976D01*
X180734361Y-48521852D01*
X180815078Y-48564996D01*
X180944659Y-48671341D01*
X181051004Y-48800922D01*
X181051005Y-48800924D01*
X181130024Y-48948758D01*
X181178687Y-49109177D01*
X181195117Y-49276000D01*
X181178687Y-49442823D01*
X181130024Y-49603242D01*
X181089477Y-49679100D01*
X181051004Y-49751078D01*
X180944659Y-49880659D01*
X180815078Y-49987004D01*
X180815076Y-49987005D01*
X180667242Y-50066024D01*
X180506823Y-50114687D01*
X180381804Y-50127000D01*
X180298196Y-50127000D01*
X180173177Y-50114687D01*
X180012758Y-50066024D01*
X179864924Y-49987005D01*
X179864922Y-49987004D01*
X179735341Y-49880659D01*
X179628996Y-49751078D01*
X179590523Y-49679100D01*
X179549976Y-49603242D01*
X179501313Y-49442823D01*
X179484883Y-49276000D01*
X179501313Y-49109177D01*
X179549976Y-48948758D01*
X179628995Y-48800924D01*
X179628996Y-48800922D01*
X179735341Y-48671341D01*
X179864922Y-48564996D01*
X179945639Y-48521852D01*
X180012758Y-48485976D01*
X180173177Y-48437313D01*
X180298196Y-48425000D01*
X180381804Y-48425000D01*
X180506823Y-48437313D01*
X180506823Y-48437313D01*
G37*
G36*
X188208228Y-48457703D02*
G01*
X188363100Y-48521853D01*
X188502481Y-48614985D01*
X188621015Y-48733519D01*
X188714147Y-48872900D01*
X188778297Y-49027772D01*
X188811000Y-49192184D01*
X188811000Y-49359816D01*
X188778297Y-49524228D01*
X188714147Y-49679100D01*
X188621015Y-49818481D01*
X188502481Y-49937015D01*
X188363100Y-50030147D01*
X188208228Y-50094297D01*
X188043816Y-50127000D01*
X187876184Y-50127000D01*
X187711772Y-50094297D01*
X187556900Y-50030147D01*
X187417519Y-49937015D01*
X187298985Y-49818481D01*
X187205853Y-49679100D01*
X187141703Y-49524228D01*
X187109000Y-49359816D01*
X187109000Y-49192184D01*
X187141703Y-49027772D01*
X187205853Y-48872900D01*
X187298985Y-48733519D01*
X187417519Y-48614985D01*
X187556900Y-48521853D01*
X187711772Y-48457703D01*
X187876184Y-48425000D01*
X188043816Y-48425000D01*
X188208228Y-48457703D01*
X188208228Y-48457703D01*
G37*
G36*
X220212228Y-48457703D02*
G01*
X220367100Y-48521853D01*
X220506481Y-48614985D01*
X220625015Y-48733519D01*
X220718147Y-48872900D01*
X220782297Y-49027772D01*
X220815000Y-49192184D01*
X220815000Y-49359816D01*
X220782297Y-49524228D01*
X220718147Y-49679100D01*
X220625015Y-49818481D01*
X220506481Y-49937015D01*
X220367100Y-50030147D01*
X220212228Y-50094297D01*
X220047816Y-50127000D01*
X219880184Y-50127000D01*
X219715772Y-50094297D01*
X219560900Y-50030147D01*
X219421519Y-49937015D01*
X219302985Y-49818481D01*
X219209853Y-49679100D01*
X219145703Y-49524228D01*
X219113000Y-49359816D01*
X219113000Y-49192184D01*
X219145703Y-49027772D01*
X219209853Y-48872900D01*
X219302985Y-48733519D01*
X219421519Y-48614985D01*
X219560900Y-48521853D01*
X219715772Y-48457703D01*
X219880184Y-48425000D01*
X220047816Y-48425000D01*
X220212228Y-48457703D01*
X220212228Y-48457703D01*
G37*
G36*
X156204228Y-48457703D02*
G01*
X156359100Y-48521853D01*
X156498481Y-48614985D01*
X156617015Y-48733519D01*
X156710147Y-48872900D01*
X156774297Y-49027772D01*
X156807000Y-49192184D01*
X156807000Y-49359816D01*
X156774297Y-49524228D01*
X156710147Y-49679100D01*
X156617015Y-49818481D01*
X156498481Y-49937015D01*
X156359100Y-50030147D01*
X156204228Y-50094297D01*
X156039816Y-50127000D01*
X155872184Y-50127000D01*
X155707772Y-50094297D01*
X155552900Y-50030147D01*
X155413519Y-49937015D01*
X155294985Y-49818481D01*
X155201853Y-49679100D01*
X155137703Y-49524228D01*
X155105000Y-49359816D01*
X155105000Y-49192184D01*
X155137703Y-49027772D01*
X155201853Y-48872900D01*
X155294985Y-48733519D01*
X155413519Y-48614985D01*
X155552900Y-48521853D01*
X155707772Y-48457703D01*
X155872184Y-48425000D01*
X156039816Y-48425000D01*
X156204228Y-48457703D01*
X156204228Y-48457703D01*
G37*
G36*
X177540228Y-48457703D02*
G01*
X177695100Y-48521853D01*
X177834481Y-48614985D01*
X177953015Y-48733519D01*
X178046147Y-48872900D01*
X178110297Y-49027772D01*
X178143000Y-49192184D01*
X178143000Y-49359816D01*
X178110297Y-49524228D01*
X178046147Y-49679100D01*
X177953015Y-49818481D01*
X177834481Y-49937015D01*
X177695100Y-50030147D01*
X177540228Y-50094297D01*
X177375816Y-50127000D01*
X177208184Y-50127000D01*
X177043772Y-50094297D01*
X176888900Y-50030147D01*
X176749519Y-49937015D01*
X176630985Y-49818481D01*
X176537853Y-49679100D01*
X176473703Y-49524228D01*
X176441000Y-49359816D01*
X176441000Y-49192184D01*
X176473703Y-49027772D01*
X176537853Y-48872900D01*
X176630985Y-48733519D01*
X176749519Y-48614985D01*
X176888900Y-48521853D01*
X177043772Y-48457703D01*
X177208184Y-48425000D01*
X177375816Y-48425000D01*
X177540228Y-48457703D01*
X177540228Y-48457703D01*
G37*
G36*
X148502823Y-48437313D02*
G01*
X148663242Y-48485976D01*
X148730361Y-48521852D01*
X148811078Y-48564996D01*
X148940659Y-48671341D01*
X149047004Y-48800922D01*
X149047005Y-48800924D01*
X149126024Y-48948758D01*
X149174687Y-49109177D01*
X149191117Y-49276000D01*
X149174687Y-49442823D01*
X149126024Y-49603242D01*
X149085477Y-49679100D01*
X149047004Y-49751078D01*
X148940659Y-49880659D01*
X148811078Y-49987004D01*
X148811076Y-49987005D01*
X148663242Y-50066024D01*
X148502823Y-50114687D01*
X148377804Y-50127000D01*
X148294196Y-50127000D01*
X148169177Y-50114687D01*
X148008758Y-50066024D01*
X147860924Y-49987005D01*
X147860922Y-49987004D01*
X147731341Y-49880659D01*
X147624996Y-49751078D01*
X147586523Y-49679100D01*
X147545976Y-49603242D01*
X147497313Y-49442823D01*
X147480883Y-49276000D01*
X147497313Y-49109177D01*
X147545976Y-48948758D01*
X147624995Y-48800924D01*
X147624996Y-48800922D01*
X147731341Y-48671341D01*
X147860922Y-48564996D01*
X147941639Y-48521852D01*
X148008758Y-48485976D01*
X148169177Y-48437313D01*
X148294196Y-48425000D01*
X148377804Y-48425000D01*
X148502823Y-48437313D01*
X148502823Y-48437313D01*
G37*
G36*
X159170823Y-48437313D02*
G01*
X159331242Y-48485976D01*
X159398361Y-48521852D01*
X159479078Y-48564996D01*
X159608659Y-48671341D01*
X159715004Y-48800922D01*
X159715005Y-48800924D01*
X159794024Y-48948758D01*
X159842687Y-49109177D01*
X159859117Y-49276000D01*
X159842687Y-49442823D01*
X159794024Y-49603242D01*
X159753477Y-49679100D01*
X159715004Y-49751078D01*
X159608659Y-49880659D01*
X159479078Y-49987004D01*
X159479076Y-49987005D01*
X159331242Y-50066024D01*
X159170823Y-50114687D01*
X159045804Y-50127000D01*
X158962196Y-50127000D01*
X158837177Y-50114687D01*
X158676758Y-50066024D01*
X158528924Y-49987005D01*
X158528922Y-49987004D01*
X158399341Y-49880659D01*
X158292996Y-49751078D01*
X158254523Y-49679100D01*
X158213976Y-49603242D01*
X158165313Y-49442823D01*
X158148883Y-49276000D01*
X158165313Y-49109177D01*
X158213976Y-48948758D01*
X158292995Y-48800924D01*
X158292996Y-48800922D01*
X158399341Y-48671341D01*
X158528922Y-48564996D01*
X158609639Y-48521852D01*
X158676758Y-48485976D01*
X158837177Y-48437313D01*
X158962196Y-48425000D01*
X159045804Y-48425000D01*
X159170823Y-48437313D01*
X159170823Y-48437313D01*
G37*
G36*
X198876228Y-48457703D02*
G01*
X199031100Y-48521853D01*
X199170481Y-48614985D01*
X199289015Y-48733519D01*
X199382147Y-48872900D01*
X199446297Y-49027772D01*
X199479000Y-49192184D01*
X199479000Y-49359816D01*
X199446297Y-49524228D01*
X199382147Y-49679100D01*
X199289015Y-49818481D01*
X199170481Y-49937015D01*
X199031100Y-50030147D01*
X198876228Y-50094297D01*
X198711816Y-50127000D01*
X198544184Y-50127000D01*
X198379772Y-50094297D01*
X198224900Y-50030147D01*
X198085519Y-49937015D01*
X197966985Y-49818481D01*
X197873853Y-49679100D01*
X197809703Y-49524228D01*
X197777000Y-49359816D01*
X197777000Y-49192184D01*
X197809703Y-49027772D01*
X197873853Y-48872900D01*
X197966985Y-48733519D01*
X198085519Y-48614985D01*
X198224900Y-48521853D01*
X198379772Y-48457703D01*
X198544184Y-48425000D01*
X198711816Y-48425000D01*
X198876228Y-48457703D01*
X198876228Y-48457703D01*
G37*
G36*
X166872228Y-48457703D02*
G01*
X167027100Y-48521853D01*
X167166481Y-48614985D01*
X167285015Y-48733519D01*
X167378147Y-48872900D01*
X167442297Y-49027772D01*
X167475000Y-49192184D01*
X167475000Y-49359816D01*
X167442297Y-49524228D01*
X167378147Y-49679100D01*
X167285015Y-49818481D01*
X167166481Y-49937015D01*
X167027100Y-50030147D01*
X166872228Y-50094297D01*
X166707816Y-50127000D01*
X166540184Y-50127000D01*
X166375772Y-50094297D01*
X166220900Y-50030147D01*
X166081519Y-49937015D01*
X165962985Y-49818481D01*
X165869853Y-49679100D01*
X165805703Y-49524228D01*
X165773000Y-49359816D01*
X165773000Y-49192184D01*
X165805703Y-49027772D01*
X165869853Y-48872900D01*
X165962985Y-48733519D01*
X166081519Y-48614985D01*
X166220900Y-48521853D01*
X166375772Y-48457703D01*
X166540184Y-48425000D01*
X166707816Y-48425000D01*
X166872228Y-48457703D01*
X166872228Y-48457703D01*
G37*
G36*
X169838823Y-48437313D02*
G01*
X169999242Y-48485976D01*
X170066361Y-48521852D01*
X170147078Y-48564996D01*
X170276659Y-48671341D01*
X170383004Y-48800922D01*
X170383005Y-48800924D01*
X170462024Y-48948758D01*
X170510687Y-49109177D01*
X170527117Y-49276000D01*
X170510687Y-49442823D01*
X170462024Y-49603242D01*
X170421477Y-49679100D01*
X170383004Y-49751078D01*
X170276659Y-49880659D01*
X170147078Y-49987004D01*
X170147076Y-49987005D01*
X169999242Y-50066024D01*
X169838823Y-50114687D01*
X169713804Y-50127000D01*
X169630196Y-50127000D01*
X169505177Y-50114687D01*
X169344758Y-50066024D01*
X169196924Y-49987005D01*
X169196922Y-49987004D01*
X169067341Y-49880659D01*
X168960996Y-49751078D01*
X168922523Y-49679100D01*
X168881976Y-49603242D01*
X168833313Y-49442823D01*
X168816883Y-49276000D01*
X168833313Y-49109177D01*
X168881976Y-48948758D01*
X168960995Y-48800924D01*
X168960996Y-48800922D01*
X169067341Y-48671341D01*
X169196922Y-48564996D01*
X169277639Y-48521852D01*
X169344758Y-48485976D01*
X169505177Y-48437313D01*
X169630196Y-48425000D01*
X169713804Y-48425000D01*
X169838823Y-48437313D01*
X169838823Y-48437313D01*
G37*
G36*
X165210442Y-44825518D02*
G01*
X165276627Y-44832037D01*
X165446466Y-44883557D01*
X165602991Y-44967222D01*
X165638729Y-44996552D01*
X165740186Y-45079814D01*
X165823448Y-45181271D01*
X165852778Y-45217009D01*
X165936443Y-45373534D01*
X165987963Y-45543373D01*
X166005359Y-45720000D01*
X165987963Y-45896627D01*
X165936443Y-46066466D01*
X165852778Y-46222991D01*
X165823448Y-46258729D01*
X165740186Y-46360186D01*
X165638729Y-46443448D01*
X165602991Y-46472778D01*
X165446466Y-46556443D01*
X165276627Y-46607963D01*
X165210443Y-46614481D01*
X165144260Y-46621000D01*
X165055740Y-46621000D01*
X164989558Y-46614482D01*
X164923373Y-46607963D01*
X164753534Y-46556443D01*
X164597009Y-46472778D01*
X164561271Y-46443448D01*
X164459814Y-46360186D01*
X164376552Y-46258729D01*
X164347222Y-46222991D01*
X164263557Y-46066466D01*
X164212037Y-45896627D01*
X164194641Y-45720000D01*
X164212037Y-45543373D01*
X164263557Y-45373534D01*
X164347222Y-45217009D01*
X164376552Y-45181271D01*
X164459814Y-45079814D01*
X164561271Y-44996552D01*
X164597009Y-44967222D01*
X164753534Y-44883557D01*
X164923373Y-44832037D01*
X164989558Y-44825518D01*
X165055740Y-44819000D01*
X165144260Y-44819000D01*
X165210442Y-44825518D01*
X165210442Y-44825518D01*
G37*
G36*
X167750442Y-44825518D02*
G01*
X167816627Y-44832037D01*
X167986466Y-44883557D01*
X168142991Y-44967222D01*
X168178729Y-44996552D01*
X168280186Y-45079814D01*
X168363448Y-45181271D01*
X168392778Y-45217009D01*
X168476443Y-45373534D01*
X168527963Y-45543373D01*
X168545359Y-45720000D01*
X168527963Y-45896627D01*
X168476443Y-46066466D01*
X168392778Y-46222991D01*
X168363448Y-46258729D01*
X168280186Y-46360186D01*
X168178729Y-46443448D01*
X168142991Y-46472778D01*
X167986466Y-46556443D01*
X167816627Y-46607963D01*
X167750443Y-46614481D01*
X167684260Y-46621000D01*
X167595740Y-46621000D01*
X167529558Y-46614482D01*
X167463373Y-46607963D01*
X167293534Y-46556443D01*
X167137009Y-46472778D01*
X167101271Y-46443448D01*
X166999814Y-46360186D01*
X166916552Y-46258729D01*
X166887222Y-46222991D01*
X166803557Y-46066466D01*
X166752037Y-45896627D01*
X166734641Y-45720000D01*
X166752037Y-45543373D01*
X166803557Y-45373534D01*
X166887222Y-45217009D01*
X166916552Y-45181271D01*
X166999814Y-45079814D01*
X167101271Y-44996552D01*
X167137009Y-44967222D01*
X167293534Y-44883557D01*
X167463373Y-44832037D01*
X167529558Y-44825518D01*
X167595740Y-44819000D01*
X167684260Y-44819000D01*
X167750442Y-44825518D01*
X167750442Y-44825518D01*
G37*
G36*
X170290442Y-44825518D02*
G01*
X170356627Y-44832037D01*
X170526466Y-44883557D01*
X170682991Y-44967222D01*
X170718729Y-44996552D01*
X170820186Y-45079814D01*
X170903448Y-45181271D01*
X170932778Y-45217009D01*
X171016443Y-45373534D01*
X171067963Y-45543373D01*
X171085359Y-45720000D01*
X171067963Y-45896627D01*
X171016443Y-46066466D01*
X170932778Y-46222991D01*
X170903448Y-46258729D01*
X170820186Y-46360186D01*
X170718729Y-46443448D01*
X170682991Y-46472778D01*
X170526466Y-46556443D01*
X170356627Y-46607963D01*
X170290443Y-46614481D01*
X170224260Y-46621000D01*
X170135740Y-46621000D01*
X170069558Y-46614482D01*
X170003373Y-46607963D01*
X169833534Y-46556443D01*
X169677009Y-46472778D01*
X169641271Y-46443448D01*
X169539814Y-46360186D01*
X169456552Y-46258729D01*
X169427222Y-46222991D01*
X169343557Y-46066466D01*
X169292037Y-45896627D01*
X169274641Y-45720000D01*
X169292037Y-45543373D01*
X169343557Y-45373534D01*
X169427222Y-45217009D01*
X169456552Y-45181271D01*
X169539814Y-45079814D01*
X169641271Y-44996552D01*
X169677009Y-44967222D01*
X169833534Y-44883557D01*
X170003373Y-44832037D01*
X170069558Y-44825518D01*
X170135740Y-44819000D01*
X170224260Y-44819000D01*
X170290442Y-44825518D01*
X170290442Y-44825518D01*
G37*
G36*
X172830442Y-44825518D02*
G01*
X172896627Y-44832037D01*
X173066466Y-44883557D01*
X173222991Y-44967222D01*
X173258729Y-44996552D01*
X173360186Y-45079814D01*
X173443448Y-45181271D01*
X173472778Y-45217009D01*
X173556443Y-45373534D01*
X173607963Y-45543373D01*
X173625359Y-45720000D01*
X173607963Y-45896627D01*
X173556443Y-46066466D01*
X173472778Y-46222991D01*
X173443448Y-46258729D01*
X173360186Y-46360186D01*
X173258729Y-46443448D01*
X173222991Y-46472778D01*
X173066466Y-46556443D01*
X172896627Y-46607963D01*
X172830443Y-46614481D01*
X172764260Y-46621000D01*
X172675740Y-46621000D01*
X172609558Y-46614482D01*
X172543373Y-46607963D01*
X172373534Y-46556443D01*
X172217009Y-46472778D01*
X172181271Y-46443448D01*
X172079814Y-46360186D01*
X171996552Y-46258729D01*
X171967222Y-46222991D01*
X171883557Y-46066466D01*
X171832037Y-45896627D01*
X171814641Y-45720000D01*
X171832037Y-45543373D01*
X171883557Y-45373534D01*
X171967222Y-45217009D01*
X171996552Y-45181271D01*
X172079814Y-45079814D01*
X172181271Y-44996552D01*
X172217009Y-44967222D01*
X172373534Y-44883557D01*
X172543373Y-44832037D01*
X172609558Y-44825518D01*
X172675740Y-44819000D01*
X172764260Y-44819000D01*
X172830442Y-44825518D01*
X172830442Y-44825518D01*
G37*
G36*
X218550442Y-44825518D02*
G01*
X218616627Y-44832037D01*
X218786466Y-44883557D01*
X218942991Y-44967222D01*
X218978729Y-44996552D01*
X219080186Y-45079814D01*
X219163448Y-45181271D01*
X219192778Y-45217009D01*
X219276443Y-45373534D01*
X219327963Y-45543373D01*
X219345359Y-45720000D01*
X219327963Y-45896627D01*
X219276443Y-46066466D01*
X219192778Y-46222991D01*
X219163448Y-46258729D01*
X219080186Y-46360186D01*
X218978729Y-46443448D01*
X218942991Y-46472778D01*
X218786466Y-46556443D01*
X218616627Y-46607963D01*
X218550443Y-46614481D01*
X218484260Y-46621000D01*
X218395740Y-46621000D01*
X218329558Y-46614482D01*
X218263373Y-46607963D01*
X218093534Y-46556443D01*
X217937009Y-46472778D01*
X217901271Y-46443448D01*
X217799814Y-46360186D01*
X217716552Y-46258729D01*
X217687222Y-46222991D01*
X217603557Y-46066466D01*
X217552037Y-45896627D01*
X217534641Y-45720000D01*
X217552037Y-45543373D01*
X217603557Y-45373534D01*
X217687222Y-45217009D01*
X217716552Y-45181271D01*
X217799814Y-45079814D01*
X217901271Y-44996552D01*
X217937009Y-44967222D01*
X218093534Y-44883557D01*
X218263373Y-44832037D01*
X218329558Y-44825518D01*
X218395740Y-44819000D01*
X218484260Y-44819000D01*
X218550442Y-44825518D01*
X218550442Y-44825518D01*
G37*
G36*
X213470442Y-44825518D02*
G01*
X213536627Y-44832037D01*
X213706466Y-44883557D01*
X213862991Y-44967222D01*
X213898729Y-44996552D01*
X214000186Y-45079814D01*
X214083448Y-45181271D01*
X214112778Y-45217009D01*
X214196443Y-45373534D01*
X214247963Y-45543373D01*
X214265359Y-45720000D01*
X214247963Y-45896627D01*
X214196443Y-46066466D01*
X214112778Y-46222991D01*
X214083448Y-46258729D01*
X214000186Y-46360186D01*
X213898729Y-46443448D01*
X213862991Y-46472778D01*
X213706466Y-46556443D01*
X213536627Y-46607963D01*
X213470443Y-46614481D01*
X213404260Y-46621000D01*
X213315740Y-46621000D01*
X213249558Y-46614482D01*
X213183373Y-46607963D01*
X213013534Y-46556443D01*
X212857009Y-46472778D01*
X212821271Y-46443448D01*
X212719814Y-46360186D01*
X212636552Y-46258729D01*
X212607222Y-46222991D01*
X212523557Y-46066466D01*
X212472037Y-45896627D01*
X212454641Y-45720000D01*
X212472037Y-45543373D01*
X212523557Y-45373534D01*
X212607222Y-45217009D01*
X212636552Y-45181271D01*
X212719814Y-45079814D01*
X212821271Y-44996552D01*
X212857009Y-44967222D01*
X213013534Y-44883557D01*
X213183373Y-44832037D01*
X213249558Y-44825518D01*
X213315740Y-44819000D01*
X213404260Y-44819000D01*
X213470442Y-44825518D01*
X213470442Y-44825518D01*
G37*
G36*
X210930442Y-44825518D02*
G01*
X210996627Y-44832037D01*
X211166466Y-44883557D01*
X211322991Y-44967222D01*
X211358729Y-44996552D01*
X211460186Y-45079814D01*
X211543448Y-45181271D01*
X211572778Y-45217009D01*
X211656443Y-45373534D01*
X211707963Y-45543373D01*
X211725359Y-45720000D01*
X211707963Y-45896627D01*
X211656443Y-46066466D01*
X211572778Y-46222991D01*
X211543448Y-46258729D01*
X211460186Y-46360186D01*
X211358729Y-46443448D01*
X211322991Y-46472778D01*
X211166466Y-46556443D01*
X210996627Y-46607963D01*
X210930443Y-46614481D01*
X210864260Y-46621000D01*
X210775740Y-46621000D01*
X210709558Y-46614482D01*
X210643373Y-46607963D01*
X210473534Y-46556443D01*
X210317009Y-46472778D01*
X210281271Y-46443448D01*
X210179814Y-46360186D01*
X210096552Y-46258729D01*
X210067222Y-46222991D01*
X209983557Y-46066466D01*
X209932037Y-45896627D01*
X209914641Y-45720000D01*
X209932037Y-45543373D01*
X209983557Y-45373534D01*
X210067222Y-45217009D01*
X210096552Y-45181271D01*
X210179814Y-45079814D01*
X210281271Y-44996552D01*
X210317009Y-44967222D01*
X210473534Y-44883557D01*
X210643373Y-44832037D01*
X210709558Y-44825518D01*
X210775740Y-44819000D01*
X210864260Y-44819000D01*
X210930442Y-44825518D01*
X210930442Y-44825518D01*
G37*
G36*
X208390442Y-44825518D02*
G01*
X208456627Y-44832037D01*
X208626466Y-44883557D01*
X208782991Y-44967222D01*
X208818729Y-44996552D01*
X208920186Y-45079814D01*
X209003448Y-45181271D01*
X209032778Y-45217009D01*
X209116443Y-45373534D01*
X209167963Y-45543373D01*
X209185359Y-45720000D01*
X209167963Y-45896627D01*
X209116443Y-46066466D01*
X209032778Y-46222991D01*
X209003448Y-46258729D01*
X208920186Y-46360186D01*
X208818729Y-46443448D01*
X208782991Y-46472778D01*
X208626466Y-46556443D01*
X208456627Y-46607963D01*
X208390443Y-46614481D01*
X208324260Y-46621000D01*
X208235740Y-46621000D01*
X208169558Y-46614482D01*
X208103373Y-46607963D01*
X207933534Y-46556443D01*
X207777009Y-46472778D01*
X207741271Y-46443448D01*
X207639814Y-46360186D01*
X207556552Y-46258729D01*
X207527222Y-46222991D01*
X207443557Y-46066466D01*
X207392037Y-45896627D01*
X207374641Y-45720000D01*
X207392037Y-45543373D01*
X207443557Y-45373534D01*
X207527222Y-45217009D01*
X207556552Y-45181271D01*
X207639814Y-45079814D01*
X207741271Y-44996552D01*
X207777009Y-44967222D01*
X207933534Y-44883557D01*
X208103373Y-44832037D01*
X208169558Y-44825518D01*
X208235740Y-44819000D01*
X208324260Y-44819000D01*
X208390442Y-44825518D01*
X208390442Y-44825518D01*
G37*
G36*
X205850442Y-44825518D02*
G01*
X205916627Y-44832037D01*
X206086466Y-44883557D01*
X206242991Y-44967222D01*
X206278729Y-44996552D01*
X206380186Y-45079814D01*
X206463448Y-45181271D01*
X206492778Y-45217009D01*
X206576443Y-45373534D01*
X206627963Y-45543373D01*
X206645359Y-45720000D01*
X206627963Y-45896627D01*
X206576443Y-46066466D01*
X206492778Y-46222991D01*
X206463448Y-46258729D01*
X206380186Y-46360186D01*
X206278729Y-46443448D01*
X206242991Y-46472778D01*
X206086466Y-46556443D01*
X205916627Y-46607963D01*
X205850443Y-46614481D01*
X205784260Y-46621000D01*
X205695740Y-46621000D01*
X205629558Y-46614482D01*
X205563373Y-46607963D01*
X205393534Y-46556443D01*
X205237009Y-46472778D01*
X205201271Y-46443448D01*
X205099814Y-46360186D01*
X205016552Y-46258729D01*
X204987222Y-46222991D01*
X204903557Y-46066466D01*
X204852037Y-45896627D01*
X204834641Y-45720000D01*
X204852037Y-45543373D01*
X204903557Y-45373534D01*
X204987222Y-45217009D01*
X205016552Y-45181271D01*
X205099814Y-45079814D01*
X205201271Y-44996552D01*
X205237009Y-44967222D01*
X205393534Y-44883557D01*
X205563373Y-44832037D01*
X205629558Y-44825518D01*
X205695740Y-44819000D01*
X205784260Y-44819000D01*
X205850442Y-44825518D01*
X205850442Y-44825518D01*
G37*
G36*
X203310442Y-44825518D02*
G01*
X203376627Y-44832037D01*
X203546466Y-44883557D01*
X203702991Y-44967222D01*
X203738729Y-44996552D01*
X203840186Y-45079814D01*
X203923448Y-45181271D01*
X203952778Y-45217009D01*
X204036443Y-45373534D01*
X204087963Y-45543373D01*
X204105359Y-45720000D01*
X204087963Y-45896627D01*
X204036443Y-46066466D01*
X203952778Y-46222991D01*
X203923448Y-46258729D01*
X203840186Y-46360186D01*
X203738729Y-46443448D01*
X203702991Y-46472778D01*
X203546466Y-46556443D01*
X203376627Y-46607963D01*
X203310443Y-46614481D01*
X203244260Y-46621000D01*
X203155740Y-46621000D01*
X203089558Y-46614482D01*
X203023373Y-46607963D01*
X202853534Y-46556443D01*
X202697009Y-46472778D01*
X202661271Y-46443448D01*
X202559814Y-46360186D01*
X202476552Y-46258729D01*
X202447222Y-46222991D01*
X202363557Y-46066466D01*
X202312037Y-45896627D01*
X202294641Y-45720000D01*
X202312037Y-45543373D01*
X202363557Y-45373534D01*
X202447222Y-45217009D01*
X202476552Y-45181271D01*
X202559814Y-45079814D01*
X202661271Y-44996552D01*
X202697009Y-44967222D01*
X202853534Y-44883557D01*
X203023373Y-44832037D01*
X203089558Y-44825518D01*
X203155740Y-44819000D01*
X203244260Y-44819000D01*
X203310442Y-44825518D01*
X203310442Y-44825518D01*
G37*
G36*
X200770442Y-44825518D02*
G01*
X200836627Y-44832037D01*
X201006466Y-44883557D01*
X201162991Y-44967222D01*
X201198729Y-44996552D01*
X201300186Y-45079814D01*
X201383448Y-45181271D01*
X201412778Y-45217009D01*
X201496443Y-45373534D01*
X201547963Y-45543373D01*
X201565359Y-45720000D01*
X201547963Y-45896627D01*
X201496443Y-46066466D01*
X201412778Y-46222991D01*
X201383448Y-46258729D01*
X201300186Y-46360186D01*
X201198729Y-46443448D01*
X201162991Y-46472778D01*
X201006466Y-46556443D01*
X200836627Y-46607963D01*
X200770443Y-46614481D01*
X200704260Y-46621000D01*
X200615740Y-46621000D01*
X200549558Y-46614482D01*
X200483373Y-46607963D01*
X200313534Y-46556443D01*
X200157009Y-46472778D01*
X200121271Y-46443448D01*
X200019814Y-46360186D01*
X199936552Y-46258729D01*
X199907222Y-46222991D01*
X199823557Y-46066466D01*
X199772037Y-45896627D01*
X199754641Y-45720000D01*
X199772037Y-45543373D01*
X199823557Y-45373534D01*
X199907222Y-45217009D01*
X199936552Y-45181271D01*
X200019814Y-45079814D01*
X200121271Y-44996552D01*
X200157009Y-44967222D01*
X200313534Y-44883557D01*
X200483373Y-44832037D01*
X200549558Y-44825518D01*
X200615740Y-44819000D01*
X200704260Y-44819000D01*
X200770442Y-44825518D01*
X200770442Y-44825518D01*
G37*
G36*
X198230442Y-44825518D02*
G01*
X198296627Y-44832037D01*
X198466466Y-44883557D01*
X198622991Y-44967222D01*
X198658729Y-44996552D01*
X198760186Y-45079814D01*
X198843448Y-45181271D01*
X198872778Y-45217009D01*
X198956443Y-45373534D01*
X199007963Y-45543373D01*
X199025359Y-45720000D01*
X199007963Y-45896627D01*
X198956443Y-46066466D01*
X198872778Y-46222991D01*
X198843448Y-46258729D01*
X198760186Y-46360186D01*
X198658729Y-46443448D01*
X198622991Y-46472778D01*
X198466466Y-46556443D01*
X198296627Y-46607963D01*
X198230443Y-46614481D01*
X198164260Y-46621000D01*
X198075740Y-46621000D01*
X198009558Y-46614482D01*
X197943373Y-46607963D01*
X197773534Y-46556443D01*
X197617009Y-46472778D01*
X197581271Y-46443448D01*
X197479814Y-46360186D01*
X197396552Y-46258729D01*
X197367222Y-46222991D01*
X197283557Y-46066466D01*
X197232037Y-45896627D01*
X197214641Y-45720000D01*
X197232037Y-45543373D01*
X197283557Y-45373534D01*
X197367222Y-45217009D01*
X197396552Y-45181271D01*
X197479814Y-45079814D01*
X197581271Y-44996552D01*
X197617009Y-44967222D01*
X197773534Y-44883557D01*
X197943373Y-44832037D01*
X198009558Y-44825518D01*
X198075740Y-44819000D01*
X198164260Y-44819000D01*
X198230442Y-44825518D01*
X198230442Y-44825518D01*
G37*
G36*
X175370442Y-44825518D02*
G01*
X175436627Y-44832037D01*
X175606466Y-44883557D01*
X175762991Y-44967222D01*
X175798729Y-44996552D01*
X175900186Y-45079814D01*
X175983448Y-45181271D01*
X176012778Y-45217009D01*
X176096443Y-45373534D01*
X176147963Y-45543373D01*
X176165359Y-45720000D01*
X176147963Y-45896627D01*
X176096443Y-46066466D01*
X176012778Y-46222991D01*
X175983448Y-46258729D01*
X175900186Y-46360186D01*
X175798729Y-46443448D01*
X175762991Y-46472778D01*
X175606466Y-46556443D01*
X175436627Y-46607963D01*
X175370443Y-46614481D01*
X175304260Y-46621000D01*
X175215740Y-46621000D01*
X175149558Y-46614482D01*
X175083373Y-46607963D01*
X174913534Y-46556443D01*
X174757009Y-46472778D01*
X174721271Y-46443448D01*
X174619814Y-46360186D01*
X174536552Y-46258729D01*
X174507222Y-46222991D01*
X174423557Y-46066466D01*
X174372037Y-45896627D01*
X174354641Y-45720000D01*
X174372037Y-45543373D01*
X174423557Y-45373534D01*
X174507222Y-45217009D01*
X174536552Y-45181271D01*
X174619814Y-45079814D01*
X174721271Y-44996552D01*
X174757009Y-44967222D01*
X174913534Y-44883557D01*
X175083373Y-44832037D01*
X175149558Y-44825518D01*
X175215740Y-44819000D01*
X175304260Y-44819000D01*
X175370442Y-44825518D01*
X175370442Y-44825518D01*
G37*
G36*
X195690442Y-44825518D02*
G01*
X195756627Y-44832037D01*
X195926466Y-44883557D01*
X196082991Y-44967222D01*
X196118729Y-44996552D01*
X196220186Y-45079814D01*
X196303448Y-45181271D01*
X196332778Y-45217009D01*
X196416443Y-45373534D01*
X196467963Y-45543373D01*
X196485359Y-45720000D01*
X196467963Y-45896627D01*
X196416443Y-46066466D01*
X196332778Y-46222991D01*
X196303448Y-46258729D01*
X196220186Y-46360186D01*
X196118729Y-46443448D01*
X196082991Y-46472778D01*
X195926466Y-46556443D01*
X195756627Y-46607963D01*
X195690443Y-46614481D01*
X195624260Y-46621000D01*
X195535740Y-46621000D01*
X195469558Y-46614482D01*
X195403373Y-46607963D01*
X195233534Y-46556443D01*
X195077009Y-46472778D01*
X195041271Y-46443448D01*
X194939814Y-46360186D01*
X194856552Y-46258729D01*
X194827222Y-46222991D01*
X194743557Y-46066466D01*
X194692037Y-45896627D01*
X194674641Y-45720000D01*
X194692037Y-45543373D01*
X194743557Y-45373534D01*
X194827222Y-45217009D01*
X194856552Y-45181271D01*
X194939814Y-45079814D01*
X195041271Y-44996552D01*
X195077009Y-44967222D01*
X195233534Y-44883557D01*
X195403373Y-44832037D01*
X195469558Y-44825518D01*
X195535740Y-44819000D01*
X195624260Y-44819000D01*
X195690442Y-44825518D01*
X195690442Y-44825518D01*
G37*
G36*
X160130442Y-44825518D02*
G01*
X160196627Y-44832037D01*
X160366466Y-44883557D01*
X160522991Y-44967222D01*
X160558729Y-44996552D01*
X160660186Y-45079814D01*
X160743448Y-45181271D01*
X160772778Y-45217009D01*
X160856443Y-45373534D01*
X160907963Y-45543373D01*
X160925359Y-45720000D01*
X160907963Y-45896627D01*
X160856443Y-46066466D01*
X160772778Y-46222991D01*
X160743448Y-46258729D01*
X160660186Y-46360186D01*
X160558729Y-46443448D01*
X160522991Y-46472778D01*
X160366466Y-46556443D01*
X160196627Y-46607963D01*
X160130443Y-46614481D01*
X160064260Y-46621000D01*
X159975740Y-46621000D01*
X159909558Y-46614482D01*
X159843373Y-46607963D01*
X159673534Y-46556443D01*
X159517009Y-46472778D01*
X159481271Y-46443448D01*
X159379814Y-46360186D01*
X159296552Y-46258729D01*
X159267222Y-46222991D01*
X159183557Y-46066466D01*
X159132037Y-45896627D01*
X159114641Y-45720000D01*
X159132037Y-45543373D01*
X159183557Y-45373534D01*
X159267222Y-45217009D01*
X159296552Y-45181271D01*
X159379814Y-45079814D01*
X159481271Y-44996552D01*
X159517009Y-44967222D01*
X159673534Y-44883557D01*
X159843373Y-44832037D01*
X159909558Y-44825518D01*
X159975740Y-44819000D01*
X160064260Y-44819000D01*
X160130442Y-44825518D01*
X160130442Y-44825518D01*
G37*
G36*
X162670442Y-44825518D02*
G01*
X162736627Y-44832037D01*
X162906466Y-44883557D01*
X163062991Y-44967222D01*
X163098729Y-44996552D01*
X163200186Y-45079814D01*
X163283448Y-45181271D01*
X163312778Y-45217009D01*
X163396443Y-45373534D01*
X163447963Y-45543373D01*
X163465359Y-45720000D01*
X163447963Y-45896627D01*
X163396443Y-46066466D01*
X163312778Y-46222991D01*
X163283448Y-46258729D01*
X163200186Y-46360186D01*
X163098729Y-46443448D01*
X163062991Y-46472778D01*
X162906466Y-46556443D01*
X162736627Y-46607963D01*
X162670443Y-46614481D01*
X162604260Y-46621000D01*
X162515740Y-46621000D01*
X162449558Y-46614482D01*
X162383373Y-46607963D01*
X162213534Y-46556443D01*
X162057009Y-46472778D01*
X162021271Y-46443448D01*
X161919814Y-46360186D01*
X161836552Y-46258729D01*
X161807222Y-46222991D01*
X161723557Y-46066466D01*
X161672037Y-45896627D01*
X161654641Y-45720000D01*
X161672037Y-45543373D01*
X161723557Y-45373534D01*
X161807222Y-45217009D01*
X161836552Y-45181271D01*
X161919814Y-45079814D01*
X162021271Y-44996552D01*
X162057009Y-44967222D01*
X162213534Y-44883557D01*
X162383373Y-44832037D01*
X162449558Y-44825518D01*
X162515740Y-44819000D01*
X162604260Y-44819000D01*
X162670442Y-44825518D01*
X162670442Y-44825518D01*
G37*
G36*
X180450442Y-44825518D02*
G01*
X180516627Y-44832037D01*
X180686466Y-44883557D01*
X180842991Y-44967222D01*
X180878729Y-44996552D01*
X180980186Y-45079814D01*
X181063448Y-45181271D01*
X181092778Y-45217009D01*
X181176443Y-45373534D01*
X181227963Y-45543373D01*
X181245359Y-45720000D01*
X181227963Y-45896627D01*
X181176443Y-46066466D01*
X181092778Y-46222991D01*
X181063448Y-46258729D01*
X180980186Y-46360186D01*
X180878729Y-46443448D01*
X180842991Y-46472778D01*
X180686466Y-46556443D01*
X180516627Y-46607963D01*
X180450443Y-46614481D01*
X180384260Y-46621000D01*
X180295740Y-46621000D01*
X180229558Y-46614482D01*
X180163373Y-46607963D01*
X179993534Y-46556443D01*
X179837009Y-46472778D01*
X179801271Y-46443448D01*
X179699814Y-46360186D01*
X179616552Y-46258729D01*
X179587222Y-46222991D01*
X179503557Y-46066466D01*
X179452037Y-45896627D01*
X179434641Y-45720000D01*
X179452037Y-45543373D01*
X179503557Y-45373534D01*
X179587222Y-45217009D01*
X179616552Y-45181271D01*
X179699814Y-45079814D01*
X179801271Y-44996552D01*
X179837009Y-44967222D01*
X179993534Y-44883557D01*
X180163373Y-44832037D01*
X180229558Y-44825518D01*
X180295740Y-44819000D01*
X180384260Y-44819000D01*
X180450442Y-44825518D01*
X180450442Y-44825518D01*
G37*
G36*
X177910442Y-44825518D02*
G01*
X177976627Y-44832037D01*
X178146466Y-44883557D01*
X178302991Y-44967222D01*
X178338729Y-44996552D01*
X178440186Y-45079814D01*
X178523448Y-45181271D01*
X178552778Y-45217009D01*
X178636443Y-45373534D01*
X178687963Y-45543373D01*
X178705359Y-45720000D01*
X178687963Y-45896627D01*
X178636443Y-46066466D01*
X178552778Y-46222991D01*
X178523448Y-46258729D01*
X178440186Y-46360186D01*
X178338729Y-46443448D01*
X178302991Y-46472778D01*
X178146466Y-46556443D01*
X177976627Y-46607963D01*
X177910443Y-46614481D01*
X177844260Y-46621000D01*
X177755740Y-46621000D01*
X177689558Y-46614482D01*
X177623373Y-46607963D01*
X177453534Y-46556443D01*
X177297009Y-46472778D01*
X177261271Y-46443448D01*
X177159814Y-46360186D01*
X177076552Y-46258729D01*
X177047222Y-46222991D01*
X176963557Y-46066466D01*
X176912037Y-45896627D01*
X176894641Y-45720000D01*
X176912037Y-45543373D01*
X176963557Y-45373534D01*
X177047222Y-45217009D01*
X177076552Y-45181271D01*
X177159814Y-45079814D01*
X177261271Y-44996552D01*
X177297009Y-44967222D01*
X177453534Y-44883557D01*
X177623373Y-44832037D01*
X177689558Y-44825518D01*
X177755740Y-44819000D01*
X177844260Y-44819000D01*
X177910442Y-44825518D01*
X177910442Y-44825518D01*
G37*
G36*
X182990442Y-44825518D02*
G01*
X183056627Y-44832037D01*
X183226466Y-44883557D01*
X183382991Y-44967222D01*
X183418729Y-44996552D01*
X183520186Y-45079814D01*
X183603448Y-45181271D01*
X183632778Y-45217009D01*
X183716443Y-45373534D01*
X183767963Y-45543373D01*
X183785359Y-45720000D01*
X183767963Y-45896627D01*
X183716443Y-46066466D01*
X183632778Y-46222991D01*
X183603448Y-46258729D01*
X183520186Y-46360186D01*
X183418729Y-46443448D01*
X183382991Y-46472778D01*
X183226466Y-46556443D01*
X183056627Y-46607963D01*
X182990443Y-46614481D01*
X182924260Y-46621000D01*
X182835740Y-46621000D01*
X182769558Y-46614482D01*
X182703373Y-46607963D01*
X182533534Y-46556443D01*
X182377009Y-46472778D01*
X182341271Y-46443448D01*
X182239814Y-46360186D01*
X182156552Y-46258729D01*
X182127222Y-46222991D01*
X182043557Y-46066466D01*
X181992037Y-45896627D01*
X181974641Y-45720000D01*
X181992037Y-45543373D01*
X182043557Y-45373534D01*
X182127222Y-45217009D01*
X182156552Y-45181271D01*
X182239814Y-45079814D01*
X182341271Y-44996552D01*
X182377009Y-44967222D01*
X182533534Y-44883557D01*
X182703373Y-44832037D01*
X182769558Y-44825518D01*
X182835740Y-44819000D01*
X182924260Y-44819000D01*
X182990442Y-44825518D01*
X182990442Y-44825518D01*
G37*
G36*
X185530442Y-44825518D02*
G01*
X185596627Y-44832037D01*
X185766466Y-44883557D01*
X185922991Y-44967222D01*
X185958729Y-44996552D01*
X186060186Y-45079814D01*
X186143448Y-45181271D01*
X186172778Y-45217009D01*
X186256443Y-45373534D01*
X186307963Y-45543373D01*
X186325359Y-45720000D01*
X186307963Y-45896627D01*
X186256443Y-46066466D01*
X186172778Y-46222991D01*
X186143448Y-46258729D01*
X186060186Y-46360186D01*
X185958729Y-46443448D01*
X185922991Y-46472778D01*
X185766466Y-46556443D01*
X185596627Y-46607963D01*
X185530443Y-46614481D01*
X185464260Y-46621000D01*
X185375740Y-46621000D01*
X185309558Y-46614482D01*
X185243373Y-46607963D01*
X185073534Y-46556443D01*
X184917009Y-46472778D01*
X184881271Y-46443448D01*
X184779814Y-46360186D01*
X184696552Y-46258729D01*
X184667222Y-46222991D01*
X184583557Y-46066466D01*
X184532037Y-45896627D01*
X184514641Y-45720000D01*
X184532037Y-45543373D01*
X184583557Y-45373534D01*
X184667222Y-45217009D01*
X184696552Y-45181271D01*
X184779814Y-45079814D01*
X184881271Y-44996552D01*
X184917009Y-44967222D01*
X185073534Y-44883557D01*
X185243373Y-44832037D01*
X185309558Y-44825518D01*
X185375740Y-44819000D01*
X185464260Y-44819000D01*
X185530442Y-44825518D01*
X185530442Y-44825518D01*
G37*
G36*
X188070442Y-44825518D02*
G01*
X188136627Y-44832037D01*
X188306466Y-44883557D01*
X188462991Y-44967222D01*
X188498729Y-44996552D01*
X188600186Y-45079814D01*
X188683448Y-45181271D01*
X188712778Y-45217009D01*
X188796443Y-45373534D01*
X188847963Y-45543373D01*
X188865359Y-45720000D01*
X188847963Y-45896627D01*
X188796443Y-46066466D01*
X188712778Y-46222991D01*
X188683448Y-46258729D01*
X188600186Y-46360186D01*
X188498729Y-46443448D01*
X188462991Y-46472778D01*
X188306466Y-46556443D01*
X188136627Y-46607963D01*
X188070443Y-46614481D01*
X188004260Y-46621000D01*
X187915740Y-46621000D01*
X187849558Y-46614482D01*
X187783373Y-46607963D01*
X187613534Y-46556443D01*
X187457009Y-46472778D01*
X187421271Y-46443448D01*
X187319814Y-46360186D01*
X187236552Y-46258729D01*
X187207222Y-46222991D01*
X187123557Y-46066466D01*
X187072037Y-45896627D01*
X187054641Y-45720000D01*
X187072037Y-45543373D01*
X187123557Y-45373534D01*
X187207222Y-45217009D01*
X187236552Y-45181271D01*
X187319814Y-45079814D01*
X187421271Y-44996552D01*
X187457009Y-44967222D01*
X187613534Y-44883557D01*
X187783373Y-44832037D01*
X187849558Y-44825518D01*
X187915740Y-44819000D01*
X188004260Y-44819000D01*
X188070442Y-44825518D01*
X188070442Y-44825518D01*
G37*
G36*
X190610442Y-44825518D02*
G01*
X190676627Y-44832037D01*
X190846466Y-44883557D01*
X191002991Y-44967222D01*
X191038729Y-44996552D01*
X191140186Y-45079814D01*
X191223448Y-45181271D01*
X191252778Y-45217009D01*
X191336443Y-45373534D01*
X191387963Y-45543373D01*
X191405359Y-45720000D01*
X191387963Y-45896627D01*
X191336443Y-46066466D01*
X191252778Y-46222991D01*
X191223448Y-46258729D01*
X191140186Y-46360186D01*
X191038729Y-46443448D01*
X191002991Y-46472778D01*
X190846466Y-46556443D01*
X190676627Y-46607963D01*
X190610443Y-46614481D01*
X190544260Y-46621000D01*
X190455740Y-46621000D01*
X190389558Y-46614482D01*
X190323373Y-46607963D01*
X190153534Y-46556443D01*
X189997009Y-46472778D01*
X189961271Y-46443448D01*
X189859814Y-46360186D01*
X189776552Y-46258729D01*
X189747222Y-46222991D01*
X189663557Y-46066466D01*
X189612037Y-45896627D01*
X189594641Y-45720000D01*
X189612037Y-45543373D01*
X189663557Y-45373534D01*
X189747222Y-45217009D01*
X189776552Y-45181271D01*
X189859814Y-45079814D01*
X189961271Y-44996552D01*
X189997009Y-44967222D01*
X190153534Y-44883557D01*
X190323373Y-44832037D01*
X190389558Y-44825518D01*
X190455740Y-44819000D01*
X190544260Y-44819000D01*
X190610442Y-44825518D01*
X190610442Y-44825518D01*
G37*
G36*
X157590442Y-44825518D02*
G01*
X157656627Y-44832037D01*
X157826466Y-44883557D01*
X157982991Y-44967222D01*
X158018729Y-44996552D01*
X158120186Y-45079814D01*
X158203448Y-45181271D01*
X158232778Y-45217009D01*
X158316443Y-45373534D01*
X158367963Y-45543373D01*
X158385359Y-45720000D01*
X158367963Y-45896627D01*
X158316443Y-46066466D01*
X158232778Y-46222991D01*
X158203448Y-46258729D01*
X158120186Y-46360186D01*
X158018729Y-46443448D01*
X157982991Y-46472778D01*
X157826466Y-46556443D01*
X157656627Y-46607963D01*
X157590443Y-46614481D01*
X157524260Y-46621000D01*
X157435740Y-46621000D01*
X157369558Y-46614482D01*
X157303373Y-46607963D01*
X157133534Y-46556443D01*
X156977009Y-46472778D01*
X156941271Y-46443448D01*
X156839814Y-46360186D01*
X156756552Y-46258729D01*
X156727222Y-46222991D01*
X156643557Y-46066466D01*
X156592037Y-45896627D01*
X156574641Y-45720000D01*
X156592037Y-45543373D01*
X156643557Y-45373534D01*
X156727222Y-45217009D01*
X156756552Y-45181271D01*
X156839814Y-45079814D01*
X156941271Y-44996552D01*
X156977009Y-44967222D01*
X157133534Y-44883557D01*
X157303373Y-44832037D01*
X157369558Y-44825518D01*
X157435740Y-44819000D01*
X157524260Y-44819000D01*
X157590442Y-44825518D01*
X157590442Y-44825518D01*
G37*
G36*
X216010442Y-44825518D02*
G01*
X216076627Y-44832037D01*
X216246466Y-44883557D01*
X216402991Y-44967222D01*
X216438729Y-44996552D01*
X216540186Y-45079814D01*
X216623448Y-45181271D01*
X216652778Y-45217009D01*
X216736443Y-45373534D01*
X216787963Y-45543373D01*
X216805359Y-45720000D01*
X216787963Y-45896627D01*
X216736443Y-46066466D01*
X216652778Y-46222991D01*
X216623448Y-46258729D01*
X216540186Y-46360186D01*
X216438729Y-46443448D01*
X216402991Y-46472778D01*
X216246466Y-46556443D01*
X216076627Y-46607963D01*
X216010443Y-46614481D01*
X215944260Y-46621000D01*
X215855740Y-46621000D01*
X215789558Y-46614482D01*
X215723373Y-46607963D01*
X215553534Y-46556443D01*
X215397009Y-46472778D01*
X215361271Y-46443448D01*
X215259814Y-46360186D01*
X215176552Y-46258729D01*
X215147222Y-46222991D01*
X215063557Y-46066466D01*
X215012037Y-45896627D01*
X214994641Y-45720000D01*
X215012037Y-45543373D01*
X215063557Y-45373534D01*
X215147222Y-45217009D01*
X215176552Y-45181271D01*
X215259814Y-45079814D01*
X215361271Y-44996552D01*
X215397009Y-44967222D01*
X215553534Y-44883557D01*
X215723373Y-44832037D01*
X215789558Y-44825518D01*
X215855740Y-44819000D01*
X215944260Y-44819000D01*
X216010442Y-44825518D01*
X216010442Y-44825518D01*
G37*
G36*
X155050442Y-44825518D02*
G01*
X155116627Y-44832037D01*
X155286466Y-44883557D01*
X155442991Y-44967222D01*
X155478729Y-44996552D01*
X155580186Y-45079814D01*
X155663448Y-45181271D01*
X155692778Y-45217009D01*
X155776443Y-45373534D01*
X155827963Y-45543373D01*
X155845359Y-45720000D01*
X155827963Y-45896627D01*
X155776443Y-46066466D01*
X155692778Y-46222991D01*
X155663448Y-46258729D01*
X155580186Y-46360186D01*
X155478729Y-46443448D01*
X155442991Y-46472778D01*
X155286466Y-46556443D01*
X155116627Y-46607963D01*
X155050443Y-46614481D01*
X154984260Y-46621000D01*
X154895740Y-46621000D01*
X154829558Y-46614482D01*
X154763373Y-46607963D01*
X154593534Y-46556443D01*
X154437009Y-46472778D01*
X154401271Y-46443448D01*
X154299814Y-46360186D01*
X154216552Y-46258729D01*
X154187222Y-46222991D01*
X154103557Y-46066466D01*
X154052037Y-45896627D01*
X154034641Y-45720000D01*
X154052037Y-45543373D01*
X154103557Y-45373534D01*
X154187222Y-45217009D01*
X154216552Y-45181271D01*
X154299814Y-45079814D01*
X154401271Y-44996552D01*
X154437009Y-44967222D01*
X154593534Y-44883557D01*
X154763373Y-44832037D01*
X154829558Y-44825518D01*
X154895740Y-44819000D01*
X154984260Y-44819000D01*
X155050442Y-44825518D01*
X155050442Y-44825518D01*
G37*
G36*
X152510442Y-44825518D02*
G01*
X152576627Y-44832037D01*
X152746466Y-44883557D01*
X152902991Y-44967222D01*
X152938729Y-44996552D01*
X153040186Y-45079814D01*
X153123448Y-45181271D01*
X153152778Y-45217009D01*
X153236443Y-45373534D01*
X153287963Y-45543373D01*
X153305359Y-45720000D01*
X153287963Y-45896627D01*
X153236443Y-46066466D01*
X153152778Y-46222991D01*
X153123448Y-46258729D01*
X153040186Y-46360186D01*
X152938729Y-46443448D01*
X152902991Y-46472778D01*
X152746466Y-46556443D01*
X152576627Y-46607963D01*
X152510443Y-46614481D01*
X152444260Y-46621000D01*
X152355740Y-46621000D01*
X152289558Y-46614482D01*
X152223373Y-46607963D01*
X152053534Y-46556443D01*
X151897009Y-46472778D01*
X151861271Y-46443448D01*
X151759814Y-46360186D01*
X151676552Y-46258729D01*
X151647222Y-46222991D01*
X151563557Y-46066466D01*
X151512037Y-45896627D01*
X151494641Y-45720000D01*
X151512037Y-45543373D01*
X151563557Y-45373534D01*
X151647222Y-45217009D01*
X151676552Y-45181271D01*
X151759814Y-45079814D01*
X151861271Y-44996552D01*
X151897009Y-44967222D01*
X152053534Y-44883557D01*
X152223373Y-44832037D01*
X152289558Y-44825518D01*
X152355740Y-44819000D01*
X152444260Y-44819000D01*
X152510442Y-44825518D01*
X152510442Y-44825518D01*
G37*
G36*
X150761000Y-46621000D02*
G01*
X148959000Y-46621000D01*
X148959000Y-44819000D01*
X150761000Y-44819000D01*
X150761000Y-46621000D01*
X150761000Y-46621000D01*
G37*
G36*
X193150442Y-44825518D02*
G01*
X193216627Y-44832037D01*
X193386466Y-44883557D01*
X193542991Y-44967222D01*
X193578729Y-44996552D01*
X193680186Y-45079814D01*
X193763448Y-45181271D01*
X193792778Y-45217009D01*
X193876443Y-45373534D01*
X193927963Y-45543373D01*
X193945359Y-45720000D01*
X193927963Y-45896627D01*
X193876443Y-46066466D01*
X193792778Y-46222991D01*
X193763448Y-46258729D01*
X193680186Y-46360186D01*
X193578729Y-46443448D01*
X193542991Y-46472778D01*
X193386466Y-46556443D01*
X193216627Y-46607963D01*
X193150443Y-46614481D01*
X193084260Y-46621000D01*
X192995740Y-46621000D01*
X192929558Y-46614482D01*
X192863373Y-46607963D01*
X192693534Y-46556443D01*
X192537009Y-46472778D01*
X192501271Y-46443448D01*
X192399814Y-46360186D01*
X192316552Y-46258729D01*
X192287222Y-46222991D01*
X192203557Y-46066466D01*
X192152037Y-45896627D01*
X192134641Y-45720000D01*
X192152037Y-45543373D01*
X192203557Y-45373534D01*
X192287222Y-45217009D01*
X192316552Y-45181271D01*
X192399814Y-45079814D01*
X192501271Y-44996552D01*
X192537009Y-44967222D01*
X192693534Y-44883557D01*
X192863373Y-44832037D01*
X192929558Y-44825518D01*
X192995740Y-44819000D01*
X193084260Y-44819000D01*
X193150442Y-44825518D01*
X193150442Y-44825518D01*
G37*
G36*
X195690442Y-42285518D02*
G01*
X195756627Y-42292037D01*
X195926466Y-42343557D01*
X196082991Y-42427222D01*
X196118729Y-42456552D01*
X196220186Y-42539814D01*
X196303448Y-42641271D01*
X196332778Y-42677009D01*
X196416443Y-42833534D01*
X196467963Y-43003373D01*
X196485359Y-43180000D01*
X196467963Y-43356627D01*
X196416443Y-43526466D01*
X196332778Y-43682991D01*
X196303448Y-43718729D01*
X196220186Y-43820186D01*
X196118729Y-43903448D01*
X196082991Y-43932778D01*
X195926466Y-44016443D01*
X195756627Y-44067963D01*
X195690443Y-44074481D01*
X195624260Y-44081000D01*
X195535740Y-44081000D01*
X195469557Y-44074481D01*
X195403373Y-44067963D01*
X195233534Y-44016443D01*
X195077009Y-43932778D01*
X195041271Y-43903448D01*
X194939814Y-43820186D01*
X194856552Y-43718729D01*
X194827222Y-43682991D01*
X194743557Y-43526466D01*
X194692037Y-43356627D01*
X194674641Y-43180000D01*
X194692037Y-43003373D01*
X194743557Y-42833534D01*
X194827222Y-42677009D01*
X194856552Y-42641271D01*
X194939814Y-42539814D01*
X195041271Y-42456552D01*
X195077009Y-42427222D01*
X195233534Y-42343557D01*
X195403373Y-42292037D01*
X195469557Y-42285519D01*
X195535740Y-42279000D01*
X195624260Y-42279000D01*
X195690442Y-42285518D01*
X195690442Y-42285518D01*
G37*
G36*
X158381000Y-44081000D02*
G01*
X156579000Y-44081000D01*
X156579000Y-42279000D01*
X158381000Y-42279000D01*
X158381000Y-44081000D01*
X158381000Y-44081000D01*
G37*
G36*
X155050442Y-42285518D02*
G01*
X155116627Y-42292037D01*
X155286466Y-42343557D01*
X155442991Y-42427222D01*
X155478729Y-42456552D01*
X155580186Y-42539814D01*
X155663448Y-42641271D01*
X155692778Y-42677009D01*
X155776443Y-42833534D01*
X155827963Y-43003373D01*
X155845359Y-43180000D01*
X155827963Y-43356627D01*
X155776443Y-43526466D01*
X155692778Y-43682991D01*
X155663448Y-43718729D01*
X155580186Y-43820186D01*
X155478729Y-43903448D01*
X155442991Y-43932778D01*
X155286466Y-44016443D01*
X155116627Y-44067963D01*
X155050443Y-44074481D01*
X154984260Y-44081000D01*
X154895740Y-44081000D01*
X154829557Y-44074481D01*
X154763373Y-44067963D01*
X154593534Y-44016443D01*
X154437009Y-43932778D01*
X154401271Y-43903448D01*
X154299814Y-43820186D01*
X154216552Y-43718729D01*
X154187222Y-43682991D01*
X154103557Y-43526466D01*
X154052037Y-43356627D01*
X154034641Y-43180000D01*
X154052037Y-43003373D01*
X154103557Y-42833534D01*
X154187222Y-42677009D01*
X154216552Y-42641271D01*
X154299814Y-42539814D01*
X154401271Y-42456552D01*
X154437009Y-42427222D01*
X154593534Y-42343557D01*
X154763373Y-42292037D01*
X154829557Y-42285519D01*
X154895740Y-42279000D01*
X154984260Y-42279000D01*
X155050442Y-42285518D01*
X155050442Y-42285518D01*
G37*
G36*
X152510442Y-42285518D02*
G01*
X152576627Y-42292037D01*
X152746466Y-42343557D01*
X152902991Y-42427222D01*
X152938729Y-42456552D01*
X153040186Y-42539814D01*
X153123448Y-42641271D01*
X153152778Y-42677009D01*
X153236443Y-42833534D01*
X153287963Y-43003373D01*
X153305359Y-43180000D01*
X153287963Y-43356627D01*
X153236443Y-43526466D01*
X153152778Y-43682991D01*
X153123448Y-43718729D01*
X153040186Y-43820186D01*
X152938729Y-43903448D01*
X152902991Y-43932778D01*
X152746466Y-44016443D01*
X152576627Y-44067963D01*
X152510443Y-44074481D01*
X152444260Y-44081000D01*
X152355740Y-44081000D01*
X152289557Y-44074481D01*
X152223373Y-44067963D01*
X152053534Y-44016443D01*
X151897009Y-43932778D01*
X151861271Y-43903448D01*
X151759814Y-43820186D01*
X151676552Y-43718729D01*
X151647222Y-43682991D01*
X151563557Y-43526466D01*
X151512037Y-43356627D01*
X151494641Y-43180000D01*
X151512037Y-43003373D01*
X151563557Y-42833534D01*
X151647222Y-42677009D01*
X151676552Y-42641271D01*
X151759814Y-42539814D01*
X151861271Y-42456552D01*
X151897009Y-42427222D01*
X152053534Y-42343557D01*
X152223373Y-42292037D01*
X152289557Y-42285519D01*
X152355740Y-42279000D01*
X152444260Y-42279000D01*
X152510442Y-42285518D01*
X152510442Y-42285518D01*
G37*
G36*
X149970442Y-42285518D02*
G01*
X150036627Y-42292037D01*
X150206466Y-42343557D01*
X150362991Y-42427222D01*
X150398729Y-42456552D01*
X150500186Y-42539814D01*
X150583448Y-42641271D01*
X150612778Y-42677009D01*
X150696443Y-42833534D01*
X150747963Y-43003373D01*
X150765359Y-43180000D01*
X150747963Y-43356627D01*
X150696443Y-43526466D01*
X150612778Y-43682991D01*
X150583448Y-43718729D01*
X150500186Y-43820186D01*
X150398729Y-43903448D01*
X150362991Y-43932778D01*
X150206466Y-44016443D01*
X150036627Y-44067963D01*
X149970443Y-44074481D01*
X149904260Y-44081000D01*
X149815740Y-44081000D01*
X149749557Y-44074481D01*
X149683373Y-44067963D01*
X149513534Y-44016443D01*
X149357009Y-43932778D01*
X149321271Y-43903448D01*
X149219814Y-43820186D01*
X149136552Y-43718729D01*
X149107222Y-43682991D01*
X149023557Y-43526466D01*
X148972037Y-43356627D01*
X148954641Y-43180000D01*
X148972037Y-43003373D01*
X149023557Y-42833534D01*
X149107222Y-42677009D01*
X149136552Y-42641271D01*
X149219814Y-42539814D01*
X149321271Y-42456552D01*
X149357009Y-42427222D01*
X149513534Y-42343557D01*
X149683373Y-42292037D01*
X149749557Y-42285519D01*
X149815740Y-42279000D01*
X149904260Y-42279000D01*
X149970442Y-42285518D01*
X149970442Y-42285518D01*
G37*
G36*
X178701000Y-44081000D02*
G01*
X176899000Y-44081000D01*
X176899000Y-42279000D01*
X178701000Y-42279000D01*
X178701000Y-44081000D01*
X178701000Y-44081000D01*
G37*
G36*
X209181000Y-44081000D02*
G01*
X207379000Y-44081000D01*
X207379000Y-42279000D01*
X209181000Y-42279000D01*
X209181000Y-44081000D01*
X209181000Y-44081000D01*
G37*
G36*
X205850442Y-42285518D02*
G01*
X205916627Y-42292037D01*
X206086466Y-42343557D01*
X206242991Y-42427222D01*
X206278729Y-42456552D01*
X206380186Y-42539814D01*
X206463448Y-42641271D01*
X206492778Y-42677009D01*
X206576443Y-42833534D01*
X206627963Y-43003373D01*
X206645359Y-43180000D01*
X206627963Y-43356627D01*
X206576443Y-43526466D01*
X206492778Y-43682991D01*
X206463448Y-43718729D01*
X206380186Y-43820186D01*
X206278729Y-43903448D01*
X206242991Y-43932778D01*
X206086466Y-44016443D01*
X205916627Y-44067963D01*
X205850443Y-44074481D01*
X205784260Y-44081000D01*
X205695740Y-44081000D01*
X205629557Y-44074481D01*
X205563373Y-44067963D01*
X205393534Y-44016443D01*
X205237009Y-43932778D01*
X205201271Y-43903448D01*
X205099814Y-43820186D01*
X205016552Y-43718729D01*
X204987222Y-43682991D01*
X204903557Y-43526466D01*
X204852037Y-43356627D01*
X204834641Y-43180000D01*
X204852037Y-43003373D01*
X204903557Y-42833534D01*
X204987222Y-42677009D01*
X205016552Y-42641271D01*
X205099814Y-42539814D01*
X205201271Y-42456552D01*
X205237009Y-42427222D01*
X205393534Y-42343557D01*
X205563373Y-42292037D01*
X205629557Y-42285519D01*
X205695740Y-42279000D01*
X205784260Y-42279000D01*
X205850442Y-42285518D01*
X205850442Y-42285518D01*
G37*
G36*
X201561000Y-44081000D02*
G01*
X199759000Y-44081000D01*
X199759000Y-42279000D01*
X201561000Y-42279000D01*
X201561000Y-44081000D01*
X201561000Y-44081000D01*
G37*
G36*
X198230442Y-42285518D02*
G01*
X198296627Y-42292037D01*
X198466466Y-42343557D01*
X198622991Y-42427222D01*
X198658729Y-42456552D01*
X198760186Y-42539814D01*
X198843448Y-42641271D01*
X198872778Y-42677009D01*
X198956443Y-42833534D01*
X199007963Y-43003373D01*
X199025359Y-43180000D01*
X199007963Y-43356627D01*
X198956443Y-43526466D01*
X198872778Y-43682991D01*
X198843448Y-43718729D01*
X198760186Y-43820186D01*
X198658729Y-43903448D01*
X198622991Y-43932778D01*
X198466466Y-44016443D01*
X198296627Y-44067963D01*
X198230443Y-44074481D01*
X198164260Y-44081000D01*
X198075740Y-44081000D01*
X198009557Y-44074481D01*
X197943373Y-44067963D01*
X197773534Y-44016443D01*
X197617009Y-43932778D01*
X197581271Y-43903448D01*
X197479814Y-43820186D01*
X197396552Y-43718729D01*
X197367222Y-43682991D01*
X197283557Y-43526466D01*
X197232037Y-43356627D01*
X197214641Y-43180000D01*
X197232037Y-43003373D01*
X197283557Y-42833534D01*
X197367222Y-42677009D01*
X197396552Y-42641271D01*
X197479814Y-42539814D01*
X197581271Y-42456552D01*
X197617009Y-42427222D01*
X197773534Y-42343557D01*
X197943373Y-42292037D01*
X198009557Y-42285519D01*
X198075740Y-42279000D01*
X198164260Y-42279000D01*
X198230442Y-42285518D01*
X198230442Y-42285518D01*
G37*
G36*
X193150442Y-42285518D02*
G01*
X193216627Y-42292037D01*
X193386466Y-42343557D01*
X193542991Y-42427222D01*
X193578729Y-42456552D01*
X193680186Y-42539814D01*
X193763448Y-42641271D01*
X193792778Y-42677009D01*
X193876443Y-42833534D01*
X193927963Y-43003373D01*
X193945359Y-43180000D01*
X193927963Y-43356627D01*
X193876443Y-43526466D01*
X193792778Y-43682991D01*
X193763448Y-43718729D01*
X193680186Y-43820186D01*
X193578729Y-43903448D01*
X193542991Y-43932778D01*
X193386466Y-44016443D01*
X193216627Y-44067963D01*
X193150443Y-44074481D01*
X193084260Y-44081000D01*
X192995740Y-44081000D01*
X192929557Y-44074481D01*
X192863373Y-44067963D01*
X192693534Y-44016443D01*
X192537009Y-43932778D01*
X192501271Y-43903448D01*
X192399814Y-43820186D01*
X192316552Y-43718729D01*
X192287222Y-43682991D01*
X192203557Y-43526466D01*
X192152037Y-43356627D01*
X192134641Y-43180000D01*
X192152037Y-43003373D01*
X192203557Y-42833534D01*
X192287222Y-42677009D01*
X192316552Y-42641271D01*
X192399814Y-42539814D01*
X192501271Y-42456552D01*
X192537009Y-42427222D01*
X192693534Y-42343557D01*
X192863373Y-42292037D01*
X192929557Y-42285519D01*
X192995740Y-42279000D01*
X193084260Y-42279000D01*
X193150442Y-42285518D01*
X193150442Y-42285518D01*
G37*
G36*
X190610442Y-42285518D02*
G01*
X190676627Y-42292037D01*
X190846466Y-42343557D01*
X191002991Y-42427222D01*
X191038729Y-42456552D01*
X191140186Y-42539814D01*
X191223448Y-42641271D01*
X191252778Y-42677009D01*
X191336443Y-42833534D01*
X191387963Y-43003373D01*
X191405359Y-43180000D01*
X191387963Y-43356627D01*
X191336443Y-43526466D01*
X191252778Y-43682991D01*
X191223448Y-43718729D01*
X191140186Y-43820186D01*
X191038729Y-43903448D01*
X191002991Y-43932778D01*
X190846466Y-44016443D01*
X190676627Y-44067963D01*
X190610443Y-44074481D01*
X190544260Y-44081000D01*
X190455740Y-44081000D01*
X190389557Y-44074481D01*
X190323373Y-44067963D01*
X190153534Y-44016443D01*
X189997009Y-43932778D01*
X189961271Y-43903448D01*
X189859814Y-43820186D01*
X189776552Y-43718729D01*
X189747222Y-43682991D01*
X189663557Y-43526466D01*
X189612037Y-43356627D01*
X189594641Y-43180000D01*
X189612037Y-43003373D01*
X189663557Y-42833534D01*
X189747222Y-42677009D01*
X189776552Y-42641271D01*
X189859814Y-42539814D01*
X189961271Y-42456552D01*
X189997009Y-42427222D01*
X190153534Y-42343557D01*
X190323373Y-42292037D01*
X190389557Y-42285519D01*
X190455740Y-42279000D01*
X190544260Y-42279000D01*
X190610442Y-42285518D01*
X190610442Y-42285518D01*
G37*
G36*
X188070442Y-42285518D02*
G01*
X188136627Y-42292037D01*
X188306466Y-42343557D01*
X188462991Y-42427222D01*
X188498729Y-42456552D01*
X188600186Y-42539814D01*
X188683448Y-42641271D01*
X188712778Y-42677009D01*
X188796443Y-42833534D01*
X188847963Y-43003373D01*
X188865359Y-43180000D01*
X188847963Y-43356627D01*
X188796443Y-43526466D01*
X188712778Y-43682991D01*
X188683448Y-43718729D01*
X188600186Y-43820186D01*
X188498729Y-43903448D01*
X188462991Y-43932778D01*
X188306466Y-44016443D01*
X188136627Y-44067963D01*
X188070443Y-44074481D01*
X188004260Y-44081000D01*
X187915740Y-44081000D01*
X187849557Y-44074481D01*
X187783373Y-44067963D01*
X187613534Y-44016443D01*
X187457009Y-43932778D01*
X187421271Y-43903448D01*
X187319814Y-43820186D01*
X187236552Y-43718729D01*
X187207222Y-43682991D01*
X187123557Y-43526466D01*
X187072037Y-43356627D01*
X187054641Y-43180000D01*
X187072037Y-43003373D01*
X187123557Y-42833534D01*
X187207222Y-42677009D01*
X187236552Y-42641271D01*
X187319814Y-42539814D01*
X187421271Y-42456552D01*
X187457009Y-42427222D01*
X187613534Y-42343557D01*
X187783373Y-42292037D01*
X187849557Y-42285519D01*
X187915740Y-42279000D01*
X188004260Y-42279000D01*
X188070442Y-42285518D01*
X188070442Y-42285518D01*
G37*
G36*
X185530442Y-42285518D02*
G01*
X185596627Y-42292037D01*
X185766466Y-42343557D01*
X185922991Y-42427222D01*
X185958729Y-42456552D01*
X186060186Y-42539814D01*
X186143448Y-42641271D01*
X186172778Y-42677009D01*
X186256443Y-42833534D01*
X186307963Y-43003373D01*
X186325359Y-43180000D01*
X186307963Y-43356627D01*
X186256443Y-43526466D01*
X186172778Y-43682991D01*
X186143448Y-43718729D01*
X186060186Y-43820186D01*
X185958729Y-43903448D01*
X185922991Y-43932778D01*
X185766466Y-44016443D01*
X185596627Y-44067963D01*
X185530443Y-44074481D01*
X185464260Y-44081000D01*
X185375740Y-44081000D01*
X185309557Y-44074481D01*
X185243373Y-44067963D01*
X185073534Y-44016443D01*
X184917009Y-43932778D01*
X184881271Y-43903448D01*
X184779814Y-43820186D01*
X184696552Y-43718729D01*
X184667222Y-43682991D01*
X184583557Y-43526466D01*
X184532037Y-43356627D01*
X184514641Y-43180000D01*
X184532037Y-43003373D01*
X184583557Y-42833534D01*
X184667222Y-42677009D01*
X184696552Y-42641271D01*
X184779814Y-42539814D01*
X184881271Y-42456552D01*
X184917009Y-42427222D01*
X185073534Y-42343557D01*
X185243373Y-42292037D01*
X185309557Y-42285519D01*
X185375740Y-42279000D01*
X185464260Y-42279000D01*
X185530442Y-42285518D01*
X185530442Y-42285518D01*
G37*
G36*
X161456822Y-35591313D02*
G01*
X161617241Y-35639976D01*
X161765077Y-35718995D01*
X161894659Y-35825341D01*
X162001004Y-35954922D01*
X162001005Y-35954924D01*
X162080024Y-36102758D01*
X162080024Y-36102759D01*
X162080025Y-36102761D01*
X162084950Y-36118996D01*
X162128687Y-36263177D01*
X162141000Y-36388196D01*
X162141000Y-37271803D01*
X162128687Y-37396822D01*
X162128686Y-37396825D01*
X162084950Y-37541005D01*
X162080024Y-37557242D01*
X162031355Y-37648295D01*
X162001004Y-37705078D01*
X161894659Y-37834659D01*
X161765078Y-37941004D01*
X161765076Y-37941005D01*
X161617242Y-38020024D01*
X161456823Y-38068687D01*
X161290000Y-38085117D01*
X161123178Y-38068687D01*
X160962759Y-38020024D01*
X160814925Y-37941005D01*
X160814923Y-37941004D01*
X160685342Y-37834659D01*
X160578997Y-37705078D01*
X160548646Y-37648295D01*
X160499977Y-37557242D01*
X160495052Y-37541005D01*
X160451315Y-37396825D01*
X160451314Y-37396823D01*
X160439000Y-37271803D01*
X160439000Y-36388197D01*
X160451313Y-36263178D01*
X160490917Y-36132621D01*
X160499975Y-36102762D01*
X160499976Y-36102759D01*
X160578995Y-35954923D01*
X160685341Y-35825341D01*
X160814922Y-35718996D01*
X160830094Y-35710886D01*
X160962758Y-35639976D01*
X161123177Y-35591313D01*
X161290000Y-35574883D01*
X161456822Y-35591313D01*
X161456822Y-35591313D01*
G37*
G36*
X158916822Y-35591313D02*
G01*
X159077241Y-35639976D01*
X159225077Y-35718995D01*
X159354659Y-35825341D01*
X159461004Y-35954922D01*
X159461005Y-35954924D01*
X159540024Y-36102758D01*
X159540024Y-36102759D01*
X159540025Y-36102761D01*
X159544950Y-36118996D01*
X159588687Y-36263177D01*
X159601000Y-36388196D01*
X159601000Y-37271803D01*
X159588687Y-37396822D01*
X159588686Y-37396825D01*
X159544950Y-37541005D01*
X159540024Y-37557242D01*
X159491355Y-37648295D01*
X159461004Y-37705078D01*
X159354659Y-37834659D01*
X159225078Y-37941004D01*
X159225076Y-37941005D01*
X159077242Y-38020024D01*
X158916823Y-38068687D01*
X158750000Y-38085117D01*
X158583178Y-38068687D01*
X158422759Y-38020024D01*
X158274925Y-37941005D01*
X158274923Y-37941004D01*
X158145342Y-37834659D01*
X158038997Y-37705078D01*
X158008646Y-37648295D01*
X157959977Y-37557242D01*
X157955052Y-37541005D01*
X157911315Y-37396825D01*
X157911314Y-37396823D01*
X157899000Y-37271803D01*
X157899000Y-36388197D01*
X157911313Y-36263178D01*
X157950917Y-36132621D01*
X157959975Y-36102762D01*
X157959976Y-36102759D01*
X158038995Y-35954923D01*
X158145341Y-35825341D01*
X158274922Y-35718996D01*
X158290094Y-35710886D01*
X158422758Y-35639976D01*
X158583177Y-35591313D01*
X158750000Y-35574883D01*
X158916822Y-35591313D01*
X158916822Y-35591313D01*
G37*
G36*
X156376822Y-35591313D02*
G01*
X156537241Y-35639976D01*
X156685077Y-35718995D01*
X156814659Y-35825341D01*
X156921004Y-35954922D01*
X156921005Y-35954924D01*
X157000024Y-36102758D01*
X157000024Y-36102759D01*
X157000025Y-36102761D01*
X157004950Y-36118996D01*
X157048687Y-36263177D01*
X157061000Y-36388196D01*
X157061000Y-37271803D01*
X157048687Y-37396822D01*
X157048686Y-37396825D01*
X157004950Y-37541005D01*
X157000024Y-37557242D01*
X156951355Y-37648295D01*
X156921004Y-37705078D01*
X156814659Y-37834659D01*
X156685078Y-37941004D01*
X156685076Y-37941005D01*
X156537242Y-38020024D01*
X156376823Y-38068687D01*
X156210000Y-38085117D01*
X156043178Y-38068687D01*
X155882759Y-38020024D01*
X155734925Y-37941005D01*
X155734923Y-37941004D01*
X155605342Y-37834659D01*
X155498997Y-37705078D01*
X155468646Y-37648295D01*
X155419977Y-37557242D01*
X155415052Y-37541005D01*
X155371315Y-37396825D01*
X155371314Y-37396823D01*
X155359000Y-37271803D01*
X155359000Y-36388197D01*
X155371313Y-36263178D01*
X155410917Y-36132621D01*
X155419975Y-36102762D01*
X155419976Y-36102759D01*
X155498995Y-35954923D01*
X155605341Y-35825341D01*
X155734922Y-35718996D01*
X155750094Y-35710886D01*
X155882758Y-35639976D01*
X156043177Y-35591313D01*
X156210000Y-35574883D01*
X156376822Y-35591313D01*
X156376822Y-35591313D01*
G37*
G36*
X154521000Y-38081000D02*
G01*
X152819000Y-38081000D01*
X152819000Y-35579000D01*
X154521000Y-35579000D01*
X154521000Y-38081000D01*
X154521000Y-38081000D01*
G37*
G36*
X198286823Y-35991313D02*
G01*
X198447242Y-36039976D01*
X198564704Y-36102761D01*
X198595078Y-36118996D01*
X198724659Y-36225341D01*
X198831004Y-36354922D01*
X198831005Y-36354924D01*
X198910024Y-36502758D01*
X198958687Y-36663177D01*
X198975117Y-36830000D01*
X198958687Y-36996823D01*
X198910024Y-37157242D01*
X198869477Y-37233100D01*
X198831004Y-37305078D01*
X198724659Y-37434659D01*
X198595078Y-37541004D01*
X198595076Y-37541005D01*
X198447242Y-37620024D01*
X198286823Y-37668687D01*
X198161804Y-37681000D01*
X198078196Y-37681000D01*
X197953177Y-37668687D01*
X197792758Y-37620024D01*
X197644924Y-37541005D01*
X197644922Y-37541004D01*
X197515341Y-37434659D01*
X197408996Y-37305078D01*
X197370523Y-37233100D01*
X197329976Y-37157242D01*
X197281313Y-36996823D01*
X197264883Y-36830000D01*
X197281313Y-36663177D01*
X197329976Y-36502758D01*
X197408995Y-36354924D01*
X197408996Y-36354922D01*
X197515341Y-36225341D01*
X197644922Y-36118996D01*
X197675296Y-36102761D01*
X197792758Y-36039976D01*
X197953177Y-35991313D01*
X198078196Y-35979000D01*
X198161804Y-35979000D01*
X198286823Y-35991313D01*
X198286823Y-35991313D01*
G37*
G36*
X209798228Y-36011703D02*
G01*
X209953100Y-36075853D01*
X210092481Y-36168985D01*
X210211015Y-36287519D01*
X210304147Y-36426900D01*
X210368297Y-36581772D01*
X210401000Y-36746184D01*
X210401000Y-36913816D01*
X210368297Y-37078228D01*
X210304147Y-37233100D01*
X210211015Y-37372481D01*
X210092481Y-37491015D01*
X209953100Y-37584147D01*
X209798228Y-37648297D01*
X209633816Y-37681000D01*
X209466184Y-37681000D01*
X209301772Y-37648297D01*
X209146900Y-37584147D01*
X209007519Y-37491015D01*
X208888985Y-37372481D01*
X208795853Y-37233100D01*
X208731703Y-37078228D01*
X208699000Y-36913816D01*
X208699000Y-36746184D01*
X208731703Y-36581772D01*
X208795853Y-36426900D01*
X208888985Y-36287519D01*
X209007519Y-36168985D01*
X209146900Y-36075853D01*
X209301772Y-36011703D01*
X209466184Y-35979000D01*
X209633816Y-35979000D01*
X209798228Y-36011703D01*
X209798228Y-36011703D01*
G37*
G36*
X212256823Y-35991313D02*
G01*
X212417242Y-36039976D01*
X212534704Y-36102761D01*
X212565078Y-36118996D01*
X212694659Y-36225341D01*
X212801004Y-36354922D01*
X212801005Y-36354924D01*
X212880024Y-36502758D01*
X212928687Y-36663177D01*
X212945117Y-36830000D01*
X212928687Y-36996823D01*
X212880024Y-37157242D01*
X212839477Y-37233100D01*
X212801004Y-37305078D01*
X212694659Y-37434659D01*
X212565078Y-37541004D01*
X212565076Y-37541005D01*
X212417242Y-37620024D01*
X212256823Y-37668687D01*
X212131804Y-37681000D01*
X212048196Y-37681000D01*
X211923177Y-37668687D01*
X211762758Y-37620024D01*
X211614924Y-37541005D01*
X211614922Y-37541004D01*
X211485341Y-37434659D01*
X211378996Y-37305078D01*
X211340523Y-37233100D01*
X211299976Y-37157242D01*
X211251313Y-36996823D01*
X211234883Y-36830000D01*
X211251313Y-36663177D01*
X211299976Y-36502758D01*
X211378995Y-36354924D01*
X211378996Y-36354922D01*
X211485341Y-36225341D01*
X211614922Y-36118996D01*
X211645296Y-36102761D01*
X211762758Y-36039976D01*
X211923177Y-35991313D01*
X212048196Y-35979000D01*
X212131804Y-35979000D01*
X212256823Y-35991313D01*
X212256823Y-35991313D01*
G37*
G36*
X202096823Y-35991313D02*
G01*
X202257242Y-36039976D01*
X202374704Y-36102761D01*
X202405078Y-36118996D01*
X202534659Y-36225341D01*
X202641004Y-36354922D01*
X202641005Y-36354924D01*
X202720024Y-36502758D01*
X202768687Y-36663177D01*
X202785117Y-36830000D01*
X202768687Y-36996823D01*
X202720024Y-37157242D01*
X202679477Y-37233100D01*
X202641004Y-37305078D01*
X202534659Y-37434659D01*
X202405078Y-37541004D01*
X202405076Y-37541005D01*
X202257242Y-37620024D01*
X202096823Y-37668687D01*
X201971804Y-37681000D01*
X201888196Y-37681000D01*
X201763177Y-37668687D01*
X201602758Y-37620024D01*
X201454924Y-37541005D01*
X201454922Y-37541004D01*
X201325341Y-37434659D01*
X201218996Y-37305078D01*
X201180523Y-37233100D01*
X201139976Y-37157242D01*
X201091313Y-36996823D01*
X201074883Y-36830000D01*
X201091313Y-36663177D01*
X201139976Y-36502758D01*
X201218995Y-36354924D01*
X201218996Y-36354922D01*
X201325341Y-36225341D01*
X201454922Y-36118996D01*
X201485296Y-36102761D01*
X201602758Y-36039976D01*
X201763177Y-35991313D01*
X201888196Y-35979000D01*
X201971804Y-35979000D01*
X202096823Y-35991313D01*
X202096823Y-35991313D01*
G37*
G36*
X193206823Y-35991313D02*
G01*
X193367242Y-36039976D01*
X193484704Y-36102761D01*
X193515078Y-36118996D01*
X193644659Y-36225341D01*
X193751004Y-36354922D01*
X193751005Y-36354924D01*
X193830024Y-36502758D01*
X193878687Y-36663177D01*
X193895117Y-36830000D01*
X193878687Y-36996823D01*
X193830024Y-37157242D01*
X193789477Y-37233100D01*
X193751004Y-37305078D01*
X193644659Y-37434659D01*
X193515078Y-37541004D01*
X193515076Y-37541005D01*
X193367242Y-37620024D01*
X193206823Y-37668687D01*
X193081804Y-37681000D01*
X192998196Y-37681000D01*
X192873177Y-37668687D01*
X192712758Y-37620024D01*
X192564924Y-37541005D01*
X192564922Y-37541004D01*
X192435341Y-37434659D01*
X192328996Y-37305078D01*
X192290523Y-37233100D01*
X192249976Y-37157242D01*
X192201313Y-36996823D01*
X192184883Y-36830000D01*
X192201313Y-36663177D01*
X192249976Y-36502758D01*
X192328995Y-36354924D01*
X192328996Y-36354922D01*
X192435341Y-36225341D01*
X192564922Y-36118996D01*
X192595296Y-36102761D01*
X192712758Y-36039976D01*
X192873177Y-35991313D01*
X192998196Y-35979000D01*
X193081804Y-35979000D01*
X193206823Y-35991313D01*
X193206823Y-35991313D01*
G37*
G36*
X219958228Y-36011703D02*
G01*
X220113100Y-36075853D01*
X220252481Y-36168985D01*
X220371015Y-36287519D01*
X220464147Y-36426900D01*
X220528297Y-36581772D01*
X220561000Y-36746184D01*
X220561000Y-36913816D01*
X220528297Y-37078228D01*
X220464147Y-37233100D01*
X220371015Y-37372481D01*
X220252481Y-37491015D01*
X220113100Y-37584147D01*
X219958228Y-37648297D01*
X219793816Y-37681000D01*
X219626184Y-37681000D01*
X219461772Y-37648297D01*
X219306900Y-37584147D01*
X219167519Y-37491015D01*
X219048985Y-37372481D01*
X218955853Y-37233100D01*
X218891703Y-37078228D01*
X218859000Y-36913816D01*
X218859000Y-36746184D01*
X218891703Y-36581772D01*
X218955853Y-36426900D01*
X219048985Y-36287519D01*
X219167519Y-36168985D01*
X219306900Y-36075853D01*
X219461772Y-36011703D01*
X219626184Y-35979000D01*
X219793816Y-35979000D01*
X219958228Y-36011703D01*
X219958228Y-36011703D01*
G37*
G36*
X187641000Y-37108500D02*
G01*
X185739000Y-37108500D01*
X185739000Y-35731500D01*
X187641000Y-35731500D01*
X187641000Y-37108500D01*
X187641000Y-37108500D01*
G37*
G36*
X187006551Y-34033492D02*
G01*
X187087470Y-34041462D01*
X187217252Y-34080831D01*
X187266645Y-34107233D01*
X187336860Y-34144763D01*
X187441699Y-34230801D01*
X187527736Y-34335639D01*
X187591669Y-34455248D01*
X187631038Y-34585030D01*
X187644331Y-34720000D01*
X187631038Y-34854970D01*
X187591669Y-34984752D01*
X187591666Y-34984757D01*
X187527737Y-35104360D01*
X187441699Y-35209199D01*
X187336860Y-35295237D01*
X187266645Y-35332767D01*
X187217252Y-35359169D01*
X187087470Y-35398538D01*
X187006551Y-35406508D01*
X186986322Y-35408500D01*
X186393678Y-35408500D01*
X186373449Y-35406508D01*
X186292530Y-35398538D01*
X186162748Y-35359169D01*
X186113355Y-35332767D01*
X186043140Y-35295237D01*
X185938301Y-35209199D01*
X185852263Y-35104360D01*
X185788334Y-34984757D01*
X185788331Y-34984752D01*
X185748962Y-34854970D01*
X185735669Y-34720000D01*
X185748962Y-34585030D01*
X185788331Y-34455248D01*
X185852264Y-34335639D01*
X185938301Y-34230801D01*
X186043140Y-34144763D01*
X186113355Y-34107233D01*
X186162748Y-34080831D01*
X186292530Y-34041462D01*
X186373449Y-34033492D01*
X186393678Y-34031500D01*
X186986322Y-34031500D01*
X187006551Y-34033492D01*
X187006551Y-34033492D01*
G37*
G36*
X146266000Y-35141000D02*
G01*
X144564000Y-35141000D01*
X144564000Y-33439000D01*
X146266000Y-33439000D01*
X146266000Y-35141000D01*
X146266000Y-35141000D01*
G37*
G36*
X170206669Y-31227686D02*
G01*
X170383058Y-31245059D01*
X170722548Y-31348042D01*
X170722550Y-31348043D01*
X171035422Y-31515277D01*
X171309661Y-31740339D01*
X171534723Y-32014578D01*
X171630145Y-32193100D01*
X171701958Y-32327452D01*
X171804941Y-32666942D01*
X171839714Y-33020000D01*
X171804941Y-33373058D01*
X171703186Y-33708500D01*
X171701957Y-33712550D01*
X171534723Y-34025422D01*
X171309661Y-34299661D01*
X171035422Y-34524723D01*
X170922588Y-34585034D01*
X170722548Y-34691958D01*
X170383058Y-34794941D01*
X170206669Y-34812314D01*
X170118476Y-34821000D01*
X169941524Y-34821000D01*
X169853331Y-34812314D01*
X169676942Y-34794941D01*
X169337452Y-34691958D01*
X169137412Y-34585034D01*
X169024578Y-34524723D01*
X168750339Y-34299661D01*
X168525277Y-34025422D01*
X168358043Y-33712550D01*
X168356814Y-33708500D01*
X168255059Y-33373058D01*
X168220286Y-33020000D01*
X168255059Y-32666942D01*
X168358042Y-32327452D01*
X168429855Y-32193100D01*
X168525277Y-32014578D01*
X168750339Y-31740339D01*
X169024578Y-31515277D01*
X169337450Y-31348043D01*
X169337452Y-31348042D01*
X169676942Y-31245059D01*
X169853331Y-31227686D01*
X169941524Y-31219000D01*
X170118476Y-31219000D01*
X170206669Y-31227686D01*
X170206669Y-31227686D01*
G37*
G36*
X186996282Y-32332481D02*
G01*
X187087470Y-32341462D01*
X187217252Y-32380831D01*
X187266645Y-32407233D01*
X187336860Y-32444763D01*
X187441699Y-32530801D01*
X187505297Y-32608297D01*
X187527736Y-32635639D01*
X187591669Y-32755248D01*
X187631038Y-32885030D01*
X187644331Y-33020000D01*
X187631038Y-33154970D01*
X187591669Y-33284752D01*
X187591666Y-33284757D01*
X187527737Y-33404360D01*
X187441699Y-33509199D01*
X187336860Y-33595237D01*
X187266645Y-33632767D01*
X187217252Y-33659169D01*
X187087470Y-33698538D01*
X187006551Y-33706508D01*
X186986322Y-33708500D01*
X186393678Y-33708500D01*
X186373449Y-33706508D01*
X186292530Y-33698538D01*
X186162748Y-33659169D01*
X186113355Y-33632767D01*
X186043140Y-33595237D01*
X185938301Y-33509199D01*
X185852263Y-33404360D01*
X185788334Y-33284757D01*
X185788331Y-33284752D01*
X185748962Y-33154970D01*
X185735669Y-33020000D01*
X185748962Y-32885030D01*
X185788331Y-32755248D01*
X185852264Y-32635639D01*
X185874703Y-32608297D01*
X185938301Y-32530801D01*
X186043140Y-32444763D01*
X186113355Y-32407233D01*
X186162748Y-32380831D01*
X186292530Y-32341462D01*
X186383718Y-32332481D01*
X186393678Y-32331500D01*
X186986322Y-32331500D01*
X186996282Y-32332481D01*
X186996282Y-32332481D01*
G37*
G36*
X145663228Y-30971703D02*
G01*
X145818100Y-31035853D01*
X145957481Y-31128985D01*
X146076015Y-31247519D01*
X146169147Y-31386900D01*
X146233297Y-31541772D01*
X146266000Y-31706184D01*
X146266000Y-31873816D01*
X146233297Y-32038228D01*
X146169147Y-32193100D01*
X146076015Y-32332481D01*
X145957481Y-32451015D01*
X145818100Y-32544147D01*
X145663228Y-32608297D01*
X145498816Y-32641000D01*
X145331184Y-32641000D01*
X145166772Y-32608297D01*
X145011900Y-32544147D01*
X144872519Y-32451015D01*
X144753985Y-32332481D01*
X144660853Y-32193100D01*
X144596703Y-32038228D01*
X144564000Y-31873816D01*
X144564000Y-31706184D01*
X144596703Y-31541772D01*
X144660853Y-31386900D01*
X144753985Y-31247519D01*
X144872519Y-31128985D01*
X145011900Y-31035853D01*
X145166772Y-30971703D01*
X145331184Y-30939000D01*
X145498816Y-30939000D01*
X145663228Y-30971703D01*
X145663228Y-30971703D01*
G37*
G36*
X213564473Y-29805938D02*
G01*
X213692049Y-29858782D01*
X213806859Y-29935495D01*
X213904505Y-30033141D01*
X213981218Y-30147951D01*
X214034062Y-30275527D01*
X214061000Y-30410956D01*
X214061000Y-30549044D01*
X214034062Y-30684473D01*
X213981218Y-30812049D01*
X213952816Y-30854556D01*
X213941265Y-30876167D01*
X213934152Y-30899616D01*
X213931750Y-30924002D01*
X213934152Y-30948388D01*
X213941265Y-30971837D01*
X213952817Y-30993447D01*
X213968362Y-31012389D01*
X213987304Y-31027934D01*
X214008915Y-31039485D01*
X214032364Y-31046598D01*
X214056749Y-31049000D01*
X215331000Y-31049000D01*
X215331000Y-32451000D01*
X213929000Y-32451000D01*
X213929000Y-31176749D01*
X213926598Y-31152363D01*
X213919485Y-31128914D01*
X213907934Y-31107303D01*
X213892389Y-31088361D01*
X213873447Y-31072816D01*
X213851836Y-31061265D01*
X213828387Y-31054152D01*
X213804001Y-31051750D01*
X213779615Y-31054152D01*
X213756166Y-31061265D01*
X213734556Y-31072816D01*
X213692049Y-31101218D01*
X213564473Y-31154062D01*
X213429044Y-31181000D01*
X213290956Y-31181000D01*
X213155527Y-31154062D01*
X213027951Y-31101218D01*
X212913141Y-31024505D01*
X212815495Y-30926859D01*
X212738782Y-30812049D01*
X212685938Y-30684473D01*
X212659000Y-30549044D01*
X212659000Y-30410956D01*
X212685938Y-30275527D01*
X212738782Y-30147951D01*
X212815495Y-30033141D01*
X212913141Y-29935495D01*
X213027951Y-29858782D01*
X213155527Y-29805938D01*
X213290956Y-29779000D01*
X213429044Y-29779000D01*
X213564473Y-29805938D01*
X213564473Y-29805938D01*
G37*
G36*
X204674473Y-29805938D02*
G01*
X204802049Y-29858782D01*
X204916859Y-29935495D01*
X205014505Y-30033141D01*
X205091218Y-30147951D01*
X205144062Y-30275527D01*
X205171000Y-30410956D01*
X205171000Y-30549044D01*
X205144062Y-30684473D01*
X205091218Y-30812049D01*
X205062816Y-30854556D01*
X205051265Y-30876167D01*
X205044152Y-30899616D01*
X205041750Y-30924002D01*
X205044152Y-30948388D01*
X205051265Y-30971837D01*
X205062817Y-30993447D01*
X205078362Y-31012389D01*
X205097304Y-31027934D01*
X205118915Y-31039485D01*
X205142364Y-31046598D01*
X205166749Y-31049000D01*
X206441000Y-31049000D01*
X206441000Y-32451000D01*
X205039000Y-32451000D01*
X205039000Y-31176749D01*
X205036598Y-31152363D01*
X205029485Y-31128914D01*
X205017934Y-31107303D01*
X205002389Y-31088361D01*
X204983447Y-31072816D01*
X204961836Y-31061265D01*
X204938387Y-31054152D01*
X204914001Y-31051750D01*
X204889615Y-31054152D01*
X204866166Y-31061265D01*
X204844556Y-31072816D01*
X204802049Y-31101218D01*
X204674473Y-31154062D01*
X204539044Y-31181000D01*
X204400956Y-31181000D01*
X204265527Y-31154062D01*
X204137951Y-31101218D01*
X204023141Y-31024505D01*
X203925495Y-30926859D01*
X203848782Y-30812049D01*
X203795938Y-30684473D01*
X203769000Y-30549044D01*
X203769000Y-30410956D01*
X203795938Y-30275527D01*
X203848782Y-30147951D01*
X203925495Y-30033141D01*
X204023141Y-29935495D01*
X204137951Y-29858782D01*
X204265527Y-29805938D01*
X204400956Y-29779000D01*
X204539044Y-29779000D01*
X204674473Y-29805938D01*
X204674473Y-29805938D01*
G37*
G36*
X187006551Y-30633492D02*
G01*
X187087470Y-30641462D01*
X187217252Y-30680831D01*
X187266645Y-30707233D01*
X187336860Y-30744763D01*
X187441699Y-30830801D01*
X187527737Y-30935640D01*
X187558635Y-30993447D01*
X187591669Y-31055248D01*
X187631038Y-31185030D01*
X187644331Y-31320000D01*
X187631038Y-31454970D01*
X187591669Y-31584752D01*
X187591666Y-31584757D01*
X187527737Y-31704360D01*
X187441699Y-31809199D01*
X187336860Y-31895237D01*
X187266645Y-31932767D01*
X187217252Y-31959169D01*
X187087470Y-31998538D01*
X187006551Y-32006508D01*
X186986322Y-32008500D01*
X186393678Y-32008500D01*
X186373449Y-32006508D01*
X186292530Y-31998538D01*
X186162748Y-31959169D01*
X186113355Y-31932767D01*
X186043140Y-31895237D01*
X185938301Y-31809199D01*
X185852263Y-31704360D01*
X185788334Y-31584757D01*
X185788331Y-31584752D01*
X185748962Y-31454970D01*
X185735669Y-31320000D01*
X185748962Y-31185030D01*
X185788331Y-31055248D01*
X185821365Y-30993447D01*
X185852263Y-30935640D01*
X185938301Y-30830801D01*
X186043140Y-30744763D01*
X186113355Y-30707233D01*
X186162748Y-30680831D01*
X186292530Y-30641462D01*
X186373449Y-30633492D01*
X186393678Y-30631500D01*
X186986322Y-30631500D01*
X187006551Y-30633492D01*
X187006551Y-30633492D01*
G37*
G36*
X161456822Y-27971313D02*
G01*
X161617241Y-28019976D01*
X161765077Y-28098995D01*
X161875961Y-28189996D01*
X161894659Y-28205341D01*
X162001004Y-28334922D01*
X162001005Y-28334924D01*
X162080024Y-28482758D01*
X162080024Y-28482759D01*
X162080025Y-28482761D01*
X162089083Y-28512620D01*
X162128687Y-28643177D01*
X162141000Y-28768196D01*
X162141000Y-29651803D01*
X162128687Y-29776822D01*
X162128686Y-29776825D01*
X162087985Y-29911000D01*
X162080024Y-29937242D01*
X162044148Y-30004361D01*
X162001004Y-30085078D01*
X161894659Y-30214659D01*
X161765078Y-30321004D01*
X161765076Y-30321005D01*
X161617242Y-30400024D01*
X161456823Y-30448687D01*
X161290000Y-30465117D01*
X161123178Y-30448687D01*
X160962759Y-30400024D01*
X160814925Y-30321005D01*
X160814923Y-30321004D01*
X160685342Y-30214659D01*
X160578997Y-30085078D01*
X160535853Y-30004361D01*
X160499977Y-29937242D01*
X160492017Y-29911000D01*
X160467815Y-29831218D01*
X160451314Y-29776823D01*
X160439000Y-29651803D01*
X160439000Y-28768197D01*
X160451313Y-28643178D01*
X160499976Y-28482759D01*
X160578995Y-28334923D01*
X160685341Y-28205341D01*
X160704039Y-28189996D01*
X160814922Y-28098996D01*
X160830094Y-28090886D01*
X160962758Y-28019976D01*
X161123177Y-27971313D01*
X161290000Y-27954883D01*
X161456822Y-27971313D01*
X161456822Y-27971313D01*
G37*
G36*
X158916822Y-27971313D02*
G01*
X159077241Y-28019976D01*
X159225077Y-28098995D01*
X159335961Y-28189996D01*
X159354659Y-28205341D01*
X159461004Y-28334922D01*
X159461005Y-28334924D01*
X159540024Y-28482758D01*
X159540024Y-28482759D01*
X159540025Y-28482761D01*
X159549083Y-28512620D01*
X159588687Y-28643177D01*
X159601000Y-28768196D01*
X159601000Y-29651803D01*
X159588687Y-29776822D01*
X159588686Y-29776825D01*
X159547985Y-29911000D01*
X159540024Y-29937242D01*
X159504148Y-30004361D01*
X159461004Y-30085078D01*
X159354659Y-30214659D01*
X159225078Y-30321004D01*
X159225076Y-30321005D01*
X159077242Y-30400024D01*
X158916823Y-30448687D01*
X158750000Y-30465117D01*
X158583178Y-30448687D01*
X158422759Y-30400024D01*
X158274925Y-30321005D01*
X158274923Y-30321004D01*
X158145342Y-30214659D01*
X158038997Y-30085078D01*
X157995853Y-30004361D01*
X157959977Y-29937242D01*
X157952017Y-29911000D01*
X157927815Y-29831218D01*
X157911314Y-29776823D01*
X157899000Y-29651803D01*
X157899000Y-28768197D01*
X157911313Y-28643178D01*
X157959976Y-28482759D01*
X158038995Y-28334923D01*
X158145341Y-28205341D01*
X158164039Y-28189996D01*
X158274922Y-28098996D01*
X158290094Y-28090886D01*
X158422758Y-28019976D01*
X158583177Y-27971313D01*
X158750000Y-27954883D01*
X158916822Y-27971313D01*
X158916822Y-27971313D01*
G37*
G36*
X156376822Y-27971313D02*
G01*
X156537241Y-28019976D01*
X156685077Y-28098995D01*
X156795961Y-28189996D01*
X156814659Y-28205341D01*
X156921004Y-28334922D01*
X156921005Y-28334924D01*
X157000024Y-28482758D01*
X157000024Y-28482759D01*
X157000025Y-28482761D01*
X157009083Y-28512620D01*
X157048687Y-28643177D01*
X157061000Y-28768196D01*
X157061000Y-29651803D01*
X157048687Y-29776822D01*
X157048686Y-29776825D01*
X157007985Y-29911000D01*
X157000024Y-29937242D01*
X156964148Y-30004361D01*
X156921004Y-30085078D01*
X156814659Y-30214659D01*
X156685078Y-30321004D01*
X156685076Y-30321005D01*
X156537242Y-30400024D01*
X156376823Y-30448687D01*
X156210000Y-30465117D01*
X156043178Y-30448687D01*
X155882759Y-30400024D01*
X155734925Y-30321005D01*
X155734923Y-30321004D01*
X155605342Y-30214659D01*
X155498997Y-30085078D01*
X155455853Y-30004361D01*
X155419977Y-29937242D01*
X155412017Y-29911000D01*
X155387815Y-29831218D01*
X155371314Y-29776823D01*
X155359000Y-29651803D01*
X155359000Y-28768197D01*
X155371313Y-28643178D01*
X155419976Y-28482759D01*
X155498995Y-28334923D01*
X155605341Y-28205341D01*
X155624039Y-28189996D01*
X155734922Y-28098996D01*
X155750094Y-28090886D01*
X155882758Y-28019976D01*
X156043177Y-27971313D01*
X156210000Y-27954883D01*
X156376822Y-27971313D01*
X156376822Y-27971313D01*
G37*
G36*
X153836822Y-27971313D02*
G01*
X153997241Y-28019976D01*
X154145077Y-28098995D01*
X154255961Y-28189996D01*
X154274659Y-28205341D01*
X154381004Y-28334922D01*
X154381005Y-28334924D01*
X154460024Y-28482758D01*
X154460024Y-28482759D01*
X154460025Y-28482761D01*
X154469083Y-28512620D01*
X154508687Y-28643177D01*
X154521000Y-28768196D01*
X154521000Y-29651803D01*
X154508687Y-29776822D01*
X154508686Y-29776825D01*
X154467985Y-29911000D01*
X154460024Y-29937242D01*
X154424148Y-30004361D01*
X154381004Y-30085078D01*
X154274659Y-30214659D01*
X154145078Y-30321004D01*
X154145076Y-30321005D01*
X153997242Y-30400024D01*
X153836823Y-30448687D01*
X153670000Y-30465117D01*
X153503178Y-30448687D01*
X153342759Y-30400024D01*
X153194925Y-30321005D01*
X153194923Y-30321004D01*
X153065342Y-30214659D01*
X152958997Y-30085078D01*
X152915853Y-30004361D01*
X152879977Y-29937242D01*
X152872017Y-29911000D01*
X152847815Y-29831218D01*
X152831314Y-29776823D01*
X152819000Y-29651803D01*
X152819000Y-28768197D01*
X152831313Y-28643178D01*
X152879976Y-28482759D01*
X152958995Y-28334923D01*
X153065341Y-28205341D01*
X153084039Y-28189996D01*
X153194922Y-28098996D01*
X153210094Y-28090886D01*
X153342758Y-28019976D01*
X153503177Y-27971313D01*
X153670000Y-27954883D01*
X153836822Y-27971313D01*
X153836822Y-27971313D01*
G37*
G36*
X222474549Y-28081116D02*
G01*
X222585734Y-28103232D01*
X222795203Y-28189997D01*
X222983720Y-28315960D01*
X223144040Y-28476280D01*
X223270003Y-28664797D01*
X223270004Y-28664799D01*
X223271131Y-28667520D01*
X223356768Y-28874266D01*
X223370134Y-28941462D01*
X223401000Y-29096635D01*
X223401000Y-29323365D01*
X223356768Y-29545733D01*
X223270294Y-29754502D01*
X223270003Y-29755203D01*
X223144040Y-29943720D01*
X222983720Y-30104040D01*
X222795203Y-30230003D01*
X222585734Y-30316768D01*
X222474549Y-30338884D01*
X222363365Y-30361000D01*
X222136635Y-30361000D01*
X222025451Y-30338884D01*
X221914266Y-30316768D01*
X221704797Y-30230003D01*
X221516280Y-30104040D01*
X221355960Y-29943720D01*
X221229997Y-29755203D01*
X221229707Y-29754502D01*
X221143232Y-29545733D01*
X221099000Y-29323365D01*
X221099000Y-29096635D01*
X221129866Y-28941462D01*
X221143232Y-28874266D01*
X221228869Y-28667520D01*
X221229996Y-28664799D01*
X221229997Y-28664797D01*
X221355960Y-28476280D01*
X221516280Y-28315960D01*
X221704797Y-28189997D01*
X221914266Y-28103232D01*
X222025451Y-28081116D01*
X222136635Y-28059000D01*
X222363365Y-28059000D01*
X222474549Y-28081116D01*
X222474549Y-28081116D01*
G37*
G36*
X131034549Y-28081116D02*
G01*
X131145734Y-28103232D01*
X131355203Y-28189997D01*
X131543720Y-28315960D01*
X131704040Y-28476280D01*
X131830003Y-28664797D01*
X131830004Y-28664799D01*
X131831131Y-28667520D01*
X131916768Y-28874266D01*
X131930134Y-28941462D01*
X131961000Y-29096635D01*
X131961000Y-29323365D01*
X131916768Y-29545733D01*
X131830294Y-29754502D01*
X131830003Y-29755203D01*
X131704040Y-29943720D01*
X131543720Y-30104040D01*
X131355203Y-30230003D01*
X131145734Y-30316768D01*
X131034549Y-30338884D01*
X130923365Y-30361000D01*
X130696635Y-30361000D01*
X130585451Y-30338884D01*
X130474266Y-30316768D01*
X130264797Y-30230003D01*
X130076280Y-30104040D01*
X129915960Y-29943720D01*
X129789997Y-29755203D01*
X129789707Y-29754502D01*
X129703232Y-29545733D01*
X129659000Y-29323365D01*
X129659000Y-29096635D01*
X129689866Y-28941462D01*
X129703232Y-28874266D01*
X129788869Y-28667520D01*
X129789996Y-28664799D01*
X129789997Y-28664797D01*
X129915960Y-28476280D01*
X130076280Y-28315960D01*
X130264797Y-28189997D01*
X130474266Y-28103232D01*
X130585451Y-28081116D01*
X130696635Y-28059000D01*
X130923365Y-28059000D01*
X131034549Y-28081116D01*
X131034549Y-28081116D01*
G37*
G36*
X187006551Y-28933492D02*
G01*
X187087470Y-28941462D01*
X187217252Y-28980831D01*
X187263453Y-29005526D01*
X187336860Y-29044763D01*
X187441699Y-29130801D01*
X187527736Y-29235639D01*
X187591669Y-29355248D01*
X187631038Y-29485030D01*
X187644331Y-29620000D01*
X187631038Y-29754970D01*
X187591669Y-29884752D01*
X187591666Y-29884757D01*
X187527737Y-30004360D01*
X187441699Y-30109199D01*
X187336860Y-30195237D01*
X187271817Y-30230003D01*
X187217252Y-30259169D01*
X187087470Y-30298538D01*
X187006551Y-30306508D01*
X186986322Y-30308500D01*
X186393678Y-30308500D01*
X186373449Y-30306508D01*
X186292530Y-30298538D01*
X186162748Y-30259169D01*
X186108183Y-30230003D01*
X186043140Y-30195237D01*
X185938301Y-30109199D01*
X185852263Y-30004360D01*
X185788334Y-29884757D01*
X185788331Y-29884752D01*
X185748962Y-29754970D01*
X185735669Y-29620000D01*
X185748962Y-29485030D01*
X185788331Y-29355248D01*
X185852264Y-29235639D01*
X185938301Y-29130801D01*
X186043140Y-29044763D01*
X186116547Y-29005526D01*
X186162748Y-28980831D01*
X186292530Y-28941462D01*
X186373449Y-28933492D01*
X186393678Y-28931500D01*
X186986322Y-28931500D01*
X187006551Y-28933492D01*
X187006551Y-28933492D01*
G37*
G36*
X198368228Y-28391703D02*
G01*
X198523100Y-28455853D01*
X198662481Y-28548985D01*
X198781015Y-28667519D01*
X198874147Y-28806900D01*
X198938297Y-28961772D01*
X198971000Y-29126184D01*
X198971000Y-29293816D01*
X198938297Y-29458228D01*
X198874147Y-29613100D01*
X198781015Y-29752481D01*
X198662481Y-29871015D01*
X198523100Y-29964147D01*
X198368228Y-30028297D01*
X198203816Y-30061000D01*
X198036184Y-30061000D01*
X197871772Y-30028297D01*
X197716900Y-29964147D01*
X197577519Y-29871015D01*
X197458985Y-29752481D01*
X197365853Y-29613100D01*
X197301703Y-29458228D01*
X197269000Y-29293816D01*
X197269000Y-29126184D01*
X197301703Y-28961772D01*
X197365853Y-28806900D01*
X197458985Y-28667519D01*
X197577519Y-28548985D01*
X197716900Y-28455853D01*
X197871772Y-28391703D01*
X198036184Y-28359000D01*
X198203816Y-28359000D01*
X198368228Y-28391703D01*
X198368228Y-28391703D01*
G37*
G36*
X193288228Y-28391703D02*
G01*
X193443100Y-28455853D01*
X193582481Y-28548985D01*
X193701015Y-28667519D01*
X193794147Y-28806900D01*
X193858297Y-28961772D01*
X193891000Y-29126184D01*
X193891000Y-29293816D01*
X193858297Y-29458228D01*
X193794147Y-29613100D01*
X193701015Y-29752481D01*
X193582481Y-29871015D01*
X193443100Y-29964147D01*
X193288228Y-30028297D01*
X193123816Y-30061000D01*
X192956184Y-30061000D01*
X192791772Y-30028297D01*
X192636900Y-29964147D01*
X192497519Y-29871015D01*
X192378985Y-29752481D01*
X192285853Y-29613100D01*
X192221703Y-29458228D01*
X192189000Y-29293816D01*
X192189000Y-29126184D01*
X192221703Y-28961772D01*
X192285853Y-28806900D01*
X192378985Y-28667519D01*
X192497519Y-28548985D01*
X192636900Y-28455853D01*
X192791772Y-28391703D01*
X192956184Y-28359000D01*
X193123816Y-28359000D01*
X193288228Y-28391703D01*
X193288228Y-28391703D01*
G37*
G36*
X205944473Y-28535938D02*
G01*
X206072049Y-28588782D01*
X206186859Y-28665495D01*
X206284505Y-28763141D01*
X206361218Y-28877951D01*
X206414062Y-29005527D01*
X206441000Y-29140956D01*
X206441000Y-29279044D01*
X206414062Y-29414473D01*
X206361218Y-29542049D01*
X206284505Y-29656859D01*
X206186859Y-29754505D01*
X206072049Y-29831218D01*
X205944473Y-29884062D01*
X205809044Y-29911000D01*
X205670956Y-29911000D01*
X205535527Y-29884062D01*
X205407951Y-29831218D01*
X205293141Y-29754505D01*
X205195495Y-29656859D01*
X205118782Y-29542049D01*
X205065938Y-29414473D01*
X205039000Y-29279044D01*
X205039000Y-29140956D01*
X205065938Y-29005527D01*
X205118782Y-28877951D01*
X205195495Y-28763141D01*
X205293141Y-28665495D01*
X205407951Y-28588782D01*
X205535527Y-28535938D01*
X205670956Y-28509000D01*
X205809044Y-28509000D01*
X205944473Y-28535938D01*
X205944473Y-28535938D01*
G37*
G36*
X214834473Y-28535938D02*
G01*
X214962049Y-28588782D01*
X215076859Y-28665495D01*
X215174505Y-28763141D01*
X215251218Y-28877951D01*
X215304062Y-29005527D01*
X215331000Y-29140956D01*
X215331000Y-29279044D01*
X215304062Y-29414473D01*
X215251218Y-29542049D01*
X215174505Y-29656859D01*
X215076859Y-29754505D01*
X214962049Y-29831218D01*
X214834473Y-29884062D01*
X214699044Y-29911000D01*
X214560956Y-29911000D01*
X214425527Y-29884062D01*
X214297951Y-29831218D01*
X214183141Y-29754505D01*
X214085495Y-29656859D01*
X214008782Y-29542049D01*
X213955938Y-29414473D01*
X213929000Y-29279044D01*
X213929000Y-29140956D01*
X213955938Y-29005527D01*
X214008782Y-28877951D01*
X214085495Y-28763141D01*
X214183141Y-28665495D01*
X214297951Y-28588782D01*
X214425527Y-28535938D01*
X214560956Y-28509000D01*
X214699044Y-28509000D01*
X214834473Y-28535938D01*
X214834473Y-28535938D01*
G37*
M02*
