G04 #@! TF.GenerationSoftware,KiCad,Pcbnew,(5.1.0)-1*
G04 #@! TF.CreationDate,2019-03-26T21:03:11+01:00*
G04 #@! TF.ProjectId,ac2-detpic-shield,6163322d-6465-4747-9069-632d73686965,rev?*
G04 #@! TF.SameCoordinates,Original*
G04 #@! TF.FileFunction,Copper,L2,Bot*
G04 #@! TF.FilePolarity,Positive*
%FSLAX46Y46*%
G04 Gerber Fmt 4.6, Leading zero omitted, Abs format (unit mm)*
G04 Created by KiCad (PCBNEW (5.1.0)-1) date 2019-03-26 21:03:11*
%MOMM*%
%LPD*%
G04 APERTURE LIST*
%ADD10O,1.600000X1.600000*%
%ADD11C,1.600000*%
%ADD12R,1.600000X1.600000*%
%ADD13C,1.800000*%
%ADD14R,1.800000X1.800000*%
%ADD15C,1.300000*%
%ADD16R,1.300000X1.300000*%
%ADD17C,2.340000*%
%ADD18R,1.600000X2.400000*%
%ADD19O,1.600000X2.400000*%
%ADD20C,1.524000*%
%ADD21R,1.524000X1.524000*%
%ADD22R,1.800000X1.275000*%
%ADD23O,1.800000X1.275000*%
%ADD24R,1.700000X1.700000*%
%ADD25O,1.700000X1.700000*%
%ADD26C,0.800000*%
%ADD27C,0.250000*%
%ADD28C,0.254000*%
G04 APERTURE END LIST*
D10*
X148336000Y-49276000D03*
D11*
X155956000Y-49276000D03*
D10*
X148336000Y-53340000D03*
D11*
X155956000Y-53340000D03*
D10*
X148336000Y-57404000D03*
D11*
X155956000Y-57404000D03*
D10*
X159004000Y-49276000D03*
D11*
X166624000Y-49276000D03*
D12*
X145415000Y-34290000D03*
D11*
X145415000Y-31790000D03*
D13*
X198882000Y-71628000D03*
D14*
X198882000Y-74168000D03*
X192278000Y-74168000D03*
D13*
X192278000Y-71628000D03*
D14*
X185674000Y-74168000D03*
D13*
X185674000Y-71628000D03*
X179070000Y-71628000D03*
D14*
X179070000Y-74168000D03*
D15*
X204470000Y-30480000D03*
X205740000Y-29210000D03*
D16*
X205740000Y-31750000D03*
X214630000Y-31750000D03*
D15*
X214630000Y-29210000D03*
X213360000Y-30480000D03*
D11*
X177292000Y-57404000D03*
D10*
X169672000Y-57404000D03*
D11*
X187960000Y-49276000D03*
D10*
X180340000Y-49276000D03*
X187960000Y-57404000D03*
D11*
X180340000Y-57404000D03*
X180340000Y-53340000D03*
D10*
X187960000Y-53340000D03*
D11*
X166624000Y-57404000D03*
D10*
X159004000Y-57404000D03*
X159004000Y-53340000D03*
D11*
X166624000Y-53340000D03*
X177292000Y-49276000D03*
D10*
X169672000Y-49276000D03*
X169672000Y-53340000D03*
D11*
X177292000Y-53340000D03*
D10*
X201930000Y-36830000D03*
D11*
X209550000Y-36830000D03*
D10*
X191008000Y-49276000D03*
D11*
X198628000Y-49276000D03*
X198628000Y-53340000D03*
D10*
X191008000Y-53340000D03*
X191008000Y-57404000D03*
D11*
X198628000Y-57404000D03*
X209296000Y-49276000D03*
D10*
X201676000Y-49276000D03*
X201676000Y-57404000D03*
D11*
X209296000Y-57404000D03*
X209296000Y-53340000D03*
D10*
X201676000Y-53340000D03*
D11*
X219964000Y-49276000D03*
D10*
X212344000Y-49276000D03*
X212344000Y-53340000D03*
D11*
X219964000Y-53340000D03*
D10*
X198120000Y-36830000D03*
D11*
X198120000Y-29210000D03*
D10*
X193040000Y-36830000D03*
D11*
X193040000Y-29210000D03*
X219710000Y-36830000D03*
D10*
X212090000Y-36830000D03*
D17*
X146845000Y-83185000D03*
X151845000Y-68185000D03*
X156845000Y-83185000D03*
D12*
X171958000Y-71628000D03*
D10*
X164338000Y-79248000D03*
X169418000Y-71628000D03*
X166878000Y-79248000D03*
X166878000Y-71628000D03*
X169418000Y-79248000D03*
X164338000Y-71628000D03*
X171958000Y-79248000D03*
D18*
X153670000Y-36830000D03*
D19*
X161290000Y-29210000D03*
X156210000Y-36830000D03*
X158750000Y-29210000D03*
X158750000Y-36830000D03*
X156210000Y-29210000D03*
X161290000Y-36830000D03*
X153670000Y-29210000D03*
D20*
X208280000Y-78740000D03*
X210820000Y-78740000D03*
X213360000Y-78740000D03*
X215900000Y-78740000D03*
X218440000Y-78740000D03*
X218440000Y-68580000D03*
X215900000Y-68580000D03*
X213360000Y-68580000D03*
X210820000Y-68580000D03*
D21*
X208280000Y-68580000D03*
D22*
X186690000Y-36420000D03*
D23*
X186690000Y-34720000D03*
X186690000Y-33020000D03*
X186690000Y-31320000D03*
X186690000Y-29620000D03*
D24*
X149860000Y-45720000D03*
D25*
X152400000Y-45720000D03*
X154940000Y-45720000D03*
X157480000Y-45720000D03*
X160020000Y-45720000D03*
X162560000Y-45720000D03*
X165100000Y-45720000D03*
X167640000Y-45720000D03*
X170180000Y-45720000D03*
X172720000Y-45720000D03*
X175260000Y-45720000D03*
X177800000Y-45720000D03*
X180340000Y-45720000D03*
X182880000Y-45720000D03*
X185420000Y-45720000D03*
X187960000Y-45720000D03*
X190500000Y-45720000D03*
X193040000Y-45720000D03*
X195580000Y-45720000D03*
X198120000Y-45720000D03*
X200660000Y-45720000D03*
X203200000Y-45720000D03*
X205740000Y-45720000D03*
X208280000Y-45720000D03*
X210820000Y-45720000D03*
X213360000Y-45720000D03*
X215900000Y-45720000D03*
X218440000Y-45720000D03*
X218440000Y-60960000D03*
X215900000Y-60960000D03*
X213360000Y-60960000D03*
X210820000Y-60960000D03*
X208280000Y-60960000D03*
X205740000Y-60960000D03*
X203200000Y-60960000D03*
X200660000Y-60960000D03*
X198120000Y-60960000D03*
X195580000Y-60960000D03*
X193040000Y-60960000D03*
X190500000Y-60960000D03*
X187960000Y-60960000D03*
X185420000Y-60960000D03*
X182880000Y-60960000D03*
X180340000Y-60960000D03*
X177800000Y-60960000D03*
X175260000Y-60960000D03*
X172720000Y-60960000D03*
X170180000Y-60960000D03*
X167640000Y-60960000D03*
X165100000Y-60960000D03*
X162560000Y-60960000D03*
X160020000Y-60960000D03*
X157480000Y-60960000D03*
X154940000Y-60960000D03*
X152400000Y-60960000D03*
D24*
X149860000Y-60960000D03*
X157480000Y-43180000D03*
D25*
X154940000Y-43180000D03*
X152400000Y-43180000D03*
X149860000Y-43180000D03*
D24*
X177800000Y-43180000D03*
X208280000Y-43180000D03*
D25*
X205740000Y-43180000D03*
X149860000Y-63500000D03*
D24*
X152400000Y-63500000D03*
X167640000Y-63500000D03*
X210820000Y-63500000D03*
D25*
X208280000Y-63500000D03*
X205740000Y-63500000D03*
X203200000Y-63500000D03*
X200660000Y-63500000D03*
X198120000Y-63500000D03*
X195580000Y-63500000D03*
X193040000Y-63500000D03*
X190500000Y-63500000D03*
D24*
X200660000Y-43180000D03*
D25*
X198120000Y-43180000D03*
X195580000Y-43180000D03*
X193040000Y-43180000D03*
X190500000Y-43180000D03*
X187960000Y-43180000D03*
X185420000Y-43180000D03*
D26*
X197485000Y-41365000D03*
X194945000Y-38645000D03*
X211455000Y-57150000D03*
X209550000Y-40005000D03*
X189865000Y-66040000D03*
X208915000Y-65405000D03*
X165735000Y-76200000D03*
X200025000Y-57785000D03*
X201295000Y-67855000D03*
X222795000Y-66675000D03*
D27*
X178689000Y-47625000D02*
X180340000Y-49276000D01*
X160020000Y-45720000D02*
X161925000Y-47625000D01*
X161925000Y-47625000D02*
X178689000Y-47625000D01*
X175260000Y-40640000D02*
X175260000Y-45720000D01*
X173990000Y-39370000D02*
X175260000Y-40640000D01*
X155810000Y-39370000D02*
X173990000Y-39370000D01*
X153670000Y-36830000D02*
X153670000Y-37230000D01*
X153670000Y-37230000D02*
X155810000Y-39370000D01*
X197485000Y-41365000D02*
X194945000Y-38825000D01*
X194945000Y-38825000D02*
X194945000Y-38645000D01*
X203200000Y-43180000D02*
X203200000Y-45720000D01*
X200025000Y-40005000D02*
X203200000Y-43180000D01*
X198120000Y-40005000D02*
X200025000Y-40005000D01*
X195744999Y-37629999D02*
X198120000Y-40005000D01*
X193040000Y-36830000D02*
X193839999Y-37629999D01*
X193839999Y-37629999D02*
X195744999Y-37629999D01*
X158750000Y-28810000D02*
X158750000Y-29210000D01*
X160890000Y-26670000D02*
X158750000Y-28810000D01*
X210820000Y-45720000D02*
X210820000Y-43434998D01*
X210820000Y-43434998D02*
X206120002Y-38735000D01*
X194945000Y-28575000D02*
X193040000Y-26670000D01*
X206120002Y-38735000D02*
X201295000Y-38735000D01*
X193040000Y-26670000D02*
X160890000Y-26670000D01*
X201295000Y-38735000D02*
X200025000Y-37465000D01*
X194945000Y-31989998D02*
X194945000Y-28575000D01*
X200025000Y-37465000D02*
X200025000Y-37069998D01*
X200025000Y-37069998D02*
X194945000Y-31989998D01*
X211218999Y-56913999D02*
X211455000Y-57150000D01*
X213360000Y-45720000D02*
X211218999Y-47861001D01*
X211218999Y-47861001D02*
X211218999Y-56913999D01*
X198755000Y-29210000D02*
X198120000Y-29210000D01*
X209550000Y-40005000D02*
X198755000Y-29210000D01*
X189865000Y-66040000D02*
X190500000Y-65405000D01*
X190500000Y-65405000D02*
X208915000Y-65405000D01*
X213995000Y-50927000D02*
X212344000Y-49276000D01*
X186595001Y-62135001D02*
X211384001Y-62135001D01*
X185420000Y-60960000D02*
X186595001Y-62135001D01*
X211384001Y-62135001D02*
X212184999Y-61334003D01*
X212184999Y-61334003D02*
X212184999Y-58325001D01*
X212184999Y-58325001D02*
X213995000Y-56515000D01*
X213995000Y-56515000D02*
X213995000Y-50927000D01*
X202475999Y-54139999D02*
X201676000Y-53340000D01*
X202801001Y-54465001D02*
X202475999Y-54139999D01*
X202801001Y-58818999D02*
X202801001Y-54465001D01*
X201930000Y-59690000D02*
X202801001Y-58818999D01*
X184150000Y-59690000D02*
X201930000Y-59690000D01*
X182880000Y-60960000D02*
X184150000Y-59690000D01*
X180340000Y-60960000D02*
X182245000Y-59055000D01*
X200025000Y-59055000D02*
X201676000Y-57404000D01*
X182245000Y-59055000D02*
X200025000Y-59055000D01*
X175260000Y-60960000D02*
X175260000Y-56515000D01*
X175260000Y-56515000D02*
X176530000Y-55245000D01*
X188849000Y-55245000D02*
X191008000Y-57404000D01*
X176530000Y-55245000D02*
X188849000Y-55245000D01*
X172720000Y-59757919D02*
X172720000Y-60960000D01*
X172720000Y-55880000D02*
X172720000Y-59757919D01*
X173990000Y-54610000D02*
X172720000Y-55880000D01*
X191008000Y-53340000D02*
X189738000Y-54610000D01*
X189738000Y-54610000D02*
X173990000Y-54610000D01*
X171029999Y-60110001D02*
X171029999Y-55665001D01*
X170180000Y-60960000D02*
X171029999Y-60110001D01*
X176293999Y-50401001D02*
X182643999Y-50401001D01*
X171029999Y-55665001D02*
X176293999Y-50401001D01*
X182643999Y-50401001D02*
X185420000Y-47625000D01*
X189357000Y-47625000D02*
X191008000Y-49276000D01*
X185420000Y-47625000D02*
X189357000Y-47625000D01*
X165100000Y-50800000D02*
X165100000Y-60960000D01*
X166624000Y-49276000D02*
X165100000Y-50800000D01*
X155956000Y-57404000D02*
X157607000Y-59055000D01*
X160655000Y-59055000D02*
X162560000Y-60960000D01*
X157607000Y-59055000D02*
X160655000Y-59055000D01*
X205740000Y-31750000D02*
X209550000Y-31750000D01*
X209550000Y-31750000D02*
X212090000Y-34290000D01*
X212090000Y-34290000D02*
X220345000Y-34290000D01*
X220345000Y-34290000D02*
X221615000Y-35560000D01*
X221615000Y-35560000D02*
X221615000Y-37465000D01*
X221615000Y-37465000D02*
X224155000Y-40005000D01*
X224155000Y-40005000D02*
X224155000Y-76200000D01*
X224155000Y-76200000D02*
X219710000Y-80645000D01*
X212725000Y-80645000D02*
X210820000Y-78740000D01*
X219710000Y-80645000D02*
X212725000Y-80645000D01*
X163924999Y-59392369D02*
X163924999Y-69309999D01*
X159004000Y-53340000D02*
X159004000Y-54471370D01*
X159004000Y-54471370D02*
X163924999Y-59392369D01*
X163924999Y-69309999D02*
X162560000Y-70674998D01*
X162560000Y-70674998D02*
X162560000Y-80010000D01*
X162560000Y-80010000D02*
X163195000Y-80645000D01*
X168021000Y-80645000D02*
X169418000Y-79248000D01*
X163195000Y-80645000D02*
X168021000Y-80645000D01*
X169672000Y-50407370D02*
X168096989Y-51982381D01*
X169672000Y-49276000D02*
X169672000Y-50407370D01*
X168096989Y-58764009D02*
X166535998Y-60325000D01*
X168096989Y-51982381D02*
X168096989Y-58764009D01*
X165735000Y-62254000D02*
X165735000Y-76200000D01*
X166464999Y-61524001D02*
X165735000Y-62254000D01*
X166535998Y-60325000D02*
X166464999Y-60395999D01*
X166464999Y-60395999D02*
X166464999Y-61524001D01*
X165137999Y-78448001D02*
X164338000Y-79248000D01*
X168003001Y-75582999D02*
X165137999Y-78448001D01*
X168003001Y-71377997D02*
X168003001Y-75582999D01*
X168815001Y-60395999D02*
X168815001Y-70565997D01*
X168546999Y-60127997D02*
X168815001Y-60395999D01*
X168546999Y-54465001D02*
X168546999Y-60127997D01*
X168815001Y-70565997D02*
X168003001Y-71377997D01*
X169672000Y-53340000D02*
X168546999Y-54465001D01*
X198628000Y-49276000D02*
X200025000Y-50673000D01*
X200025000Y-50673000D02*
X200025000Y-57785000D01*
X208280000Y-74840000D02*
X208280000Y-78740000D01*
X201295000Y-67855000D02*
X208280000Y-74840000D01*
X222795000Y-71845000D02*
X215900000Y-78740000D01*
X222795000Y-66675000D02*
X222795000Y-71845000D01*
X211581999Y-67818001D02*
X210820000Y-68580000D01*
X214535001Y-64864999D02*
X211581999Y-67818001D01*
X214535001Y-60585997D02*
X214535001Y-64864999D01*
X219964000Y-55156998D02*
X214535001Y-60585997D01*
X219964000Y-53340000D02*
X219964000Y-55156998D01*
D28*
G36*
X159075906Y-27409293D02*
G01*
X159031308Y-27395764D01*
X158750000Y-27368057D01*
X158468691Y-27395764D01*
X158198192Y-27477818D01*
X157948899Y-27611068D01*
X157730392Y-27790393D01*
X157551068Y-28008900D01*
X157480000Y-28141858D01*
X157408932Y-28008899D01*
X157229607Y-27790392D01*
X157011100Y-27611068D01*
X156761807Y-27477818D01*
X156491308Y-27395764D01*
X156210000Y-27368057D01*
X155928691Y-27395764D01*
X155658192Y-27477818D01*
X155408899Y-27611068D01*
X155190392Y-27790393D01*
X155011068Y-28008900D01*
X154940000Y-28141858D01*
X154868932Y-28008899D01*
X154689607Y-27790392D01*
X154471100Y-27611068D01*
X154221807Y-27477818D01*
X153951308Y-27395764D01*
X153670000Y-27368057D01*
X153388691Y-27395764D01*
X153118192Y-27477818D01*
X152868899Y-27611068D01*
X152650392Y-27790393D01*
X152471068Y-28008900D01*
X152337818Y-28258193D01*
X152255764Y-28528692D01*
X152235000Y-28739509D01*
X152235000Y-29680492D01*
X152255764Y-29891309D01*
X152337818Y-30161808D01*
X152471068Y-30411101D01*
X152650393Y-30629608D01*
X152868900Y-30808932D01*
X153118193Y-30942182D01*
X153388692Y-31024236D01*
X153670000Y-31051943D01*
X153951309Y-31024236D01*
X154221808Y-30942182D01*
X154471101Y-30808932D01*
X154689608Y-30629608D01*
X154868932Y-30411101D01*
X154940000Y-30278142D01*
X155011068Y-30411101D01*
X155190393Y-30629608D01*
X155408900Y-30808932D01*
X155658193Y-30942182D01*
X155928692Y-31024236D01*
X156210000Y-31051943D01*
X156491309Y-31024236D01*
X156761808Y-30942182D01*
X157011101Y-30808932D01*
X157229608Y-30629608D01*
X157408932Y-30411101D01*
X157480000Y-30278142D01*
X157551068Y-30411101D01*
X157730393Y-30629608D01*
X157948900Y-30808932D01*
X158198193Y-30942182D01*
X158468692Y-31024236D01*
X158750000Y-31051943D01*
X159031309Y-31024236D01*
X159301808Y-30942182D01*
X159551101Y-30808932D01*
X159769608Y-30629608D01*
X159948932Y-30411101D01*
X160020000Y-30278142D01*
X160091068Y-30411101D01*
X160270393Y-30629608D01*
X160488900Y-30808932D01*
X160738193Y-30942182D01*
X161008692Y-31024236D01*
X161290000Y-31051943D01*
X161571309Y-31024236D01*
X161841808Y-30942182D01*
X162091101Y-30808932D01*
X162309608Y-30629608D01*
X162488932Y-30411101D01*
X162622182Y-30161808D01*
X162704236Y-29891309D01*
X162725000Y-29680491D01*
X162725000Y-29620000D01*
X185148843Y-29620000D01*
X185173412Y-29869454D01*
X185246175Y-30109321D01*
X185364336Y-30330384D01*
X185478916Y-30470000D01*
X185364336Y-30609616D01*
X185246175Y-30830679D01*
X185173412Y-31070546D01*
X185148843Y-31320000D01*
X185173412Y-31569454D01*
X185246175Y-31809321D01*
X185364336Y-32030384D01*
X185478417Y-32169392D01*
X185437905Y-32210009D01*
X185298898Y-32418633D01*
X185203263Y-32650367D01*
X185196809Y-32696495D01*
X185321015Y-32893000D01*
X186563000Y-32893000D01*
X186563000Y-32873000D01*
X186817000Y-32873000D01*
X186817000Y-32893000D01*
X188058985Y-32893000D01*
X188183191Y-32696495D01*
X188176737Y-32650367D01*
X188081102Y-32418633D01*
X187942095Y-32210009D01*
X187901583Y-32169392D01*
X188015664Y-32030384D01*
X188133825Y-31809321D01*
X188206588Y-31569454D01*
X188231157Y-31320000D01*
X188206588Y-31070546D01*
X188133825Y-30830679D01*
X188015664Y-30609616D01*
X187901084Y-30470000D01*
X188015664Y-30330384D01*
X188133825Y-30109321D01*
X188206588Y-29869454D01*
X188231157Y-29620000D01*
X188206588Y-29370546D01*
X188133825Y-29130679D01*
X188015664Y-28909616D01*
X187856647Y-28715853D01*
X187662884Y-28556836D01*
X187441821Y-28438675D01*
X187201954Y-28365912D01*
X187015013Y-28347500D01*
X186364987Y-28347500D01*
X186178046Y-28365912D01*
X185938179Y-28438675D01*
X185717116Y-28556836D01*
X185523353Y-28715853D01*
X185364336Y-28909616D01*
X185246175Y-29130679D01*
X185173412Y-29370546D01*
X185148843Y-29620000D01*
X162725000Y-29620000D01*
X162725000Y-28739508D01*
X162704236Y-28528691D01*
X162622182Y-28258192D01*
X162488932Y-28008899D01*
X162309607Y-27790392D01*
X162091100Y-27611068D01*
X161841807Y-27477818D01*
X161684170Y-27430000D01*
X192725199Y-27430000D01*
X193070199Y-27775000D01*
X192898665Y-27775000D01*
X192621426Y-27830147D01*
X192360273Y-27938320D01*
X192125241Y-28095363D01*
X191925363Y-28295241D01*
X191768320Y-28530273D01*
X191660147Y-28791426D01*
X191605000Y-29068665D01*
X191605000Y-29351335D01*
X191660147Y-29628574D01*
X191768320Y-29889727D01*
X191925363Y-30124759D01*
X192125241Y-30324637D01*
X192360273Y-30481680D01*
X192621426Y-30589853D01*
X192898665Y-30645000D01*
X193181335Y-30645000D01*
X193458574Y-30589853D01*
X193719727Y-30481680D01*
X193954759Y-30324637D01*
X194154637Y-30124759D01*
X194185001Y-30079317D01*
X194185000Y-31952675D01*
X194181324Y-31989998D01*
X194185000Y-32027320D01*
X194185000Y-32027330D01*
X194195997Y-32138983D01*
X194237561Y-32276004D01*
X194239454Y-32282244D01*
X194310026Y-32414274D01*
X194349871Y-32462824D01*
X194404999Y-32529999D01*
X194434003Y-32553802D01*
X197444261Y-35564061D01*
X197318899Y-35631068D01*
X197100392Y-35810392D01*
X196921068Y-36028899D01*
X196787818Y-36278192D01*
X196705764Y-36548691D01*
X196678057Y-36830000D01*
X196705764Y-37111309D01*
X196787818Y-37381808D01*
X196921068Y-37631101D01*
X197100392Y-37849608D01*
X197318899Y-38028932D01*
X197568192Y-38162182D01*
X197838691Y-38244236D01*
X198049508Y-38265000D01*
X198190492Y-38265000D01*
X198401309Y-38244236D01*
X198671808Y-38162182D01*
X198921101Y-38028932D01*
X199139608Y-37849608D01*
X199291375Y-37664680D01*
X199297027Y-37683312D01*
X199319454Y-37757246D01*
X199390026Y-37889276D01*
X199417084Y-37922246D01*
X199484999Y-38005001D01*
X199514003Y-38028804D01*
X200731200Y-39246002D01*
X200754999Y-39275001D01*
X200870724Y-39369974D01*
X201002753Y-39440546D01*
X201146014Y-39484003D01*
X201257667Y-39495000D01*
X201257676Y-39495000D01*
X201294999Y-39498676D01*
X201332322Y-39495000D01*
X205805201Y-39495000D01*
X208002128Y-41691928D01*
X207430000Y-41691928D01*
X207305518Y-41704188D01*
X207185820Y-41740498D01*
X207075506Y-41799463D01*
X206978815Y-41878815D01*
X206899463Y-41975506D01*
X206840498Y-42085820D01*
X206819607Y-42154687D01*
X206795134Y-42124866D01*
X206569014Y-41939294D01*
X206311034Y-41801401D01*
X206031111Y-41716487D01*
X205812950Y-41695000D01*
X205667050Y-41695000D01*
X205448889Y-41716487D01*
X205168966Y-41801401D01*
X204910986Y-41939294D01*
X204684866Y-42124866D01*
X204499294Y-42350986D01*
X204361401Y-42608966D01*
X204276487Y-42888889D01*
X204247815Y-43180000D01*
X204276487Y-43471111D01*
X204361401Y-43751034D01*
X204499294Y-44009014D01*
X204684866Y-44235134D01*
X204910986Y-44420706D01*
X204965791Y-44450000D01*
X204910986Y-44479294D01*
X204684866Y-44664866D01*
X204499294Y-44890986D01*
X204470000Y-44945791D01*
X204440706Y-44890986D01*
X204255134Y-44664866D01*
X204029014Y-44479294D01*
X203960000Y-44442405D01*
X203960000Y-43217322D01*
X203963676Y-43179999D01*
X203960000Y-43142676D01*
X203960000Y-43142667D01*
X203949003Y-43031014D01*
X203905546Y-42887753D01*
X203834974Y-42755723D01*
X203763799Y-42668997D01*
X203740001Y-42639999D01*
X203711004Y-42616202D01*
X200588804Y-39494003D01*
X200565001Y-39464999D01*
X200449276Y-39370026D01*
X200317247Y-39299454D01*
X200173986Y-39255997D01*
X200062333Y-39245000D01*
X200062322Y-39245000D01*
X200025000Y-39241324D01*
X199987678Y-39245000D01*
X198434802Y-39245000D01*
X196308803Y-37119002D01*
X196285000Y-37089998D01*
X196169275Y-36995025D01*
X196037246Y-36924453D01*
X195893985Y-36880996D01*
X195782332Y-36869999D01*
X195782321Y-36869999D01*
X195744999Y-36866323D01*
X195707677Y-36869999D01*
X194478003Y-36869999D01*
X194481943Y-36830000D01*
X194454236Y-36548691D01*
X194372182Y-36278192D01*
X194238932Y-36028899D01*
X194059608Y-35810392D01*
X193841101Y-35631068D01*
X193591808Y-35497818D01*
X193321309Y-35415764D01*
X193110492Y-35395000D01*
X192969508Y-35395000D01*
X192758691Y-35415764D01*
X192488192Y-35497818D01*
X192238899Y-35631068D01*
X192020392Y-35810392D01*
X191841068Y-36028899D01*
X191707818Y-36278192D01*
X191625764Y-36548691D01*
X191598057Y-36830000D01*
X191625764Y-37111309D01*
X191707818Y-37381808D01*
X191841068Y-37631101D01*
X192020392Y-37849608D01*
X192238899Y-38028932D01*
X192488192Y-38162182D01*
X192758691Y-38244236D01*
X192969508Y-38265000D01*
X193110492Y-38265000D01*
X193321309Y-38244236D01*
X193371794Y-38228922D01*
X193415723Y-38264973D01*
X193547752Y-38335545D01*
X193691013Y-38379002D01*
X193802666Y-38389999D01*
X193802675Y-38389999D01*
X193839998Y-38393675D01*
X193877321Y-38389999D01*
X193940446Y-38389999D01*
X193910000Y-38543061D01*
X193910000Y-38746939D01*
X193949774Y-38946898D01*
X194027795Y-39135256D01*
X194141063Y-39304774D01*
X194285226Y-39448937D01*
X194454744Y-39562205D01*
X194643102Y-39640226D01*
X194695934Y-39650735D01*
X196450000Y-41404803D01*
X196450000Y-41466939D01*
X196489774Y-41666898D01*
X196567795Y-41855256D01*
X196681063Y-42024774D01*
X196825226Y-42168937D01*
X196956637Y-42256743D01*
X196879294Y-42350986D01*
X196850000Y-42405791D01*
X196820706Y-42350986D01*
X196635134Y-42124866D01*
X196409014Y-41939294D01*
X196151034Y-41801401D01*
X195871111Y-41716487D01*
X195652950Y-41695000D01*
X195507050Y-41695000D01*
X195288889Y-41716487D01*
X195008966Y-41801401D01*
X194750986Y-41939294D01*
X194524866Y-42124866D01*
X194339294Y-42350986D01*
X194310000Y-42405791D01*
X194280706Y-42350986D01*
X194095134Y-42124866D01*
X193869014Y-41939294D01*
X193611034Y-41801401D01*
X193331111Y-41716487D01*
X193112950Y-41695000D01*
X192967050Y-41695000D01*
X192748889Y-41716487D01*
X192468966Y-41801401D01*
X192210986Y-41939294D01*
X191984866Y-42124866D01*
X191799294Y-42350986D01*
X191770000Y-42405791D01*
X191740706Y-42350986D01*
X191555134Y-42124866D01*
X191329014Y-41939294D01*
X191071034Y-41801401D01*
X190791111Y-41716487D01*
X190572950Y-41695000D01*
X190427050Y-41695000D01*
X190208889Y-41716487D01*
X189928966Y-41801401D01*
X189670986Y-41939294D01*
X189444866Y-42124866D01*
X189259294Y-42350986D01*
X189230000Y-42405791D01*
X189200706Y-42350986D01*
X189015134Y-42124866D01*
X188789014Y-41939294D01*
X188531034Y-41801401D01*
X188251111Y-41716487D01*
X188032950Y-41695000D01*
X187887050Y-41695000D01*
X187668889Y-41716487D01*
X187388966Y-41801401D01*
X187130986Y-41939294D01*
X186904866Y-42124866D01*
X186719294Y-42350986D01*
X186690000Y-42405791D01*
X186660706Y-42350986D01*
X186475134Y-42124866D01*
X186249014Y-41939294D01*
X185991034Y-41801401D01*
X185711111Y-41716487D01*
X185492950Y-41695000D01*
X185347050Y-41695000D01*
X185128889Y-41716487D01*
X184848966Y-41801401D01*
X184590986Y-41939294D01*
X184364866Y-42124866D01*
X184179294Y-42350986D01*
X184041401Y-42608966D01*
X183956487Y-42888889D01*
X183927815Y-43180000D01*
X183956487Y-43471111D01*
X184041401Y-43751034D01*
X184179294Y-44009014D01*
X184364866Y-44235134D01*
X184590986Y-44420706D01*
X184645791Y-44450000D01*
X184590986Y-44479294D01*
X184364866Y-44664866D01*
X184179294Y-44890986D01*
X184150000Y-44945791D01*
X184120706Y-44890986D01*
X183935134Y-44664866D01*
X183709014Y-44479294D01*
X183451034Y-44341401D01*
X183171111Y-44256487D01*
X182952950Y-44235000D01*
X182807050Y-44235000D01*
X182588889Y-44256487D01*
X182308966Y-44341401D01*
X182050986Y-44479294D01*
X181824866Y-44664866D01*
X181639294Y-44890986D01*
X181610000Y-44945791D01*
X181580706Y-44890986D01*
X181395134Y-44664866D01*
X181169014Y-44479294D01*
X180911034Y-44341401D01*
X180631111Y-44256487D01*
X180412950Y-44235000D01*
X180267050Y-44235000D01*
X180048889Y-44256487D01*
X179768966Y-44341401D01*
X179510986Y-44479294D01*
X179284866Y-44664866D01*
X179099294Y-44890986D01*
X179070000Y-44945791D01*
X179040706Y-44890986D01*
X178855134Y-44664866D01*
X178825313Y-44640393D01*
X178894180Y-44619502D01*
X179004494Y-44560537D01*
X179101185Y-44481185D01*
X179180537Y-44384494D01*
X179239502Y-44274180D01*
X179275812Y-44154482D01*
X179288072Y-44030000D01*
X179288072Y-42330000D01*
X179275812Y-42205518D01*
X179239502Y-42085820D01*
X179180537Y-41975506D01*
X179101185Y-41878815D01*
X179004494Y-41799463D01*
X178894180Y-41740498D01*
X178774482Y-41704188D01*
X178650000Y-41691928D01*
X176950000Y-41691928D01*
X176825518Y-41704188D01*
X176705820Y-41740498D01*
X176595506Y-41799463D01*
X176498815Y-41878815D01*
X176419463Y-41975506D01*
X176360498Y-42085820D01*
X176324188Y-42205518D01*
X176311928Y-42330000D01*
X176311928Y-44030000D01*
X176324188Y-44154482D01*
X176360498Y-44274180D01*
X176419463Y-44384494D01*
X176498815Y-44481185D01*
X176595506Y-44560537D01*
X176705820Y-44619502D01*
X176774687Y-44640393D01*
X176744866Y-44664866D01*
X176559294Y-44890986D01*
X176530000Y-44945791D01*
X176500706Y-44890986D01*
X176315134Y-44664866D01*
X176089014Y-44479294D01*
X176020000Y-44442405D01*
X176020000Y-40677322D01*
X176023676Y-40639999D01*
X176020000Y-40602676D01*
X176020000Y-40602667D01*
X176009003Y-40491014D01*
X175965546Y-40347753D01*
X175894974Y-40215724D01*
X175800001Y-40099999D01*
X175771004Y-40076202D01*
X174553804Y-38859003D01*
X174530001Y-38829999D01*
X174414276Y-38735026D01*
X174282247Y-38664454D01*
X174138986Y-38620997D01*
X174027333Y-38610000D01*
X174027322Y-38610000D01*
X173990000Y-38606324D01*
X173952678Y-38610000D01*
X161695229Y-38610000D01*
X161721818Y-38604367D01*
X161981646Y-38493715D01*
X162214895Y-38334500D01*
X162412601Y-38132839D01*
X162567166Y-37896483D01*
X162672650Y-37634514D01*
X162725000Y-37357000D01*
X162725000Y-36957000D01*
X161417000Y-36957000D01*
X161417000Y-36977000D01*
X161163000Y-36977000D01*
X161163000Y-36957000D01*
X161143000Y-36957000D01*
X161143000Y-36703000D01*
X161163000Y-36703000D01*
X161163000Y-35160085D01*
X161417000Y-35160085D01*
X161417000Y-36703000D01*
X162725000Y-36703000D01*
X162725000Y-36303000D01*
X162672650Y-36025486D01*
X162567166Y-35763517D01*
X162412601Y-35527161D01*
X162214895Y-35325500D01*
X161981646Y-35166285D01*
X161721818Y-35055633D01*
X161639039Y-35038096D01*
X161417000Y-35160085D01*
X161163000Y-35160085D01*
X160940961Y-35038096D01*
X160858182Y-35055633D01*
X160598354Y-35166285D01*
X160365105Y-35325500D01*
X160167399Y-35527161D01*
X160017265Y-35756741D01*
X159948932Y-35628899D01*
X159769607Y-35410392D01*
X159551100Y-35231068D01*
X159301807Y-35097818D01*
X159031308Y-35015764D01*
X158750000Y-34988057D01*
X158468691Y-35015764D01*
X158198192Y-35097818D01*
X157948899Y-35231068D01*
X157730392Y-35410393D01*
X157551068Y-35628900D01*
X157480000Y-35761858D01*
X157408932Y-35628899D01*
X157229607Y-35410392D01*
X157011100Y-35231068D01*
X156761807Y-35097818D01*
X156491308Y-35015764D01*
X156210000Y-34988057D01*
X155928691Y-35015764D01*
X155658192Y-35097818D01*
X155408899Y-35231068D01*
X155190392Y-35410393D01*
X155097581Y-35523483D01*
X155095812Y-35505518D01*
X155059502Y-35385820D01*
X155000537Y-35275506D01*
X154921185Y-35178815D01*
X154824494Y-35099463D01*
X154714180Y-35040498D01*
X154594482Y-35004188D01*
X154470000Y-34991928D01*
X152870000Y-34991928D01*
X152745518Y-35004188D01*
X152625820Y-35040498D01*
X152515506Y-35099463D01*
X152418815Y-35178815D01*
X152339463Y-35275506D01*
X152280498Y-35385820D01*
X152244188Y-35505518D01*
X152231928Y-35630000D01*
X152231928Y-38030000D01*
X152244188Y-38154482D01*
X152280498Y-38274180D01*
X152339463Y-38384494D01*
X152418815Y-38481185D01*
X152515506Y-38560537D01*
X152625820Y-38619502D01*
X152745518Y-38655812D01*
X152870000Y-38668072D01*
X154033271Y-38668072D01*
X155246200Y-39881002D01*
X155269999Y-39910001D01*
X155298997Y-39933799D01*
X155385723Y-40004974D01*
X155517753Y-40075546D01*
X155661014Y-40119003D01*
X155772667Y-40130000D01*
X155772676Y-40130000D01*
X155809999Y-40133676D01*
X155847322Y-40130000D01*
X173675199Y-40130000D01*
X174500000Y-40954802D01*
X174500001Y-44442405D01*
X174430986Y-44479294D01*
X174204866Y-44664866D01*
X174019294Y-44890986D01*
X173990000Y-44945791D01*
X173960706Y-44890986D01*
X173775134Y-44664866D01*
X173549014Y-44479294D01*
X173291034Y-44341401D01*
X173011111Y-44256487D01*
X172792950Y-44235000D01*
X172647050Y-44235000D01*
X172428889Y-44256487D01*
X172148966Y-44341401D01*
X171890986Y-44479294D01*
X171664866Y-44664866D01*
X171479294Y-44890986D01*
X171450000Y-44945791D01*
X171420706Y-44890986D01*
X171235134Y-44664866D01*
X171009014Y-44479294D01*
X170751034Y-44341401D01*
X170471111Y-44256487D01*
X170252950Y-44235000D01*
X170107050Y-44235000D01*
X169888889Y-44256487D01*
X169608966Y-44341401D01*
X169350986Y-44479294D01*
X169124866Y-44664866D01*
X168939294Y-44890986D01*
X168910000Y-44945791D01*
X168880706Y-44890986D01*
X168695134Y-44664866D01*
X168469014Y-44479294D01*
X168211034Y-44341401D01*
X167931111Y-44256487D01*
X167712950Y-44235000D01*
X167567050Y-44235000D01*
X167348889Y-44256487D01*
X167068966Y-44341401D01*
X166810986Y-44479294D01*
X166584866Y-44664866D01*
X166399294Y-44890986D01*
X166370000Y-44945791D01*
X166340706Y-44890986D01*
X166155134Y-44664866D01*
X165929014Y-44479294D01*
X165671034Y-44341401D01*
X165391111Y-44256487D01*
X165172950Y-44235000D01*
X165027050Y-44235000D01*
X164808889Y-44256487D01*
X164528966Y-44341401D01*
X164270986Y-44479294D01*
X164044866Y-44664866D01*
X163859294Y-44890986D01*
X163830000Y-44945791D01*
X163800706Y-44890986D01*
X163615134Y-44664866D01*
X163389014Y-44479294D01*
X163131034Y-44341401D01*
X162851111Y-44256487D01*
X162632950Y-44235000D01*
X162487050Y-44235000D01*
X162268889Y-44256487D01*
X161988966Y-44341401D01*
X161730986Y-44479294D01*
X161504866Y-44664866D01*
X161319294Y-44890986D01*
X161290000Y-44945791D01*
X161260706Y-44890986D01*
X161075134Y-44664866D01*
X160849014Y-44479294D01*
X160591034Y-44341401D01*
X160311111Y-44256487D01*
X160092950Y-44235000D01*
X159947050Y-44235000D01*
X159728889Y-44256487D01*
X159448966Y-44341401D01*
X159190986Y-44479294D01*
X158964866Y-44664866D01*
X158779294Y-44890986D01*
X158750000Y-44945791D01*
X158720706Y-44890986D01*
X158535134Y-44664866D01*
X158505313Y-44640393D01*
X158574180Y-44619502D01*
X158684494Y-44560537D01*
X158781185Y-44481185D01*
X158860537Y-44384494D01*
X158919502Y-44274180D01*
X158955812Y-44154482D01*
X158968072Y-44030000D01*
X158968072Y-42330000D01*
X158955812Y-42205518D01*
X158919502Y-42085820D01*
X158860537Y-41975506D01*
X158781185Y-41878815D01*
X158684494Y-41799463D01*
X158574180Y-41740498D01*
X158454482Y-41704188D01*
X158330000Y-41691928D01*
X156630000Y-41691928D01*
X156505518Y-41704188D01*
X156385820Y-41740498D01*
X156275506Y-41799463D01*
X156178815Y-41878815D01*
X156099463Y-41975506D01*
X156040498Y-42085820D01*
X156019607Y-42154687D01*
X155995134Y-42124866D01*
X155769014Y-41939294D01*
X155511034Y-41801401D01*
X155231111Y-41716487D01*
X155012950Y-41695000D01*
X154867050Y-41695000D01*
X154648889Y-41716487D01*
X154368966Y-41801401D01*
X154110986Y-41939294D01*
X153884866Y-42124866D01*
X153699294Y-42350986D01*
X153670000Y-42405791D01*
X153640706Y-42350986D01*
X153455134Y-42124866D01*
X153229014Y-41939294D01*
X152971034Y-41801401D01*
X152691111Y-41716487D01*
X152472950Y-41695000D01*
X152327050Y-41695000D01*
X152108889Y-41716487D01*
X151828966Y-41801401D01*
X151570986Y-41939294D01*
X151344866Y-42124866D01*
X151159294Y-42350986D01*
X151130000Y-42405791D01*
X151100706Y-42350986D01*
X150915134Y-42124866D01*
X150689014Y-41939294D01*
X150431034Y-41801401D01*
X150151111Y-41716487D01*
X149932950Y-41695000D01*
X149787050Y-41695000D01*
X149568889Y-41716487D01*
X149288966Y-41801401D01*
X149030986Y-41939294D01*
X148804866Y-42124866D01*
X148619294Y-42350986D01*
X148481401Y-42608966D01*
X148396487Y-42888889D01*
X148367815Y-43180000D01*
X148396487Y-43471111D01*
X148481401Y-43751034D01*
X148619294Y-44009014D01*
X148804866Y-44235134D01*
X148834687Y-44259607D01*
X148765820Y-44280498D01*
X148655506Y-44339463D01*
X148558815Y-44418815D01*
X148479463Y-44515506D01*
X148420498Y-44625820D01*
X148384188Y-44745518D01*
X148371928Y-44870000D01*
X148371928Y-46570000D01*
X148384188Y-46694482D01*
X148420498Y-46814180D01*
X148479463Y-46924494D01*
X148558815Y-47021185D01*
X148655506Y-47100537D01*
X148765820Y-47159502D01*
X148885518Y-47195812D01*
X149010000Y-47208072D01*
X150710000Y-47208072D01*
X150834482Y-47195812D01*
X150954180Y-47159502D01*
X151064494Y-47100537D01*
X151161185Y-47021185D01*
X151240537Y-46924494D01*
X151299502Y-46814180D01*
X151320393Y-46745313D01*
X151344866Y-46775134D01*
X151570986Y-46960706D01*
X151828966Y-47098599D01*
X152108889Y-47183513D01*
X152327050Y-47205000D01*
X152472950Y-47205000D01*
X152691111Y-47183513D01*
X152971034Y-47098599D01*
X153229014Y-46960706D01*
X153455134Y-46775134D01*
X153640706Y-46549014D01*
X153670000Y-46494209D01*
X153699294Y-46549014D01*
X153884866Y-46775134D01*
X154110986Y-46960706D01*
X154368966Y-47098599D01*
X154648889Y-47183513D01*
X154867050Y-47205000D01*
X155012950Y-47205000D01*
X155231111Y-47183513D01*
X155511034Y-47098599D01*
X155769014Y-46960706D01*
X155995134Y-46775134D01*
X156180706Y-46549014D01*
X156210000Y-46494209D01*
X156239294Y-46549014D01*
X156424866Y-46775134D01*
X156650986Y-46960706D01*
X156908966Y-47098599D01*
X157188889Y-47183513D01*
X157407050Y-47205000D01*
X157552950Y-47205000D01*
X157771111Y-47183513D01*
X158051034Y-47098599D01*
X158309014Y-46960706D01*
X158535134Y-46775134D01*
X158720706Y-46549014D01*
X158750000Y-46494209D01*
X158779294Y-46549014D01*
X158964866Y-46775134D01*
X159190986Y-46960706D01*
X159448966Y-47098599D01*
X159728889Y-47183513D01*
X159947050Y-47205000D01*
X160092950Y-47205000D01*
X160311111Y-47183513D01*
X160385995Y-47160797D01*
X161361200Y-48136002D01*
X161384999Y-48165001D01*
X161500724Y-48259974D01*
X161632753Y-48330546D01*
X161776014Y-48374003D01*
X161887667Y-48385000D01*
X161887677Y-48385000D01*
X161925000Y-48388676D01*
X161962323Y-48385000D01*
X165493488Y-48385000D01*
X165352320Y-48596273D01*
X165244147Y-48857426D01*
X165189000Y-49134665D01*
X165189000Y-49417335D01*
X165225312Y-49599886D01*
X164589002Y-50236197D01*
X164559999Y-50259999D01*
X164530776Y-50295608D01*
X164465026Y-50375724D01*
X164436878Y-50428385D01*
X164394454Y-50507754D01*
X164350997Y-50651015D01*
X164340000Y-50762668D01*
X164340000Y-50762678D01*
X164336324Y-50800000D01*
X164340000Y-50837322D01*
X164340001Y-58732569D01*
X159992538Y-54385107D01*
X160023608Y-54359608D01*
X160202932Y-54141101D01*
X160336182Y-53891808D01*
X160418236Y-53621309D01*
X160445943Y-53340000D01*
X160418236Y-53058691D01*
X160336182Y-52788192D01*
X160202932Y-52538899D01*
X160023608Y-52320392D01*
X159805101Y-52141068D01*
X159555808Y-52007818D01*
X159285309Y-51925764D01*
X159074492Y-51905000D01*
X158933508Y-51905000D01*
X158722691Y-51925764D01*
X158452192Y-52007818D01*
X158202899Y-52141068D01*
X157984392Y-52320392D01*
X157805068Y-52538899D01*
X157671818Y-52788192D01*
X157589764Y-53058691D01*
X157562057Y-53340000D01*
X157589764Y-53621309D01*
X157671818Y-53891808D01*
X157805068Y-54141101D01*
X157984392Y-54359608D01*
X158202899Y-54538932D01*
X158249428Y-54563802D01*
X158254144Y-54611680D01*
X158254998Y-54620355D01*
X158298454Y-54763616D01*
X158369026Y-54895646D01*
X158440201Y-54982372D01*
X158464000Y-55011371D01*
X158492998Y-55035169D01*
X159518255Y-56060427D01*
X159285309Y-55989764D01*
X159074492Y-55969000D01*
X158933508Y-55969000D01*
X158722691Y-55989764D01*
X158452192Y-56071818D01*
X158202899Y-56205068D01*
X157984392Y-56384392D01*
X157805068Y-56602899D01*
X157671818Y-56852192D01*
X157589764Y-57122691D01*
X157562057Y-57404000D01*
X157589764Y-57685309D01*
X157671818Y-57955808D01*
X157774254Y-58147452D01*
X157354688Y-57727886D01*
X157391000Y-57545335D01*
X157391000Y-57262665D01*
X157335853Y-56985426D01*
X157227680Y-56724273D01*
X157070637Y-56489241D01*
X156870759Y-56289363D01*
X156635727Y-56132320D01*
X156374574Y-56024147D01*
X156097335Y-55969000D01*
X155814665Y-55969000D01*
X155537426Y-56024147D01*
X155276273Y-56132320D01*
X155041241Y-56289363D01*
X154841363Y-56489241D01*
X154684320Y-56724273D01*
X154576147Y-56985426D01*
X154521000Y-57262665D01*
X154521000Y-57545335D01*
X154576147Y-57822574D01*
X154684320Y-58083727D01*
X154841363Y-58318759D01*
X155041241Y-58518637D01*
X155276273Y-58675680D01*
X155537426Y-58783853D01*
X155814665Y-58839000D01*
X156097335Y-58839000D01*
X156279886Y-58802688D01*
X157023773Y-59546575D01*
X156908966Y-59581401D01*
X156650986Y-59719294D01*
X156424866Y-59904866D01*
X156239294Y-60130986D01*
X156210000Y-60185791D01*
X156180706Y-60130986D01*
X155995134Y-59904866D01*
X155769014Y-59719294D01*
X155511034Y-59581401D01*
X155231111Y-59496487D01*
X155012950Y-59475000D01*
X154867050Y-59475000D01*
X154648889Y-59496487D01*
X154368966Y-59581401D01*
X154110986Y-59719294D01*
X153884866Y-59904866D01*
X153699294Y-60130986D01*
X153670000Y-60185791D01*
X153640706Y-60130986D01*
X153455134Y-59904866D01*
X153229014Y-59719294D01*
X152971034Y-59581401D01*
X152691111Y-59496487D01*
X152472950Y-59475000D01*
X152327050Y-59475000D01*
X152108889Y-59496487D01*
X151828966Y-59581401D01*
X151570986Y-59719294D01*
X151344866Y-59904866D01*
X151320393Y-59934687D01*
X151299502Y-59865820D01*
X151240537Y-59755506D01*
X151161185Y-59658815D01*
X151064494Y-59579463D01*
X150954180Y-59520498D01*
X150834482Y-59484188D01*
X150710000Y-59471928D01*
X149010000Y-59471928D01*
X148885518Y-59484188D01*
X148765820Y-59520498D01*
X148655506Y-59579463D01*
X148558815Y-59658815D01*
X148479463Y-59755506D01*
X148420498Y-59865820D01*
X148384188Y-59985518D01*
X148371928Y-60110000D01*
X148371928Y-61810000D01*
X148384188Y-61934482D01*
X148420498Y-62054180D01*
X148479463Y-62164494D01*
X148558815Y-62261185D01*
X148655506Y-62340537D01*
X148765820Y-62399502D01*
X148834687Y-62420393D01*
X148804866Y-62444866D01*
X148619294Y-62670986D01*
X148481401Y-62928966D01*
X148396487Y-63208889D01*
X148367815Y-63500000D01*
X148396487Y-63791111D01*
X148481401Y-64071034D01*
X148619294Y-64329014D01*
X148804866Y-64555134D01*
X149030986Y-64740706D01*
X149288966Y-64878599D01*
X149568889Y-64963513D01*
X149787050Y-64985000D01*
X149932950Y-64985000D01*
X150151111Y-64963513D01*
X150431034Y-64878599D01*
X150689014Y-64740706D01*
X150915134Y-64555134D01*
X150939607Y-64525313D01*
X150960498Y-64594180D01*
X151019463Y-64704494D01*
X151098815Y-64801185D01*
X151195506Y-64880537D01*
X151305820Y-64939502D01*
X151425518Y-64975812D01*
X151550000Y-64988072D01*
X153250000Y-64988072D01*
X153374482Y-64975812D01*
X153494180Y-64939502D01*
X153604494Y-64880537D01*
X153701185Y-64801185D01*
X153780537Y-64704494D01*
X153839502Y-64594180D01*
X153875812Y-64474482D01*
X153888072Y-64350000D01*
X153888072Y-62650000D01*
X153875812Y-62525518D01*
X153839502Y-62405820D01*
X153780537Y-62295506D01*
X153701185Y-62198815D01*
X153604494Y-62119463D01*
X153494180Y-62060498D01*
X153425313Y-62039607D01*
X153455134Y-62015134D01*
X153640706Y-61789014D01*
X153670000Y-61734209D01*
X153699294Y-61789014D01*
X153884866Y-62015134D01*
X154110986Y-62200706D01*
X154368966Y-62338599D01*
X154648889Y-62423513D01*
X154867050Y-62445000D01*
X155012950Y-62445000D01*
X155231111Y-62423513D01*
X155511034Y-62338599D01*
X155769014Y-62200706D01*
X155995134Y-62015134D01*
X156180706Y-61789014D01*
X156210000Y-61734209D01*
X156239294Y-61789014D01*
X156424866Y-62015134D01*
X156650986Y-62200706D01*
X156908966Y-62338599D01*
X157188889Y-62423513D01*
X157407050Y-62445000D01*
X157552950Y-62445000D01*
X157771111Y-62423513D01*
X158051034Y-62338599D01*
X158309014Y-62200706D01*
X158535134Y-62015134D01*
X158720706Y-61789014D01*
X158750000Y-61734209D01*
X158779294Y-61789014D01*
X158964866Y-62015134D01*
X159190986Y-62200706D01*
X159448966Y-62338599D01*
X159728889Y-62423513D01*
X159947050Y-62445000D01*
X160092950Y-62445000D01*
X160311111Y-62423513D01*
X160591034Y-62338599D01*
X160849014Y-62200706D01*
X161075134Y-62015134D01*
X161260706Y-61789014D01*
X161290000Y-61734209D01*
X161319294Y-61789014D01*
X161504866Y-62015134D01*
X161730986Y-62200706D01*
X161988966Y-62338599D01*
X162268889Y-62423513D01*
X162487050Y-62445000D01*
X162632950Y-62445000D01*
X162851111Y-62423513D01*
X163131034Y-62338599D01*
X163164999Y-62320444D01*
X163165000Y-68995196D01*
X162049003Y-70111194D01*
X162019999Y-70134997D01*
X161974919Y-70189928D01*
X161925026Y-70250722D01*
X161857627Y-70376815D01*
X161854454Y-70382752D01*
X161810997Y-70526013D01*
X161800000Y-70637666D01*
X161800000Y-70637676D01*
X161796324Y-70674998D01*
X161800000Y-70712320D01*
X161800001Y-79972668D01*
X161796324Y-80010000D01*
X161810998Y-80158985D01*
X161854454Y-80302246D01*
X161925026Y-80434276D01*
X161996201Y-80521002D01*
X162020000Y-80550001D01*
X162048998Y-80573799D01*
X162631200Y-81156002D01*
X162654999Y-81185001D01*
X162683997Y-81208799D01*
X162770724Y-81279974D01*
X162902753Y-81350546D01*
X163046014Y-81394003D01*
X163195000Y-81408677D01*
X163232333Y-81405000D01*
X167983678Y-81405000D01*
X168021000Y-81408676D01*
X168058322Y-81405000D01*
X168058333Y-81405000D01*
X168169986Y-81394003D01*
X168313247Y-81350546D01*
X168445276Y-81279974D01*
X168561001Y-81185001D01*
X168584804Y-81155997D01*
X169092094Y-80648708D01*
X169136691Y-80662236D01*
X169347508Y-80683000D01*
X169488492Y-80683000D01*
X169699309Y-80662236D01*
X169969808Y-80580182D01*
X170219101Y-80446932D01*
X170437608Y-80267608D01*
X170616932Y-80049101D01*
X170688000Y-79916142D01*
X170759068Y-80049101D01*
X170938392Y-80267608D01*
X171156899Y-80446932D01*
X171406192Y-80580182D01*
X171676691Y-80662236D01*
X171887508Y-80683000D01*
X172028492Y-80683000D01*
X172239309Y-80662236D01*
X172509808Y-80580182D01*
X172759101Y-80446932D01*
X172977608Y-80267608D01*
X173156932Y-80049101D01*
X173290182Y-79799808D01*
X173372236Y-79529309D01*
X173399943Y-79248000D01*
X173372236Y-78966691D01*
X173290182Y-78696192D01*
X173156932Y-78446899D01*
X172977608Y-78228392D01*
X172759101Y-78049068D01*
X172509808Y-77915818D01*
X172239309Y-77833764D01*
X172028492Y-77813000D01*
X171887508Y-77813000D01*
X171676691Y-77833764D01*
X171406192Y-77915818D01*
X171156899Y-78049068D01*
X170938392Y-78228392D01*
X170759068Y-78446899D01*
X170688000Y-78579858D01*
X170616932Y-78446899D01*
X170437608Y-78228392D01*
X170219101Y-78049068D01*
X169969808Y-77915818D01*
X169699309Y-77833764D01*
X169488492Y-77813000D01*
X169347508Y-77813000D01*
X169136691Y-77833764D01*
X168866192Y-77915818D01*
X168616899Y-78049068D01*
X168398392Y-78228392D01*
X168219068Y-78446899D01*
X168148000Y-78579858D01*
X168076932Y-78446899D01*
X167897608Y-78228392D01*
X167679101Y-78049068D01*
X167429808Y-77915818D01*
X167159309Y-77833764D01*
X166948492Y-77813000D01*
X166847801Y-77813000D01*
X168514004Y-76146798D01*
X168543002Y-76123000D01*
X168637975Y-76007275D01*
X168708547Y-75875246D01*
X168752004Y-75731985D01*
X168763001Y-75620332D01*
X168763001Y-75620324D01*
X168766677Y-75582999D01*
X168763001Y-75545674D01*
X168763001Y-75068000D01*
X177531928Y-75068000D01*
X177544188Y-75192482D01*
X177580498Y-75312180D01*
X177639463Y-75422494D01*
X177718815Y-75519185D01*
X177815506Y-75598537D01*
X177925820Y-75657502D01*
X178045518Y-75693812D01*
X178170000Y-75706072D01*
X178784250Y-75703000D01*
X178943000Y-75544250D01*
X178943000Y-74295000D01*
X179197000Y-74295000D01*
X179197000Y-75544250D01*
X179355750Y-75703000D01*
X179970000Y-75706072D01*
X180094482Y-75693812D01*
X180214180Y-75657502D01*
X180324494Y-75598537D01*
X180421185Y-75519185D01*
X180500537Y-75422494D01*
X180559502Y-75312180D01*
X180595812Y-75192482D01*
X180608072Y-75068000D01*
X184135928Y-75068000D01*
X184148188Y-75192482D01*
X184184498Y-75312180D01*
X184243463Y-75422494D01*
X184322815Y-75519185D01*
X184419506Y-75598537D01*
X184529820Y-75657502D01*
X184649518Y-75693812D01*
X184774000Y-75706072D01*
X185388250Y-75703000D01*
X185547000Y-75544250D01*
X185547000Y-74295000D01*
X185801000Y-74295000D01*
X185801000Y-75544250D01*
X185959750Y-75703000D01*
X186574000Y-75706072D01*
X186698482Y-75693812D01*
X186818180Y-75657502D01*
X186928494Y-75598537D01*
X187025185Y-75519185D01*
X187104537Y-75422494D01*
X187163502Y-75312180D01*
X187199812Y-75192482D01*
X187212072Y-75068000D01*
X190739928Y-75068000D01*
X190752188Y-75192482D01*
X190788498Y-75312180D01*
X190847463Y-75422494D01*
X190926815Y-75519185D01*
X191023506Y-75598537D01*
X191133820Y-75657502D01*
X191253518Y-75693812D01*
X191378000Y-75706072D01*
X191992250Y-75703000D01*
X192151000Y-75544250D01*
X192151000Y-74295000D01*
X192405000Y-74295000D01*
X192405000Y-75544250D01*
X192563750Y-75703000D01*
X193178000Y-75706072D01*
X193302482Y-75693812D01*
X193422180Y-75657502D01*
X193532494Y-75598537D01*
X193629185Y-75519185D01*
X193708537Y-75422494D01*
X193767502Y-75312180D01*
X193803812Y-75192482D01*
X193816072Y-75068000D01*
X197343928Y-75068000D01*
X197356188Y-75192482D01*
X197392498Y-75312180D01*
X197451463Y-75422494D01*
X197530815Y-75519185D01*
X197627506Y-75598537D01*
X197737820Y-75657502D01*
X197857518Y-75693812D01*
X197982000Y-75706072D01*
X198596250Y-75703000D01*
X198755000Y-75544250D01*
X198755000Y-74295000D01*
X199009000Y-74295000D01*
X199009000Y-75544250D01*
X199167750Y-75703000D01*
X199782000Y-75706072D01*
X199906482Y-75693812D01*
X200026180Y-75657502D01*
X200136494Y-75598537D01*
X200233185Y-75519185D01*
X200312537Y-75422494D01*
X200371502Y-75312180D01*
X200407812Y-75192482D01*
X200420072Y-75068000D01*
X200417000Y-74453750D01*
X200258250Y-74295000D01*
X199009000Y-74295000D01*
X198755000Y-74295000D01*
X197505750Y-74295000D01*
X197347000Y-74453750D01*
X197343928Y-75068000D01*
X193816072Y-75068000D01*
X193813000Y-74453750D01*
X193654250Y-74295000D01*
X192405000Y-74295000D01*
X192151000Y-74295000D01*
X190901750Y-74295000D01*
X190743000Y-74453750D01*
X190739928Y-75068000D01*
X187212072Y-75068000D01*
X187209000Y-74453750D01*
X187050250Y-74295000D01*
X185801000Y-74295000D01*
X185547000Y-74295000D01*
X184297750Y-74295000D01*
X184139000Y-74453750D01*
X184135928Y-75068000D01*
X180608072Y-75068000D01*
X180605000Y-74453750D01*
X180446250Y-74295000D01*
X179197000Y-74295000D01*
X178943000Y-74295000D01*
X177693750Y-74295000D01*
X177535000Y-74453750D01*
X177531928Y-75068000D01*
X168763001Y-75068000D01*
X168763001Y-73268000D01*
X177531928Y-73268000D01*
X177535000Y-73882250D01*
X177693750Y-74041000D01*
X178943000Y-74041000D01*
X178943000Y-74021000D01*
X179197000Y-74021000D01*
X179197000Y-74041000D01*
X180446250Y-74041000D01*
X180605000Y-73882250D01*
X180608072Y-73268000D01*
X184135928Y-73268000D01*
X184139000Y-73882250D01*
X184297750Y-74041000D01*
X185547000Y-74041000D01*
X185547000Y-74021000D01*
X185801000Y-74021000D01*
X185801000Y-74041000D01*
X187050250Y-74041000D01*
X187209000Y-73882250D01*
X187212072Y-73268000D01*
X190739928Y-73268000D01*
X190743000Y-73882250D01*
X190901750Y-74041000D01*
X192151000Y-74041000D01*
X192151000Y-74021000D01*
X192405000Y-74021000D01*
X192405000Y-74041000D01*
X193654250Y-74041000D01*
X193813000Y-73882250D01*
X193816072Y-73268000D01*
X197343928Y-73268000D01*
X197347000Y-73882250D01*
X197505750Y-74041000D01*
X198755000Y-74041000D01*
X198755000Y-74021000D01*
X199009000Y-74021000D01*
X199009000Y-74041000D01*
X200258250Y-74041000D01*
X200417000Y-73882250D01*
X200420072Y-73268000D01*
X200407812Y-73143518D01*
X200371502Y-73023820D01*
X200312537Y-72913506D01*
X200233185Y-72816815D01*
X200136494Y-72737463D01*
X200026180Y-72678498D01*
X200007873Y-72672944D01*
X200074312Y-72606505D01*
X200242299Y-72355095D01*
X200358011Y-72075743D01*
X200417000Y-71779184D01*
X200417000Y-71476816D01*
X200358011Y-71180257D01*
X200242299Y-70900905D01*
X200074312Y-70649495D01*
X199860505Y-70435688D01*
X199609095Y-70267701D01*
X199329743Y-70151989D01*
X199033184Y-70093000D01*
X198730816Y-70093000D01*
X198434257Y-70151989D01*
X198154905Y-70267701D01*
X197903495Y-70435688D01*
X197689688Y-70649495D01*
X197521701Y-70900905D01*
X197405989Y-71180257D01*
X197347000Y-71476816D01*
X197347000Y-71779184D01*
X197405989Y-72075743D01*
X197521701Y-72355095D01*
X197689688Y-72606505D01*
X197756127Y-72672944D01*
X197737820Y-72678498D01*
X197627506Y-72737463D01*
X197530815Y-72816815D01*
X197451463Y-72913506D01*
X197392498Y-73023820D01*
X197356188Y-73143518D01*
X197343928Y-73268000D01*
X193816072Y-73268000D01*
X193803812Y-73143518D01*
X193767502Y-73023820D01*
X193708537Y-72913506D01*
X193629185Y-72816815D01*
X193532494Y-72737463D01*
X193422180Y-72678498D01*
X193403873Y-72672944D01*
X193470312Y-72606505D01*
X193638299Y-72355095D01*
X193754011Y-72075743D01*
X193813000Y-71779184D01*
X193813000Y-71476816D01*
X193754011Y-71180257D01*
X193638299Y-70900905D01*
X193470312Y-70649495D01*
X193256505Y-70435688D01*
X193005095Y-70267701D01*
X192725743Y-70151989D01*
X192429184Y-70093000D01*
X192126816Y-70093000D01*
X191830257Y-70151989D01*
X191550905Y-70267701D01*
X191299495Y-70435688D01*
X191085688Y-70649495D01*
X190917701Y-70900905D01*
X190801989Y-71180257D01*
X190743000Y-71476816D01*
X190743000Y-71779184D01*
X190801989Y-72075743D01*
X190917701Y-72355095D01*
X191085688Y-72606505D01*
X191152127Y-72672944D01*
X191133820Y-72678498D01*
X191023506Y-72737463D01*
X190926815Y-72816815D01*
X190847463Y-72913506D01*
X190788498Y-73023820D01*
X190752188Y-73143518D01*
X190739928Y-73268000D01*
X187212072Y-73268000D01*
X187199812Y-73143518D01*
X187163502Y-73023820D01*
X187104537Y-72913506D01*
X187025185Y-72816815D01*
X186928494Y-72737463D01*
X186818180Y-72678498D01*
X186799873Y-72672944D01*
X186866312Y-72606505D01*
X187034299Y-72355095D01*
X187150011Y-72075743D01*
X187209000Y-71779184D01*
X187209000Y-71476816D01*
X187150011Y-71180257D01*
X187034299Y-70900905D01*
X186866312Y-70649495D01*
X186652505Y-70435688D01*
X186401095Y-70267701D01*
X186121743Y-70151989D01*
X185825184Y-70093000D01*
X185522816Y-70093000D01*
X185226257Y-70151989D01*
X184946905Y-70267701D01*
X184695495Y-70435688D01*
X184481688Y-70649495D01*
X184313701Y-70900905D01*
X184197989Y-71180257D01*
X184139000Y-71476816D01*
X184139000Y-71779184D01*
X184197989Y-72075743D01*
X184313701Y-72355095D01*
X184481688Y-72606505D01*
X184548127Y-72672944D01*
X184529820Y-72678498D01*
X184419506Y-72737463D01*
X184322815Y-72816815D01*
X184243463Y-72913506D01*
X184184498Y-73023820D01*
X184148188Y-73143518D01*
X184135928Y-73268000D01*
X180608072Y-73268000D01*
X180595812Y-73143518D01*
X180559502Y-73023820D01*
X180500537Y-72913506D01*
X180421185Y-72816815D01*
X180324494Y-72737463D01*
X180214180Y-72678498D01*
X180195873Y-72672944D01*
X180262312Y-72606505D01*
X180430299Y-72355095D01*
X180546011Y-72075743D01*
X180605000Y-71779184D01*
X180605000Y-71476816D01*
X180546011Y-71180257D01*
X180430299Y-70900905D01*
X180262312Y-70649495D01*
X180048505Y-70435688D01*
X179797095Y-70267701D01*
X179517743Y-70151989D01*
X179221184Y-70093000D01*
X178918816Y-70093000D01*
X178622257Y-70151989D01*
X178342905Y-70267701D01*
X178091495Y-70435688D01*
X177877688Y-70649495D01*
X177709701Y-70900905D01*
X177593989Y-71180257D01*
X177535000Y-71476816D01*
X177535000Y-71779184D01*
X177593989Y-72075743D01*
X177709701Y-72355095D01*
X177877688Y-72606505D01*
X177944127Y-72672944D01*
X177925820Y-72678498D01*
X177815506Y-72737463D01*
X177718815Y-72816815D01*
X177639463Y-72913506D01*
X177580498Y-73023820D01*
X177544188Y-73143518D01*
X177531928Y-73268000D01*
X168763001Y-73268000D01*
X168763001Y-72905025D01*
X168866192Y-72960182D01*
X169136691Y-73042236D01*
X169347508Y-73063000D01*
X169488492Y-73063000D01*
X169699309Y-73042236D01*
X169969808Y-72960182D01*
X170219101Y-72826932D01*
X170437608Y-72647608D01*
X170530419Y-72534518D01*
X170532188Y-72552482D01*
X170568498Y-72672180D01*
X170627463Y-72782494D01*
X170706815Y-72879185D01*
X170803506Y-72958537D01*
X170913820Y-73017502D01*
X171033518Y-73053812D01*
X171158000Y-73066072D01*
X172758000Y-73066072D01*
X172882482Y-73053812D01*
X173002180Y-73017502D01*
X173112494Y-72958537D01*
X173209185Y-72879185D01*
X173288537Y-72782494D01*
X173347502Y-72672180D01*
X173383812Y-72552482D01*
X173396072Y-72428000D01*
X173396072Y-70828000D01*
X173383812Y-70703518D01*
X173347502Y-70583820D01*
X173288537Y-70473506D01*
X173209185Y-70376815D01*
X173112494Y-70297463D01*
X173002180Y-70238498D01*
X172882482Y-70202188D01*
X172758000Y-70189928D01*
X171158000Y-70189928D01*
X171033518Y-70202188D01*
X170913820Y-70238498D01*
X170803506Y-70297463D01*
X170706815Y-70376815D01*
X170627463Y-70473506D01*
X170568498Y-70583820D01*
X170532188Y-70703518D01*
X170530419Y-70721482D01*
X170437608Y-70608392D01*
X170219101Y-70429068D01*
X169969808Y-70295818D01*
X169699309Y-70213764D01*
X169575001Y-70201521D01*
X169575001Y-62320444D01*
X169608966Y-62338599D01*
X169888889Y-62423513D01*
X170107050Y-62445000D01*
X170252950Y-62445000D01*
X170471111Y-62423513D01*
X170751034Y-62338599D01*
X171009014Y-62200706D01*
X171235134Y-62015134D01*
X171420706Y-61789014D01*
X171450000Y-61734209D01*
X171479294Y-61789014D01*
X171664866Y-62015134D01*
X171890986Y-62200706D01*
X172148966Y-62338599D01*
X172428889Y-62423513D01*
X172647050Y-62445000D01*
X172792950Y-62445000D01*
X173011111Y-62423513D01*
X173291034Y-62338599D01*
X173549014Y-62200706D01*
X173775134Y-62015134D01*
X173960706Y-61789014D01*
X173990000Y-61734209D01*
X174019294Y-61789014D01*
X174204866Y-62015134D01*
X174430986Y-62200706D01*
X174688966Y-62338599D01*
X174968889Y-62423513D01*
X175187050Y-62445000D01*
X175332950Y-62445000D01*
X175551111Y-62423513D01*
X175831034Y-62338599D01*
X176089014Y-62200706D01*
X176315134Y-62015134D01*
X176500706Y-61789014D01*
X176530000Y-61734209D01*
X176559294Y-61789014D01*
X176744866Y-62015134D01*
X176970986Y-62200706D01*
X177228966Y-62338599D01*
X177508889Y-62423513D01*
X177727050Y-62445000D01*
X177872950Y-62445000D01*
X178091111Y-62423513D01*
X178371034Y-62338599D01*
X178629014Y-62200706D01*
X178855134Y-62015134D01*
X179040706Y-61789014D01*
X179070000Y-61734209D01*
X179099294Y-61789014D01*
X179284866Y-62015134D01*
X179510986Y-62200706D01*
X179768966Y-62338599D01*
X180048889Y-62423513D01*
X180267050Y-62445000D01*
X180412950Y-62445000D01*
X180631111Y-62423513D01*
X180911034Y-62338599D01*
X181169014Y-62200706D01*
X181395134Y-62015134D01*
X181580706Y-61789014D01*
X181610000Y-61734209D01*
X181639294Y-61789014D01*
X181824866Y-62015134D01*
X182050986Y-62200706D01*
X182308966Y-62338599D01*
X182588889Y-62423513D01*
X182807050Y-62445000D01*
X182952950Y-62445000D01*
X183171111Y-62423513D01*
X183451034Y-62338599D01*
X183709014Y-62200706D01*
X183935134Y-62015134D01*
X184120706Y-61789014D01*
X184150000Y-61734209D01*
X184179294Y-61789014D01*
X184364866Y-62015134D01*
X184590986Y-62200706D01*
X184848966Y-62338599D01*
X185128889Y-62423513D01*
X185347050Y-62445000D01*
X185492950Y-62445000D01*
X185711111Y-62423513D01*
X185785995Y-62400797D01*
X186031202Y-62646004D01*
X186055000Y-62675002D01*
X186170725Y-62769975D01*
X186302754Y-62840547D01*
X186446015Y-62884004D01*
X186557668Y-62895001D01*
X186557677Y-62895001D01*
X186595000Y-62898677D01*
X186632323Y-62895001D01*
X189139556Y-62895001D01*
X189121401Y-62928966D01*
X189036487Y-63208889D01*
X189007815Y-63500000D01*
X189036487Y-63791111D01*
X189121401Y-64071034D01*
X189259294Y-64329014D01*
X189444866Y-64555134D01*
X189670986Y-64740706D01*
X189928966Y-64878599D01*
X189944877Y-64883425D01*
X189936200Y-64893998D01*
X189825198Y-65005000D01*
X189763061Y-65005000D01*
X189563102Y-65044774D01*
X189374744Y-65122795D01*
X189205226Y-65236063D01*
X189061063Y-65380226D01*
X188947795Y-65549744D01*
X188869774Y-65738102D01*
X188830000Y-65938061D01*
X188830000Y-66141939D01*
X188869774Y-66341898D01*
X188947795Y-66530256D01*
X189061063Y-66699774D01*
X189205226Y-66843937D01*
X189374744Y-66957205D01*
X189563102Y-67035226D01*
X189763061Y-67075000D01*
X189966939Y-67075000D01*
X190166898Y-67035226D01*
X190355256Y-66957205D01*
X190524774Y-66843937D01*
X190668937Y-66699774D01*
X190782205Y-66530256D01*
X190860226Y-66341898D01*
X190895413Y-66165000D01*
X208211289Y-66165000D01*
X208255226Y-66208937D01*
X208424744Y-66322205D01*
X208613102Y-66400226D01*
X208813061Y-66440000D01*
X209016939Y-66440000D01*
X209216898Y-66400226D01*
X209405256Y-66322205D01*
X209574774Y-66208937D01*
X209718937Y-66064774D01*
X209832205Y-65895256D01*
X209910226Y-65706898D01*
X209950000Y-65506939D01*
X209950000Y-65303061D01*
X209910226Y-65103102D01*
X209858010Y-64977042D01*
X209970000Y-64988072D01*
X211670000Y-64988072D01*
X211794482Y-64975812D01*
X211914180Y-64939502D01*
X212024494Y-64880537D01*
X212121185Y-64801185D01*
X212200537Y-64704494D01*
X212259502Y-64594180D01*
X212295812Y-64474482D01*
X212308072Y-64350000D01*
X212308072Y-62650000D01*
X212295812Y-62525518D01*
X212259502Y-62405820D01*
X212234590Y-62359213D01*
X212455251Y-62138552D01*
X212530986Y-62200706D01*
X212788966Y-62338599D01*
X213068889Y-62423513D01*
X213287050Y-62445000D01*
X213432950Y-62445000D01*
X213651111Y-62423513D01*
X213775001Y-62385931D01*
X213775002Y-64550195D01*
X211111571Y-67213628D01*
X210957592Y-67183000D01*
X210682408Y-67183000D01*
X210412510Y-67236686D01*
X210158273Y-67341995D01*
X209929465Y-67494880D01*
X209734880Y-67689465D01*
X209676080Y-67777465D01*
X209667812Y-67693518D01*
X209631502Y-67573820D01*
X209572537Y-67463506D01*
X209493185Y-67366815D01*
X209396494Y-67287463D01*
X209286180Y-67228498D01*
X209166482Y-67192188D01*
X209042000Y-67179928D01*
X207518000Y-67179928D01*
X207393518Y-67192188D01*
X207273820Y-67228498D01*
X207163506Y-67287463D01*
X207066815Y-67366815D01*
X206987463Y-67463506D01*
X206928498Y-67573820D01*
X206892188Y-67693518D01*
X206879928Y-67818000D01*
X206879928Y-69342000D01*
X206892188Y-69466482D01*
X206928498Y-69586180D01*
X206987463Y-69696494D01*
X207066815Y-69793185D01*
X207163506Y-69872537D01*
X207273820Y-69931502D01*
X207393518Y-69967812D01*
X207518000Y-69980072D01*
X209042000Y-69980072D01*
X209166482Y-69967812D01*
X209286180Y-69931502D01*
X209396494Y-69872537D01*
X209493185Y-69793185D01*
X209572537Y-69696494D01*
X209631502Y-69586180D01*
X209667812Y-69466482D01*
X209676080Y-69382535D01*
X209734880Y-69470535D01*
X209929465Y-69665120D01*
X210158273Y-69818005D01*
X210412510Y-69923314D01*
X210682408Y-69977000D01*
X210957592Y-69977000D01*
X211227490Y-69923314D01*
X211481727Y-69818005D01*
X211710535Y-69665120D01*
X211905120Y-69470535D01*
X212058005Y-69241727D01*
X212090000Y-69164485D01*
X212121995Y-69241727D01*
X212274880Y-69470535D01*
X212469465Y-69665120D01*
X212698273Y-69818005D01*
X212952510Y-69923314D01*
X213222408Y-69977000D01*
X213497592Y-69977000D01*
X213767490Y-69923314D01*
X214021727Y-69818005D01*
X214250535Y-69665120D01*
X214445120Y-69470535D01*
X214598005Y-69241727D01*
X214630000Y-69164485D01*
X214661995Y-69241727D01*
X214814880Y-69470535D01*
X215009465Y-69665120D01*
X215238273Y-69818005D01*
X215492510Y-69923314D01*
X215762408Y-69977000D01*
X216037592Y-69977000D01*
X216307490Y-69923314D01*
X216561727Y-69818005D01*
X216790535Y-69665120D01*
X216985120Y-69470535D01*
X217138005Y-69241727D01*
X217170000Y-69164485D01*
X217201995Y-69241727D01*
X217354880Y-69470535D01*
X217549465Y-69665120D01*
X217778273Y-69818005D01*
X218032510Y-69923314D01*
X218302408Y-69977000D01*
X218577592Y-69977000D01*
X218847490Y-69923314D01*
X219101727Y-69818005D01*
X219330535Y-69665120D01*
X219525120Y-69470535D01*
X219678005Y-69241727D01*
X219783314Y-68987490D01*
X219837000Y-68717592D01*
X219837000Y-68442408D01*
X219783314Y-68172510D01*
X219678005Y-67918273D01*
X219525120Y-67689465D01*
X219330535Y-67494880D01*
X219101727Y-67341995D01*
X218847490Y-67236686D01*
X218577592Y-67183000D01*
X218302408Y-67183000D01*
X218032510Y-67236686D01*
X217778273Y-67341995D01*
X217549465Y-67494880D01*
X217354880Y-67689465D01*
X217201995Y-67918273D01*
X217170000Y-67995515D01*
X217138005Y-67918273D01*
X216985120Y-67689465D01*
X216790535Y-67494880D01*
X216561727Y-67341995D01*
X216307490Y-67236686D01*
X216037592Y-67183000D01*
X215762408Y-67183000D01*
X215492510Y-67236686D01*
X215238273Y-67341995D01*
X215009465Y-67494880D01*
X214814880Y-67689465D01*
X214661995Y-67918273D01*
X214630000Y-67995515D01*
X214598005Y-67918273D01*
X214445120Y-67689465D01*
X214250535Y-67494880D01*
X214021727Y-67341995D01*
X213767490Y-67236686D01*
X213497592Y-67183000D01*
X213291802Y-67183000D01*
X215046009Y-65428794D01*
X215075002Y-65405000D01*
X215098796Y-65376007D01*
X215098800Y-65376003D01*
X215169974Y-65289276D01*
X215169975Y-65289275D01*
X215240547Y-65157246D01*
X215284004Y-65013985D01*
X215295001Y-64902332D01*
X215295001Y-64902323D01*
X215298677Y-64865000D01*
X215295001Y-64827677D01*
X215295001Y-62320444D01*
X215328966Y-62338599D01*
X215608889Y-62423513D01*
X215827050Y-62445000D01*
X215972950Y-62445000D01*
X216191111Y-62423513D01*
X216471034Y-62338599D01*
X216729014Y-62200706D01*
X216955134Y-62015134D01*
X217140706Y-61789014D01*
X217175201Y-61724477D01*
X217244822Y-61841355D01*
X217439731Y-62057588D01*
X217673080Y-62231641D01*
X217935901Y-62356825D01*
X218083110Y-62401476D01*
X218313000Y-62280155D01*
X218313000Y-61087000D01*
X218567000Y-61087000D01*
X218567000Y-62280155D01*
X218796890Y-62401476D01*
X218944099Y-62356825D01*
X219206920Y-62231641D01*
X219440269Y-62057588D01*
X219635178Y-61841355D01*
X219784157Y-61591252D01*
X219881481Y-61316891D01*
X219760814Y-61087000D01*
X218567000Y-61087000D01*
X218313000Y-61087000D01*
X218293000Y-61087000D01*
X218293000Y-60833000D01*
X218313000Y-60833000D01*
X218313000Y-59639845D01*
X218567000Y-59639845D01*
X218567000Y-60833000D01*
X219760814Y-60833000D01*
X219881481Y-60603109D01*
X219784157Y-60328748D01*
X219635178Y-60078645D01*
X219440269Y-59862412D01*
X219206920Y-59688359D01*
X218944099Y-59563175D01*
X218796890Y-59518524D01*
X218567000Y-59639845D01*
X218313000Y-59639845D01*
X218083110Y-59518524D01*
X217935901Y-59563175D01*
X217673080Y-59688359D01*
X217439731Y-59862412D01*
X217244822Y-60078645D01*
X217175201Y-60195523D01*
X217140706Y-60130986D01*
X216955134Y-59904866D01*
X216729014Y-59719294D01*
X216564461Y-59631339D01*
X220475003Y-55720797D01*
X220504001Y-55696999D01*
X220530332Y-55664915D01*
X220598974Y-55581275D01*
X220669546Y-55449245D01*
X220686308Y-55393986D01*
X220713003Y-55305984D01*
X220724000Y-55194331D01*
X220724000Y-55194321D01*
X220727676Y-55156999D01*
X220724000Y-55119676D01*
X220724000Y-54558043D01*
X220878759Y-54454637D01*
X221078637Y-54254759D01*
X221235680Y-54019727D01*
X221343853Y-53758574D01*
X221399000Y-53481335D01*
X221399000Y-53198665D01*
X221343853Y-52921426D01*
X221235680Y-52660273D01*
X221078637Y-52425241D01*
X220878759Y-52225363D01*
X220643727Y-52068320D01*
X220382574Y-51960147D01*
X220105335Y-51905000D01*
X219822665Y-51905000D01*
X219545426Y-51960147D01*
X219284273Y-52068320D01*
X219049241Y-52225363D01*
X218849363Y-52425241D01*
X218692320Y-52660273D01*
X218584147Y-52921426D01*
X218529000Y-53198665D01*
X218529000Y-53481335D01*
X218584147Y-53758574D01*
X218692320Y-54019727D01*
X218849363Y-54254759D01*
X219049241Y-54454637D01*
X219204001Y-54558044D01*
X219204001Y-54842195D01*
X214264749Y-59781448D01*
X214189014Y-59719294D01*
X213931034Y-59581401D01*
X213651111Y-59496487D01*
X213432950Y-59475000D01*
X213287050Y-59475000D01*
X213068889Y-59496487D01*
X212944999Y-59534069D01*
X212944999Y-58639802D01*
X214506004Y-57078798D01*
X214535001Y-57055001D01*
X214592100Y-56985426D01*
X214629974Y-56939277D01*
X214700546Y-56807247D01*
X214717911Y-56750000D01*
X214744003Y-56663986D01*
X214755000Y-56552333D01*
X214755000Y-56552323D01*
X214758676Y-56515000D01*
X214755000Y-56477677D01*
X214755000Y-50964333D01*
X214758677Y-50927000D01*
X214744003Y-50778014D01*
X214700546Y-50634753D01*
X214629974Y-50502724D01*
X214558799Y-50415997D01*
X214535001Y-50386999D01*
X214506003Y-50363201D01*
X213744708Y-49601906D01*
X213758236Y-49557309D01*
X213785943Y-49276000D01*
X213772023Y-49134665D01*
X218529000Y-49134665D01*
X218529000Y-49417335D01*
X218584147Y-49694574D01*
X218692320Y-49955727D01*
X218849363Y-50190759D01*
X219049241Y-50390637D01*
X219284273Y-50547680D01*
X219545426Y-50655853D01*
X219822665Y-50711000D01*
X220105335Y-50711000D01*
X220382574Y-50655853D01*
X220643727Y-50547680D01*
X220878759Y-50390637D01*
X221078637Y-50190759D01*
X221235680Y-49955727D01*
X221343853Y-49694574D01*
X221399000Y-49417335D01*
X221399000Y-49134665D01*
X221343853Y-48857426D01*
X221235680Y-48596273D01*
X221078637Y-48361241D01*
X220878759Y-48161363D01*
X220643727Y-48004320D01*
X220382574Y-47896147D01*
X220105335Y-47841000D01*
X219822665Y-47841000D01*
X219545426Y-47896147D01*
X219284273Y-48004320D01*
X219049241Y-48161363D01*
X218849363Y-48361241D01*
X218692320Y-48596273D01*
X218584147Y-48857426D01*
X218529000Y-49134665D01*
X213772023Y-49134665D01*
X213758236Y-48994691D01*
X213676182Y-48724192D01*
X213542932Y-48474899D01*
X213363608Y-48256392D01*
X213145101Y-48077068D01*
X212895808Y-47943818D01*
X212625309Y-47861764D01*
X212414492Y-47841000D01*
X212313801Y-47841000D01*
X212994005Y-47160797D01*
X213068889Y-47183513D01*
X213287050Y-47205000D01*
X213432950Y-47205000D01*
X213651111Y-47183513D01*
X213931034Y-47098599D01*
X214189014Y-46960706D01*
X214415134Y-46775134D01*
X214600706Y-46549014D01*
X214630000Y-46494209D01*
X214659294Y-46549014D01*
X214844866Y-46775134D01*
X215070986Y-46960706D01*
X215328966Y-47098599D01*
X215608889Y-47183513D01*
X215827050Y-47205000D01*
X215972950Y-47205000D01*
X216191111Y-47183513D01*
X216471034Y-47098599D01*
X216729014Y-46960706D01*
X216955134Y-46775134D01*
X217140706Y-46549014D01*
X217175201Y-46484477D01*
X217244822Y-46601355D01*
X217439731Y-46817588D01*
X217673080Y-46991641D01*
X217935901Y-47116825D01*
X218083110Y-47161476D01*
X218313000Y-47040155D01*
X218313000Y-45847000D01*
X218567000Y-45847000D01*
X218567000Y-47040155D01*
X218796890Y-47161476D01*
X218944099Y-47116825D01*
X219206920Y-46991641D01*
X219440269Y-46817588D01*
X219635178Y-46601355D01*
X219784157Y-46351252D01*
X219881481Y-46076891D01*
X219760814Y-45847000D01*
X218567000Y-45847000D01*
X218313000Y-45847000D01*
X218293000Y-45847000D01*
X218293000Y-45593000D01*
X218313000Y-45593000D01*
X218313000Y-44399845D01*
X218567000Y-44399845D01*
X218567000Y-45593000D01*
X219760814Y-45593000D01*
X219881481Y-45363109D01*
X219784157Y-45088748D01*
X219635178Y-44838645D01*
X219440269Y-44622412D01*
X219206920Y-44448359D01*
X218944099Y-44323175D01*
X218796890Y-44278524D01*
X218567000Y-44399845D01*
X218313000Y-44399845D01*
X218083110Y-44278524D01*
X217935901Y-44323175D01*
X217673080Y-44448359D01*
X217439731Y-44622412D01*
X217244822Y-44838645D01*
X217175201Y-44955523D01*
X217140706Y-44890986D01*
X216955134Y-44664866D01*
X216729014Y-44479294D01*
X216471034Y-44341401D01*
X216191111Y-44256487D01*
X215972950Y-44235000D01*
X215827050Y-44235000D01*
X215608889Y-44256487D01*
X215328966Y-44341401D01*
X215070986Y-44479294D01*
X214844866Y-44664866D01*
X214659294Y-44890986D01*
X214630000Y-44945791D01*
X214600706Y-44890986D01*
X214415134Y-44664866D01*
X214189014Y-44479294D01*
X213931034Y-44341401D01*
X213651111Y-44256487D01*
X213432950Y-44235000D01*
X213287050Y-44235000D01*
X213068889Y-44256487D01*
X212788966Y-44341401D01*
X212530986Y-44479294D01*
X212304866Y-44664866D01*
X212119294Y-44890986D01*
X212090000Y-44945791D01*
X212060706Y-44890986D01*
X211875134Y-44664866D01*
X211649014Y-44479294D01*
X211580000Y-44442405D01*
X211580000Y-43472321D01*
X211583676Y-43434998D01*
X211580000Y-43397675D01*
X211580000Y-43397665D01*
X211569003Y-43286012D01*
X211525546Y-43142751D01*
X211465821Y-43031015D01*
X211454974Y-43010721D01*
X211383799Y-42923995D01*
X211360001Y-42894997D01*
X211331003Y-42871199D01*
X209499804Y-41040000D01*
X209651939Y-41040000D01*
X209851898Y-41000226D01*
X210040256Y-40922205D01*
X210209774Y-40808937D01*
X210353937Y-40664774D01*
X210467205Y-40495256D01*
X210545226Y-40306898D01*
X210585000Y-40106939D01*
X210585000Y-39903061D01*
X210545226Y-39703102D01*
X210467205Y-39514744D01*
X210353937Y-39345226D01*
X210209774Y-39201063D01*
X210040256Y-39087795D01*
X209851898Y-39009774D01*
X209651939Y-38970000D01*
X209589803Y-38970000D01*
X207308468Y-36688665D01*
X208115000Y-36688665D01*
X208115000Y-36971335D01*
X208170147Y-37248574D01*
X208278320Y-37509727D01*
X208435363Y-37744759D01*
X208635241Y-37944637D01*
X208870273Y-38101680D01*
X209131426Y-38209853D01*
X209408665Y-38265000D01*
X209691335Y-38265000D01*
X209968574Y-38209853D01*
X210229727Y-38101680D01*
X210464759Y-37944637D01*
X210664637Y-37744759D01*
X210821680Y-37509727D01*
X210823650Y-37504971D01*
X210891068Y-37631101D01*
X211070392Y-37849608D01*
X211288899Y-38028932D01*
X211538192Y-38162182D01*
X211808691Y-38244236D01*
X212019508Y-38265000D01*
X212160492Y-38265000D01*
X212371309Y-38244236D01*
X212641808Y-38162182D01*
X212891101Y-38028932D01*
X213109608Y-37849608D01*
X213288932Y-37631101D01*
X213422182Y-37381808D01*
X213504236Y-37111309D01*
X213531943Y-36830000D01*
X213504236Y-36548691D01*
X213422182Y-36278192D01*
X213288932Y-36028899D01*
X213109608Y-35810392D01*
X212891101Y-35631068D01*
X212641808Y-35497818D01*
X212371309Y-35415764D01*
X212160492Y-35395000D01*
X212019508Y-35395000D01*
X211808691Y-35415764D01*
X211538192Y-35497818D01*
X211288899Y-35631068D01*
X211070392Y-35810392D01*
X210891068Y-36028899D01*
X210823650Y-36155029D01*
X210821680Y-36150273D01*
X210664637Y-35915241D01*
X210464759Y-35715363D01*
X210229727Y-35558320D01*
X209968574Y-35450147D01*
X209691335Y-35395000D01*
X209408665Y-35395000D01*
X209131426Y-35450147D01*
X208870273Y-35558320D01*
X208635241Y-35715363D01*
X208435363Y-35915241D01*
X208278320Y-36150273D01*
X208170147Y-36411426D01*
X208115000Y-36688665D01*
X207308468Y-36688665D01*
X199521859Y-28902058D01*
X199499853Y-28791426D01*
X199391680Y-28530273D01*
X199234637Y-28295241D01*
X199034759Y-28095363D01*
X198799727Y-27938320D01*
X198538574Y-27830147D01*
X198261335Y-27775000D01*
X197978665Y-27775000D01*
X197701426Y-27830147D01*
X197440273Y-27938320D01*
X197205241Y-28095363D01*
X197005363Y-28295241D01*
X196848320Y-28530273D01*
X196740147Y-28791426D01*
X196685000Y-29068665D01*
X196685000Y-29351335D01*
X196740147Y-29628574D01*
X196848320Y-29889727D01*
X197005363Y-30124759D01*
X197205241Y-30324637D01*
X197440273Y-30481680D01*
X197701426Y-30589853D01*
X197978665Y-30645000D01*
X198261335Y-30645000D01*
X198538574Y-30589853D01*
X198799727Y-30481680D01*
X198890935Y-30420737D01*
X208515000Y-40044803D01*
X208515000Y-40055197D01*
X206683806Y-38224003D01*
X206660003Y-38194999D01*
X206544278Y-38100026D01*
X206412249Y-38029454D01*
X206268988Y-37985997D01*
X206157335Y-37975000D01*
X206157324Y-37975000D01*
X206120002Y-37971324D01*
X206082680Y-37975000D01*
X202796817Y-37975000D01*
X202949608Y-37849608D01*
X203128932Y-37631101D01*
X203262182Y-37381808D01*
X203344236Y-37111309D01*
X203371943Y-36830000D01*
X203344236Y-36548691D01*
X203262182Y-36278192D01*
X203128932Y-36028899D01*
X202949608Y-35810392D01*
X202731101Y-35631068D01*
X202481808Y-35497818D01*
X202211309Y-35415764D01*
X202000492Y-35395000D01*
X201859508Y-35395000D01*
X201648691Y-35415764D01*
X201378192Y-35497818D01*
X201128899Y-35631068D01*
X200910392Y-35810392D01*
X200731068Y-36028899D01*
X200597818Y-36278192D01*
X200530364Y-36500560D01*
X195705000Y-31675197D01*
X195705000Y-28612323D01*
X195708676Y-28575000D01*
X195705000Y-28537677D01*
X195705000Y-28537667D01*
X195694003Y-28426014D01*
X195650546Y-28282753D01*
X195579974Y-28150724D01*
X195485001Y-28034999D01*
X195456003Y-28011201D01*
X194241801Y-26797000D01*
X223467394Y-26797000D01*
X224663000Y-27992606D01*
X224663000Y-39438197D01*
X222375000Y-37150199D01*
X222375000Y-35597322D01*
X222378676Y-35559999D01*
X222375000Y-35522676D01*
X222375000Y-35522667D01*
X222364003Y-35411014D01*
X222320546Y-35267753D01*
X222249974Y-35135724D01*
X222155001Y-35019999D01*
X222126004Y-34996202D01*
X220908804Y-33779003D01*
X220885001Y-33749999D01*
X220769276Y-33655026D01*
X220637247Y-33584454D01*
X220493986Y-33540997D01*
X220382333Y-33530000D01*
X220382322Y-33530000D01*
X220345000Y-33526324D01*
X220307678Y-33530000D01*
X212404803Y-33530000D01*
X210113804Y-31239003D01*
X210090001Y-31209999D01*
X209974276Y-31115026D01*
X209842247Y-31044454D01*
X209698986Y-31000997D01*
X209587333Y-30990000D01*
X209587322Y-30990000D01*
X209550000Y-30986324D01*
X209512678Y-30990000D01*
X207017238Y-30990000D01*
X207015812Y-30975518D01*
X206979502Y-30855820D01*
X206920537Y-30745506D01*
X206841185Y-30648815D01*
X206744494Y-30569463D01*
X206634180Y-30510498D01*
X206514482Y-30474188D01*
X206390000Y-30461928D01*
X206032828Y-30461928D01*
X206114821Y-30445619D01*
X206337363Y-30353439D01*
X212075000Y-30353439D01*
X212075000Y-30606561D01*
X212124381Y-30854821D01*
X212221247Y-31088676D01*
X212361875Y-31299140D01*
X212540860Y-31478125D01*
X212751324Y-31618753D01*
X212985179Y-31715619D01*
X213233439Y-31765000D01*
X213341928Y-31765000D01*
X213341928Y-32400000D01*
X213354188Y-32524482D01*
X213390498Y-32644180D01*
X213449463Y-32754494D01*
X213528815Y-32851185D01*
X213625506Y-32930537D01*
X213735820Y-32989502D01*
X213855518Y-33025812D01*
X213980000Y-33038072D01*
X215280000Y-33038072D01*
X215404482Y-33025812D01*
X215524180Y-32989502D01*
X215634494Y-32930537D01*
X215731185Y-32851185D01*
X215810537Y-32754494D01*
X215869502Y-32644180D01*
X215905812Y-32524482D01*
X215918072Y-32400000D01*
X215918072Y-31100000D01*
X215905812Y-30975518D01*
X215869502Y-30855820D01*
X215810537Y-30745506D01*
X215731185Y-30648815D01*
X215634494Y-30569463D01*
X215524180Y-30510498D01*
X215404482Y-30474188D01*
X215280000Y-30461928D01*
X214922828Y-30461928D01*
X215004821Y-30445619D01*
X215238676Y-30348753D01*
X215449140Y-30208125D01*
X215628125Y-30029140D01*
X215768753Y-29818676D01*
X215865619Y-29584821D01*
X215915000Y-29336561D01*
X215915000Y-29083439D01*
X215906184Y-29039117D01*
X220515000Y-29039117D01*
X220515000Y-29380883D01*
X220581675Y-29716081D01*
X220712463Y-30031831D01*
X220902337Y-30315998D01*
X221144002Y-30557663D01*
X221428169Y-30747537D01*
X221743919Y-30878325D01*
X222079117Y-30945000D01*
X222420883Y-30945000D01*
X222756081Y-30878325D01*
X223071831Y-30747537D01*
X223355998Y-30557663D01*
X223597663Y-30315998D01*
X223787537Y-30031831D01*
X223918325Y-29716081D01*
X223985000Y-29380883D01*
X223985000Y-29039117D01*
X223918325Y-28703919D01*
X223787537Y-28388169D01*
X223597663Y-28104002D01*
X223355998Y-27862337D01*
X223071831Y-27672463D01*
X222756081Y-27541675D01*
X222420883Y-27475000D01*
X222079117Y-27475000D01*
X221743919Y-27541675D01*
X221428169Y-27672463D01*
X221144002Y-27862337D01*
X220902337Y-28104002D01*
X220712463Y-28388169D01*
X220581675Y-28703919D01*
X220515000Y-29039117D01*
X215906184Y-29039117D01*
X215865619Y-28835179D01*
X215768753Y-28601324D01*
X215628125Y-28390860D01*
X215449140Y-28211875D01*
X215238676Y-28071247D01*
X215004821Y-27974381D01*
X214756561Y-27925000D01*
X214503439Y-27925000D01*
X214255179Y-27974381D01*
X214021324Y-28071247D01*
X213810860Y-28211875D01*
X213631875Y-28390860D01*
X213491247Y-28601324D01*
X213394381Y-28835179D01*
X213345000Y-29083439D01*
X213345000Y-29195000D01*
X213233439Y-29195000D01*
X212985179Y-29244381D01*
X212751324Y-29341247D01*
X212540860Y-29481875D01*
X212361875Y-29660860D01*
X212221247Y-29871324D01*
X212124381Y-30105179D01*
X212075000Y-30353439D01*
X206337363Y-30353439D01*
X206348676Y-30348753D01*
X206559140Y-30208125D01*
X206738125Y-30029140D01*
X206878753Y-29818676D01*
X206975619Y-29584821D01*
X207025000Y-29336561D01*
X207025000Y-29083439D01*
X206975619Y-28835179D01*
X206878753Y-28601324D01*
X206738125Y-28390860D01*
X206559140Y-28211875D01*
X206348676Y-28071247D01*
X206114821Y-27974381D01*
X205866561Y-27925000D01*
X205613439Y-27925000D01*
X205365179Y-27974381D01*
X205131324Y-28071247D01*
X204920860Y-28211875D01*
X204741875Y-28390860D01*
X204601247Y-28601324D01*
X204504381Y-28835179D01*
X204455000Y-29083439D01*
X204455000Y-29195000D01*
X204343439Y-29195000D01*
X204095179Y-29244381D01*
X203861324Y-29341247D01*
X203650860Y-29481875D01*
X203471875Y-29660860D01*
X203331247Y-29871324D01*
X203234381Y-30105179D01*
X203185000Y-30353439D01*
X203185000Y-30606561D01*
X203234381Y-30854821D01*
X203331247Y-31088676D01*
X203471875Y-31299140D01*
X203650860Y-31478125D01*
X203861324Y-31618753D01*
X204095179Y-31715619D01*
X204343439Y-31765000D01*
X204451928Y-31765000D01*
X204451928Y-32400000D01*
X204464188Y-32524482D01*
X204500498Y-32644180D01*
X204559463Y-32754494D01*
X204638815Y-32851185D01*
X204735506Y-32930537D01*
X204845820Y-32989502D01*
X204965518Y-33025812D01*
X205090000Y-33038072D01*
X206390000Y-33038072D01*
X206514482Y-33025812D01*
X206634180Y-32989502D01*
X206744494Y-32930537D01*
X206841185Y-32851185D01*
X206920537Y-32754494D01*
X206979502Y-32644180D01*
X207015812Y-32524482D01*
X207017238Y-32510000D01*
X209235199Y-32510000D01*
X211526205Y-34801008D01*
X211549999Y-34830001D01*
X211578992Y-34853795D01*
X211578996Y-34853799D01*
X211649685Y-34911811D01*
X211665724Y-34924974D01*
X211797753Y-34995546D01*
X211941014Y-35039003D01*
X212052667Y-35050000D01*
X212052676Y-35050000D01*
X212089999Y-35053676D01*
X212127322Y-35050000D01*
X220030199Y-35050000D01*
X220855000Y-35874802D01*
X220855000Y-35960683D01*
X220824637Y-35915241D01*
X220624759Y-35715363D01*
X220389727Y-35558320D01*
X220128574Y-35450147D01*
X219851335Y-35395000D01*
X219568665Y-35395000D01*
X219291426Y-35450147D01*
X219030273Y-35558320D01*
X218795241Y-35715363D01*
X218595363Y-35915241D01*
X218438320Y-36150273D01*
X218330147Y-36411426D01*
X218275000Y-36688665D01*
X218275000Y-36971335D01*
X218330147Y-37248574D01*
X218438320Y-37509727D01*
X218595363Y-37744759D01*
X218795241Y-37944637D01*
X219030273Y-38101680D01*
X219291426Y-38209853D01*
X219568665Y-38265000D01*
X219851335Y-38265000D01*
X220128574Y-38209853D01*
X220389727Y-38101680D01*
X220624759Y-37944637D01*
X220824637Y-37744759D01*
X220880367Y-37661354D01*
X220909454Y-37757246D01*
X220980026Y-37889276D01*
X221047362Y-37971324D01*
X221075000Y-38005001D01*
X221103998Y-38028799D01*
X223395000Y-40319803D01*
X223395001Y-65831124D01*
X223285256Y-65757795D01*
X223096898Y-65679774D01*
X222896939Y-65640000D01*
X222693061Y-65640000D01*
X222493102Y-65679774D01*
X222304744Y-65757795D01*
X222135226Y-65871063D01*
X221991063Y-66015226D01*
X221877795Y-66184744D01*
X221799774Y-66373102D01*
X221760000Y-66573061D01*
X221760000Y-66776939D01*
X221799774Y-66976898D01*
X221877795Y-67165256D01*
X221991063Y-67334774D01*
X222035000Y-67378711D01*
X222035001Y-71530197D01*
X216191571Y-77373628D01*
X216037592Y-77343000D01*
X215762408Y-77343000D01*
X215492510Y-77396686D01*
X215238273Y-77501995D01*
X215009465Y-77654880D01*
X214814880Y-77849465D01*
X214661995Y-78078273D01*
X214630000Y-78155515D01*
X214598005Y-78078273D01*
X214445120Y-77849465D01*
X214250535Y-77654880D01*
X214021727Y-77501995D01*
X213767490Y-77396686D01*
X213497592Y-77343000D01*
X213222408Y-77343000D01*
X212952510Y-77396686D01*
X212698273Y-77501995D01*
X212469465Y-77654880D01*
X212274880Y-77849465D01*
X212121995Y-78078273D01*
X212090000Y-78155515D01*
X212058005Y-78078273D01*
X211905120Y-77849465D01*
X211710535Y-77654880D01*
X211481727Y-77501995D01*
X211227490Y-77396686D01*
X210957592Y-77343000D01*
X210682408Y-77343000D01*
X210412510Y-77396686D01*
X210158273Y-77501995D01*
X209929465Y-77654880D01*
X209734880Y-77849465D01*
X209581995Y-78078273D01*
X209550000Y-78155515D01*
X209518005Y-78078273D01*
X209365120Y-77849465D01*
X209170535Y-77654880D01*
X209040000Y-77567659D01*
X209040000Y-74877325D01*
X209043676Y-74840000D01*
X209040000Y-74802675D01*
X209040000Y-74802667D01*
X209029003Y-74691014D01*
X208985546Y-74547753D01*
X208914974Y-74415724D01*
X208820001Y-74299999D01*
X208791004Y-74276202D01*
X202330000Y-67815199D01*
X202330000Y-67753061D01*
X202290226Y-67553102D01*
X202212205Y-67364744D01*
X202098937Y-67195226D01*
X201954774Y-67051063D01*
X201785256Y-66937795D01*
X201596898Y-66859774D01*
X201396939Y-66820000D01*
X201193061Y-66820000D01*
X200993102Y-66859774D01*
X200804744Y-66937795D01*
X200635226Y-67051063D01*
X200491063Y-67195226D01*
X200377795Y-67364744D01*
X200299774Y-67553102D01*
X200260000Y-67753061D01*
X200260000Y-67956939D01*
X200299774Y-68156898D01*
X200377795Y-68345256D01*
X200491063Y-68514774D01*
X200635226Y-68658937D01*
X200804744Y-68772205D01*
X200993102Y-68850226D01*
X201193061Y-68890000D01*
X201255199Y-68890000D01*
X207520000Y-75154802D01*
X207520001Y-77567659D01*
X207389465Y-77654880D01*
X207194880Y-77849465D01*
X207041995Y-78078273D01*
X206936686Y-78332510D01*
X206883000Y-78602408D01*
X206883000Y-78877592D01*
X206936686Y-79147490D01*
X207041995Y-79401727D01*
X207194880Y-79630535D01*
X207389465Y-79825120D01*
X207618273Y-79978005D01*
X207872510Y-80083314D01*
X208142408Y-80137000D01*
X208417592Y-80137000D01*
X208687490Y-80083314D01*
X208941727Y-79978005D01*
X209170535Y-79825120D01*
X209365120Y-79630535D01*
X209518005Y-79401727D01*
X209550000Y-79324485D01*
X209581995Y-79401727D01*
X209734880Y-79630535D01*
X209929465Y-79825120D01*
X210158273Y-79978005D01*
X210412510Y-80083314D01*
X210682408Y-80137000D01*
X210957592Y-80137000D01*
X211111570Y-80106372D01*
X212161201Y-81156003D01*
X212184999Y-81185001D01*
X212300724Y-81279974D01*
X212432753Y-81350546D01*
X212576014Y-81394003D01*
X212687667Y-81405000D01*
X212687677Y-81405000D01*
X212725000Y-81408676D01*
X212762323Y-81405000D01*
X219672678Y-81405000D01*
X219710000Y-81408676D01*
X219747322Y-81405000D01*
X219747333Y-81405000D01*
X219858986Y-81394003D01*
X220002247Y-81350546D01*
X220134276Y-81279974D01*
X220250001Y-81185001D01*
X220273804Y-81155997D01*
X224663000Y-76766802D01*
X224663000Y-83767394D01*
X223785471Y-84644923D01*
X223787537Y-84641831D01*
X223918325Y-84326081D01*
X223985000Y-83990883D01*
X223985000Y-83649117D01*
X223918325Y-83313919D01*
X223787537Y-82998169D01*
X223597663Y-82714002D01*
X223355998Y-82472337D01*
X223071831Y-82282463D01*
X222756081Y-82151675D01*
X222420883Y-82085000D01*
X222079117Y-82085000D01*
X221743919Y-82151675D01*
X221428169Y-82282463D01*
X221144002Y-82472337D01*
X220902337Y-82714002D01*
X220712463Y-82998169D01*
X220581675Y-83313919D01*
X220515000Y-83649117D01*
X220515000Y-83990883D01*
X220581675Y-84326081D01*
X220712463Y-84641831D01*
X220902337Y-84925998D01*
X221144002Y-85167663D01*
X221428169Y-85357537D01*
X221743919Y-85488325D01*
X222079117Y-85555000D01*
X222420883Y-85555000D01*
X222756081Y-85488325D01*
X223071831Y-85357537D01*
X223074923Y-85355471D01*
X222832394Y-85598000D01*
X130227606Y-85598000D01*
X129985077Y-85355471D01*
X129988169Y-85357537D01*
X130303919Y-85488325D01*
X130639117Y-85555000D01*
X130980883Y-85555000D01*
X131316081Y-85488325D01*
X131631831Y-85357537D01*
X131915998Y-85167663D01*
X132157663Y-84925998D01*
X132347537Y-84641831D01*
X132430474Y-84441602D01*
X145768003Y-84441602D01*
X145884275Y-84723389D01*
X146202860Y-84881257D01*
X146546122Y-84973938D01*
X146900869Y-84997873D01*
X147253470Y-84952139D01*
X147590373Y-84838495D01*
X147805725Y-84723389D01*
X147921997Y-84441602D01*
X146845000Y-83364605D01*
X145768003Y-84441602D01*
X132430474Y-84441602D01*
X132478325Y-84326081D01*
X132545000Y-83990883D01*
X132545000Y-83649117D01*
X132478325Y-83313919D01*
X132448067Y-83240869D01*
X145032127Y-83240869D01*
X145077861Y-83593470D01*
X145191505Y-83930373D01*
X145306611Y-84145725D01*
X145588398Y-84261997D01*
X146665395Y-83185000D01*
X147024605Y-83185000D01*
X148101602Y-84261997D01*
X148383389Y-84145725D01*
X148541257Y-83827140D01*
X148633938Y-83483878D01*
X148657873Y-83129131D01*
X148642061Y-83007223D01*
X155040000Y-83007223D01*
X155040000Y-83362777D01*
X155109365Y-83711499D01*
X155245429Y-84039988D01*
X155442965Y-84335621D01*
X155694379Y-84587035D01*
X155990012Y-84784571D01*
X156318501Y-84920635D01*
X156667223Y-84990000D01*
X157022777Y-84990000D01*
X157371499Y-84920635D01*
X157699988Y-84784571D01*
X157995621Y-84587035D01*
X158247035Y-84335621D01*
X158444571Y-84039988D01*
X158580635Y-83711499D01*
X158650000Y-83362777D01*
X158650000Y-83007223D01*
X158580635Y-82658501D01*
X158444571Y-82330012D01*
X158247035Y-82034379D01*
X157995621Y-81782965D01*
X157699988Y-81585429D01*
X157371499Y-81449365D01*
X157022777Y-81380000D01*
X156667223Y-81380000D01*
X156318501Y-81449365D01*
X155990012Y-81585429D01*
X155694379Y-81782965D01*
X155442965Y-82034379D01*
X155245429Y-82330012D01*
X155109365Y-82658501D01*
X155040000Y-83007223D01*
X148642061Y-83007223D01*
X148612139Y-82776530D01*
X148498495Y-82439627D01*
X148383389Y-82224275D01*
X148101602Y-82108003D01*
X147024605Y-83185000D01*
X146665395Y-83185000D01*
X145588398Y-82108003D01*
X145306611Y-82224275D01*
X145148743Y-82542860D01*
X145056062Y-82886122D01*
X145032127Y-83240869D01*
X132448067Y-83240869D01*
X132347537Y-82998169D01*
X132157663Y-82714002D01*
X131915998Y-82472337D01*
X131631831Y-82282463D01*
X131316081Y-82151675D01*
X130980883Y-82085000D01*
X130639117Y-82085000D01*
X130303919Y-82151675D01*
X129988169Y-82282463D01*
X129704002Y-82472337D01*
X129462337Y-82714002D01*
X129272463Y-82998169D01*
X129141675Y-83313919D01*
X129075000Y-83649117D01*
X129075000Y-83990883D01*
X129141675Y-84326081D01*
X129272463Y-84641831D01*
X129274529Y-84644923D01*
X128397000Y-83767394D01*
X128397000Y-81928398D01*
X145768003Y-81928398D01*
X146845000Y-83005395D01*
X147921997Y-81928398D01*
X147805725Y-81646611D01*
X147487140Y-81488743D01*
X147143878Y-81396062D01*
X146789131Y-81372127D01*
X146436530Y-81417861D01*
X146099627Y-81531505D01*
X145884275Y-81646611D01*
X145768003Y-81928398D01*
X128397000Y-81928398D01*
X128397000Y-68007223D01*
X150040000Y-68007223D01*
X150040000Y-68362777D01*
X150109365Y-68711499D01*
X150245429Y-69039988D01*
X150442965Y-69335621D01*
X150694379Y-69587035D01*
X150990012Y-69784571D01*
X151318501Y-69920635D01*
X151667223Y-69990000D01*
X152022777Y-69990000D01*
X152371499Y-69920635D01*
X152699988Y-69784571D01*
X152995621Y-69587035D01*
X153247035Y-69335621D01*
X153444571Y-69039988D01*
X153580635Y-68711499D01*
X153650000Y-68362777D01*
X153650000Y-68007223D01*
X153580635Y-67658501D01*
X153444571Y-67330012D01*
X153247035Y-67034379D01*
X152995621Y-66782965D01*
X152699988Y-66585429D01*
X152371499Y-66449365D01*
X152022777Y-66380000D01*
X151667223Y-66380000D01*
X151318501Y-66449365D01*
X150990012Y-66585429D01*
X150694379Y-66782965D01*
X150442965Y-67034379D01*
X150245429Y-67330012D01*
X150109365Y-67658501D01*
X150040000Y-68007223D01*
X128397000Y-68007223D01*
X128397000Y-57753039D01*
X146944096Y-57753039D01*
X146984754Y-57887087D01*
X147104963Y-58141420D01*
X147272481Y-58367414D01*
X147480869Y-58556385D01*
X147722119Y-58701070D01*
X147986960Y-58795909D01*
X148209000Y-58674624D01*
X148209000Y-57531000D01*
X148463000Y-57531000D01*
X148463000Y-58674624D01*
X148685040Y-58795909D01*
X148949881Y-58701070D01*
X149191131Y-58556385D01*
X149399519Y-58367414D01*
X149567037Y-58141420D01*
X149687246Y-57887087D01*
X149727904Y-57753039D01*
X149605915Y-57531000D01*
X148463000Y-57531000D01*
X148209000Y-57531000D01*
X147066085Y-57531000D01*
X146944096Y-57753039D01*
X128397000Y-57753039D01*
X128397000Y-57054961D01*
X146944096Y-57054961D01*
X147066085Y-57277000D01*
X148209000Y-57277000D01*
X148209000Y-56133376D01*
X148463000Y-56133376D01*
X148463000Y-57277000D01*
X149605915Y-57277000D01*
X149727904Y-57054961D01*
X149687246Y-56920913D01*
X149567037Y-56666580D01*
X149399519Y-56440586D01*
X149191131Y-56251615D01*
X148949881Y-56106930D01*
X148685040Y-56012091D01*
X148463000Y-56133376D01*
X148209000Y-56133376D01*
X147986960Y-56012091D01*
X147722119Y-56106930D01*
X147480869Y-56251615D01*
X147272481Y-56440586D01*
X147104963Y-56666580D01*
X146984754Y-56920913D01*
X146944096Y-57054961D01*
X128397000Y-57054961D01*
X128397000Y-53689039D01*
X146944096Y-53689039D01*
X146984754Y-53823087D01*
X147104963Y-54077420D01*
X147272481Y-54303414D01*
X147480869Y-54492385D01*
X147722119Y-54637070D01*
X147986960Y-54731909D01*
X148209000Y-54610624D01*
X148209000Y-53467000D01*
X148463000Y-53467000D01*
X148463000Y-54610624D01*
X148685040Y-54731909D01*
X148949881Y-54637070D01*
X149191131Y-54492385D01*
X149399519Y-54303414D01*
X149567037Y-54077420D01*
X149687246Y-53823087D01*
X149727904Y-53689039D01*
X149605915Y-53467000D01*
X148463000Y-53467000D01*
X148209000Y-53467000D01*
X147066085Y-53467000D01*
X146944096Y-53689039D01*
X128397000Y-53689039D01*
X128397000Y-52990961D01*
X146944096Y-52990961D01*
X147066085Y-53213000D01*
X148209000Y-53213000D01*
X148209000Y-52069376D01*
X148463000Y-52069376D01*
X148463000Y-53213000D01*
X149605915Y-53213000D01*
X149613790Y-53198665D01*
X154521000Y-53198665D01*
X154521000Y-53481335D01*
X154576147Y-53758574D01*
X154684320Y-54019727D01*
X154841363Y-54254759D01*
X155041241Y-54454637D01*
X155276273Y-54611680D01*
X155537426Y-54719853D01*
X155814665Y-54775000D01*
X156097335Y-54775000D01*
X156374574Y-54719853D01*
X156635727Y-54611680D01*
X156870759Y-54454637D01*
X157070637Y-54254759D01*
X157227680Y-54019727D01*
X157335853Y-53758574D01*
X157391000Y-53481335D01*
X157391000Y-53198665D01*
X157335853Y-52921426D01*
X157227680Y-52660273D01*
X157070637Y-52425241D01*
X156870759Y-52225363D01*
X156635727Y-52068320D01*
X156374574Y-51960147D01*
X156097335Y-51905000D01*
X155814665Y-51905000D01*
X155537426Y-51960147D01*
X155276273Y-52068320D01*
X155041241Y-52225363D01*
X154841363Y-52425241D01*
X154684320Y-52660273D01*
X154576147Y-52921426D01*
X154521000Y-53198665D01*
X149613790Y-53198665D01*
X149727904Y-52990961D01*
X149687246Y-52856913D01*
X149567037Y-52602580D01*
X149399519Y-52376586D01*
X149191131Y-52187615D01*
X148949881Y-52042930D01*
X148685040Y-51948091D01*
X148463000Y-52069376D01*
X148209000Y-52069376D01*
X147986960Y-51948091D01*
X147722119Y-52042930D01*
X147480869Y-52187615D01*
X147272481Y-52376586D01*
X147104963Y-52602580D01*
X146984754Y-52856913D01*
X146944096Y-52990961D01*
X128397000Y-52990961D01*
X128397000Y-49625039D01*
X146944096Y-49625039D01*
X146984754Y-49759087D01*
X147104963Y-50013420D01*
X147272481Y-50239414D01*
X147480869Y-50428385D01*
X147722119Y-50573070D01*
X147986960Y-50667909D01*
X148209000Y-50546624D01*
X148209000Y-49403000D01*
X148463000Y-49403000D01*
X148463000Y-50546624D01*
X148685040Y-50667909D01*
X148949881Y-50573070D01*
X149191131Y-50428385D01*
X149399519Y-50239414D01*
X149567037Y-50013420D01*
X149687246Y-49759087D01*
X149727904Y-49625039D01*
X149605915Y-49403000D01*
X148463000Y-49403000D01*
X148209000Y-49403000D01*
X147066085Y-49403000D01*
X146944096Y-49625039D01*
X128397000Y-49625039D01*
X128397000Y-48926961D01*
X146944096Y-48926961D01*
X147066085Y-49149000D01*
X148209000Y-49149000D01*
X148209000Y-48005376D01*
X148463000Y-48005376D01*
X148463000Y-49149000D01*
X149605915Y-49149000D01*
X149613790Y-49134665D01*
X154521000Y-49134665D01*
X154521000Y-49417335D01*
X154576147Y-49694574D01*
X154684320Y-49955727D01*
X154841363Y-50190759D01*
X155041241Y-50390637D01*
X155276273Y-50547680D01*
X155537426Y-50655853D01*
X155814665Y-50711000D01*
X156097335Y-50711000D01*
X156374574Y-50655853D01*
X156635727Y-50547680D01*
X156870759Y-50390637D01*
X157070637Y-50190759D01*
X157227680Y-49955727D01*
X157335853Y-49694574D01*
X157349684Y-49625039D01*
X157612096Y-49625039D01*
X157652754Y-49759087D01*
X157772963Y-50013420D01*
X157940481Y-50239414D01*
X158148869Y-50428385D01*
X158390119Y-50573070D01*
X158654960Y-50667909D01*
X158877000Y-50546624D01*
X158877000Y-49403000D01*
X159131000Y-49403000D01*
X159131000Y-50546624D01*
X159353040Y-50667909D01*
X159617881Y-50573070D01*
X159859131Y-50428385D01*
X160067519Y-50239414D01*
X160235037Y-50013420D01*
X160355246Y-49759087D01*
X160395904Y-49625039D01*
X160273915Y-49403000D01*
X159131000Y-49403000D01*
X158877000Y-49403000D01*
X157734085Y-49403000D01*
X157612096Y-49625039D01*
X157349684Y-49625039D01*
X157391000Y-49417335D01*
X157391000Y-49134665D01*
X157349685Y-48926961D01*
X157612096Y-48926961D01*
X157734085Y-49149000D01*
X158877000Y-49149000D01*
X158877000Y-48005376D01*
X159131000Y-48005376D01*
X159131000Y-49149000D01*
X160273915Y-49149000D01*
X160395904Y-48926961D01*
X160355246Y-48792913D01*
X160235037Y-48538580D01*
X160067519Y-48312586D01*
X159859131Y-48123615D01*
X159617881Y-47978930D01*
X159353040Y-47884091D01*
X159131000Y-48005376D01*
X158877000Y-48005376D01*
X158654960Y-47884091D01*
X158390119Y-47978930D01*
X158148869Y-48123615D01*
X157940481Y-48312586D01*
X157772963Y-48538580D01*
X157652754Y-48792913D01*
X157612096Y-48926961D01*
X157349685Y-48926961D01*
X157335853Y-48857426D01*
X157227680Y-48596273D01*
X157070637Y-48361241D01*
X156870759Y-48161363D01*
X156635727Y-48004320D01*
X156374574Y-47896147D01*
X156097335Y-47841000D01*
X155814665Y-47841000D01*
X155537426Y-47896147D01*
X155276273Y-48004320D01*
X155041241Y-48161363D01*
X154841363Y-48361241D01*
X154684320Y-48596273D01*
X154576147Y-48857426D01*
X154521000Y-49134665D01*
X149613790Y-49134665D01*
X149727904Y-48926961D01*
X149687246Y-48792913D01*
X149567037Y-48538580D01*
X149399519Y-48312586D01*
X149191131Y-48123615D01*
X148949881Y-47978930D01*
X148685040Y-47884091D01*
X148463000Y-48005376D01*
X148209000Y-48005376D01*
X147986960Y-47884091D01*
X147722119Y-47978930D01*
X147480869Y-48123615D01*
X147272481Y-48312586D01*
X147104963Y-48538580D01*
X146984754Y-48792913D01*
X146944096Y-48926961D01*
X128397000Y-48926961D01*
X128397000Y-33490000D01*
X143976928Y-33490000D01*
X143976928Y-35090000D01*
X143989188Y-35214482D01*
X144025498Y-35334180D01*
X144084463Y-35444494D01*
X144163815Y-35541185D01*
X144260506Y-35620537D01*
X144370820Y-35679502D01*
X144490518Y-35715812D01*
X144615000Y-35728072D01*
X146215000Y-35728072D01*
X146339482Y-35715812D01*
X146459180Y-35679502D01*
X146569494Y-35620537D01*
X146666185Y-35541185D01*
X146745537Y-35444494D01*
X146804502Y-35334180D01*
X146840812Y-35214482D01*
X146853072Y-35090000D01*
X146853072Y-33490000D01*
X146840812Y-33365518D01*
X146804502Y-33245820D01*
X146745537Y-33135506D01*
X146666185Y-33038815D01*
X146643259Y-33020000D01*
X167633461Y-33020000D01*
X167679510Y-33487542D01*
X167815887Y-33937116D01*
X168037351Y-34351446D01*
X168335391Y-34714609D01*
X168698554Y-35012649D01*
X169112884Y-35234113D01*
X169562458Y-35370490D01*
X169912843Y-35405000D01*
X170147157Y-35405000D01*
X170497542Y-35370490D01*
X170947116Y-35234113D01*
X171361446Y-35012649D01*
X171718040Y-34720000D01*
X185148843Y-34720000D01*
X185173412Y-34969454D01*
X185246175Y-35209321D01*
X185322202Y-35351558D01*
X185259463Y-35428006D01*
X185200498Y-35538320D01*
X185164188Y-35658018D01*
X185151928Y-35782500D01*
X185151928Y-37057500D01*
X185164188Y-37181982D01*
X185200498Y-37301680D01*
X185259463Y-37411994D01*
X185338815Y-37508685D01*
X185435506Y-37588037D01*
X185545820Y-37647002D01*
X185665518Y-37683312D01*
X185790000Y-37695572D01*
X187590000Y-37695572D01*
X187714482Y-37683312D01*
X187834180Y-37647002D01*
X187944494Y-37588037D01*
X188041185Y-37508685D01*
X188120537Y-37411994D01*
X188179502Y-37301680D01*
X188215812Y-37181982D01*
X188228072Y-37057500D01*
X188228072Y-35782500D01*
X188215812Y-35658018D01*
X188179502Y-35538320D01*
X188120537Y-35428006D01*
X188057798Y-35351558D01*
X188133825Y-35209321D01*
X188206588Y-34969454D01*
X188231157Y-34720000D01*
X188206588Y-34470546D01*
X188133825Y-34230679D01*
X188015664Y-34009616D01*
X187901583Y-33870608D01*
X187942095Y-33829991D01*
X188081102Y-33621367D01*
X188176737Y-33389633D01*
X188183191Y-33343505D01*
X188058985Y-33147000D01*
X186817000Y-33147000D01*
X186817000Y-33167000D01*
X186563000Y-33167000D01*
X186563000Y-33147000D01*
X185321015Y-33147000D01*
X185196809Y-33343505D01*
X185203263Y-33389633D01*
X185298898Y-33621367D01*
X185437905Y-33829991D01*
X185478417Y-33870608D01*
X185364336Y-34009616D01*
X185246175Y-34230679D01*
X185173412Y-34470546D01*
X185148843Y-34720000D01*
X171718040Y-34720000D01*
X171724609Y-34714609D01*
X172022649Y-34351446D01*
X172244113Y-33937116D01*
X172380490Y-33487542D01*
X172426539Y-33020000D01*
X172380490Y-32552458D01*
X172244113Y-32102884D01*
X172022649Y-31688554D01*
X171724609Y-31325391D01*
X171361446Y-31027351D01*
X170947116Y-30805887D01*
X170497542Y-30669510D01*
X170147157Y-30635000D01*
X169912843Y-30635000D01*
X169562458Y-30669510D01*
X169112884Y-30805887D01*
X168698554Y-31027351D01*
X168335391Y-31325391D01*
X168037351Y-31688554D01*
X167815887Y-32102884D01*
X167679510Y-32552458D01*
X167633461Y-33020000D01*
X146643259Y-33020000D01*
X146569494Y-32959463D01*
X146459180Y-32900498D01*
X146339482Y-32864188D01*
X146215000Y-32851928D01*
X146207785Y-32851928D01*
X146228097Y-32782702D01*
X145415000Y-31969605D01*
X144601903Y-32782702D01*
X144622215Y-32851928D01*
X144615000Y-32851928D01*
X144490518Y-32864188D01*
X144370820Y-32900498D01*
X144260506Y-32959463D01*
X144163815Y-33038815D01*
X144084463Y-33135506D01*
X144025498Y-33245820D01*
X143989188Y-33365518D01*
X143976928Y-33490000D01*
X128397000Y-33490000D01*
X128397000Y-31860512D01*
X143974783Y-31860512D01*
X144016213Y-32140130D01*
X144111397Y-32406292D01*
X144178329Y-32531514D01*
X144422298Y-32603097D01*
X145235395Y-31790000D01*
X145594605Y-31790000D01*
X146407702Y-32603097D01*
X146651671Y-32531514D01*
X146772571Y-32276004D01*
X146841300Y-32001816D01*
X146855217Y-31719488D01*
X146813787Y-31439870D01*
X146718603Y-31173708D01*
X146651671Y-31048486D01*
X146407702Y-30976903D01*
X145594605Y-31790000D01*
X145235395Y-31790000D01*
X144422298Y-30976903D01*
X144178329Y-31048486D01*
X144057429Y-31303996D01*
X143988700Y-31578184D01*
X143974783Y-31860512D01*
X128397000Y-31860512D01*
X128397000Y-29039117D01*
X129075000Y-29039117D01*
X129075000Y-29380883D01*
X129141675Y-29716081D01*
X129272463Y-30031831D01*
X129462337Y-30315998D01*
X129704002Y-30557663D01*
X129988169Y-30747537D01*
X130303919Y-30878325D01*
X130639117Y-30945000D01*
X130980883Y-30945000D01*
X131316081Y-30878325D01*
X131511697Y-30797298D01*
X144601903Y-30797298D01*
X145415000Y-31610395D01*
X146228097Y-30797298D01*
X146156514Y-30553329D01*
X145901004Y-30432429D01*
X145626816Y-30363700D01*
X145344488Y-30349783D01*
X145064870Y-30391213D01*
X144798708Y-30486397D01*
X144673486Y-30553329D01*
X144601903Y-30797298D01*
X131511697Y-30797298D01*
X131631831Y-30747537D01*
X131915998Y-30557663D01*
X132157663Y-30315998D01*
X132347537Y-30031831D01*
X132478325Y-29716081D01*
X132545000Y-29380883D01*
X132545000Y-29039117D01*
X132478325Y-28703919D01*
X132347537Y-28388169D01*
X132157663Y-28104002D01*
X131915998Y-27862337D01*
X131631831Y-27672463D01*
X131316081Y-27541675D01*
X130980883Y-27475000D01*
X130639117Y-27475000D01*
X130303919Y-27541675D01*
X129988169Y-27672463D01*
X129704002Y-27862337D01*
X129462337Y-28104002D01*
X129272463Y-28388169D01*
X129141675Y-28703919D01*
X129075000Y-29039117D01*
X128397000Y-29039117D01*
X128397000Y-28500606D01*
X130100606Y-26797000D01*
X159688199Y-26797000D01*
X159075906Y-27409293D01*
X159075906Y-27409293D01*
G37*
X159075906Y-27409293D02*
X159031308Y-27395764D01*
X158750000Y-27368057D01*
X158468691Y-27395764D01*
X158198192Y-27477818D01*
X157948899Y-27611068D01*
X157730392Y-27790393D01*
X157551068Y-28008900D01*
X157480000Y-28141858D01*
X157408932Y-28008899D01*
X157229607Y-27790392D01*
X157011100Y-27611068D01*
X156761807Y-27477818D01*
X156491308Y-27395764D01*
X156210000Y-27368057D01*
X155928691Y-27395764D01*
X155658192Y-27477818D01*
X155408899Y-27611068D01*
X155190392Y-27790393D01*
X155011068Y-28008900D01*
X154940000Y-28141858D01*
X154868932Y-28008899D01*
X154689607Y-27790392D01*
X154471100Y-27611068D01*
X154221807Y-27477818D01*
X153951308Y-27395764D01*
X153670000Y-27368057D01*
X153388691Y-27395764D01*
X153118192Y-27477818D01*
X152868899Y-27611068D01*
X152650392Y-27790393D01*
X152471068Y-28008900D01*
X152337818Y-28258193D01*
X152255764Y-28528692D01*
X152235000Y-28739509D01*
X152235000Y-29680492D01*
X152255764Y-29891309D01*
X152337818Y-30161808D01*
X152471068Y-30411101D01*
X152650393Y-30629608D01*
X152868900Y-30808932D01*
X153118193Y-30942182D01*
X153388692Y-31024236D01*
X153670000Y-31051943D01*
X153951309Y-31024236D01*
X154221808Y-30942182D01*
X154471101Y-30808932D01*
X154689608Y-30629608D01*
X154868932Y-30411101D01*
X154940000Y-30278142D01*
X155011068Y-30411101D01*
X155190393Y-30629608D01*
X155408900Y-30808932D01*
X155658193Y-30942182D01*
X155928692Y-31024236D01*
X156210000Y-31051943D01*
X156491309Y-31024236D01*
X156761808Y-30942182D01*
X157011101Y-30808932D01*
X157229608Y-30629608D01*
X157408932Y-30411101D01*
X157480000Y-30278142D01*
X157551068Y-30411101D01*
X157730393Y-30629608D01*
X157948900Y-30808932D01*
X158198193Y-30942182D01*
X158468692Y-31024236D01*
X158750000Y-31051943D01*
X159031309Y-31024236D01*
X159301808Y-30942182D01*
X159551101Y-30808932D01*
X159769608Y-30629608D01*
X159948932Y-30411101D01*
X160020000Y-30278142D01*
X160091068Y-30411101D01*
X160270393Y-30629608D01*
X160488900Y-30808932D01*
X160738193Y-30942182D01*
X161008692Y-31024236D01*
X161290000Y-31051943D01*
X161571309Y-31024236D01*
X161841808Y-30942182D01*
X162091101Y-30808932D01*
X162309608Y-30629608D01*
X162488932Y-30411101D01*
X162622182Y-30161808D01*
X162704236Y-29891309D01*
X162725000Y-29680491D01*
X162725000Y-29620000D01*
X185148843Y-29620000D01*
X185173412Y-29869454D01*
X185246175Y-30109321D01*
X185364336Y-30330384D01*
X185478916Y-30470000D01*
X185364336Y-30609616D01*
X185246175Y-30830679D01*
X185173412Y-31070546D01*
X185148843Y-31320000D01*
X185173412Y-31569454D01*
X185246175Y-31809321D01*
X185364336Y-32030384D01*
X185478417Y-32169392D01*
X185437905Y-32210009D01*
X185298898Y-32418633D01*
X185203263Y-32650367D01*
X185196809Y-32696495D01*
X185321015Y-32893000D01*
X186563000Y-32893000D01*
X186563000Y-32873000D01*
X186817000Y-32873000D01*
X186817000Y-32893000D01*
X188058985Y-32893000D01*
X188183191Y-32696495D01*
X188176737Y-32650367D01*
X188081102Y-32418633D01*
X187942095Y-32210009D01*
X187901583Y-32169392D01*
X188015664Y-32030384D01*
X188133825Y-31809321D01*
X188206588Y-31569454D01*
X188231157Y-31320000D01*
X188206588Y-31070546D01*
X188133825Y-30830679D01*
X188015664Y-30609616D01*
X187901084Y-30470000D01*
X188015664Y-30330384D01*
X188133825Y-30109321D01*
X188206588Y-29869454D01*
X188231157Y-29620000D01*
X188206588Y-29370546D01*
X188133825Y-29130679D01*
X188015664Y-28909616D01*
X187856647Y-28715853D01*
X187662884Y-28556836D01*
X187441821Y-28438675D01*
X187201954Y-28365912D01*
X187015013Y-28347500D01*
X186364987Y-28347500D01*
X186178046Y-28365912D01*
X185938179Y-28438675D01*
X185717116Y-28556836D01*
X185523353Y-28715853D01*
X185364336Y-28909616D01*
X185246175Y-29130679D01*
X185173412Y-29370546D01*
X185148843Y-29620000D01*
X162725000Y-29620000D01*
X162725000Y-28739508D01*
X162704236Y-28528691D01*
X162622182Y-28258192D01*
X162488932Y-28008899D01*
X162309607Y-27790392D01*
X162091100Y-27611068D01*
X161841807Y-27477818D01*
X161684170Y-27430000D01*
X192725199Y-27430000D01*
X193070199Y-27775000D01*
X192898665Y-27775000D01*
X192621426Y-27830147D01*
X192360273Y-27938320D01*
X192125241Y-28095363D01*
X191925363Y-28295241D01*
X191768320Y-28530273D01*
X191660147Y-28791426D01*
X191605000Y-29068665D01*
X191605000Y-29351335D01*
X191660147Y-29628574D01*
X191768320Y-29889727D01*
X191925363Y-30124759D01*
X192125241Y-30324637D01*
X192360273Y-30481680D01*
X192621426Y-30589853D01*
X192898665Y-30645000D01*
X193181335Y-30645000D01*
X193458574Y-30589853D01*
X193719727Y-30481680D01*
X193954759Y-30324637D01*
X194154637Y-30124759D01*
X194185001Y-30079317D01*
X194185000Y-31952675D01*
X194181324Y-31989998D01*
X194185000Y-32027320D01*
X194185000Y-32027330D01*
X194195997Y-32138983D01*
X194237561Y-32276004D01*
X194239454Y-32282244D01*
X194310026Y-32414274D01*
X194349871Y-32462824D01*
X194404999Y-32529999D01*
X194434003Y-32553802D01*
X197444261Y-35564061D01*
X197318899Y-35631068D01*
X197100392Y-35810392D01*
X196921068Y-36028899D01*
X196787818Y-36278192D01*
X196705764Y-36548691D01*
X196678057Y-36830000D01*
X196705764Y-37111309D01*
X196787818Y-37381808D01*
X196921068Y-37631101D01*
X197100392Y-37849608D01*
X197318899Y-38028932D01*
X197568192Y-38162182D01*
X197838691Y-38244236D01*
X198049508Y-38265000D01*
X198190492Y-38265000D01*
X198401309Y-38244236D01*
X198671808Y-38162182D01*
X198921101Y-38028932D01*
X199139608Y-37849608D01*
X199291375Y-37664680D01*
X199297027Y-37683312D01*
X199319454Y-37757246D01*
X199390026Y-37889276D01*
X199417084Y-37922246D01*
X199484999Y-38005001D01*
X199514003Y-38028804D01*
X200731200Y-39246002D01*
X200754999Y-39275001D01*
X200870724Y-39369974D01*
X201002753Y-39440546D01*
X201146014Y-39484003D01*
X201257667Y-39495000D01*
X201257676Y-39495000D01*
X201294999Y-39498676D01*
X201332322Y-39495000D01*
X205805201Y-39495000D01*
X208002128Y-41691928D01*
X207430000Y-41691928D01*
X207305518Y-41704188D01*
X207185820Y-41740498D01*
X207075506Y-41799463D01*
X206978815Y-41878815D01*
X206899463Y-41975506D01*
X206840498Y-42085820D01*
X206819607Y-42154687D01*
X206795134Y-42124866D01*
X206569014Y-41939294D01*
X206311034Y-41801401D01*
X206031111Y-41716487D01*
X205812950Y-41695000D01*
X205667050Y-41695000D01*
X205448889Y-41716487D01*
X205168966Y-41801401D01*
X204910986Y-41939294D01*
X204684866Y-42124866D01*
X204499294Y-42350986D01*
X204361401Y-42608966D01*
X204276487Y-42888889D01*
X204247815Y-43180000D01*
X204276487Y-43471111D01*
X204361401Y-43751034D01*
X204499294Y-44009014D01*
X204684866Y-44235134D01*
X204910986Y-44420706D01*
X204965791Y-44450000D01*
X204910986Y-44479294D01*
X204684866Y-44664866D01*
X204499294Y-44890986D01*
X204470000Y-44945791D01*
X204440706Y-44890986D01*
X204255134Y-44664866D01*
X204029014Y-44479294D01*
X203960000Y-44442405D01*
X203960000Y-43217322D01*
X203963676Y-43179999D01*
X203960000Y-43142676D01*
X203960000Y-43142667D01*
X203949003Y-43031014D01*
X203905546Y-42887753D01*
X203834974Y-42755723D01*
X203763799Y-42668997D01*
X203740001Y-42639999D01*
X203711004Y-42616202D01*
X200588804Y-39494003D01*
X200565001Y-39464999D01*
X200449276Y-39370026D01*
X200317247Y-39299454D01*
X200173986Y-39255997D01*
X200062333Y-39245000D01*
X200062322Y-39245000D01*
X200025000Y-39241324D01*
X199987678Y-39245000D01*
X198434802Y-39245000D01*
X196308803Y-37119002D01*
X196285000Y-37089998D01*
X196169275Y-36995025D01*
X196037246Y-36924453D01*
X195893985Y-36880996D01*
X195782332Y-36869999D01*
X195782321Y-36869999D01*
X195744999Y-36866323D01*
X195707677Y-36869999D01*
X194478003Y-36869999D01*
X194481943Y-36830000D01*
X194454236Y-36548691D01*
X194372182Y-36278192D01*
X194238932Y-36028899D01*
X194059608Y-35810392D01*
X193841101Y-35631068D01*
X193591808Y-35497818D01*
X193321309Y-35415764D01*
X193110492Y-35395000D01*
X192969508Y-35395000D01*
X192758691Y-35415764D01*
X192488192Y-35497818D01*
X192238899Y-35631068D01*
X192020392Y-35810392D01*
X191841068Y-36028899D01*
X191707818Y-36278192D01*
X191625764Y-36548691D01*
X191598057Y-36830000D01*
X191625764Y-37111309D01*
X191707818Y-37381808D01*
X191841068Y-37631101D01*
X192020392Y-37849608D01*
X192238899Y-38028932D01*
X192488192Y-38162182D01*
X192758691Y-38244236D01*
X192969508Y-38265000D01*
X193110492Y-38265000D01*
X193321309Y-38244236D01*
X193371794Y-38228922D01*
X193415723Y-38264973D01*
X193547752Y-38335545D01*
X193691013Y-38379002D01*
X193802666Y-38389999D01*
X193802675Y-38389999D01*
X193839998Y-38393675D01*
X193877321Y-38389999D01*
X193940446Y-38389999D01*
X193910000Y-38543061D01*
X193910000Y-38746939D01*
X193949774Y-38946898D01*
X194027795Y-39135256D01*
X194141063Y-39304774D01*
X194285226Y-39448937D01*
X194454744Y-39562205D01*
X194643102Y-39640226D01*
X194695934Y-39650735D01*
X196450000Y-41404803D01*
X196450000Y-41466939D01*
X196489774Y-41666898D01*
X196567795Y-41855256D01*
X196681063Y-42024774D01*
X196825226Y-42168937D01*
X196956637Y-42256743D01*
X196879294Y-42350986D01*
X196850000Y-42405791D01*
X196820706Y-42350986D01*
X196635134Y-42124866D01*
X196409014Y-41939294D01*
X196151034Y-41801401D01*
X195871111Y-41716487D01*
X195652950Y-41695000D01*
X195507050Y-41695000D01*
X195288889Y-41716487D01*
X195008966Y-41801401D01*
X194750986Y-41939294D01*
X194524866Y-42124866D01*
X194339294Y-42350986D01*
X194310000Y-42405791D01*
X194280706Y-42350986D01*
X194095134Y-42124866D01*
X193869014Y-41939294D01*
X193611034Y-41801401D01*
X193331111Y-41716487D01*
X193112950Y-41695000D01*
X192967050Y-41695000D01*
X192748889Y-41716487D01*
X192468966Y-41801401D01*
X192210986Y-41939294D01*
X191984866Y-42124866D01*
X191799294Y-42350986D01*
X191770000Y-42405791D01*
X191740706Y-42350986D01*
X191555134Y-42124866D01*
X191329014Y-41939294D01*
X191071034Y-41801401D01*
X190791111Y-41716487D01*
X190572950Y-41695000D01*
X190427050Y-41695000D01*
X190208889Y-41716487D01*
X189928966Y-41801401D01*
X189670986Y-41939294D01*
X189444866Y-42124866D01*
X189259294Y-42350986D01*
X189230000Y-42405791D01*
X189200706Y-42350986D01*
X189015134Y-42124866D01*
X188789014Y-41939294D01*
X188531034Y-41801401D01*
X188251111Y-41716487D01*
X188032950Y-41695000D01*
X187887050Y-41695000D01*
X187668889Y-41716487D01*
X187388966Y-41801401D01*
X187130986Y-41939294D01*
X186904866Y-42124866D01*
X186719294Y-42350986D01*
X186690000Y-42405791D01*
X186660706Y-42350986D01*
X186475134Y-42124866D01*
X186249014Y-41939294D01*
X185991034Y-41801401D01*
X185711111Y-41716487D01*
X185492950Y-41695000D01*
X185347050Y-41695000D01*
X185128889Y-41716487D01*
X184848966Y-41801401D01*
X184590986Y-41939294D01*
X184364866Y-42124866D01*
X184179294Y-42350986D01*
X184041401Y-42608966D01*
X183956487Y-42888889D01*
X183927815Y-43180000D01*
X183956487Y-43471111D01*
X184041401Y-43751034D01*
X184179294Y-44009014D01*
X184364866Y-44235134D01*
X184590986Y-44420706D01*
X184645791Y-44450000D01*
X184590986Y-44479294D01*
X184364866Y-44664866D01*
X184179294Y-44890986D01*
X184150000Y-44945791D01*
X184120706Y-44890986D01*
X183935134Y-44664866D01*
X183709014Y-44479294D01*
X183451034Y-44341401D01*
X183171111Y-44256487D01*
X182952950Y-44235000D01*
X182807050Y-44235000D01*
X182588889Y-44256487D01*
X182308966Y-44341401D01*
X182050986Y-44479294D01*
X181824866Y-44664866D01*
X181639294Y-44890986D01*
X181610000Y-44945791D01*
X181580706Y-44890986D01*
X181395134Y-44664866D01*
X181169014Y-44479294D01*
X180911034Y-44341401D01*
X180631111Y-44256487D01*
X180412950Y-44235000D01*
X180267050Y-44235000D01*
X180048889Y-44256487D01*
X179768966Y-44341401D01*
X179510986Y-44479294D01*
X179284866Y-44664866D01*
X179099294Y-44890986D01*
X179070000Y-44945791D01*
X179040706Y-44890986D01*
X178855134Y-44664866D01*
X178825313Y-44640393D01*
X178894180Y-44619502D01*
X179004494Y-44560537D01*
X179101185Y-44481185D01*
X179180537Y-44384494D01*
X179239502Y-44274180D01*
X179275812Y-44154482D01*
X179288072Y-44030000D01*
X179288072Y-42330000D01*
X179275812Y-42205518D01*
X179239502Y-42085820D01*
X179180537Y-41975506D01*
X179101185Y-41878815D01*
X179004494Y-41799463D01*
X178894180Y-41740498D01*
X178774482Y-41704188D01*
X178650000Y-41691928D01*
X176950000Y-41691928D01*
X176825518Y-41704188D01*
X176705820Y-41740498D01*
X176595506Y-41799463D01*
X176498815Y-41878815D01*
X176419463Y-41975506D01*
X176360498Y-42085820D01*
X176324188Y-42205518D01*
X176311928Y-42330000D01*
X176311928Y-44030000D01*
X176324188Y-44154482D01*
X176360498Y-44274180D01*
X176419463Y-44384494D01*
X176498815Y-44481185D01*
X176595506Y-44560537D01*
X176705820Y-44619502D01*
X176774687Y-44640393D01*
X176744866Y-44664866D01*
X176559294Y-44890986D01*
X176530000Y-44945791D01*
X176500706Y-44890986D01*
X176315134Y-44664866D01*
X176089014Y-44479294D01*
X176020000Y-44442405D01*
X176020000Y-40677322D01*
X176023676Y-40639999D01*
X176020000Y-40602676D01*
X176020000Y-40602667D01*
X176009003Y-40491014D01*
X175965546Y-40347753D01*
X175894974Y-40215724D01*
X175800001Y-40099999D01*
X175771004Y-40076202D01*
X174553804Y-38859003D01*
X174530001Y-38829999D01*
X174414276Y-38735026D01*
X174282247Y-38664454D01*
X174138986Y-38620997D01*
X174027333Y-38610000D01*
X174027322Y-38610000D01*
X173990000Y-38606324D01*
X173952678Y-38610000D01*
X161695229Y-38610000D01*
X161721818Y-38604367D01*
X161981646Y-38493715D01*
X162214895Y-38334500D01*
X162412601Y-38132839D01*
X162567166Y-37896483D01*
X162672650Y-37634514D01*
X162725000Y-37357000D01*
X162725000Y-36957000D01*
X161417000Y-36957000D01*
X161417000Y-36977000D01*
X161163000Y-36977000D01*
X161163000Y-36957000D01*
X161143000Y-36957000D01*
X161143000Y-36703000D01*
X161163000Y-36703000D01*
X161163000Y-35160085D01*
X161417000Y-35160085D01*
X161417000Y-36703000D01*
X162725000Y-36703000D01*
X162725000Y-36303000D01*
X162672650Y-36025486D01*
X162567166Y-35763517D01*
X162412601Y-35527161D01*
X162214895Y-35325500D01*
X161981646Y-35166285D01*
X161721818Y-35055633D01*
X161639039Y-35038096D01*
X161417000Y-35160085D01*
X161163000Y-35160085D01*
X160940961Y-35038096D01*
X160858182Y-35055633D01*
X160598354Y-35166285D01*
X160365105Y-35325500D01*
X160167399Y-35527161D01*
X160017265Y-35756741D01*
X159948932Y-35628899D01*
X159769607Y-35410392D01*
X159551100Y-35231068D01*
X159301807Y-35097818D01*
X159031308Y-35015764D01*
X158750000Y-34988057D01*
X158468691Y-35015764D01*
X158198192Y-35097818D01*
X157948899Y-35231068D01*
X157730392Y-35410393D01*
X157551068Y-35628900D01*
X157480000Y-35761858D01*
X157408932Y-35628899D01*
X157229607Y-35410392D01*
X157011100Y-35231068D01*
X156761807Y-35097818D01*
X156491308Y-35015764D01*
X156210000Y-34988057D01*
X155928691Y-35015764D01*
X155658192Y-35097818D01*
X155408899Y-35231068D01*
X155190392Y-35410393D01*
X155097581Y-35523483D01*
X155095812Y-35505518D01*
X155059502Y-35385820D01*
X155000537Y-35275506D01*
X154921185Y-35178815D01*
X154824494Y-35099463D01*
X154714180Y-35040498D01*
X154594482Y-35004188D01*
X154470000Y-34991928D01*
X152870000Y-34991928D01*
X152745518Y-35004188D01*
X152625820Y-35040498D01*
X152515506Y-35099463D01*
X152418815Y-35178815D01*
X152339463Y-35275506D01*
X152280498Y-35385820D01*
X152244188Y-35505518D01*
X152231928Y-35630000D01*
X152231928Y-38030000D01*
X152244188Y-38154482D01*
X152280498Y-38274180D01*
X152339463Y-38384494D01*
X152418815Y-38481185D01*
X152515506Y-38560537D01*
X152625820Y-38619502D01*
X152745518Y-38655812D01*
X152870000Y-38668072D01*
X154033271Y-38668072D01*
X155246200Y-39881002D01*
X155269999Y-39910001D01*
X155298997Y-39933799D01*
X155385723Y-40004974D01*
X155517753Y-40075546D01*
X155661014Y-40119003D01*
X155772667Y-40130000D01*
X155772676Y-40130000D01*
X155809999Y-40133676D01*
X155847322Y-40130000D01*
X173675199Y-40130000D01*
X174500000Y-40954802D01*
X174500001Y-44442405D01*
X174430986Y-44479294D01*
X174204866Y-44664866D01*
X174019294Y-44890986D01*
X173990000Y-44945791D01*
X173960706Y-44890986D01*
X173775134Y-44664866D01*
X173549014Y-44479294D01*
X173291034Y-44341401D01*
X173011111Y-44256487D01*
X172792950Y-44235000D01*
X172647050Y-44235000D01*
X172428889Y-44256487D01*
X172148966Y-44341401D01*
X171890986Y-44479294D01*
X171664866Y-44664866D01*
X171479294Y-44890986D01*
X171450000Y-44945791D01*
X171420706Y-44890986D01*
X171235134Y-44664866D01*
X171009014Y-44479294D01*
X170751034Y-44341401D01*
X170471111Y-44256487D01*
X170252950Y-44235000D01*
X170107050Y-44235000D01*
X169888889Y-44256487D01*
X169608966Y-44341401D01*
X169350986Y-44479294D01*
X169124866Y-44664866D01*
X168939294Y-44890986D01*
X168910000Y-44945791D01*
X168880706Y-44890986D01*
X168695134Y-44664866D01*
X168469014Y-44479294D01*
X168211034Y-44341401D01*
X167931111Y-44256487D01*
X167712950Y-44235000D01*
X167567050Y-44235000D01*
X167348889Y-44256487D01*
X167068966Y-44341401D01*
X166810986Y-44479294D01*
X166584866Y-44664866D01*
X166399294Y-44890986D01*
X166370000Y-44945791D01*
X166340706Y-44890986D01*
X166155134Y-44664866D01*
X165929014Y-44479294D01*
X165671034Y-44341401D01*
X165391111Y-44256487D01*
X165172950Y-44235000D01*
X165027050Y-44235000D01*
X164808889Y-44256487D01*
X164528966Y-44341401D01*
X164270986Y-44479294D01*
X164044866Y-44664866D01*
X163859294Y-44890986D01*
X163830000Y-44945791D01*
X163800706Y-44890986D01*
X163615134Y-44664866D01*
X163389014Y-44479294D01*
X163131034Y-44341401D01*
X162851111Y-44256487D01*
X162632950Y-44235000D01*
X162487050Y-44235000D01*
X162268889Y-44256487D01*
X161988966Y-44341401D01*
X161730986Y-44479294D01*
X161504866Y-44664866D01*
X161319294Y-44890986D01*
X161290000Y-44945791D01*
X161260706Y-44890986D01*
X161075134Y-44664866D01*
X160849014Y-44479294D01*
X160591034Y-44341401D01*
X160311111Y-44256487D01*
X160092950Y-44235000D01*
X159947050Y-44235000D01*
X159728889Y-44256487D01*
X159448966Y-44341401D01*
X159190986Y-44479294D01*
X158964866Y-44664866D01*
X158779294Y-44890986D01*
X158750000Y-44945791D01*
X158720706Y-44890986D01*
X158535134Y-44664866D01*
X158505313Y-44640393D01*
X158574180Y-44619502D01*
X158684494Y-44560537D01*
X158781185Y-44481185D01*
X158860537Y-44384494D01*
X158919502Y-44274180D01*
X158955812Y-44154482D01*
X158968072Y-44030000D01*
X158968072Y-42330000D01*
X158955812Y-42205518D01*
X158919502Y-42085820D01*
X158860537Y-41975506D01*
X158781185Y-41878815D01*
X158684494Y-41799463D01*
X158574180Y-41740498D01*
X158454482Y-41704188D01*
X158330000Y-41691928D01*
X156630000Y-41691928D01*
X156505518Y-41704188D01*
X156385820Y-41740498D01*
X156275506Y-41799463D01*
X156178815Y-41878815D01*
X156099463Y-41975506D01*
X156040498Y-42085820D01*
X156019607Y-42154687D01*
X155995134Y-42124866D01*
X155769014Y-41939294D01*
X155511034Y-41801401D01*
X155231111Y-41716487D01*
X155012950Y-41695000D01*
X154867050Y-41695000D01*
X154648889Y-41716487D01*
X154368966Y-41801401D01*
X154110986Y-41939294D01*
X153884866Y-42124866D01*
X153699294Y-42350986D01*
X153670000Y-42405791D01*
X153640706Y-42350986D01*
X153455134Y-42124866D01*
X153229014Y-41939294D01*
X152971034Y-41801401D01*
X152691111Y-41716487D01*
X152472950Y-41695000D01*
X152327050Y-41695000D01*
X152108889Y-41716487D01*
X151828966Y-41801401D01*
X151570986Y-41939294D01*
X151344866Y-42124866D01*
X151159294Y-42350986D01*
X151130000Y-42405791D01*
X151100706Y-42350986D01*
X150915134Y-42124866D01*
X150689014Y-41939294D01*
X150431034Y-41801401D01*
X150151111Y-41716487D01*
X149932950Y-41695000D01*
X149787050Y-41695000D01*
X149568889Y-41716487D01*
X149288966Y-41801401D01*
X149030986Y-41939294D01*
X148804866Y-42124866D01*
X148619294Y-42350986D01*
X148481401Y-42608966D01*
X148396487Y-42888889D01*
X148367815Y-43180000D01*
X148396487Y-43471111D01*
X148481401Y-43751034D01*
X148619294Y-44009014D01*
X148804866Y-44235134D01*
X148834687Y-44259607D01*
X148765820Y-44280498D01*
X148655506Y-44339463D01*
X148558815Y-44418815D01*
X148479463Y-44515506D01*
X148420498Y-44625820D01*
X148384188Y-44745518D01*
X148371928Y-44870000D01*
X148371928Y-46570000D01*
X148384188Y-46694482D01*
X148420498Y-46814180D01*
X148479463Y-46924494D01*
X148558815Y-47021185D01*
X148655506Y-47100537D01*
X148765820Y-47159502D01*
X148885518Y-47195812D01*
X149010000Y-47208072D01*
X150710000Y-47208072D01*
X150834482Y-47195812D01*
X150954180Y-47159502D01*
X151064494Y-47100537D01*
X151161185Y-47021185D01*
X151240537Y-46924494D01*
X151299502Y-46814180D01*
X151320393Y-46745313D01*
X151344866Y-46775134D01*
X151570986Y-46960706D01*
X151828966Y-47098599D01*
X152108889Y-47183513D01*
X152327050Y-47205000D01*
X152472950Y-47205000D01*
X152691111Y-47183513D01*
X152971034Y-47098599D01*
X153229014Y-46960706D01*
X153455134Y-46775134D01*
X153640706Y-46549014D01*
X153670000Y-46494209D01*
X153699294Y-46549014D01*
X153884866Y-46775134D01*
X154110986Y-46960706D01*
X154368966Y-47098599D01*
X154648889Y-47183513D01*
X154867050Y-47205000D01*
X155012950Y-47205000D01*
X155231111Y-47183513D01*
X155511034Y-47098599D01*
X155769014Y-46960706D01*
X155995134Y-46775134D01*
X156180706Y-46549014D01*
X156210000Y-46494209D01*
X156239294Y-46549014D01*
X156424866Y-46775134D01*
X156650986Y-46960706D01*
X156908966Y-47098599D01*
X157188889Y-47183513D01*
X157407050Y-47205000D01*
X157552950Y-47205000D01*
X157771111Y-47183513D01*
X158051034Y-47098599D01*
X158309014Y-46960706D01*
X158535134Y-46775134D01*
X158720706Y-46549014D01*
X158750000Y-46494209D01*
X158779294Y-46549014D01*
X158964866Y-46775134D01*
X159190986Y-46960706D01*
X159448966Y-47098599D01*
X159728889Y-47183513D01*
X159947050Y-47205000D01*
X160092950Y-47205000D01*
X160311111Y-47183513D01*
X160385995Y-47160797D01*
X161361200Y-48136002D01*
X161384999Y-48165001D01*
X161500724Y-48259974D01*
X161632753Y-48330546D01*
X161776014Y-48374003D01*
X161887667Y-48385000D01*
X161887677Y-48385000D01*
X161925000Y-48388676D01*
X161962323Y-48385000D01*
X165493488Y-48385000D01*
X165352320Y-48596273D01*
X165244147Y-48857426D01*
X165189000Y-49134665D01*
X165189000Y-49417335D01*
X165225312Y-49599886D01*
X164589002Y-50236197D01*
X164559999Y-50259999D01*
X164530776Y-50295608D01*
X164465026Y-50375724D01*
X164436878Y-50428385D01*
X164394454Y-50507754D01*
X164350997Y-50651015D01*
X164340000Y-50762668D01*
X164340000Y-50762678D01*
X164336324Y-50800000D01*
X164340000Y-50837322D01*
X164340001Y-58732569D01*
X159992538Y-54385107D01*
X160023608Y-54359608D01*
X160202932Y-54141101D01*
X160336182Y-53891808D01*
X160418236Y-53621309D01*
X160445943Y-53340000D01*
X160418236Y-53058691D01*
X160336182Y-52788192D01*
X160202932Y-52538899D01*
X160023608Y-52320392D01*
X159805101Y-52141068D01*
X159555808Y-52007818D01*
X159285309Y-51925764D01*
X159074492Y-51905000D01*
X158933508Y-51905000D01*
X158722691Y-51925764D01*
X158452192Y-52007818D01*
X158202899Y-52141068D01*
X157984392Y-52320392D01*
X157805068Y-52538899D01*
X157671818Y-52788192D01*
X157589764Y-53058691D01*
X157562057Y-53340000D01*
X157589764Y-53621309D01*
X157671818Y-53891808D01*
X157805068Y-54141101D01*
X157984392Y-54359608D01*
X158202899Y-54538932D01*
X158249428Y-54563802D01*
X158254144Y-54611680D01*
X158254998Y-54620355D01*
X158298454Y-54763616D01*
X158369026Y-54895646D01*
X158440201Y-54982372D01*
X158464000Y-55011371D01*
X158492998Y-55035169D01*
X159518255Y-56060427D01*
X159285309Y-55989764D01*
X159074492Y-55969000D01*
X158933508Y-55969000D01*
X158722691Y-55989764D01*
X158452192Y-56071818D01*
X158202899Y-56205068D01*
X157984392Y-56384392D01*
X157805068Y-56602899D01*
X157671818Y-56852192D01*
X157589764Y-57122691D01*
X157562057Y-57404000D01*
X157589764Y-57685309D01*
X157671818Y-57955808D01*
X157774254Y-58147452D01*
X157354688Y-57727886D01*
X157391000Y-57545335D01*
X157391000Y-57262665D01*
X157335853Y-56985426D01*
X157227680Y-56724273D01*
X157070637Y-56489241D01*
X156870759Y-56289363D01*
X156635727Y-56132320D01*
X156374574Y-56024147D01*
X156097335Y-55969000D01*
X155814665Y-55969000D01*
X155537426Y-56024147D01*
X155276273Y-56132320D01*
X155041241Y-56289363D01*
X154841363Y-56489241D01*
X154684320Y-56724273D01*
X154576147Y-56985426D01*
X154521000Y-57262665D01*
X154521000Y-57545335D01*
X154576147Y-57822574D01*
X154684320Y-58083727D01*
X154841363Y-58318759D01*
X155041241Y-58518637D01*
X155276273Y-58675680D01*
X155537426Y-58783853D01*
X155814665Y-58839000D01*
X156097335Y-58839000D01*
X156279886Y-58802688D01*
X157023773Y-59546575D01*
X156908966Y-59581401D01*
X156650986Y-59719294D01*
X156424866Y-59904866D01*
X156239294Y-60130986D01*
X156210000Y-60185791D01*
X156180706Y-60130986D01*
X155995134Y-59904866D01*
X155769014Y-59719294D01*
X155511034Y-59581401D01*
X155231111Y-59496487D01*
X155012950Y-59475000D01*
X154867050Y-59475000D01*
X154648889Y-59496487D01*
X154368966Y-59581401D01*
X154110986Y-59719294D01*
X153884866Y-59904866D01*
X153699294Y-60130986D01*
X153670000Y-60185791D01*
X153640706Y-60130986D01*
X153455134Y-59904866D01*
X153229014Y-59719294D01*
X152971034Y-59581401D01*
X152691111Y-59496487D01*
X152472950Y-59475000D01*
X152327050Y-59475000D01*
X152108889Y-59496487D01*
X151828966Y-59581401D01*
X151570986Y-59719294D01*
X151344866Y-59904866D01*
X151320393Y-59934687D01*
X151299502Y-59865820D01*
X151240537Y-59755506D01*
X151161185Y-59658815D01*
X151064494Y-59579463D01*
X150954180Y-59520498D01*
X150834482Y-59484188D01*
X150710000Y-59471928D01*
X149010000Y-59471928D01*
X148885518Y-59484188D01*
X148765820Y-59520498D01*
X148655506Y-59579463D01*
X148558815Y-59658815D01*
X148479463Y-59755506D01*
X148420498Y-59865820D01*
X148384188Y-59985518D01*
X148371928Y-60110000D01*
X148371928Y-61810000D01*
X148384188Y-61934482D01*
X148420498Y-62054180D01*
X148479463Y-62164494D01*
X148558815Y-62261185D01*
X148655506Y-62340537D01*
X148765820Y-62399502D01*
X148834687Y-62420393D01*
X148804866Y-62444866D01*
X148619294Y-62670986D01*
X148481401Y-62928966D01*
X148396487Y-63208889D01*
X148367815Y-63500000D01*
X148396487Y-63791111D01*
X148481401Y-64071034D01*
X148619294Y-64329014D01*
X148804866Y-64555134D01*
X149030986Y-64740706D01*
X149288966Y-64878599D01*
X149568889Y-64963513D01*
X149787050Y-64985000D01*
X149932950Y-64985000D01*
X150151111Y-64963513D01*
X150431034Y-64878599D01*
X150689014Y-64740706D01*
X150915134Y-64555134D01*
X150939607Y-64525313D01*
X150960498Y-64594180D01*
X151019463Y-64704494D01*
X151098815Y-64801185D01*
X151195506Y-64880537D01*
X151305820Y-64939502D01*
X151425518Y-64975812D01*
X151550000Y-64988072D01*
X153250000Y-64988072D01*
X153374482Y-64975812D01*
X153494180Y-64939502D01*
X153604494Y-64880537D01*
X153701185Y-64801185D01*
X153780537Y-64704494D01*
X153839502Y-64594180D01*
X153875812Y-64474482D01*
X153888072Y-64350000D01*
X153888072Y-62650000D01*
X153875812Y-62525518D01*
X153839502Y-62405820D01*
X153780537Y-62295506D01*
X153701185Y-62198815D01*
X153604494Y-62119463D01*
X153494180Y-62060498D01*
X153425313Y-62039607D01*
X153455134Y-62015134D01*
X153640706Y-61789014D01*
X153670000Y-61734209D01*
X153699294Y-61789014D01*
X153884866Y-62015134D01*
X154110986Y-62200706D01*
X154368966Y-62338599D01*
X154648889Y-62423513D01*
X154867050Y-62445000D01*
X155012950Y-62445000D01*
X155231111Y-62423513D01*
X155511034Y-62338599D01*
X155769014Y-62200706D01*
X155995134Y-62015134D01*
X156180706Y-61789014D01*
X156210000Y-61734209D01*
X156239294Y-61789014D01*
X156424866Y-62015134D01*
X156650986Y-62200706D01*
X156908966Y-62338599D01*
X157188889Y-62423513D01*
X157407050Y-62445000D01*
X157552950Y-62445000D01*
X157771111Y-62423513D01*
X158051034Y-62338599D01*
X158309014Y-62200706D01*
X158535134Y-62015134D01*
X158720706Y-61789014D01*
X158750000Y-61734209D01*
X158779294Y-61789014D01*
X158964866Y-62015134D01*
X159190986Y-62200706D01*
X159448966Y-62338599D01*
X159728889Y-62423513D01*
X159947050Y-62445000D01*
X160092950Y-62445000D01*
X160311111Y-62423513D01*
X160591034Y-62338599D01*
X160849014Y-62200706D01*
X161075134Y-62015134D01*
X161260706Y-61789014D01*
X161290000Y-61734209D01*
X161319294Y-61789014D01*
X161504866Y-62015134D01*
X161730986Y-62200706D01*
X161988966Y-62338599D01*
X162268889Y-62423513D01*
X162487050Y-62445000D01*
X162632950Y-62445000D01*
X162851111Y-62423513D01*
X163131034Y-62338599D01*
X163164999Y-62320444D01*
X163165000Y-68995196D01*
X162049003Y-70111194D01*
X162019999Y-70134997D01*
X161974919Y-70189928D01*
X161925026Y-70250722D01*
X161857627Y-70376815D01*
X161854454Y-70382752D01*
X161810997Y-70526013D01*
X161800000Y-70637666D01*
X161800000Y-70637676D01*
X161796324Y-70674998D01*
X161800000Y-70712320D01*
X161800001Y-79972668D01*
X161796324Y-80010000D01*
X161810998Y-80158985D01*
X161854454Y-80302246D01*
X161925026Y-80434276D01*
X161996201Y-80521002D01*
X162020000Y-80550001D01*
X162048998Y-80573799D01*
X162631200Y-81156002D01*
X162654999Y-81185001D01*
X162683997Y-81208799D01*
X162770724Y-81279974D01*
X162902753Y-81350546D01*
X163046014Y-81394003D01*
X163195000Y-81408677D01*
X163232333Y-81405000D01*
X167983678Y-81405000D01*
X168021000Y-81408676D01*
X168058322Y-81405000D01*
X168058333Y-81405000D01*
X168169986Y-81394003D01*
X168313247Y-81350546D01*
X168445276Y-81279974D01*
X168561001Y-81185001D01*
X168584804Y-81155997D01*
X169092094Y-80648708D01*
X169136691Y-80662236D01*
X169347508Y-80683000D01*
X169488492Y-80683000D01*
X169699309Y-80662236D01*
X169969808Y-80580182D01*
X170219101Y-80446932D01*
X170437608Y-80267608D01*
X170616932Y-80049101D01*
X170688000Y-79916142D01*
X170759068Y-80049101D01*
X170938392Y-80267608D01*
X171156899Y-80446932D01*
X171406192Y-80580182D01*
X171676691Y-80662236D01*
X171887508Y-80683000D01*
X172028492Y-80683000D01*
X172239309Y-80662236D01*
X172509808Y-80580182D01*
X172759101Y-80446932D01*
X172977608Y-80267608D01*
X173156932Y-80049101D01*
X173290182Y-79799808D01*
X173372236Y-79529309D01*
X173399943Y-79248000D01*
X173372236Y-78966691D01*
X173290182Y-78696192D01*
X173156932Y-78446899D01*
X172977608Y-78228392D01*
X172759101Y-78049068D01*
X172509808Y-77915818D01*
X172239309Y-77833764D01*
X172028492Y-77813000D01*
X171887508Y-77813000D01*
X171676691Y-77833764D01*
X171406192Y-77915818D01*
X171156899Y-78049068D01*
X170938392Y-78228392D01*
X170759068Y-78446899D01*
X170688000Y-78579858D01*
X170616932Y-78446899D01*
X170437608Y-78228392D01*
X170219101Y-78049068D01*
X169969808Y-77915818D01*
X169699309Y-77833764D01*
X169488492Y-77813000D01*
X169347508Y-77813000D01*
X169136691Y-77833764D01*
X168866192Y-77915818D01*
X168616899Y-78049068D01*
X168398392Y-78228392D01*
X168219068Y-78446899D01*
X168148000Y-78579858D01*
X168076932Y-78446899D01*
X167897608Y-78228392D01*
X167679101Y-78049068D01*
X167429808Y-77915818D01*
X167159309Y-77833764D01*
X166948492Y-77813000D01*
X166847801Y-77813000D01*
X168514004Y-76146798D01*
X168543002Y-76123000D01*
X168637975Y-76007275D01*
X168708547Y-75875246D01*
X168752004Y-75731985D01*
X168763001Y-75620332D01*
X168763001Y-75620324D01*
X168766677Y-75582999D01*
X168763001Y-75545674D01*
X168763001Y-75068000D01*
X177531928Y-75068000D01*
X177544188Y-75192482D01*
X177580498Y-75312180D01*
X177639463Y-75422494D01*
X177718815Y-75519185D01*
X177815506Y-75598537D01*
X177925820Y-75657502D01*
X178045518Y-75693812D01*
X178170000Y-75706072D01*
X178784250Y-75703000D01*
X178943000Y-75544250D01*
X178943000Y-74295000D01*
X179197000Y-74295000D01*
X179197000Y-75544250D01*
X179355750Y-75703000D01*
X179970000Y-75706072D01*
X180094482Y-75693812D01*
X180214180Y-75657502D01*
X180324494Y-75598537D01*
X180421185Y-75519185D01*
X180500537Y-75422494D01*
X180559502Y-75312180D01*
X180595812Y-75192482D01*
X180608072Y-75068000D01*
X184135928Y-75068000D01*
X184148188Y-75192482D01*
X184184498Y-75312180D01*
X184243463Y-75422494D01*
X184322815Y-75519185D01*
X184419506Y-75598537D01*
X184529820Y-75657502D01*
X184649518Y-75693812D01*
X184774000Y-75706072D01*
X185388250Y-75703000D01*
X185547000Y-75544250D01*
X185547000Y-74295000D01*
X185801000Y-74295000D01*
X185801000Y-75544250D01*
X185959750Y-75703000D01*
X186574000Y-75706072D01*
X186698482Y-75693812D01*
X186818180Y-75657502D01*
X186928494Y-75598537D01*
X187025185Y-75519185D01*
X187104537Y-75422494D01*
X187163502Y-75312180D01*
X187199812Y-75192482D01*
X187212072Y-75068000D01*
X190739928Y-75068000D01*
X190752188Y-75192482D01*
X190788498Y-75312180D01*
X190847463Y-75422494D01*
X190926815Y-75519185D01*
X191023506Y-75598537D01*
X191133820Y-75657502D01*
X191253518Y-75693812D01*
X191378000Y-75706072D01*
X191992250Y-75703000D01*
X192151000Y-75544250D01*
X192151000Y-74295000D01*
X192405000Y-74295000D01*
X192405000Y-75544250D01*
X192563750Y-75703000D01*
X193178000Y-75706072D01*
X193302482Y-75693812D01*
X193422180Y-75657502D01*
X193532494Y-75598537D01*
X193629185Y-75519185D01*
X193708537Y-75422494D01*
X193767502Y-75312180D01*
X193803812Y-75192482D01*
X193816072Y-75068000D01*
X197343928Y-75068000D01*
X197356188Y-75192482D01*
X197392498Y-75312180D01*
X197451463Y-75422494D01*
X197530815Y-75519185D01*
X197627506Y-75598537D01*
X197737820Y-75657502D01*
X197857518Y-75693812D01*
X197982000Y-75706072D01*
X198596250Y-75703000D01*
X198755000Y-75544250D01*
X198755000Y-74295000D01*
X199009000Y-74295000D01*
X199009000Y-75544250D01*
X199167750Y-75703000D01*
X199782000Y-75706072D01*
X199906482Y-75693812D01*
X200026180Y-75657502D01*
X200136494Y-75598537D01*
X200233185Y-75519185D01*
X200312537Y-75422494D01*
X200371502Y-75312180D01*
X200407812Y-75192482D01*
X200420072Y-75068000D01*
X200417000Y-74453750D01*
X200258250Y-74295000D01*
X199009000Y-74295000D01*
X198755000Y-74295000D01*
X197505750Y-74295000D01*
X197347000Y-74453750D01*
X197343928Y-75068000D01*
X193816072Y-75068000D01*
X193813000Y-74453750D01*
X193654250Y-74295000D01*
X192405000Y-74295000D01*
X192151000Y-74295000D01*
X190901750Y-74295000D01*
X190743000Y-74453750D01*
X190739928Y-75068000D01*
X187212072Y-75068000D01*
X187209000Y-74453750D01*
X187050250Y-74295000D01*
X185801000Y-74295000D01*
X185547000Y-74295000D01*
X184297750Y-74295000D01*
X184139000Y-74453750D01*
X184135928Y-75068000D01*
X180608072Y-75068000D01*
X180605000Y-74453750D01*
X180446250Y-74295000D01*
X179197000Y-74295000D01*
X178943000Y-74295000D01*
X177693750Y-74295000D01*
X177535000Y-74453750D01*
X177531928Y-75068000D01*
X168763001Y-75068000D01*
X168763001Y-73268000D01*
X177531928Y-73268000D01*
X177535000Y-73882250D01*
X177693750Y-74041000D01*
X178943000Y-74041000D01*
X178943000Y-74021000D01*
X179197000Y-74021000D01*
X179197000Y-74041000D01*
X180446250Y-74041000D01*
X180605000Y-73882250D01*
X180608072Y-73268000D01*
X184135928Y-73268000D01*
X184139000Y-73882250D01*
X184297750Y-74041000D01*
X185547000Y-74041000D01*
X185547000Y-74021000D01*
X185801000Y-74021000D01*
X185801000Y-74041000D01*
X187050250Y-74041000D01*
X187209000Y-73882250D01*
X187212072Y-73268000D01*
X190739928Y-73268000D01*
X190743000Y-73882250D01*
X190901750Y-74041000D01*
X192151000Y-74041000D01*
X192151000Y-74021000D01*
X192405000Y-74021000D01*
X192405000Y-74041000D01*
X193654250Y-74041000D01*
X193813000Y-73882250D01*
X193816072Y-73268000D01*
X197343928Y-73268000D01*
X197347000Y-73882250D01*
X197505750Y-74041000D01*
X198755000Y-74041000D01*
X198755000Y-74021000D01*
X199009000Y-74021000D01*
X199009000Y-74041000D01*
X200258250Y-74041000D01*
X200417000Y-73882250D01*
X200420072Y-73268000D01*
X200407812Y-73143518D01*
X200371502Y-73023820D01*
X200312537Y-72913506D01*
X200233185Y-72816815D01*
X200136494Y-72737463D01*
X200026180Y-72678498D01*
X200007873Y-72672944D01*
X200074312Y-72606505D01*
X200242299Y-72355095D01*
X200358011Y-72075743D01*
X200417000Y-71779184D01*
X200417000Y-71476816D01*
X200358011Y-71180257D01*
X200242299Y-70900905D01*
X200074312Y-70649495D01*
X199860505Y-70435688D01*
X199609095Y-70267701D01*
X199329743Y-70151989D01*
X199033184Y-70093000D01*
X198730816Y-70093000D01*
X198434257Y-70151989D01*
X198154905Y-70267701D01*
X197903495Y-70435688D01*
X197689688Y-70649495D01*
X197521701Y-70900905D01*
X197405989Y-71180257D01*
X197347000Y-71476816D01*
X197347000Y-71779184D01*
X197405989Y-72075743D01*
X197521701Y-72355095D01*
X197689688Y-72606505D01*
X197756127Y-72672944D01*
X197737820Y-72678498D01*
X197627506Y-72737463D01*
X197530815Y-72816815D01*
X197451463Y-72913506D01*
X197392498Y-73023820D01*
X197356188Y-73143518D01*
X197343928Y-73268000D01*
X193816072Y-73268000D01*
X193803812Y-73143518D01*
X193767502Y-73023820D01*
X193708537Y-72913506D01*
X193629185Y-72816815D01*
X193532494Y-72737463D01*
X193422180Y-72678498D01*
X193403873Y-72672944D01*
X193470312Y-72606505D01*
X193638299Y-72355095D01*
X193754011Y-72075743D01*
X193813000Y-71779184D01*
X193813000Y-71476816D01*
X193754011Y-71180257D01*
X193638299Y-70900905D01*
X193470312Y-70649495D01*
X193256505Y-70435688D01*
X193005095Y-70267701D01*
X192725743Y-70151989D01*
X192429184Y-70093000D01*
X192126816Y-70093000D01*
X191830257Y-70151989D01*
X191550905Y-70267701D01*
X191299495Y-70435688D01*
X191085688Y-70649495D01*
X190917701Y-70900905D01*
X190801989Y-71180257D01*
X190743000Y-71476816D01*
X190743000Y-71779184D01*
X190801989Y-72075743D01*
X190917701Y-72355095D01*
X191085688Y-72606505D01*
X191152127Y-72672944D01*
X191133820Y-72678498D01*
X191023506Y-72737463D01*
X190926815Y-72816815D01*
X190847463Y-72913506D01*
X190788498Y-73023820D01*
X190752188Y-73143518D01*
X190739928Y-73268000D01*
X187212072Y-73268000D01*
X187199812Y-73143518D01*
X187163502Y-73023820D01*
X187104537Y-72913506D01*
X187025185Y-72816815D01*
X186928494Y-72737463D01*
X186818180Y-72678498D01*
X186799873Y-72672944D01*
X186866312Y-72606505D01*
X187034299Y-72355095D01*
X187150011Y-72075743D01*
X187209000Y-71779184D01*
X187209000Y-71476816D01*
X187150011Y-71180257D01*
X187034299Y-70900905D01*
X186866312Y-70649495D01*
X186652505Y-70435688D01*
X186401095Y-70267701D01*
X186121743Y-70151989D01*
X185825184Y-70093000D01*
X185522816Y-70093000D01*
X185226257Y-70151989D01*
X184946905Y-70267701D01*
X184695495Y-70435688D01*
X184481688Y-70649495D01*
X184313701Y-70900905D01*
X184197989Y-71180257D01*
X184139000Y-71476816D01*
X184139000Y-71779184D01*
X184197989Y-72075743D01*
X184313701Y-72355095D01*
X184481688Y-72606505D01*
X184548127Y-72672944D01*
X184529820Y-72678498D01*
X184419506Y-72737463D01*
X184322815Y-72816815D01*
X184243463Y-72913506D01*
X184184498Y-73023820D01*
X184148188Y-73143518D01*
X184135928Y-73268000D01*
X180608072Y-73268000D01*
X180595812Y-73143518D01*
X180559502Y-73023820D01*
X180500537Y-72913506D01*
X180421185Y-72816815D01*
X180324494Y-72737463D01*
X180214180Y-72678498D01*
X180195873Y-72672944D01*
X180262312Y-72606505D01*
X180430299Y-72355095D01*
X180546011Y-72075743D01*
X180605000Y-71779184D01*
X180605000Y-71476816D01*
X180546011Y-71180257D01*
X180430299Y-70900905D01*
X180262312Y-70649495D01*
X180048505Y-70435688D01*
X179797095Y-70267701D01*
X179517743Y-70151989D01*
X179221184Y-70093000D01*
X178918816Y-70093000D01*
X178622257Y-70151989D01*
X178342905Y-70267701D01*
X178091495Y-70435688D01*
X177877688Y-70649495D01*
X177709701Y-70900905D01*
X177593989Y-71180257D01*
X177535000Y-71476816D01*
X177535000Y-71779184D01*
X177593989Y-72075743D01*
X177709701Y-72355095D01*
X177877688Y-72606505D01*
X177944127Y-72672944D01*
X177925820Y-72678498D01*
X177815506Y-72737463D01*
X177718815Y-72816815D01*
X177639463Y-72913506D01*
X177580498Y-73023820D01*
X177544188Y-73143518D01*
X177531928Y-73268000D01*
X168763001Y-73268000D01*
X168763001Y-72905025D01*
X168866192Y-72960182D01*
X169136691Y-73042236D01*
X169347508Y-73063000D01*
X169488492Y-73063000D01*
X169699309Y-73042236D01*
X169969808Y-72960182D01*
X170219101Y-72826932D01*
X170437608Y-72647608D01*
X170530419Y-72534518D01*
X170532188Y-72552482D01*
X170568498Y-72672180D01*
X170627463Y-72782494D01*
X170706815Y-72879185D01*
X170803506Y-72958537D01*
X170913820Y-73017502D01*
X171033518Y-73053812D01*
X171158000Y-73066072D01*
X172758000Y-73066072D01*
X172882482Y-73053812D01*
X173002180Y-73017502D01*
X173112494Y-72958537D01*
X173209185Y-72879185D01*
X173288537Y-72782494D01*
X173347502Y-72672180D01*
X173383812Y-72552482D01*
X173396072Y-72428000D01*
X173396072Y-70828000D01*
X173383812Y-70703518D01*
X173347502Y-70583820D01*
X173288537Y-70473506D01*
X173209185Y-70376815D01*
X173112494Y-70297463D01*
X173002180Y-70238498D01*
X172882482Y-70202188D01*
X172758000Y-70189928D01*
X171158000Y-70189928D01*
X171033518Y-70202188D01*
X170913820Y-70238498D01*
X170803506Y-70297463D01*
X170706815Y-70376815D01*
X170627463Y-70473506D01*
X170568498Y-70583820D01*
X170532188Y-70703518D01*
X170530419Y-70721482D01*
X170437608Y-70608392D01*
X170219101Y-70429068D01*
X169969808Y-70295818D01*
X169699309Y-70213764D01*
X169575001Y-70201521D01*
X169575001Y-62320444D01*
X169608966Y-62338599D01*
X169888889Y-62423513D01*
X170107050Y-62445000D01*
X170252950Y-62445000D01*
X170471111Y-62423513D01*
X170751034Y-62338599D01*
X171009014Y-62200706D01*
X171235134Y-62015134D01*
X171420706Y-61789014D01*
X171450000Y-61734209D01*
X171479294Y-61789014D01*
X171664866Y-62015134D01*
X171890986Y-62200706D01*
X172148966Y-62338599D01*
X172428889Y-62423513D01*
X172647050Y-62445000D01*
X172792950Y-62445000D01*
X173011111Y-62423513D01*
X173291034Y-62338599D01*
X173549014Y-62200706D01*
X173775134Y-62015134D01*
X173960706Y-61789014D01*
X173990000Y-61734209D01*
X174019294Y-61789014D01*
X174204866Y-62015134D01*
X174430986Y-62200706D01*
X174688966Y-62338599D01*
X174968889Y-62423513D01*
X175187050Y-62445000D01*
X175332950Y-62445000D01*
X175551111Y-62423513D01*
X175831034Y-62338599D01*
X176089014Y-62200706D01*
X176315134Y-62015134D01*
X176500706Y-61789014D01*
X176530000Y-61734209D01*
X176559294Y-61789014D01*
X176744866Y-62015134D01*
X176970986Y-62200706D01*
X177228966Y-62338599D01*
X177508889Y-62423513D01*
X177727050Y-62445000D01*
X177872950Y-62445000D01*
X178091111Y-62423513D01*
X178371034Y-62338599D01*
X178629014Y-62200706D01*
X178855134Y-62015134D01*
X179040706Y-61789014D01*
X179070000Y-61734209D01*
X179099294Y-61789014D01*
X179284866Y-62015134D01*
X179510986Y-62200706D01*
X179768966Y-62338599D01*
X180048889Y-62423513D01*
X180267050Y-62445000D01*
X180412950Y-62445000D01*
X180631111Y-62423513D01*
X180911034Y-62338599D01*
X181169014Y-62200706D01*
X181395134Y-62015134D01*
X181580706Y-61789014D01*
X181610000Y-61734209D01*
X181639294Y-61789014D01*
X181824866Y-62015134D01*
X182050986Y-62200706D01*
X182308966Y-62338599D01*
X182588889Y-62423513D01*
X182807050Y-62445000D01*
X182952950Y-62445000D01*
X183171111Y-62423513D01*
X183451034Y-62338599D01*
X183709014Y-62200706D01*
X183935134Y-62015134D01*
X184120706Y-61789014D01*
X184150000Y-61734209D01*
X184179294Y-61789014D01*
X184364866Y-62015134D01*
X184590986Y-62200706D01*
X184848966Y-62338599D01*
X185128889Y-62423513D01*
X185347050Y-62445000D01*
X185492950Y-62445000D01*
X185711111Y-62423513D01*
X185785995Y-62400797D01*
X186031202Y-62646004D01*
X186055000Y-62675002D01*
X186170725Y-62769975D01*
X186302754Y-62840547D01*
X186446015Y-62884004D01*
X186557668Y-62895001D01*
X186557677Y-62895001D01*
X186595000Y-62898677D01*
X186632323Y-62895001D01*
X189139556Y-62895001D01*
X189121401Y-62928966D01*
X189036487Y-63208889D01*
X189007815Y-63500000D01*
X189036487Y-63791111D01*
X189121401Y-64071034D01*
X189259294Y-64329014D01*
X189444866Y-64555134D01*
X189670986Y-64740706D01*
X189928966Y-64878599D01*
X189944877Y-64883425D01*
X189936200Y-64893998D01*
X189825198Y-65005000D01*
X189763061Y-65005000D01*
X189563102Y-65044774D01*
X189374744Y-65122795D01*
X189205226Y-65236063D01*
X189061063Y-65380226D01*
X188947795Y-65549744D01*
X188869774Y-65738102D01*
X188830000Y-65938061D01*
X188830000Y-66141939D01*
X188869774Y-66341898D01*
X188947795Y-66530256D01*
X189061063Y-66699774D01*
X189205226Y-66843937D01*
X189374744Y-66957205D01*
X189563102Y-67035226D01*
X189763061Y-67075000D01*
X189966939Y-67075000D01*
X190166898Y-67035226D01*
X190355256Y-66957205D01*
X190524774Y-66843937D01*
X190668937Y-66699774D01*
X190782205Y-66530256D01*
X190860226Y-66341898D01*
X190895413Y-66165000D01*
X208211289Y-66165000D01*
X208255226Y-66208937D01*
X208424744Y-66322205D01*
X208613102Y-66400226D01*
X208813061Y-66440000D01*
X209016939Y-66440000D01*
X209216898Y-66400226D01*
X209405256Y-66322205D01*
X209574774Y-66208937D01*
X209718937Y-66064774D01*
X209832205Y-65895256D01*
X209910226Y-65706898D01*
X209950000Y-65506939D01*
X209950000Y-65303061D01*
X209910226Y-65103102D01*
X209858010Y-64977042D01*
X209970000Y-64988072D01*
X211670000Y-64988072D01*
X211794482Y-64975812D01*
X211914180Y-64939502D01*
X212024494Y-64880537D01*
X212121185Y-64801185D01*
X212200537Y-64704494D01*
X212259502Y-64594180D01*
X212295812Y-64474482D01*
X212308072Y-64350000D01*
X212308072Y-62650000D01*
X212295812Y-62525518D01*
X212259502Y-62405820D01*
X212234590Y-62359213D01*
X212455251Y-62138552D01*
X212530986Y-62200706D01*
X212788966Y-62338599D01*
X213068889Y-62423513D01*
X213287050Y-62445000D01*
X213432950Y-62445000D01*
X213651111Y-62423513D01*
X213775001Y-62385931D01*
X213775002Y-64550195D01*
X211111571Y-67213628D01*
X210957592Y-67183000D01*
X210682408Y-67183000D01*
X210412510Y-67236686D01*
X210158273Y-67341995D01*
X209929465Y-67494880D01*
X209734880Y-67689465D01*
X209676080Y-67777465D01*
X209667812Y-67693518D01*
X209631502Y-67573820D01*
X209572537Y-67463506D01*
X209493185Y-67366815D01*
X209396494Y-67287463D01*
X209286180Y-67228498D01*
X209166482Y-67192188D01*
X209042000Y-67179928D01*
X207518000Y-67179928D01*
X207393518Y-67192188D01*
X207273820Y-67228498D01*
X207163506Y-67287463D01*
X207066815Y-67366815D01*
X206987463Y-67463506D01*
X206928498Y-67573820D01*
X206892188Y-67693518D01*
X206879928Y-67818000D01*
X206879928Y-69342000D01*
X206892188Y-69466482D01*
X206928498Y-69586180D01*
X206987463Y-69696494D01*
X207066815Y-69793185D01*
X207163506Y-69872537D01*
X207273820Y-69931502D01*
X207393518Y-69967812D01*
X207518000Y-69980072D01*
X209042000Y-69980072D01*
X209166482Y-69967812D01*
X209286180Y-69931502D01*
X209396494Y-69872537D01*
X209493185Y-69793185D01*
X209572537Y-69696494D01*
X209631502Y-69586180D01*
X209667812Y-69466482D01*
X209676080Y-69382535D01*
X209734880Y-69470535D01*
X209929465Y-69665120D01*
X210158273Y-69818005D01*
X210412510Y-69923314D01*
X210682408Y-69977000D01*
X210957592Y-69977000D01*
X211227490Y-69923314D01*
X211481727Y-69818005D01*
X211710535Y-69665120D01*
X211905120Y-69470535D01*
X212058005Y-69241727D01*
X212090000Y-69164485D01*
X212121995Y-69241727D01*
X212274880Y-69470535D01*
X212469465Y-69665120D01*
X212698273Y-69818005D01*
X212952510Y-69923314D01*
X213222408Y-69977000D01*
X213497592Y-69977000D01*
X213767490Y-69923314D01*
X214021727Y-69818005D01*
X214250535Y-69665120D01*
X214445120Y-69470535D01*
X214598005Y-69241727D01*
X214630000Y-69164485D01*
X214661995Y-69241727D01*
X214814880Y-69470535D01*
X215009465Y-69665120D01*
X215238273Y-69818005D01*
X215492510Y-69923314D01*
X215762408Y-69977000D01*
X216037592Y-69977000D01*
X216307490Y-69923314D01*
X216561727Y-69818005D01*
X216790535Y-69665120D01*
X216985120Y-69470535D01*
X217138005Y-69241727D01*
X217170000Y-69164485D01*
X217201995Y-69241727D01*
X217354880Y-69470535D01*
X217549465Y-69665120D01*
X217778273Y-69818005D01*
X218032510Y-69923314D01*
X218302408Y-69977000D01*
X218577592Y-69977000D01*
X218847490Y-69923314D01*
X219101727Y-69818005D01*
X219330535Y-69665120D01*
X219525120Y-69470535D01*
X219678005Y-69241727D01*
X219783314Y-68987490D01*
X219837000Y-68717592D01*
X219837000Y-68442408D01*
X219783314Y-68172510D01*
X219678005Y-67918273D01*
X219525120Y-67689465D01*
X219330535Y-67494880D01*
X219101727Y-67341995D01*
X218847490Y-67236686D01*
X218577592Y-67183000D01*
X218302408Y-67183000D01*
X218032510Y-67236686D01*
X217778273Y-67341995D01*
X217549465Y-67494880D01*
X217354880Y-67689465D01*
X217201995Y-67918273D01*
X217170000Y-67995515D01*
X217138005Y-67918273D01*
X216985120Y-67689465D01*
X216790535Y-67494880D01*
X216561727Y-67341995D01*
X216307490Y-67236686D01*
X216037592Y-67183000D01*
X215762408Y-67183000D01*
X215492510Y-67236686D01*
X215238273Y-67341995D01*
X215009465Y-67494880D01*
X214814880Y-67689465D01*
X214661995Y-67918273D01*
X214630000Y-67995515D01*
X214598005Y-67918273D01*
X214445120Y-67689465D01*
X214250535Y-67494880D01*
X214021727Y-67341995D01*
X213767490Y-67236686D01*
X213497592Y-67183000D01*
X213291802Y-67183000D01*
X215046009Y-65428794D01*
X215075002Y-65405000D01*
X215098796Y-65376007D01*
X215098800Y-65376003D01*
X215169974Y-65289276D01*
X215169975Y-65289275D01*
X215240547Y-65157246D01*
X215284004Y-65013985D01*
X215295001Y-64902332D01*
X215295001Y-64902323D01*
X215298677Y-64865000D01*
X215295001Y-64827677D01*
X215295001Y-62320444D01*
X215328966Y-62338599D01*
X215608889Y-62423513D01*
X215827050Y-62445000D01*
X215972950Y-62445000D01*
X216191111Y-62423513D01*
X216471034Y-62338599D01*
X216729014Y-62200706D01*
X216955134Y-62015134D01*
X217140706Y-61789014D01*
X217175201Y-61724477D01*
X217244822Y-61841355D01*
X217439731Y-62057588D01*
X217673080Y-62231641D01*
X217935901Y-62356825D01*
X218083110Y-62401476D01*
X218313000Y-62280155D01*
X218313000Y-61087000D01*
X218567000Y-61087000D01*
X218567000Y-62280155D01*
X218796890Y-62401476D01*
X218944099Y-62356825D01*
X219206920Y-62231641D01*
X219440269Y-62057588D01*
X219635178Y-61841355D01*
X219784157Y-61591252D01*
X219881481Y-61316891D01*
X219760814Y-61087000D01*
X218567000Y-61087000D01*
X218313000Y-61087000D01*
X218293000Y-61087000D01*
X218293000Y-60833000D01*
X218313000Y-60833000D01*
X218313000Y-59639845D01*
X218567000Y-59639845D01*
X218567000Y-60833000D01*
X219760814Y-60833000D01*
X219881481Y-60603109D01*
X219784157Y-60328748D01*
X219635178Y-60078645D01*
X219440269Y-59862412D01*
X219206920Y-59688359D01*
X218944099Y-59563175D01*
X218796890Y-59518524D01*
X218567000Y-59639845D01*
X218313000Y-59639845D01*
X218083110Y-59518524D01*
X217935901Y-59563175D01*
X217673080Y-59688359D01*
X217439731Y-59862412D01*
X217244822Y-60078645D01*
X217175201Y-60195523D01*
X217140706Y-60130986D01*
X216955134Y-59904866D01*
X216729014Y-59719294D01*
X216564461Y-59631339D01*
X220475003Y-55720797D01*
X220504001Y-55696999D01*
X220530332Y-55664915D01*
X220598974Y-55581275D01*
X220669546Y-55449245D01*
X220686308Y-55393986D01*
X220713003Y-55305984D01*
X220724000Y-55194331D01*
X220724000Y-55194321D01*
X220727676Y-55156999D01*
X220724000Y-55119676D01*
X220724000Y-54558043D01*
X220878759Y-54454637D01*
X221078637Y-54254759D01*
X221235680Y-54019727D01*
X221343853Y-53758574D01*
X221399000Y-53481335D01*
X221399000Y-53198665D01*
X221343853Y-52921426D01*
X221235680Y-52660273D01*
X221078637Y-52425241D01*
X220878759Y-52225363D01*
X220643727Y-52068320D01*
X220382574Y-51960147D01*
X220105335Y-51905000D01*
X219822665Y-51905000D01*
X219545426Y-51960147D01*
X219284273Y-52068320D01*
X219049241Y-52225363D01*
X218849363Y-52425241D01*
X218692320Y-52660273D01*
X218584147Y-52921426D01*
X218529000Y-53198665D01*
X218529000Y-53481335D01*
X218584147Y-53758574D01*
X218692320Y-54019727D01*
X218849363Y-54254759D01*
X219049241Y-54454637D01*
X219204001Y-54558044D01*
X219204001Y-54842195D01*
X214264749Y-59781448D01*
X214189014Y-59719294D01*
X213931034Y-59581401D01*
X213651111Y-59496487D01*
X213432950Y-59475000D01*
X213287050Y-59475000D01*
X213068889Y-59496487D01*
X212944999Y-59534069D01*
X212944999Y-58639802D01*
X214506004Y-57078798D01*
X214535001Y-57055001D01*
X214592100Y-56985426D01*
X214629974Y-56939277D01*
X214700546Y-56807247D01*
X214717911Y-56750000D01*
X214744003Y-56663986D01*
X214755000Y-56552333D01*
X214755000Y-56552323D01*
X214758676Y-56515000D01*
X214755000Y-56477677D01*
X214755000Y-50964333D01*
X214758677Y-50927000D01*
X214744003Y-50778014D01*
X214700546Y-50634753D01*
X214629974Y-50502724D01*
X214558799Y-50415997D01*
X214535001Y-50386999D01*
X214506003Y-50363201D01*
X213744708Y-49601906D01*
X213758236Y-49557309D01*
X213785943Y-49276000D01*
X213772023Y-49134665D01*
X218529000Y-49134665D01*
X218529000Y-49417335D01*
X218584147Y-49694574D01*
X218692320Y-49955727D01*
X218849363Y-50190759D01*
X219049241Y-50390637D01*
X219284273Y-50547680D01*
X219545426Y-50655853D01*
X219822665Y-50711000D01*
X220105335Y-50711000D01*
X220382574Y-50655853D01*
X220643727Y-50547680D01*
X220878759Y-50390637D01*
X221078637Y-50190759D01*
X221235680Y-49955727D01*
X221343853Y-49694574D01*
X221399000Y-49417335D01*
X221399000Y-49134665D01*
X221343853Y-48857426D01*
X221235680Y-48596273D01*
X221078637Y-48361241D01*
X220878759Y-48161363D01*
X220643727Y-48004320D01*
X220382574Y-47896147D01*
X220105335Y-47841000D01*
X219822665Y-47841000D01*
X219545426Y-47896147D01*
X219284273Y-48004320D01*
X219049241Y-48161363D01*
X218849363Y-48361241D01*
X218692320Y-48596273D01*
X218584147Y-48857426D01*
X218529000Y-49134665D01*
X213772023Y-49134665D01*
X213758236Y-48994691D01*
X213676182Y-48724192D01*
X213542932Y-48474899D01*
X213363608Y-48256392D01*
X213145101Y-48077068D01*
X212895808Y-47943818D01*
X212625309Y-47861764D01*
X212414492Y-47841000D01*
X212313801Y-47841000D01*
X212994005Y-47160797D01*
X213068889Y-47183513D01*
X213287050Y-47205000D01*
X213432950Y-47205000D01*
X213651111Y-47183513D01*
X213931034Y-47098599D01*
X214189014Y-46960706D01*
X214415134Y-46775134D01*
X214600706Y-46549014D01*
X214630000Y-46494209D01*
X214659294Y-46549014D01*
X214844866Y-46775134D01*
X215070986Y-46960706D01*
X215328966Y-47098599D01*
X215608889Y-47183513D01*
X215827050Y-47205000D01*
X215972950Y-47205000D01*
X216191111Y-47183513D01*
X216471034Y-47098599D01*
X216729014Y-46960706D01*
X216955134Y-46775134D01*
X217140706Y-46549014D01*
X217175201Y-46484477D01*
X217244822Y-46601355D01*
X217439731Y-46817588D01*
X217673080Y-46991641D01*
X217935901Y-47116825D01*
X218083110Y-47161476D01*
X218313000Y-47040155D01*
X218313000Y-45847000D01*
X218567000Y-45847000D01*
X218567000Y-47040155D01*
X218796890Y-47161476D01*
X218944099Y-47116825D01*
X219206920Y-46991641D01*
X219440269Y-46817588D01*
X219635178Y-46601355D01*
X219784157Y-46351252D01*
X219881481Y-46076891D01*
X219760814Y-45847000D01*
X218567000Y-45847000D01*
X218313000Y-45847000D01*
X218293000Y-45847000D01*
X218293000Y-45593000D01*
X218313000Y-45593000D01*
X218313000Y-44399845D01*
X218567000Y-44399845D01*
X218567000Y-45593000D01*
X219760814Y-45593000D01*
X219881481Y-45363109D01*
X219784157Y-45088748D01*
X219635178Y-44838645D01*
X219440269Y-44622412D01*
X219206920Y-44448359D01*
X218944099Y-44323175D01*
X218796890Y-44278524D01*
X218567000Y-44399845D01*
X218313000Y-44399845D01*
X218083110Y-44278524D01*
X217935901Y-44323175D01*
X217673080Y-44448359D01*
X217439731Y-44622412D01*
X217244822Y-44838645D01*
X217175201Y-44955523D01*
X217140706Y-44890986D01*
X216955134Y-44664866D01*
X216729014Y-44479294D01*
X216471034Y-44341401D01*
X216191111Y-44256487D01*
X215972950Y-44235000D01*
X215827050Y-44235000D01*
X215608889Y-44256487D01*
X215328966Y-44341401D01*
X215070986Y-44479294D01*
X214844866Y-44664866D01*
X214659294Y-44890986D01*
X214630000Y-44945791D01*
X214600706Y-44890986D01*
X214415134Y-44664866D01*
X214189014Y-44479294D01*
X213931034Y-44341401D01*
X213651111Y-44256487D01*
X213432950Y-44235000D01*
X213287050Y-44235000D01*
X213068889Y-44256487D01*
X212788966Y-44341401D01*
X212530986Y-44479294D01*
X212304866Y-44664866D01*
X212119294Y-44890986D01*
X212090000Y-44945791D01*
X212060706Y-44890986D01*
X211875134Y-44664866D01*
X211649014Y-44479294D01*
X211580000Y-44442405D01*
X211580000Y-43472321D01*
X211583676Y-43434998D01*
X211580000Y-43397675D01*
X211580000Y-43397665D01*
X211569003Y-43286012D01*
X211525546Y-43142751D01*
X211465821Y-43031015D01*
X211454974Y-43010721D01*
X211383799Y-42923995D01*
X211360001Y-42894997D01*
X211331003Y-42871199D01*
X209499804Y-41040000D01*
X209651939Y-41040000D01*
X209851898Y-41000226D01*
X210040256Y-40922205D01*
X210209774Y-40808937D01*
X210353937Y-40664774D01*
X210467205Y-40495256D01*
X210545226Y-40306898D01*
X210585000Y-40106939D01*
X210585000Y-39903061D01*
X210545226Y-39703102D01*
X210467205Y-39514744D01*
X210353937Y-39345226D01*
X210209774Y-39201063D01*
X210040256Y-39087795D01*
X209851898Y-39009774D01*
X209651939Y-38970000D01*
X209589803Y-38970000D01*
X207308468Y-36688665D01*
X208115000Y-36688665D01*
X208115000Y-36971335D01*
X208170147Y-37248574D01*
X208278320Y-37509727D01*
X208435363Y-37744759D01*
X208635241Y-37944637D01*
X208870273Y-38101680D01*
X209131426Y-38209853D01*
X209408665Y-38265000D01*
X209691335Y-38265000D01*
X209968574Y-38209853D01*
X210229727Y-38101680D01*
X210464759Y-37944637D01*
X210664637Y-37744759D01*
X210821680Y-37509727D01*
X210823650Y-37504971D01*
X210891068Y-37631101D01*
X211070392Y-37849608D01*
X211288899Y-38028932D01*
X211538192Y-38162182D01*
X211808691Y-38244236D01*
X212019508Y-38265000D01*
X212160492Y-38265000D01*
X212371309Y-38244236D01*
X212641808Y-38162182D01*
X212891101Y-38028932D01*
X213109608Y-37849608D01*
X213288932Y-37631101D01*
X213422182Y-37381808D01*
X213504236Y-37111309D01*
X213531943Y-36830000D01*
X213504236Y-36548691D01*
X213422182Y-36278192D01*
X213288932Y-36028899D01*
X213109608Y-35810392D01*
X212891101Y-35631068D01*
X212641808Y-35497818D01*
X212371309Y-35415764D01*
X212160492Y-35395000D01*
X212019508Y-35395000D01*
X211808691Y-35415764D01*
X211538192Y-35497818D01*
X211288899Y-35631068D01*
X211070392Y-35810392D01*
X210891068Y-36028899D01*
X210823650Y-36155029D01*
X210821680Y-36150273D01*
X210664637Y-35915241D01*
X210464759Y-35715363D01*
X210229727Y-35558320D01*
X209968574Y-35450147D01*
X209691335Y-35395000D01*
X209408665Y-35395000D01*
X209131426Y-35450147D01*
X208870273Y-35558320D01*
X208635241Y-35715363D01*
X208435363Y-35915241D01*
X208278320Y-36150273D01*
X208170147Y-36411426D01*
X208115000Y-36688665D01*
X207308468Y-36688665D01*
X199521859Y-28902058D01*
X199499853Y-28791426D01*
X199391680Y-28530273D01*
X199234637Y-28295241D01*
X199034759Y-28095363D01*
X198799727Y-27938320D01*
X198538574Y-27830147D01*
X198261335Y-27775000D01*
X197978665Y-27775000D01*
X197701426Y-27830147D01*
X197440273Y-27938320D01*
X197205241Y-28095363D01*
X197005363Y-28295241D01*
X196848320Y-28530273D01*
X196740147Y-28791426D01*
X196685000Y-29068665D01*
X196685000Y-29351335D01*
X196740147Y-29628574D01*
X196848320Y-29889727D01*
X197005363Y-30124759D01*
X197205241Y-30324637D01*
X197440273Y-30481680D01*
X197701426Y-30589853D01*
X197978665Y-30645000D01*
X198261335Y-30645000D01*
X198538574Y-30589853D01*
X198799727Y-30481680D01*
X198890935Y-30420737D01*
X208515000Y-40044803D01*
X208515000Y-40055197D01*
X206683806Y-38224003D01*
X206660003Y-38194999D01*
X206544278Y-38100026D01*
X206412249Y-38029454D01*
X206268988Y-37985997D01*
X206157335Y-37975000D01*
X206157324Y-37975000D01*
X206120002Y-37971324D01*
X206082680Y-37975000D01*
X202796817Y-37975000D01*
X202949608Y-37849608D01*
X203128932Y-37631101D01*
X203262182Y-37381808D01*
X203344236Y-37111309D01*
X203371943Y-36830000D01*
X203344236Y-36548691D01*
X203262182Y-36278192D01*
X203128932Y-36028899D01*
X202949608Y-35810392D01*
X202731101Y-35631068D01*
X202481808Y-35497818D01*
X202211309Y-35415764D01*
X202000492Y-35395000D01*
X201859508Y-35395000D01*
X201648691Y-35415764D01*
X201378192Y-35497818D01*
X201128899Y-35631068D01*
X200910392Y-35810392D01*
X200731068Y-36028899D01*
X200597818Y-36278192D01*
X200530364Y-36500560D01*
X195705000Y-31675197D01*
X195705000Y-28612323D01*
X195708676Y-28575000D01*
X195705000Y-28537677D01*
X195705000Y-28537667D01*
X195694003Y-28426014D01*
X195650546Y-28282753D01*
X195579974Y-28150724D01*
X195485001Y-28034999D01*
X195456003Y-28011201D01*
X194241801Y-26797000D01*
X223467394Y-26797000D01*
X224663000Y-27992606D01*
X224663000Y-39438197D01*
X222375000Y-37150199D01*
X222375000Y-35597322D01*
X222378676Y-35559999D01*
X222375000Y-35522676D01*
X222375000Y-35522667D01*
X222364003Y-35411014D01*
X222320546Y-35267753D01*
X222249974Y-35135724D01*
X222155001Y-35019999D01*
X222126004Y-34996202D01*
X220908804Y-33779003D01*
X220885001Y-33749999D01*
X220769276Y-33655026D01*
X220637247Y-33584454D01*
X220493986Y-33540997D01*
X220382333Y-33530000D01*
X220382322Y-33530000D01*
X220345000Y-33526324D01*
X220307678Y-33530000D01*
X212404803Y-33530000D01*
X210113804Y-31239003D01*
X210090001Y-31209999D01*
X209974276Y-31115026D01*
X209842247Y-31044454D01*
X209698986Y-31000997D01*
X209587333Y-30990000D01*
X209587322Y-30990000D01*
X209550000Y-30986324D01*
X209512678Y-30990000D01*
X207017238Y-30990000D01*
X207015812Y-30975518D01*
X206979502Y-30855820D01*
X206920537Y-30745506D01*
X206841185Y-30648815D01*
X206744494Y-30569463D01*
X206634180Y-30510498D01*
X206514482Y-30474188D01*
X206390000Y-30461928D01*
X206032828Y-30461928D01*
X206114821Y-30445619D01*
X206337363Y-30353439D01*
X212075000Y-30353439D01*
X212075000Y-30606561D01*
X212124381Y-30854821D01*
X212221247Y-31088676D01*
X212361875Y-31299140D01*
X212540860Y-31478125D01*
X212751324Y-31618753D01*
X212985179Y-31715619D01*
X213233439Y-31765000D01*
X213341928Y-31765000D01*
X213341928Y-32400000D01*
X213354188Y-32524482D01*
X213390498Y-32644180D01*
X213449463Y-32754494D01*
X213528815Y-32851185D01*
X213625506Y-32930537D01*
X213735820Y-32989502D01*
X213855518Y-33025812D01*
X213980000Y-33038072D01*
X215280000Y-33038072D01*
X215404482Y-33025812D01*
X215524180Y-32989502D01*
X215634494Y-32930537D01*
X215731185Y-32851185D01*
X215810537Y-32754494D01*
X215869502Y-32644180D01*
X215905812Y-32524482D01*
X215918072Y-32400000D01*
X215918072Y-31100000D01*
X215905812Y-30975518D01*
X215869502Y-30855820D01*
X215810537Y-30745506D01*
X215731185Y-30648815D01*
X215634494Y-30569463D01*
X215524180Y-30510498D01*
X215404482Y-30474188D01*
X215280000Y-30461928D01*
X214922828Y-30461928D01*
X215004821Y-30445619D01*
X215238676Y-30348753D01*
X215449140Y-30208125D01*
X215628125Y-30029140D01*
X215768753Y-29818676D01*
X215865619Y-29584821D01*
X215915000Y-29336561D01*
X215915000Y-29083439D01*
X215906184Y-29039117D01*
X220515000Y-29039117D01*
X220515000Y-29380883D01*
X220581675Y-29716081D01*
X220712463Y-30031831D01*
X220902337Y-30315998D01*
X221144002Y-30557663D01*
X221428169Y-30747537D01*
X221743919Y-30878325D01*
X222079117Y-30945000D01*
X222420883Y-30945000D01*
X222756081Y-30878325D01*
X223071831Y-30747537D01*
X223355998Y-30557663D01*
X223597663Y-30315998D01*
X223787537Y-30031831D01*
X223918325Y-29716081D01*
X223985000Y-29380883D01*
X223985000Y-29039117D01*
X223918325Y-28703919D01*
X223787537Y-28388169D01*
X223597663Y-28104002D01*
X223355998Y-27862337D01*
X223071831Y-27672463D01*
X222756081Y-27541675D01*
X222420883Y-27475000D01*
X222079117Y-27475000D01*
X221743919Y-27541675D01*
X221428169Y-27672463D01*
X221144002Y-27862337D01*
X220902337Y-28104002D01*
X220712463Y-28388169D01*
X220581675Y-28703919D01*
X220515000Y-29039117D01*
X215906184Y-29039117D01*
X215865619Y-28835179D01*
X215768753Y-28601324D01*
X215628125Y-28390860D01*
X215449140Y-28211875D01*
X215238676Y-28071247D01*
X215004821Y-27974381D01*
X214756561Y-27925000D01*
X214503439Y-27925000D01*
X214255179Y-27974381D01*
X214021324Y-28071247D01*
X213810860Y-28211875D01*
X213631875Y-28390860D01*
X213491247Y-28601324D01*
X213394381Y-28835179D01*
X213345000Y-29083439D01*
X213345000Y-29195000D01*
X213233439Y-29195000D01*
X212985179Y-29244381D01*
X212751324Y-29341247D01*
X212540860Y-29481875D01*
X212361875Y-29660860D01*
X212221247Y-29871324D01*
X212124381Y-30105179D01*
X212075000Y-30353439D01*
X206337363Y-30353439D01*
X206348676Y-30348753D01*
X206559140Y-30208125D01*
X206738125Y-30029140D01*
X206878753Y-29818676D01*
X206975619Y-29584821D01*
X207025000Y-29336561D01*
X207025000Y-29083439D01*
X206975619Y-28835179D01*
X206878753Y-28601324D01*
X206738125Y-28390860D01*
X206559140Y-28211875D01*
X206348676Y-28071247D01*
X206114821Y-27974381D01*
X205866561Y-27925000D01*
X205613439Y-27925000D01*
X205365179Y-27974381D01*
X205131324Y-28071247D01*
X204920860Y-28211875D01*
X204741875Y-28390860D01*
X204601247Y-28601324D01*
X204504381Y-28835179D01*
X204455000Y-29083439D01*
X204455000Y-29195000D01*
X204343439Y-29195000D01*
X204095179Y-29244381D01*
X203861324Y-29341247D01*
X203650860Y-29481875D01*
X203471875Y-29660860D01*
X203331247Y-29871324D01*
X203234381Y-30105179D01*
X203185000Y-30353439D01*
X203185000Y-30606561D01*
X203234381Y-30854821D01*
X203331247Y-31088676D01*
X203471875Y-31299140D01*
X203650860Y-31478125D01*
X203861324Y-31618753D01*
X204095179Y-31715619D01*
X204343439Y-31765000D01*
X204451928Y-31765000D01*
X204451928Y-32400000D01*
X204464188Y-32524482D01*
X204500498Y-32644180D01*
X204559463Y-32754494D01*
X204638815Y-32851185D01*
X204735506Y-32930537D01*
X204845820Y-32989502D01*
X204965518Y-33025812D01*
X205090000Y-33038072D01*
X206390000Y-33038072D01*
X206514482Y-33025812D01*
X206634180Y-32989502D01*
X206744494Y-32930537D01*
X206841185Y-32851185D01*
X206920537Y-32754494D01*
X206979502Y-32644180D01*
X207015812Y-32524482D01*
X207017238Y-32510000D01*
X209235199Y-32510000D01*
X211526205Y-34801008D01*
X211549999Y-34830001D01*
X211578992Y-34853795D01*
X211578996Y-34853799D01*
X211649685Y-34911811D01*
X211665724Y-34924974D01*
X211797753Y-34995546D01*
X211941014Y-35039003D01*
X212052667Y-35050000D01*
X212052676Y-35050000D01*
X212089999Y-35053676D01*
X212127322Y-35050000D01*
X220030199Y-35050000D01*
X220855000Y-35874802D01*
X220855000Y-35960683D01*
X220824637Y-35915241D01*
X220624759Y-35715363D01*
X220389727Y-35558320D01*
X220128574Y-35450147D01*
X219851335Y-35395000D01*
X219568665Y-35395000D01*
X219291426Y-35450147D01*
X219030273Y-35558320D01*
X218795241Y-35715363D01*
X218595363Y-35915241D01*
X218438320Y-36150273D01*
X218330147Y-36411426D01*
X218275000Y-36688665D01*
X218275000Y-36971335D01*
X218330147Y-37248574D01*
X218438320Y-37509727D01*
X218595363Y-37744759D01*
X218795241Y-37944637D01*
X219030273Y-38101680D01*
X219291426Y-38209853D01*
X219568665Y-38265000D01*
X219851335Y-38265000D01*
X220128574Y-38209853D01*
X220389727Y-38101680D01*
X220624759Y-37944637D01*
X220824637Y-37744759D01*
X220880367Y-37661354D01*
X220909454Y-37757246D01*
X220980026Y-37889276D01*
X221047362Y-37971324D01*
X221075000Y-38005001D01*
X221103998Y-38028799D01*
X223395000Y-40319803D01*
X223395001Y-65831124D01*
X223285256Y-65757795D01*
X223096898Y-65679774D01*
X222896939Y-65640000D01*
X222693061Y-65640000D01*
X222493102Y-65679774D01*
X222304744Y-65757795D01*
X222135226Y-65871063D01*
X221991063Y-66015226D01*
X221877795Y-66184744D01*
X221799774Y-66373102D01*
X221760000Y-66573061D01*
X221760000Y-66776939D01*
X221799774Y-66976898D01*
X221877795Y-67165256D01*
X221991063Y-67334774D01*
X222035000Y-67378711D01*
X222035001Y-71530197D01*
X216191571Y-77373628D01*
X216037592Y-77343000D01*
X215762408Y-77343000D01*
X215492510Y-77396686D01*
X215238273Y-77501995D01*
X215009465Y-77654880D01*
X214814880Y-77849465D01*
X214661995Y-78078273D01*
X214630000Y-78155515D01*
X214598005Y-78078273D01*
X214445120Y-77849465D01*
X214250535Y-77654880D01*
X214021727Y-77501995D01*
X213767490Y-77396686D01*
X213497592Y-77343000D01*
X213222408Y-77343000D01*
X212952510Y-77396686D01*
X212698273Y-77501995D01*
X212469465Y-77654880D01*
X212274880Y-77849465D01*
X212121995Y-78078273D01*
X212090000Y-78155515D01*
X212058005Y-78078273D01*
X211905120Y-77849465D01*
X211710535Y-77654880D01*
X211481727Y-77501995D01*
X211227490Y-77396686D01*
X210957592Y-77343000D01*
X210682408Y-77343000D01*
X210412510Y-77396686D01*
X210158273Y-77501995D01*
X209929465Y-77654880D01*
X209734880Y-77849465D01*
X209581995Y-78078273D01*
X209550000Y-78155515D01*
X209518005Y-78078273D01*
X209365120Y-77849465D01*
X209170535Y-77654880D01*
X209040000Y-77567659D01*
X209040000Y-74877325D01*
X209043676Y-74840000D01*
X209040000Y-74802675D01*
X209040000Y-74802667D01*
X209029003Y-74691014D01*
X208985546Y-74547753D01*
X208914974Y-74415724D01*
X208820001Y-74299999D01*
X208791004Y-74276202D01*
X202330000Y-67815199D01*
X202330000Y-67753061D01*
X202290226Y-67553102D01*
X202212205Y-67364744D01*
X202098937Y-67195226D01*
X201954774Y-67051063D01*
X201785256Y-66937795D01*
X201596898Y-66859774D01*
X201396939Y-66820000D01*
X201193061Y-66820000D01*
X200993102Y-66859774D01*
X200804744Y-66937795D01*
X200635226Y-67051063D01*
X200491063Y-67195226D01*
X200377795Y-67364744D01*
X200299774Y-67553102D01*
X200260000Y-67753061D01*
X200260000Y-67956939D01*
X200299774Y-68156898D01*
X200377795Y-68345256D01*
X200491063Y-68514774D01*
X200635226Y-68658937D01*
X200804744Y-68772205D01*
X200993102Y-68850226D01*
X201193061Y-68890000D01*
X201255199Y-68890000D01*
X207520000Y-75154802D01*
X207520001Y-77567659D01*
X207389465Y-77654880D01*
X207194880Y-77849465D01*
X207041995Y-78078273D01*
X206936686Y-78332510D01*
X206883000Y-78602408D01*
X206883000Y-78877592D01*
X206936686Y-79147490D01*
X207041995Y-79401727D01*
X207194880Y-79630535D01*
X207389465Y-79825120D01*
X207618273Y-79978005D01*
X207872510Y-80083314D01*
X208142408Y-80137000D01*
X208417592Y-80137000D01*
X208687490Y-80083314D01*
X208941727Y-79978005D01*
X209170535Y-79825120D01*
X209365120Y-79630535D01*
X209518005Y-79401727D01*
X209550000Y-79324485D01*
X209581995Y-79401727D01*
X209734880Y-79630535D01*
X209929465Y-79825120D01*
X210158273Y-79978005D01*
X210412510Y-80083314D01*
X210682408Y-80137000D01*
X210957592Y-80137000D01*
X211111570Y-80106372D01*
X212161201Y-81156003D01*
X212184999Y-81185001D01*
X212300724Y-81279974D01*
X212432753Y-81350546D01*
X212576014Y-81394003D01*
X212687667Y-81405000D01*
X212687677Y-81405000D01*
X212725000Y-81408676D01*
X212762323Y-81405000D01*
X219672678Y-81405000D01*
X219710000Y-81408676D01*
X219747322Y-81405000D01*
X219747333Y-81405000D01*
X219858986Y-81394003D01*
X220002247Y-81350546D01*
X220134276Y-81279974D01*
X220250001Y-81185001D01*
X220273804Y-81155997D01*
X224663000Y-76766802D01*
X224663000Y-83767394D01*
X223785471Y-84644923D01*
X223787537Y-84641831D01*
X223918325Y-84326081D01*
X223985000Y-83990883D01*
X223985000Y-83649117D01*
X223918325Y-83313919D01*
X223787537Y-82998169D01*
X223597663Y-82714002D01*
X223355998Y-82472337D01*
X223071831Y-82282463D01*
X222756081Y-82151675D01*
X222420883Y-82085000D01*
X222079117Y-82085000D01*
X221743919Y-82151675D01*
X221428169Y-82282463D01*
X221144002Y-82472337D01*
X220902337Y-82714002D01*
X220712463Y-82998169D01*
X220581675Y-83313919D01*
X220515000Y-83649117D01*
X220515000Y-83990883D01*
X220581675Y-84326081D01*
X220712463Y-84641831D01*
X220902337Y-84925998D01*
X221144002Y-85167663D01*
X221428169Y-85357537D01*
X221743919Y-85488325D01*
X222079117Y-85555000D01*
X222420883Y-85555000D01*
X222756081Y-85488325D01*
X223071831Y-85357537D01*
X223074923Y-85355471D01*
X222832394Y-85598000D01*
X130227606Y-85598000D01*
X129985077Y-85355471D01*
X129988169Y-85357537D01*
X130303919Y-85488325D01*
X130639117Y-85555000D01*
X130980883Y-85555000D01*
X131316081Y-85488325D01*
X131631831Y-85357537D01*
X131915998Y-85167663D01*
X132157663Y-84925998D01*
X132347537Y-84641831D01*
X132430474Y-84441602D01*
X145768003Y-84441602D01*
X145884275Y-84723389D01*
X146202860Y-84881257D01*
X146546122Y-84973938D01*
X146900869Y-84997873D01*
X147253470Y-84952139D01*
X147590373Y-84838495D01*
X147805725Y-84723389D01*
X147921997Y-84441602D01*
X146845000Y-83364605D01*
X145768003Y-84441602D01*
X132430474Y-84441602D01*
X132478325Y-84326081D01*
X132545000Y-83990883D01*
X132545000Y-83649117D01*
X132478325Y-83313919D01*
X132448067Y-83240869D01*
X145032127Y-83240869D01*
X145077861Y-83593470D01*
X145191505Y-83930373D01*
X145306611Y-84145725D01*
X145588398Y-84261997D01*
X146665395Y-83185000D01*
X147024605Y-83185000D01*
X148101602Y-84261997D01*
X148383389Y-84145725D01*
X148541257Y-83827140D01*
X148633938Y-83483878D01*
X148657873Y-83129131D01*
X148642061Y-83007223D01*
X155040000Y-83007223D01*
X155040000Y-83362777D01*
X155109365Y-83711499D01*
X155245429Y-84039988D01*
X155442965Y-84335621D01*
X155694379Y-84587035D01*
X155990012Y-84784571D01*
X156318501Y-84920635D01*
X156667223Y-84990000D01*
X157022777Y-84990000D01*
X157371499Y-84920635D01*
X157699988Y-84784571D01*
X157995621Y-84587035D01*
X158247035Y-84335621D01*
X158444571Y-84039988D01*
X158580635Y-83711499D01*
X158650000Y-83362777D01*
X158650000Y-83007223D01*
X158580635Y-82658501D01*
X158444571Y-82330012D01*
X158247035Y-82034379D01*
X157995621Y-81782965D01*
X157699988Y-81585429D01*
X157371499Y-81449365D01*
X157022777Y-81380000D01*
X156667223Y-81380000D01*
X156318501Y-81449365D01*
X155990012Y-81585429D01*
X155694379Y-81782965D01*
X155442965Y-82034379D01*
X155245429Y-82330012D01*
X155109365Y-82658501D01*
X155040000Y-83007223D01*
X148642061Y-83007223D01*
X148612139Y-82776530D01*
X148498495Y-82439627D01*
X148383389Y-82224275D01*
X148101602Y-82108003D01*
X147024605Y-83185000D01*
X146665395Y-83185000D01*
X145588398Y-82108003D01*
X145306611Y-82224275D01*
X145148743Y-82542860D01*
X145056062Y-82886122D01*
X145032127Y-83240869D01*
X132448067Y-83240869D01*
X132347537Y-82998169D01*
X132157663Y-82714002D01*
X131915998Y-82472337D01*
X131631831Y-82282463D01*
X131316081Y-82151675D01*
X130980883Y-82085000D01*
X130639117Y-82085000D01*
X130303919Y-82151675D01*
X129988169Y-82282463D01*
X129704002Y-82472337D01*
X129462337Y-82714002D01*
X129272463Y-82998169D01*
X129141675Y-83313919D01*
X129075000Y-83649117D01*
X129075000Y-83990883D01*
X129141675Y-84326081D01*
X129272463Y-84641831D01*
X129274529Y-84644923D01*
X128397000Y-83767394D01*
X128397000Y-81928398D01*
X145768003Y-81928398D01*
X146845000Y-83005395D01*
X147921997Y-81928398D01*
X147805725Y-81646611D01*
X147487140Y-81488743D01*
X147143878Y-81396062D01*
X146789131Y-81372127D01*
X146436530Y-81417861D01*
X146099627Y-81531505D01*
X145884275Y-81646611D01*
X145768003Y-81928398D01*
X128397000Y-81928398D01*
X128397000Y-68007223D01*
X150040000Y-68007223D01*
X150040000Y-68362777D01*
X150109365Y-68711499D01*
X150245429Y-69039988D01*
X150442965Y-69335621D01*
X150694379Y-69587035D01*
X150990012Y-69784571D01*
X151318501Y-69920635D01*
X151667223Y-69990000D01*
X152022777Y-69990000D01*
X152371499Y-69920635D01*
X152699988Y-69784571D01*
X152995621Y-69587035D01*
X153247035Y-69335621D01*
X153444571Y-69039988D01*
X153580635Y-68711499D01*
X153650000Y-68362777D01*
X153650000Y-68007223D01*
X153580635Y-67658501D01*
X153444571Y-67330012D01*
X153247035Y-67034379D01*
X152995621Y-66782965D01*
X152699988Y-66585429D01*
X152371499Y-66449365D01*
X152022777Y-66380000D01*
X151667223Y-66380000D01*
X151318501Y-66449365D01*
X150990012Y-66585429D01*
X150694379Y-66782965D01*
X150442965Y-67034379D01*
X150245429Y-67330012D01*
X150109365Y-67658501D01*
X150040000Y-68007223D01*
X128397000Y-68007223D01*
X128397000Y-57753039D01*
X146944096Y-57753039D01*
X146984754Y-57887087D01*
X147104963Y-58141420D01*
X147272481Y-58367414D01*
X147480869Y-58556385D01*
X147722119Y-58701070D01*
X147986960Y-58795909D01*
X148209000Y-58674624D01*
X148209000Y-57531000D01*
X148463000Y-57531000D01*
X148463000Y-58674624D01*
X148685040Y-58795909D01*
X148949881Y-58701070D01*
X149191131Y-58556385D01*
X149399519Y-58367414D01*
X149567037Y-58141420D01*
X149687246Y-57887087D01*
X149727904Y-57753039D01*
X149605915Y-57531000D01*
X148463000Y-57531000D01*
X148209000Y-57531000D01*
X147066085Y-57531000D01*
X146944096Y-57753039D01*
X128397000Y-57753039D01*
X128397000Y-57054961D01*
X146944096Y-57054961D01*
X147066085Y-57277000D01*
X148209000Y-57277000D01*
X148209000Y-56133376D01*
X148463000Y-56133376D01*
X148463000Y-57277000D01*
X149605915Y-57277000D01*
X149727904Y-57054961D01*
X149687246Y-56920913D01*
X149567037Y-56666580D01*
X149399519Y-56440586D01*
X149191131Y-56251615D01*
X148949881Y-56106930D01*
X148685040Y-56012091D01*
X148463000Y-56133376D01*
X148209000Y-56133376D01*
X147986960Y-56012091D01*
X147722119Y-56106930D01*
X147480869Y-56251615D01*
X147272481Y-56440586D01*
X147104963Y-56666580D01*
X146984754Y-56920913D01*
X146944096Y-57054961D01*
X128397000Y-57054961D01*
X128397000Y-53689039D01*
X146944096Y-53689039D01*
X146984754Y-53823087D01*
X147104963Y-54077420D01*
X147272481Y-54303414D01*
X147480869Y-54492385D01*
X147722119Y-54637070D01*
X147986960Y-54731909D01*
X148209000Y-54610624D01*
X148209000Y-53467000D01*
X148463000Y-53467000D01*
X148463000Y-54610624D01*
X148685040Y-54731909D01*
X148949881Y-54637070D01*
X149191131Y-54492385D01*
X149399519Y-54303414D01*
X149567037Y-54077420D01*
X149687246Y-53823087D01*
X149727904Y-53689039D01*
X149605915Y-53467000D01*
X148463000Y-53467000D01*
X148209000Y-53467000D01*
X147066085Y-53467000D01*
X146944096Y-53689039D01*
X128397000Y-53689039D01*
X128397000Y-52990961D01*
X146944096Y-52990961D01*
X147066085Y-53213000D01*
X148209000Y-53213000D01*
X148209000Y-52069376D01*
X148463000Y-52069376D01*
X148463000Y-53213000D01*
X149605915Y-53213000D01*
X149613790Y-53198665D01*
X154521000Y-53198665D01*
X154521000Y-53481335D01*
X154576147Y-53758574D01*
X154684320Y-54019727D01*
X154841363Y-54254759D01*
X155041241Y-54454637D01*
X155276273Y-54611680D01*
X155537426Y-54719853D01*
X155814665Y-54775000D01*
X156097335Y-54775000D01*
X156374574Y-54719853D01*
X156635727Y-54611680D01*
X156870759Y-54454637D01*
X157070637Y-54254759D01*
X157227680Y-54019727D01*
X157335853Y-53758574D01*
X157391000Y-53481335D01*
X157391000Y-53198665D01*
X157335853Y-52921426D01*
X157227680Y-52660273D01*
X157070637Y-52425241D01*
X156870759Y-52225363D01*
X156635727Y-52068320D01*
X156374574Y-51960147D01*
X156097335Y-51905000D01*
X155814665Y-51905000D01*
X155537426Y-51960147D01*
X155276273Y-52068320D01*
X155041241Y-52225363D01*
X154841363Y-52425241D01*
X154684320Y-52660273D01*
X154576147Y-52921426D01*
X154521000Y-53198665D01*
X149613790Y-53198665D01*
X149727904Y-52990961D01*
X149687246Y-52856913D01*
X149567037Y-52602580D01*
X149399519Y-52376586D01*
X149191131Y-52187615D01*
X148949881Y-52042930D01*
X148685040Y-51948091D01*
X148463000Y-52069376D01*
X148209000Y-52069376D01*
X147986960Y-51948091D01*
X147722119Y-52042930D01*
X147480869Y-52187615D01*
X147272481Y-52376586D01*
X147104963Y-52602580D01*
X146984754Y-52856913D01*
X146944096Y-52990961D01*
X128397000Y-52990961D01*
X128397000Y-49625039D01*
X146944096Y-49625039D01*
X146984754Y-49759087D01*
X147104963Y-50013420D01*
X147272481Y-50239414D01*
X147480869Y-50428385D01*
X147722119Y-50573070D01*
X147986960Y-50667909D01*
X148209000Y-50546624D01*
X148209000Y-49403000D01*
X148463000Y-49403000D01*
X148463000Y-50546624D01*
X148685040Y-50667909D01*
X148949881Y-50573070D01*
X149191131Y-50428385D01*
X149399519Y-50239414D01*
X149567037Y-50013420D01*
X149687246Y-49759087D01*
X149727904Y-49625039D01*
X149605915Y-49403000D01*
X148463000Y-49403000D01*
X148209000Y-49403000D01*
X147066085Y-49403000D01*
X146944096Y-49625039D01*
X128397000Y-49625039D01*
X128397000Y-48926961D01*
X146944096Y-48926961D01*
X147066085Y-49149000D01*
X148209000Y-49149000D01*
X148209000Y-48005376D01*
X148463000Y-48005376D01*
X148463000Y-49149000D01*
X149605915Y-49149000D01*
X149613790Y-49134665D01*
X154521000Y-49134665D01*
X154521000Y-49417335D01*
X154576147Y-49694574D01*
X154684320Y-49955727D01*
X154841363Y-50190759D01*
X155041241Y-50390637D01*
X155276273Y-50547680D01*
X155537426Y-50655853D01*
X155814665Y-50711000D01*
X156097335Y-50711000D01*
X156374574Y-50655853D01*
X156635727Y-50547680D01*
X156870759Y-50390637D01*
X157070637Y-50190759D01*
X157227680Y-49955727D01*
X157335853Y-49694574D01*
X157349684Y-49625039D01*
X157612096Y-49625039D01*
X157652754Y-49759087D01*
X157772963Y-50013420D01*
X157940481Y-50239414D01*
X158148869Y-50428385D01*
X158390119Y-50573070D01*
X158654960Y-50667909D01*
X158877000Y-50546624D01*
X158877000Y-49403000D01*
X159131000Y-49403000D01*
X159131000Y-50546624D01*
X159353040Y-50667909D01*
X159617881Y-50573070D01*
X159859131Y-50428385D01*
X160067519Y-50239414D01*
X160235037Y-50013420D01*
X160355246Y-49759087D01*
X160395904Y-49625039D01*
X160273915Y-49403000D01*
X159131000Y-49403000D01*
X158877000Y-49403000D01*
X157734085Y-49403000D01*
X157612096Y-49625039D01*
X157349684Y-49625039D01*
X157391000Y-49417335D01*
X157391000Y-49134665D01*
X157349685Y-48926961D01*
X157612096Y-48926961D01*
X157734085Y-49149000D01*
X158877000Y-49149000D01*
X158877000Y-48005376D01*
X159131000Y-48005376D01*
X159131000Y-49149000D01*
X160273915Y-49149000D01*
X160395904Y-48926961D01*
X160355246Y-48792913D01*
X160235037Y-48538580D01*
X160067519Y-48312586D01*
X159859131Y-48123615D01*
X159617881Y-47978930D01*
X159353040Y-47884091D01*
X159131000Y-48005376D01*
X158877000Y-48005376D01*
X158654960Y-47884091D01*
X158390119Y-47978930D01*
X158148869Y-48123615D01*
X157940481Y-48312586D01*
X157772963Y-48538580D01*
X157652754Y-48792913D01*
X157612096Y-48926961D01*
X157349685Y-48926961D01*
X157335853Y-48857426D01*
X157227680Y-48596273D01*
X157070637Y-48361241D01*
X156870759Y-48161363D01*
X156635727Y-48004320D01*
X156374574Y-47896147D01*
X156097335Y-47841000D01*
X155814665Y-47841000D01*
X155537426Y-47896147D01*
X155276273Y-48004320D01*
X155041241Y-48161363D01*
X154841363Y-48361241D01*
X154684320Y-48596273D01*
X154576147Y-48857426D01*
X154521000Y-49134665D01*
X149613790Y-49134665D01*
X149727904Y-48926961D01*
X149687246Y-48792913D01*
X149567037Y-48538580D01*
X149399519Y-48312586D01*
X149191131Y-48123615D01*
X148949881Y-47978930D01*
X148685040Y-47884091D01*
X148463000Y-48005376D01*
X148209000Y-48005376D01*
X147986960Y-47884091D01*
X147722119Y-47978930D01*
X147480869Y-48123615D01*
X147272481Y-48312586D01*
X147104963Y-48538580D01*
X146984754Y-48792913D01*
X146944096Y-48926961D01*
X128397000Y-48926961D01*
X128397000Y-33490000D01*
X143976928Y-33490000D01*
X143976928Y-35090000D01*
X143989188Y-35214482D01*
X144025498Y-35334180D01*
X144084463Y-35444494D01*
X144163815Y-35541185D01*
X144260506Y-35620537D01*
X144370820Y-35679502D01*
X144490518Y-35715812D01*
X144615000Y-35728072D01*
X146215000Y-35728072D01*
X146339482Y-35715812D01*
X146459180Y-35679502D01*
X146569494Y-35620537D01*
X146666185Y-35541185D01*
X146745537Y-35444494D01*
X146804502Y-35334180D01*
X146840812Y-35214482D01*
X146853072Y-35090000D01*
X146853072Y-33490000D01*
X146840812Y-33365518D01*
X146804502Y-33245820D01*
X146745537Y-33135506D01*
X146666185Y-33038815D01*
X146643259Y-33020000D01*
X167633461Y-33020000D01*
X167679510Y-33487542D01*
X167815887Y-33937116D01*
X168037351Y-34351446D01*
X168335391Y-34714609D01*
X168698554Y-35012649D01*
X169112884Y-35234113D01*
X169562458Y-35370490D01*
X169912843Y-35405000D01*
X170147157Y-35405000D01*
X170497542Y-35370490D01*
X170947116Y-35234113D01*
X171361446Y-35012649D01*
X171718040Y-34720000D01*
X185148843Y-34720000D01*
X185173412Y-34969454D01*
X185246175Y-35209321D01*
X185322202Y-35351558D01*
X185259463Y-35428006D01*
X185200498Y-35538320D01*
X185164188Y-35658018D01*
X185151928Y-35782500D01*
X185151928Y-37057500D01*
X185164188Y-37181982D01*
X185200498Y-37301680D01*
X185259463Y-37411994D01*
X185338815Y-37508685D01*
X185435506Y-37588037D01*
X185545820Y-37647002D01*
X185665518Y-37683312D01*
X185790000Y-37695572D01*
X187590000Y-37695572D01*
X187714482Y-37683312D01*
X187834180Y-37647002D01*
X187944494Y-37588037D01*
X188041185Y-37508685D01*
X188120537Y-37411994D01*
X188179502Y-37301680D01*
X188215812Y-37181982D01*
X188228072Y-37057500D01*
X188228072Y-35782500D01*
X188215812Y-35658018D01*
X188179502Y-35538320D01*
X188120537Y-35428006D01*
X188057798Y-35351558D01*
X188133825Y-35209321D01*
X188206588Y-34969454D01*
X188231157Y-34720000D01*
X188206588Y-34470546D01*
X188133825Y-34230679D01*
X188015664Y-34009616D01*
X187901583Y-33870608D01*
X187942095Y-33829991D01*
X188081102Y-33621367D01*
X188176737Y-33389633D01*
X188183191Y-33343505D01*
X188058985Y-33147000D01*
X186817000Y-33147000D01*
X186817000Y-33167000D01*
X186563000Y-33167000D01*
X186563000Y-33147000D01*
X185321015Y-33147000D01*
X185196809Y-33343505D01*
X185203263Y-33389633D01*
X185298898Y-33621367D01*
X185437905Y-33829991D01*
X185478417Y-33870608D01*
X185364336Y-34009616D01*
X185246175Y-34230679D01*
X185173412Y-34470546D01*
X185148843Y-34720000D01*
X171718040Y-34720000D01*
X171724609Y-34714609D01*
X172022649Y-34351446D01*
X172244113Y-33937116D01*
X172380490Y-33487542D01*
X172426539Y-33020000D01*
X172380490Y-32552458D01*
X172244113Y-32102884D01*
X172022649Y-31688554D01*
X171724609Y-31325391D01*
X171361446Y-31027351D01*
X170947116Y-30805887D01*
X170497542Y-30669510D01*
X170147157Y-30635000D01*
X169912843Y-30635000D01*
X169562458Y-30669510D01*
X169112884Y-30805887D01*
X168698554Y-31027351D01*
X168335391Y-31325391D01*
X168037351Y-31688554D01*
X167815887Y-32102884D01*
X167679510Y-32552458D01*
X167633461Y-33020000D01*
X146643259Y-33020000D01*
X146569494Y-32959463D01*
X146459180Y-32900498D01*
X146339482Y-32864188D01*
X146215000Y-32851928D01*
X146207785Y-32851928D01*
X146228097Y-32782702D01*
X145415000Y-31969605D01*
X144601903Y-32782702D01*
X144622215Y-32851928D01*
X144615000Y-32851928D01*
X144490518Y-32864188D01*
X144370820Y-32900498D01*
X144260506Y-32959463D01*
X144163815Y-33038815D01*
X144084463Y-33135506D01*
X144025498Y-33245820D01*
X143989188Y-33365518D01*
X143976928Y-33490000D01*
X128397000Y-33490000D01*
X128397000Y-31860512D01*
X143974783Y-31860512D01*
X144016213Y-32140130D01*
X144111397Y-32406292D01*
X144178329Y-32531514D01*
X144422298Y-32603097D01*
X145235395Y-31790000D01*
X145594605Y-31790000D01*
X146407702Y-32603097D01*
X146651671Y-32531514D01*
X146772571Y-32276004D01*
X146841300Y-32001816D01*
X146855217Y-31719488D01*
X146813787Y-31439870D01*
X146718603Y-31173708D01*
X146651671Y-31048486D01*
X146407702Y-30976903D01*
X145594605Y-31790000D01*
X145235395Y-31790000D01*
X144422298Y-30976903D01*
X144178329Y-31048486D01*
X144057429Y-31303996D01*
X143988700Y-31578184D01*
X143974783Y-31860512D01*
X128397000Y-31860512D01*
X128397000Y-29039117D01*
X129075000Y-29039117D01*
X129075000Y-29380883D01*
X129141675Y-29716081D01*
X129272463Y-30031831D01*
X129462337Y-30315998D01*
X129704002Y-30557663D01*
X129988169Y-30747537D01*
X130303919Y-30878325D01*
X130639117Y-30945000D01*
X130980883Y-30945000D01*
X131316081Y-30878325D01*
X131511697Y-30797298D01*
X144601903Y-30797298D01*
X145415000Y-31610395D01*
X146228097Y-30797298D01*
X146156514Y-30553329D01*
X145901004Y-30432429D01*
X145626816Y-30363700D01*
X145344488Y-30349783D01*
X145064870Y-30391213D01*
X144798708Y-30486397D01*
X144673486Y-30553329D01*
X144601903Y-30797298D01*
X131511697Y-30797298D01*
X131631831Y-30747537D01*
X131915998Y-30557663D01*
X132157663Y-30315998D01*
X132347537Y-30031831D01*
X132478325Y-29716081D01*
X132545000Y-29380883D01*
X132545000Y-29039117D01*
X132478325Y-28703919D01*
X132347537Y-28388169D01*
X132157663Y-28104002D01*
X131915998Y-27862337D01*
X131631831Y-27672463D01*
X131316081Y-27541675D01*
X130980883Y-27475000D01*
X130639117Y-27475000D01*
X130303919Y-27541675D01*
X129988169Y-27672463D01*
X129704002Y-27862337D01*
X129462337Y-28104002D01*
X129272463Y-28388169D01*
X129141675Y-28703919D01*
X129075000Y-29039117D01*
X128397000Y-29039117D01*
X128397000Y-28500606D01*
X130100606Y-26797000D01*
X159688199Y-26797000D01*
X159075906Y-27409293D01*
M02*
