G04 #@! TF.GenerationSoftware,KiCad,Pcbnew,(5.1.0)-1*
G04 #@! TF.CreationDate,2019-03-26T21:03:11+01:00*
G04 #@! TF.ProjectId,ac2-detpic-shield,6163322d-6465-4747-9069-632d73686965,rev?*
G04 #@! TF.SameCoordinates,Original*
G04 #@! TF.FileFunction,Other,Fab,Top*
%FSLAX46Y46*%
G04 Gerber Fmt 4.6, Leading zero omitted, Abs format (unit mm)*
G04 Created by KiCad (PCBNEW (5.1.0)-1) date 2019-03-26 21:03:11*
%MOMM*%
%LPD*%
G04 APERTURE LIST*
%ADD10C,0.100000*%
%ADD11C,0.150000*%
%ADD12C,0.120000*%
G04 APERTURE END LIST*
D10*
X148336000Y-49276000D02*
X148996000Y-49276000D01*
X155956000Y-49276000D02*
X155296000Y-49276000D01*
X148996000Y-50526000D02*
X155296000Y-50526000D01*
X148996000Y-48026000D02*
X148996000Y-50526000D01*
X155296000Y-48026000D02*
X148996000Y-48026000D01*
X155296000Y-50526000D02*
X155296000Y-48026000D01*
X148336000Y-53340000D02*
X148996000Y-53340000D01*
X155956000Y-53340000D02*
X155296000Y-53340000D01*
X148996000Y-54590000D02*
X155296000Y-54590000D01*
X148996000Y-52090000D02*
X148996000Y-54590000D01*
X155296000Y-52090000D02*
X148996000Y-52090000D01*
X155296000Y-54590000D02*
X155296000Y-52090000D01*
X148336000Y-57404000D02*
X148996000Y-57404000D01*
X155956000Y-57404000D02*
X155296000Y-57404000D01*
X148996000Y-58654000D02*
X155296000Y-58654000D01*
X148996000Y-56154000D02*
X148996000Y-58654000D01*
X155296000Y-56154000D02*
X148996000Y-56154000D01*
X155296000Y-58654000D02*
X155296000Y-56154000D01*
X159004000Y-49276000D02*
X159664000Y-49276000D01*
X166624000Y-49276000D02*
X165964000Y-49276000D01*
X159664000Y-50526000D02*
X165964000Y-50526000D01*
X159664000Y-48026000D02*
X159664000Y-50526000D01*
X165964000Y-48026000D02*
X159664000Y-48026000D01*
X165964000Y-50526000D02*
X165964000Y-48026000D01*
X149165000Y-33040000D02*
G75*
G03X149165000Y-33040000I-3750000J0D01*
G01*
X143777500Y-36251233D02*
X143777500Y-35501233D01*
X143402500Y-35876233D02*
X144152500Y-35876233D01*
X197715810Y-74398000D02*
X200048190Y-74398000D01*
X200382000Y-72898000D02*
G75*
G03X200382000Y-72898000I-1500000J0D01*
G01*
X200047476Y-74398555D02*
G75*
G03X197715810Y-74398000I-1165476J1500555D01*
G01*
X193443476Y-74398555D02*
G75*
G03X191111810Y-74398000I-1165476J1500555D01*
G01*
X193778000Y-72898000D02*
G75*
G03X193778000Y-72898000I-1500000J0D01*
G01*
X191111810Y-74398000D02*
X193444190Y-74398000D01*
X186839476Y-74398555D02*
G75*
G03X184507810Y-74398000I-1165476J1500555D01*
G01*
X187174000Y-72898000D02*
G75*
G03X187174000Y-72898000I-1500000J0D01*
G01*
X184507810Y-74398000D02*
X186840190Y-74398000D01*
X177903810Y-74398000D02*
X180236190Y-74398000D01*
X180570000Y-72898000D02*
G75*
G03X180570000Y-72898000I-1500000J0D01*
G01*
X180235476Y-74398555D02*
G75*
G03X177903810Y-74398000I-1165476J1500555D01*
G01*
X207490000Y-32250000D02*
X207490000Y-28750000D01*
X207493625Y-28726375D02*
G75*
G03X203260000Y-30480000I-1753625J-1753625D01*
G01*
X207493625Y-32233625D02*
G75*
G02X203260000Y-30480000I-1753625J1753625D01*
G01*
X216383625Y-32233625D02*
G75*
G02X212150000Y-30480000I-1753625J1753625D01*
G01*
X216383625Y-28726375D02*
G75*
G03X212150000Y-30480000I-1753625J-1753625D01*
G01*
X216380000Y-32250000D02*
X216380000Y-28750000D01*
X176632000Y-58654000D02*
X176632000Y-56154000D01*
X176632000Y-56154000D02*
X170332000Y-56154000D01*
X170332000Y-56154000D02*
X170332000Y-58654000D01*
X170332000Y-58654000D02*
X176632000Y-58654000D01*
X177292000Y-57404000D02*
X176632000Y-57404000D01*
X169672000Y-57404000D02*
X170332000Y-57404000D01*
X187300000Y-50526000D02*
X187300000Y-48026000D01*
X187300000Y-48026000D02*
X181000000Y-48026000D01*
X181000000Y-48026000D02*
X181000000Y-50526000D01*
X181000000Y-50526000D02*
X187300000Y-50526000D01*
X187960000Y-49276000D02*
X187300000Y-49276000D01*
X180340000Y-49276000D02*
X181000000Y-49276000D01*
X187960000Y-57404000D02*
X187300000Y-57404000D01*
X180340000Y-57404000D02*
X181000000Y-57404000D01*
X187300000Y-56154000D02*
X181000000Y-56154000D01*
X187300000Y-58654000D02*
X187300000Y-56154000D01*
X181000000Y-58654000D02*
X187300000Y-58654000D01*
X181000000Y-56154000D02*
X181000000Y-58654000D01*
X181000000Y-52090000D02*
X181000000Y-54590000D01*
X181000000Y-54590000D02*
X187300000Y-54590000D01*
X187300000Y-54590000D02*
X187300000Y-52090000D01*
X187300000Y-52090000D02*
X181000000Y-52090000D01*
X180340000Y-53340000D02*
X181000000Y-53340000D01*
X187960000Y-53340000D02*
X187300000Y-53340000D01*
X165964000Y-58654000D02*
X165964000Y-56154000D01*
X165964000Y-56154000D02*
X159664000Y-56154000D01*
X159664000Y-56154000D02*
X159664000Y-58654000D01*
X159664000Y-58654000D02*
X165964000Y-58654000D01*
X166624000Y-57404000D02*
X165964000Y-57404000D01*
X159004000Y-57404000D02*
X159664000Y-57404000D01*
X159004000Y-53340000D02*
X159664000Y-53340000D01*
X166624000Y-53340000D02*
X165964000Y-53340000D01*
X159664000Y-54590000D02*
X165964000Y-54590000D01*
X159664000Y-52090000D02*
X159664000Y-54590000D01*
X165964000Y-52090000D02*
X159664000Y-52090000D01*
X165964000Y-54590000D02*
X165964000Y-52090000D01*
X176632000Y-50526000D02*
X176632000Y-48026000D01*
X176632000Y-48026000D02*
X170332000Y-48026000D01*
X170332000Y-48026000D02*
X170332000Y-50526000D01*
X170332000Y-50526000D02*
X176632000Y-50526000D01*
X177292000Y-49276000D02*
X176632000Y-49276000D01*
X169672000Y-49276000D02*
X170332000Y-49276000D01*
X169672000Y-53340000D02*
X170332000Y-53340000D01*
X177292000Y-53340000D02*
X176632000Y-53340000D01*
X170332000Y-54590000D02*
X176632000Y-54590000D01*
X170332000Y-52090000D02*
X170332000Y-54590000D01*
X176632000Y-52090000D02*
X170332000Y-52090000D01*
X176632000Y-54590000D02*
X176632000Y-52090000D01*
X201930000Y-36830000D02*
X202590000Y-36830000D01*
X209550000Y-36830000D02*
X208890000Y-36830000D01*
X202590000Y-38080000D02*
X208890000Y-38080000D01*
X202590000Y-35580000D02*
X202590000Y-38080000D01*
X208890000Y-35580000D02*
X202590000Y-35580000D01*
X208890000Y-38080000D02*
X208890000Y-35580000D01*
X191008000Y-49276000D02*
X191668000Y-49276000D01*
X198628000Y-49276000D02*
X197968000Y-49276000D01*
X191668000Y-50526000D02*
X197968000Y-50526000D01*
X191668000Y-48026000D02*
X191668000Y-50526000D01*
X197968000Y-48026000D02*
X191668000Y-48026000D01*
X197968000Y-50526000D02*
X197968000Y-48026000D01*
X197968000Y-54590000D02*
X197968000Y-52090000D01*
X197968000Y-52090000D02*
X191668000Y-52090000D01*
X191668000Y-52090000D02*
X191668000Y-54590000D01*
X191668000Y-54590000D02*
X197968000Y-54590000D01*
X198628000Y-53340000D02*
X197968000Y-53340000D01*
X191008000Y-53340000D02*
X191668000Y-53340000D01*
X191008000Y-57404000D02*
X191668000Y-57404000D01*
X198628000Y-57404000D02*
X197968000Y-57404000D01*
X191668000Y-58654000D02*
X197968000Y-58654000D01*
X191668000Y-56154000D02*
X191668000Y-58654000D01*
X197968000Y-56154000D02*
X191668000Y-56154000D01*
X197968000Y-58654000D02*
X197968000Y-56154000D01*
X208636000Y-50526000D02*
X208636000Y-48026000D01*
X208636000Y-48026000D02*
X202336000Y-48026000D01*
X202336000Y-48026000D02*
X202336000Y-50526000D01*
X202336000Y-50526000D02*
X208636000Y-50526000D01*
X209296000Y-49276000D02*
X208636000Y-49276000D01*
X201676000Y-49276000D02*
X202336000Y-49276000D01*
X201676000Y-57404000D02*
X202336000Y-57404000D01*
X209296000Y-57404000D02*
X208636000Y-57404000D01*
X202336000Y-58654000D02*
X208636000Y-58654000D01*
X202336000Y-56154000D02*
X202336000Y-58654000D01*
X208636000Y-56154000D02*
X202336000Y-56154000D01*
X208636000Y-58654000D02*
X208636000Y-56154000D01*
X208636000Y-54590000D02*
X208636000Y-52090000D01*
X208636000Y-52090000D02*
X202336000Y-52090000D01*
X202336000Y-52090000D02*
X202336000Y-54590000D01*
X202336000Y-54590000D02*
X208636000Y-54590000D01*
X209296000Y-53340000D02*
X208636000Y-53340000D01*
X201676000Y-53340000D02*
X202336000Y-53340000D01*
X219304000Y-50526000D02*
X219304000Y-48026000D01*
X219304000Y-48026000D02*
X213004000Y-48026000D01*
X213004000Y-48026000D02*
X213004000Y-50526000D01*
X213004000Y-50526000D02*
X219304000Y-50526000D01*
X219964000Y-49276000D02*
X219304000Y-49276000D01*
X212344000Y-49276000D02*
X213004000Y-49276000D01*
X212344000Y-53340000D02*
X213004000Y-53340000D01*
X219964000Y-53340000D02*
X219304000Y-53340000D01*
X213004000Y-54590000D02*
X219304000Y-54590000D01*
X213004000Y-52090000D02*
X213004000Y-54590000D01*
X219304000Y-52090000D02*
X213004000Y-52090000D01*
X219304000Y-54590000D02*
X219304000Y-52090000D01*
X198120000Y-36830000D02*
X198120000Y-36170000D01*
X198120000Y-29210000D02*
X198120000Y-29870000D01*
X199370000Y-36170000D02*
X199370000Y-29870000D01*
X196870000Y-36170000D02*
X199370000Y-36170000D01*
X196870000Y-29870000D02*
X196870000Y-36170000D01*
X199370000Y-29870000D02*
X196870000Y-29870000D01*
X193040000Y-36830000D02*
X193040000Y-36170000D01*
X193040000Y-29210000D02*
X193040000Y-29870000D01*
X194290000Y-36170000D02*
X194290000Y-29870000D01*
X191790000Y-36170000D02*
X194290000Y-36170000D01*
X191790000Y-29870000D02*
X191790000Y-36170000D01*
X194290000Y-29870000D02*
X191790000Y-29870000D01*
X219050000Y-38080000D02*
X219050000Y-35580000D01*
X219050000Y-35580000D02*
X212750000Y-35580000D01*
X212750000Y-35580000D02*
X212750000Y-38080000D01*
X212750000Y-38080000D02*
X219050000Y-38080000D01*
X219710000Y-36830000D02*
X219050000Y-36830000D01*
X212090000Y-36830000D02*
X212750000Y-36830000D01*
X154345000Y-75685000D02*
G75*
G03X154345000Y-75685000I-2500000J0D01*
G01*
X144845000Y-82685000D02*
X158845000Y-82685000D01*
X158845000Y-82685000D02*
X158845000Y-68685000D01*
X158845000Y-68685000D02*
X144845000Y-68685000D01*
X144845000Y-68685000D02*
X144845000Y-82685000D01*
X174318000Y-71548000D02*
X174318000Y-80328000D01*
X174318000Y-80328000D02*
X161978000Y-80328000D01*
X161978000Y-80328000D02*
X161978000Y-70548000D01*
X161978000Y-70548000D02*
X173318000Y-70548000D01*
X173318000Y-70548000D02*
X174318000Y-71548000D01*
X172593000Y-73408000D02*
X171323000Y-73408000D01*
X171323000Y-73408000D02*
X171323000Y-77468000D01*
X171323000Y-77468000D02*
X172593000Y-77468000D01*
X172593000Y-77468000D02*
X172593000Y-73408000D01*
X172493000Y-73408000D02*
X172493000Y-74761333D01*
X172393000Y-73408000D02*
X172393000Y-74761333D01*
X172293000Y-73408000D02*
X172293000Y-74761333D01*
X172193000Y-73408000D02*
X172193000Y-74761333D01*
X172093000Y-73408000D02*
X172093000Y-74761333D01*
X171993000Y-73408000D02*
X171993000Y-74761333D01*
X171893000Y-73408000D02*
X171893000Y-74761333D01*
X171793000Y-73408000D02*
X171793000Y-74761333D01*
X171693000Y-73408000D02*
X171693000Y-74761333D01*
X171593000Y-73408000D02*
X171593000Y-74761333D01*
X171493000Y-73408000D02*
X171493000Y-74761333D01*
X171393000Y-73408000D02*
X171393000Y-74761333D01*
X172593000Y-74761333D02*
X171323000Y-74761333D01*
X170053000Y-73408000D02*
X168783000Y-73408000D01*
X168783000Y-73408000D02*
X168783000Y-77468000D01*
X168783000Y-77468000D02*
X170053000Y-77468000D01*
X170053000Y-77468000D02*
X170053000Y-73408000D01*
X169953000Y-73408000D02*
X169953000Y-74761333D01*
X169853000Y-73408000D02*
X169853000Y-74761333D01*
X169753000Y-73408000D02*
X169753000Y-74761333D01*
X169653000Y-73408000D02*
X169653000Y-74761333D01*
X169553000Y-73408000D02*
X169553000Y-74761333D01*
X169453000Y-73408000D02*
X169453000Y-74761333D01*
X169353000Y-73408000D02*
X169353000Y-74761333D01*
X169253000Y-73408000D02*
X169253000Y-74761333D01*
X169153000Y-73408000D02*
X169153000Y-74761333D01*
X169053000Y-73408000D02*
X169053000Y-74761333D01*
X168953000Y-73408000D02*
X168953000Y-74761333D01*
X168853000Y-73408000D02*
X168853000Y-74761333D01*
X170053000Y-74761333D02*
X168783000Y-74761333D01*
X167513000Y-73408000D02*
X166243000Y-73408000D01*
X166243000Y-73408000D02*
X166243000Y-77468000D01*
X166243000Y-77468000D02*
X167513000Y-77468000D01*
X167513000Y-77468000D02*
X167513000Y-73408000D01*
X167413000Y-73408000D02*
X167413000Y-74761333D01*
X167313000Y-73408000D02*
X167313000Y-74761333D01*
X167213000Y-73408000D02*
X167213000Y-74761333D01*
X167113000Y-73408000D02*
X167113000Y-74761333D01*
X167013000Y-73408000D02*
X167013000Y-74761333D01*
X166913000Y-73408000D02*
X166913000Y-74761333D01*
X166813000Y-73408000D02*
X166813000Y-74761333D01*
X166713000Y-73408000D02*
X166713000Y-74761333D01*
X166613000Y-73408000D02*
X166613000Y-74761333D01*
X166513000Y-73408000D02*
X166513000Y-74761333D01*
X166413000Y-73408000D02*
X166413000Y-74761333D01*
X166313000Y-73408000D02*
X166313000Y-74761333D01*
X167513000Y-74761333D02*
X166243000Y-74761333D01*
X164973000Y-73408000D02*
X163703000Y-73408000D01*
X163703000Y-73408000D02*
X163703000Y-77468000D01*
X163703000Y-77468000D02*
X164973000Y-77468000D01*
X164973000Y-77468000D02*
X164973000Y-73408000D01*
X164873000Y-73408000D02*
X164873000Y-74761333D01*
X164773000Y-73408000D02*
X164773000Y-74761333D01*
X164673000Y-73408000D02*
X164673000Y-74761333D01*
X164573000Y-73408000D02*
X164573000Y-74761333D01*
X164473000Y-73408000D02*
X164473000Y-74761333D01*
X164373000Y-73408000D02*
X164373000Y-74761333D01*
X164273000Y-73408000D02*
X164273000Y-74761333D01*
X164173000Y-73408000D02*
X164173000Y-74761333D01*
X164073000Y-73408000D02*
X164073000Y-74761333D01*
X163973000Y-73408000D02*
X163973000Y-74761333D01*
X163873000Y-73408000D02*
X163873000Y-74761333D01*
X163773000Y-73408000D02*
X163773000Y-74761333D01*
X164973000Y-74761333D02*
X163703000Y-74761333D01*
X152400000Y-35195000D02*
X152400000Y-29845000D01*
X152400000Y-29845000D02*
X162560000Y-29845000D01*
X162560000Y-29845000D02*
X162560000Y-36195000D01*
X162560000Y-36195000D02*
X153400000Y-36195000D01*
X153400000Y-36195000D02*
X152400000Y-35195000D01*
X152340000Y-38100000D02*
X162620000Y-38100000D01*
X162620000Y-38100000D02*
X162620000Y-27940000D01*
X162620000Y-27940000D02*
X152340000Y-27940000D01*
X152340000Y-27940000D02*
X152340000Y-38100000D01*
X171880000Y-33020000D02*
G75*
G03X171880000Y-33020000I-1850000J0D01*
G01*
X173630000Y-38020000D02*
X167230000Y-38020000D01*
X167230000Y-38020000D02*
X167230000Y-28020000D01*
X167230000Y-28020000D02*
X173630000Y-28020000D01*
X173630000Y-28020000D02*
X173630000Y-38020000D01*
X182880000Y-38020000D02*
X173630000Y-38020000D01*
X173630000Y-38020000D02*
X173630000Y-28020000D01*
X173630000Y-28020000D02*
X182880000Y-28020000D01*
X182880000Y-28020000D02*
X182880000Y-38020000D01*
X182880000Y-36420000D02*
X186690000Y-36420000D01*
X182880000Y-34720000D02*
X186690000Y-34720000D01*
X182880000Y-33020000D02*
X186690000Y-33020000D01*
X182880000Y-31320000D02*
X186690000Y-31320000D01*
X182880000Y-29620000D02*
X186690000Y-29620000D01*
X148590000Y-46990000D02*
X148590000Y-45085000D01*
X148590000Y-45085000D02*
X149225000Y-44450000D01*
X149225000Y-44450000D02*
X219710000Y-44450000D01*
X219710000Y-44450000D02*
X219710000Y-46990000D01*
X219710000Y-46990000D02*
X148590000Y-46990000D01*
X219710000Y-62230000D02*
X148590000Y-62230000D01*
X219710000Y-59690000D02*
X219710000Y-62230000D01*
X149225000Y-59690000D02*
X219710000Y-59690000D01*
X148590000Y-60325000D02*
X149225000Y-59690000D01*
X148590000Y-62230000D02*
X148590000Y-60325000D01*
D11*
X211225952Y-88717380D02*
X211225952Y-87717380D01*
X211559285Y-88431666D01*
X211892619Y-87717380D01*
X211892619Y-88717380D01*
X212511666Y-88717380D02*
X212416428Y-88669761D01*
X212368809Y-88622142D01*
X212321190Y-88526904D01*
X212321190Y-88241190D01*
X212368809Y-88145952D01*
X212416428Y-88098333D01*
X212511666Y-88050714D01*
X212654523Y-88050714D01*
X212749761Y-88098333D01*
X212797380Y-88145952D01*
X212845000Y-88241190D01*
X212845000Y-88526904D01*
X212797380Y-88622142D01*
X212749761Y-88669761D01*
X212654523Y-88717380D01*
X212511666Y-88717380D01*
X213702142Y-88050714D02*
X213702142Y-88717380D01*
X213273571Y-88050714D02*
X213273571Y-88574523D01*
X213321190Y-88669761D01*
X213416428Y-88717380D01*
X213559285Y-88717380D01*
X213654523Y-88669761D01*
X213702142Y-88622142D01*
X214178333Y-88050714D02*
X214178333Y-88717380D01*
X214178333Y-88145952D02*
X214225952Y-88098333D01*
X214321190Y-88050714D01*
X214464047Y-88050714D01*
X214559285Y-88098333D01*
X214606904Y-88193571D01*
X214606904Y-88717380D01*
X214940238Y-88050714D02*
X215321190Y-88050714D01*
X215083095Y-87717380D02*
X215083095Y-88574523D01*
X215130714Y-88669761D01*
X215225952Y-88717380D01*
X215321190Y-88717380D01*
X215654523Y-88717380D02*
X215654523Y-88050714D01*
X215654523Y-87717380D02*
X215606904Y-87765000D01*
X215654523Y-87812619D01*
X215702142Y-87765000D01*
X215654523Y-87717380D01*
X215654523Y-87812619D01*
X216130714Y-88050714D02*
X216130714Y-88717380D01*
X216130714Y-88145952D02*
X216178333Y-88098333D01*
X216273571Y-88050714D01*
X216416428Y-88050714D01*
X216511666Y-88098333D01*
X216559285Y-88193571D01*
X216559285Y-88717380D01*
X217464047Y-88050714D02*
X217464047Y-88860238D01*
X217416428Y-88955476D01*
X217368809Y-89003095D01*
X217273571Y-89050714D01*
X217130714Y-89050714D01*
X217035476Y-89003095D01*
X217464047Y-88669761D02*
X217368809Y-88717380D01*
X217178333Y-88717380D01*
X217083095Y-88669761D01*
X217035476Y-88622142D01*
X216987857Y-88526904D01*
X216987857Y-88241190D01*
X217035476Y-88145952D01*
X217083095Y-88098333D01*
X217178333Y-88050714D01*
X217368809Y-88050714D01*
X217464047Y-88098333D01*
X217940238Y-88717380D02*
X217940238Y-87717380D01*
X217940238Y-88193571D02*
X218511666Y-88193571D01*
X218511666Y-88717380D02*
X218511666Y-87717380D01*
X219130714Y-88717380D02*
X219035476Y-88669761D01*
X218987857Y-88622142D01*
X218940238Y-88526904D01*
X218940238Y-88241190D01*
X218987857Y-88145952D01*
X219035476Y-88098333D01*
X219130714Y-88050714D01*
X219273571Y-88050714D01*
X219368809Y-88098333D01*
X219416428Y-88145952D01*
X219464047Y-88241190D01*
X219464047Y-88526904D01*
X219416428Y-88622142D01*
X219368809Y-88669761D01*
X219273571Y-88717380D01*
X219130714Y-88717380D01*
X220035476Y-88717380D02*
X219940238Y-88669761D01*
X219892619Y-88574523D01*
X219892619Y-87717380D01*
X220797380Y-88669761D02*
X220702142Y-88717380D01*
X220511666Y-88717380D01*
X220416428Y-88669761D01*
X220368809Y-88574523D01*
X220368809Y-88193571D01*
X220416428Y-88098333D01*
X220511666Y-88050714D01*
X220702142Y-88050714D01*
X220797380Y-88098333D01*
X220845000Y-88193571D01*
X220845000Y-88288809D01*
X220368809Y-88384047D01*
X221035476Y-88812619D02*
X221797380Y-88812619D01*
X221987857Y-87812619D02*
X222035476Y-87765000D01*
X222130714Y-87717380D01*
X222368809Y-87717380D01*
X222464047Y-87765000D01*
X222511666Y-87812619D01*
X222559285Y-87907857D01*
X222559285Y-88003095D01*
X222511666Y-88145952D01*
X221940238Y-88717380D01*
X222559285Y-88717380D01*
X222987857Y-88622142D02*
X223035476Y-88669761D01*
X222987857Y-88717380D01*
X222940238Y-88669761D01*
X222987857Y-88622142D01*
X222987857Y-88717380D01*
X223416428Y-87812619D02*
X223464047Y-87765000D01*
X223559285Y-87717380D01*
X223797380Y-87717380D01*
X223892619Y-87765000D01*
X223940238Y-87812619D01*
X223987857Y-87907857D01*
X223987857Y-88003095D01*
X223940238Y-88145952D01*
X223368809Y-88717380D01*
X223987857Y-88717380D01*
X224416428Y-88717380D02*
X224416428Y-88050714D01*
X224416428Y-88145952D02*
X224464047Y-88098333D01*
X224559285Y-88050714D01*
X224702142Y-88050714D01*
X224797380Y-88098333D01*
X224845000Y-88193571D01*
X224845000Y-88717380D01*
X224845000Y-88193571D02*
X224892619Y-88098333D01*
X224987857Y-88050714D01*
X225130714Y-88050714D01*
X225225952Y-88098333D01*
X225273571Y-88193571D01*
X225273571Y-88717380D01*
X225749761Y-88717380D02*
X225749761Y-88050714D01*
X225749761Y-88145952D02*
X225797380Y-88098333D01*
X225892619Y-88050714D01*
X226035476Y-88050714D01*
X226130714Y-88098333D01*
X226178333Y-88193571D01*
X226178333Y-88717380D01*
X226178333Y-88193571D02*
X226225952Y-88098333D01*
X226321190Y-88050714D01*
X226464047Y-88050714D01*
X226559285Y-88098333D01*
X226606904Y-88193571D01*
X226606904Y-88717380D01*
X226845000Y-88812619D02*
X227606904Y-88812619D01*
X227845000Y-88717380D02*
X227845000Y-87717380D01*
X228178333Y-88431666D01*
X228511666Y-87717380D01*
X228511666Y-88717380D01*
X228940238Y-87812619D02*
X228987857Y-87765000D01*
X229083095Y-87717380D01*
X229321190Y-87717380D01*
X229416428Y-87765000D01*
X229464047Y-87812619D01*
X229511666Y-87907857D01*
X229511666Y-88003095D01*
X229464047Y-88145952D01*
X228892619Y-88717380D01*
X229511666Y-88717380D01*
X122325952Y-88717380D02*
X122325952Y-87717380D01*
X122659285Y-88431666D01*
X122992619Y-87717380D01*
X122992619Y-88717380D01*
X123611666Y-88717380D02*
X123516428Y-88669761D01*
X123468809Y-88622142D01*
X123421190Y-88526904D01*
X123421190Y-88241190D01*
X123468809Y-88145952D01*
X123516428Y-88098333D01*
X123611666Y-88050714D01*
X123754523Y-88050714D01*
X123849761Y-88098333D01*
X123897380Y-88145952D01*
X123944999Y-88241190D01*
X123944999Y-88526904D01*
X123897380Y-88622142D01*
X123849761Y-88669761D01*
X123754523Y-88717380D01*
X123611666Y-88717380D01*
X124802142Y-88050714D02*
X124802142Y-88717380D01*
X124373571Y-88050714D02*
X124373571Y-88574523D01*
X124421190Y-88669761D01*
X124516428Y-88717380D01*
X124659285Y-88717380D01*
X124754523Y-88669761D01*
X124802142Y-88622142D01*
X125278333Y-88050714D02*
X125278333Y-88717380D01*
X125278333Y-88145952D02*
X125325952Y-88098333D01*
X125421190Y-88050714D01*
X125564047Y-88050714D01*
X125659285Y-88098333D01*
X125706904Y-88193571D01*
X125706904Y-88717380D01*
X126040238Y-88050714D02*
X126421190Y-88050714D01*
X126183095Y-87717380D02*
X126183095Y-88574523D01*
X126230714Y-88669761D01*
X126325952Y-88717380D01*
X126421190Y-88717380D01*
X126754523Y-88717380D02*
X126754523Y-88050714D01*
X126754523Y-87717380D02*
X126706904Y-87765000D01*
X126754523Y-87812619D01*
X126802142Y-87765000D01*
X126754523Y-87717380D01*
X126754523Y-87812619D01*
X127230714Y-88050714D02*
X127230714Y-88717380D01*
X127230714Y-88145952D02*
X127278333Y-88098333D01*
X127373571Y-88050714D01*
X127516428Y-88050714D01*
X127611666Y-88098333D01*
X127659285Y-88193571D01*
X127659285Y-88717380D01*
X128564047Y-88050714D02*
X128564047Y-88860238D01*
X128516428Y-88955476D01*
X128468809Y-89003095D01*
X128373571Y-89050714D01*
X128230714Y-89050714D01*
X128135476Y-89003095D01*
X128564047Y-88669761D02*
X128468809Y-88717380D01*
X128278333Y-88717380D01*
X128183095Y-88669761D01*
X128135476Y-88622142D01*
X128087857Y-88526904D01*
X128087857Y-88241190D01*
X128135476Y-88145952D01*
X128183095Y-88098333D01*
X128278333Y-88050714D01*
X128468809Y-88050714D01*
X128564047Y-88098333D01*
X129040238Y-88717380D02*
X129040238Y-87717380D01*
X129040238Y-88193571D02*
X129611666Y-88193571D01*
X129611666Y-88717380D02*
X129611666Y-87717380D01*
X130230714Y-88717380D02*
X130135476Y-88669761D01*
X130087857Y-88622142D01*
X130040238Y-88526904D01*
X130040238Y-88241190D01*
X130087857Y-88145952D01*
X130135476Y-88098333D01*
X130230714Y-88050714D01*
X130373571Y-88050714D01*
X130468809Y-88098333D01*
X130516428Y-88145952D01*
X130564047Y-88241190D01*
X130564047Y-88526904D01*
X130516428Y-88622142D01*
X130468809Y-88669761D01*
X130373571Y-88717380D01*
X130230714Y-88717380D01*
X131135476Y-88717380D02*
X131040238Y-88669761D01*
X130992619Y-88574523D01*
X130992619Y-87717380D01*
X131897380Y-88669761D02*
X131802142Y-88717380D01*
X131611666Y-88717380D01*
X131516428Y-88669761D01*
X131468809Y-88574523D01*
X131468809Y-88193571D01*
X131516428Y-88098333D01*
X131611666Y-88050714D01*
X131802142Y-88050714D01*
X131897380Y-88098333D01*
X131944999Y-88193571D01*
X131944999Y-88288809D01*
X131468809Y-88384047D01*
X132135476Y-88812619D02*
X132897380Y-88812619D01*
X133087857Y-87812619D02*
X133135476Y-87765000D01*
X133230714Y-87717380D01*
X133468809Y-87717380D01*
X133564047Y-87765000D01*
X133611666Y-87812619D01*
X133659285Y-87907857D01*
X133659285Y-88003095D01*
X133611666Y-88145952D01*
X133040238Y-88717380D01*
X133659285Y-88717380D01*
X134087857Y-88622142D02*
X134135476Y-88669761D01*
X134087857Y-88717380D01*
X134040238Y-88669761D01*
X134087857Y-88622142D01*
X134087857Y-88717380D01*
X134516428Y-87812619D02*
X134564047Y-87765000D01*
X134659285Y-87717380D01*
X134897380Y-87717380D01*
X134992619Y-87765000D01*
X135040238Y-87812619D01*
X135087857Y-87907857D01*
X135087857Y-88003095D01*
X135040238Y-88145952D01*
X134468809Y-88717380D01*
X135087857Y-88717380D01*
X135516428Y-88717380D02*
X135516428Y-88050714D01*
X135516428Y-88145952D02*
X135564047Y-88098333D01*
X135659285Y-88050714D01*
X135802142Y-88050714D01*
X135897380Y-88098333D01*
X135945000Y-88193571D01*
X135945000Y-88717380D01*
X135945000Y-88193571D02*
X135992619Y-88098333D01*
X136087857Y-88050714D01*
X136230714Y-88050714D01*
X136325952Y-88098333D01*
X136373571Y-88193571D01*
X136373571Y-88717380D01*
X136849761Y-88717380D02*
X136849761Y-88050714D01*
X136849761Y-88145952D02*
X136897380Y-88098333D01*
X136992619Y-88050714D01*
X137135476Y-88050714D01*
X137230714Y-88098333D01*
X137278333Y-88193571D01*
X137278333Y-88717380D01*
X137278333Y-88193571D02*
X137325952Y-88098333D01*
X137421190Y-88050714D01*
X137564047Y-88050714D01*
X137659285Y-88098333D01*
X137706904Y-88193571D01*
X137706904Y-88717380D01*
X137945000Y-88812619D02*
X138706904Y-88812619D01*
X138945000Y-88717380D02*
X138945000Y-87717380D01*
X139278333Y-88431666D01*
X139611666Y-87717380D01*
X139611666Y-88717380D01*
X140040238Y-87812619D02*
X140087857Y-87765000D01*
X140183095Y-87717380D01*
X140421190Y-87717380D01*
X140516428Y-87765000D01*
X140564047Y-87812619D01*
X140611666Y-87907857D01*
X140611666Y-88003095D01*
X140564047Y-88145952D01*
X139992619Y-88717380D01*
X140611666Y-88717380D01*
X130300476Y-84272380D02*
X130300476Y-83272380D01*
X130633809Y-83986666D01*
X130967142Y-83272380D01*
X130967142Y-84272380D01*
X131871904Y-83605714D02*
X131871904Y-84272380D01*
X131633809Y-83224761D02*
X131395714Y-83939047D01*
X132014761Y-83939047D01*
X152947809Y-49728380D02*
X152376380Y-49728380D01*
X152662095Y-49728380D02*
X152662095Y-48728380D01*
X152566857Y-48871238D01*
X152471619Y-48966476D01*
X152376380Y-49014095D01*
X153566857Y-48728380D02*
X153662095Y-48728380D01*
X153757333Y-48776000D01*
X153804952Y-48823619D01*
X153852571Y-48918857D01*
X153900190Y-49109333D01*
X153900190Y-49347428D01*
X153852571Y-49537904D01*
X153804952Y-49633142D01*
X153757333Y-49680761D01*
X153662095Y-49728380D01*
X153566857Y-49728380D01*
X153471619Y-49680761D01*
X153424000Y-49633142D01*
X153376380Y-49537904D01*
X153328761Y-49347428D01*
X153328761Y-49109333D01*
X153376380Y-48918857D01*
X153424000Y-48823619D01*
X153471619Y-48776000D01*
X153566857Y-48728380D01*
X154328761Y-49728380D02*
X154328761Y-48728380D01*
X154424000Y-49347428D02*
X154709714Y-49728380D01*
X154709714Y-49061714D02*
X154328761Y-49442666D01*
X152947809Y-53792380D02*
X152376380Y-53792380D01*
X152662095Y-53792380D02*
X152662095Y-52792380D01*
X152566857Y-52935238D01*
X152471619Y-53030476D01*
X152376380Y-53078095D01*
X153566857Y-52792380D02*
X153662095Y-52792380D01*
X153757333Y-52840000D01*
X153804952Y-52887619D01*
X153852571Y-52982857D01*
X153900190Y-53173333D01*
X153900190Y-53411428D01*
X153852571Y-53601904D01*
X153804952Y-53697142D01*
X153757333Y-53744761D01*
X153662095Y-53792380D01*
X153566857Y-53792380D01*
X153471619Y-53744761D01*
X153424000Y-53697142D01*
X153376380Y-53601904D01*
X153328761Y-53411428D01*
X153328761Y-53173333D01*
X153376380Y-52982857D01*
X153424000Y-52887619D01*
X153471619Y-52840000D01*
X153566857Y-52792380D01*
X154328761Y-53792380D02*
X154328761Y-52792380D01*
X154424000Y-53411428D02*
X154709714Y-53792380D01*
X154709714Y-53125714D02*
X154328761Y-53506666D01*
X152947809Y-57856380D02*
X152376380Y-57856380D01*
X152662095Y-57856380D02*
X152662095Y-56856380D01*
X152566857Y-56999238D01*
X152471619Y-57094476D01*
X152376380Y-57142095D01*
X153566857Y-56856380D02*
X153662095Y-56856380D01*
X153757333Y-56904000D01*
X153804952Y-56951619D01*
X153852571Y-57046857D01*
X153900190Y-57237333D01*
X153900190Y-57475428D01*
X153852571Y-57665904D01*
X153804952Y-57761142D01*
X153757333Y-57808761D01*
X153662095Y-57856380D01*
X153566857Y-57856380D01*
X153471619Y-57808761D01*
X153424000Y-57761142D01*
X153376380Y-57665904D01*
X153328761Y-57475428D01*
X153328761Y-57237333D01*
X153376380Y-57046857D01*
X153424000Y-56951619D01*
X153471619Y-56904000D01*
X153566857Y-56856380D01*
X154328761Y-57856380D02*
X154328761Y-56856380D01*
X154424000Y-57475428D02*
X154709714Y-57856380D01*
X154709714Y-57189714D02*
X154328761Y-57570666D01*
X163615809Y-49728380D02*
X163044380Y-49728380D01*
X163330095Y-49728380D02*
X163330095Y-48728380D01*
X163234857Y-48871238D01*
X163139619Y-48966476D01*
X163044380Y-49014095D01*
X164234857Y-48728380D02*
X164330095Y-48728380D01*
X164425333Y-48776000D01*
X164472952Y-48823619D01*
X164520571Y-48918857D01*
X164568190Y-49109333D01*
X164568190Y-49347428D01*
X164520571Y-49537904D01*
X164472952Y-49633142D01*
X164425333Y-49680761D01*
X164330095Y-49728380D01*
X164234857Y-49728380D01*
X164139619Y-49680761D01*
X164092000Y-49633142D01*
X164044380Y-49537904D01*
X163996761Y-49347428D01*
X163996761Y-49109333D01*
X164044380Y-48918857D01*
X164092000Y-48823619D01*
X164139619Y-48776000D01*
X164234857Y-48728380D01*
X164996761Y-49728380D02*
X164996761Y-48728380D01*
X165092000Y-49347428D02*
X165377714Y-49728380D01*
X165377714Y-49061714D02*
X164996761Y-49442666D01*
X221440476Y-29662380D02*
X221440476Y-28662380D01*
X221773809Y-29376666D01*
X222107142Y-28662380D01*
X222107142Y-29662380D01*
X222535714Y-28757619D02*
X222583333Y-28710000D01*
X222678571Y-28662380D01*
X222916666Y-28662380D01*
X223011904Y-28710000D01*
X223059523Y-28757619D01*
X223107142Y-28852857D01*
X223107142Y-28948095D01*
X223059523Y-29090952D01*
X222488095Y-29662380D01*
X223107142Y-29662380D01*
X130000476Y-29662380D02*
X130000476Y-28662380D01*
X130333809Y-29376666D01*
X130667142Y-28662380D01*
X130667142Y-29662380D01*
X131667142Y-29662380D02*
X131095714Y-29662380D01*
X131381428Y-29662380D02*
X131381428Y-28662380D01*
X131286190Y-28805238D01*
X131190952Y-28900476D01*
X131095714Y-28948095D01*
X123650476Y-30297380D02*
X123650476Y-29297380D01*
X123983809Y-30011666D01*
X124317142Y-29297380D01*
X124317142Y-30297380D01*
X125317142Y-30297380D02*
X124745714Y-30297380D01*
X125031428Y-30297380D02*
X125031428Y-29297380D01*
X124936190Y-29440238D01*
X124840952Y-29535476D01*
X124745714Y-29583095D01*
X150867380Y-34587619D02*
X150867380Y-35159047D01*
X150867380Y-34873333D02*
X149867380Y-34873333D01*
X150010238Y-34968571D01*
X150105476Y-35063809D01*
X150153095Y-35159047D01*
X149867380Y-33968571D02*
X149867380Y-33873333D01*
X149915000Y-33778095D01*
X149962619Y-33730476D01*
X150057857Y-33682857D01*
X150248333Y-33635238D01*
X150486428Y-33635238D01*
X150676904Y-33682857D01*
X150772142Y-33730476D01*
X150819761Y-33778095D01*
X150867380Y-33873333D01*
X150867380Y-33968571D01*
X150819761Y-34063809D01*
X150772142Y-34111428D01*
X150676904Y-34159047D01*
X150486428Y-34206666D01*
X150248333Y-34206666D01*
X150057857Y-34159047D01*
X149962619Y-34111428D01*
X149915000Y-34063809D01*
X149867380Y-33968571D01*
X149867380Y-33016190D02*
X149867380Y-32920952D01*
X149915000Y-32825714D01*
X149962619Y-32778095D01*
X150057857Y-32730476D01*
X150248333Y-32682857D01*
X150486428Y-32682857D01*
X150676904Y-32730476D01*
X150772142Y-32778095D01*
X150819761Y-32825714D01*
X150867380Y-32920952D01*
X150867380Y-33016190D01*
X150819761Y-33111428D01*
X150772142Y-33159047D01*
X150676904Y-33206666D01*
X150486428Y-33254285D01*
X150248333Y-33254285D01*
X150057857Y-33206666D01*
X149962619Y-33159047D01*
X149915000Y-33111428D01*
X149867380Y-33016190D01*
X150200714Y-32254285D02*
X150867380Y-32254285D01*
X150295952Y-32254285D02*
X150248333Y-32206666D01*
X150200714Y-32111428D01*
X150200714Y-31968571D01*
X150248333Y-31873333D01*
X150343571Y-31825714D01*
X150867380Y-31825714D01*
X150343571Y-31016190D02*
X150343571Y-31349523D01*
X150867380Y-31349523D02*
X149867380Y-31349523D01*
X149867380Y-30873333D01*
X145772142Y-33206666D02*
X145819761Y-33254285D01*
X145867380Y-33397142D01*
X145867380Y-33492380D01*
X145819761Y-33635238D01*
X145724523Y-33730476D01*
X145629285Y-33778095D01*
X145438809Y-33825714D01*
X145295952Y-33825714D01*
X145105476Y-33778095D01*
X145010238Y-33730476D01*
X144915000Y-33635238D01*
X144867380Y-33492380D01*
X144867380Y-33397142D01*
X144915000Y-33254285D01*
X144962619Y-33206666D01*
X145867380Y-32254285D02*
X145867380Y-32825714D01*
X145867380Y-32540000D02*
X144867380Y-32540000D01*
X145010238Y-32635238D01*
X145105476Y-32730476D01*
X145153095Y-32825714D01*
X202294380Y-73540857D02*
X202294380Y-74017047D01*
X201294380Y-74017047D01*
X201770571Y-73207523D02*
X201770571Y-72874190D01*
X202294380Y-72731333D02*
X202294380Y-73207523D01*
X201294380Y-73207523D01*
X201294380Y-72731333D01*
X202294380Y-72302761D02*
X201294380Y-72302761D01*
X201294380Y-72064666D01*
X201342000Y-71921809D01*
X201437238Y-71826571D01*
X201532476Y-71778952D01*
X201722952Y-71731333D01*
X201865809Y-71731333D01*
X202056285Y-71778952D01*
X202151523Y-71826571D01*
X202246761Y-71921809D01*
X202294380Y-72064666D01*
X202294380Y-72302761D01*
X195690380Y-73540857D02*
X195690380Y-74017047D01*
X194690380Y-74017047D01*
X195166571Y-73207523D02*
X195166571Y-72874190D01*
X195690380Y-72731333D02*
X195690380Y-73207523D01*
X194690380Y-73207523D01*
X194690380Y-72731333D01*
X195690380Y-72302761D02*
X194690380Y-72302761D01*
X194690380Y-72064666D01*
X194738000Y-71921809D01*
X194833238Y-71826571D01*
X194928476Y-71778952D01*
X195118952Y-71731333D01*
X195261809Y-71731333D01*
X195452285Y-71778952D01*
X195547523Y-71826571D01*
X195642761Y-71921809D01*
X195690380Y-72064666D01*
X195690380Y-72302761D01*
X189086380Y-73540857D02*
X189086380Y-74017047D01*
X188086380Y-74017047D01*
X188562571Y-73207523D02*
X188562571Y-72874190D01*
X189086380Y-72731333D02*
X189086380Y-73207523D01*
X188086380Y-73207523D01*
X188086380Y-72731333D01*
X189086380Y-72302761D02*
X188086380Y-72302761D01*
X188086380Y-72064666D01*
X188134000Y-71921809D01*
X188229238Y-71826571D01*
X188324476Y-71778952D01*
X188514952Y-71731333D01*
X188657809Y-71731333D01*
X188848285Y-71778952D01*
X188943523Y-71826571D01*
X189038761Y-71921809D01*
X189086380Y-72064666D01*
X189086380Y-72302761D01*
X182482380Y-73540857D02*
X182482380Y-74017047D01*
X181482380Y-74017047D01*
X181958571Y-73207523D02*
X181958571Y-72874190D01*
X182482380Y-72731333D02*
X182482380Y-73207523D01*
X181482380Y-73207523D01*
X181482380Y-72731333D01*
X182482380Y-72302761D02*
X181482380Y-72302761D01*
X181482380Y-72064666D01*
X181530000Y-71921809D01*
X181625238Y-71826571D01*
X181720476Y-71778952D01*
X181910952Y-71731333D01*
X182053809Y-71731333D01*
X182244285Y-71778952D01*
X182339523Y-71826571D01*
X182434761Y-71921809D01*
X182482380Y-72064666D01*
X182482380Y-72302761D01*
X207982380Y-33241904D02*
X208982380Y-32908571D01*
X207982380Y-32575238D01*
X208982380Y-32241904D02*
X207982380Y-32241904D01*
X208982380Y-31670476D01*
X207982380Y-31670476D01*
X208077619Y-31241904D02*
X208030000Y-31194285D01*
X207982380Y-31099047D01*
X207982380Y-30860952D01*
X208030000Y-30765714D01*
X208077619Y-30718095D01*
X208172857Y-30670476D01*
X208268095Y-30670476D01*
X208410952Y-30718095D01*
X208982380Y-31289523D01*
X208982380Y-30670476D01*
X208077619Y-30289523D02*
X208030000Y-30241904D01*
X207982380Y-30146666D01*
X207982380Y-29908571D01*
X208030000Y-29813333D01*
X208077619Y-29765714D01*
X208172857Y-29718095D01*
X208268095Y-29718095D01*
X208410952Y-29765714D01*
X208982380Y-30337142D01*
X208982380Y-29718095D01*
X208077619Y-29337142D02*
X208030000Y-29289523D01*
X207982380Y-29194285D01*
X207982380Y-28956190D01*
X208030000Y-28860952D01*
X208077619Y-28813333D01*
X208172857Y-28765714D01*
X208268095Y-28765714D01*
X208410952Y-28813333D01*
X208982380Y-29384761D01*
X208982380Y-28765714D01*
X208077619Y-28384761D02*
X208030000Y-28337142D01*
X207982380Y-28241904D01*
X207982380Y-28003809D01*
X208030000Y-27908571D01*
X208077619Y-27860952D01*
X208172857Y-27813333D01*
X208268095Y-27813333D01*
X208410952Y-27860952D01*
X208982380Y-28432380D01*
X208982380Y-27813333D01*
X202727619Y-30575238D02*
X202680000Y-30670476D01*
X202584761Y-30765714D01*
X202441904Y-30908571D01*
X202394285Y-31003809D01*
X202394285Y-31099047D01*
X202632380Y-31051428D02*
X202584761Y-31146666D01*
X202489523Y-31241904D01*
X202299047Y-31289523D01*
X201965714Y-31289523D01*
X201775238Y-31241904D01*
X201680000Y-31146666D01*
X201632380Y-31051428D01*
X201632380Y-30860952D01*
X201680000Y-30765714D01*
X201775238Y-30670476D01*
X201965714Y-30622857D01*
X202299047Y-30622857D01*
X202489523Y-30670476D01*
X202584761Y-30765714D01*
X202632380Y-30860952D01*
X202632380Y-31051428D01*
X202632380Y-29670476D02*
X202632380Y-30241904D01*
X202632380Y-29956190D02*
X201632380Y-29956190D01*
X201775238Y-30051428D01*
X201870476Y-30146666D01*
X201918095Y-30241904D01*
X216872380Y-33241904D02*
X217872380Y-32908571D01*
X216872380Y-32575238D01*
X217872380Y-32241904D02*
X216872380Y-32241904D01*
X217872380Y-31670476D01*
X216872380Y-31670476D01*
X216967619Y-31241904D02*
X216920000Y-31194285D01*
X216872380Y-31099047D01*
X216872380Y-30860952D01*
X216920000Y-30765714D01*
X216967619Y-30718095D01*
X217062857Y-30670476D01*
X217158095Y-30670476D01*
X217300952Y-30718095D01*
X217872380Y-31289523D01*
X217872380Y-30670476D01*
X216967619Y-30289523D02*
X216920000Y-30241904D01*
X216872380Y-30146666D01*
X216872380Y-29908571D01*
X216920000Y-29813333D01*
X216967619Y-29765714D01*
X217062857Y-29718095D01*
X217158095Y-29718095D01*
X217300952Y-29765714D01*
X217872380Y-30337142D01*
X217872380Y-29718095D01*
X216967619Y-29337142D02*
X216920000Y-29289523D01*
X216872380Y-29194285D01*
X216872380Y-28956190D01*
X216920000Y-28860952D01*
X216967619Y-28813333D01*
X217062857Y-28765714D01*
X217158095Y-28765714D01*
X217300952Y-28813333D01*
X217872380Y-29384761D01*
X217872380Y-28765714D01*
X216967619Y-28384761D02*
X216920000Y-28337142D01*
X216872380Y-28241904D01*
X216872380Y-28003809D01*
X216920000Y-27908571D01*
X216967619Y-27860952D01*
X217062857Y-27813333D01*
X217158095Y-27813333D01*
X217300952Y-27860952D01*
X217872380Y-28432380D01*
X217872380Y-27813333D01*
X211617619Y-30575238D02*
X211570000Y-30670476D01*
X211474761Y-30765714D01*
X211331904Y-30908571D01*
X211284285Y-31003809D01*
X211284285Y-31099047D01*
X211522380Y-31051428D02*
X211474761Y-31146666D01*
X211379523Y-31241904D01*
X211189047Y-31289523D01*
X210855714Y-31289523D01*
X210665238Y-31241904D01*
X210570000Y-31146666D01*
X210522380Y-31051428D01*
X210522380Y-30860952D01*
X210570000Y-30765714D01*
X210665238Y-30670476D01*
X210855714Y-30622857D01*
X211189047Y-30622857D01*
X211379523Y-30670476D01*
X211474761Y-30765714D01*
X211522380Y-30860952D01*
X211522380Y-31051428D01*
X210617619Y-30241904D02*
X210570000Y-30194285D01*
X210522380Y-30099047D01*
X210522380Y-29860952D01*
X210570000Y-29765714D01*
X210617619Y-29718095D01*
X210712857Y-29670476D01*
X210808095Y-29670476D01*
X210950952Y-29718095D01*
X211522380Y-30289523D01*
X211522380Y-29670476D01*
X173513904Y-56951619D02*
X173561523Y-56904000D01*
X173656761Y-56856380D01*
X173894857Y-56856380D01*
X173990095Y-56904000D01*
X174037714Y-56951619D01*
X174085333Y-57046857D01*
X174085333Y-57142095D01*
X174037714Y-57284952D01*
X173466285Y-57856380D01*
X174085333Y-57856380D01*
X174418666Y-56856380D02*
X175085333Y-56856380D01*
X174656761Y-57856380D01*
X175656761Y-56856380D02*
X175752000Y-56856380D01*
X175847238Y-56904000D01*
X175894857Y-56951619D01*
X175942476Y-57046857D01*
X175990095Y-57237333D01*
X175990095Y-57475428D01*
X175942476Y-57665904D01*
X175894857Y-57761142D01*
X175847238Y-57808761D01*
X175752000Y-57856380D01*
X175656761Y-57856380D01*
X175561523Y-57808761D01*
X175513904Y-57761142D01*
X175466285Y-57665904D01*
X175418666Y-57475428D01*
X175418666Y-57237333D01*
X175466285Y-57046857D01*
X175513904Y-56951619D01*
X175561523Y-56904000D01*
X175656761Y-56856380D01*
X184181904Y-48823619D02*
X184229523Y-48776000D01*
X184324761Y-48728380D01*
X184562857Y-48728380D01*
X184658095Y-48776000D01*
X184705714Y-48823619D01*
X184753333Y-48918857D01*
X184753333Y-49014095D01*
X184705714Y-49156952D01*
X184134285Y-49728380D01*
X184753333Y-49728380D01*
X185086666Y-48728380D02*
X185753333Y-48728380D01*
X185324761Y-49728380D01*
X186324761Y-48728380D02*
X186420000Y-48728380D01*
X186515238Y-48776000D01*
X186562857Y-48823619D01*
X186610476Y-48918857D01*
X186658095Y-49109333D01*
X186658095Y-49347428D01*
X186610476Y-49537904D01*
X186562857Y-49633142D01*
X186515238Y-49680761D01*
X186420000Y-49728380D01*
X186324761Y-49728380D01*
X186229523Y-49680761D01*
X186181904Y-49633142D01*
X186134285Y-49537904D01*
X186086666Y-49347428D01*
X186086666Y-49109333D01*
X186134285Y-48918857D01*
X186181904Y-48823619D01*
X186229523Y-48776000D01*
X186324761Y-48728380D01*
X181641904Y-56951619D02*
X181689523Y-56904000D01*
X181784761Y-56856380D01*
X182022857Y-56856380D01*
X182118095Y-56904000D01*
X182165714Y-56951619D01*
X182213333Y-57046857D01*
X182213333Y-57142095D01*
X182165714Y-57284952D01*
X181594285Y-57856380D01*
X182213333Y-57856380D01*
X182546666Y-56856380D02*
X183213333Y-56856380D01*
X182784761Y-57856380D01*
X183784761Y-56856380D02*
X183880000Y-56856380D01*
X183975238Y-56904000D01*
X184022857Y-56951619D01*
X184070476Y-57046857D01*
X184118095Y-57237333D01*
X184118095Y-57475428D01*
X184070476Y-57665904D01*
X184022857Y-57761142D01*
X183975238Y-57808761D01*
X183880000Y-57856380D01*
X183784761Y-57856380D01*
X183689523Y-57808761D01*
X183641904Y-57761142D01*
X183594285Y-57665904D01*
X183546666Y-57475428D01*
X183546666Y-57237333D01*
X183594285Y-57046857D01*
X183641904Y-56951619D01*
X183689523Y-56904000D01*
X183784761Y-56856380D01*
X181641904Y-52887619D02*
X181689523Y-52840000D01*
X181784761Y-52792380D01*
X182022857Y-52792380D01*
X182118095Y-52840000D01*
X182165714Y-52887619D01*
X182213333Y-52982857D01*
X182213333Y-53078095D01*
X182165714Y-53220952D01*
X181594285Y-53792380D01*
X182213333Y-53792380D01*
X182546666Y-52792380D02*
X183213333Y-52792380D01*
X182784761Y-53792380D01*
X183784761Y-52792380D02*
X183880000Y-52792380D01*
X183975238Y-52840000D01*
X184022857Y-52887619D01*
X184070476Y-52982857D01*
X184118095Y-53173333D01*
X184118095Y-53411428D01*
X184070476Y-53601904D01*
X184022857Y-53697142D01*
X183975238Y-53744761D01*
X183880000Y-53792380D01*
X183784761Y-53792380D01*
X183689523Y-53744761D01*
X183641904Y-53697142D01*
X183594285Y-53601904D01*
X183546666Y-53411428D01*
X183546666Y-53173333D01*
X183594285Y-52982857D01*
X183641904Y-52887619D01*
X183689523Y-52840000D01*
X183784761Y-52792380D01*
X163322095Y-57189714D02*
X163322095Y-57856380D01*
X163084000Y-56808761D02*
X162845904Y-57523047D01*
X163464952Y-57523047D01*
X163750666Y-56856380D02*
X164417333Y-56856380D01*
X163988761Y-57856380D01*
X164988761Y-56856380D02*
X165084000Y-56856380D01*
X165179238Y-56904000D01*
X165226857Y-56951619D01*
X165274476Y-57046857D01*
X165322095Y-57237333D01*
X165322095Y-57475428D01*
X165274476Y-57665904D01*
X165226857Y-57761142D01*
X165179238Y-57808761D01*
X165084000Y-57856380D01*
X164988761Y-57856380D01*
X164893523Y-57808761D01*
X164845904Y-57761142D01*
X164798285Y-57665904D01*
X164750666Y-57475428D01*
X164750666Y-57237333D01*
X164798285Y-57046857D01*
X164845904Y-56951619D01*
X164893523Y-56904000D01*
X164988761Y-56856380D01*
X163322095Y-53125714D02*
X163322095Y-53792380D01*
X163084000Y-52744761D02*
X162845904Y-53459047D01*
X163464952Y-53459047D01*
X163750666Y-52792380D02*
X164417333Y-52792380D01*
X163988761Y-53792380D01*
X164988761Y-52792380D02*
X165084000Y-52792380D01*
X165179238Y-52840000D01*
X165226857Y-52887619D01*
X165274476Y-52982857D01*
X165322095Y-53173333D01*
X165322095Y-53411428D01*
X165274476Y-53601904D01*
X165226857Y-53697142D01*
X165179238Y-53744761D01*
X165084000Y-53792380D01*
X164988761Y-53792380D01*
X164893523Y-53744761D01*
X164845904Y-53697142D01*
X164798285Y-53601904D01*
X164750666Y-53411428D01*
X164750666Y-53173333D01*
X164798285Y-52982857D01*
X164845904Y-52887619D01*
X164893523Y-52840000D01*
X164988761Y-52792380D01*
X173990095Y-49061714D02*
X173990095Y-49728380D01*
X173752000Y-48680761D02*
X173513904Y-49395047D01*
X174132952Y-49395047D01*
X174418666Y-48728380D02*
X175085333Y-48728380D01*
X174656761Y-49728380D01*
X175656761Y-48728380D02*
X175752000Y-48728380D01*
X175847238Y-48776000D01*
X175894857Y-48823619D01*
X175942476Y-48918857D01*
X175990095Y-49109333D01*
X175990095Y-49347428D01*
X175942476Y-49537904D01*
X175894857Y-49633142D01*
X175847238Y-49680761D01*
X175752000Y-49728380D01*
X175656761Y-49728380D01*
X175561523Y-49680761D01*
X175513904Y-49633142D01*
X175466285Y-49537904D01*
X175418666Y-49347428D01*
X175418666Y-49109333D01*
X175466285Y-48918857D01*
X175513904Y-48823619D01*
X175561523Y-48776000D01*
X175656761Y-48728380D01*
X173990095Y-53125714D02*
X173990095Y-53792380D01*
X173752000Y-52744761D02*
X173513904Y-53459047D01*
X174132952Y-53459047D01*
X174418666Y-52792380D02*
X175085333Y-52792380D01*
X174656761Y-53792380D01*
X175656761Y-52792380D02*
X175752000Y-52792380D01*
X175847238Y-52840000D01*
X175894857Y-52887619D01*
X175942476Y-52982857D01*
X175990095Y-53173333D01*
X175990095Y-53411428D01*
X175942476Y-53601904D01*
X175894857Y-53697142D01*
X175847238Y-53744761D01*
X175752000Y-53792380D01*
X175656761Y-53792380D01*
X175561523Y-53744761D01*
X175513904Y-53697142D01*
X175466285Y-53601904D01*
X175418666Y-53411428D01*
X175418666Y-53173333D01*
X175466285Y-52982857D01*
X175513904Y-52887619D01*
X175561523Y-52840000D01*
X175656761Y-52792380D01*
X205144761Y-37282380D02*
X204573333Y-37282380D01*
X204859047Y-37282380D02*
X204859047Y-36282380D01*
X204763809Y-36425238D01*
X204668571Y-36520476D01*
X204573333Y-36568095D01*
X205763809Y-36282380D02*
X205859047Y-36282380D01*
X205954285Y-36330000D01*
X206001904Y-36377619D01*
X206049523Y-36472857D01*
X206097142Y-36663333D01*
X206097142Y-36901428D01*
X206049523Y-37091904D01*
X206001904Y-37187142D01*
X205954285Y-37234761D01*
X205859047Y-37282380D01*
X205763809Y-37282380D01*
X205668571Y-37234761D01*
X205620952Y-37187142D01*
X205573333Y-37091904D01*
X205525714Y-36901428D01*
X205525714Y-36663333D01*
X205573333Y-36472857D01*
X205620952Y-36377619D01*
X205668571Y-36330000D01*
X205763809Y-36282380D01*
X206525714Y-37282380D02*
X206525714Y-36282380D01*
X206620952Y-36901428D02*
X206906666Y-37282380D01*
X206906666Y-36615714D02*
X206525714Y-36996666D01*
X194802285Y-48728380D02*
X195421333Y-48728380D01*
X195088000Y-49109333D01*
X195230857Y-49109333D01*
X195326095Y-49156952D01*
X195373714Y-49204571D01*
X195421333Y-49299809D01*
X195421333Y-49537904D01*
X195373714Y-49633142D01*
X195326095Y-49680761D01*
X195230857Y-49728380D01*
X194945142Y-49728380D01*
X194849904Y-49680761D01*
X194802285Y-49633142D01*
X195754666Y-48728380D02*
X196373714Y-48728380D01*
X196040380Y-49109333D01*
X196183238Y-49109333D01*
X196278476Y-49156952D01*
X196326095Y-49204571D01*
X196373714Y-49299809D01*
X196373714Y-49537904D01*
X196326095Y-49633142D01*
X196278476Y-49680761D01*
X196183238Y-49728380D01*
X195897523Y-49728380D01*
X195802285Y-49680761D01*
X195754666Y-49633142D01*
X196992761Y-48728380D02*
X197088000Y-48728380D01*
X197183238Y-48776000D01*
X197230857Y-48823619D01*
X197278476Y-48918857D01*
X197326095Y-49109333D01*
X197326095Y-49347428D01*
X197278476Y-49537904D01*
X197230857Y-49633142D01*
X197183238Y-49680761D01*
X197088000Y-49728380D01*
X196992761Y-49728380D01*
X196897523Y-49680761D01*
X196849904Y-49633142D01*
X196802285Y-49537904D01*
X196754666Y-49347428D01*
X196754666Y-49109333D01*
X196802285Y-48918857D01*
X196849904Y-48823619D01*
X196897523Y-48776000D01*
X196992761Y-48728380D01*
X194802285Y-52792380D02*
X195421333Y-52792380D01*
X195088000Y-53173333D01*
X195230857Y-53173333D01*
X195326095Y-53220952D01*
X195373714Y-53268571D01*
X195421333Y-53363809D01*
X195421333Y-53601904D01*
X195373714Y-53697142D01*
X195326095Y-53744761D01*
X195230857Y-53792380D01*
X194945142Y-53792380D01*
X194849904Y-53744761D01*
X194802285Y-53697142D01*
X195754666Y-52792380D02*
X196373714Y-52792380D01*
X196040380Y-53173333D01*
X196183238Y-53173333D01*
X196278476Y-53220952D01*
X196326095Y-53268571D01*
X196373714Y-53363809D01*
X196373714Y-53601904D01*
X196326095Y-53697142D01*
X196278476Y-53744761D01*
X196183238Y-53792380D01*
X195897523Y-53792380D01*
X195802285Y-53744761D01*
X195754666Y-53697142D01*
X196992761Y-52792380D02*
X197088000Y-52792380D01*
X197183238Y-52840000D01*
X197230857Y-52887619D01*
X197278476Y-52982857D01*
X197326095Y-53173333D01*
X197326095Y-53411428D01*
X197278476Y-53601904D01*
X197230857Y-53697142D01*
X197183238Y-53744761D01*
X197088000Y-53792380D01*
X196992761Y-53792380D01*
X196897523Y-53744761D01*
X196849904Y-53697142D01*
X196802285Y-53601904D01*
X196754666Y-53411428D01*
X196754666Y-53173333D01*
X196802285Y-52982857D01*
X196849904Y-52887619D01*
X196897523Y-52840000D01*
X196992761Y-52792380D01*
X194802285Y-56856380D02*
X195421333Y-56856380D01*
X195088000Y-57237333D01*
X195230857Y-57237333D01*
X195326095Y-57284952D01*
X195373714Y-57332571D01*
X195421333Y-57427809D01*
X195421333Y-57665904D01*
X195373714Y-57761142D01*
X195326095Y-57808761D01*
X195230857Y-57856380D01*
X194945142Y-57856380D01*
X194849904Y-57808761D01*
X194802285Y-57761142D01*
X195754666Y-56856380D02*
X196373714Y-56856380D01*
X196040380Y-57237333D01*
X196183238Y-57237333D01*
X196278476Y-57284952D01*
X196326095Y-57332571D01*
X196373714Y-57427809D01*
X196373714Y-57665904D01*
X196326095Y-57761142D01*
X196278476Y-57808761D01*
X196183238Y-57856380D01*
X195897523Y-57856380D01*
X195802285Y-57808761D01*
X195754666Y-57761142D01*
X196992761Y-56856380D02*
X197088000Y-56856380D01*
X197183238Y-56904000D01*
X197230857Y-56951619D01*
X197278476Y-57046857D01*
X197326095Y-57237333D01*
X197326095Y-57475428D01*
X197278476Y-57665904D01*
X197230857Y-57761142D01*
X197183238Y-57808761D01*
X197088000Y-57856380D01*
X196992761Y-57856380D01*
X196897523Y-57808761D01*
X196849904Y-57761142D01*
X196802285Y-57665904D01*
X196754666Y-57475428D01*
X196754666Y-57237333D01*
X196802285Y-57046857D01*
X196849904Y-56951619D01*
X196897523Y-56904000D01*
X196992761Y-56856380D01*
X205470285Y-48728380D02*
X206089333Y-48728380D01*
X205756000Y-49109333D01*
X205898857Y-49109333D01*
X205994095Y-49156952D01*
X206041714Y-49204571D01*
X206089333Y-49299809D01*
X206089333Y-49537904D01*
X206041714Y-49633142D01*
X205994095Y-49680761D01*
X205898857Y-49728380D01*
X205613142Y-49728380D01*
X205517904Y-49680761D01*
X205470285Y-49633142D01*
X206422666Y-48728380D02*
X207041714Y-48728380D01*
X206708380Y-49109333D01*
X206851238Y-49109333D01*
X206946476Y-49156952D01*
X206994095Y-49204571D01*
X207041714Y-49299809D01*
X207041714Y-49537904D01*
X206994095Y-49633142D01*
X206946476Y-49680761D01*
X206851238Y-49728380D01*
X206565523Y-49728380D01*
X206470285Y-49680761D01*
X206422666Y-49633142D01*
X207660761Y-48728380D02*
X207756000Y-48728380D01*
X207851238Y-48776000D01*
X207898857Y-48823619D01*
X207946476Y-48918857D01*
X207994095Y-49109333D01*
X207994095Y-49347428D01*
X207946476Y-49537904D01*
X207898857Y-49633142D01*
X207851238Y-49680761D01*
X207756000Y-49728380D01*
X207660761Y-49728380D01*
X207565523Y-49680761D01*
X207517904Y-49633142D01*
X207470285Y-49537904D01*
X207422666Y-49347428D01*
X207422666Y-49109333D01*
X207470285Y-48918857D01*
X207517904Y-48823619D01*
X207565523Y-48776000D01*
X207660761Y-48728380D01*
X205470285Y-56856380D02*
X206089333Y-56856380D01*
X205756000Y-57237333D01*
X205898857Y-57237333D01*
X205994095Y-57284952D01*
X206041714Y-57332571D01*
X206089333Y-57427809D01*
X206089333Y-57665904D01*
X206041714Y-57761142D01*
X205994095Y-57808761D01*
X205898857Y-57856380D01*
X205613142Y-57856380D01*
X205517904Y-57808761D01*
X205470285Y-57761142D01*
X206422666Y-56856380D02*
X207041714Y-56856380D01*
X206708380Y-57237333D01*
X206851238Y-57237333D01*
X206946476Y-57284952D01*
X206994095Y-57332571D01*
X207041714Y-57427809D01*
X207041714Y-57665904D01*
X206994095Y-57761142D01*
X206946476Y-57808761D01*
X206851238Y-57856380D01*
X206565523Y-57856380D01*
X206470285Y-57808761D01*
X206422666Y-57761142D01*
X207660761Y-56856380D02*
X207756000Y-56856380D01*
X207851238Y-56904000D01*
X207898857Y-56951619D01*
X207946476Y-57046857D01*
X207994095Y-57237333D01*
X207994095Y-57475428D01*
X207946476Y-57665904D01*
X207898857Y-57761142D01*
X207851238Y-57808761D01*
X207756000Y-57856380D01*
X207660761Y-57856380D01*
X207565523Y-57808761D01*
X207517904Y-57761142D01*
X207470285Y-57665904D01*
X207422666Y-57475428D01*
X207422666Y-57237333D01*
X207470285Y-57046857D01*
X207517904Y-56951619D01*
X207565523Y-56904000D01*
X207660761Y-56856380D01*
X205470285Y-52792380D02*
X206089333Y-52792380D01*
X205756000Y-53173333D01*
X205898857Y-53173333D01*
X205994095Y-53220952D01*
X206041714Y-53268571D01*
X206089333Y-53363809D01*
X206089333Y-53601904D01*
X206041714Y-53697142D01*
X205994095Y-53744761D01*
X205898857Y-53792380D01*
X205613142Y-53792380D01*
X205517904Y-53744761D01*
X205470285Y-53697142D01*
X206422666Y-52792380D02*
X207041714Y-52792380D01*
X206708380Y-53173333D01*
X206851238Y-53173333D01*
X206946476Y-53220952D01*
X206994095Y-53268571D01*
X207041714Y-53363809D01*
X207041714Y-53601904D01*
X206994095Y-53697142D01*
X206946476Y-53744761D01*
X206851238Y-53792380D01*
X206565523Y-53792380D01*
X206470285Y-53744761D01*
X206422666Y-53697142D01*
X207660761Y-52792380D02*
X207756000Y-52792380D01*
X207851238Y-52840000D01*
X207898857Y-52887619D01*
X207946476Y-52982857D01*
X207994095Y-53173333D01*
X207994095Y-53411428D01*
X207946476Y-53601904D01*
X207898857Y-53697142D01*
X207851238Y-53744761D01*
X207756000Y-53792380D01*
X207660761Y-53792380D01*
X207565523Y-53744761D01*
X207517904Y-53697142D01*
X207470285Y-53601904D01*
X207422666Y-53411428D01*
X207422666Y-53173333D01*
X207470285Y-52982857D01*
X207517904Y-52887619D01*
X207565523Y-52840000D01*
X207660761Y-52792380D01*
X216138285Y-48728380D02*
X216757333Y-48728380D01*
X216424000Y-49109333D01*
X216566857Y-49109333D01*
X216662095Y-49156952D01*
X216709714Y-49204571D01*
X216757333Y-49299809D01*
X216757333Y-49537904D01*
X216709714Y-49633142D01*
X216662095Y-49680761D01*
X216566857Y-49728380D01*
X216281142Y-49728380D01*
X216185904Y-49680761D01*
X216138285Y-49633142D01*
X217090666Y-48728380D02*
X217709714Y-48728380D01*
X217376380Y-49109333D01*
X217519238Y-49109333D01*
X217614476Y-49156952D01*
X217662095Y-49204571D01*
X217709714Y-49299809D01*
X217709714Y-49537904D01*
X217662095Y-49633142D01*
X217614476Y-49680761D01*
X217519238Y-49728380D01*
X217233523Y-49728380D01*
X217138285Y-49680761D01*
X217090666Y-49633142D01*
X218328761Y-48728380D02*
X218424000Y-48728380D01*
X218519238Y-48776000D01*
X218566857Y-48823619D01*
X218614476Y-48918857D01*
X218662095Y-49109333D01*
X218662095Y-49347428D01*
X218614476Y-49537904D01*
X218566857Y-49633142D01*
X218519238Y-49680761D01*
X218424000Y-49728380D01*
X218328761Y-49728380D01*
X218233523Y-49680761D01*
X218185904Y-49633142D01*
X218138285Y-49537904D01*
X218090666Y-49347428D01*
X218090666Y-49109333D01*
X218138285Y-48918857D01*
X218185904Y-48823619D01*
X218233523Y-48776000D01*
X218328761Y-48728380D01*
X216138285Y-52792380D02*
X216757333Y-52792380D01*
X216424000Y-53173333D01*
X216566857Y-53173333D01*
X216662095Y-53220952D01*
X216709714Y-53268571D01*
X216757333Y-53363809D01*
X216757333Y-53601904D01*
X216709714Y-53697142D01*
X216662095Y-53744761D01*
X216566857Y-53792380D01*
X216281142Y-53792380D01*
X216185904Y-53744761D01*
X216138285Y-53697142D01*
X217090666Y-52792380D02*
X217709714Y-52792380D01*
X217376380Y-53173333D01*
X217519238Y-53173333D01*
X217614476Y-53220952D01*
X217662095Y-53268571D01*
X217709714Y-53363809D01*
X217709714Y-53601904D01*
X217662095Y-53697142D01*
X217614476Y-53744761D01*
X217519238Y-53792380D01*
X217233523Y-53792380D01*
X217138285Y-53744761D01*
X217090666Y-53697142D01*
X218328761Y-52792380D02*
X218424000Y-52792380D01*
X218519238Y-52840000D01*
X218566857Y-52887619D01*
X218614476Y-52982857D01*
X218662095Y-53173333D01*
X218662095Y-53411428D01*
X218614476Y-53601904D01*
X218566857Y-53697142D01*
X218519238Y-53744761D01*
X218424000Y-53792380D01*
X218328761Y-53792380D01*
X218233523Y-53744761D01*
X218185904Y-53697142D01*
X218138285Y-53601904D01*
X218090666Y-53411428D01*
X218090666Y-53173333D01*
X218138285Y-52982857D01*
X218185904Y-52887619D01*
X218233523Y-52840000D01*
X218328761Y-52792380D01*
X197667619Y-34186666D02*
X197620000Y-34139047D01*
X197572380Y-34043809D01*
X197572380Y-33805714D01*
X197620000Y-33710476D01*
X197667619Y-33662857D01*
X197762857Y-33615238D01*
X197858095Y-33615238D01*
X198000952Y-33662857D01*
X198572380Y-34234285D01*
X198572380Y-33615238D01*
X198572380Y-33186666D02*
X197572380Y-33186666D01*
X198191428Y-33091428D02*
X198572380Y-32805714D01*
X197905714Y-32805714D02*
X198286666Y-33186666D01*
X197572380Y-32472380D02*
X197572380Y-31805714D01*
X198572380Y-32234285D01*
X192757619Y-34186666D02*
X192710000Y-34139047D01*
X192662380Y-34043809D01*
X192662380Y-33805714D01*
X192710000Y-33710476D01*
X192757619Y-33662857D01*
X192852857Y-33615238D01*
X192948095Y-33615238D01*
X193090952Y-33662857D01*
X193662380Y-34234285D01*
X193662380Y-33615238D01*
X193662380Y-33186666D02*
X192662380Y-33186666D01*
X193281428Y-33091428D02*
X193662380Y-32805714D01*
X192995714Y-32805714D02*
X193376666Y-33186666D01*
X192662380Y-32472380D02*
X192662380Y-31805714D01*
X193662380Y-32234285D01*
X215304761Y-37282380D02*
X214733333Y-37282380D01*
X215019047Y-37282380D02*
X215019047Y-36282380D01*
X214923809Y-36425238D01*
X214828571Y-36520476D01*
X214733333Y-36568095D01*
X215923809Y-36282380D02*
X216019047Y-36282380D01*
X216114285Y-36330000D01*
X216161904Y-36377619D01*
X216209523Y-36472857D01*
X216257142Y-36663333D01*
X216257142Y-36901428D01*
X216209523Y-37091904D01*
X216161904Y-37187142D01*
X216114285Y-37234761D01*
X216019047Y-37282380D01*
X215923809Y-37282380D01*
X215828571Y-37234761D01*
X215780952Y-37187142D01*
X215733333Y-37091904D01*
X215685714Y-36901428D01*
X215685714Y-36663333D01*
X215733333Y-36472857D01*
X215780952Y-36377619D01*
X215828571Y-36330000D01*
X215923809Y-36282380D01*
X216685714Y-37282380D02*
X216685714Y-36282380D01*
X216780952Y-36901428D02*
X217066666Y-37282380D01*
X217066666Y-36615714D02*
X216685714Y-36996666D01*
X143962380Y-83780238D02*
X143962380Y-84351666D01*
X143962380Y-84065952D02*
X142962380Y-84065952D01*
X143105238Y-84161190D01*
X143200476Y-84256428D01*
X143248095Y-84351666D01*
X142962380Y-83161190D02*
X142962380Y-83065952D01*
X143010000Y-82970714D01*
X143057619Y-82923095D01*
X143152857Y-82875476D01*
X143343333Y-82827857D01*
X143581428Y-82827857D01*
X143771904Y-82875476D01*
X143867142Y-82923095D01*
X143914761Y-82970714D01*
X143962380Y-83065952D01*
X143962380Y-83161190D01*
X143914761Y-83256428D01*
X143867142Y-83304047D01*
X143771904Y-83351666D01*
X143581428Y-83399285D01*
X143343333Y-83399285D01*
X143152857Y-83351666D01*
X143057619Y-83304047D01*
X143010000Y-83256428D01*
X142962380Y-83161190D01*
X143962380Y-82399285D02*
X142962380Y-82399285D01*
X143581428Y-82304047D02*
X143962380Y-82018333D01*
X143295714Y-82018333D02*
X143676666Y-82399285D01*
X151169761Y-80462380D02*
X150836428Y-79986190D01*
X150598333Y-80462380D02*
X150598333Y-79462380D01*
X150979285Y-79462380D01*
X151074523Y-79510000D01*
X151122142Y-79557619D01*
X151169761Y-79652857D01*
X151169761Y-79795714D01*
X151122142Y-79890952D01*
X151074523Y-79938571D01*
X150979285Y-79986190D01*
X150598333Y-79986190D01*
X151455476Y-79462380D02*
X151788809Y-80462380D01*
X152122142Y-79462380D01*
X152979285Y-80462380D02*
X152407857Y-80462380D01*
X152693571Y-80462380D02*
X152693571Y-79462380D01*
X152598333Y-79605238D01*
X152503095Y-79700476D01*
X152407857Y-79748095D01*
X161107380Y-80898333D02*
X160107380Y-80898333D01*
X160107380Y-80660238D01*
X160155000Y-80517380D01*
X160250238Y-80422142D01*
X160345476Y-80374523D01*
X160535952Y-80326904D01*
X160678809Y-80326904D01*
X160869285Y-80374523D01*
X160964523Y-80422142D01*
X161059761Y-80517380D01*
X161107380Y-80660238D01*
X161107380Y-80898333D01*
X161107380Y-79898333D02*
X160107380Y-79898333D01*
X161107380Y-79422142D02*
X160107380Y-79422142D01*
X160107380Y-79041190D01*
X160155000Y-78945952D01*
X160202619Y-78898333D01*
X160297857Y-78850714D01*
X160440714Y-78850714D01*
X160535952Y-78898333D01*
X160583571Y-78945952D01*
X160631190Y-79041190D01*
X160631190Y-79422142D01*
X161059761Y-77707857D02*
X161107380Y-77565000D01*
X161107380Y-77326904D01*
X161059761Y-77231666D01*
X161012142Y-77184047D01*
X160916904Y-77136428D01*
X160821666Y-77136428D01*
X160726428Y-77184047D01*
X160678809Y-77231666D01*
X160631190Y-77326904D01*
X160583571Y-77517380D01*
X160535952Y-77612619D01*
X160488333Y-77660238D01*
X160393095Y-77707857D01*
X160297857Y-77707857D01*
X160202619Y-77660238D01*
X160155000Y-77612619D01*
X160107380Y-77517380D01*
X160107380Y-77279285D01*
X160155000Y-77136428D01*
X160107380Y-76803095D02*
X161107380Y-76565000D01*
X160393095Y-76374523D01*
X161107380Y-76184047D01*
X160107380Y-75945952D01*
X161107380Y-75565000D02*
X160107380Y-75565000D01*
X160107380Y-75231666D02*
X160107380Y-74660238D01*
X161107380Y-74945952D02*
X160107380Y-74945952D01*
X161012142Y-73755476D02*
X161059761Y-73803095D01*
X161107380Y-73945952D01*
X161107380Y-74041190D01*
X161059761Y-74184047D01*
X160964523Y-74279285D01*
X160869285Y-74326904D01*
X160678809Y-74374523D01*
X160535952Y-74374523D01*
X160345476Y-74326904D01*
X160250238Y-74279285D01*
X160155000Y-74184047D01*
X160107380Y-74041190D01*
X160107380Y-73945952D01*
X160155000Y-73803095D01*
X160202619Y-73755476D01*
X161107380Y-73326904D02*
X160107380Y-73326904D01*
X160583571Y-73326904D02*
X160583571Y-72755476D01*
X161107380Y-72755476D02*
X160107380Y-72755476D01*
X161107380Y-71612619D02*
X160440714Y-71088809D01*
X160440714Y-71612619D02*
X161107380Y-71088809D01*
X160440714Y-70279285D02*
X161107380Y-70279285D01*
X160059761Y-70517380D02*
X160774047Y-70755476D01*
X160774047Y-70136428D01*
D12*
X167081333Y-79221809D02*
X167195619Y-79259904D01*
X167386095Y-79259904D01*
X167462285Y-79221809D01*
X167500380Y-79183714D01*
X167538476Y-79107523D01*
X167538476Y-79031333D01*
X167500380Y-78955142D01*
X167462285Y-78917047D01*
X167386095Y-78878952D01*
X167233714Y-78840857D01*
X167157523Y-78802761D01*
X167119428Y-78764666D01*
X167081333Y-78688476D01*
X167081333Y-78612285D01*
X167119428Y-78536095D01*
X167157523Y-78498000D01*
X167233714Y-78459904D01*
X167424190Y-78459904D01*
X167538476Y-78498000D01*
X167805142Y-78459904D02*
X167995619Y-79259904D01*
X168148000Y-78688476D01*
X168300380Y-79259904D01*
X168490857Y-78459904D01*
X169214666Y-79259904D02*
X168757523Y-79259904D01*
X168986095Y-79259904D02*
X168986095Y-78459904D01*
X168909904Y-78574190D01*
X168833714Y-78650380D01*
X168757523Y-78688476D01*
D11*
X163377619Y-36543809D02*
X163330000Y-36496190D01*
X163282380Y-36400952D01*
X163282380Y-36162857D01*
X163330000Y-36067619D01*
X163377619Y-36020000D01*
X163472857Y-35972380D01*
X163568095Y-35972380D01*
X163710952Y-36020000D01*
X164282380Y-36591428D01*
X164282380Y-35972380D01*
X163282380Y-35067619D02*
X163282380Y-35543809D01*
X163758571Y-35591428D01*
X163710952Y-35543809D01*
X163663333Y-35448571D01*
X163663333Y-35210476D01*
X163710952Y-35115238D01*
X163758571Y-35067619D01*
X163853809Y-35020000D01*
X164091904Y-35020000D01*
X164187142Y-35067619D01*
X164234761Y-35115238D01*
X164282380Y-35210476D01*
X164282380Y-35448571D01*
X164234761Y-35543809D01*
X164187142Y-35591428D01*
X164282380Y-34115238D02*
X164282380Y-34591428D01*
X163282380Y-34591428D01*
X164187142Y-33210476D02*
X164234761Y-33258095D01*
X164282380Y-33400952D01*
X164282380Y-33496190D01*
X164234761Y-33639047D01*
X164139523Y-33734285D01*
X164044285Y-33781904D01*
X163853809Y-33829523D01*
X163710952Y-33829523D01*
X163520476Y-33781904D01*
X163425238Y-33734285D01*
X163330000Y-33639047D01*
X163282380Y-33496190D01*
X163282380Y-33400952D01*
X163330000Y-33258095D01*
X163377619Y-33210476D01*
X163282380Y-32591428D02*
X163282380Y-32496190D01*
X163330000Y-32400952D01*
X163377619Y-32353333D01*
X163472857Y-32305714D01*
X163663333Y-32258095D01*
X163901428Y-32258095D01*
X164091904Y-32305714D01*
X164187142Y-32353333D01*
X164234761Y-32400952D01*
X164282380Y-32496190D01*
X164282380Y-32591428D01*
X164234761Y-32686666D01*
X164187142Y-32734285D01*
X164091904Y-32781904D01*
X163901428Y-32829523D01*
X163663333Y-32829523D01*
X163472857Y-32781904D01*
X163377619Y-32734285D01*
X163330000Y-32686666D01*
X163282380Y-32591428D01*
X163615714Y-31400952D02*
X164282380Y-31400952D01*
X163234761Y-31639047D02*
X163949047Y-31877142D01*
X163949047Y-31258095D01*
X163282380Y-30686666D02*
X163282380Y-30591428D01*
X163330000Y-30496190D01*
X163377619Y-30448571D01*
X163472857Y-30400952D01*
X163663333Y-30353333D01*
X163901428Y-30353333D01*
X164091904Y-30400952D01*
X164187142Y-30448571D01*
X164234761Y-30496190D01*
X164282380Y-30591428D01*
X164282380Y-30686666D01*
X164234761Y-30781904D01*
X164187142Y-30829523D01*
X164091904Y-30877142D01*
X163901428Y-30924761D01*
X163663333Y-30924761D01*
X163472857Y-30877142D01*
X163377619Y-30829523D01*
X163330000Y-30781904D01*
X163282380Y-30686666D01*
X163996666Y-29972380D02*
X163996666Y-29496190D01*
X164282380Y-30067619D02*
X163282380Y-29734285D01*
X164282380Y-29400952D01*
X160107380Y-33781904D02*
X160916904Y-33781904D01*
X161012142Y-33734285D01*
X161059761Y-33686666D01*
X161107380Y-33591428D01*
X161107380Y-33400952D01*
X161059761Y-33305714D01*
X161012142Y-33258095D01*
X160916904Y-33210476D01*
X160107380Y-33210476D01*
X161107380Y-32210476D02*
X161107380Y-32781904D01*
X161107380Y-32496190D02*
X160107380Y-32496190D01*
X160250238Y-32591428D01*
X160345476Y-32686666D01*
X160393095Y-32781904D01*
X204303809Y-81732380D02*
X203827619Y-81732380D01*
X203827619Y-80732380D01*
X204494285Y-80732380D02*
X205065714Y-80732380D01*
X204780000Y-81732380D02*
X204780000Y-80732380D01*
X205399047Y-81732380D02*
X205399047Y-80732380D01*
X205637142Y-80732380D01*
X205780000Y-80780000D01*
X205875238Y-80875238D01*
X205922857Y-80970476D01*
X205970476Y-81160952D01*
X205970476Y-81303809D01*
X205922857Y-81494285D01*
X205875238Y-81589523D01*
X205780000Y-81684761D01*
X205637142Y-81732380D01*
X205399047Y-81732380D01*
X206399047Y-81351428D02*
X207160952Y-81351428D01*
X208065714Y-81065714D02*
X208065714Y-81732380D01*
X207827619Y-80684761D02*
X207589523Y-81399047D01*
X208208571Y-81399047D01*
X208494285Y-80732380D02*
X209160952Y-80732380D01*
X208732380Y-81732380D01*
X209732380Y-80732380D02*
X209827619Y-80732380D01*
X209922857Y-80780000D01*
X209970476Y-80827619D01*
X210018095Y-80922857D01*
X210065714Y-81113333D01*
X210065714Y-81351428D01*
X210018095Y-81541904D01*
X209970476Y-81637142D01*
X209922857Y-81684761D01*
X209827619Y-81732380D01*
X209732380Y-81732380D01*
X209637142Y-81684761D01*
X209589523Y-81637142D01*
X209541904Y-81541904D01*
X209494285Y-81351428D01*
X209494285Y-81113333D01*
X209541904Y-80922857D01*
X209589523Y-80827619D01*
X209637142Y-80780000D01*
X209732380Y-80732380D01*
X210637142Y-81160952D02*
X210541904Y-81113333D01*
X210494285Y-81065714D01*
X210446666Y-80970476D01*
X210446666Y-80922857D01*
X210494285Y-80827619D01*
X210541904Y-80780000D01*
X210637142Y-80732380D01*
X210827619Y-80732380D01*
X210922857Y-80780000D01*
X210970476Y-80827619D01*
X211018095Y-80922857D01*
X211018095Y-80970476D01*
X210970476Y-81065714D01*
X210922857Y-81113333D01*
X210827619Y-81160952D01*
X210637142Y-81160952D01*
X210541904Y-81208571D01*
X210494285Y-81256190D01*
X210446666Y-81351428D01*
X210446666Y-81541904D01*
X210494285Y-81637142D01*
X210541904Y-81684761D01*
X210637142Y-81732380D01*
X210827619Y-81732380D01*
X210922857Y-81684761D01*
X210970476Y-81637142D01*
X211018095Y-81541904D01*
X211018095Y-81351428D01*
X210970476Y-81256190D01*
X210922857Y-81208571D01*
X210827619Y-81160952D01*
X211732380Y-80732380D02*
X211732380Y-81446666D01*
X211684761Y-81589523D01*
X211589523Y-81684761D01*
X211446666Y-81732380D01*
X211351428Y-81732380D01*
X212780000Y-81732380D02*
X212446666Y-81256190D01*
X212208571Y-81732380D02*
X212208571Y-80732380D01*
X212589523Y-80732380D01*
X212684761Y-80780000D01*
X212732380Y-80827619D01*
X212780000Y-80922857D01*
X212780000Y-81065714D01*
X212732380Y-81160952D01*
X212684761Y-81208571D01*
X212589523Y-81256190D01*
X212208571Y-81256190D01*
X188682380Y-34758095D02*
X188682380Y-34186666D01*
X189682380Y-34472380D02*
X188682380Y-34472380D01*
X189587142Y-33281904D02*
X189634761Y-33329523D01*
X189682380Y-33472380D01*
X189682380Y-33567619D01*
X189634761Y-33710476D01*
X189539523Y-33805714D01*
X189444285Y-33853333D01*
X189253809Y-33900952D01*
X189110952Y-33900952D01*
X188920476Y-33853333D01*
X188825238Y-33805714D01*
X188730000Y-33710476D01*
X188682380Y-33567619D01*
X188682380Y-33472380D01*
X188730000Y-33329523D01*
X188777619Y-33281904D01*
X188682380Y-32948571D02*
X188682380Y-32281904D01*
X189682380Y-32710476D01*
X189015714Y-31472380D02*
X189682380Y-31472380D01*
X188634761Y-31710476D02*
X189349047Y-31948571D01*
X189349047Y-31329523D01*
X165562380Y-33781904D02*
X166371904Y-33781904D01*
X166467142Y-33734285D01*
X166514761Y-33686666D01*
X166562380Y-33591428D01*
X166562380Y-33400952D01*
X166514761Y-33305714D01*
X166467142Y-33258095D01*
X166371904Y-33210476D01*
X165562380Y-33210476D01*
X165562380Y-32829523D02*
X165562380Y-32210476D01*
X165943333Y-32543809D01*
X165943333Y-32400952D01*
X165990952Y-32305714D01*
X166038571Y-32258095D01*
X166133809Y-32210476D01*
X166371904Y-32210476D01*
X166467142Y-32258095D01*
X166514761Y-32305714D01*
X166562380Y-32400952D01*
X166562380Y-32686666D01*
X166514761Y-32781904D01*
X166467142Y-32829523D01*
X146407142Y-51870952D02*
X146454761Y-51918571D01*
X146502380Y-52061428D01*
X146502380Y-52156666D01*
X146454761Y-52299523D01*
X146359523Y-52394761D01*
X146264285Y-52442380D01*
X146073809Y-52490000D01*
X145930952Y-52490000D01*
X145740476Y-52442380D01*
X145645238Y-52394761D01*
X145550000Y-52299523D01*
X145502380Y-52156666D01*
X145502380Y-52061428D01*
X145550000Y-51918571D01*
X145597619Y-51870952D01*
X146502380Y-51442380D02*
X145502380Y-51442380D01*
X146502380Y-50870952D01*
X145502380Y-50870952D01*
X146502380Y-49870952D02*
X146502380Y-50442380D01*
X146502380Y-50156666D02*
X145502380Y-50156666D01*
X145645238Y-50251904D01*
X145740476Y-50347142D01*
X145788095Y-50442380D01*
X146883333Y-49156666D02*
X146835714Y-49204285D01*
X146692857Y-49299523D01*
X146597619Y-49347142D01*
X146454761Y-49394761D01*
X146216666Y-49442380D01*
X146026190Y-49442380D01*
X145788095Y-49394761D01*
X145645238Y-49347142D01*
X145550000Y-49299523D01*
X145407142Y-49204285D01*
X145359523Y-49156666D01*
X146502380Y-48775714D02*
X145502380Y-48775714D01*
X145502380Y-48537619D01*
X145550000Y-48394761D01*
X145645238Y-48299523D01*
X145740476Y-48251904D01*
X145930952Y-48204285D01*
X146073809Y-48204285D01*
X146264285Y-48251904D01*
X146359523Y-48299523D01*
X146454761Y-48394761D01*
X146502380Y-48537619D01*
X146502380Y-48775714D01*
X145978571Y-47775714D02*
X145978571Y-47442380D01*
X146502380Y-47299523D02*
X146502380Y-47775714D01*
X145502380Y-47775714D01*
X145502380Y-47299523D01*
X145502380Y-47013809D02*
X145502380Y-46442380D01*
X146502380Y-46728095D02*
X145502380Y-46728095D01*
X146502380Y-46109047D02*
X145502380Y-46109047D01*
X145502380Y-45728095D01*
X145550000Y-45632857D01*
X145597619Y-45585238D01*
X145692857Y-45537619D01*
X145835714Y-45537619D01*
X145930952Y-45585238D01*
X145978571Y-45632857D01*
X146026190Y-45728095D01*
X146026190Y-46109047D01*
X146502380Y-45109047D02*
X145502380Y-45109047D01*
X146407142Y-44061428D02*
X146454761Y-44109047D01*
X146502380Y-44251904D01*
X146502380Y-44347142D01*
X146454761Y-44490000D01*
X146359523Y-44585238D01*
X146264285Y-44632857D01*
X146073809Y-44680476D01*
X145930952Y-44680476D01*
X145740476Y-44632857D01*
X145645238Y-44585238D01*
X145550000Y-44490000D01*
X145502380Y-44347142D01*
X145502380Y-44251904D01*
X145550000Y-44109047D01*
X145597619Y-44061428D01*
X145502380Y-43728095D02*
X145502380Y-43109047D01*
X145883333Y-43442380D01*
X145883333Y-43299523D01*
X145930952Y-43204285D01*
X145978571Y-43156666D01*
X146073809Y-43109047D01*
X146311904Y-43109047D01*
X146407142Y-43156666D01*
X146454761Y-43204285D01*
X146502380Y-43299523D01*
X146502380Y-43585238D01*
X146454761Y-43680476D01*
X146407142Y-43728095D01*
X145597619Y-42728095D02*
X145550000Y-42680476D01*
X145502380Y-42585238D01*
X145502380Y-42347142D01*
X145550000Y-42251904D01*
X145597619Y-42204285D01*
X145692857Y-42156666D01*
X145788095Y-42156666D01*
X145930952Y-42204285D01*
X146502380Y-42775714D01*
X146502380Y-42156666D01*
X146883333Y-41823333D02*
X146835714Y-41775714D01*
X146692857Y-41680476D01*
X146597619Y-41632857D01*
X146454761Y-41585238D01*
X146216666Y-41537619D01*
X146026190Y-41537619D01*
X145788095Y-41585238D01*
X145645238Y-41632857D01*
X145550000Y-41680476D01*
X145407142Y-41775714D01*
X145359523Y-41823333D01*
X182316666Y-46172380D02*
X182316666Y-45172380D01*
X182650000Y-45886666D01*
X182983333Y-45172380D01*
X182983333Y-46172380D01*
X184030952Y-46077142D02*
X183983333Y-46124761D01*
X183840476Y-46172380D01*
X183745238Y-46172380D01*
X183602380Y-46124761D01*
X183507142Y-46029523D01*
X183459523Y-45934285D01*
X183411904Y-45743809D01*
X183411904Y-45600952D01*
X183459523Y-45410476D01*
X183507142Y-45315238D01*
X183602380Y-45220000D01*
X183745238Y-45172380D01*
X183840476Y-45172380D01*
X183983333Y-45220000D01*
X184030952Y-45267619D01*
X184459523Y-45172380D02*
X184459523Y-45981904D01*
X184507142Y-46077142D01*
X184554761Y-46124761D01*
X184650000Y-46172380D01*
X184840476Y-46172380D01*
X184935714Y-46124761D01*
X184983333Y-46077142D01*
X185030952Y-45981904D01*
X185030952Y-45172380D01*
X186030952Y-46172380D02*
X185459523Y-46172380D01*
X185745238Y-46172380D02*
X185745238Y-45172380D01*
X185650000Y-45315238D01*
X185554761Y-45410476D01*
X185459523Y-45458095D01*
X146407142Y-64570952D02*
X146454761Y-64618571D01*
X146502380Y-64761428D01*
X146502380Y-64856666D01*
X146454761Y-64999523D01*
X146359523Y-65094761D01*
X146264285Y-65142380D01*
X146073809Y-65190000D01*
X145930952Y-65190000D01*
X145740476Y-65142380D01*
X145645238Y-65094761D01*
X145550000Y-64999523D01*
X145502380Y-64856666D01*
X145502380Y-64761428D01*
X145550000Y-64618571D01*
X145597619Y-64570952D01*
X146502380Y-64142380D02*
X145502380Y-64142380D01*
X146502380Y-63570952D01*
X145502380Y-63570952D01*
X145597619Y-63142380D02*
X145550000Y-63094761D01*
X145502380Y-62999523D01*
X145502380Y-62761428D01*
X145550000Y-62666190D01*
X145597619Y-62618571D01*
X145692857Y-62570952D01*
X145788095Y-62570952D01*
X145930952Y-62618571D01*
X146502380Y-63190000D01*
X146502380Y-62570952D01*
X146883333Y-61856666D02*
X146835714Y-61904285D01*
X146692857Y-61999523D01*
X146597619Y-62047142D01*
X146454761Y-62094761D01*
X146216666Y-62142380D01*
X146026190Y-62142380D01*
X145788095Y-62094761D01*
X145645238Y-62047142D01*
X145550000Y-61999523D01*
X145407142Y-61904285D01*
X145359523Y-61856666D01*
X146502380Y-61475714D02*
X145502380Y-61475714D01*
X145502380Y-61237619D01*
X145550000Y-61094761D01*
X145645238Y-60999523D01*
X145740476Y-60951904D01*
X145930952Y-60904285D01*
X146073809Y-60904285D01*
X146264285Y-60951904D01*
X146359523Y-60999523D01*
X146454761Y-61094761D01*
X146502380Y-61237619D01*
X146502380Y-61475714D01*
X145978571Y-60475714D02*
X145978571Y-60142380D01*
X146502380Y-59999523D02*
X146502380Y-60475714D01*
X145502380Y-60475714D01*
X145502380Y-59999523D01*
X145502380Y-59713809D02*
X145502380Y-59142380D01*
X146502380Y-59428095D02*
X145502380Y-59428095D01*
X146502380Y-58809047D02*
X145502380Y-58809047D01*
X145502380Y-58428095D01*
X145550000Y-58332857D01*
X145597619Y-58285238D01*
X145692857Y-58237619D01*
X145835714Y-58237619D01*
X145930952Y-58285238D01*
X145978571Y-58332857D01*
X146026190Y-58428095D01*
X146026190Y-58809047D01*
X146502380Y-57809047D02*
X145502380Y-57809047D01*
X146407142Y-56761428D02*
X146454761Y-56809047D01*
X146502380Y-56951904D01*
X146502380Y-57047142D01*
X146454761Y-57190000D01*
X146359523Y-57285238D01*
X146264285Y-57332857D01*
X146073809Y-57380476D01*
X145930952Y-57380476D01*
X145740476Y-57332857D01*
X145645238Y-57285238D01*
X145550000Y-57190000D01*
X145502380Y-57047142D01*
X145502380Y-56951904D01*
X145550000Y-56809047D01*
X145597619Y-56761428D01*
X145502380Y-56428095D02*
X145502380Y-55809047D01*
X145883333Y-56142380D01*
X145883333Y-55999523D01*
X145930952Y-55904285D01*
X145978571Y-55856666D01*
X146073809Y-55809047D01*
X146311904Y-55809047D01*
X146407142Y-55856666D01*
X146454761Y-55904285D01*
X146502380Y-55999523D01*
X146502380Y-56285238D01*
X146454761Y-56380476D01*
X146407142Y-56428095D01*
X145597619Y-55428095D02*
X145550000Y-55380476D01*
X145502380Y-55285238D01*
X145502380Y-55047142D01*
X145550000Y-54951904D01*
X145597619Y-54904285D01*
X145692857Y-54856666D01*
X145788095Y-54856666D01*
X145930952Y-54904285D01*
X146502380Y-55475714D01*
X146502380Y-54856666D01*
X146883333Y-54523333D02*
X146835714Y-54475714D01*
X146692857Y-54380476D01*
X146597619Y-54332857D01*
X146454761Y-54285238D01*
X146216666Y-54237619D01*
X146026190Y-54237619D01*
X145788095Y-54285238D01*
X145645238Y-54332857D01*
X145550000Y-54380476D01*
X145407142Y-54475714D01*
X145359523Y-54523333D01*
X182316666Y-61412380D02*
X182316666Y-60412380D01*
X182650000Y-61126666D01*
X182983333Y-60412380D01*
X182983333Y-61412380D01*
X184030952Y-61317142D02*
X183983333Y-61364761D01*
X183840476Y-61412380D01*
X183745238Y-61412380D01*
X183602380Y-61364761D01*
X183507142Y-61269523D01*
X183459523Y-61174285D01*
X183411904Y-60983809D01*
X183411904Y-60840952D01*
X183459523Y-60650476D01*
X183507142Y-60555238D01*
X183602380Y-60460000D01*
X183745238Y-60412380D01*
X183840476Y-60412380D01*
X183983333Y-60460000D01*
X184030952Y-60507619D01*
X184459523Y-60412380D02*
X184459523Y-61221904D01*
X184507142Y-61317142D01*
X184554761Y-61364761D01*
X184650000Y-61412380D01*
X184840476Y-61412380D01*
X184935714Y-61364761D01*
X184983333Y-61317142D01*
X185030952Y-61221904D01*
X185030952Y-60412380D01*
X185459523Y-60507619D02*
X185507142Y-60460000D01*
X185602380Y-60412380D01*
X185840476Y-60412380D01*
X185935714Y-60460000D01*
X185983333Y-60507619D01*
X186030952Y-60602857D01*
X186030952Y-60698095D01*
X185983333Y-60840952D01*
X185411904Y-61412380D01*
X186030952Y-61412380D01*
M02*
