G04 #@! TF.GenerationSoftware,KiCad,Pcbnew,(5.1.0-0)*
G04 #@! TF.CreationDate,2019-03-28T17:17:08+01:00*
G04 #@! TF.ProjectId,ac2-detpic-shield,6163322d-6465-4747-9069-632d73686965,rev?*
G04 #@! TF.SameCoordinates,Original*
G04 #@! TF.FileFunction,Soldermask,Top*
G04 #@! TF.FilePolarity,Negative*
%FSLAX46Y46*%
G04 Gerber Fmt 4.6, Leading zero omitted, Abs format (unit mm)*
G04 Created by KiCad (PCBNEW (5.1.0-0)) date 2019-03-28 17:17:08*
%MOMM*%
%LPD*%
G04 APERTURE LIST*
%ADD10C,0.100000*%
G04 APERTURE END LIST*
D10*
G36*
X222474549Y-90311116D02*
G01*
X222585734Y-90333232D01*
X222795203Y-90419997D01*
X222983720Y-90545960D01*
X223144040Y-90706280D01*
X223270003Y-90894797D01*
X223356768Y-91104266D01*
X223401000Y-91326636D01*
X223401000Y-91553364D01*
X223356768Y-91775734D01*
X223270003Y-91985203D01*
X223144040Y-92173720D01*
X222983720Y-92334040D01*
X222795203Y-92460003D01*
X222585734Y-92546768D01*
X222474549Y-92568884D01*
X222363365Y-92591000D01*
X222136635Y-92591000D01*
X222025451Y-92568884D01*
X221914266Y-92546768D01*
X221704797Y-92460003D01*
X221516280Y-92334040D01*
X221355960Y-92173720D01*
X221229997Y-91985203D01*
X221143232Y-91775734D01*
X221099000Y-91553364D01*
X221099000Y-91326636D01*
X221143232Y-91104266D01*
X221229997Y-90894797D01*
X221355960Y-90706280D01*
X221516280Y-90545960D01*
X221704797Y-90419997D01*
X221914266Y-90333232D01*
X222025451Y-90311116D01*
X222136635Y-90289000D01*
X222363365Y-90289000D01*
X222474549Y-90311116D01*
X222474549Y-90311116D01*
G37*
G36*
X131034549Y-90311116D02*
G01*
X131145734Y-90333232D01*
X131355203Y-90419997D01*
X131543720Y-90545960D01*
X131704040Y-90706280D01*
X131830003Y-90894797D01*
X131916768Y-91104266D01*
X131961000Y-91326636D01*
X131961000Y-91553364D01*
X131916768Y-91775734D01*
X131830003Y-91985203D01*
X131704040Y-92173720D01*
X131543720Y-92334040D01*
X131355203Y-92460003D01*
X131145734Y-92546768D01*
X131034549Y-92568884D01*
X130923365Y-92591000D01*
X130696635Y-92591000D01*
X130585451Y-92568884D01*
X130474266Y-92546768D01*
X130264797Y-92460003D01*
X130076280Y-92334040D01*
X129915960Y-92173720D01*
X129789997Y-91985203D01*
X129703232Y-91775734D01*
X129659000Y-91553364D01*
X129659000Y-91326636D01*
X129703232Y-91104266D01*
X129789997Y-90894797D01*
X129915960Y-90706280D01*
X130076280Y-90545960D01*
X130264797Y-90419997D01*
X130474266Y-90333232D01*
X130585451Y-90311116D01*
X130696635Y-90289000D01*
X130923365Y-90289000D01*
X131034549Y-90311116D01*
X131034549Y-90311116D01*
G37*
G36*
X141843205Y-85670461D02*
G01*
X141961153Y-85693922D01*
X142053194Y-85732047D01*
X142183359Y-85785963D01*
X142383342Y-85919587D01*
X142553413Y-86089658D01*
X142687037Y-86289641D01*
X142711932Y-86349743D01*
X142779078Y-86511847D01*
X142826000Y-86747742D01*
X142826000Y-86988258D01*
X142779078Y-87224153D01*
X142767087Y-87253101D01*
X142687037Y-87446359D01*
X142553413Y-87646342D01*
X142383342Y-87816413D01*
X142183359Y-87950037D01*
X142053194Y-88003953D01*
X141961153Y-88042078D01*
X141843205Y-88065539D01*
X141725259Y-88089000D01*
X141484741Y-88089000D01*
X141248847Y-88042078D01*
X141156806Y-88003953D01*
X141026641Y-87950037D01*
X140826658Y-87816413D01*
X140656587Y-87646342D01*
X140522963Y-87446359D01*
X140442913Y-87253101D01*
X140430922Y-87224153D01*
X140384000Y-86988258D01*
X140384000Y-86747742D01*
X140430922Y-86511847D01*
X140498068Y-86349743D01*
X140522963Y-86289641D01*
X140656587Y-86089658D01*
X140826658Y-85919587D01*
X141026641Y-85785963D01*
X141156806Y-85732047D01*
X141248847Y-85693922D01*
X141366795Y-85670461D01*
X141484741Y-85647000D01*
X141725259Y-85647000D01*
X141843205Y-85670461D01*
X141843205Y-85670461D01*
G37*
G36*
X131843205Y-85670461D02*
G01*
X131961153Y-85693922D01*
X132053194Y-85732047D01*
X132183359Y-85785963D01*
X132383342Y-85919587D01*
X132553413Y-86089658D01*
X132687037Y-86289641D01*
X132711932Y-86349743D01*
X132779078Y-86511847D01*
X132826000Y-86747742D01*
X132826000Y-86988258D01*
X132779078Y-87224153D01*
X132767087Y-87253101D01*
X132687037Y-87446359D01*
X132553413Y-87646342D01*
X132383342Y-87816413D01*
X132183359Y-87950037D01*
X132053194Y-88003953D01*
X131961153Y-88042078D01*
X131843205Y-88065539D01*
X131725259Y-88089000D01*
X131484741Y-88089000D01*
X131248847Y-88042078D01*
X131156806Y-88003953D01*
X131026641Y-87950037D01*
X130826658Y-87816413D01*
X130656587Y-87646342D01*
X130522963Y-87446359D01*
X130442913Y-87253101D01*
X130430922Y-87224153D01*
X130384000Y-86988258D01*
X130384000Y-86747742D01*
X130430922Y-86511847D01*
X130498068Y-86349743D01*
X130522963Y-86289641D01*
X130656587Y-86089658D01*
X130826658Y-85919587D01*
X131026641Y-85785963D01*
X131156806Y-85732047D01*
X131248847Y-85693922D01*
X131366795Y-85670461D01*
X131484741Y-85647000D01*
X131725259Y-85647000D01*
X131843205Y-85670461D01*
X131843205Y-85670461D01*
G37*
G36*
X216645142Y-86086242D02*
G01*
X216793101Y-86147529D01*
X216926255Y-86236499D01*
X217039501Y-86349745D01*
X217128471Y-86482899D01*
X217189758Y-86630858D01*
X217221000Y-86787925D01*
X217221000Y-86948075D01*
X217189758Y-87105142D01*
X217128471Y-87253101D01*
X217039501Y-87386255D01*
X216926255Y-87499501D01*
X216793101Y-87588471D01*
X216645142Y-87649758D01*
X216488075Y-87681000D01*
X216327925Y-87681000D01*
X216170858Y-87649758D01*
X216022899Y-87588471D01*
X215889745Y-87499501D01*
X215776499Y-87386255D01*
X215687529Y-87253101D01*
X215626242Y-87105142D01*
X215595000Y-86948075D01*
X215595000Y-86787925D01*
X215626242Y-86630858D01*
X215687529Y-86482899D01*
X215776499Y-86349745D01*
X215889745Y-86236499D01*
X216022899Y-86147529D01*
X216170858Y-86086242D01*
X216327925Y-86055000D01*
X216488075Y-86055000D01*
X216645142Y-86086242D01*
X216645142Y-86086242D01*
G37*
G36*
X214105142Y-86086242D02*
G01*
X214253101Y-86147529D01*
X214386255Y-86236499D01*
X214499501Y-86349745D01*
X214588471Y-86482899D01*
X214649758Y-86630858D01*
X214681000Y-86787925D01*
X214681000Y-86948075D01*
X214649758Y-87105142D01*
X214588471Y-87253101D01*
X214499501Y-87386255D01*
X214386255Y-87499501D01*
X214253101Y-87588471D01*
X214105142Y-87649758D01*
X213948075Y-87681000D01*
X213787925Y-87681000D01*
X213630858Y-87649758D01*
X213482899Y-87588471D01*
X213349745Y-87499501D01*
X213236499Y-87386255D01*
X213147529Y-87253101D01*
X213086242Y-87105142D01*
X213055000Y-86948075D01*
X213055000Y-86787925D01*
X213086242Y-86630858D01*
X213147529Y-86482899D01*
X213236499Y-86349745D01*
X213349745Y-86236499D01*
X213482899Y-86147529D01*
X213630858Y-86086242D01*
X213787925Y-86055000D01*
X213948075Y-86055000D01*
X214105142Y-86086242D01*
X214105142Y-86086242D01*
G37*
G36*
X211565142Y-86086242D02*
G01*
X211713101Y-86147529D01*
X211846255Y-86236499D01*
X211959501Y-86349745D01*
X212048471Y-86482899D01*
X212109758Y-86630858D01*
X212141000Y-86787925D01*
X212141000Y-86948075D01*
X212109758Y-87105142D01*
X212048471Y-87253101D01*
X211959501Y-87386255D01*
X211846255Y-87499501D01*
X211713101Y-87588471D01*
X211565142Y-87649758D01*
X211408075Y-87681000D01*
X211247925Y-87681000D01*
X211090858Y-87649758D01*
X210942899Y-87588471D01*
X210809745Y-87499501D01*
X210696499Y-87386255D01*
X210607529Y-87253101D01*
X210546242Y-87105142D01*
X210515000Y-86948075D01*
X210515000Y-86787925D01*
X210546242Y-86630858D01*
X210607529Y-86482899D01*
X210696499Y-86349745D01*
X210809745Y-86236499D01*
X210942899Y-86147529D01*
X211090858Y-86086242D01*
X211247925Y-86055000D01*
X211408075Y-86055000D01*
X211565142Y-86086242D01*
X211565142Y-86086242D01*
G37*
G36*
X209025142Y-86086242D02*
G01*
X209173101Y-86147529D01*
X209306255Y-86236499D01*
X209419501Y-86349745D01*
X209508471Y-86482899D01*
X209569758Y-86630858D01*
X209601000Y-86787925D01*
X209601000Y-86948075D01*
X209569758Y-87105142D01*
X209508471Y-87253101D01*
X209419501Y-87386255D01*
X209306255Y-87499501D01*
X209173101Y-87588471D01*
X209025142Y-87649758D01*
X208868075Y-87681000D01*
X208707925Y-87681000D01*
X208550858Y-87649758D01*
X208402899Y-87588471D01*
X208269745Y-87499501D01*
X208156499Y-87386255D01*
X208067529Y-87253101D01*
X208006242Y-87105142D01*
X207975000Y-86948075D01*
X207975000Y-86787925D01*
X208006242Y-86630858D01*
X208067529Y-86482899D01*
X208156499Y-86349745D01*
X208269745Y-86236499D01*
X208402899Y-86147529D01*
X208550858Y-86086242D01*
X208707925Y-86055000D01*
X208868075Y-86055000D01*
X209025142Y-86086242D01*
X209025142Y-86086242D01*
G37*
G36*
X206485142Y-86086242D02*
G01*
X206633101Y-86147529D01*
X206766255Y-86236499D01*
X206879501Y-86349745D01*
X206968471Y-86482899D01*
X207029758Y-86630858D01*
X207061000Y-86787925D01*
X207061000Y-86948075D01*
X207029758Y-87105142D01*
X206968471Y-87253101D01*
X206879501Y-87386255D01*
X206766255Y-87499501D01*
X206633101Y-87588471D01*
X206485142Y-87649758D01*
X206328075Y-87681000D01*
X206167925Y-87681000D01*
X206010858Y-87649758D01*
X205862899Y-87588471D01*
X205729745Y-87499501D01*
X205616499Y-87386255D01*
X205527529Y-87253101D01*
X205466242Y-87105142D01*
X205435000Y-86948075D01*
X205435000Y-86787925D01*
X205466242Y-86630858D01*
X205527529Y-86482899D01*
X205616499Y-86349745D01*
X205729745Y-86236499D01*
X205862899Y-86147529D01*
X206010858Y-86086242D01*
X206167925Y-86055000D01*
X206328075Y-86055000D01*
X206485142Y-86086242D01*
X206485142Y-86086242D01*
G37*
G36*
X158662823Y-83489313D02*
G01*
X158823242Y-83537976D01*
X158955906Y-83608886D01*
X158971078Y-83616996D01*
X159100659Y-83723341D01*
X159207004Y-83852922D01*
X159207005Y-83852924D01*
X159286024Y-84000758D01*
X159334687Y-84161177D01*
X159351117Y-84328000D01*
X159334687Y-84494823D01*
X159286024Y-84655242D01*
X159215114Y-84787906D01*
X159207004Y-84803078D01*
X159100659Y-84932659D01*
X158971078Y-85039004D01*
X158971076Y-85039005D01*
X158823242Y-85118024D01*
X158662823Y-85166687D01*
X158537804Y-85179000D01*
X158454196Y-85179000D01*
X158329177Y-85166687D01*
X158168758Y-85118024D01*
X158020924Y-85039005D01*
X158020922Y-85039004D01*
X157891341Y-84932659D01*
X157784996Y-84803078D01*
X157776886Y-84787906D01*
X157705976Y-84655242D01*
X157657313Y-84494823D01*
X157640883Y-84328000D01*
X157657313Y-84161177D01*
X157705976Y-84000758D01*
X157784995Y-83852924D01*
X157784996Y-83852922D01*
X157891341Y-83723341D01*
X158020922Y-83616996D01*
X158036094Y-83608886D01*
X158168758Y-83537976D01*
X158329177Y-83489313D01*
X158454196Y-83477000D01*
X158537804Y-83477000D01*
X158662823Y-83489313D01*
X158662823Y-83489313D01*
G37*
G36*
X156122823Y-83489313D02*
G01*
X156283242Y-83537976D01*
X156415906Y-83608886D01*
X156431078Y-83616996D01*
X156560659Y-83723341D01*
X156667004Y-83852922D01*
X156667005Y-83852924D01*
X156746024Y-84000758D01*
X156794687Y-84161177D01*
X156811117Y-84328000D01*
X156794687Y-84494823D01*
X156746024Y-84655242D01*
X156675114Y-84787906D01*
X156667004Y-84803078D01*
X156560659Y-84932659D01*
X156431078Y-85039004D01*
X156431076Y-85039005D01*
X156283242Y-85118024D01*
X156122823Y-85166687D01*
X155997804Y-85179000D01*
X155914196Y-85179000D01*
X155789177Y-85166687D01*
X155628758Y-85118024D01*
X155480924Y-85039005D01*
X155480922Y-85039004D01*
X155351341Y-84932659D01*
X155244996Y-84803078D01*
X155236886Y-84787906D01*
X155165976Y-84655242D01*
X155117313Y-84494823D01*
X155100883Y-84328000D01*
X155117313Y-84161177D01*
X155165976Y-84000758D01*
X155244995Y-83852924D01*
X155244996Y-83852922D01*
X155351341Y-83723341D01*
X155480922Y-83616996D01*
X155496094Y-83608886D01*
X155628758Y-83537976D01*
X155789177Y-83489313D01*
X155914196Y-83477000D01*
X155997804Y-83477000D01*
X156122823Y-83489313D01*
X156122823Y-83489313D01*
G37*
G36*
X153582823Y-83489313D02*
G01*
X153743242Y-83537976D01*
X153875906Y-83608886D01*
X153891078Y-83616996D01*
X154020659Y-83723341D01*
X154127004Y-83852922D01*
X154127005Y-83852924D01*
X154206024Y-84000758D01*
X154254687Y-84161177D01*
X154271117Y-84328000D01*
X154254687Y-84494823D01*
X154206024Y-84655242D01*
X154135114Y-84787906D01*
X154127004Y-84803078D01*
X154020659Y-84932659D01*
X153891078Y-85039004D01*
X153891076Y-85039005D01*
X153743242Y-85118024D01*
X153582823Y-85166687D01*
X153457804Y-85179000D01*
X153374196Y-85179000D01*
X153249177Y-85166687D01*
X153088758Y-85118024D01*
X152940924Y-85039005D01*
X152940922Y-85039004D01*
X152811341Y-84932659D01*
X152704996Y-84803078D01*
X152696886Y-84787906D01*
X152625976Y-84655242D01*
X152577313Y-84494823D01*
X152560883Y-84328000D01*
X152577313Y-84161177D01*
X152625976Y-84000758D01*
X152704995Y-83852924D01*
X152704996Y-83852922D01*
X152811341Y-83723341D01*
X152940922Y-83616996D01*
X152956094Y-83608886D01*
X153088758Y-83537976D01*
X153249177Y-83489313D01*
X153374196Y-83477000D01*
X153457804Y-83477000D01*
X153582823Y-83489313D01*
X153582823Y-83489313D01*
G37*
G36*
X151042823Y-83489313D02*
G01*
X151203242Y-83537976D01*
X151335906Y-83608886D01*
X151351078Y-83616996D01*
X151480659Y-83723341D01*
X151587004Y-83852922D01*
X151587005Y-83852924D01*
X151666024Y-84000758D01*
X151714687Y-84161177D01*
X151731117Y-84328000D01*
X151714687Y-84494823D01*
X151666024Y-84655242D01*
X151595114Y-84787906D01*
X151587004Y-84803078D01*
X151480659Y-84932659D01*
X151351078Y-85039004D01*
X151351076Y-85039005D01*
X151203242Y-85118024D01*
X151042823Y-85166687D01*
X150917804Y-85179000D01*
X150834196Y-85179000D01*
X150709177Y-85166687D01*
X150548758Y-85118024D01*
X150400924Y-85039005D01*
X150400922Y-85039004D01*
X150271341Y-84932659D01*
X150164996Y-84803078D01*
X150156886Y-84787906D01*
X150085976Y-84655242D01*
X150037313Y-84494823D01*
X150020883Y-84328000D01*
X150037313Y-84161177D01*
X150085976Y-84000758D01*
X150164995Y-83852924D01*
X150164996Y-83852922D01*
X150271341Y-83723341D01*
X150400922Y-83616996D01*
X150416094Y-83608886D01*
X150548758Y-83537976D01*
X150709177Y-83489313D01*
X150834196Y-83477000D01*
X150917804Y-83477000D01*
X151042823Y-83489313D01*
X151042823Y-83489313D01*
G37*
G36*
X187387000Y-80199000D02*
G01*
X185485000Y-80199000D01*
X185485000Y-78297000D01*
X187387000Y-78297000D01*
X187387000Y-80199000D01*
X187387000Y-80199000D01*
G37*
G36*
X195515000Y-80199000D02*
G01*
X193613000Y-80199000D01*
X193613000Y-78297000D01*
X195515000Y-78297000D01*
X195515000Y-80199000D01*
X195515000Y-80199000D01*
G37*
G36*
X178751000Y-80199000D02*
G01*
X176849000Y-80199000D01*
X176849000Y-78297000D01*
X178751000Y-78297000D01*
X178751000Y-80199000D01*
X178751000Y-80199000D01*
G37*
G36*
X170115000Y-80199000D02*
G01*
X168213000Y-80199000D01*
X168213000Y-78297000D01*
X170115000Y-78297000D01*
X170115000Y-80199000D01*
X170115000Y-80199000D01*
G37*
G36*
X194841395Y-75793546D02*
G01*
X195014466Y-75865234D01*
X195020572Y-75869314D01*
X195170227Y-75969310D01*
X195302690Y-76101773D01*
X195355081Y-76180182D01*
X195406766Y-76257534D01*
X195478454Y-76430605D01*
X195515000Y-76614333D01*
X195515000Y-76801667D01*
X195478454Y-76985395D01*
X195406766Y-77158466D01*
X195406765Y-77158467D01*
X195302690Y-77314227D01*
X195170227Y-77446690D01*
X195105772Y-77489757D01*
X195014466Y-77550766D01*
X194841395Y-77622454D01*
X194657667Y-77659000D01*
X194470333Y-77659000D01*
X194286605Y-77622454D01*
X194113534Y-77550766D01*
X194022228Y-77489757D01*
X193957773Y-77446690D01*
X193825310Y-77314227D01*
X193721235Y-77158467D01*
X193721234Y-77158466D01*
X193649546Y-76985395D01*
X193613000Y-76801667D01*
X193613000Y-76614333D01*
X193649546Y-76430605D01*
X193721234Y-76257534D01*
X193772919Y-76180182D01*
X193825310Y-76101773D01*
X193957773Y-75969310D01*
X194107428Y-75869314D01*
X194113534Y-75865234D01*
X194286605Y-75793546D01*
X194470333Y-75757000D01*
X194657667Y-75757000D01*
X194841395Y-75793546D01*
X194841395Y-75793546D01*
G37*
G36*
X186713395Y-75793546D02*
G01*
X186886466Y-75865234D01*
X186892572Y-75869314D01*
X187042227Y-75969310D01*
X187174690Y-76101773D01*
X187227081Y-76180182D01*
X187278766Y-76257534D01*
X187350454Y-76430605D01*
X187387000Y-76614333D01*
X187387000Y-76801667D01*
X187350454Y-76985395D01*
X187278766Y-77158466D01*
X187278765Y-77158467D01*
X187174690Y-77314227D01*
X187042227Y-77446690D01*
X186977772Y-77489757D01*
X186886466Y-77550766D01*
X186713395Y-77622454D01*
X186529667Y-77659000D01*
X186342333Y-77659000D01*
X186158605Y-77622454D01*
X185985534Y-77550766D01*
X185894228Y-77489757D01*
X185829773Y-77446690D01*
X185697310Y-77314227D01*
X185593235Y-77158467D01*
X185593234Y-77158466D01*
X185521546Y-76985395D01*
X185485000Y-76801667D01*
X185485000Y-76614333D01*
X185521546Y-76430605D01*
X185593234Y-76257534D01*
X185644919Y-76180182D01*
X185697310Y-76101773D01*
X185829773Y-75969310D01*
X185979428Y-75869314D01*
X185985534Y-75865234D01*
X186158605Y-75793546D01*
X186342333Y-75757000D01*
X186529667Y-75757000D01*
X186713395Y-75793546D01*
X186713395Y-75793546D01*
G37*
G36*
X178077395Y-75793546D02*
G01*
X178250466Y-75865234D01*
X178256572Y-75869314D01*
X178406227Y-75969310D01*
X178538690Y-76101773D01*
X178591081Y-76180182D01*
X178642766Y-76257534D01*
X178714454Y-76430605D01*
X178751000Y-76614333D01*
X178751000Y-76801667D01*
X178714454Y-76985395D01*
X178642766Y-77158466D01*
X178642765Y-77158467D01*
X178538690Y-77314227D01*
X178406227Y-77446690D01*
X178341772Y-77489757D01*
X178250466Y-77550766D01*
X178077395Y-77622454D01*
X177893667Y-77659000D01*
X177706333Y-77659000D01*
X177522605Y-77622454D01*
X177349534Y-77550766D01*
X177258228Y-77489757D01*
X177193773Y-77446690D01*
X177061310Y-77314227D01*
X176957235Y-77158467D01*
X176957234Y-77158466D01*
X176885546Y-76985395D01*
X176849000Y-76801667D01*
X176849000Y-76614333D01*
X176885546Y-76430605D01*
X176957234Y-76257534D01*
X177008919Y-76180182D01*
X177061310Y-76101773D01*
X177193773Y-75969310D01*
X177343428Y-75869314D01*
X177349534Y-75865234D01*
X177522605Y-75793546D01*
X177706333Y-75757000D01*
X177893667Y-75757000D01*
X178077395Y-75793546D01*
X178077395Y-75793546D01*
G37*
G36*
X169441395Y-75793546D02*
G01*
X169614466Y-75865234D01*
X169620572Y-75869314D01*
X169770227Y-75969310D01*
X169902690Y-76101773D01*
X169955081Y-76180182D01*
X170006766Y-76257534D01*
X170078454Y-76430605D01*
X170115000Y-76614333D01*
X170115000Y-76801667D01*
X170078454Y-76985395D01*
X170006766Y-77158466D01*
X170006765Y-77158467D01*
X169902690Y-77314227D01*
X169770227Y-77446690D01*
X169705772Y-77489757D01*
X169614466Y-77550766D01*
X169441395Y-77622454D01*
X169257667Y-77659000D01*
X169070333Y-77659000D01*
X168886605Y-77622454D01*
X168713534Y-77550766D01*
X168622228Y-77489757D01*
X168557773Y-77446690D01*
X168425310Y-77314227D01*
X168321235Y-77158467D01*
X168321234Y-77158466D01*
X168249546Y-76985395D01*
X168213000Y-76801667D01*
X168213000Y-76614333D01*
X168249546Y-76430605D01*
X168321234Y-76257534D01*
X168372919Y-76180182D01*
X168425310Y-76101773D01*
X168557773Y-75969310D01*
X168707428Y-75869314D01*
X168713534Y-75865234D01*
X168886605Y-75793546D01*
X169070333Y-75757000D01*
X169257667Y-75757000D01*
X169441395Y-75793546D01*
X169441395Y-75793546D01*
G37*
G36*
X151042823Y-75869313D02*
G01*
X151203242Y-75917976D01*
X151299279Y-75969309D01*
X151351078Y-75996996D01*
X151480659Y-76103341D01*
X151587004Y-76232922D01*
X151587005Y-76232924D01*
X151666024Y-76380758D01*
X151714687Y-76541177D01*
X151731117Y-76708000D01*
X151714687Y-76874823D01*
X151666024Y-77035242D01*
X151600159Y-77158466D01*
X151587004Y-77183078D01*
X151480659Y-77312659D01*
X151351078Y-77419004D01*
X151351076Y-77419005D01*
X151203242Y-77498024D01*
X151042823Y-77546687D01*
X150917804Y-77559000D01*
X150834196Y-77559000D01*
X150709177Y-77546687D01*
X150548758Y-77498024D01*
X150400924Y-77419005D01*
X150400922Y-77419004D01*
X150271341Y-77312659D01*
X150164996Y-77183078D01*
X150151841Y-77158466D01*
X150085976Y-77035242D01*
X150037313Y-76874823D01*
X150020883Y-76708000D01*
X150037313Y-76541177D01*
X150085976Y-76380758D01*
X150164995Y-76232924D01*
X150164996Y-76232922D01*
X150271341Y-76103341D01*
X150400922Y-75996996D01*
X150452721Y-75969309D01*
X150548758Y-75917976D01*
X150709177Y-75869313D01*
X150834196Y-75857000D01*
X150917804Y-75857000D01*
X151042823Y-75869313D01*
X151042823Y-75869313D01*
G37*
G36*
X153582823Y-75869313D02*
G01*
X153743242Y-75917976D01*
X153839279Y-75969309D01*
X153891078Y-75996996D01*
X154020659Y-76103341D01*
X154127004Y-76232922D01*
X154127005Y-76232924D01*
X154206024Y-76380758D01*
X154254687Y-76541177D01*
X154271117Y-76708000D01*
X154254687Y-76874823D01*
X154206024Y-77035242D01*
X154140159Y-77158466D01*
X154127004Y-77183078D01*
X154020659Y-77312659D01*
X153891078Y-77419004D01*
X153891076Y-77419005D01*
X153743242Y-77498024D01*
X153582823Y-77546687D01*
X153457804Y-77559000D01*
X153374196Y-77559000D01*
X153249177Y-77546687D01*
X153088758Y-77498024D01*
X152940924Y-77419005D01*
X152940922Y-77419004D01*
X152811341Y-77312659D01*
X152704996Y-77183078D01*
X152691841Y-77158466D01*
X152625976Y-77035242D01*
X152577313Y-76874823D01*
X152560883Y-76708000D01*
X152577313Y-76541177D01*
X152625976Y-76380758D01*
X152704995Y-76232924D01*
X152704996Y-76232922D01*
X152811341Y-76103341D01*
X152940922Y-75996996D01*
X152992721Y-75969309D01*
X153088758Y-75917976D01*
X153249177Y-75869313D01*
X153374196Y-75857000D01*
X153457804Y-75857000D01*
X153582823Y-75869313D01*
X153582823Y-75869313D01*
G37*
G36*
X156122823Y-75869313D02*
G01*
X156283242Y-75917976D01*
X156379279Y-75969309D01*
X156431078Y-75996996D01*
X156560659Y-76103341D01*
X156667004Y-76232922D01*
X156667005Y-76232924D01*
X156746024Y-76380758D01*
X156794687Y-76541177D01*
X156811117Y-76708000D01*
X156794687Y-76874823D01*
X156746024Y-77035242D01*
X156680159Y-77158466D01*
X156667004Y-77183078D01*
X156560659Y-77312659D01*
X156431078Y-77419004D01*
X156431076Y-77419005D01*
X156283242Y-77498024D01*
X156122823Y-77546687D01*
X155997804Y-77559000D01*
X155914196Y-77559000D01*
X155789177Y-77546687D01*
X155628758Y-77498024D01*
X155480924Y-77419005D01*
X155480922Y-77419004D01*
X155351341Y-77312659D01*
X155244996Y-77183078D01*
X155231841Y-77158466D01*
X155165976Y-77035242D01*
X155117313Y-76874823D01*
X155100883Y-76708000D01*
X155117313Y-76541177D01*
X155165976Y-76380758D01*
X155244995Y-76232924D01*
X155244996Y-76232922D01*
X155351341Y-76103341D01*
X155480922Y-75996996D01*
X155532721Y-75969309D01*
X155628758Y-75917976D01*
X155789177Y-75869313D01*
X155914196Y-75857000D01*
X155997804Y-75857000D01*
X156122823Y-75869313D01*
X156122823Y-75869313D01*
G37*
G36*
X159347000Y-77559000D02*
G01*
X157645000Y-77559000D01*
X157645000Y-75857000D01*
X159347000Y-75857000D01*
X159347000Y-77559000D01*
X159347000Y-77559000D01*
G37*
G36*
X211565142Y-75926242D02*
G01*
X211713101Y-75987529D01*
X211846255Y-76076499D01*
X211959501Y-76189745D01*
X212048471Y-76322899D01*
X212109758Y-76470858D01*
X212141000Y-76627925D01*
X212141000Y-76788075D01*
X212109758Y-76945142D01*
X212048471Y-77093101D01*
X211959501Y-77226255D01*
X211846255Y-77339501D01*
X211713101Y-77428471D01*
X211565142Y-77489758D01*
X211408075Y-77521000D01*
X211247925Y-77521000D01*
X211090858Y-77489758D01*
X210942899Y-77428471D01*
X210809745Y-77339501D01*
X210696499Y-77226255D01*
X210607529Y-77093101D01*
X210546242Y-76945142D01*
X210515000Y-76788075D01*
X210515000Y-76627925D01*
X210546242Y-76470858D01*
X210607529Y-76322899D01*
X210696499Y-76189745D01*
X210809745Y-76076499D01*
X210942899Y-75987529D01*
X211090858Y-75926242D01*
X211247925Y-75895000D01*
X211408075Y-75895000D01*
X211565142Y-75926242D01*
X211565142Y-75926242D01*
G37*
G36*
X207061000Y-77521000D02*
G01*
X205435000Y-77521000D01*
X205435000Y-75895000D01*
X207061000Y-75895000D01*
X207061000Y-77521000D01*
X207061000Y-77521000D01*
G37*
G36*
X209025142Y-75926242D02*
G01*
X209173101Y-75987529D01*
X209306255Y-76076499D01*
X209419501Y-76189745D01*
X209508471Y-76322899D01*
X209569758Y-76470858D01*
X209601000Y-76627925D01*
X209601000Y-76788075D01*
X209569758Y-76945142D01*
X209508471Y-77093101D01*
X209419501Y-77226255D01*
X209306255Y-77339501D01*
X209173101Y-77428471D01*
X209025142Y-77489758D01*
X208868075Y-77521000D01*
X208707925Y-77521000D01*
X208550858Y-77489758D01*
X208402899Y-77428471D01*
X208269745Y-77339501D01*
X208156499Y-77226255D01*
X208067529Y-77093101D01*
X208006242Y-76945142D01*
X207975000Y-76788075D01*
X207975000Y-76627925D01*
X208006242Y-76470858D01*
X208067529Y-76322899D01*
X208156499Y-76189745D01*
X208269745Y-76076499D01*
X208402899Y-75987529D01*
X208550858Y-75926242D01*
X208707925Y-75895000D01*
X208868075Y-75895000D01*
X209025142Y-75926242D01*
X209025142Y-75926242D01*
G37*
G36*
X216645142Y-75926242D02*
G01*
X216793101Y-75987529D01*
X216926255Y-76076499D01*
X217039501Y-76189745D01*
X217128471Y-76322899D01*
X217189758Y-76470858D01*
X217221000Y-76627925D01*
X217221000Y-76788075D01*
X217189758Y-76945142D01*
X217128471Y-77093101D01*
X217039501Y-77226255D01*
X216926255Y-77339501D01*
X216793101Y-77428471D01*
X216645142Y-77489758D01*
X216488075Y-77521000D01*
X216327925Y-77521000D01*
X216170858Y-77489758D01*
X216022899Y-77428471D01*
X215889745Y-77339501D01*
X215776499Y-77226255D01*
X215687529Y-77093101D01*
X215626242Y-76945142D01*
X215595000Y-76788075D01*
X215595000Y-76627925D01*
X215626242Y-76470858D01*
X215687529Y-76322899D01*
X215776499Y-76189745D01*
X215889745Y-76076499D01*
X216022899Y-75987529D01*
X216170858Y-75926242D01*
X216327925Y-75895000D01*
X216488075Y-75895000D01*
X216645142Y-75926242D01*
X216645142Y-75926242D01*
G37*
G36*
X214105142Y-75926242D02*
G01*
X214253101Y-75987529D01*
X214386255Y-76076499D01*
X214499501Y-76189745D01*
X214588471Y-76322899D01*
X214649758Y-76470858D01*
X214681000Y-76627925D01*
X214681000Y-76788075D01*
X214649758Y-76945142D01*
X214588471Y-77093101D01*
X214499501Y-77226255D01*
X214386255Y-77339501D01*
X214253101Y-77428471D01*
X214105142Y-77489758D01*
X213948075Y-77521000D01*
X213787925Y-77521000D01*
X213630858Y-77489758D01*
X213482899Y-77428471D01*
X213349745Y-77339501D01*
X213236499Y-77226255D01*
X213147529Y-77093101D01*
X213086242Y-76945142D01*
X213055000Y-76788075D01*
X213055000Y-76627925D01*
X213086242Y-76470858D01*
X213147529Y-76322899D01*
X213236499Y-76189745D01*
X213349745Y-76076499D01*
X213482899Y-75987529D01*
X213630858Y-75926242D01*
X213787925Y-75895000D01*
X213948075Y-75895000D01*
X214105142Y-75926242D01*
X214105142Y-75926242D01*
G37*
G36*
X136961153Y-70693922D02*
G01*
X137053194Y-70732047D01*
X137183359Y-70785963D01*
X137383342Y-70919587D01*
X137553413Y-71089658D01*
X137687037Y-71289641D01*
X137779078Y-71511848D01*
X137826000Y-71747741D01*
X137826000Y-71988259D01*
X137779078Y-72224152D01*
X137687037Y-72446359D01*
X137553413Y-72646342D01*
X137383342Y-72816413D01*
X137183359Y-72950037D01*
X137053194Y-73003953D01*
X136961153Y-73042078D01*
X136843205Y-73065539D01*
X136725259Y-73089000D01*
X136484741Y-73089000D01*
X136366795Y-73065539D01*
X136248847Y-73042078D01*
X136156806Y-73003953D01*
X136026641Y-72950037D01*
X135826658Y-72816413D01*
X135656587Y-72646342D01*
X135522963Y-72446359D01*
X135430922Y-72224152D01*
X135384000Y-71988259D01*
X135384000Y-71747741D01*
X135430922Y-71511848D01*
X135522963Y-71289641D01*
X135656587Y-71089658D01*
X135826658Y-70919587D01*
X136026641Y-70785963D01*
X136156806Y-70732047D01*
X136248847Y-70693922D01*
X136484741Y-70647000D01*
X136725259Y-70647000D01*
X136961153Y-70693922D01*
X136961153Y-70693922D01*
G37*
G36*
X195690442Y-70225518D02*
G01*
X195756627Y-70232037D01*
X195926466Y-70283557D01*
X196082991Y-70367222D01*
X196118729Y-70396552D01*
X196220186Y-70479814D01*
X196303448Y-70581271D01*
X196332778Y-70617009D01*
X196416443Y-70773534D01*
X196467963Y-70943373D01*
X196485359Y-71120000D01*
X196467963Y-71296627D01*
X196416443Y-71466466D01*
X196332778Y-71622991D01*
X196303448Y-71658729D01*
X196220186Y-71760186D01*
X196118729Y-71843448D01*
X196082991Y-71872778D01*
X195926466Y-71956443D01*
X195756627Y-72007963D01*
X195690443Y-72014481D01*
X195624260Y-72021000D01*
X195535740Y-72021000D01*
X195469557Y-72014481D01*
X195403373Y-72007963D01*
X195233534Y-71956443D01*
X195077009Y-71872778D01*
X195041271Y-71843448D01*
X194939814Y-71760186D01*
X194856552Y-71658729D01*
X194827222Y-71622991D01*
X194743557Y-71466466D01*
X194692037Y-71296627D01*
X194674641Y-71120000D01*
X194692037Y-70943373D01*
X194743557Y-70773534D01*
X194827222Y-70617009D01*
X194856552Y-70581271D01*
X194939814Y-70479814D01*
X195041271Y-70396552D01*
X195077009Y-70367222D01*
X195233534Y-70283557D01*
X195403373Y-70232037D01*
X195469558Y-70225518D01*
X195535740Y-70219000D01*
X195624260Y-70219000D01*
X195690442Y-70225518D01*
X195690442Y-70225518D01*
G37*
G36*
X211721000Y-72021000D02*
G01*
X209919000Y-72021000D01*
X209919000Y-70219000D01*
X211721000Y-70219000D01*
X211721000Y-72021000D01*
X211721000Y-72021000D01*
G37*
G36*
X208390442Y-70225518D02*
G01*
X208456627Y-70232037D01*
X208626466Y-70283557D01*
X208782991Y-70367222D01*
X208818729Y-70396552D01*
X208920186Y-70479814D01*
X209003448Y-70581271D01*
X209032778Y-70617009D01*
X209116443Y-70773534D01*
X209167963Y-70943373D01*
X209185359Y-71120000D01*
X209167963Y-71296627D01*
X209116443Y-71466466D01*
X209032778Y-71622991D01*
X209003448Y-71658729D01*
X208920186Y-71760186D01*
X208818729Y-71843448D01*
X208782991Y-71872778D01*
X208626466Y-71956443D01*
X208456627Y-72007963D01*
X208390443Y-72014481D01*
X208324260Y-72021000D01*
X208235740Y-72021000D01*
X208169557Y-72014481D01*
X208103373Y-72007963D01*
X207933534Y-71956443D01*
X207777009Y-71872778D01*
X207741271Y-71843448D01*
X207639814Y-71760186D01*
X207556552Y-71658729D01*
X207527222Y-71622991D01*
X207443557Y-71466466D01*
X207392037Y-71296627D01*
X207374641Y-71120000D01*
X207392037Y-70943373D01*
X207443557Y-70773534D01*
X207527222Y-70617009D01*
X207556552Y-70581271D01*
X207639814Y-70479814D01*
X207741271Y-70396552D01*
X207777009Y-70367222D01*
X207933534Y-70283557D01*
X208103373Y-70232037D01*
X208169558Y-70225518D01*
X208235740Y-70219000D01*
X208324260Y-70219000D01*
X208390442Y-70225518D01*
X208390442Y-70225518D01*
G37*
G36*
X205850442Y-70225518D02*
G01*
X205916627Y-70232037D01*
X206086466Y-70283557D01*
X206242991Y-70367222D01*
X206278729Y-70396552D01*
X206380186Y-70479814D01*
X206463448Y-70581271D01*
X206492778Y-70617009D01*
X206576443Y-70773534D01*
X206627963Y-70943373D01*
X206645359Y-71120000D01*
X206627963Y-71296627D01*
X206576443Y-71466466D01*
X206492778Y-71622991D01*
X206463448Y-71658729D01*
X206380186Y-71760186D01*
X206278729Y-71843448D01*
X206242991Y-71872778D01*
X206086466Y-71956443D01*
X205916627Y-72007963D01*
X205850443Y-72014481D01*
X205784260Y-72021000D01*
X205695740Y-72021000D01*
X205629557Y-72014481D01*
X205563373Y-72007963D01*
X205393534Y-71956443D01*
X205237009Y-71872778D01*
X205201271Y-71843448D01*
X205099814Y-71760186D01*
X205016552Y-71658729D01*
X204987222Y-71622991D01*
X204903557Y-71466466D01*
X204852037Y-71296627D01*
X204834641Y-71120000D01*
X204852037Y-70943373D01*
X204903557Y-70773534D01*
X204987222Y-70617009D01*
X205016552Y-70581271D01*
X205099814Y-70479814D01*
X205201271Y-70396552D01*
X205237009Y-70367222D01*
X205393534Y-70283557D01*
X205563373Y-70232037D01*
X205629558Y-70225518D01*
X205695740Y-70219000D01*
X205784260Y-70219000D01*
X205850442Y-70225518D01*
X205850442Y-70225518D01*
G37*
G36*
X203310442Y-70225518D02*
G01*
X203376627Y-70232037D01*
X203546466Y-70283557D01*
X203702991Y-70367222D01*
X203738729Y-70396552D01*
X203840186Y-70479814D01*
X203923448Y-70581271D01*
X203952778Y-70617009D01*
X204036443Y-70773534D01*
X204087963Y-70943373D01*
X204105359Y-71120000D01*
X204087963Y-71296627D01*
X204036443Y-71466466D01*
X203952778Y-71622991D01*
X203923448Y-71658729D01*
X203840186Y-71760186D01*
X203738729Y-71843448D01*
X203702991Y-71872778D01*
X203546466Y-71956443D01*
X203376627Y-72007963D01*
X203310443Y-72014481D01*
X203244260Y-72021000D01*
X203155740Y-72021000D01*
X203089557Y-72014481D01*
X203023373Y-72007963D01*
X202853534Y-71956443D01*
X202697009Y-71872778D01*
X202661271Y-71843448D01*
X202559814Y-71760186D01*
X202476552Y-71658729D01*
X202447222Y-71622991D01*
X202363557Y-71466466D01*
X202312037Y-71296627D01*
X202294641Y-71120000D01*
X202312037Y-70943373D01*
X202363557Y-70773534D01*
X202447222Y-70617009D01*
X202476552Y-70581271D01*
X202559814Y-70479814D01*
X202661271Y-70396552D01*
X202697009Y-70367222D01*
X202853534Y-70283557D01*
X203023373Y-70232037D01*
X203089558Y-70225518D01*
X203155740Y-70219000D01*
X203244260Y-70219000D01*
X203310442Y-70225518D01*
X203310442Y-70225518D01*
G37*
G36*
X200770442Y-70225518D02*
G01*
X200836627Y-70232037D01*
X201006466Y-70283557D01*
X201162991Y-70367222D01*
X201198729Y-70396552D01*
X201300186Y-70479814D01*
X201383448Y-70581271D01*
X201412778Y-70617009D01*
X201496443Y-70773534D01*
X201547963Y-70943373D01*
X201565359Y-71120000D01*
X201547963Y-71296627D01*
X201496443Y-71466466D01*
X201412778Y-71622991D01*
X201383448Y-71658729D01*
X201300186Y-71760186D01*
X201198729Y-71843448D01*
X201162991Y-71872778D01*
X201006466Y-71956443D01*
X200836627Y-72007963D01*
X200770443Y-72014481D01*
X200704260Y-72021000D01*
X200615740Y-72021000D01*
X200549557Y-72014481D01*
X200483373Y-72007963D01*
X200313534Y-71956443D01*
X200157009Y-71872778D01*
X200121271Y-71843448D01*
X200019814Y-71760186D01*
X199936552Y-71658729D01*
X199907222Y-71622991D01*
X199823557Y-71466466D01*
X199772037Y-71296627D01*
X199754641Y-71120000D01*
X199772037Y-70943373D01*
X199823557Y-70773534D01*
X199907222Y-70617009D01*
X199936552Y-70581271D01*
X200019814Y-70479814D01*
X200121271Y-70396552D01*
X200157009Y-70367222D01*
X200313534Y-70283557D01*
X200483373Y-70232037D01*
X200549558Y-70225518D01*
X200615740Y-70219000D01*
X200704260Y-70219000D01*
X200770442Y-70225518D01*
X200770442Y-70225518D01*
G37*
G36*
X198230442Y-70225518D02*
G01*
X198296627Y-70232037D01*
X198466466Y-70283557D01*
X198622991Y-70367222D01*
X198658729Y-70396552D01*
X198760186Y-70479814D01*
X198843448Y-70581271D01*
X198872778Y-70617009D01*
X198956443Y-70773534D01*
X199007963Y-70943373D01*
X199025359Y-71120000D01*
X199007963Y-71296627D01*
X198956443Y-71466466D01*
X198872778Y-71622991D01*
X198843448Y-71658729D01*
X198760186Y-71760186D01*
X198658729Y-71843448D01*
X198622991Y-71872778D01*
X198466466Y-71956443D01*
X198296627Y-72007963D01*
X198230443Y-72014481D01*
X198164260Y-72021000D01*
X198075740Y-72021000D01*
X198009557Y-72014481D01*
X197943373Y-72007963D01*
X197773534Y-71956443D01*
X197617009Y-71872778D01*
X197581271Y-71843448D01*
X197479814Y-71760186D01*
X197396552Y-71658729D01*
X197367222Y-71622991D01*
X197283557Y-71466466D01*
X197232037Y-71296627D01*
X197214641Y-71120000D01*
X197232037Y-70943373D01*
X197283557Y-70773534D01*
X197367222Y-70617009D01*
X197396552Y-70581271D01*
X197479814Y-70479814D01*
X197581271Y-70396552D01*
X197617009Y-70367222D01*
X197773534Y-70283557D01*
X197943373Y-70232037D01*
X198009558Y-70225518D01*
X198075740Y-70219000D01*
X198164260Y-70219000D01*
X198230442Y-70225518D01*
X198230442Y-70225518D01*
G37*
G36*
X193150442Y-70225518D02*
G01*
X193216627Y-70232037D01*
X193386466Y-70283557D01*
X193542991Y-70367222D01*
X193578729Y-70396552D01*
X193680186Y-70479814D01*
X193763448Y-70581271D01*
X193792778Y-70617009D01*
X193876443Y-70773534D01*
X193927963Y-70943373D01*
X193945359Y-71120000D01*
X193927963Y-71296627D01*
X193876443Y-71466466D01*
X193792778Y-71622991D01*
X193763448Y-71658729D01*
X193680186Y-71760186D01*
X193578729Y-71843448D01*
X193542991Y-71872778D01*
X193386466Y-71956443D01*
X193216627Y-72007963D01*
X193150443Y-72014481D01*
X193084260Y-72021000D01*
X192995740Y-72021000D01*
X192929557Y-72014481D01*
X192863373Y-72007963D01*
X192693534Y-71956443D01*
X192537009Y-71872778D01*
X192501271Y-71843448D01*
X192399814Y-71760186D01*
X192316552Y-71658729D01*
X192287222Y-71622991D01*
X192203557Y-71466466D01*
X192152037Y-71296627D01*
X192134641Y-71120000D01*
X192152037Y-70943373D01*
X192203557Y-70773534D01*
X192287222Y-70617009D01*
X192316552Y-70581271D01*
X192399814Y-70479814D01*
X192501271Y-70396552D01*
X192537009Y-70367222D01*
X192693534Y-70283557D01*
X192863373Y-70232037D01*
X192929558Y-70225518D01*
X192995740Y-70219000D01*
X193084260Y-70219000D01*
X193150442Y-70225518D01*
X193150442Y-70225518D01*
G37*
G36*
X190610442Y-70225518D02*
G01*
X190676627Y-70232037D01*
X190846466Y-70283557D01*
X191002991Y-70367222D01*
X191038729Y-70396552D01*
X191140186Y-70479814D01*
X191223448Y-70581271D01*
X191252778Y-70617009D01*
X191336443Y-70773534D01*
X191387963Y-70943373D01*
X191405359Y-71120000D01*
X191387963Y-71296627D01*
X191336443Y-71466466D01*
X191252778Y-71622991D01*
X191223448Y-71658729D01*
X191140186Y-71760186D01*
X191038729Y-71843448D01*
X191002991Y-71872778D01*
X190846466Y-71956443D01*
X190676627Y-72007963D01*
X190610443Y-72014481D01*
X190544260Y-72021000D01*
X190455740Y-72021000D01*
X190389557Y-72014481D01*
X190323373Y-72007963D01*
X190153534Y-71956443D01*
X189997009Y-71872778D01*
X189961271Y-71843448D01*
X189859814Y-71760186D01*
X189776552Y-71658729D01*
X189747222Y-71622991D01*
X189663557Y-71466466D01*
X189612037Y-71296627D01*
X189594641Y-71120000D01*
X189612037Y-70943373D01*
X189663557Y-70773534D01*
X189747222Y-70617009D01*
X189776552Y-70581271D01*
X189859814Y-70479814D01*
X189961271Y-70396552D01*
X189997009Y-70367222D01*
X190153534Y-70283557D01*
X190323373Y-70232037D01*
X190389558Y-70225518D01*
X190455740Y-70219000D01*
X190544260Y-70219000D01*
X190610442Y-70225518D01*
X190610442Y-70225518D01*
G37*
G36*
X168541000Y-72021000D02*
G01*
X166739000Y-72021000D01*
X166739000Y-70219000D01*
X168541000Y-70219000D01*
X168541000Y-72021000D01*
X168541000Y-72021000D01*
G37*
G36*
X153301000Y-72021000D02*
G01*
X151499000Y-72021000D01*
X151499000Y-70219000D01*
X153301000Y-70219000D01*
X153301000Y-72021000D01*
X153301000Y-72021000D01*
G37*
G36*
X149970442Y-70225518D02*
G01*
X150036627Y-70232037D01*
X150206466Y-70283557D01*
X150362991Y-70367222D01*
X150398729Y-70396552D01*
X150500186Y-70479814D01*
X150583448Y-70581271D01*
X150612778Y-70617009D01*
X150696443Y-70773534D01*
X150747963Y-70943373D01*
X150765359Y-71120000D01*
X150747963Y-71296627D01*
X150696443Y-71466466D01*
X150612778Y-71622991D01*
X150583448Y-71658729D01*
X150500186Y-71760186D01*
X150398729Y-71843448D01*
X150362991Y-71872778D01*
X150206466Y-71956443D01*
X150036627Y-72007963D01*
X149970443Y-72014481D01*
X149904260Y-72021000D01*
X149815740Y-72021000D01*
X149749557Y-72014481D01*
X149683373Y-72007963D01*
X149513534Y-71956443D01*
X149357009Y-71872778D01*
X149321271Y-71843448D01*
X149219814Y-71760186D01*
X149136552Y-71658729D01*
X149107222Y-71622991D01*
X149023557Y-71466466D01*
X148972037Y-71296627D01*
X148954641Y-71120000D01*
X148972037Y-70943373D01*
X149023557Y-70773534D01*
X149107222Y-70617009D01*
X149136552Y-70581271D01*
X149219814Y-70479814D01*
X149321271Y-70396552D01*
X149357009Y-70367222D01*
X149513534Y-70283557D01*
X149683373Y-70232037D01*
X149749558Y-70225518D01*
X149815740Y-70219000D01*
X149904260Y-70219000D01*
X149970442Y-70225518D01*
X149970442Y-70225518D01*
G37*
G36*
X198230443Y-67685519D02*
G01*
X198296627Y-67692037D01*
X198466466Y-67743557D01*
X198622991Y-67827222D01*
X198658729Y-67856552D01*
X198760186Y-67939814D01*
X198843448Y-68041271D01*
X198872778Y-68077009D01*
X198956443Y-68233534D01*
X199007963Y-68403373D01*
X199025359Y-68580000D01*
X199007963Y-68756627D01*
X198956443Y-68926466D01*
X198872778Y-69082991D01*
X198843448Y-69118729D01*
X198760186Y-69220186D01*
X198658729Y-69303448D01*
X198622991Y-69332778D01*
X198466466Y-69416443D01*
X198296627Y-69467963D01*
X198230442Y-69474482D01*
X198164260Y-69481000D01*
X198075740Y-69481000D01*
X198009558Y-69474482D01*
X197943373Y-69467963D01*
X197773534Y-69416443D01*
X197617009Y-69332778D01*
X197581271Y-69303448D01*
X197479814Y-69220186D01*
X197396552Y-69118729D01*
X197367222Y-69082991D01*
X197283557Y-68926466D01*
X197232037Y-68756627D01*
X197214641Y-68580000D01*
X197232037Y-68403373D01*
X197283557Y-68233534D01*
X197367222Y-68077009D01*
X197396552Y-68041271D01*
X197479814Y-67939814D01*
X197581271Y-67856552D01*
X197617009Y-67827222D01*
X197773534Y-67743557D01*
X197943373Y-67692037D01*
X198009557Y-67685519D01*
X198075740Y-67679000D01*
X198164260Y-67679000D01*
X198230443Y-67685519D01*
X198230443Y-67685519D01*
G37*
G36*
X182990443Y-67685519D02*
G01*
X183056627Y-67692037D01*
X183226466Y-67743557D01*
X183382991Y-67827222D01*
X183418729Y-67856552D01*
X183520186Y-67939814D01*
X183603448Y-68041271D01*
X183632778Y-68077009D01*
X183716443Y-68233534D01*
X183767963Y-68403373D01*
X183785359Y-68580000D01*
X183767963Y-68756627D01*
X183716443Y-68926466D01*
X183632778Y-69082991D01*
X183603448Y-69118729D01*
X183520186Y-69220186D01*
X183418729Y-69303448D01*
X183382991Y-69332778D01*
X183226466Y-69416443D01*
X183056627Y-69467963D01*
X182990442Y-69474482D01*
X182924260Y-69481000D01*
X182835740Y-69481000D01*
X182769558Y-69474482D01*
X182703373Y-69467963D01*
X182533534Y-69416443D01*
X182377009Y-69332778D01*
X182341271Y-69303448D01*
X182239814Y-69220186D01*
X182156552Y-69118729D01*
X182127222Y-69082991D01*
X182043557Y-68926466D01*
X181992037Y-68756627D01*
X181974641Y-68580000D01*
X181992037Y-68403373D01*
X182043557Y-68233534D01*
X182127222Y-68077009D01*
X182156552Y-68041271D01*
X182239814Y-67939814D01*
X182341271Y-67856552D01*
X182377009Y-67827222D01*
X182533534Y-67743557D01*
X182703373Y-67692037D01*
X182769557Y-67685519D01*
X182835740Y-67679000D01*
X182924260Y-67679000D01*
X182990443Y-67685519D01*
X182990443Y-67685519D01*
G37*
G36*
X167750443Y-67685519D02*
G01*
X167816627Y-67692037D01*
X167986466Y-67743557D01*
X168142991Y-67827222D01*
X168178729Y-67856552D01*
X168280186Y-67939814D01*
X168363448Y-68041271D01*
X168392778Y-68077009D01*
X168476443Y-68233534D01*
X168527963Y-68403373D01*
X168545359Y-68580000D01*
X168527963Y-68756627D01*
X168476443Y-68926466D01*
X168392778Y-69082991D01*
X168363448Y-69118729D01*
X168280186Y-69220186D01*
X168178729Y-69303448D01*
X168142991Y-69332778D01*
X167986466Y-69416443D01*
X167816627Y-69467963D01*
X167750442Y-69474482D01*
X167684260Y-69481000D01*
X167595740Y-69481000D01*
X167529558Y-69474482D01*
X167463373Y-69467963D01*
X167293534Y-69416443D01*
X167137009Y-69332778D01*
X167101271Y-69303448D01*
X166999814Y-69220186D01*
X166916552Y-69118729D01*
X166887222Y-69082991D01*
X166803557Y-68926466D01*
X166752037Y-68756627D01*
X166734641Y-68580000D01*
X166752037Y-68403373D01*
X166803557Y-68233534D01*
X166887222Y-68077009D01*
X166916552Y-68041271D01*
X166999814Y-67939814D01*
X167101271Y-67856552D01*
X167137009Y-67827222D01*
X167293534Y-67743557D01*
X167463373Y-67692037D01*
X167529557Y-67685519D01*
X167595740Y-67679000D01*
X167684260Y-67679000D01*
X167750443Y-67685519D01*
X167750443Y-67685519D01*
G37*
G36*
X165210443Y-67685519D02*
G01*
X165276627Y-67692037D01*
X165446466Y-67743557D01*
X165602991Y-67827222D01*
X165638729Y-67856552D01*
X165740186Y-67939814D01*
X165823448Y-68041271D01*
X165852778Y-68077009D01*
X165936443Y-68233534D01*
X165987963Y-68403373D01*
X166005359Y-68580000D01*
X165987963Y-68756627D01*
X165936443Y-68926466D01*
X165852778Y-69082991D01*
X165823448Y-69118729D01*
X165740186Y-69220186D01*
X165638729Y-69303448D01*
X165602991Y-69332778D01*
X165446466Y-69416443D01*
X165276627Y-69467963D01*
X165210442Y-69474482D01*
X165144260Y-69481000D01*
X165055740Y-69481000D01*
X164989558Y-69474482D01*
X164923373Y-69467963D01*
X164753534Y-69416443D01*
X164597009Y-69332778D01*
X164561271Y-69303448D01*
X164459814Y-69220186D01*
X164376552Y-69118729D01*
X164347222Y-69082991D01*
X164263557Y-68926466D01*
X164212037Y-68756627D01*
X164194641Y-68580000D01*
X164212037Y-68403373D01*
X164263557Y-68233534D01*
X164347222Y-68077009D01*
X164376552Y-68041271D01*
X164459814Y-67939814D01*
X164561271Y-67856552D01*
X164597009Y-67827222D01*
X164753534Y-67743557D01*
X164923373Y-67692037D01*
X164989557Y-67685519D01*
X165055740Y-67679000D01*
X165144260Y-67679000D01*
X165210443Y-67685519D01*
X165210443Y-67685519D01*
G37*
G36*
X162670443Y-67685519D02*
G01*
X162736627Y-67692037D01*
X162906466Y-67743557D01*
X163062991Y-67827222D01*
X163098729Y-67856552D01*
X163200186Y-67939814D01*
X163283448Y-68041271D01*
X163312778Y-68077009D01*
X163396443Y-68233534D01*
X163447963Y-68403373D01*
X163465359Y-68580000D01*
X163447963Y-68756627D01*
X163396443Y-68926466D01*
X163312778Y-69082991D01*
X163283448Y-69118729D01*
X163200186Y-69220186D01*
X163098729Y-69303448D01*
X163062991Y-69332778D01*
X162906466Y-69416443D01*
X162736627Y-69467963D01*
X162670442Y-69474482D01*
X162604260Y-69481000D01*
X162515740Y-69481000D01*
X162449558Y-69474482D01*
X162383373Y-69467963D01*
X162213534Y-69416443D01*
X162057009Y-69332778D01*
X162021271Y-69303448D01*
X161919814Y-69220186D01*
X161836552Y-69118729D01*
X161807222Y-69082991D01*
X161723557Y-68926466D01*
X161672037Y-68756627D01*
X161654641Y-68580000D01*
X161672037Y-68403373D01*
X161723557Y-68233534D01*
X161807222Y-68077009D01*
X161836552Y-68041271D01*
X161919814Y-67939814D01*
X162021271Y-67856552D01*
X162057009Y-67827222D01*
X162213534Y-67743557D01*
X162383373Y-67692037D01*
X162449557Y-67685519D01*
X162515740Y-67679000D01*
X162604260Y-67679000D01*
X162670443Y-67685519D01*
X162670443Y-67685519D01*
G37*
G36*
X160130443Y-67685519D02*
G01*
X160196627Y-67692037D01*
X160366466Y-67743557D01*
X160522991Y-67827222D01*
X160558729Y-67856552D01*
X160660186Y-67939814D01*
X160743448Y-68041271D01*
X160772778Y-68077009D01*
X160856443Y-68233534D01*
X160907963Y-68403373D01*
X160925359Y-68580000D01*
X160907963Y-68756627D01*
X160856443Y-68926466D01*
X160772778Y-69082991D01*
X160743448Y-69118729D01*
X160660186Y-69220186D01*
X160558729Y-69303448D01*
X160522991Y-69332778D01*
X160366466Y-69416443D01*
X160196627Y-69467963D01*
X160130442Y-69474482D01*
X160064260Y-69481000D01*
X159975740Y-69481000D01*
X159909558Y-69474482D01*
X159843373Y-69467963D01*
X159673534Y-69416443D01*
X159517009Y-69332778D01*
X159481271Y-69303448D01*
X159379814Y-69220186D01*
X159296552Y-69118729D01*
X159267222Y-69082991D01*
X159183557Y-68926466D01*
X159132037Y-68756627D01*
X159114641Y-68580000D01*
X159132037Y-68403373D01*
X159183557Y-68233534D01*
X159267222Y-68077009D01*
X159296552Y-68041271D01*
X159379814Y-67939814D01*
X159481271Y-67856552D01*
X159517009Y-67827222D01*
X159673534Y-67743557D01*
X159843373Y-67692037D01*
X159909557Y-67685519D01*
X159975740Y-67679000D01*
X160064260Y-67679000D01*
X160130443Y-67685519D01*
X160130443Y-67685519D01*
G37*
G36*
X157590443Y-67685519D02*
G01*
X157656627Y-67692037D01*
X157826466Y-67743557D01*
X157982991Y-67827222D01*
X158018729Y-67856552D01*
X158120186Y-67939814D01*
X158203448Y-68041271D01*
X158232778Y-68077009D01*
X158316443Y-68233534D01*
X158367963Y-68403373D01*
X158385359Y-68580000D01*
X158367963Y-68756627D01*
X158316443Y-68926466D01*
X158232778Y-69082991D01*
X158203448Y-69118729D01*
X158120186Y-69220186D01*
X158018729Y-69303448D01*
X157982991Y-69332778D01*
X157826466Y-69416443D01*
X157656627Y-69467963D01*
X157590442Y-69474482D01*
X157524260Y-69481000D01*
X157435740Y-69481000D01*
X157369558Y-69474482D01*
X157303373Y-69467963D01*
X157133534Y-69416443D01*
X156977009Y-69332778D01*
X156941271Y-69303448D01*
X156839814Y-69220186D01*
X156756552Y-69118729D01*
X156727222Y-69082991D01*
X156643557Y-68926466D01*
X156592037Y-68756627D01*
X156574641Y-68580000D01*
X156592037Y-68403373D01*
X156643557Y-68233534D01*
X156727222Y-68077009D01*
X156756552Y-68041271D01*
X156839814Y-67939814D01*
X156941271Y-67856552D01*
X156977009Y-67827222D01*
X157133534Y-67743557D01*
X157303373Y-67692037D01*
X157369557Y-67685519D01*
X157435740Y-67679000D01*
X157524260Y-67679000D01*
X157590443Y-67685519D01*
X157590443Y-67685519D01*
G37*
G36*
X155050443Y-67685519D02*
G01*
X155116627Y-67692037D01*
X155286466Y-67743557D01*
X155442991Y-67827222D01*
X155478729Y-67856552D01*
X155580186Y-67939814D01*
X155663448Y-68041271D01*
X155692778Y-68077009D01*
X155776443Y-68233534D01*
X155827963Y-68403373D01*
X155845359Y-68580000D01*
X155827963Y-68756627D01*
X155776443Y-68926466D01*
X155692778Y-69082991D01*
X155663448Y-69118729D01*
X155580186Y-69220186D01*
X155478729Y-69303448D01*
X155442991Y-69332778D01*
X155286466Y-69416443D01*
X155116627Y-69467963D01*
X155050442Y-69474482D01*
X154984260Y-69481000D01*
X154895740Y-69481000D01*
X154829558Y-69474482D01*
X154763373Y-69467963D01*
X154593534Y-69416443D01*
X154437009Y-69332778D01*
X154401271Y-69303448D01*
X154299814Y-69220186D01*
X154216552Y-69118729D01*
X154187222Y-69082991D01*
X154103557Y-68926466D01*
X154052037Y-68756627D01*
X154034641Y-68580000D01*
X154052037Y-68403373D01*
X154103557Y-68233534D01*
X154187222Y-68077009D01*
X154216552Y-68041271D01*
X154299814Y-67939814D01*
X154401271Y-67856552D01*
X154437009Y-67827222D01*
X154593534Y-67743557D01*
X154763373Y-67692037D01*
X154829557Y-67685519D01*
X154895740Y-67679000D01*
X154984260Y-67679000D01*
X155050443Y-67685519D01*
X155050443Y-67685519D01*
G37*
G36*
X152510443Y-67685519D02*
G01*
X152576627Y-67692037D01*
X152746466Y-67743557D01*
X152902991Y-67827222D01*
X152938729Y-67856552D01*
X153040186Y-67939814D01*
X153123448Y-68041271D01*
X153152778Y-68077009D01*
X153236443Y-68233534D01*
X153287963Y-68403373D01*
X153305359Y-68580000D01*
X153287963Y-68756627D01*
X153236443Y-68926466D01*
X153152778Y-69082991D01*
X153123448Y-69118729D01*
X153040186Y-69220186D01*
X152938729Y-69303448D01*
X152902991Y-69332778D01*
X152746466Y-69416443D01*
X152576627Y-69467963D01*
X152510442Y-69474482D01*
X152444260Y-69481000D01*
X152355740Y-69481000D01*
X152289558Y-69474482D01*
X152223373Y-69467963D01*
X152053534Y-69416443D01*
X151897009Y-69332778D01*
X151861271Y-69303448D01*
X151759814Y-69220186D01*
X151676552Y-69118729D01*
X151647222Y-69082991D01*
X151563557Y-68926466D01*
X151512037Y-68756627D01*
X151494641Y-68580000D01*
X151512037Y-68403373D01*
X151563557Y-68233534D01*
X151647222Y-68077009D01*
X151676552Y-68041271D01*
X151759814Y-67939814D01*
X151861271Y-67856552D01*
X151897009Y-67827222D01*
X152053534Y-67743557D01*
X152223373Y-67692037D01*
X152289557Y-67685519D01*
X152355740Y-67679000D01*
X152444260Y-67679000D01*
X152510443Y-67685519D01*
X152510443Y-67685519D01*
G37*
G36*
X150761000Y-69481000D02*
G01*
X148959000Y-69481000D01*
X148959000Y-67679000D01*
X150761000Y-67679000D01*
X150761000Y-69481000D01*
X150761000Y-69481000D01*
G37*
G36*
X218550443Y-67685519D02*
G01*
X218616627Y-67692037D01*
X218786466Y-67743557D01*
X218942991Y-67827222D01*
X218978729Y-67856552D01*
X219080186Y-67939814D01*
X219163448Y-68041271D01*
X219192778Y-68077009D01*
X219276443Y-68233534D01*
X219327963Y-68403373D01*
X219345359Y-68580000D01*
X219327963Y-68756627D01*
X219276443Y-68926466D01*
X219192778Y-69082991D01*
X219163448Y-69118729D01*
X219080186Y-69220186D01*
X218978729Y-69303448D01*
X218942991Y-69332778D01*
X218786466Y-69416443D01*
X218616627Y-69467963D01*
X218550442Y-69474482D01*
X218484260Y-69481000D01*
X218395740Y-69481000D01*
X218329558Y-69474482D01*
X218263373Y-69467963D01*
X218093534Y-69416443D01*
X217937009Y-69332778D01*
X217901271Y-69303448D01*
X217799814Y-69220186D01*
X217716552Y-69118729D01*
X217687222Y-69082991D01*
X217603557Y-68926466D01*
X217552037Y-68756627D01*
X217534641Y-68580000D01*
X217552037Y-68403373D01*
X217603557Y-68233534D01*
X217687222Y-68077009D01*
X217716552Y-68041271D01*
X217799814Y-67939814D01*
X217901271Y-67856552D01*
X217937009Y-67827222D01*
X218093534Y-67743557D01*
X218263373Y-67692037D01*
X218329557Y-67685519D01*
X218395740Y-67679000D01*
X218484260Y-67679000D01*
X218550443Y-67685519D01*
X218550443Y-67685519D01*
G37*
G36*
X216010443Y-67685519D02*
G01*
X216076627Y-67692037D01*
X216246466Y-67743557D01*
X216402991Y-67827222D01*
X216438729Y-67856552D01*
X216540186Y-67939814D01*
X216623448Y-68041271D01*
X216652778Y-68077009D01*
X216736443Y-68233534D01*
X216787963Y-68403373D01*
X216805359Y-68580000D01*
X216787963Y-68756627D01*
X216736443Y-68926466D01*
X216652778Y-69082991D01*
X216623448Y-69118729D01*
X216540186Y-69220186D01*
X216438729Y-69303448D01*
X216402991Y-69332778D01*
X216246466Y-69416443D01*
X216076627Y-69467963D01*
X216010442Y-69474482D01*
X215944260Y-69481000D01*
X215855740Y-69481000D01*
X215789558Y-69474482D01*
X215723373Y-69467963D01*
X215553534Y-69416443D01*
X215397009Y-69332778D01*
X215361271Y-69303448D01*
X215259814Y-69220186D01*
X215176552Y-69118729D01*
X215147222Y-69082991D01*
X215063557Y-68926466D01*
X215012037Y-68756627D01*
X214994641Y-68580000D01*
X215012037Y-68403373D01*
X215063557Y-68233534D01*
X215147222Y-68077009D01*
X215176552Y-68041271D01*
X215259814Y-67939814D01*
X215361271Y-67856552D01*
X215397009Y-67827222D01*
X215553534Y-67743557D01*
X215723373Y-67692037D01*
X215789557Y-67685519D01*
X215855740Y-67679000D01*
X215944260Y-67679000D01*
X216010443Y-67685519D01*
X216010443Y-67685519D01*
G37*
G36*
X213470443Y-67685519D02*
G01*
X213536627Y-67692037D01*
X213706466Y-67743557D01*
X213862991Y-67827222D01*
X213898729Y-67856552D01*
X214000186Y-67939814D01*
X214083448Y-68041271D01*
X214112778Y-68077009D01*
X214196443Y-68233534D01*
X214247963Y-68403373D01*
X214265359Y-68580000D01*
X214247963Y-68756627D01*
X214196443Y-68926466D01*
X214112778Y-69082991D01*
X214083448Y-69118729D01*
X214000186Y-69220186D01*
X213898729Y-69303448D01*
X213862991Y-69332778D01*
X213706466Y-69416443D01*
X213536627Y-69467963D01*
X213470442Y-69474482D01*
X213404260Y-69481000D01*
X213315740Y-69481000D01*
X213249558Y-69474482D01*
X213183373Y-69467963D01*
X213013534Y-69416443D01*
X212857009Y-69332778D01*
X212821271Y-69303448D01*
X212719814Y-69220186D01*
X212636552Y-69118729D01*
X212607222Y-69082991D01*
X212523557Y-68926466D01*
X212472037Y-68756627D01*
X212454641Y-68580000D01*
X212472037Y-68403373D01*
X212523557Y-68233534D01*
X212607222Y-68077009D01*
X212636552Y-68041271D01*
X212719814Y-67939814D01*
X212821271Y-67856552D01*
X212857009Y-67827222D01*
X213013534Y-67743557D01*
X213183373Y-67692037D01*
X213249557Y-67685519D01*
X213315740Y-67679000D01*
X213404260Y-67679000D01*
X213470443Y-67685519D01*
X213470443Y-67685519D01*
G37*
G36*
X210930443Y-67685519D02*
G01*
X210996627Y-67692037D01*
X211166466Y-67743557D01*
X211322991Y-67827222D01*
X211358729Y-67856552D01*
X211460186Y-67939814D01*
X211543448Y-68041271D01*
X211572778Y-68077009D01*
X211656443Y-68233534D01*
X211707963Y-68403373D01*
X211725359Y-68580000D01*
X211707963Y-68756627D01*
X211656443Y-68926466D01*
X211572778Y-69082991D01*
X211543448Y-69118729D01*
X211460186Y-69220186D01*
X211358729Y-69303448D01*
X211322991Y-69332778D01*
X211166466Y-69416443D01*
X210996627Y-69467963D01*
X210930442Y-69474482D01*
X210864260Y-69481000D01*
X210775740Y-69481000D01*
X210709558Y-69474482D01*
X210643373Y-69467963D01*
X210473534Y-69416443D01*
X210317009Y-69332778D01*
X210281271Y-69303448D01*
X210179814Y-69220186D01*
X210096552Y-69118729D01*
X210067222Y-69082991D01*
X209983557Y-68926466D01*
X209932037Y-68756627D01*
X209914641Y-68580000D01*
X209932037Y-68403373D01*
X209983557Y-68233534D01*
X210067222Y-68077009D01*
X210096552Y-68041271D01*
X210179814Y-67939814D01*
X210281271Y-67856552D01*
X210317009Y-67827222D01*
X210473534Y-67743557D01*
X210643373Y-67692037D01*
X210709557Y-67685519D01*
X210775740Y-67679000D01*
X210864260Y-67679000D01*
X210930443Y-67685519D01*
X210930443Y-67685519D01*
G37*
G36*
X208390443Y-67685519D02*
G01*
X208456627Y-67692037D01*
X208626466Y-67743557D01*
X208782991Y-67827222D01*
X208818729Y-67856552D01*
X208920186Y-67939814D01*
X209003448Y-68041271D01*
X209032778Y-68077009D01*
X209116443Y-68233534D01*
X209167963Y-68403373D01*
X209185359Y-68580000D01*
X209167963Y-68756627D01*
X209116443Y-68926466D01*
X209032778Y-69082991D01*
X209003448Y-69118729D01*
X208920186Y-69220186D01*
X208818729Y-69303448D01*
X208782991Y-69332778D01*
X208626466Y-69416443D01*
X208456627Y-69467963D01*
X208390442Y-69474482D01*
X208324260Y-69481000D01*
X208235740Y-69481000D01*
X208169558Y-69474482D01*
X208103373Y-69467963D01*
X207933534Y-69416443D01*
X207777009Y-69332778D01*
X207741271Y-69303448D01*
X207639814Y-69220186D01*
X207556552Y-69118729D01*
X207527222Y-69082991D01*
X207443557Y-68926466D01*
X207392037Y-68756627D01*
X207374641Y-68580000D01*
X207392037Y-68403373D01*
X207443557Y-68233534D01*
X207527222Y-68077009D01*
X207556552Y-68041271D01*
X207639814Y-67939814D01*
X207741271Y-67856552D01*
X207777009Y-67827222D01*
X207933534Y-67743557D01*
X208103373Y-67692037D01*
X208169557Y-67685519D01*
X208235740Y-67679000D01*
X208324260Y-67679000D01*
X208390443Y-67685519D01*
X208390443Y-67685519D01*
G37*
G36*
X205850443Y-67685519D02*
G01*
X205916627Y-67692037D01*
X206086466Y-67743557D01*
X206242991Y-67827222D01*
X206278729Y-67856552D01*
X206380186Y-67939814D01*
X206463448Y-68041271D01*
X206492778Y-68077009D01*
X206576443Y-68233534D01*
X206627963Y-68403373D01*
X206645359Y-68580000D01*
X206627963Y-68756627D01*
X206576443Y-68926466D01*
X206492778Y-69082991D01*
X206463448Y-69118729D01*
X206380186Y-69220186D01*
X206278729Y-69303448D01*
X206242991Y-69332778D01*
X206086466Y-69416443D01*
X205916627Y-69467963D01*
X205850442Y-69474482D01*
X205784260Y-69481000D01*
X205695740Y-69481000D01*
X205629558Y-69474482D01*
X205563373Y-69467963D01*
X205393534Y-69416443D01*
X205237009Y-69332778D01*
X205201271Y-69303448D01*
X205099814Y-69220186D01*
X205016552Y-69118729D01*
X204987222Y-69082991D01*
X204903557Y-68926466D01*
X204852037Y-68756627D01*
X204834641Y-68580000D01*
X204852037Y-68403373D01*
X204903557Y-68233534D01*
X204987222Y-68077009D01*
X205016552Y-68041271D01*
X205099814Y-67939814D01*
X205201271Y-67856552D01*
X205237009Y-67827222D01*
X205393534Y-67743557D01*
X205563373Y-67692037D01*
X205629557Y-67685519D01*
X205695740Y-67679000D01*
X205784260Y-67679000D01*
X205850443Y-67685519D01*
X205850443Y-67685519D01*
G37*
G36*
X203310443Y-67685519D02*
G01*
X203376627Y-67692037D01*
X203546466Y-67743557D01*
X203702991Y-67827222D01*
X203738729Y-67856552D01*
X203840186Y-67939814D01*
X203923448Y-68041271D01*
X203952778Y-68077009D01*
X204036443Y-68233534D01*
X204087963Y-68403373D01*
X204105359Y-68580000D01*
X204087963Y-68756627D01*
X204036443Y-68926466D01*
X203952778Y-69082991D01*
X203923448Y-69118729D01*
X203840186Y-69220186D01*
X203738729Y-69303448D01*
X203702991Y-69332778D01*
X203546466Y-69416443D01*
X203376627Y-69467963D01*
X203310442Y-69474482D01*
X203244260Y-69481000D01*
X203155740Y-69481000D01*
X203089558Y-69474482D01*
X203023373Y-69467963D01*
X202853534Y-69416443D01*
X202697009Y-69332778D01*
X202661271Y-69303448D01*
X202559814Y-69220186D01*
X202476552Y-69118729D01*
X202447222Y-69082991D01*
X202363557Y-68926466D01*
X202312037Y-68756627D01*
X202294641Y-68580000D01*
X202312037Y-68403373D01*
X202363557Y-68233534D01*
X202447222Y-68077009D01*
X202476552Y-68041271D01*
X202559814Y-67939814D01*
X202661271Y-67856552D01*
X202697009Y-67827222D01*
X202853534Y-67743557D01*
X203023373Y-67692037D01*
X203089557Y-67685519D01*
X203155740Y-67679000D01*
X203244260Y-67679000D01*
X203310443Y-67685519D01*
X203310443Y-67685519D01*
G37*
G36*
X172830443Y-67685519D02*
G01*
X172896627Y-67692037D01*
X173066466Y-67743557D01*
X173222991Y-67827222D01*
X173258729Y-67856552D01*
X173360186Y-67939814D01*
X173443448Y-68041271D01*
X173472778Y-68077009D01*
X173556443Y-68233534D01*
X173607963Y-68403373D01*
X173625359Y-68580000D01*
X173607963Y-68756627D01*
X173556443Y-68926466D01*
X173472778Y-69082991D01*
X173443448Y-69118729D01*
X173360186Y-69220186D01*
X173258729Y-69303448D01*
X173222991Y-69332778D01*
X173066466Y-69416443D01*
X172896627Y-69467963D01*
X172830442Y-69474482D01*
X172764260Y-69481000D01*
X172675740Y-69481000D01*
X172609558Y-69474482D01*
X172543373Y-69467963D01*
X172373534Y-69416443D01*
X172217009Y-69332778D01*
X172181271Y-69303448D01*
X172079814Y-69220186D01*
X171996552Y-69118729D01*
X171967222Y-69082991D01*
X171883557Y-68926466D01*
X171832037Y-68756627D01*
X171814641Y-68580000D01*
X171832037Y-68403373D01*
X171883557Y-68233534D01*
X171967222Y-68077009D01*
X171996552Y-68041271D01*
X172079814Y-67939814D01*
X172181271Y-67856552D01*
X172217009Y-67827222D01*
X172373534Y-67743557D01*
X172543373Y-67692037D01*
X172609557Y-67685519D01*
X172675740Y-67679000D01*
X172764260Y-67679000D01*
X172830443Y-67685519D01*
X172830443Y-67685519D01*
G37*
G36*
X200770443Y-67685519D02*
G01*
X200836627Y-67692037D01*
X201006466Y-67743557D01*
X201162991Y-67827222D01*
X201198729Y-67856552D01*
X201300186Y-67939814D01*
X201383448Y-68041271D01*
X201412778Y-68077009D01*
X201496443Y-68233534D01*
X201547963Y-68403373D01*
X201565359Y-68580000D01*
X201547963Y-68756627D01*
X201496443Y-68926466D01*
X201412778Y-69082991D01*
X201383448Y-69118729D01*
X201300186Y-69220186D01*
X201198729Y-69303448D01*
X201162991Y-69332778D01*
X201006466Y-69416443D01*
X200836627Y-69467963D01*
X200770442Y-69474482D01*
X200704260Y-69481000D01*
X200615740Y-69481000D01*
X200549558Y-69474482D01*
X200483373Y-69467963D01*
X200313534Y-69416443D01*
X200157009Y-69332778D01*
X200121271Y-69303448D01*
X200019814Y-69220186D01*
X199936552Y-69118729D01*
X199907222Y-69082991D01*
X199823557Y-68926466D01*
X199772037Y-68756627D01*
X199754641Y-68580000D01*
X199772037Y-68403373D01*
X199823557Y-68233534D01*
X199907222Y-68077009D01*
X199936552Y-68041271D01*
X200019814Y-67939814D01*
X200121271Y-67856552D01*
X200157009Y-67827222D01*
X200313534Y-67743557D01*
X200483373Y-67692037D01*
X200549557Y-67685519D01*
X200615740Y-67679000D01*
X200704260Y-67679000D01*
X200770443Y-67685519D01*
X200770443Y-67685519D01*
G37*
G36*
X195690443Y-67685519D02*
G01*
X195756627Y-67692037D01*
X195926466Y-67743557D01*
X196082991Y-67827222D01*
X196118729Y-67856552D01*
X196220186Y-67939814D01*
X196303448Y-68041271D01*
X196332778Y-68077009D01*
X196416443Y-68233534D01*
X196467963Y-68403373D01*
X196485359Y-68580000D01*
X196467963Y-68756627D01*
X196416443Y-68926466D01*
X196332778Y-69082991D01*
X196303448Y-69118729D01*
X196220186Y-69220186D01*
X196118729Y-69303448D01*
X196082991Y-69332778D01*
X195926466Y-69416443D01*
X195756627Y-69467963D01*
X195690442Y-69474482D01*
X195624260Y-69481000D01*
X195535740Y-69481000D01*
X195469558Y-69474482D01*
X195403373Y-69467963D01*
X195233534Y-69416443D01*
X195077009Y-69332778D01*
X195041271Y-69303448D01*
X194939814Y-69220186D01*
X194856552Y-69118729D01*
X194827222Y-69082991D01*
X194743557Y-68926466D01*
X194692037Y-68756627D01*
X194674641Y-68580000D01*
X194692037Y-68403373D01*
X194743557Y-68233534D01*
X194827222Y-68077009D01*
X194856552Y-68041271D01*
X194939814Y-67939814D01*
X195041271Y-67856552D01*
X195077009Y-67827222D01*
X195233534Y-67743557D01*
X195403373Y-67692037D01*
X195469557Y-67685519D01*
X195535740Y-67679000D01*
X195624260Y-67679000D01*
X195690443Y-67685519D01*
X195690443Y-67685519D01*
G37*
G36*
X193150443Y-67685519D02*
G01*
X193216627Y-67692037D01*
X193386466Y-67743557D01*
X193542991Y-67827222D01*
X193578729Y-67856552D01*
X193680186Y-67939814D01*
X193763448Y-68041271D01*
X193792778Y-68077009D01*
X193876443Y-68233534D01*
X193927963Y-68403373D01*
X193945359Y-68580000D01*
X193927963Y-68756627D01*
X193876443Y-68926466D01*
X193792778Y-69082991D01*
X193763448Y-69118729D01*
X193680186Y-69220186D01*
X193578729Y-69303448D01*
X193542991Y-69332778D01*
X193386466Y-69416443D01*
X193216627Y-69467963D01*
X193150442Y-69474482D01*
X193084260Y-69481000D01*
X192995740Y-69481000D01*
X192929558Y-69474482D01*
X192863373Y-69467963D01*
X192693534Y-69416443D01*
X192537009Y-69332778D01*
X192501271Y-69303448D01*
X192399814Y-69220186D01*
X192316552Y-69118729D01*
X192287222Y-69082991D01*
X192203557Y-68926466D01*
X192152037Y-68756627D01*
X192134641Y-68580000D01*
X192152037Y-68403373D01*
X192203557Y-68233534D01*
X192287222Y-68077009D01*
X192316552Y-68041271D01*
X192399814Y-67939814D01*
X192501271Y-67856552D01*
X192537009Y-67827222D01*
X192693534Y-67743557D01*
X192863373Y-67692037D01*
X192929557Y-67685519D01*
X192995740Y-67679000D01*
X193084260Y-67679000D01*
X193150443Y-67685519D01*
X193150443Y-67685519D01*
G37*
G36*
X190610443Y-67685519D02*
G01*
X190676627Y-67692037D01*
X190846466Y-67743557D01*
X191002991Y-67827222D01*
X191038729Y-67856552D01*
X191140186Y-67939814D01*
X191223448Y-68041271D01*
X191252778Y-68077009D01*
X191336443Y-68233534D01*
X191387963Y-68403373D01*
X191405359Y-68580000D01*
X191387963Y-68756627D01*
X191336443Y-68926466D01*
X191252778Y-69082991D01*
X191223448Y-69118729D01*
X191140186Y-69220186D01*
X191038729Y-69303448D01*
X191002991Y-69332778D01*
X190846466Y-69416443D01*
X190676627Y-69467963D01*
X190610442Y-69474482D01*
X190544260Y-69481000D01*
X190455740Y-69481000D01*
X190389558Y-69474482D01*
X190323373Y-69467963D01*
X190153534Y-69416443D01*
X189997009Y-69332778D01*
X189961271Y-69303448D01*
X189859814Y-69220186D01*
X189776552Y-69118729D01*
X189747222Y-69082991D01*
X189663557Y-68926466D01*
X189612037Y-68756627D01*
X189594641Y-68580000D01*
X189612037Y-68403373D01*
X189663557Y-68233534D01*
X189747222Y-68077009D01*
X189776552Y-68041271D01*
X189859814Y-67939814D01*
X189961271Y-67856552D01*
X189997009Y-67827222D01*
X190153534Y-67743557D01*
X190323373Y-67692037D01*
X190389557Y-67685519D01*
X190455740Y-67679000D01*
X190544260Y-67679000D01*
X190610443Y-67685519D01*
X190610443Y-67685519D01*
G37*
G36*
X188070443Y-67685519D02*
G01*
X188136627Y-67692037D01*
X188306466Y-67743557D01*
X188462991Y-67827222D01*
X188498729Y-67856552D01*
X188600186Y-67939814D01*
X188683448Y-68041271D01*
X188712778Y-68077009D01*
X188796443Y-68233534D01*
X188847963Y-68403373D01*
X188865359Y-68580000D01*
X188847963Y-68756627D01*
X188796443Y-68926466D01*
X188712778Y-69082991D01*
X188683448Y-69118729D01*
X188600186Y-69220186D01*
X188498729Y-69303448D01*
X188462991Y-69332778D01*
X188306466Y-69416443D01*
X188136627Y-69467963D01*
X188070442Y-69474482D01*
X188004260Y-69481000D01*
X187915740Y-69481000D01*
X187849558Y-69474482D01*
X187783373Y-69467963D01*
X187613534Y-69416443D01*
X187457009Y-69332778D01*
X187421271Y-69303448D01*
X187319814Y-69220186D01*
X187236552Y-69118729D01*
X187207222Y-69082991D01*
X187123557Y-68926466D01*
X187072037Y-68756627D01*
X187054641Y-68580000D01*
X187072037Y-68403373D01*
X187123557Y-68233534D01*
X187207222Y-68077009D01*
X187236552Y-68041271D01*
X187319814Y-67939814D01*
X187421271Y-67856552D01*
X187457009Y-67827222D01*
X187613534Y-67743557D01*
X187783373Y-67692037D01*
X187849557Y-67685519D01*
X187915740Y-67679000D01*
X188004260Y-67679000D01*
X188070443Y-67685519D01*
X188070443Y-67685519D01*
G37*
G36*
X185530443Y-67685519D02*
G01*
X185596627Y-67692037D01*
X185766466Y-67743557D01*
X185922991Y-67827222D01*
X185958729Y-67856552D01*
X186060186Y-67939814D01*
X186143448Y-68041271D01*
X186172778Y-68077009D01*
X186256443Y-68233534D01*
X186307963Y-68403373D01*
X186325359Y-68580000D01*
X186307963Y-68756627D01*
X186256443Y-68926466D01*
X186172778Y-69082991D01*
X186143448Y-69118729D01*
X186060186Y-69220186D01*
X185958729Y-69303448D01*
X185922991Y-69332778D01*
X185766466Y-69416443D01*
X185596627Y-69467963D01*
X185530442Y-69474482D01*
X185464260Y-69481000D01*
X185375740Y-69481000D01*
X185309558Y-69474482D01*
X185243373Y-69467963D01*
X185073534Y-69416443D01*
X184917009Y-69332778D01*
X184881271Y-69303448D01*
X184779814Y-69220186D01*
X184696552Y-69118729D01*
X184667222Y-69082991D01*
X184583557Y-68926466D01*
X184532037Y-68756627D01*
X184514641Y-68580000D01*
X184532037Y-68403373D01*
X184583557Y-68233534D01*
X184667222Y-68077009D01*
X184696552Y-68041271D01*
X184779814Y-67939814D01*
X184881271Y-67856552D01*
X184917009Y-67827222D01*
X185073534Y-67743557D01*
X185243373Y-67692037D01*
X185309557Y-67685519D01*
X185375740Y-67679000D01*
X185464260Y-67679000D01*
X185530443Y-67685519D01*
X185530443Y-67685519D01*
G37*
G36*
X180450443Y-67685519D02*
G01*
X180516627Y-67692037D01*
X180686466Y-67743557D01*
X180842991Y-67827222D01*
X180878729Y-67856552D01*
X180980186Y-67939814D01*
X181063448Y-68041271D01*
X181092778Y-68077009D01*
X181176443Y-68233534D01*
X181227963Y-68403373D01*
X181245359Y-68580000D01*
X181227963Y-68756627D01*
X181176443Y-68926466D01*
X181092778Y-69082991D01*
X181063448Y-69118729D01*
X180980186Y-69220186D01*
X180878729Y-69303448D01*
X180842991Y-69332778D01*
X180686466Y-69416443D01*
X180516627Y-69467963D01*
X180450442Y-69474482D01*
X180384260Y-69481000D01*
X180295740Y-69481000D01*
X180229558Y-69474482D01*
X180163373Y-69467963D01*
X179993534Y-69416443D01*
X179837009Y-69332778D01*
X179801271Y-69303448D01*
X179699814Y-69220186D01*
X179616552Y-69118729D01*
X179587222Y-69082991D01*
X179503557Y-68926466D01*
X179452037Y-68756627D01*
X179434641Y-68580000D01*
X179452037Y-68403373D01*
X179503557Y-68233534D01*
X179587222Y-68077009D01*
X179616552Y-68041271D01*
X179699814Y-67939814D01*
X179801271Y-67856552D01*
X179837009Y-67827222D01*
X179993534Y-67743557D01*
X180163373Y-67692037D01*
X180229557Y-67685519D01*
X180295740Y-67679000D01*
X180384260Y-67679000D01*
X180450443Y-67685519D01*
X180450443Y-67685519D01*
G37*
G36*
X170290443Y-67685519D02*
G01*
X170356627Y-67692037D01*
X170526466Y-67743557D01*
X170682991Y-67827222D01*
X170718729Y-67856552D01*
X170820186Y-67939814D01*
X170903448Y-68041271D01*
X170932778Y-68077009D01*
X171016443Y-68233534D01*
X171067963Y-68403373D01*
X171085359Y-68580000D01*
X171067963Y-68756627D01*
X171016443Y-68926466D01*
X170932778Y-69082991D01*
X170903448Y-69118729D01*
X170820186Y-69220186D01*
X170718729Y-69303448D01*
X170682991Y-69332778D01*
X170526466Y-69416443D01*
X170356627Y-69467963D01*
X170290442Y-69474482D01*
X170224260Y-69481000D01*
X170135740Y-69481000D01*
X170069558Y-69474482D01*
X170003373Y-69467963D01*
X169833534Y-69416443D01*
X169677009Y-69332778D01*
X169641271Y-69303448D01*
X169539814Y-69220186D01*
X169456552Y-69118729D01*
X169427222Y-69082991D01*
X169343557Y-68926466D01*
X169292037Y-68756627D01*
X169274641Y-68580000D01*
X169292037Y-68403373D01*
X169343557Y-68233534D01*
X169427222Y-68077009D01*
X169456552Y-68041271D01*
X169539814Y-67939814D01*
X169641271Y-67856552D01*
X169677009Y-67827222D01*
X169833534Y-67743557D01*
X170003373Y-67692037D01*
X170069557Y-67685519D01*
X170135740Y-67679000D01*
X170224260Y-67679000D01*
X170290443Y-67685519D01*
X170290443Y-67685519D01*
G37*
G36*
X175370443Y-67685519D02*
G01*
X175436627Y-67692037D01*
X175606466Y-67743557D01*
X175762991Y-67827222D01*
X175798729Y-67856552D01*
X175900186Y-67939814D01*
X175983448Y-68041271D01*
X176012778Y-68077009D01*
X176096443Y-68233534D01*
X176147963Y-68403373D01*
X176165359Y-68580000D01*
X176147963Y-68756627D01*
X176096443Y-68926466D01*
X176012778Y-69082991D01*
X175983448Y-69118729D01*
X175900186Y-69220186D01*
X175798729Y-69303448D01*
X175762991Y-69332778D01*
X175606466Y-69416443D01*
X175436627Y-69467963D01*
X175370442Y-69474482D01*
X175304260Y-69481000D01*
X175215740Y-69481000D01*
X175149558Y-69474482D01*
X175083373Y-69467963D01*
X174913534Y-69416443D01*
X174757009Y-69332778D01*
X174721271Y-69303448D01*
X174619814Y-69220186D01*
X174536552Y-69118729D01*
X174507222Y-69082991D01*
X174423557Y-68926466D01*
X174372037Y-68756627D01*
X174354641Y-68580000D01*
X174372037Y-68403373D01*
X174423557Y-68233534D01*
X174507222Y-68077009D01*
X174536552Y-68041271D01*
X174619814Y-67939814D01*
X174721271Y-67856552D01*
X174757009Y-67827222D01*
X174913534Y-67743557D01*
X175083373Y-67692037D01*
X175149557Y-67685519D01*
X175215740Y-67679000D01*
X175304260Y-67679000D01*
X175370443Y-67685519D01*
X175370443Y-67685519D01*
G37*
G36*
X177910443Y-67685519D02*
G01*
X177976627Y-67692037D01*
X178146466Y-67743557D01*
X178302991Y-67827222D01*
X178338729Y-67856552D01*
X178440186Y-67939814D01*
X178523448Y-68041271D01*
X178552778Y-68077009D01*
X178636443Y-68233534D01*
X178687963Y-68403373D01*
X178705359Y-68580000D01*
X178687963Y-68756627D01*
X178636443Y-68926466D01*
X178552778Y-69082991D01*
X178523448Y-69118729D01*
X178440186Y-69220186D01*
X178338729Y-69303448D01*
X178302991Y-69332778D01*
X178146466Y-69416443D01*
X177976627Y-69467963D01*
X177910442Y-69474482D01*
X177844260Y-69481000D01*
X177755740Y-69481000D01*
X177689558Y-69474482D01*
X177623373Y-69467963D01*
X177453534Y-69416443D01*
X177297009Y-69332778D01*
X177261271Y-69303448D01*
X177159814Y-69220186D01*
X177076552Y-69118729D01*
X177047222Y-69082991D01*
X176963557Y-68926466D01*
X176912037Y-68756627D01*
X176894641Y-68580000D01*
X176912037Y-68403373D01*
X176963557Y-68233534D01*
X177047222Y-68077009D01*
X177076552Y-68041271D01*
X177159814Y-67939814D01*
X177261271Y-67856552D01*
X177297009Y-67827222D01*
X177453534Y-67743557D01*
X177623373Y-67692037D01*
X177689557Y-67685519D01*
X177755740Y-67679000D01*
X177844260Y-67679000D01*
X177910443Y-67685519D01*
X177910443Y-67685519D01*
G37*
G36*
X162300228Y-63189703D02*
G01*
X162455100Y-63253853D01*
X162594481Y-63346985D01*
X162713015Y-63465519D01*
X162806147Y-63604900D01*
X162870297Y-63759772D01*
X162903000Y-63924184D01*
X162903000Y-64091816D01*
X162870297Y-64256228D01*
X162806147Y-64411100D01*
X162713015Y-64550481D01*
X162594481Y-64669015D01*
X162455100Y-64762147D01*
X162300228Y-64826297D01*
X162135816Y-64859000D01*
X161968184Y-64859000D01*
X161803772Y-64826297D01*
X161648900Y-64762147D01*
X161509519Y-64669015D01*
X161390985Y-64550481D01*
X161297853Y-64411100D01*
X161233703Y-64256228D01*
X161201000Y-64091816D01*
X161201000Y-63924184D01*
X161233703Y-63759772D01*
X161297853Y-63604900D01*
X161390985Y-63465519D01*
X161509519Y-63346985D01*
X161648900Y-63253853D01*
X161803772Y-63189703D01*
X161968184Y-63157000D01*
X162135816Y-63157000D01*
X162300228Y-63189703D01*
X162300228Y-63189703D01*
G37*
G36*
X187618823Y-63169313D02*
G01*
X187779242Y-63217976D01*
X187846361Y-63253852D01*
X187927078Y-63296996D01*
X188056659Y-63403341D01*
X188163004Y-63532922D01*
X188163005Y-63532924D01*
X188242024Y-63680758D01*
X188290687Y-63841177D01*
X188307117Y-64008000D01*
X188290687Y-64174823D01*
X188242024Y-64335242D01*
X188201477Y-64411100D01*
X188163004Y-64483078D01*
X188056659Y-64612659D01*
X187927078Y-64719004D01*
X187927076Y-64719005D01*
X187779242Y-64798024D01*
X187618823Y-64846687D01*
X187493804Y-64859000D01*
X187410196Y-64859000D01*
X187285177Y-64846687D01*
X187124758Y-64798024D01*
X186976924Y-64719005D01*
X186976922Y-64719004D01*
X186847341Y-64612659D01*
X186740996Y-64483078D01*
X186702523Y-64411100D01*
X186661976Y-64335242D01*
X186613313Y-64174823D01*
X186596883Y-64008000D01*
X186613313Y-63841177D01*
X186661976Y-63680758D01*
X186740995Y-63532924D01*
X186740996Y-63532922D01*
X186847341Y-63403341D01*
X186976922Y-63296996D01*
X187057639Y-63253852D01*
X187124758Y-63217976D01*
X187285177Y-63169313D01*
X187410196Y-63157000D01*
X187493804Y-63157000D01*
X187618823Y-63169313D01*
X187618823Y-63169313D01*
G37*
G36*
X180080228Y-63189703D02*
G01*
X180235100Y-63253853D01*
X180374481Y-63346985D01*
X180493015Y-63465519D01*
X180586147Y-63604900D01*
X180650297Y-63759772D01*
X180683000Y-63924184D01*
X180683000Y-64091816D01*
X180650297Y-64256228D01*
X180586147Y-64411100D01*
X180493015Y-64550481D01*
X180374481Y-64669015D01*
X180235100Y-64762147D01*
X180080228Y-64826297D01*
X179915816Y-64859000D01*
X179748184Y-64859000D01*
X179583772Y-64826297D01*
X179428900Y-64762147D01*
X179289519Y-64669015D01*
X179170985Y-64550481D01*
X179077853Y-64411100D01*
X179013703Y-64256228D01*
X178981000Y-64091816D01*
X178981000Y-63924184D01*
X179013703Y-63759772D01*
X179077853Y-63604900D01*
X179170985Y-63465519D01*
X179289519Y-63346985D01*
X179428900Y-63253853D01*
X179583772Y-63189703D01*
X179748184Y-63157000D01*
X179915816Y-63157000D01*
X180080228Y-63189703D01*
X180080228Y-63189703D01*
G37*
G36*
X175000228Y-63189703D02*
G01*
X175155100Y-63253853D01*
X175294481Y-63346985D01*
X175413015Y-63465519D01*
X175506147Y-63604900D01*
X175570297Y-63759772D01*
X175603000Y-63924184D01*
X175603000Y-64091816D01*
X175570297Y-64256228D01*
X175506147Y-64411100D01*
X175413015Y-64550481D01*
X175294481Y-64669015D01*
X175155100Y-64762147D01*
X175000228Y-64826297D01*
X174835816Y-64859000D01*
X174668184Y-64859000D01*
X174503772Y-64826297D01*
X174348900Y-64762147D01*
X174209519Y-64669015D01*
X174090985Y-64550481D01*
X173997853Y-64411100D01*
X173933703Y-64256228D01*
X173901000Y-64091816D01*
X173901000Y-63924184D01*
X173933703Y-63759772D01*
X173997853Y-63604900D01*
X174090985Y-63465519D01*
X174209519Y-63346985D01*
X174348900Y-63253853D01*
X174503772Y-63189703D01*
X174668184Y-63157000D01*
X174835816Y-63157000D01*
X175000228Y-63189703D01*
X175000228Y-63189703D01*
G37*
G36*
X167298823Y-63169313D02*
G01*
X167459242Y-63217976D01*
X167526361Y-63253852D01*
X167607078Y-63296996D01*
X167736659Y-63403341D01*
X167843004Y-63532922D01*
X167843005Y-63532924D01*
X167922024Y-63680758D01*
X167970687Y-63841177D01*
X167987117Y-64008000D01*
X167970687Y-64174823D01*
X167922024Y-64335242D01*
X167881477Y-64411100D01*
X167843004Y-64483078D01*
X167736659Y-64612659D01*
X167607078Y-64719004D01*
X167607076Y-64719005D01*
X167459242Y-64798024D01*
X167298823Y-64846687D01*
X167173804Y-64859000D01*
X167090196Y-64859000D01*
X166965177Y-64846687D01*
X166804758Y-64798024D01*
X166656924Y-64719005D01*
X166656922Y-64719004D01*
X166527341Y-64612659D01*
X166420996Y-64483078D01*
X166382523Y-64411100D01*
X166341976Y-64335242D01*
X166293313Y-64174823D01*
X166276883Y-64008000D01*
X166293313Y-63841177D01*
X166341976Y-63680758D01*
X166420995Y-63532924D01*
X166420996Y-63532922D01*
X166527341Y-63403341D01*
X166656922Y-63296996D01*
X166737639Y-63253852D01*
X166804758Y-63217976D01*
X166965177Y-63169313D01*
X167090196Y-63157000D01*
X167173804Y-63157000D01*
X167298823Y-63169313D01*
X167298823Y-63169313D01*
G37*
G36*
X154598823Y-63169313D02*
G01*
X154759242Y-63217976D01*
X154826361Y-63253852D01*
X154907078Y-63296996D01*
X155036659Y-63403341D01*
X155143004Y-63532922D01*
X155143005Y-63532924D01*
X155222024Y-63680758D01*
X155270687Y-63841177D01*
X155287117Y-64008000D01*
X155270687Y-64174823D01*
X155222024Y-64335242D01*
X155181477Y-64411100D01*
X155143004Y-64483078D01*
X155036659Y-64612659D01*
X154907078Y-64719004D01*
X154907076Y-64719005D01*
X154759242Y-64798024D01*
X154598823Y-64846687D01*
X154473804Y-64859000D01*
X154390196Y-64859000D01*
X154265177Y-64846687D01*
X154104758Y-64798024D01*
X153956924Y-64719005D01*
X153956922Y-64719004D01*
X153827341Y-64612659D01*
X153720996Y-64483078D01*
X153682523Y-64411100D01*
X153641976Y-64335242D01*
X153593313Y-64174823D01*
X153576883Y-64008000D01*
X153593313Y-63841177D01*
X153641976Y-63680758D01*
X153720995Y-63532924D01*
X153720996Y-63532922D01*
X153827341Y-63403341D01*
X153956922Y-63296996D01*
X154037639Y-63253852D01*
X154104758Y-63217976D01*
X154265177Y-63169313D01*
X154390196Y-63157000D01*
X154473804Y-63157000D01*
X154598823Y-63169313D01*
X154598823Y-63169313D01*
G37*
G36*
X213100228Y-63189703D02*
G01*
X213255100Y-63253853D01*
X213394481Y-63346985D01*
X213513015Y-63465519D01*
X213606147Y-63604900D01*
X213670297Y-63759772D01*
X213703000Y-63924184D01*
X213703000Y-64091816D01*
X213670297Y-64256228D01*
X213606147Y-64411100D01*
X213513015Y-64550481D01*
X213394481Y-64669015D01*
X213255100Y-64762147D01*
X213100228Y-64826297D01*
X212935816Y-64859000D01*
X212768184Y-64859000D01*
X212603772Y-64826297D01*
X212448900Y-64762147D01*
X212309519Y-64669015D01*
X212190985Y-64550481D01*
X212097853Y-64411100D01*
X212033703Y-64256228D01*
X212001000Y-64091816D01*
X212001000Y-63924184D01*
X212033703Y-63759772D01*
X212097853Y-63604900D01*
X212190985Y-63465519D01*
X212309519Y-63346985D01*
X212448900Y-63253853D01*
X212603772Y-63189703D01*
X212768184Y-63157000D01*
X212935816Y-63157000D01*
X213100228Y-63189703D01*
X213100228Y-63189703D01*
G37*
G36*
X200400228Y-63189703D02*
G01*
X200555100Y-63253853D01*
X200694481Y-63346985D01*
X200813015Y-63465519D01*
X200906147Y-63604900D01*
X200970297Y-63759772D01*
X201003000Y-63924184D01*
X201003000Y-64091816D01*
X200970297Y-64256228D01*
X200906147Y-64411100D01*
X200813015Y-64550481D01*
X200694481Y-64669015D01*
X200555100Y-64762147D01*
X200400228Y-64826297D01*
X200235816Y-64859000D01*
X200068184Y-64859000D01*
X199903772Y-64826297D01*
X199748900Y-64762147D01*
X199609519Y-64669015D01*
X199490985Y-64550481D01*
X199397853Y-64411100D01*
X199333703Y-64256228D01*
X199301000Y-64091816D01*
X199301000Y-63924184D01*
X199333703Y-63759772D01*
X199397853Y-63604900D01*
X199490985Y-63465519D01*
X199609519Y-63346985D01*
X199748900Y-63253853D01*
X199903772Y-63189703D01*
X200068184Y-63157000D01*
X200235816Y-63157000D01*
X200400228Y-63189703D01*
X200400228Y-63189703D01*
G37*
G36*
X192698823Y-63169313D02*
G01*
X192859242Y-63217976D01*
X192926361Y-63253852D01*
X193007078Y-63296996D01*
X193136659Y-63403341D01*
X193243004Y-63532922D01*
X193243005Y-63532924D01*
X193322024Y-63680758D01*
X193370687Y-63841177D01*
X193387117Y-64008000D01*
X193370687Y-64174823D01*
X193322024Y-64335242D01*
X193281477Y-64411100D01*
X193243004Y-64483078D01*
X193136659Y-64612659D01*
X193007078Y-64719004D01*
X193007076Y-64719005D01*
X192859242Y-64798024D01*
X192698823Y-64846687D01*
X192573804Y-64859000D01*
X192490196Y-64859000D01*
X192365177Y-64846687D01*
X192204758Y-64798024D01*
X192056924Y-64719005D01*
X192056922Y-64719004D01*
X191927341Y-64612659D01*
X191820996Y-64483078D01*
X191782523Y-64411100D01*
X191741976Y-64335242D01*
X191693313Y-64174823D01*
X191676883Y-64008000D01*
X191693313Y-63841177D01*
X191741976Y-63680758D01*
X191820995Y-63532924D01*
X191820996Y-63532922D01*
X191927341Y-63403341D01*
X192056922Y-63296996D01*
X192137639Y-63253852D01*
X192204758Y-63217976D01*
X192365177Y-63169313D01*
X192490196Y-63157000D01*
X192573804Y-63157000D01*
X192698823Y-63169313D01*
X192698823Y-63169313D01*
G37*
G36*
X205398823Y-63169313D02*
G01*
X205559242Y-63217976D01*
X205626361Y-63253852D01*
X205707078Y-63296996D01*
X205836659Y-63403341D01*
X205943004Y-63532922D01*
X205943005Y-63532924D01*
X206022024Y-63680758D01*
X206070687Y-63841177D01*
X206087117Y-64008000D01*
X206070687Y-64174823D01*
X206022024Y-64335242D01*
X205981477Y-64411100D01*
X205943004Y-64483078D01*
X205836659Y-64612659D01*
X205707078Y-64719004D01*
X205707076Y-64719005D01*
X205559242Y-64798024D01*
X205398823Y-64846687D01*
X205273804Y-64859000D01*
X205190196Y-64859000D01*
X205065177Y-64846687D01*
X204904758Y-64798024D01*
X204756924Y-64719005D01*
X204756922Y-64719004D01*
X204627341Y-64612659D01*
X204520996Y-64483078D01*
X204482523Y-64411100D01*
X204441976Y-64335242D01*
X204393313Y-64174823D01*
X204376883Y-64008000D01*
X204393313Y-63841177D01*
X204441976Y-63680758D01*
X204520995Y-63532924D01*
X204520996Y-63532922D01*
X204627341Y-63403341D01*
X204756922Y-63296996D01*
X204837639Y-63253852D01*
X204904758Y-63217976D01*
X205065177Y-63169313D01*
X205190196Y-63157000D01*
X205273804Y-63157000D01*
X205398823Y-63169313D01*
X205398823Y-63169313D01*
G37*
G36*
X175000228Y-58617703D02*
G01*
X175155100Y-58681853D01*
X175294481Y-58774985D01*
X175413015Y-58893519D01*
X175506147Y-59032900D01*
X175570297Y-59187772D01*
X175603000Y-59352184D01*
X175603000Y-59519816D01*
X175570297Y-59684228D01*
X175506147Y-59839100D01*
X175413015Y-59978481D01*
X175294481Y-60097015D01*
X175155100Y-60190147D01*
X175000228Y-60254297D01*
X174835816Y-60287000D01*
X174668184Y-60287000D01*
X174503772Y-60254297D01*
X174348900Y-60190147D01*
X174209519Y-60097015D01*
X174090985Y-59978481D01*
X173997853Y-59839100D01*
X173933703Y-59684228D01*
X173901000Y-59519816D01*
X173901000Y-59352184D01*
X173933703Y-59187772D01*
X173997853Y-59032900D01*
X174090985Y-58893519D01*
X174209519Y-58774985D01*
X174348900Y-58681853D01*
X174503772Y-58617703D01*
X174668184Y-58585000D01*
X174835816Y-58585000D01*
X175000228Y-58617703D01*
X175000228Y-58617703D01*
G37*
G36*
X192698823Y-58597313D02*
G01*
X192859242Y-58645976D01*
X192926361Y-58681852D01*
X193007078Y-58724996D01*
X193136659Y-58831341D01*
X193243004Y-58960922D01*
X193243005Y-58960924D01*
X193322024Y-59108758D01*
X193370687Y-59269177D01*
X193387117Y-59436000D01*
X193370687Y-59602823D01*
X193322024Y-59763242D01*
X193281477Y-59839100D01*
X193243004Y-59911078D01*
X193136659Y-60040659D01*
X193007078Y-60147004D01*
X193007076Y-60147005D01*
X192859242Y-60226024D01*
X192698823Y-60274687D01*
X192573804Y-60287000D01*
X192490196Y-60287000D01*
X192365177Y-60274687D01*
X192204758Y-60226024D01*
X192056924Y-60147005D01*
X192056922Y-60147004D01*
X191927341Y-60040659D01*
X191820996Y-59911078D01*
X191782523Y-59839100D01*
X191741976Y-59763242D01*
X191693313Y-59602823D01*
X191676883Y-59436000D01*
X191693313Y-59269177D01*
X191741976Y-59108758D01*
X191820995Y-58960924D01*
X191820996Y-58960922D01*
X191927341Y-58831341D01*
X192056922Y-58724996D01*
X192137639Y-58681852D01*
X192204758Y-58645976D01*
X192365177Y-58597313D01*
X192490196Y-58585000D01*
X192573804Y-58585000D01*
X192698823Y-58597313D01*
X192698823Y-58597313D01*
G37*
G36*
X205398823Y-58597313D02*
G01*
X205559242Y-58645976D01*
X205626361Y-58681852D01*
X205707078Y-58724996D01*
X205836659Y-58831341D01*
X205943004Y-58960922D01*
X205943005Y-58960924D01*
X206022024Y-59108758D01*
X206070687Y-59269177D01*
X206087117Y-59436000D01*
X206070687Y-59602823D01*
X206022024Y-59763242D01*
X205981477Y-59839100D01*
X205943004Y-59911078D01*
X205836659Y-60040659D01*
X205707078Y-60147004D01*
X205707076Y-60147005D01*
X205559242Y-60226024D01*
X205398823Y-60274687D01*
X205273804Y-60287000D01*
X205190196Y-60287000D01*
X205065177Y-60274687D01*
X204904758Y-60226024D01*
X204756924Y-60147005D01*
X204756922Y-60147004D01*
X204627341Y-60040659D01*
X204520996Y-59911078D01*
X204482523Y-59839100D01*
X204441976Y-59763242D01*
X204393313Y-59602823D01*
X204376883Y-59436000D01*
X204393313Y-59269177D01*
X204441976Y-59108758D01*
X204520995Y-58960924D01*
X204520996Y-58960922D01*
X204627341Y-58831341D01*
X204756922Y-58724996D01*
X204837639Y-58681852D01*
X204904758Y-58645976D01*
X205065177Y-58597313D01*
X205190196Y-58585000D01*
X205273804Y-58585000D01*
X205398823Y-58597313D01*
X205398823Y-58597313D01*
G37*
G36*
X213100228Y-58617703D02*
G01*
X213255100Y-58681853D01*
X213394481Y-58774985D01*
X213513015Y-58893519D01*
X213606147Y-59032900D01*
X213670297Y-59187772D01*
X213703000Y-59352184D01*
X213703000Y-59519816D01*
X213670297Y-59684228D01*
X213606147Y-59839100D01*
X213513015Y-59978481D01*
X213394481Y-60097015D01*
X213255100Y-60190147D01*
X213100228Y-60254297D01*
X212935816Y-60287000D01*
X212768184Y-60287000D01*
X212603772Y-60254297D01*
X212448900Y-60190147D01*
X212309519Y-60097015D01*
X212190985Y-59978481D01*
X212097853Y-59839100D01*
X212033703Y-59684228D01*
X212001000Y-59519816D01*
X212001000Y-59352184D01*
X212033703Y-59187772D01*
X212097853Y-59032900D01*
X212190985Y-58893519D01*
X212309519Y-58774985D01*
X212448900Y-58681853D01*
X212603772Y-58617703D01*
X212768184Y-58585000D01*
X212935816Y-58585000D01*
X213100228Y-58617703D01*
X213100228Y-58617703D01*
G37*
G36*
X167298823Y-58597313D02*
G01*
X167459242Y-58645976D01*
X167526361Y-58681852D01*
X167607078Y-58724996D01*
X167736659Y-58831341D01*
X167843004Y-58960922D01*
X167843005Y-58960924D01*
X167922024Y-59108758D01*
X167970687Y-59269177D01*
X167987117Y-59436000D01*
X167970687Y-59602823D01*
X167922024Y-59763242D01*
X167881477Y-59839100D01*
X167843004Y-59911078D01*
X167736659Y-60040659D01*
X167607078Y-60147004D01*
X167607076Y-60147005D01*
X167459242Y-60226024D01*
X167298823Y-60274687D01*
X167173804Y-60287000D01*
X167090196Y-60287000D01*
X166965177Y-60274687D01*
X166804758Y-60226024D01*
X166656924Y-60147005D01*
X166656922Y-60147004D01*
X166527341Y-60040659D01*
X166420996Y-59911078D01*
X166382523Y-59839100D01*
X166341976Y-59763242D01*
X166293313Y-59602823D01*
X166276883Y-59436000D01*
X166293313Y-59269177D01*
X166341976Y-59108758D01*
X166420995Y-58960924D01*
X166420996Y-58960922D01*
X166527341Y-58831341D01*
X166656922Y-58724996D01*
X166737639Y-58681852D01*
X166804758Y-58645976D01*
X166965177Y-58597313D01*
X167090196Y-58585000D01*
X167173804Y-58585000D01*
X167298823Y-58597313D01*
X167298823Y-58597313D01*
G37*
G36*
X162300228Y-58617703D02*
G01*
X162455100Y-58681853D01*
X162594481Y-58774985D01*
X162713015Y-58893519D01*
X162806147Y-59032900D01*
X162870297Y-59187772D01*
X162903000Y-59352184D01*
X162903000Y-59519816D01*
X162870297Y-59684228D01*
X162806147Y-59839100D01*
X162713015Y-59978481D01*
X162594481Y-60097015D01*
X162455100Y-60190147D01*
X162300228Y-60254297D01*
X162135816Y-60287000D01*
X161968184Y-60287000D01*
X161803772Y-60254297D01*
X161648900Y-60190147D01*
X161509519Y-60097015D01*
X161390985Y-59978481D01*
X161297853Y-59839100D01*
X161233703Y-59684228D01*
X161201000Y-59519816D01*
X161201000Y-59352184D01*
X161233703Y-59187772D01*
X161297853Y-59032900D01*
X161390985Y-58893519D01*
X161509519Y-58774985D01*
X161648900Y-58681853D01*
X161803772Y-58617703D01*
X161968184Y-58585000D01*
X162135816Y-58585000D01*
X162300228Y-58617703D01*
X162300228Y-58617703D01*
G37*
G36*
X154598823Y-58597313D02*
G01*
X154759242Y-58645976D01*
X154826361Y-58681852D01*
X154907078Y-58724996D01*
X155036659Y-58831341D01*
X155143004Y-58960922D01*
X155143005Y-58960924D01*
X155222024Y-59108758D01*
X155270687Y-59269177D01*
X155287117Y-59436000D01*
X155270687Y-59602823D01*
X155222024Y-59763242D01*
X155181477Y-59839100D01*
X155143004Y-59911078D01*
X155036659Y-60040659D01*
X154907078Y-60147004D01*
X154907076Y-60147005D01*
X154759242Y-60226024D01*
X154598823Y-60274687D01*
X154473804Y-60287000D01*
X154390196Y-60287000D01*
X154265177Y-60274687D01*
X154104758Y-60226024D01*
X153956924Y-60147005D01*
X153956922Y-60147004D01*
X153827341Y-60040659D01*
X153720996Y-59911078D01*
X153682523Y-59839100D01*
X153641976Y-59763242D01*
X153593313Y-59602823D01*
X153576883Y-59436000D01*
X153593313Y-59269177D01*
X153641976Y-59108758D01*
X153720995Y-58960924D01*
X153720996Y-58960922D01*
X153827341Y-58831341D01*
X153956922Y-58724996D01*
X154037639Y-58681852D01*
X154104758Y-58645976D01*
X154265177Y-58597313D01*
X154390196Y-58585000D01*
X154473804Y-58585000D01*
X154598823Y-58597313D01*
X154598823Y-58597313D01*
G37*
G36*
X180080228Y-58617703D02*
G01*
X180235100Y-58681853D01*
X180374481Y-58774985D01*
X180493015Y-58893519D01*
X180586147Y-59032900D01*
X180650297Y-59187772D01*
X180683000Y-59352184D01*
X180683000Y-59519816D01*
X180650297Y-59684228D01*
X180586147Y-59839100D01*
X180493015Y-59978481D01*
X180374481Y-60097015D01*
X180235100Y-60190147D01*
X180080228Y-60254297D01*
X179915816Y-60287000D01*
X179748184Y-60287000D01*
X179583772Y-60254297D01*
X179428900Y-60190147D01*
X179289519Y-60097015D01*
X179170985Y-59978481D01*
X179077853Y-59839100D01*
X179013703Y-59684228D01*
X178981000Y-59519816D01*
X178981000Y-59352184D01*
X179013703Y-59187772D01*
X179077853Y-59032900D01*
X179170985Y-58893519D01*
X179289519Y-58774985D01*
X179428900Y-58681853D01*
X179583772Y-58617703D01*
X179748184Y-58585000D01*
X179915816Y-58585000D01*
X180080228Y-58617703D01*
X180080228Y-58617703D01*
G37*
G36*
X200400228Y-58617703D02*
G01*
X200555100Y-58681853D01*
X200694481Y-58774985D01*
X200813015Y-58893519D01*
X200906147Y-59032900D01*
X200970297Y-59187772D01*
X201003000Y-59352184D01*
X201003000Y-59519816D01*
X200970297Y-59684228D01*
X200906147Y-59839100D01*
X200813015Y-59978481D01*
X200694481Y-60097015D01*
X200555100Y-60190147D01*
X200400228Y-60254297D01*
X200235816Y-60287000D01*
X200068184Y-60287000D01*
X199903772Y-60254297D01*
X199748900Y-60190147D01*
X199609519Y-60097015D01*
X199490985Y-59978481D01*
X199397853Y-59839100D01*
X199333703Y-59684228D01*
X199301000Y-59519816D01*
X199301000Y-59352184D01*
X199333703Y-59187772D01*
X199397853Y-59032900D01*
X199490985Y-58893519D01*
X199609519Y-58774985D01*
X199748900Y-58681853D01*
X199903772Y-58617703D01*
X200068184Y-58585000D01*
X200235816Y-58585000D01*
X200400228Y-58617703D01*
X200400228Y-58617703D01*
G37*
G36*
X187618823Y-58597313D02*
G01*
X187779242Y-58645976D01*
X187846361Y-58681852D01*
X187927078Y-58724996D01*
X188056659Y-58831341D01*
X188163004Y-58960922D01*
X188163005Y-58960924D01*
X188242024Y-59108758D01*
X188290687Y-59269177D01*
X188307117Y-59436000D01*
X188290687Y-59602823D01*
X188242024Y-59763242D01*
X188201477Y-59839100D01*
X188163004Y-59911078D01*
X188056659Y-60040659D01*
X187927078Y-60147004D01*
X187927076Y-60147005D01*
X187779242Y-60226024D01*
X187618823Y-60274687D01*
X187493804Y-60287000D01*
X187410196Y-60287000D01*
X187285177Y-60274687D01*
X187124758Y-60226024D01*
X186976924Y-60147005D01*
X186976922Y-60147004D01*
X186847341Y-60040659D01*
X186740996Y-59911078D01*
X186702523Y-59839100D01*
X186661976Y-59763242D01*
X186613313Y-59602823D01*
X186596883Y-59436000D01*
X186613313Y-59269177D01*
X186661976Y-59108758D01*
X186740995Y-58960924D01*
X186740996Y-58960922D01*
X186847341Y-58831341D01*
X186976922Y-58724996D01*
X187057639Y-58681852D01*
X187124758Y-58645976D01*
X187285177Y-58597313D01*
X187410196Y-58585000D01*
X187493804Y-58585000D01*
X187618823Y-58597313D01*
X187618823Y-58597313D01*
G37*
G36*
X175000228Y-54045703D02*
G01*
X175155100Y-54109853D01*
X175294481Y-54202985D01*
X175413015Y-54321519D01*
X175506147Y-54460900D01*
X175570297Y-54615772D01*
X175603000Y-54780184D01*
X175603000Y-54947816D01*
X175570297Y-55112228D01*
X175506147Y-55267100D01*
X175413015Y-55406481D01*
X175294481Y-55525015D01*
X175155100Y-55618147D01*
X175000228Y-55682297D01*
X174835816Y-55715000D01*
X174668184Y-55715000D01*
X174503772Y-55682297D01*
X174348900Y-55618147D01*
X174209519Y-55525015D01*
X174090985Y-55406481D01*
X173997853Y-55267100D01*
X173933703Y-55112228D01*
X173901000Y-54947816D01*
X173901000Y-54780184D01*
X173933703Y-54615772D01*
X173997853Y-54460900D01*
X174090985Y-54321519D01*
X174209519Y-54202985D01*
X174348900Y-54109853D01*
X174503772Y-54045703D01*
X174668184Y-54013000D01*
X174835816Y-54013000D01*
X175000228Y-54045703D01*
X175000228Y-54045703D01*
G37*
G36*
X179998823Y-54025313D02*
G01*
X180159242Y-54073976D01*
X180226361Y-54109852D01*
X180307078Y-54152996D01*
X180436659Y-54259341D01*
X180543004Y-54388922D01*
X180543005Y-54388924D01*
X180622024Y-54536758D01*
X180670687Y-54697177D01*
X180687117Y-54864000D01*
X180670687Y-55030823D01*
X180622024Y-55191242D01*
X180581477Y-55267100D01*
X180543004Y-55339078D01*
X180436659Y-55468659D01*
X180307078Y-55575004D01*
X180307076Y-55575005D01*
X180159242Y-55654024D01*
X179998823Y-55702687D01*
X179873804Y-55715000D01*
X179790196Y-55715000D01*
X179665177Y-55702687D01*
X179504758Y-55654024D01*
X179356924Y-55575005D01*
X179356922Y-55575004D01*
X179227341Y-55468659D01*
X179120996Y-55339078D01*
X179082523Y-55267100D01*
X179041976Y-55191242D01*
X178993313Y-55030823D01*
X178976883Y-54864000D01*
X178993313Y-54697177D01*
X179041976Y-54536758D01*
X179120995Y-54388924D01*
X179120996Y-54388922D01*
X179227341Y-54259341D01*
X179356922Y-54152996D01*
X179437639Y-54109852D01*
X179504758Y-54073976D01*
X179665177Y-54025313D01*
X179790196Y-54013000D01*
X179873804Y-54013000D01*
X179998823Y-54025313D01*
X179998823Y-54025313D01*
G37*
G36*
X167298823Y-54025313D02*
G01*
X167459242Y-54073976D01*
X167526361Y-54109852D01*
X167607078Y-54152996D01*
X167736659Y-54259341D01*
X167843004Y-54388922D01*
X167843005Y-54388924D01*
X167922024Y-54536758D01*
X167970687Y-54697177D01*
X167987117Y-54864000D01*
X167970687Y-55030823D01*
X167922024Y-55191242D01*
X167881477Y-55267100D01*
X167843004Y-55339078D01*
X167736659Y-55468659D01*
X167607078Y-55575004D01*
X167607076Y-55575005D01*
X167459242Y-55654024D01*
X167298823Y-55702687D01*
X167173804Y-55715000D01*
X167090196Y-55715000D01*
X166965177Y-55702687D01*
X166804758Y-55654024D01*
X166656924Y-55575005D01*
X166656922Y-55575004D01*
X166527341Y-55468659D01*
X166420996Y-55339078D01*
X166382523Y-55267100D01*
X166341976Y-55191242D01*
X166293313Y-55030823D01*
X166276883Y-54864000D01*
X166293313Y-54697177D01*
X166341976Y-54536758D01*
X166420995Y-54388924D01*
X166420996Y-54388922D01*
X166527341Y-54259341D01*
X166656922Y-54152996D01*
X166737639Y-54109852D01*
X166804758Y-54073976D01*
X166965177Y-54025313D01*
X167090196Y-54013000D01*
X167173804Y-54013000D01*
X167298823Y-54025313D01*
X167298823Y-54025313D01*
G37*
G36*
X187700228Y-54045703D02*
G01*
X187855100Y-54109853D01*
X187994481Y-54202985D01*
X188113015Y-54321519D01*
X188206147Y-54460900D01*
X188270297Y-54615772D01*
X188303000Y-54780184D01*
X188303000Y-54947816D01*
X188270297Y-55112228D01*
X188206147Y-55267100D01*
X188113015Y-55406481D01*
X187994481Y-55525015D01*
X187855100Y-55618147D01*
X187700228Y-55682297D01*
X187535816Y-55715000D01*
X187368184Y-55715000D01*
X187203772Y-55682297D01*
X187048900Y-55618147D01*
X186909519Y-55525015D01*
X186790985Y-55406481D01*
X186697853Y-55267100D01*
X186633703Y-55112228D01*
X186601000Y-54947816D01*
X186601000Y-54780184D01*
X186633703Y-54615772D01*
X186697853Y-54460900D01*
X186790985Y-54321519D01*
X186909519Y-54202985D01*
X187048900Y-54109853D01*
X187203772Y-54045703D01*
X187368184Y-54013000D01*
X187535816Y-54013000D01*
X187700228Y-54045703D01*
X187700228Y-54045703D01*
G37*
G36*
X192698823Y-54025313D02*
G01*
X192859242Y-54073976D01*
X192926361Y-54109852D01*
X193007078Y-54152996D01*
X193136659Y-54259341D01*
X193243004Y-54388922D01*
X193243005Y-54388924D01*
X193322024Y-54536758D01*
X193370687Y-54697177D01*
X193387117Y-54864000D01*
X193370687Y-55030823D01*
X193322024Y-55191242D01*
X193281477Y-55267100D01*
X193243004Y-55339078D01*
X193136659Y-55468659D01*
X193007078Y-55575004D01*
X193007076Y-55575005D01*
X192859242Y-55654024D01*
X192698823Y-55702687D01*
X192573804Y-55715000D01*
X192490196Y-55715000D01*
X192365177Y-55702687D01*
X192204758Y-55654024D01*
X192056924Y-55575005D01*
X192056922Y-55575004D01*
X191927341Y-55468659D01*
X191820996Y-55339078D01*
X191782523Y-55267100D01*
X191741976Y-55191242D01*
X191693313Y-55030823D01*
X191676883Y-54864000D01*
X191693313Y-54697177D01*
X191741976Y-54536758D01*
X191820995Y-54388924D01*
X191820996Y-54388922D01*
X191927341Y-54259341D01*
X192056922Y-54152996D01*
X192137639Y-54109852D01*
X192204758Y-54073976D01*
X192365177Y-54025313D01*
X192490196Y-54013000D01*
X192573804Y-54013000D01*
X192698823Y-54025313D01*
X192698823Y-54025313D01*
G37*
G36*
X154598823Y-54025313D02*
G01*
X154759242Y-54073976D01*
X154826361Y-54109852D01*
X154907078Y-54152996D01*
X155036659Y-54259341D01*
X155143004Y-54388922D01*
X155143005Y-54388924D01*
X155222024Y-54536758D01*
X155270687Y-54697177D01*
X155287117Y-54864000D01*
X155270687Y-55030823D01*
X155222024Y-55191242D01*
X155181477Y-55267100D01*
X155143004Y-55339078D01*
X155036659Y-55468659D01*
X154907078Y-55575004D01*
X154907076Y-55575005D01*
X154759242Y-55654024D01*
X154598823Y-55702687D01*
X154473804Y-55715000D01*
X154390196Y-55715000D01*
X154265177Y-55702687D01*
X154104758Y-55654024D01*
X153956924Y-55575005D01*
X153956922Y-55575004D01*
X153827341Y-55468659D01*
X153720996Y-55339078D01*
X153682523Y-55267100D01*
X153641976Y-55191242D01*
X153593313Y-55030823D01*
X153576883Y-54864000D01*
X153593313Y-54697177D01*
X153641976Y-54536758D01*
X153720995Y-54388924D01*
X153720996Y-54388922D01*
X153827341Y-54259341D01*
X153956922Y-54152996D01*
X154037639Y-54109852D01*
X154104758Y-54073976D01*
X154265177Y-54025313D01*
X154390196Y-54013000D01*
X154473804Y-54013000D01*
X154598823Y-54025313D01*
X154598823Y-54025313D01*
G37*
G36*
X162300228Y-54045703D02*
G01*
X162455100Y-54109853D01*
X162594481Y-54202985D01*
X162713015Y-54321519D01*
X162806147Y-54460900D01*
X162870297Y-54615772D01*
X162903000Y-54780184D01*
X162903000Y-54947816D01*
X162870297Y-55112228D01*
X162806147Y-55267100D01*
X162713015Y-55406481D01*
X162594481Y-55525015D01*
X162455100Y-55618147D01*
X162300228Y-55682297D01*
X162135816Y-55715000D01*
X161968184Y-55715000D01*
X161803772Y-55682297D01*
X161648900Y-55618147D01*
X161509519Y-55525015D01*
X161390985Y-55406481D01*
X161297853Y-55267100D01*
X161233703Y-55112228D01*
X161201000Y-54947816D01*
X161201000Y-54780184D01*
X161233703Y-54615772D01*
X161297853Y-54460900D01*
X161390985Y-54321519D01*
X161509519Y-54202985D01*
X161648900Y-54109853D01*
X161803772Y-54045703D01*
X161968184Y-54013000D01*
X162135816Y-54013000D01*
X162300228Y-54045703D01*
X162300228Y-54045703D01*
G37*
G36*
X200400228Y-54045703D02*
G01*
X200555100Y-54109853D01*
X200694481Y-54202985D01*
X200813015Y-54321519D01*
X200906147Y-54460900D01*
X200970297Y-54615772D01*
X201003000Y-54780184D01*
X201003000Y-54947816D01*
X200970297Y-55112228D01*
X200906147Y-55267100D01*
X200813015Y-55406481D01*
X200694481Y-55525015D01*
X200555100Y-55618147D01*
X200400228Y-55682297D01*
X200235816Y-55715000D01*
X200068184Y-55715000D01*
X199903772Y-55682297D01*
X199748900Y-55618147D01*
X199609519Y-55525015D01*
X199490985Y-55406481D01*
X199397853Y-55267100D01*
X199333703Y-55112228D01*
X199301000Y-54947816D01*
X199301000Y-54780184D01*
X199333703Y-54615772D01*
X199397853Y-54460900D01*
X199490985Y-54321519D01*
X199609519Y-54202985D01*
X199748900Y-54109853D01*
X199903772Y-54045703D01*
X200068184Y-54013000D01*
X200235816Y-54013000D01*
X200400228Y-54045703D01*
X200400228Y-54045703D01*
G37*
G36*
X205398823Y-54025313D02*
G01*
X205559242Y-54073976D01*
X205626361Y-54109852D01*
X205707078Y-54152996D01*
X205836659Y-54259341D01*
X205943004Y-54388922D01*
X205943005Y-54388924D01*
X206022024Y-54536758D01*
X206070687Y-54697177D01*
X206087117Y-54864000D01*
X206070687Y-55030823D01*
X206022024Y-55191242D01*
X205981477Y-55267100D01*
X205943004Y-55339078D01*
X205836659Y-55468659D01*
X205707078Y-55575004D01*
X205707076Y-55575005D01*
X205559242Y-55654024D01*
X205398823Y-55702687D01*
X205273804Y-55715000D01*
X205190196Y-55715000D01*
X205065177Y-55702687D01*
X204904758Y-55654024D01*
X204756924Y-55575005D01*
X204756922Y-55575004D01*
X204627341Y-55468659D01*
X204520996Y-55339078D01*
X204482523Y-55267100D01*
X204441976Y-55191242D01*
X204393313Y-55030823D01*
X204376883Y-54864000D01*
X204393313Y-54697177D01*
X204441976Y-54536758D01*
X204520995Y-54388924D01*
X204520996Y-54388922D01*
X204627341Y-54259341D01*
X204756922Y-54152996D01*
X204837639Y-54109852D01*
X204904758Y-54073976D01*
X205065177Y-54025313D01*
X205190196Y-54013000D01*
X205273804Y-54013000D01*
X205398823Y-54025313D01*
X205398823Y-54025313D01*
G37*
G36*
X213100228Y-54045703D02*
G01*
X213255100Y-54109853D01*
X213394481Y-54202985D01*
X213513015Y-54321519D01*
X213606147Y-54460900D01*
X213670297Y-54615772D01*
X213703000Y-54780184D01*
X213703000Y-54947816D01*
X213670297Y-55112228D01*
X213606147Y-55267100D01*
X213513015Y-55406481D01*
X213394481Y-55525015D01*
X213255100Y-55618147D01*
X213100228Y-55682297D01*
X212935816Y-55715000D01*
X212768184Y-55715000D01*
X212603772Y-55682297D01*
X212448900Y-55618147D01*
X212309519Y-55525015D01*
X212190985Y-55406481D01*
X212097853Y-55267100D01*
X212033703Y-55112228D01*
X212001000Y-54947816D01*
X212001000Y-54780184D01*
X212033703Y-54615772D01*
X212097853Y-54460900D01*
X212190985Y-54321519D01*
X212309519Y-54202985D01*
X212448900Y-54109853D01*
X212603772Y-54045703D01*
X212768184Y-54013000D01*
X212935816Y-54013000D01*
X213100228Y-54045703D01*
X213100228Y-54045703D01*
G37*
G36*
X154598823Y-49453313D02*
G01*
X154759242Y-49501976D01*
X154826361Y-49537852D01*
X154907078Y-49580996D01*
X155036659Y-49687341D01*
X155143004Y-49816922D01*
X155143005Y-49816924D01*
X155222024Y-49964758D01*
X155270687Y-50125177D01*
X155287117Y-50292000D01*
X155270687Y-50458823D01*
X155222024Y-50619242D01*
X155181477Y-50695100D01*
X155143004Y-50767078D01*
X155036659Y-50896659D01*
X154907078Y-51003004D01*
X154907076Y-51003005D01*
X154759242Y-51082024D01*
X154598823Y-51130687D01*
X154473804Y-51143000D01*
X154390196Y-51143000D01*
X154265177Y-51130687D01*
X154104758Y-51082024D01*
X153956924Y-51003005D01*
X153956922Y-51003004D01*
X153827341Y-50896659D01*
X153720996Y-50767078D01*
X153682523Y-50695100D01*
X153641976Y-50619242D01*
X153593313Y-50458823D01*
X153576883Y-50292000D01*
X153593313Y-50125177D01*
X153641976Y-49964758D01*
X153720995Y-49816924D01*
X153720996Y-49816922D01*
X153827341Y-49687341D01*
X153956922Y-49580996D01*
X154037639Y-49537852D01*
X154104758Y-49501976D01*
X154265177Y-49453313D01*
X154390196Y-49441000D01*
X154473804Y-49441000D01*
X154598823Y-49453313D01*
X154598823Y-49453313D01*
G37*
G36*
X205398823Y-49453313D02*
G01*
X205559242Y-49501976D01*
X205626361Y-49537852D01*
X205707078Y-49580996D01*
X205836659Y-49687341D01*
X205943004Y-49816922D01*
X205943005Y-49816924D01*
X206022024Y-49964758D01*
X206070687Y-50125177D01*
X206087117Y-50292000D01*
X206070687Y-50458823D01*
X206022024Y-50619242D01*
X205981477Y-50695100D01*
X205943004Y-50767078D01*
X205836659Y-50896659D01*
X205707078Y-51003004D01*
X205707076Y-51003005D01*
X205559242Y-51082024D01*
X205398823Y-51130687D01*
X205273804Y-51143000D01*
X205190196Y-51143000D01*
X205065177Y-51130687D01*
X204904758Y-51082024D01*
X204756924Y-51003005D01*
X204756922Y-51003004D01*
X204627341Y-50896659D01*
X204520996Y-50767078D01*
X204482523Y-50695100D01*
X204441976Y-50619242D01*
X204393313Y-50458823D01*
X204376883Y-50292000D01*
X204393313Y-50125177D01*
X204441976Y-49964758D01*
X204520995Y-49816924D01*
X204520996Y-49816922D01*
X204627341Y-49687341D01*
X204756922Y-49580996D01*
X204837639Y-49537852D01*
X204904758Y-49501976D01*
X205065177Y-49453313D01*
X205190196Y-49441000D01*
X205273804Y-49441000D01*
X205398823Y-49453313D01*
X205398823Y-49453313D01*
G37*
G36*
X213100228Y-49473703D02*
G01*
X213255100Y-49537853D01*
X213394481Y-49630985D01*
X213513015Y-49749519D01*
X213606147Y-49888900D01*
X213670297Y-50043772D01*
X213703000Y-50208184D01*
X213703000Y-50375816D01*
X213670297Y-50540228D01*
X213606147Y-50695100D01*
X213513015Y-50834481D01*
X213394481Y-50953015D01*
X213255100Y-51046147D01*
X213100228Y-51110297D01*
X212935816Y-51143000D01*
X212768184Y-51143000D01*
X212603772Y-51110297D01*
X212448900Y-51046147D01*
X212309519Y-50953015D01*
X212190985Y-50834481D01*
X212097853Y-50695100D01*
X212033703Y-50540228D01*
X212001000Y-50375816D01*
X212001000Y-50208184D01*
X212033703Y-50043772D01*
X212097853Y-49888900D01*
X212190985Y-49749519D01*
X212309519Y-49630985D01*
X212448900Y-49537853D01*
X212603772Y-49473703D01*
X212768184Y-49441000D01*
X212935816Y-49441000D01*
X213100228Y-49473703D01*
X213100228Y-49473703D01*
G37*
G36*
X200400228Y-49473703D02*
G01*
X200555100Y-49537853D01*
X200694481Y-49630985D01*
X200813015Y-49749519D01*
X200906147Y-49888900D01*
X200970297Y-50043772D01*
X201003000Y-50208184D01*
X201003000Y-50375816D01*
X200970297Y-50540228D01*
X200906147Y-50695100D01*
X200813015Y-50834481D01*
X200694481Y-50953015D01*
X200555100Y-51046147D01*
X200400228Y-51110297D01*
X200235816Y-51143000D01*
X200068184Y-51143000D01*
X199903772Y-51110297D01*
X199748900Y-51046147D01*
X199609519Y-50953015D01*
X199490985Y-50834481D01*
X199397853Y-50695100D01*
X199333703Y-50540228D01*
X199301000Y-50375816D01*
X199301000Y-50208184D01*
X199333703Y-50043772D01*
X199397853Y-49888900D01*
X199490985Y-49749519D01*
X199609519Y-49630985D01*
X199748900Y-49537853D01*
X199903772Y-49473703D01*
X200068184Y-49441000D01*
X200235816Y-49441000D01*
X200400228Y-49473703D01*
X200400228Y-49473703D01*
G37*
G36*
X162300228Y-49473703D02*
G01*
X162455100Y-49537853D01*
X162594481Y-49630985D01*
X162713015Y-49749519D01*
X162806147Y-49888900D01*
X162870297Y-50043772D01*
X162903000Y-50208184D01*
X162903000Y-50375816D01*
X162870297Y-50540228D01*
X162806147Y-50695100D01*
X162713015Y-50834481D01*
X162594481Y-50953015D01*
X162455100Y-51046147D01*
X162300228Y-51110297D01*
X162135816Y-51143000D01*
X161968184Y-51143000D01*
X161803772Y-51110297D01*
X161648900Y-51046147D01*
X161509519Y-50953015D01*
X161390985Y-50834481D01*
X161297853Y-50695100D01*
X161233703Y-50540228D01*
X161201000Y-50375816D01*
X161201000Y-50208184D01*
X161233703Y-50043772D01*
X161297853Y-49888900D01*
X161390985Y-49749519D01*
X161509519Y-49630985D01*
X161648900Y-49537853D01*
X161803772Y-49473703D01*
X161968184Y-49441000D01*
X162135816Y-49441000D01*
X162300228Y-49473703D01*
X162300228Y-49473703D01*
G37*
G36*
X192698823Y-49453313D02*
G01*
X192859242Y-49501976D01*
X192926361Y-49537852D01*
X193007078Y-49580996D01*
X193136659Y-49687341D01*
X193243004Y-49816922D01*
X193243005Y-49816924D01*
X193322024Y-49964758D01*
X193370687Y-50125177D01*
X193387117Y-50292000D01*
X193370687Y-50458823D01*
X193322024Y-50619242D01*
X193281477Y-50695100D01*
X193243004Y-50767078D01*
X193136659Y-50896659D01*
X193007078Y-51003004D01*
X193007076Y-51003005D01*
X192859242Y-51082024D01*
X192698823Y-51130687D01*
X192573804Y-51143000D01*
X192490196Y-51143000D01*
X192365177Y-51130687D01*
X192204758Y-51082024D01*
X192056924Y-51003005D01*
X192056922Y-51003004D01*
X191927341Y-50896659D01*
X191820996Y-50767078D01*
X191782523Y-50695100D01*
X191741976Y-50619242D01*
X191693313Y-50458823D01*
X191676883Y-50292000D01*
X191693313Y-50125177D01*
X191741976Y-49964758D01*
X191820995Y-49816924D01*
X191820996Y-49816922D01*
X191927341Y-49687341D01*
X192056922Y-49580996D01*
X192137639Y-49537852D01*
X192204758Y-49501976D01*
X192365177Y-49453313D01*
X192490196Y-49441000D01*
X192573804Y-49441000D01*
X192698823Y-49453313D01*
X192698823Y-49453313D01*
G37*
G36*
X175000228Y-49473703D02*
G01*
X175155100Y-49537853D01*
X175294481Y-49630985D01*
X175413015Y-49749519D01*
X175506147Y-49888900D01*
X175570297Y-50043772D01*
X175603000Y-50208184D01*
X175603000Y-50375816D01*
X175570297Y-50540228D01*
X175506147Y-50695100D01*
X175413015Y-50834481D01*
X175294481Y-50953015D01*
X175155100Y-51046147D01*
X175000228Y-51110297D01*
X174835816Y-51143000D01*
X174668184Y-51143000D01*
X174503772Y-51110297D01*
X174348900Y-51046147D01*
X174209519Y-50953015D01*
X174090985Y-50834481D01*
X173997853Y-50695100D01*
X173933703Y-50540228D01*
X173901000Y-50375816D01*
X173901000Y-50208184D01*
X173933703Y-50043772D01*
X173997853Y-49888900D01*
X174090985Y-49749519D01*
X174209519Y-49630985D01*
X174348900Y-49537853D01*
X174503772Y-49473703D01*
X174668184Y-49441000D01*
X174835816Y-49441000D01*
X175000228Y-49473703D01*
X175000228Y-49473703D01*
G37*
G36*
X167298823Y-49453313D02*
G01*
X167459242Y-49501976D01*
X167526361Y-49537852D01*
X167607078Y-49580996D01*
X167736659Y-49687341D01*
X167843004Y-49816922D01*
X167843005Y-49816924D01*
X167922024Y-49964758D01*
X167970687Y-50125177D01*
X167987117Y-50292000D01*
X167970687Y-50458823D01*
X167922024Y-50619242D01*
X167881477Y-50695100D01*
X167843004Y-50767078D01*
X167736659Y-50896659D01*
X167607078Y-51003004D01*
X167607076Y-51003005D01*
X167459242Y-51082024D01*
X167298823Y-51130687D01*
X167173804Y-51143000D01*
X167090196Y-51143000D01*
X166965177Y-51130687D01*
X166804758Y-51082024D01*
X166656924Y-51003005D01*
X166656922Y-51003004D01*
X166527341Y-50896659D01*
X166420996Y-50767078D01*
X166382523Y-50695100D01*
X166341976Y-50619242D01*
X166293313Y-50458823D01*
X166276883Y-50292000D01*
X166293313Y-50125177D01*
X166341976Y-49964758D01*
X166420995Y-49816924D01*
X166420996Y-49816922D01*
X166527341Y-49687341D01*
X166656922Y-49580996D01*
X166737639Y-49537852D01*
X166804758Y-49501976D01*
X166965177Y-49453313D01*
X167090196Y-49441000D01*
X167173804Y-49441000D01*
X167298823Y-49453313D01*
X167298823Y-49453313D01*
G37*
G36*
X187700228Y-49473703D02*
G01*
X187855100Y-49537853D01*
X187994481Y-49630985D01*
X188113015Y-49749519D01*
X188206147Y-49888900D01*
X188270297Y-50043772D01*
X188303000Y-50208184D01*
X188303000Y-50375816D01*
X188270297Y-50540228D01*
X188206147Y-50695100D01*
X188113015Y-50834481D01*
X187994481Y-50953015D01*
X187855100Y-51046147D01*
X187700228Y-51110297D01*
X187535816Y-51143000D01*
X187368184Y-51143000D01*
X187203772Y-51110297D01*
X187048900Y-51046147D01*
X186909519Y-50953015D01*
X186790985Y-50834481D01*
X186697853Y-50695100D01*
X186633703Y-50540228D01*
X186601000Y-50375816D01*
X186601000Y-50208184D01*
X186633703Y-50043772D01*
X186697853Y-49888900D01*
X186790985Y-49749519D01*
X186909519Y-49630985D01*
X187048900Y-49537853D01*
X187203772Y-49473703D01*
X187368184Y-49441000D01*
X187535816Y-49441000D01*
X187700228Y-49473703D01*
X187700228Y-49473703D01*
G37*
G36*
X179998823Y-49453313D02*
G01*
X180159242Y-49501976D01*
X180226361Y-49537852D01*
X180307078Y-49580996D01*
X180436659Y-49687341D01*
X180543004Y-49816922D01*
X180543005Y-49816924D01*
X180622024Y-49964758D01*
X180670687Y-50125177D01*
X180687117Y-50292000D01*
X180670687Y-50458823D01*
X180622024Y-50619242D01*
X180581477Y-50695100D01*
X180543004Y-50767078D01*
X180436659Y-50896659D01*
X180307078Y-51003004D01*
X180307076Y-51003005D01*
X180159242Y-51082024D01*
X179998823Y-51130687D01*
X179873804Y-51143000D01*
X179790196Y-51143000D01*
X179665177Y-51130687D01*
X179504758Y-51082024D01*
X179356924Y-51003005D01*
X179356922Y-51003004D01*
X179227341Y-50896659D01*
X179120996Y-50767078D01*
X179082523Y-50695100D01*
X179041976Y-50619242D01*
X178993313Y-50458823D01*
X178976883Y-50292000D01*
X178993313Y-50125177D01*
X179041976Y-49964758D01*
X179120995Y-49816924D01*
X179120996Y-49816922D01*
X179227341Y-49687341D01*
X179356922Y-49580996D01*
X179437639Y-49537852D01*
X179504758Y-49501976D01*
X179665177Y-49453313D01*
X179790196Y-49441000D01*
X179873804Y-49441000D01*
X179998823Y-49453313D01*
X179998823Y-49453313D01*
G37*
G36*
X162670442Y-44825518D02*
G01*
X162736627Y-44832037D01*
X162906466Y-44883557D01*
X163062991Y-44967222D01*
X163098729Y-44996552D01*
X163200186Y-45079814D01*
X163283448Y-45181271D01*
X163312778Y-45217009D01*
X163396443Y-45373534D01*
X163447963Y-45543373D01*
X163465359Y-45720000D01*
X163447963Y-45896627D01*
X163396443Y-46066466D01*
X163312778Y-46222991D01*
X163283448Y-46258729D01*
X163200186Y-46360186D01*
X163098729Y-46443448D01*
X163062991Y-46472778D01*
X162906466Y-46556443D01*
X162736627Y-46607963D01*
X162670443Y-46614481D01*
X162604260Y-46621000D01*
X162515740Y-46621000D01*
X162449558Y-46614482D01*
X162383373Y-46607963D01*
X162213534Y-46556443D01*
X162057009Y-46472778D01*
X162021271Y-46443448D01*
X161919814Y-46360186D01*
X161836552Y-46258729D01*
X161807222Y-46222991D01*
X161723557Y-46066466D01*
X161672037Y-45896627D01*
X161654641Y-45720000D01*
X161672037Y-45543373D01*
X161723557Y-45373534D01*
X161807222Y-45217009D01*
X161836552Y-45181271D01*
X161919814Y-45079814D01*
X162021271Y-44996552D01*
X162057009Y-44967222D01*
X162213534Y-44883557D01*
X162383373Y-44832037D01*
X162449558Y-44825518D01*
X162515740Y-44819000D01*
X162604260Y-44819000D01*
X162670442Y-44825518D01*
X162670442Y-44825518D01*
G37*
G36*
X165210442Y-44825518D02*
G01*
X165276627Y-44832037D01*
X165446466Y-44883557D01*
X165602991Y-44967222D01*
X165638729Y-44996552D01*
X165740186Y-45079814D01*
X165823448Y-45181271D01*
X165852778Y-45217009D01*
X165936443Y-45373534D01*
X165987963Y-45543373D01*
X166005359Y-45720000D01*
X165987963Y-45896627D01*
X165936443Y-46066466D01*
X165852778Y-46222991D01*
X165823448Y-46258729D01*
X165740186Y-46360186D01*
X165638729Y-46443448D01*
X165602991Y-46472778D01*
X165446466Y-46556443D01*
X165276627Y-46607963D01*
X165210443Y-46614481D01*
X165144260Y-46621000D01*
X165055740Y-46621000D01*
X164989558Y-46614482D01*
X164923373Y-46607963D01*
X164753534Y-46556443D01*
X164597009Y-46472778D01*
X164561271Y-46443448D01*
X164459814Y-46360186D01*
X164376552Y-46258729D01*
X164347222Y-46222991D01*
X164263557Y-46066466D01*
X164212037Y-45896627D01*
X164194641Y-45720000D01*
X164212037Y-45543373D01*
X164263557Y-45373534D01*
X164347222Y-45217009D01*
X164376552Y-45181271D01*
X164459814Y-45079814D01*
X164561271Y-44996552D01*
X164597009Y-44967222D01*
X164753534Y-44883557D01*
X164923373Y-44832037D01*
X164989558Y-44825518D01*
X165055740Y-44819000D01*
X165144260Y-44819000D01*
X165210442Y-44825518D01*
X165210442Y-44825518D01*
G37*
G36*
X167750442Y-44825518D02*
G01*
X167816627Y-44832037D01*
X167986466Y-44883557D01*
X168142991Y-44967222D01*
X168178729Y-44996552D01*
X168280186Y-45079814D01*
X168363448Y-45181271D01*
X168392778Y-45217009D01*
X168476443Y-45373534D01*
X168527963Y-45543373D01*
X168545359Y-45720000D01*
X168527963Y-45896627D01*
X168476443Y-46066466D01*
X168392778Y-46222991D01*
X168363448Y-46258729D01*
X168280186Y-46360186D01*
X168178729Y-46443448D01*
X168142991Y-46472778D01*
X167986466Y-46556443D01*
X167816627Y-46607963D01*
X167750443Y-46614481D01*
X167684260Y-46621000D01*
X167595740Y-46621000D01*
X167529558Y-46614482D01*
X167463373Y-46607963D01*
X167293534Y-46556443D01*
X167137009Y-46472778D01*
X167101271Y-46443448D01*
X166999814Y-46360186D01*
X166916552Y-46258729D01*
X166887222Y-46222991D01*
X166803557Y-46066466D01*
X166752037Y-45896627D01*
X166734641Y-45720000D01*
X166752037Y-45543373D01*
X166803557Y-45373534D01*
X166887222Y-45217009D01*
X166916552Y-45181271D01*
X166999814Y-45079814D01*
X167101271Y-44996552D01*
X167137009Y-44967222D01*
X167293534Y-44883557D01*
X167463373Y-44832037D01*
X167529558Y-44825518D01*
X167595740Y-44819000D01*
X167684260Y-44819000D01*
X167750442Y-44825518D01*
X167750442Y-44825518D01*
G37*
G36*
X218550442Y-44825518D02*
G01*
X218616627Y-44832037D01*
X218786466Y-44883557D01*
X218942991Y-44967222D01*
X218978729Y-44996552D01*
X219080186Y-45079814D01*
X219163448Y-45181271D01*
X219192778Y-45217009D01*
X219276443Y-45373534D01*
X219327963Y-45543373D01*
X219345359Y-45720000D01*
X219327963Y-45896627D01*
X219276443Y-46066466D01*
X219192778Y-46222991D01*
X219163448Y-46258729D01*
X219080186Y-46360186D01*
X218978729Y-46443448D01*
X218942991Y-46472778D01*
X218786466Y-46556443D01*
X218616627Y-46607963D01*
X218550443Y-46614481D01*
X218484260Y-46621000D01*
X218395740Y-46621000D01*
X218329558Y-46614482D01*
X218263373Y-46607963D01*
X218093534Y-46556443D01*
X217937009Y-46472778D01*
X217901271Y-46443448D01*
X217799814Y-46360186D01*
X217716552Y-46258729D01*
X217687222Y-46222991D01*
X217603557Y-46066466D01*
X217552037Y-45896627D01*
X217534641Y-45720000D01*
X217552037Y-45543373D01*
X217603557Y-45373534D01*
X217687222Y-45217009D01*
X217716552Y-45181271D01*
X217799814Y-45079814D01*
X217901271Y-44996552D01*
X217937009Y-44967222D01*
X218093534Y-44883557D01*
X218263373Y-44832037D01*
X218329558Y-44825518D01*
X218395740Y-44819000D01*
X218484260Y-44819000D01*
X218550442Y-44825518D01*
X218550442Y-44825518D01*
G37*
G36*
X216010442Y-44825518D02*
G01*
X216076627Y-44832037D01*
X216246466Y-44883557D01*
X216402991Y-44967222D01*
X216438729Y-44996552D01*
X216540186Y-45079814D01*
X216623448Y-45181271D01*
X216652778Y-45217009D01*
X216736443Y-45373534D01*
X216787963Y-45543373D01*
X216805359Y-45720000D01*
X216787963Y-45896627D01*
X216736443Y-46066466D01*
X216652778Y-46222991D01*
X216623448Y-46258729D01*
X216540186Y-46360186D01*
X216438729Y-46443448D01*
X216402991Y-46472778D01*
X216246466Y-46556443D01*
X216076627Y-46607963D01*
X216010443Y-46614481D01*
X215944260Y-46621000D01*
X215855740Y-46621000D01*
X215789558Y-46614482D01*
X215723373Y-46607963D01*
X215553534Y-46556443D01*
X215397009Y-46472778D01*
X215361271Y-46443448D01*
X215259814Y-46360186D01*
X215176552Y-46258729D01*
X215147222Y-46222991D01*
X215063557Y-46066466D01*
X215012037Y-45896627D01*
X214994641Y-45720000D01*
X215012037Y-45543373D01*
X215063557Y-45373534D01*
X215147222Y-45217009D01*
X215176552Y-45181271D01*
X215259814Y-45079814D01*
X215361271Y-44996552D01*
X215397009Y-44967222D01*
X215553534Y-44883557D01*
X215723373Y-44832037D01*
X215789558Y-44825518D01*
X215855740Y-44819000D01*
X215944260Y-44819000D01*
X216010442Y-44825518D01*
X216010442Y-44825518D01*
G37*
G36*
X160130442Y-44825518D02*
G01*
X160196627Y-44832037D01*
X160366466Y-44883557D01*
X160522991Y-44967222D01*
X160558729Y-44996552D01*
X160660186Y-45079814D01*
X160743448Y-45181271D01*
X160772778Y-45217009D01*
X160856443Y-45373534D01*
X160907963Y-45543373D01*
X160925359Y-45720000D01*
X160907963Y-45896627D01*
X160856443Y-46066466D01*
X160772778Y-46222991D01*
X160743448Y-46258729D01*
X160660186Y-46360186D01*
X160558729Y-46443448D01*
X160522991Y-46472778D01*
X160366466Y-46556443D01*
X160196627Y-46607963D01*
X160130443Y-46614481D01*
X160064260Y-46621000D01*
X159975740Y-46621000D01*
X159909558Y-46614482D01*
X159843373Y-46607963D01*
X159673534Y-46556443D01*
X159517009Y-46472778D01*
X159481271Y-46443448D01*
X159379814Y-46360186D01*
X159296552Y-46258729D01*
X159267222Y-46222991D01*
X159183557Y-46066466D01*
X159132037Y-45896627D01*
X159114641Y-45720000D01*
X159132037Y-45543373D01*
X159183557Y-45373534D01*
X159267222Y-45217009D01*
X159296552Y-45181271D01*
X159379814Y-45079814D01*
X159481271Y-44996552D01*
X159517009Y-44967222D01*
X159673534Y-44883557D01*
X159843373Y-44832037D01*
X159909558Y-44825518D01*
X159975740Y-44819000D01*
X160064260Y-44819000D01*
X160130442Y-44825518D01*
X160130442Y-44825518D01*
G37*
G36*
X157590442Y-44825518D02*
G01*
X157656627Y-44832037D01*
X157826466Y-44883557D01*
X157982991Y-44967222D01*
X158018729Y-44996552D01*
X158120186Y-45079814D01*
X158203448Y-45181271D01*
X158232778Y-45217009D01*
X158316443Y-45373534D01*
X158367963Y-45543373D01*
X158385359Y-45720000D01*
X158367963Y-45896627D01*
X158316443Y-46066466D01*
X158232778Y-46222991D01*
X158203448Y-46258729D01*
X158120186Y-46360186D01*
X158018729Y-46443448D01*
X157982991Y-46472778D01*
X157826466Y-46556443D01*
X157656627Y-46607963D01*
X157590443Y-46614481D01*
X157524260Y-46621000D01*
X157435740Y-46621000D01*
X157369558Y-46614482D01*
X157303373Y-46607963D01*
X157133534Y-46556443D01*
X156977009Y-46472778D01*
X156941271Y-46443448D01*
X156839814Y-46360186D01*
X156756552Y-46258729D01*
X156727222Y-46222991D01*
X156643557Y-46066466D01*
X156592037Y-45896627D01*
X156574641Y-45720000D01*
X156592037Y-45543373D01*
X156643557Y-45373534D01*
X156727222Y-45217009D01*
X156756552Y-45181271D01*
X156839814Y-45079814D01*
X156941271Y-44996552D01*
X156977009Y-44967222D01*
X157133534Y-44883557D01*
X157303373Y-44832037D01*
X157369558Y-44825518D01*
X157435740Y-44819000D01*
X157524260Y-44819000D01*
X157590442Y-44825518D01*
X157590442Y-44825518D01*
G37*
G36*
X155050442Y-44825518D02*
G01*
X155116627Y-44832037D01*
X155286466Y-44883557D01*
X155442991Y-44967222D01*
X155478729Y-44996552D01*
X155580186Y-45079814D01*
X155663448Y-45181271D01*
X155692778Y-45217009D01*
X155776443Y-45373534D01*
X155827963Y-45543373D01*
X155845359Y-45720000D01*
X155827963Y-45896627D01*
X155776443Y-46066466D01*
X155692778Y-46222991D01*
X155663448Y-46258729D01*
X155580186Y-46360186D01*
X155478729Y-46443448D01*
X155442991Y-46472778D01*
X155286466Y-46556443D01*
X155116627Y-46607963D01*
X155050443Y-46614481D01*
X154984260Y-46621000D01*
X154895740Y-46621000D01*
X154829558Y-46614482D01*
X154763373Y-46607963D01*
X154593534Y-46556443D01*
X154437009Y-46472778D01*
X154401271Y-46443448D01*
X154299814Y-46360186D01*
X154216552Y-46258729D01*
X154187222Y-46222991D01*
X154103557Y-46066466D01*
X154052037Y-45896627D01*
X154034641Y-45720000D01*
X154052037Y-45543373D01*
X154103557Y-45373534D01*
X154187222Y-45217009D01*
X154216552Y-45181271D01*
X154299814Y-45079814D01*
X154401271Y-44996552D01*
X154437009Y-44967222D01*
X154593534Y-44883557D01*
X154763373Y-44832037D01*
X154829558Y-44825518D01*
X154895740Y-44819000D01*
X154984260Y-44819000D01*
X155050442Y-44825518D01*
X155050442Y-44825518D01*
G37*
G36*
X152510442Y-44825518D02*
G01*
X152576627Y-44832037D01*
X152746466Y-44883557D01*
X152902991Y-44967222D01*
X152938729Y-44996552D01*
X153040186Y-45079814D01*
X153123448Y-45181271D01*
X153152778Y-45217009D01*
X153236443Y-45373534D01*
X153287963Y-45543373D01*
X153305359Y-45720000D01*
X153287963Y-45896627D01*
X153236443Y-46066466D01*
X153152778Y-46222991D01*
X153123448Y-46258729D01*
X153040186Y-46360186D01*
X152938729Y-46443448D01*
X152902991Y-46472778D01*
X152746466Y-46556443D01*
X152576627Y-46607963D01*
X152510443Y-46614481D01*
X152444260Y-46621000D01*
X152355740Y-46621000D01*
X152289558Y-46614482D01*
X152223373Y-46607963D01*
X152053534Y-46556443D01*
X151897009Y-46472778D01*
X151861271Y-46443448D01*
X151759814Y-46360186D01*
X151676552Y-46258729D01*
X151647222Y-46222991D01*
X151563557Y-46066466D01*
X151512037Y-45896627D01*
X151494641Y-45720000D01*
X151512037Y-45543373D01*
X151563557Y-45373534D01*
X151647222Y-45217009D01*
X151676552Y-45181271D01*
X151759814Y-45079814D01*
X151861271Y-44996552D01*
X151897009Y-44967222D01*
X152053534Y-44883557D01*
X152223373Y-44832037D01*
X152289558Y-44825518D01*
X152355740Y-44819000D01*
X152444260Y-44819000D01*
X152510442Y-44825518D01*
X152510442Y-44825518D01*
G37*
G36*
X170290442Y-44825518D02*
G01*
X170356627Y-44832037D01*
X170526466Y-44883557D01*
X170682991Y-44967222D01*
X170718729Y-44996552D01*
X170820186Y-45079814D01*
X170903448Y-45181271D01*
X170932778Y-45217009D01*
X171016443Y-45373534D01*
X171067963Y-45543373D01*
X171085359Y-45720000D01*
X171067963Y-45896627D01*
X171016443Y-46066466D01*
X170932778Y-46222991D01*
X170903448Y-46258729D01*
X170820186Y-46360186D01*
X170718729Y-46443448D01*
X170682991Y-46472778D01*
X170526466Y-46556443D01*
X170356627Y-46607963D01*
X170290443Y-46614481D01*
X170224260Y-46621000D01*
X170135740Y-46621000D01*
X170069558Y-46614482D01*
X170003373Y-46607963D01*
X169833534Y-46556443D01*
X169677009Y-46472778D01*
X169641271Y-46443448D01*
X169539814Y-46360186D01*
X169456552Y-46258729D01*
X169427222Y-46222991D01*
X169343557Y-46066466D01*
X169292037Y-45896627D01*
X169274641Y-45720000D01*
X169292037Y-45543373D01*
X169343557Y-45373534D01*
X169427222Y-45217009D01*
X169456552Y-45181271D01*
X169539814Y-45079814D01*
X169641271Y-44996552D01*
X169677009Y-44967222D01*
X169833534Y-44883557D01*
X170003373Y-44832037D01*
X170069558Y-44825518D01*
X170135740Y-44819000D01*
X170224260Y-44819000D01*
X170290442Y-44825518D01*
X170290442Y-44825518D01*
G37*
G36*
X172830442Y-44825518D02*
G01*
X172896627Y-44832037D01*
X173066466Y-44883557D01*
X173222991Y-44967222D01*
X173258729Y-44996552D01*
X173360186Y-45079814D01*
X173443448Y-45181271D01*
X173472778Y-45217009D01*
X173556443Y-45373534D01*
X173607963Y-45543373D01*
X173625359Y-45720000D01*
X173607963Y-45896627D01*
X173556443Y-46066466D01*
X173472778Y-46222991D01*
X173443448Y-46258729D01*
X173360186Y-46360186D01*
X173258729Y-46443448D01*
X173222991Y-46472778D01*
X173066466Y-46556443D01*
X172896627Y-46607963D01*
X172830443Y-46614481D01*
X172764260Y-46621000D01*
X172675740Y-46621000D01*
X172609558Y-46614482D01*
X172543373Y-46607963D01*
X172373534Y-46556443D01*
X172217009Y-46472778D01*
X172181271Y-46443448D01*
X172079814Y-46360186D01*
X171996552Y-46258729D01*
X171967222Y-46222991D01*
X171883557Y-46066466D01*
X171832037Y-45896627D01*
X171814641Y-45720000D01*
X171832037Y-45543373D01*
X171883557Y-45373534D01*
X171967222Y-45217009D01*
X171996552Y-45181271D01*
X172079814Y-45079814D01*
X172181271Y-44996552D01*
X172217009Y-44967222D01*
X172373534Y-44883557D01*
X172543373Y-44832037D01*
X172609558Y-44825518D01*
X172675740Y-44819000D01*
X172764260Y-44819000D01*
X172830442Y-44825518D01*
X172830442Y-44825518D01*
G37*
G36*
X150761000Y-46621000D02*
G01*
X148959000Y-46621000D01*
X148959000Y-44819000D01*
X150761000Y-44819000D01*
X150761000Y-46621000D01*
X150761000Y-46621000D01*
G37*
G36*
X213470442Y-44825518D02*
G01*
X213536627Y-44832037D01*
X213706466Y-44883557D01*
X213862991Y-44967222D01*
X213898729Y-44996552D01*
X214000186Y-45079814D01*
X214083448Y-45181271D01*
X214112778Y-45217009D01*
X214196443Y-45373534D01*
X214247963Y-45543373D01*
X214265359Y-45720000D01*
X214247963Y-45896627D01*
X214196443Y-46066466D01*
X214112778Y-46222991D01*
X214083448Y-46258729D01*
X214000186Y-46360186D01*
X213898729Y-46443448D01*
X213862991Y-46472778D01*
X213706466Y-46556443D01*
X213536627Y-46607963D01*
X213470443Y-46614481D01*
X213404260Y-46621000D01*
X213315740Y-46621000D01*
X213249558Y-46614482D01*
X213183373Y-46607963D01*
X213013534Y-46556443D01*
X212857009Y-46472778D01*
X212821271Y-46443448D01*
X212719814Y-46360186D01*
X212636552Y-46258729D01*
X212607222Y-46222991D01*
X212523557Y-46066466D01*
X212472037Y-45896627D01*
X212454641Y-45720000D01*
X212472037Y-45543373D01*
X212523557Y-45373534D01*
X212607222Y-45217009D01*
X212636552Y-45181271D01*
X212719814Y-45079814D01*
X212821271Y-44996552D01*
X212857009Y-44967222D01*
X213013534Y-44883557D01*
X213183373Y-44832037D01*
X213249558Y-44825518D01*
X213315740Y-44819000D01*
X213404260Y-44819000D01*
X213470442Y-44825518D01*
X213470442Y-44825518D01*
G37*
G36*
X210930442Y-44825518D02*
G01*
X210996627Y-44832037D01*
X211166466Y-44883557D01*
X211322991Y-44967222D01*
X211358729Y-44996552D01*
X211460186Y-45079814D01*
X211543448Y-45181271D01*
X211572778Y-45217009D01*
X211656443Y-45373534D01*
X211707963Y-45543373D01*
X211725359Y-45720000D01*
X211707963Y-45896627D01*
X211656443Y-46066466D01*
X211572778Y-46222991D01*
X211543448Y-46258729D01*
X211460186Y-46360186D01*
X211358729Y-46443448D01*
X211322991Y-46472778D01*
X211166466Y-46556443D01*
X210996627Y-46607963D01*
X210930443Y-46614481D01*
X210864260Y-46621000D01*
X210775740Y-46621000D01*
X210709558Y-46614482D01*
X210643373Y-46607963D01*
X210473534Y-46556443D01*
X210317009Y-46472778D01*
X210281271Y-46443448D01*
X210179814Y-46360186D01*
X210096552Y-46258729D01*
X210067222Y-46222991D01*
X209983557Y-46066466D01*
X209932037Y-45896627D01*
X209914641Y-45720000D01*
X209932037Y-45543373D01*
X209983557Y-45373534D01*
X210067222Y-45217009D01*
X210096552Y-45181271D01*
X210179814Y-45079814D01*
X210281271Y-44996552D01*
X210317009Y-44967222D01*
X210473534Y-44883557D01*
X210643373Y-44832037D01*
X210709558Y-44825518D01*
X210775740Y-44819000D01*
X210864260Y-44819000D01*
X210930442Y-44825518D01*
X210930442Y-44825518D01*
G37*
G36*
X208390442Y-44825518D02*
G01*
X208456627Y-44832037D01*
X208626466Y-44883557D01*
X208782991Y-44967222D01*
X208818729Y-44996552D01*
X208920186Y-45079814D01*
X209003448Y-45181271D01*
X209032778Y-45217009D01*
X209116443Y-45373534D01*
X209167963Y-45543373D01*
X209185359Y-45720000D01*
X209167963Y-45896627D01*
X209116443Y-46066466D01*
X209032778Y-46222991D01*
X209003448Y-46258729D01*
X208920186Y-46360186D01*
X208818729Y-46443448D01*
X208782991Y-46472778D01*
X208626466Y-46556443D01*
X208456627Y-46607963D01*
X208390443Y-46614481D01*
X208324260Y-46621000D01*
X208235740Y-46621000D01*
X208169558Y-46614482D01*
X208103373Y-46607963D01*
X207933534Y-46556443D01*
X207777009Y-46472778D01*
X207741271Y-46443448D01*
X207639814Y-46360186D01*
X207556552Y-46258729D01*
X207527222Y-46222991D01*
X207443557Y-46066466D01*
X207392037Y-45896627D01*
X207374641Y-45720000D01*
X207392037Y-45543373D01*
X207443557Y-45373534D01*
X207527222Y-45217009D01*
X207556552Y-45181271D01*
X207639814Y-45079814D01*
X207741271Y-44996552D01*
X207777009Y-44967222D01*
X207933534Y-44883557D01*
X208103373Y-44832037D01*
X208169558Y-44825518D01*
X208235740Y-44819000D01*
X208324260Y-44819000D01*
X208390442Y-44825518D01*
X208390442Y-44825518D01*
G37*
G36*
X175370442Y-44825518D02*
G01*
X175436627Y-44832037D01*
X175606466Y-44883557D01*
X175762991Y-44967222D01*
X175798729Y-44996552D01*
X175900186Y-45079814D01*
X175983448Y-45181271D01*
X176012778Y-45217009D01*
X176096443Y-45373534D01*
X176147963Y-45543373D01*
X176165359Y-45720000D01*
X176147963Y-45896627D01*
X176096443Y-46066466D01*
X176012778Y-46222991D01*
X175983448Y-46258729D01*
X175900186Y-46360186D01*
X175798729Y-46443448D01*
X175762991Y-46472778D01*
X175606466Y-46556443D01*
X175436627Y-46607963D01*
X175370443Y-46614481D01*
X175304260Y-46621000D01*
X175215740Y-46621000D01*
X175149558Y-46614482D01*
X175083373Y-46607963D01*
X174913534Y-46556443D01*
X174757009Y-46472778D01*
X174721271Y-46443448D01*
X174619814Y-46360186D01*
X174536552Y-46258729D01*
X174507222Y-46222991D01*
X174423557Y-46066466D01*
X174372037Y-45896627D01*
X174354641Y-45720000D01*
X174372037Y-45543373D01*
X174423557Y-45373534D01*
X174507222Y-45217009D01*
X174536552Y-45181271D01*
X174619814Y-45079814D01*
X174721271Y-44996552D01*
X174757009Y-44967222D01*
X174913534Y-44883557D01*
X175083373Y-44832037D01*
X175149558Y-44825518D01*
X175215740Y-44819000D01*
X175304260Y-44819000D01*
X175370442Y-44825518D01*
X175370442Y-44825518D01*
G37*
G36*
X177910442Y-44825518D02*
G01*
X177976627Y-44832037D01*
X178146466Y-44883557D01*
X178302991Y-44967222D01*
X178338729Y-44996552D01*
X178440186Y-45079814D01*
X178523448Y-45181271D01*
X178552778Y-45217009D01*
X178636443Y-45373534D01*
X178687963Y-45543373D01*
X178705359Y-45720000D01*
X178687963Y-45896627D01*
X178636443Y-46066466D01*
X178552778Y-46222991D01*
X178523448Y-46258729D01*
X178440186Y-46360186D01*
X178338729Y-46443448D01*
X178302991Y-46472778D01*
X178146466Y-46556443D01*
X177976627Y-46607963D01*
X177910443Y-46614481D01*
X177844260Y-46621000D01*
X177755740Y-46621000D01*
X177689558Y-46614482D01*
X177623373Y-46607963D01*
X177453534Y-46556443D01*
X177297009Y-46472778D01*
X177261271Y-46443448D01*
X177159814Y-46360186D01*
X177076552Y-46258729D01*
X177047222Y-46222991D01*
X176963557Y-46066466D01*
X176912037Y-45896627D01*
X176894641Y-45720000D01*
X176912037Y-45543373D01*
X176963557Y-45373534D01*
X177047222Y-45217009D01*
X177076552Y-45181271D01*
X177159814Y-45079814D01*
X177261271Y-44996552D01*
X177297009Y-44967222D01*
X177453534Y-44883557D01*
X177623373Y-44832037D01*
X177689558Y-44825518D01*
X177755740Y-44819000D01*
X177844260Y-44819000D01*
X177910442Y-44825518D01*
X177910442Y-44825518D01*
G37*
G36*
X205850442Y-44825518D02*
G01*
X205916627Y-44832037D01*
X206086466Y-44883557D01*
X206242991Y-44967222D01*
X206278729Y-44996552D01*
X206380186Y-45079814D01*
X206463448Y-45181271D01*
X206492778Y-45217009D01*
X206576443Y-45373534D01*
X206627963Y-45543373D01*
X206645359Y-45720000D01*
X206627963Y-45896627D01*
X206576443Y-46066466D01*
X206492778Y-46222991D01*
X206463448Y-46258729D01*
X206380186Y-46360186D01*
X206278729Y-46443448D01*
X206242991Y-46472778D01*
X206086466Y-46556443D01*
X205916627Y-46607963D01*
X205850443Y-46614481D01*
X205784260Y-46621000D01*
X205695740Y-46621000D01*
X205629558Y-46614482D01*
X205563373Y-46607963D01*
X205393534Y-46556443D01*
X205237009Y-46472778D01*
X205201271Y-46443448D01*
X205099814Y-46360186D01*
X205016552Y-46258729D01*
X204987222Y-46222991D01*
X204903557Y-46066466D01*
X204852037Y-45896627D01*
X204834641Y-45720000D01*
X204852037Y-45543373D01*
X204903557Y-45373534D01*
X204987222Y-45217009D01*
X205016552Y-45181271D01*
X205099814Y-45079814D01*
X205201271Y-44996552D01*
X205237009Y-44967222D01*
X205393534Y-44883557D01*
X205563373Y-44832037D01*
X205629558Y-44825518D01*
X205695740Y-44819000D01*
X205784260Y-44819000D01*
X205850442Y-44825518D01*
X205850442Y-44825518D01*
G37*
G36*
X203310442Y-44825518D02*
G01*
X203376627Y-44832037D01*
X203546466Y-44883557D01*
X203702991Y-44967222D01*
X203738729Y-44996552D01*
X203840186Y-45079814D01*
X203923448Y-45181271D01*
X203952778Y-45217009D01*
X204036443Y-45373534D01*
X204087963Y-45543373D01*
X204105359Y-45720000D01*
X204087963Y-45896627D01*
X204036443Y-46066466D01*
X203952778Y-46222991D01*
X203923448Y-46258729D01*
X203840186Y-46360186D01*
X203738729Y-46443448D01*
X203702991Y-46472778D01*
X203546466Y-46556443D01*
X203376627Y-46607963D01*
X203310443Y-46614481D01*
X203244260Y-46621000D01*
X203155740Y-46621000D01*
X203089558Y-46614482D01*
X203023373Y-46607963D01*
X202853534Y-46556443D01*
X202697009Y-46472778D01*
X202661271Y-46443448D01*
X202559814Y-46360186D01*
X202476552Y-46258729D01*
X202447222Y-46222991D01*
X202363557Y-46066466D01*
X202312037Y-45896627D01*
X202294641Y-45720000D01*
X202312037Y-45543373D01*
X202363557Y-45373534D01*
X202447222Y-45217009D01*
X202476552Y-45181271D01*
X202559814Y-45079814D01*
X202661271Y-44996552D01*
X202697009Y-44967222D01*
X202853534Y-44883557D01*
X203023373Y-44832037D01*
X203089558Y-44825518D01*
X203155740Y-44819000D01*
X203244260Y-44819000D01*
X203310442Y-44825518D01*
X203310442Y-44825518D01*
G37*
G36*
X200770442Y-44825518D02*
G01*
X200836627Y-44832037D01*
X201006466Y-44883557D01*
X201162991Y-44967222D01*
X201198729Y-44996552D01*
X201300186Y-45079814D01*
X201383448Y-45181271D01*
X201412778Y-45217009D01*
X201496443Y-45373534D01*
X201547963Y-45543373D01*
X201565359Y-45720000D01*
X201547963Y-45896627D01*
X201496443Y-46066466D01*
X201412778Y-46222991D01*
X201383448Y-46258729D01*
X201300186Y-46360186D01*
X201198729Y-46443448D01*
X201162991Y-46472778D01*
X201006466Y-46556443D01*
X200836627Y-46607963D01*
X200770443Y-46614481D01*
X200704260Y-46621000D01*
X200615740Y-46621000D01*
X200549558Y-46614482D01*
X200483373Y-46607963D01*
X200313534Y-46556443D01*
X200157009Y-46472778D01*
X200121271Y-46443448D01*
X200019814Y-46360186D01*
X199936552Y-46258729D01*
X199907222Y-46222991D01*
X199823557Y-46066466D01*
X199772037Y-45896627D01*
X199754641Y-45720000D01*
X199772037Y-45543373D01*
X199823557Y-45373534D01*
X199907222Y-45217009D01*
X199936552Y-45181271D01*
X200019814Y-45079814D01*
X200121271Y-44996552D01*
X200157009Y-44967222D01*
X200313534Y-44883557D01*
X200483373Y-44832037D01*
X200549558Y-44825518D01*
X200615740Y-44819000D01*
X200704260Y-44819000D01*
X200770442Y-44825518D01*
X200770442Y-44825518D01*
G37*
G36*
X198230442Y-44825518D02*
G01*
X198296627Y-44832037D01*
X198466466Y-44883557D01*
X198622991Y-44967222D01*
X198658729Y-44996552D01*
X198760186Y-45079814D01*
X198843448Y-45181271D01*
X198872778Y-45217009D01*
X198956443Y-45373534D01*
X199007963Y-45543373D01*
X199025359Y-45720000D01*
X199007963Y-45896627D01*
X198956443Y-46066466D01*
X198872778Y-46222991D01*
X198843448Y-46258729D01*
X198760186Y-46360186D01*
X198658729Y-46443448D01*
X198622991Y-46472778D01*
X198466466Y-46556443D01*
X198296627Y-46607963D01*
X198230443Y-46614481D01*
X198164260Y-46621000D01*
X198075740Y-46621000D01*
X198009558Y-46614482D01*
X197943373Y-46607963D01*
X197773534Y-46556443D01*
X197617009Y-46472778D01*
X197581271Y-46443448D01*
X197479814Y-46360186D01*
X197396552Y-46258729D01*
X197367222Y-46222991D01*
X197283557Y-46066466D01*
X197232037Y-45896627D01*
X197214641Y-45720000D01*
X197232037Y-45543373D01*
X197283557Y-45373534D01*
X197367222Y-45217009D01*
X197396552Y-45181271D01*
X197479814Y-45079814D01*
X197581271Y-44996552D01*
X197617009Y-44967222D01*
X197773534Y-44883557D01*
X197943373Y-44832037D01*
X198009558Y-44825518D01*
X198075740Y-44819000D01*
X198164260Y-44819000D01*
X198230442Y-44825518D01*
X198230442Y-44825518D01*
G37*
G36*
X195690442Y-44825518D02*
G01*
X195756627Y-44832037D01*
X195926466Y-44883557D01*
X196082991Y-44967222D01*
X196118729Y-44996552D01*
X196220186Y-45079814D01*
X196303448Y-45181271D01*
X196332778Y-45217009D01*
X196416443Y-45373534D01*
X196467963Y-45543373D01*
X196485359Y-45720000D01*
X196467963Y-45896627D01*
X196416443Y-46066466D01*
X196332778Y-46222991D01*
X196303448Y-46258729D01*
X196220186Y-46360186D01*
X196118729Y-46443448D01*
X196082991Y-46472778D01*
X195926466Y-46556443D01*
X195756627Y-46607963D01*
X195690443Y-46614481D01*
X195624260Y-46621000D01*
X195535740Y-46621000D01*
X195469558Y-46614482D01*
X195403373Y-46607963D01*
X195233534Y-46556443D01*
X195077009Y-46472778D01*
X195041271Y-46443448D01*
X194939814Y-46360186D01*
X194856552Y-46258729D01*
X194827222Y-46222991D01*
X194743557Y-46066466D01*
X194692037Y-45896627D01*
X194674641Y-45720000D01*
X194692037Y-45543373D01*
X194743557Y-45373534D01*
X194827222Y-45217009D01*
X194856552Y-45181271D01*
X194939814Y-45079814D01*
X195041271Y-44996552D01*
X195077009Y-44967222D01*
X195233534Y-44883557D01*
X195403373Y-44832037D01*
X195469558Y-44825518D01*
X195535740Y-44819000D01*
X195624260Y-44819000D01*
X195690442Y-44825518D01*
X195690442Y-44825518D01*
G37*
G36*
X193150442Y-44825518D02*
G01*
X193216627Y-44832037D01*
X193386466Y-44883557D01*
X193542991Y-44967222D01*
X193578729Y-44996552D01*
X193680186Y-45079814D01*
X193763448Y-45181271D01*
X193792778Y-45217009D01*
X193876443Y-45373534D01*
X193927963Y-45543373D01*
X193945359Y-45720000D01*
X193927963Y-45896627D01*
X193876443Y-46066466D01*
X193792778Y-46222991D01*
X193763448Y-46258729D01*
X193680186Y-46360186D01*
X193578729Y-46443448D01*
X193542991Y-46472778D01*
X193386466Y-46556443D01*
X193216627Y-46607963D01*
X193150443Y-46614481D01*
X193084260Y-46621000D01*
X192995740Y-46621000D01*
X192929558Y-46614482D01*
X192863373Y-46607963D01*
X192693534Y-46556443D01*
X192537009Y-46472778D01*
X192501271Y-46443448D01*
X192399814Y-46360186D01*
X192316552Y-46258729D01*
X192287222Y-46222991D01*
X192203557Y-46066466D01*
X192152037Y-45896627D01*
X192134641Y-45720000D01*
X192152037Y-45543373D01*
X192203557Y-45373534D01*
X192287222Y-45217009D01*
X192316552Y-45181271D01*
X192399814Y-45079814D01*
X192501271Y-44996552D01*
X192537009Y-44967222D01*
X192693534Y-44883557D01*
X192863373Y-44832037D01*
X192929558Y-44825518D01*
X192995740Y-44819000D01*
X193084260Y-44819000D01*
X193150442Y-44825518D01*
X193150442Y-44825518D01*
G37*
G36*
X190610442Y-44825518D02*
G01*
X190676627Y-44832037D01*
X190846466Y-44883557D01*
X191002991Y-44967222D01*
X191038729Y-44996552D01*
X191140186Y-45079814D01*
X191223448Y-45181271D01*
X191252778Y-45217009D01*
X191336443Y-45373534D01*
X191387963Y-45543373D01*
X191405359Y-45720000D01*
X191387963Y-45896627D01*
X191336443Y-46066466D01*
X191252778Y-46222991D01*
X191223448Y-46258729D01*
X191140186Y-46360186D01*
X191038729Y-46443448D01*
X191002991Y-46472778D01*
X190846466Y-46556443D01*
X190676627Y-46607963D01*
X190610443Y-46614481D01*
X190544260Y-46621000D01*
X190455740Y-46621000D01*
X190389558Y-46614482D01*
X190323373Y-46607963D01*
X190153534Y-46556443D01*
X189997009Y-46472778D01*
X189961271Y-46443448D01*
X189859814Y-46360186D01*
X189776552Y-46258729D01*
X189747222Y-46222991D01*
X189663557Y-46066466D01*
X189612037Y-45896627D01*
X189594641Y-45720000D01*
X189612037Y-45543373D01*
X189663557Y-45373534D01*
X189747222Y-45217009D01*
X189776552Y-45181271D01*
X189859814Y-45079814D01*
X189961271Y-44996552D01*
X189997009Y-44967222D01*
X190153534Y-44883557D01*
X190323373Y-44832037D01*
X190389558Y-44825518D01*
X190455740Y-44819000D01*
X190544260Y-44819000D01*
X190610442Y-44825518D01*
X190610442Y-44825518D01*
G37*
G36*
X188070442Y-44825518D02*
G01*
X188136627Y-44832037D01*
X188306466Y-44883557D01*
X188462991Y-44967222D01*
X188498729Y-44996552D01*
X188600186Y-45079814D01*
X188683448Y-45181271D01*
X188712778Y-45217009D01*
X188796443Y-45373534D01*
X188847963Y-45543373D01*
X188865359Y-45720000D01*
X188847963Y-45896627D01*
X188796443Y-46066466D01*
X188712778Y-46222991D01*
X188683448Y-46258729D01*
X188600186Y-46360186D01*
X188498729Y-46443448D01*
X188462991Y-46472778D01*
X188306466Y-46556443D01*
X188136627Y-46607963D01*
X188070443Y-46614481D01*
X188004260Y-46621000D01*
X187915740Y-46621000D01*
X187849558Y-46614482D01*
X187783373Y-46607963D01*
X187613534Y-46556443D01*
X187457009Y-46472778D01*
X187421271Y-46443448D01*
X187319814Y-46360186D01*
X187236552Y-46258729D01*
X187207222Y-46222991D01*
X187123557Y-46066466D01*
X187072037Y-45896627D01*
X187054641Y-45720000D01*
X187072037Y-45543373D01*
X187123557Y-45373534D01*
X187207222Y-45217009D01*
X187236552Y-45181271D01*
X187319814Y-45079814D01*
X187421271Y-44996552D01*
X187457009Y-44967222D01*
X187613534Y-44883557D01*
X187783373Y-44832037D01*
X187849558Y-44825518D01*
X187915740Y-44819000D01*
X188004260Y-44819000D01*
X188070442Y-44825518D01*
X188070442Y-44825518D01*
G37*
G36*
X185530442Y-44825518D02*
G01*
X185596627Y-44832037D01*
X185766466Y-44883557D01*
X185922991Y-44967222D01*
X185958729Y-44996552D01*
X186060186Y-45079814D01*
X186143448Y-45181271D01*
X186172778Y-45217009D01*
X186256443Y-45373534D01*
X186307963Y-45543373D01*
X186325359Y-45720000D01*
X186307963Y-45896627D01*
X186256443Y-46066466D01*
X186172778Y-46222991D01*
X186143448Y-46258729D01*
X186060186Y-46360186D01*
X185958729Y-46443448D01*
X185922991Y-46472778D01*
X185766466Y-46556443D01*
X185596627Y-46607963D01*
X185530443Y-46614481D01*
X185464260Y-46621000D01*
X185375740Y-46621000D01*
X185309558Y-46614482D01*
X185243373Y-46607963D01*
X185073534Y-46556443D01*
X184917009Y-46472778D01*
X184881271Y-46443448D01*
X184779814Y-46360186D01*
X184696552Y-46258729D01*
X184667222Y-46222991D01*
X184583557Y-46066466D01*
X184532037Y-45896627D01*
X184514641Y-45720000D01*
X184532037Y-45543373D01*
X184583557Y-45373534D01*
X184667222Y-45217009D01*
X184696552Y-45181271D01*
X184779814Y-45079814D01*
X184881271Y-44996552D01*
X184917009Y-44967222D01*
X185073534Y-44883557D01*
X185243373Y-44832037D01*
X185309558Y-44825518D01*
X185375740Y-44819000D01*
X185464260Y-44819000D01*
X185530442Y-44825518D01*
X185530442Y-44825518D01*
G37*
G36*
X182990442Y-44825518D02*
G01*
X183056627Y-44832037D01*
X183226466Y-44883557D01*
X183382991Y-44967222D01*
X183418729Y-44996552D01*
X183520186Y-45079814D01*
X183603448Y-45181271D01*
X183632778Y-45217009D01*
X183716443Y-45373534D01*
X183767963Y-45543373D01*
X183785359Y-45720000D01*
X183767963Y-45896627D01*
X183716443Y-46066466D01*
X183632778Y-46222991D01*
X183603448Y-46258729D01*
X183520186Y-46360186D01*
X183418729Y-46443448D01*
X183382991Y-46472778D01*
X183226466Y-46556443D01*
X183056627Y-46607963D01*
X182990443Y-46614481D01*
X182924260Y-46621000D01*
X182835740Y-46621000D01*
X182769558Y-46614482D01*
X182703373Y-46607963D01*
X182533534Y-46556443D01*
X182377009Y-46472778D01*
X182341271Y-46443448D01*
X182239814Y-46360186D01*
X182156552Y-46258729D01*
X182127222Y-46222991D01*
X182043557Y-46066466D01*
X181992037Y-45896627D01*
X181974641Y-45720000D01*
X181992037Y-45543373D01*
X182043557Y-45373534D01*
X182127222Y-45217009D01*
X182156552Y-45181271D01*
X182239814Y-45079814D01*
X182341271Y-44996552D01*
X182377009Y-44967222D01*
X182533534Y-44883557D01*
X182703373Y-44832037D01*
X182769558Y-44825518D01*
X182835740Y-44819000D01*
X182924260Y-44819000D01*
X182990442Y-44825518D01*
X182990442Y-44825518D01*
G37*
G36*
X180450442Y-44825518D02*
G01*
X180516627Y-44832037D01*
X180686466Y-44883557D01*
X180842991Y-44967222D01*
X180878729Y-44996552D01*
X180980186Y-45079814D01*
X181063448Y-45181271D01*
X181092778Y-45217009D01*
X181176443Y-45373534D01*
X181227963Y-45543373D01*
X181245359Y-45720000D01*
X181227963Y-45896627D01*
X181176443Y-46066466D01*
X181092778Y-46222991D01*
X181063448Y-46258729D01*
X180980186Y-46360186D01*
X180878729Y-46443448D01*
X180842991Y-46472778D01*
X180686466Y-46556443D01*
X180516627Y-46607963D01*
X180450443Y-46614481D01*
X180384260Y-46621000D01*
X180295740Y-46621000D01*
X180229558Y-46614482D01*
X180163373Y-46607963D01*
X179993534Y-46556443D01*
X179837009Y-46472778D01*
X179801271Y-46443448D01*
X179699814Y-46360186D01*
X179616552Y-46258729D01*
X179587222Y-46222991D01*
X179503557Y-46066466D01*
X179452037Y-45896627D01*
X179434641Y-45720000D01*
X179452037Y-45543373D01*
X179503557Y-45373534D01*
X179587222Y-45217009D01*
X179616552Y-45181271D01*
X179699814Y-45079814D01*
X179801271Y-44996552D01*
X179837009Y-44967222D01*
X179993534Y-44883557D01*
X180163373Y-44832037D01*
X180229558Y-44825518D01*
X180295740Y-44819000D01*
X180384260Y-44819000D01*
X180450442Y-44825518D01*
X180450442Y-44825518D01*
G37*
G36*
X193150442Y-42285518D02*
G01*
X193216627Y-42292037D01*
X193386466Y-42343557D01*
X193542991Y-42427222D01*
X193578729Y-42456552D01*
X193680186Y-42539814D01*
X193763448Y-42641271D01*
X193792778Y-42677009D01*
X193876443Y-42833534D01*
X193927963Y-43003373D01*
X193945359Y-43180000D01*
X193927963Y-43356627D01*
X193876443Y-43526466D01*
X193792778Y-43682991D01*
X193763448Y-43718729D01*
X193680186Y-43820186D01*
X193578729Y-43903448D01*
X193542991Y-43932778D01*
X193386466Y-44016443D01*
X193216627Y-44067963D01*
X193150443Y-44074481D01*
X193084260Y-44081000D01*
X192995740Y-44081000D01*
X192929557Y-44074481D01*
X192863373Y-44067963D01*
X192693534Y-44016443D01*
X192537009Y-43932778D01*
X192501271Y-43903448D01*
X192399814Y-43820186D01*
X192316552Y-43718729D01*
X192287222Y-43682991D01*
X192203557Y-43526466D01*
X192152037Y-43356627D01*
X192134641Y-43180000D01*
X192152037Y-43003373D01*
X192203557Y-42833534D01*
X192287222Y-42677009D01*
X192316552Y-42641271D01*
X192399814Y-42539814D01*
X192501271Y-42456552D01*
X192537009Y-42427222D01*
X192693534Y-42343557D01*
X192863373Y-42292037D01*
X192929557Y-42285519D01*
X192995740Y-42279000D01*
X193084260Y-42279000D01*
X193150442Y-42285518D01*
X193150442Y-42285518D01*
G37*
G36*
X195690442Y-42285518D02*
G01*
X195756627Y-42292037D01*
X195926466Y-42343557D01*
X196082991Y-42427222D01*
X196118729Y-42456552D01*
X196220186Y-42539814D01*
X196303448Y-42641271D01*
X196332778Y-42677009D01*
X196416443Y-42833534D01*
X196467963Y-43003373D01*
X196485359Y-43180000D01*
X196467963Y-43356627D01*
X196416443Y-43526466D01*
X196332778Y-43682991D01*
X196303448Y-43718729D01*
X196220186Y-43820186D01*
X196118729Y-43903448D01*
X196082991Y-43932778D01*
X195926466Y-44016443D01*
X195756627Y-44067963D01*
X195690443Y-44074481D01*
X195624260Y-44081000D01*
X195535740Y-44081000D01*
X195469557Y-44074481D01*
X195403373Y-44067963D01*
X195233534Y-44016443D01*
X195077009Y-43932778D01*
X195041271Y-43903448D01*
X194939814Y-43820186D01*
X194856552Y-43718729D01*
X194827222Y-43682991D01*
X194743557Y-43526466D01*
X194692037Y-43356627D01*
X194674641Y-43180000D01*
X194692037Y-43003373D01*
X194743557Y-42833534D01*
X194827222Y-42677009D01*
X194856552Y-42641271D01*
X194939814Y-42539814D01*
X195041271Y-42456552D01*
X195077009Y-42427222D01*
X195233534Y-42343557D01*
X195403373Y-42292037D01*
X195469557Y-42285519D01*
X195535740Y-42279000D01*
X195624260Y-42279000D01*
X195690442Y-42285518D01*
X195690442Y-42285518D01*
G37*
G36*
X198230442Y-42285518D02*
G01*
X198296627Y-42292037D01*
X198466466Y-42343557D01*
X198622991Y-42427222D01*
X198658729Y-42456552D01*
X198760186Y-42539814D01*
X198843448Y-42641271D01*
X198872778Y-42677009D01*
X198956443Y-42833534D01*
X199007963Y-43003373D01*
X199025359Y-43180000D01*
X199007963Y-43356627D01*
X198956443Y-43526466D01*
X198872778Y-43682991D01*
X198843448Y-43718729D01*
X198760186Y-43820186D01*
X198658729Y-43903448D01*
X198622991Y-43932778D01*
X198466466Y-44016443D01*
X198296627Y-44067963D01*
X198230443Y-44074481D01*
X198164260Y-44081000D01*
X198075740Y-44081000D01*
X198009557Y-44074481D01*
X197943373Y-44067963D01*
X197773534Y-44016443D01*
X197617009Y-43932778D01*
X197581271Y-43903448D01*
X197479814Y-43820186D01*
X197396552Y-43718729D01*
X197367222Y-43682991D01*
X197283557Y-43526466D01*
X197232037Y-43356627D01*
X197214641Y-43180000D01*
X197232037Y-43003373D01*
X197283557Y-42833534D01*
X197367222Y-42677009D01*
X197396552Y-42641271D01*
X197479814Y-42539814D01*
X197581271Y-42456552D01*
X197617009Y-42427222D01*
X197773534Y-42343557D01*
X197943373Y-42292037D01*
X198009557Y-42285519D01*
X198075740Y-42279000D01*
X198164260Y-42279000D01*
X198230442Y-42285518D01*
X198230442Y-42285518D01*
G37*
G36*
X201561000Y-44081000D02*
G01*
X199759000Y-44081000D01*
X199759000Y-42279000D01*
X201561000Y-42279000D01*
X201561000Y-44081000D01*
X201561000Y-44081000D01*
G37*
G36*
X190610442Y-42285518D02*
G01*
X190676627Y-42292037D01*
X190846466Y-42343557D01*
X191002991Y-42427222D01*
X191038729Y-42456552D01*
X191140186Y-42539814D01*
X191223448Y-42641271D01*
X191252778Y-42677009D01*
X191336443Y-42833534D01*
X191387963Y-43003373D01*
X191405359Y-43180000D01*
X191387963Y-43356627D01*
X191336443Y-43526466D01*
X191252778Y-43682991D01*
X191223448Y-43718729D01*
X191140186Y-43820186D01*
X191038729Y-43903448D01*
X191002991Y-43932778D01*
X190846466Y-44016443D01*
X190676627Y-44067963D01*
X190610443Y-44074481D01*
X190544260Y-44081000D01*
X190455740Y-44081000D01*
X190389557Y-44074481D01*
X190323373Y-44067963D01*
X190153534Y-44016443D01*
X189997009Y-43932778D01*
X189961271Y-43903448D01*
X189859814Y-43820186D01*
X189776552Y-43718729D01*
X189747222Y-43682991D01*
X189663557Y-43526466D01*
X189612037Y-43356627D01*
X189594641Y-43180000D01*
X189612037Y-43003373D01*
X189663557Y-42833534D01*
X189747222Y-42677009D01*
X189776552Y-42641271D01*
X189859814Y-42539814D01*
X189961271Y-42456552D01*
X189997009Y-42427222D01*
X190153534Y-42343557D01*
X190323373Y-42292037D01*
X190389557Y-42285519D01*
X190455740Y-42279000D01*
X190544260Y-42279000D01*
X190610442Y-42285518D01*
X190610442Y-42285518D01*
G37*
G36*
X188070442Y-42285518D02*
G01*
X188136627Y-42292037D01*
X188306466Y-42343557D01*
X188462991Y-42427222D01*
X188498729Y-42456552D01*
X188600186Y-42539814D01*
X188683448Y-42641271D01*
X188712778Y-42677009D01*
X188796443Y-42833534D01*
X188847963Y-43003373D01*
X188865359Y-43180000D01*
X188847963Y-43356627D01*
X188796443Y-43526466D01*
X188712778Y-43682991D01*
X188683448Y-43718729D01*
X188600186Y-43820186D01*
X188498729Y-43903448D01*
X188462991Y-43932778D01*
X188306466Y-44016443D01*
X188136627Y-44067963D01*
X188070443Y-44074481D01*
X188004260Y-44081000D01*
X187915740Y-44081000D01*
X187849557Y-44074481D01*
X187783373Y-44067963D01*
X187613534Y-44016443D01*
X187457009Y-43932778D01*
X187421271Y-43903448D01*
X187319814Y-43820186D01*
X187236552Y-43718729D01*
X187207222Y-43682991D01*
X187123557Y-43526466D01*
X187072037Y-43356627D01*
X187054641Y-43180000D01*
X187072037Y-43003373D01*
X187123557Y-42833534D01*
X187207222Y-42677009D01*
X187236552Y-42641271D01*
X187319814Y-42539814D01*
X187421271Y-42456552D01*
X187457009Y-42427222D01*
X187613534Y-42343557D01*
X187783373Y-42292037D01*
X187849557Y-42285519D01*
X187915740Y-42279000D01*
X188004260Y-42279000D01*
X188070442Y-42285518D01*
X188070442Y-42285518D01*
G37*
G36*
X185530442Y-42285518D02*
G01*
X185596627Y-42292037D01*
X185766466Y-42343557D01*
X185922991Y-42427222D01*
X185958729Y-42456552D01*
X186060186Y-42539814D01*
X186143448Y-42641271D01*
X186172778Y-42677009D01*
X186256443Y-42833534D01*
X186307963Y-43003373D01*
X186325359Y-43180000D01*
X186307963Y-43356627D01*
X186256443Y-43526466D01*
X186172778Y-43682991D01*
X186143448Y-43718729D01*
X186060186Y-43820186D01*
X185958729Y-43903448D01*
X185922991Y-43932778D01*
X185766466Y-44016443D01*
X185596627Y-44067963D01*
X185530443Y-44074481D01*
X185464260Y-44081000D01*
X185375740Y-44081000D01*
X185309557Y-44074481D01*
X185243373Y-44067963D01*
X185073534Y-44016443D01*
X184917009Y-43932778D01*
X184881271Y-43903448D01*
X184779814Y-43820186D01*
X184696552Y-43718729D01*
X184667222Y-43682991D01*
X184583557Y-43526466D01*
X184532037Y-43356627D01*
X184514641Y-43180000D01*
X184532037Y-43003373D01*
X184583557Y-42833534D01*
X184667222Y-42677009D01*
X184696552Y-42641271D01*
X184779814Y-42539814D01*
X184881271Y-42456552D01*
X184917009Y-42427222D01*
X185073534Y-42343557D01*
X185243373Y-42292037D01*
X185309557Y-42285519D01*
X185375740Y-42279000D01*
X185464260Y-42279000D01*
X185530442Y-42285518D01*
X185530442Y-42285518D01*
G37*
G36*
X178701000Y-44081000D02*
G01*
X176899000Y-44081000D01*
X176899000Y-42279000D01*
X178701000Y-42279000D01*
X178701000Y-44081000D01*
X178701000Y-44081000D01*
G37*
G36*
X158381000Y-44081000D02*
G01*
X156579000Y-44081000D01*
X156579000Y-42279000D01*
X158381000Y-42279000D01*
X158381000Y-44081000D01*
X158381000Y-44081000D01*
G37*
G36*
X155050442Y-42285518D02*
G01*
X155116627Y-42292037D01*
X155286466Y-42343557D01*
X155442991Y-42427222D01*
X155478729Y-42456552D01*
X155580186Y-42539814D01*
X155663448Y-42641271D01*
X155692778Y-42677009D01*
X155776443Y-42833534D01*
X155827963Y-43003373D01*
X155845359Y-43180000D01*
X155827963Y-43356627D01*
X155776443Y-43526466D01*
X155692778Y-43682991D01*
X155663448Y-43718729D01*
X155580186Y-43820186D01*
X155478729Y-43903448D01*
X155442991Y-43932778D01*
X155286466Y-44016443D01*
X155116627Y-44067963D01*
X155050443Y-44074481D01*
X154984260Y-44081000D01*
X154895740Y-44081000D01*
X154829557Y-44074481D01*
X154763373Y-44067963D01*
X154593534Y-44016443D01*
X154437009Y-43932778D01*
X154401271Y-43903448D01*
X154299814Y-43820186D01*
X154216552Y-43718729D01*
X154187222Y-43682991D01*
X154103557Y-43526466D01*
X154052037Y-43356627D01*
X154034641Y-43180000D01*
X154052037Y-43003373D01*
X154103557Y-42833534D01*
X154187222Y-42677009D01*
X154216552Y-42641271D01*
X154299814Y-42539814D01*
X154401271Y-42456552D01*
X154437009Y-42427222D01*
X154593534Y-42343557D01*
X154763373Y-42292037D01*
X154829557Y-42285519D01*
X154895740Y-42279000D01*
X154984260Y-42279000D01*
X155050442Y-42285518D01*
X155050442Y-42285518D01*
G37*
G36*
X152510442Y-42285518D02*
G01*
X152576627Y-42292037D01*
X152746466Y-42343557D01*
X152902991Y-42427222D01*
X152938729Y-42456552D01*
X153040186Y-42539814D01*
X153123448Y-42641271D01*
X153152778Y-42677009D01*
X153236443Y-42833534D01*
X153287963Y-43003373D01*
X153305359Y-43180000D01*
X153287963Y-43356627D01*
X153236443Y-43526466D01*
X153152778Y-43682991D01*
X153123448Y-43718729D01*
X153040186Y-43820186D01*
X152938729Y-43903448D01*
X152902991Y-43932778D01*
X152746466Y-44016443D01*
X152576627Y-44067963D01*
X152510443Y-44074481D01*
X152444260Y-44081000D01*
X152355740Y-44081000D01*
X152289557Y-44074481D01*
X152223373Y-44067963D01*
X152053534Y-44016443D01*
X151897009Y-43932778D01*
X151861271Y-43903448D01*
X151759814Y-43820186D01*
X151676552Y-43718729D01*
X151647222Y-43682991D01*
X151563557Y-43526466D01*
X151512037Y-43356627D01*
X151494641Y-43180000D01*
X151512037Y-43003373D01*
X151563557Y-42833534D01*
X151647222Y-42677009D01*
X151676552Y-42641271D01*
X151759814Y-42539814D01*
X151861271Y-42456552D01*
X151897009Y-42427222D01*
X152053534Y-42343557D01*
X152223373Y-42292037D01*
X152289557Y-42285519D01*
X152355740Y-42279000D01*
X152444260Y-42279000D01*
X152510442Y-42285518D01*
X152510442Y-42285518D01*
G37*
G36*
X149970442Y-42285518D02*
G01*
X150036627Y-42292037D01*
X150206466Y-42343557D01*
X150362991Y-42427222D01*
X150398729Y-42456552D01*
X150500186Y-42539814D01*
X150583448Y-42641271D01*
X150612778Y-42677009D01*
X150696443Y-42833534D01*
X150747963Y-43003373D01*
X150765359Y-43180000D01*
X150747963Y-43356627D01*
X150696443Y-43526466D01*
X150612778Y-43682991D01*
X150583448Y-43718729D01*
X150500186Y-43820186D01*
X150398729Y-43903448D01*
X150362991Y-43932778D01*
X150206466Y-44016443D01*
X150036627Y-44067963D01*
X149970443Y-44074481D01*
X149904260Y-44081000D01*
X149815740Y-44081000D01*
X149749557Y-44074481D01*
X149683373Y-44067963D01*
X149513534Y-44016443D01*
X149357009Y-43932778D01*
X149321271Y-43903448D01*
X149219814Y-43820186D01*
X149136552Y-43718729D01*
X149107222Y-43682991D01*
X149023557Y-43526466D01*
X148972037Y-43356627D01*
X148954641Y-43180000D01*
X148972037Y-43003373D01*
X149023557Y-42833534D01*
X149107222Y-42677009D01*
X149136552Y-42641271D01*
X149219814Y-42539814D01*
X149321271Y-42456552D01*
X149357009Y-42427222D01*
X149513534Y-42343557D01*
X149683373Y-42292037D01*
X149749557Y-42285519D01*
X149815740Y-42279000D01*
X149904260Y-42279000D01*
X149970442Y-42285518D01*
X149970442Y-42285518D01*
G37*
G36*
X205850442Y-42285518D02*
G01*
X205916627Y-42292037D01*
X206086466Y-42343557D01*
X206242991Y-42427222D01*
X206278729Y-42456552D01*
X206380186Y-42539814D01*
X206463448Y-42641271D01*
X206492778Y-42677009D01*
X206576443Y-42833534D01*
X206627963Y-43003373D01*
X206645359Y-43180000D01*
X206627963Y-43356627D01*
X206576443Y-43526466D01*
X206492778Y-43682991D01*
X206463448Y-43718729D01*
X206380186Y-43820186D01*
X206278729Y-43903448D01*
X206242991Y-43932778D01*
X206086466Y-44016443D01*
X205916627Y-44067963D01*
X205850443Y-44074481D01*
X205784260Y-44081000D01*
X205695740Y-44081000D01*
X205629557Y-44074481D01*
X205563373Y-44067963D01*
X205393534Y-44016443D01*
X205237009Y-43932778D01*
X205201271Y-43903448D01*
X205099814Y-43820186D01*
X205016552Y-43718729D01*
X204987222Y-43682991D01*
X204903557Y-43526466D01*
X204852037Y-43356627D01*
X204834641Y-43180000D01*
X204852037Y-43003373D01*
X204903557Y-42833534D01*
X204987222Y-42677009D01*
X205016552Y-42641271D01*
X205099814Y-42539814D01*
X205201271Y-42456552D01*
X205237009Y-42427222D01*
X205393534Y-42343557D01*
X205563373Y-42292037D01*
X205629557Y-42285519D01*
X205695740Y-42279000D01*
X205784260Y-42279000D01*
X205850442Y-42285518D01*
X205850442Y-42285518D01*
G37*
G36*
X209181000Y-44081000D02*
G01*
X207379000Y-44081000D01*
X207379000Y-42279000D01*
X209181000Y-42279000D01*
X209181000Y-44081000D01*
X209181000Y-44081000D01*
G37*
G36*
X156376822Y-35591313D02*
G01*
X156537241Y-35639976D01*
X156685077Y-35718995D01*
X156814659Y-35825341D01*
X156921004Y-35954922D01*
X156921005Y-35954924D01*
X157000024Y-36102758D01*
X157000024Y-36102759D01*
X157000025Y-36102761D01*
X157004950Y-36118996D01*
X157048687Y-36263177D01*
X157061000Y-36388196D01*
X157061000Y-37271803D01*
X157048687Y-37396822D01*
X157048686Y-37396825D01*
X157004950Y-37541005D01*
X157000024Y-37557242D01*
X156951355Y-37648295D01*
X156921004Y-37705078D01*
X156814659Y-37834659D01*
X156685078Y-37941004D01*
X156685076Y-37941005D01*
X156537242Y-38020024D01*
X156376823Y-38068687D01*
X156210000Y-38085117D01*
X156043178Y-38068687D01*
X155882759Y-38020024D01*
X155734925Y-37941005D01*
X155734923Y-37941004D01*
X155605342Y-37834659D01*
X155498997Y-37705078D01*
X155468646Y-37648295D01*
X155419977Y-37557242D01*
X155415052Y-37541005D01*
X155371315Y-37396825D01*
X155371314Y-37396823D01*
X155359000Y-37271803D01*
X155359000Y-36388197D01*
X155371313Y-36263178D01*
X155410917Y-36132621D01*
X155419975Y-36102762D01*
X155419976Y-36102759D01*
X155498995Y-35954923D01*
X155605341Y-35825341D01*
X155734922Y-35718996D01*
X155750094Y-35710886D01*
X155882758Y-35639976D01*
X156043177Y-35591313D01*
X156210000Y-35574883D01*
X156376822Y-35591313D01*
X156376822Y-35591313D01*
G37*
G36*
X161456822Y-35591313D02*
G01*
X161617241Y-35639976D01*
X161765077Y-35718995D01*
X161894659Y-35825341D01*
X162001004Y-35954922D01*
X162001005Y-35954924D01*
X162080024Y-36102758D01*
X162080024Y-36102759D01*
X162080025Y-36102761D01*
X162084950Y-36118996D01*
X162128687Y-36263177D01*
X162141000Y-36388196D01*
X162141000Y-37271803D01*
X162128687Y-37396822D01*
X162128686Y-37396825D01*
X162084950Y-37541005D01*
X162080024Y-37557242D01*
X162031355Y-37648295D01*
X162001004Y-37705078D01*
X161894659Y-37834659D01*
X161765078Y-37941004D01*
X161765076Y-37941005D01*
X161617242Y-38020024D01*
X161456823Y-38068687D01*
X161290000Y-38085117D01*
X161123178Y-38068687D01*
X160962759Y-38020024D01*
X160814925Y-37941005D01*
X160814923Y-37941004D01*
X160685342Y-37834659D01*
X160578997Y-37705078D01*
X160548646Y-37648295D01*
X160499977Y-37557242D01*
X160495052Y-37541005D01*
X160451315Y-37396825D01*
X160451314Y-37396823D01*
X160439000Y-37271803D01*
X160439000Y-36388197D01*
X160451313Y-36263178D01*
X160490917Y-36132621D01*
X160499975Y-36102762D01*
X160499976Y-36102759D01*
X160578995Y-35954923D01*
X160685341Y-35825341D01*
X160814922Y-35718996D01*
X160830094Y-35710886D01*
X160962758Y-35639976D01*
X161123177Y-35591313D01*
X161290000Y-35574883D01*
X161456822Y-35591313D01*
X161456822Y-35591313D01*
G37*
G36*
X158916822Y-35591313D02*
G01*
X159077241Y-35639976D01*
X159225077Y-35718995D01*
X159354659Y-35825341D01*
X159461004Y-35954922D01*
X159461005Y-35954924D01*
X159540024Y-36102758D01*
X159540024Y-36102759D01*
X159540025Y-36102761D01*
X159544950Y-36118996D01*
X159588687Y-36263177D01*
X159601000Y-36388196D01*
X159601000Y-37271803D01*
X159588687Y-37396822D01*
X159588686Y-37396825D01*
X159544950Y-37541005D01*
X159540024Y-37557242D01*
X159491355Y-37648295D01*
X159461004Y-37705078D01*
X159354659Y-37834659D01*
X159225078Y-37941004D01*
X159225076Y-37941005D01*
X159077242Y-38020024D01*
X158916823Y-38068687D01*
X158750000Y-38085117D01*
X158583178Y-38068687D01*
X158422759Y-38020024D01*
X158274925Y-37941005D01*
X158274923Y-37941004D01*
X158145342Y-37834659D01*
X158038997Y-37705078D01*
X158008646Y-37648295D01*
X157959977Y-37557242D01*
X157955052Y-37541005D01*
X157911315Y-37396825D01*
X157911314Y-37396823D01*
X157899000Y-37271803D01*
X157899000Y-36388197D01*
X157911313Y-36263178D01*
X157950917Y-36132621D01*
X157959975Y-36102762D01*
X157959976Y-36102759D01*
X158038995Y-35954923D01*
X158145341Y-35825341D01*
X158274922Y-35718996D01*
X158290094Y-35710886D01*
X158422758Y-35639976D01*
X158583177Y-35591313D01*
X158750000Y-35574883D01*
X158916822Y-35591313D01*
X158916822Y-35591313D01*
G37*
G36*
X154521000Y-38081000D02*
G01*
X152819000Y-38081000D01*
X152819000Y-35579000D01*
X154521000Y-35579000D01*
X154521000Y-38081000D01*
X154521000Y-38081000D01*
G37*
G36*
X193206823Y-35991313D02*
G01*
X193367242Y-36039976D01*
X193484704Y-36102761D01*
X193515078Y-36118996D01*
X193644659Y-36225341D01*
X193751004Y-36354922D01*
X193751005Y-36354924D01*
X193830024Y-36502758D01*
X193878687Y-36663177D01*
X193895117Y-36830000D01*
X193878687Y-36996823D01*
X193830024Y-37157242D01*
X193789477Y-37233100D01*
X193751004Y-37305078D01*
X193644659Y-37434659D01*
X193515078Y-37541004D01*
X193515076Y-37541005D01*
X193367242Y-37620024D01*
X193206823Y-37668687D01*
X193081804Y-37681000D01*
X192998196Y-37681000D01*
X192873177Y-37668687D01*
X192712758Y-37620024D01*
X192564924Y-37541005D01*
X192564922Y-37541004D01*
X192435341Y-37434659D01*
X192328996Y-37305078D01*
X192290523Y-37233100D01*
X192249976Y-37157242D01*
X192201313Y-36996823D01*
X192184883Y-36830000D01*
X192201313Y-36663177D01*
X192249976Y-36502758D01*
X192328995Y-36354924D01*
X192328996Y-36354922D01*
X192435341Y-36225341D01*
X192564922Y-36118996D01*
X192595296Y-36102761D01*
X192712758Y-36039976D01*
X192873177Y-35991313D01*
X192998196Y-35979000D01*
X193081804Y-35979000D01*
X193206823Y-35991313D01*
X193206823Y-35991313D01*
G37*
G36*
X198286823Y-35991313D02*
G01*
X198447242Y-36039976D01*
X198564704Y-36102761D01*
X198595078Y-36118996D01*
X198724659Y-36225341D01*
X198831004Y-36354922D01*
X198831005Y-36354924D01*
X198910024Y-36502758D01*
X198958687Y-36663177D01*
X198975117Y-36830000D01*
X198958687Y-36996823D01*
X198910024Y-37157242D01*
X198869477Y-37233100D01*
X198831004Y-37305078D01*
X198724659Y-37434659D01*
X198595078Y-37541004D01*
X198595076Y-37541005D01*
X198447242Y-37620024D01*
X198286823Y-37668687D01*
X198161804Y-37681000D01*
X198078196Y-37681000D01*
X197953177Y-37668687D01*
X197792758Y-37620024D01*
X197644924Y-37541005D01*
X197644922Y-37541004D01*
X197515341Y-37434659D01*
X197408996Y-37305078D01*
X197370523Y-37233100D01*
X197329976Y-37157242D01*
X197281313Y-36996823D01*
X197264883Y-36830000D01*
X197281313Y-36663177D01*
X197329976Y-36502758D01*
X197408995Y-36354924D01*
X197408996Y-36354922D01*
X197515341Y-36225341D01*
X197644922Y-36118996D01*
X197675296Y-36102761D01*
X197792758Y-36039976D01*
X197953177Y-35991313D01*
X198078196Y-35979000D01*
X198161804Y-35979000D01*
X198286823Y-35991313D01*
X198286823Y-35991313D01*
G37*
G36*
X212256823Y-35991313D02*
G01*
X212417242Y-36039976D01*
X212534704Y-36102761D01*
X212565078Y-36118996D01*
X212694659Y-36225341D01*
X212801004Y-36354922D01*
X212801005Y-36354924D01*
X212880024Y-36502758D01*
X212928687Y-36663177D01*
X212945117Y-36830000D01*
X212928687Y-36996823D01*
X212880024Y-37157242D01*
X212839477Y-37233100D01*
X212801004Y-37305078D01*
X212694659Y-37434659D01*
X212565078Y-37541004D01*
X212565076Y-37541005D01*
X212417242Y-37620024D01*
X212256823Y-37668687D01*
X212131804Y-37681000D01*
X212048196Y-37681000D01*
X211923177Y-37668687D01*
X211762758Y-37620024D01*
X211614924Y-37541005D01*
X211614922Y-37541004D01*
X211485341Y-37434659D01*
X211378996Y-37305078D01*
X211340523Y-37233100D01*
X211299976Y-37157242D01*
X211251313Y-36996823D01*
X211234883Y-36830000D01*
X211251313Y-36663177D01*
X211299976Y-36502758D01*
X211378995Y-36354924D01*
X211378996Y-36354922D01*
X211485341Y-36225341D01*
X211614922Y-36118996D01*
X211645296Y-36102761D01*
X211762758Y-36039976D01*
X211923177Y-35991313D01*
X212048196Y-35979000D01*
X212131804Y-35979000D01*
X212256823Y-35991313D01*
X212256823Y-35991313D01*
G37*
G36*
X219958228Y-36011703D02*
G01*
X220113100Y-36075853D01*
X220252481Y-36168985D01*
X220371015Y-36287519D01*
X220464147Y-36426900D01*
X220528297Y-36581772D01*
X220561000Y-36746184D01*
X220561000Y-36913816D01*
X220528297Y-37078228D01*
X220464147Y-37233100D01*
X220371015Y-37372481D01*
X220252481Y-37491015D01*
X220113100Y-37584147D01*
X219958228Y-37648297D01*
X219793816Y-37681000D01*
X219626184Y-37681000D01*
X219461772Y-37648297D01*
X219306900Y-37584147D01*
X219167519Y-37491015D01*
X219048985Y-37372481D01*
X218955853Y-37233100D01*
X218891703Y-37078228D01*
X218859000Y-36913816D01*
X218859000Y-36746184D01*
X218891703Y-36581772D01*
X218955853Y-36426900D01*
X219048985Y-36287519D01*
X219167519Y-36168985D01*
X219306900Y-36075853D01*
X219461772Y-36011703D01*
X219626184Y-35979000D01*
X219793816Y-35979000D01*
X219958228Y-36011703D01*
X219958228Y-36011703D01*
G37*
G36*
X202096823Y-35991313D02*
G01*
X202257242Y-36039976D01*
X202374704Y-36102761D01*
X202405078Y-36118996D01*
X202534659Y-36225341D01*
X202641004Y-36354922D01*
X202641005Y-36354924D01*
X202720024Y-36502758D01*
X202768687Y-36663177D01*
X202785117Y-36830000D01*
X202768687Y-36996823D01*
X202720024Y-37157242D01*
X202679477Y-37233100D01*
X202641004Y-37305078D01*
X202534659Y-37434659D01*
X202405078Y-37541004D01*
X202405076Y-37541005D01*
X202257242Y-37620024D01*
X202096823Y-37668687D01*
X201971804Y-37681000D01*
X201888196Y-37681000D01*
X201763177Y-37668687D01*
X201602758Y-37620024D01*
X201454924Y-37541005D01*
X201454922Y-37541004D01*
X201325341Y-37434659D01*
X201218996Y-37305078D01*
X201180523Y-37233100D01*
X201139976Y-37157242D01*
X201091313Y-36996823D01*
X201074883Y-36830000D01*
X201091313Y-36663177D01*
X201139976Y-36502758D01*
X201218995Y-36354924D01*
X201218996Y-36354922D01*
X201325341Y-36225341D01*
X201454922Y-36118996D01*
X201485296Y-36102761D01*
X201602758Y-36039976D01*
X201763177Y-35991313D01*
X201888196Y-35979000D01*
X201971804Y-35979000D01*
X202096823Y-35991313D01*
X202096823Y-35991313D01*
G37*
G36*
X209798228Y-36011703D02*
G01*
X209953100Y-36075853D01*
X210092481Y-36168985D01*
X210211015Y-36287519D01*
X210304147Y-36426900D01*
X210368297Y-36581772D01*
X210401000Y-36746184D01*
X210401000Y-36913816D01*
X210368297Y-37078228D01*
X210304147Y-37233100D01*
X210211015Y-37372481D01*
X210092481Y-37491015D01*
X209953100Y-37584147D01*
X209798228Y-37648297D01*
X209633816Y-37681000D01*
X209466184Y-37681000D01*
X209301772Y-37648297D01*
X209146900Y-37584147D01*
X209007519Y-37491015D01*
X208888985Y-37372481D01*
X208795853Y-37233100D01*
X208731703Y-37078228D01*
X208699000Y-36913816D01*
X208699000Y-36746184D01*
X208731703Y-36581772D01*
X208795853Y-36426900D01*
X208888985Y-36287519D01*
X209007519Y-36168985D01*
X209146900Y-36075853D01*
X209301772Y-36011703D01*
X209466184Y-35979000D01*
X209633816Y-35979000D01*
X209798228Y-36011703D01*
X209798228Y-36011703D01*
G37*
G36*
X187641000Y-37108500D02*
G01*
X185739000Y-37108500D01*
X185739000Y-35731500D01*
X187641000Y-35731500D01*
X187641000Y-37108500D01*
X187641000Y-37108500D01*
G37*
G36*
X187006551Y-34033492D02*
G01*
X187087470Y-34041462D01*
X187217252Y-34080831D01*
X187266645Y-34107233D01*
X187336860Y-34144763D01*
X187441699Y-34230801D01*
X187527736Y-34335639D01*
X187591669Y-34455248D01*
X187631038Y-34585030D01*
X187644331Y-34720000D01*
X187631038Y-34854970D01*
X187591669Y-34984752D01*
X187591666Y-34984757D01*
X187527737Y-35104360D01*
X187441699Y-35209199D01*
X187336860Y-35295237D01*
X187266645Y-35332767D01*
X187217252Y-35359169D01*
X187087470Y-35398538D01*
X187006551Y-35406508D01*
X186986322Y-35408500D01*
X186393678Y-35408500D01*
X186373449Y-35406508D01*
X186292530Y-35398538D01*
X186162748Y-35359169D01*
X186113355Y-35332767D01*
X186043140Y-35295237D01*
X185938301Y-35209199D01*
X185852263Y-35104360D01*
X185788334Y-34984757D01*
X185788331Y-34984752D01*
X185748962Y-34854970D01*
X185735669Y-34720000D01*
X185748962Y-34585030D01*
X185788331Y-34455248D01*
X185852264Y-34335639D01*
X185938301Y-34230801D01*
X186043140Y-34144763D01*
X186113355Y-34107233D01*
X186162748Y-34080831D01*
X186292530Y-34041462D01*
X186373449Y-34033492D01*
X186393678Y-34031500D01*
X186986322Y-34031500D01*
X187006551Y-34033492D01*
X187006551Y-34033492D01*
G37*
G36*
X146266000Y-35141000D02*
G01*
X144564000Y-35141000D01*
X144564000Y-33439000D01*
X146266000Y-33439000D01*
X146266000Y-35141000D01*
X146266000Y-35141000D01*
G37*
G36*
X170206669Y-31227686D02*
G01*
X170383058Y-31245059D01*
X170722548Y-31348042D01*
X170722550Y-31348043D01*
X171035422Y-31515277D01*
X171309661Y-31740339D01*
X171534723Y-32014578D01*
X171630145Y-32193100D01*
X171701958Y-32327452D01*
X171804941Y-32666942D01*
X171839714Y-33020000D01*
X171804941Y-33373058D01*
X171703186Y-33708500D01*
X171701957Y-33712550D01*
X171534723Y-34025422D01*
X171309661Y-34299661D01*
X171035422Y-34524723D01*
X170922588Y-34585034D01*
X170722548Y-34691958D01*
X170383058Y-34794941D01*
X170206669Y-34812314D01*
X170118476Y-34821000D01*
X169941524Y-34821000D01*
X169853331Y-34812314D01*
X169676942Y-34794941D01*
X169337452Y-34691958D01*
X169137412Y-34585034D01*
X169024578Y-34524723D01*
X168750339Y-34299661D01*
X168525277Y-34025422D01*
X168358043Y-33712550D01*
X168356814Y-33708500D01*
X168255059Y-33373058D01*
X168220286Y-33020000D01*
X168255059Y-32666942D01*
X168358042Y-32327452D01*
X168429855Y-32193100D01*
X168525277Y-32014578D01*
X168750339Y-31740339D01*
X169024578Y-31515277D01*
X169337450Y-31348043D01*
X169337452Y-31348042D01*
X169676942Y-31245059D01*
X169853331Y-31227686D01*
X169941524Y-31219000D01*
X170118476Y-31219000D01*
X170206669Y-31227686D01*
X170206669Y-31227686D01*
G37*
G36*
X186996282Y-32332481D02*
G01*
X187087470Y-32341462D01*
X187217252Y-32380831D01*
X187266645Y-32407233D01*
X187336860Y-32444763D01*
X187441699Y-32530801D01*
X187505297Y-32608297D01*
X187527736Y-32635639D01*
X187591669Y-32755248D01*
X187631038Y-32885030D01*
X187644331Y-33020000D01*
X187631038Y-33154970D01*
X187591669Y-33284752D01*
X187591666Y-33284757D01*
X187527737Y-33404360D01*
X187441699Y-33509199D01*
X187336860Y-33595237D01*
X187266645Y-33632767D01*
X187217252Y-33659169D01*
X187087470Y-33698538D01*
X187006551Y-33706508D01*
X186986322Y-33708500D01*
X186393678Y-33708500D01*
X186373449Y-33706508D01*
X186292530Y-33698538D01*
X186162748Y-33659169D01*
X186113355Y-33632767D01*
X186043140Y-33595237D01*
X185938301Y-33509199D01*
X185852263Y-33404360D01*
X185788334Y-33284757D01*
X185788331Y-33284752D01*
X185748962Y-33154970D01*
X185735669Y-33020000D01*
X185748962Y-32885030D01*
X185788331Y-32755248D01*
X185852264Y-32635639D01*
X185874703Y-32608297D01*
X185938301Y-32530801D01*
X186043140Y-32444763D01*
X186113355Y-32407233D01*
X186162748Y-32380831D01*
X186292530Y-32341462D01*
X186383718Y-32332481D01*
X186393678Y-32331500D01*
X186986322Y-32331500D01*
X186996282Y-32332481D01*
X186996282Y-32332481D01*
G37*
G36*
X145663228Y-30971703D02*
G01*
X145818100Y-31035853D01*
X145957481Y-31128985D01*
X146076015Y-31247519D01*
X146169147Y-31386900D01*
X146233297Y-31541772D01*
X146266000Y-31706184D01*
X146266000Y-31873816D01*
X146233297Y-32038228D01*
X146169147Y-32193100D01*
X146076015Y-32332481D01*
X145957481Y-32451015D01*
X145818100Y-32544147D01*
X145663228Y-32608297D01*
X145498816Y-32641000D01*
X145331184Y-32641000D01*
X145166772Y-32608297D01*
X145011900Y-32544147D01*
X144872519Y-32451015D01*
X144753985Y-32332481D01*
X144660853Y-32193100D01*
X144596703Y-32038228D01*
X144564000Y-31873816D01*
X144564000Y-31706184D01*
X144596703Y-31541772D01*
X144660853Y-31386900D01*
X144753985Y-31247519D01*
X144872519Y-31128985D01*
X145011900Y-31035853D01*
X145166772Y-30971703D01*
X145331184Y-30939000D01*
X145498816Y-30939000D01*
X145663228Y-30971703D01*
X145663228Y-30971703D01*
G37*
G36*
X204674473Y-29805938D02*
G01*
X204802049Y-29858782D01*
X204916859Y-29935495D01*
X205014505Y-30033141D01*
X205091218Y-30147951D01*
X205144062Y-30275527D01*
X205171000Y-30410956D01*
X205171000Y-30549044D01*
X205144062Y-30684473D01*
X205091218Y-30812049D01*
X205062816Y-30854556D01*
X205051265Y-30876167D01*
X205044152Y-30899616D01*
X205041750Y-30924002D01*
X205044152Y-30948388D01*
X205051265Y-30971837D01*
X205062817Y-30993447D01*
X205078362Y-31012389D01*
X205097304Y-31027934D01*
X205118915Y-31039485D01*
X205142364Y-31046598D01*
X205166749Y-31049000D01*
X206441000Y-31049000D01*
X206441000Y-32451000D01*
X205039000Y-32451000D01*
X205039000Y-31176749D01*
X205036598Y-31152363D01*
X205029485Y-31128914D01*
X205017934Y-31107303D01*
X205002389Y-31088361D01*
X204983447Y-31072816D01*
X204961836Y-31061265D01*
X204938387Y-31054152D01*
X204914001Y-31051750D01*
X204889615Y-31054152D01*
X204866166Y-31061265D01*
X204844556Y-31072816D01*
X204802049Y-31101218D01*
X204674473Y-31154062D01*
X204539044Y-31181000D01*
X204400956Y-31181000D01*
X204265527Y-31154062D01*
X204137951Y-31101218D01*
X204023141Y-31024505D01*
X203925495Y-30926859D01*
X203848782Y-30812049D01*
X203795938Y-30684473D01*
X203769000Y-30549044D01*
X203769000Y-30410956D01*
X203795938Y-30275527D01*
X203848782Y-30147951D01*
X203925495Y-30033141D01*
X204023141Y-29935495D01*
X204137951Y-29858782D01*
X204265527Y-29805938D01*
X204400956Y-29779000D01*
X204539044Y-29779000D01*
X204674473Y-29805938D01*
X204674473Y-29805938D01*
G37*
G36*
X213564473Y-29805938D02*
G01*
X213692049Y-29858782D01*
X213806859Y-29935495D01*
X213904505Y-30033141D01*
X213981218Y-30147951D01*
X214034062Y-30275527D01*
X214061000Y-30410956D01*
X214061000Y-30549044D01*
X214034062Y-30684473D01*
X213981218Y-30812049D01*
X213952816Y-30854556D01*
X213941265Y-30876167D01*
X213934152Y-30899616D01*
X213931750Y-30924002D01*
X213934152Y-30948388D01*
X213941265Y-30971837D01*
X213952817Y-30993447D01*
X213968362Y-31012389D01*
X213987304Y-31027934D01*
X214008915Y-31039485D01*
X214032364Y-31046598D01*
X214056749Y-31049000D01*
X215331000Y-31049000D01*
X215331000Y-32451000D01*
X213929000Y-32451000D01*
X213929000Y-31176749D01*
X213926598Y-31152363D01*
X213919485Y-31128914D01*
X213907934Y-31107303D01*
X213892389Y-31088361D01*
X213873447Y-31072816D01*
X213851836Y-31061265D01*
X213828387Y-31054152D01*
X213804001Y-31051750D01*
X213779615Y-31054152D01*
X213756166Y-31061265D01*
X213734556Y-31072816D01*
X213692049Y-31101218D01*
X213564473Y-31154062D01*
X213429044Y-31181000D01*
X213290956Y-31181000D01*
X213155527Y-31154062D01*
X213027951Y-31101218D01*
X212913141Y-31024505D01*
X212815495Y-30926859D01*
X212738782Y-30812049D01*
X212685938Y-30684473D01*
X212659000Y-30549044D01*
X212659000Y-30410956D01*
X212685938Y-30275527D01*
X212738782Y-30147951D01*
X212815495Y-30033141D01*
X212913141Y-29935495D01*
X213027951Y-29858782D01*
X213155527Y-29805938D01*
X213290956Y-29779000D01*
X213429044Y-29779000D01*
X213564473Y-29805938D01*
X213564473Y-29805938D01*
G37*
G36*
X187006551Y-30633492D02*
G01*
X187087470Y-30641462D01*
X187217252Y-30680831D01*
X187266645Y-30707233D01*
X187336860Y-30744763D01*
X187441699Y-30830801D01*
X187527737Y-30935640D01*
X187558635Y-30993447D01*
X187591669Y-31055248D01*
X187631038Y-31185030D01*
X187644331Y-31320000D01*
X187631038Y-31454970D01*
X187591669Y-31584752D01*
X187591666Y-31584757D01*
X187527737Y-31704360D01*
X187441699Y-31809199D01*
X187336860Y-31895237D01*
X187266645Y-31932767D01*
X187217252Y-31959169D01*
X187087470Y-31998538D01*
X187006551Y-32006508D01*
X186986322Y-32008500D01*
X186393678Y-32008500D01*
X186373449Y-32006508D01*
X186292530Y-31998538D01*
X186162748Y-31959169D01*
X186113355Y-31932767D01*
X186043140Y-31895237D01*
X185938301Y-31809199D01*
X185852263Y-31704360D01*
X185788334Y-31584757D01*
X185788331Y-31584752D01*
X185748962Y-31454970D01*
X185735669Y-31320000D01*
X185748962Y-31185030D01*
X185788331Y-31055248D01*
X185821365Y-30993447D01*
X185852263Y-30935640D01*
X185938301Y-30830801D01*
X186043140Y-30744763D01*
X186113355Y-30707233D01*
X186162748Y-30680831D01*
X186292530Y-30641462D01*
X186373449Y-30633492D01*
X186393678Y-30631500D01*
X186986322Y-30631500D01*
X187006551Y-30633492D01*
X187006551Y-30633492D01*
G37*
G36*
X156376822Y-27971313D02*
G01*
X156537241Y-28019976D01*
X156685077Y-28098995D01*
X156795961Y-28189996D01*
X156814659Y-28205341D01*
X156921004Y-28334922D01*
X156921005Y-28334924D01*
X157000024Y-28482758D01*
X157000024Y-28482759D01*
X157000025Y-28482761D01*
X157009083Y-28512620D01*
X157048687Y-28643177D01*
X157061000Y-28768196D01*
X157061000Y-29651803D01*
X157048687Y-29776822D01*
X157048686Y-29776825D01*
X157007985Y-29911000D01*
X157000024Y-29937242D01*
X156964148Y-30004361D01*
X156921004Y-30085078D01*
X156814659Y-30214659D01*
X156685078Y-30321004D01*
X156685076Y-30321005D01*
X156537242Y-30400024D01*
X156376823Y-30448687D01*
X156210000Y-30465117D01*
X156043178Y-30448687D01*
X155882759Y-30400024D01*
X155734925Y-30321005D01*
X155734923Y-30321004D01*
X155605342Y-30214659D01*
X155498997Y-30085078D01*
X155455853Y-30004361D01*
X155419977Y-29937242D01*
X155412017Y-29911000D01*
X155387815Y-29831218D01*
X155371314Y-29776823D01*
X155359000Y-29651803D01*
X155359000Y-28768197D01*
X155371313Y-28643178D01*
X155419976Y-28482759D01*
X155498995Y-28334923D01*
X155605341Y-28205341D01*
X155624039Y-28189996D01*
X155734922Y-28098996D01*
X155750094Y-28090886D01*
X155882758Y-28019976D01*
X156043177Y-27971313D01*
X156210000Y-27954883D01*
X156376822Y-27971313D01*
X156376822Y-27971313D01*
G37*
G36*
X153836822Y-27971313D02*
G01*
X153997241Y-28019976D01*
X154145077Y-28098995D01*
X154255961Y-28189996D01*
X154274659Y-28205341D01*
X154381004Y-28334922D01*
X154381005Y-28334924D01*
X154460024Y-28482758D01*
X154460024Y-28482759D01*
X154460025Y-28482761D01*
X154469083Y-28512620D01*
X154508687Y-28643177D01*
X154521000Y-28768196D01*
X154521000Y-29651803D01*
X154508687Y-29776822D01*
X154508686Y-29776825D01*
X154467985Y-29911000D01*
X154460024Y-29937242D01*
X154424148Y-30004361D01*
X154381004Y-30085078D01*
X154274659Y-30214659D01*
X154145078Y-30321004D01*
X154145076Y-30321005D01*
X153997242Y-30400024D01*
X153836823Y-30448687D01*
X153670000Y-30465117D01*
X153503178Y-30448687D01*
X153342759Y-30400024D01*
X153194925Y-30321005D01*
X153194923Y-30321004D01*
X153065342Y-30214659D01*
X152958997Y-30085078D01*
X152915853Y-30004361D01*
X152879977Y-29937242D01*
X152872017Y-29911000D01*
X152847815Y-29831218D01*
X152831314Y-29776823D01*
X152819000Y-29651803D01*
X152819000Y-28768197D01*
X152831313Y-28643178D01*
X152879976Y-28482759D01*
X152958995Y-28334923D01*
X153065341Y-28205341D01*
X153084039Y-28189996D01*
X153194922Y-28098996D01*
X153210094Y-28090886D01*
X153342758Y-28019976D01*
X153503177Y-27971313D01*
X153670000Y-27954883D01*
X153836822Y-27971313D01*
X153836822Y-27971313D01*
G37*
G36*
X158916822Y-27971313D02*
G01*
X159077241Y-28019976D01*
X159225077Y-28098995D01*
X159335961Y-28189996D01*
X159354659Y-28205341D01*
X159461004Y-28334922D01*
X159461005Y-28334924D01*
X159540024Y-28482758D01*
X159540024Y-28482759D01*
X159540025Y-28482761D01*
X159549083Y-28512620D01*
X159588687Y-28643177D01*
X159601000Y-28768196D01*
X159601000Y-29651803D01*
X159588687Y-29776822D01*
X159588686Y-29776825D01*
X159547985Y-29911000D01*
X159540024Y-29937242D01*
X159504148Y-30004361D01*
X159461004Y-30085078D01*
X159354659Y-30214659D01*
X159225078Y-30321004D01*
X159225076Y-30321005D01*
X159077242Y-30400024D01*
X158916823Y-30448687D01*
X158750000Y-30465117D01*
X158583178Y-30448687D01*
X158422759Y-30400024D01*
X158274925Y-30321005D01*
X158274923Y-30321004D01*
X158145342Y-30214659D01*
X158038997Y-30085078D01*
X157995853Y-30004361D01*
X157959977Y-29937242D01*
X157952017Y-29911000D01*
X157927815Y-29831218D01*
X157911314Y-29776823D01*
X157899000Y-29651803D01*
X157899000Y-28768197D01*
X157911313Y-28643178D01*
X157959976Y-28482759D01*
X158038995Y-28334923D01*
X158145341Y-28205341D01*
X158164039Y-28189996D01*
X158274922Y-28098996D01*
X158290094Y-28090886D01*
X158422758Y-28019976D01*
X158583177Y-27971313D01*
X158750000Y-27954883D01*
X158916822Y-27971313D01*
X158916822Y-27971313D01*
G37*
G36*
X161456822Y-27971313D02*
G01*
X161617241Y-28019976D01*
X161765077Y-28098995D01*
X161875961Y-28189996D01*
X161894659Y-28205341D01*
X162001004Y-28334922D01*
X162001005Y-28334924D01*
X162080024Y-28482758D01*
X162080024Y-28482759D01*
X162080025Y-28482761D01*
X162089083Y-28512620D01*
X162128687Y-28643177D01*
X162141000Y-28768196D01*
X162141000Y-29651803D01*
X162128687Y-29776822D01*
X162128686Y-29776825D01*
X162087985Y-29911000D01*
X162080024Y-29937242D01*
X162044148Y-30004361D01*
X162001004Y-30085078D01*
X161894659Y-30214659D01*
X161765078Y-30321004D01*
X161765076Y-30321005D01*
X161617242Y-30400024D01*
X161456823Y-30448687D01*
X161290000Y-30465117D01*
X161123178Y-30448687D01*
X160962759Y-30400024D01*
X160814925Y-30321005D01*
X160814923Y-30321004D01*
X160685342Y-30214659D01*
X160578997Y-30085078D01*
X160535853Y-30004361D01*
X160499977Y-29937242D01*
X160492017Y-29911000D01*
X160467815Y-29831218D01*
X160451314Y-29776823D01*
X160439000Y-29651803D01*
X160439000Y-28768197D01*
X160451313Y-28643178D01*
X160499976Y-28482759D01*
X160578995Y-28334923D01*
X160685341Y-28205341D01*
X160704039Y-28189996D01*
X160814922Y-28098996D01*
X160830094Y-28090886D01*
X160962758Y-28019976D01*
X161123177Y-27971313D01*
X161290000Y-27954883D01*
X161456822Y-27971313D01*
X161456822Y-27971313D01*
G37*
G36*
X222474549Y-28081116D02*
G01*
X222585734Y-28103232D01*
X222795203Y-28189997D01*
X222983720Y-28315960D01*
X223144040Y-28476280D01*
X223270003Y-28664797D01*
X223270004Y-28664799D01*
X223271131Y-28667520D01*
X223356768Y-28874266D01*
X223370134Y-28941462D01*
X223401000Y-29096635D01*
X223401000Y-29323365D01*
X223356768Y-29545733D01*
X223270294Y-29754502D01*
X223270003Y-29755203D01*
X223144040Y-29943720D01*
X222983720Y-30104040D01*
X222795203Y-30230003D01*
X222585734Y-30316768D01*
X222474549Y-30338884D01*
X222363365Y-30361000D01*
X222136635Y-30361000D01*
X222025451Y-30338884D01*
X221914266Y-30316768D01*
X221704797Y-30230003D01*
X221516280Y-30104040D01*
X221355960Y-29943720D01*
X221229997Y-29755203D01*
X221229707Y-29754502D01*
X221143232Y-29545733D01*
X221099000Y-29323365D01*
X221099000Y-29096635D01*
X221129866Y-28941462D01*
X221143232Y-28874266D01*
X221228869Y-28667520D01*
X221229996Y-28664799D01*
X221229997Y-28664797D01*
X221355960Y-28476280D01*
X221516280Y-28315960D01*
X221704797Y-28189997D01*
X221914266Y-28103232D01*
X222025451Y-28081116D01*
X222136635Y-28059000D01*
X222363365Y-28059000D01*
X222474549Y-28081116D01*
X222474549Y-28081116D01*
G37*
G36*
X131034549Y-28081116D02*
G01*
X131145734Y-28103232D01*
X131355203Y-28189997D01*
X131543720Y-28315960D01*
X131704040Y-28476280D01*
X131830003Y-28664797D01*
X131830004Y-28664799D01*
X131831131Y-28667520D01*
X131916768Y-28874266D01*
X131930134Y-28941462D01*
X131961000Y-29096635D01*
X131961000Y-29323365D01*
X131916768Y-29545733D01*
X131830294Y-29754502D01*
X131830003Y-29755203D01*
X131704040Y-29943720D01*
X131543720Y-30104040D01*
X131355203Y-30230003D01*
X131145734Y-30316768D01*
X131034549Y-30338884D01*
X130923365Y-30361000D01*
X130696635Y-30361000D01*
X130585451Y-30338884D01*
X130474266Y-30316768D01*
X130264797Y-30230003D01*
X130076280Y-30104040D01*
X129915960Y-29943720D01*
X129789997Y-29755203D01*
X129789707Y-29754502D01*
X129703232Y-29545733D01*
X129659000Y-29323365D01*
X129659000Y-29096635D01*
X129689866Y-28941462D01*
X129703232Y-28874266D01*
X129788869Y-28667520D01*
X129789996Y-28664799D01*
X129789997Y-28664797D01*
X129915960Y-28476280D01*
X130076280Y-28315960D01*
X130264797Y-28189997D01*
X130474266Y-28103232D01*
X130585451Y-28081116D01*
X130696635Y-28059000D01*
X130923365Y-28059000D01*
X131034549Y-28081116D01*
X131034549Y-28081116D01*
G37*
G36*
X187006551Y-28933492D02*
G01*
X187087470Y-28941462D01*
X187217252Y-28980831D01*
X187263453Y-29005526D01*
X187336860Y-29044763D01*
X187441699Y-29130801D01*
X187527736Y-29235639D01*
X187591669Y-29355248D01*
X187631038Y-29485030D01*
X187644331Y-29620000D01*
X187631038Y-29754970D01*
X187591669Y-29884752D01*
X187591666Y-29884757D01*
X187527737Y-30004360D01*
X187441699Y-30109199D01*
X187336860Y-30195237D01*
X187271817Y-30230003D01*
X187217252Y-30259169D01*
X187087470Y-30298538D01*
X187006551Y-30306508D01*
X186986322Y-30308500D01*
X186393678Y-30308500D01*
X186373449Y-30306508D01*
X186292530Y-30298538D01*
X186162748Y-30259169D01*
X186108183Y-30230003D01*
X186043140Y-30195237D01*
X185938301Y-30109199D01*
X185852263Y-30004360D01*
X185788334Y-29884757D01*
X185788331Y-29884752D01*
X185748962Y-29754970D01*
X185735669Y-29620000D01*
X185748962Y-29485030D01*
X185788331Y-29355248D01*
X185852264Y-29235639D01*
X185938301Y-29130801D01*
X186043140Y-29044763D01*
X186116547Y-29005526D01*
X186162748Y-28980831D01*
X186292530Y-28941462D01*
X186373449Y-28933492D01*
X186393678Y-28931500D01*
X186986322Y-28931500D01*
X187006551Y-28933492D01*
X187006551Y-28933492D01*
G37*
G36*
X198368228Y-28391703D02*
G01*
X198523100Y-28455853D01*
X198662481Y-28548985D01*
X198781015Y-28667519D01*
X198874147Y-28806900D01*
X198938297Y-28961772D01*
X198971000Y-29126184D01*
X198971000Y-29293816D01*
X198938297Y-29458228D01*
X198874147Y-29613100D01*
X198781015Y-29752481D01*
X198662481Y-29871015D01*
X198523100Y-29964147D01*
X198368228Y-30028297D01*
X198203816Y-30061000D01*
X198036184Y-30061000D01*
X197871772Y-30028297D01*
X197716900Y-29964147D01*
X197577519Y-29871015D01*
X197458985Y-29752481D01*
X197365853Y-29613100D01*
X197301703Y-29458228D01*
X197269000Y-29293816D01*
X197269000Y-29126184D01*
X197301703Y-28961772D01*
X197365853Y-28806900D01*
X197458985Y-28667519D01*
X197577519Y-28548985D01*
X197716900Y-28455853D01*
X197871772Y-28391703D01*
X198036184Y-28359000D01*
X198203816Y-28359000D01*
X198368228Y-28391703D01*
X198368228Y-28391703D01*
G37*
G36*
X193288228Y-28391703D02*
G01*
X193443100Y-28455853D01*
X193582481Y-28548985D01*
X193701015Y-28667519D01*
X193794147Y-28806900D01*
X193858297Y-28961772D01*
X193891000Y-29126184D01*
X193891000Y-29293816D01*
X193858297Y-29458228D01*
X193794147Y-29613100D01*
X193701015Y-29752481D01*
X193582481Y-29871015D01*
X193443100Y-29964147D01*
X193288228Y-30028297D01*
X193123816Y-30061000D01*
X192956184Y-30061000D01*
X192791772Y-30028297D01*
X192636900Y-29964147D01*
X192497519Y-29871015D01*
X192378985Y-29752481D01*
X192285853Y-29613100D01*
X192221703Y-29458228D01*
X192189000Y-29293816D01*
X192189000Y-29126184D01*
X192221703Y-28961772D01*
X192285853Y-28806900D01*
X192378985Y-28667519D01*
X192497519Y-28548985D01*
X192636900Y-28455853D01*
X192791772Y-28391703D01*
X192956184Y-28359000D01*
X193123816Y-28359000D01*
X193288228Y-28391703D01*
X193288228Y-28391703D01*
G37*
G36*
X214834473Y-28535938D02*
G01*
X214962049Y-28588782D01*
X215076859Y-28665495D01*
X215174505Y-28763141D01*
X215251218Y-28877951D01*
X215304062Y-29005527D01*
X215331000Y-29140956D01*
X215331000Y-29279044D01*
X215304062Y-29414473D01*
X215251218Y-29542049D01*
X215174505Y-29656859D01*
X215076859Y-29754505D01*
X214962049Y-29831218D01*
X214834473Y-29884062D01*
X214699044Y-29911000D01*
X214560956Y-29911000D01*
X214425527Y-29884062D01*
X214297951Y-29831218D01*
X214183141Y-29754505D01*
X214085495Y-29656859D01*
X214008782Y-29542049D01*
X213955938Y-29414473D01*
X213929000Y-29279044D01*
X213929000Y-29140956D01*
X213955938Y-29005527D01*
X214008782Y-28877951D01*
X214085495Y-28763141D01*
X214183141Y-28665495D01*
X214297951Y-28588782D01*
X214425527Y-28535938D01*
X214560956Y-28509000D01*
X214699044Y-28509000D01*
X214834473Y-28535938D01*
X214834473Y-28535938D01*
G37*
G36*
X205944473Y-28535938D02*
G01*
X206072049Y-28588782D01*
X206186859Y-28665495D01*
X206284505Y-28763141D01*
X206361218Y-28877951D01*
X206414062Y-29005527D01*
X206441000Y-29140956D01*
X206441000Y-29279044D01*
X206414062Y-29414473D01*
X206361218Y-29542049D01*
X206284505Y-29656859D01*
X206186859Y-29754505D01*
X206072049Y-29831218D01*
X205944473Y-29884062D01*
X205809044Y-29911000D01*
X205670956Y-29911000D01*
X205535527Y-29884062D01*
X205407951Y-29831218D01*
X205293141Y-29754505D01*
X205195495Y-29656859D01*
X205118782Y-29542049D01*
X205065938Y-29414473D01*
X205039000Y-29279044D01*
X205039000Y-29140956D01*
X205065938Y-29005527D01*
X205118782Y-28877951D01*
X205195495Y-28763141D01*
X205293141Y-28665495D01*
X205407951Y-28588782D01*
X205535527Y-28535938D01*
X205670956Y-28509000D01*
X205809044Y-28509000D01*
X205944473Y-28535938D01*
X205944473Y-28535938D01*
G37*
M02*
